<svg xmlns="http://www.w3.org/2000/svg" xmlns:xlink="http://www.w3.org/1999/xlink" width="1920" zoomAndPan="magnify" viewBox="0 0 1440 809.999993" height="1080" preserveAspectRatio="xMidYMid meet" version="1.0"><defs><g/><clipPath id="2399fa2156"><path d="M 466 55.667969 L 973.957031 55.667969 L 973.957031 555 L 466 555 Z M 466 55.667969 " clip-rule="nonzero"/></clipPath><clipPath id="d5d04375aa"><path d="M 466 255 L 973.957031 255 L 973.957031 754 L 466 754 Z M 466 255 " clip-rule="nonzero"/></clipPath></defs><path fill="#5271ff" d="M 517.46875 144.546875 C 496.628906 144.546875 479.648438 127.667969 479.648438 106.722656 C 479.648438 85.78125 496.527344 68.902344 517.46875 68.902344 L 811.800781 68.902344 C 832.644531 68.902344 849.621094 85.78125 849.621094 106.722656 C 849.621094 127.667969 832.746094 144.546875 811.800781 144.546875 Z M 517.46875 144.546875 " fill-opacity="1" fill-rule="nonzero"/><path fill="#38b6ff" d="M 629.304688 243.875 C 608.464844 243.570312 591.789062 226.285156 592.09375 205.445312 C 592.398438 185.007812 608.871094 168.640625 629.304688 168.234375 L 923.636719 168.234375 C 944.480469 168.539062 961.152344 185.824219 960.847656 206.664062 C 960.542969 227.101562 944.074219 243.46875 923.636719 243.875 Z M 629.304688 243.875 " fill-opacity="1" fill-rule="nonzero"/><path fill="#5271ff" d="M 517.46875 343.308594 C 496.628906 343.003906 479.953125 325.71875 480.257812 304.878906 C 480.5625 284.441406 497.035156 268.074219 517.46875 267.667969 L 811.800781 267.667969 C 832.644531 267.972656 849.316406 285.253906 849.011719 306.097656 C 848.707031 326.53125 832.238281 342.902344 811.800781 343.308594 Z M 517.46875 343.308594 " fill-opacity="1" fill-rule="nonzero"/><path fill="#38b6ff" d="M 629.304688 442.742188 C 608.464844 442.433594 591.789062 425.152344 592.09375 404.308594 C 592.398438 383.875 608.871094 367.503906 629.304688 367.097656 L 923.636719 367.097656 C 944.480469 367.402344 961.152344 384.6875 960.847656 405.53125 C 960.542969 425.964844 944.074219 442.332031 923.636719 442.742188 Z M 629.304688 442.742188 " fill-opacity="1" fill-rule="nonzero"/><path fill="#5271ff" d="M 517.46875 542.070312 C 496.628906 542.070312 479.648438 525.195312 479.648438 504.25 C 479.648438 483.40625 496.527344 466.429688 517.46875 466.429688 L 811.800781 466.429688 C 832.644531 466.429688 849.621094 483.304688 849.621094 504.25 C 849.621094 525.09375 832.746094 542.070312 811.800781 542.070312 Z M 517.46875 542.070312 " fill-opacity="1" fill-rule="nonzero"/><g clip-path="url(#2399fa2156)"><path fill="#a67bfc" d="M 811.800781 554.984375 L 517.46875 554.984375 C 489.410156 554.984375 466.738281 532.3125 466.738281 504.25 C 466.738281 476.1875 489.410156 453.515625 517.46875 453.515625 L 614.96875 453.515625 C 588.128906 445.585938 572.675781 417.425781 580.605469 390.480469 C 585.488281 373.910156 598.398438 361 614.96875 356.117188 L 517.46875 356.117188 C 489.511719 356.625 466.433594 334.257812 466.027344 306.199219 C 465.617188 278.136719 487.984375 255.160156 516.046875 254.753906 C 516.554688 254.753906 516.960938 254.753906 517.46875 254.753906 L 614.96875 254.753906 C 588.128906 246.824219 572.675781 218.660156 580.605469 191.71875 C 585.488281 175.148438 598.398438 162.234375 614.96875 157.355469 L 517.46875 157.355469 C 489.410156 157.457031 466.738281 134.683594 466.738281 106.722656 C 466.738281 78.765625 489.410156 55.992188 517.46875 55.992188 L 811.800781 55.992188 C 839.863281 55.992188 862.535156 78.664062 862.535156 106.722656 C 862.535156 129.191406 847.691406 149.019531 826.136719 155.425781 L 923.636719 155.425781 C 951.699219 155.425781 974.371094 178.097656 974.371094 206.15625 C 974.371094 234.21875 951.699219 256.890625 923.636719 256.890625 L 826.136719 256.890625 C 852.976562 264.820312 868.429688 292.980469 860.5 319.824219 C 855.621094 336.394531 842.707031 349.304688 826.136719 354.1875 L 923.636719 354.1875 C 951.699219 354.1875 974.371094 376.859375 974.371094 404.917969 C 974.371094 432.980469 951.699219 455.652344 923.636719 455.652344 L 826.136719 455.652344 C 852.976562 463.582031 868.429688 491.746094 860.5 518.585938 C 854.199219 540.140625 834.371094 554.984375 811.800781 554.984375 Z M 517.46875 455.652344 C 490.628906 455.652344 468.769531 477.410156 468.769531 504.351562 C 468.769531 531.191406 490.527344 553.050781 517.46875 553.050781 L 811.800781 553.050781 C 838.640625 553.050781 860.5 531.292969 860.5 504.351562 C 860.5 477.511719 838.742188 455.652344 811.800781 455.652344 C 811.191406 455.652344 810.785156 455.144531 810.785156 454.636719 C 810.785156 454.128906 811.292969 453.617188 811.800781 453.617188 L 923.636719 453.617188 C 950.476562 453.617188 972.335938 431.863281 972.335938 404.917969 C 972.335938 378.078125 950.578125 356.21875 923.636719 356.21875 L 811.800781 356.21875 C 811.191406 356.21875 810.785156 355.710938 810.785156 355.203125 C 810.785156 354.695312 811.292969 354.1875 811.800781 354.1875 C 838.640625 354.59375 860.804688 333.140625 861.210938 306.199219 C 861.621094 279.359375 840.167969 257.195312 813.226562 256.789062 C 812.714844 256.789062 812.308594 256.789062 811.800781 256.789062 C 811.191406 256.789062 810.785156 256.28125 810.785156 255.769531 C 810.785156 255.261719 811.292969 254.753906 811.800781 254.753906 L 923.636719 254.753906 C 950.476562 254.753906 972.335938 232.996094 972.335938 206.054688 C 972.335938 179.113281 950.578125 157.355469 923.636719 157.355469 L 811.800781 157.355469 C 811.191406 157.355469 810.785156 156.847656 810.785156 156.339844 C 810.785156 155.730469 811.292969 155.320312 811.800781 155.320312 C 838.640625 155.320312 860.5 133.566406 860.5 106.621094 C 860.5 79.882812 838.742188 58.023438 811.800781 58.023438 L 517.46875 58.023438 C 490.628906 58.023438 468.769531 79.882812 468.769531 106.722656 C 468.769531 133.566406 490.527344 155.425781 517.46875 155.425781 L 629.304688 155.425781 C 629.914062 155.425781 630.324219 155.933594 630.324219 156.441406 C 630.324219 157.050781 629.8125 157.457031 629.304688 157.457031 C 602.464844 157.457031 580.605469 179.214844 580.605469 206.15625 C 580.605469 233.097656 602.363281 254.855469 629.304688 254.855469 C 629.914062 254.855469 630.324219 255.363281 630.324219 255.871094 C 630.324219 256.382812 629.8125 256.890625 629.304688 256.890625 L 517.46875 256.890625 C 490.628906 256.484375 468.464844 277.933594 468.058594 304.777344 C 467.652344 331.617188 489.105469 353.78125 516.046875 354.1875 C 516.554688 354.1875 516.960938 354.1875 517.46875 354.1875 L 629.304688 354.1875 C 629.914062 354.1875 630.324219 354.695312 630.324219 355.203125 C 630.324219 355.710938 629.8125 356.21875 629.304688 356.21875 C 602.464844 356.21875 580.605469 377.976562 580.605469 404.917969 C 580.605469 431.761719 602.363281 453.617188 629.304688 453.617188 C 629.914062 453.617188 630.324219 454.128906 630.324219 454.636719 C 630.324219 455.144531 629.8125 455.652344 629.304688 455.652344 Z M 517.46875 455.652344 " fill-opacity="1" fill-rule="nonzero"/></g><path fill="#a67bfc" d="M 797.464844 144.546875 L 773.574219 168.4375 L 658.484375 168.4375 L 682.378906 144.546875 Z M 797.464844 144.546875 " fill-opacity="1" fill-rule="nonzero"/><path fill="#a67bfc" d="M 658.484375 243.875 L 682.378906 267.769531 L 797.464844 267.769531 L 773.574219 243.875 Z M 658.484375 243.875 " fill-opacity="1" fill-rule="nonzero"/><path fill="#a67bfc" d="M 797.464844 343.308594 L 773.675781 367.097656 L 658.484375 367.097656 L 682.378906 343.207031 L 797.464844 343.207031 Z M 797.464844 343.308594 " fill-opacity="1" fill-rule="nonzero"/><path fill="#a67bfc" d="M 658.484375 442.636719 L 682.378906 466.429688 L 797.464844 466.429688 L 773.574219 442.636719 Z M 658.484375 442.636719 " fill-opacity="1" fill-rule="nonzero"/><path fill="#5271ff" d="M 517.46875 343.5625 C 496.628906 343.5625 479.648438 326.683594 479.648438 305.742188 C 479.648438 284.796875 496.527344 267.921875 517.46875 267.921875 L 811.800781 267.921875 C 832.644531 267.921875 849.621094 284.796875 849.621094 305.742188 C 849.621094 326.683594 832.746094 343.5625 811.800781 343.5625 Z M 517.46875 343.5625 " fill-opacity="1" fill-rule="nonzero"/><path fill="#38b6ff" d="M 629.304688 442.890625 C 608.464844 442.585938 591.789062 425.304688 592.09375 404.460938 C 592.398438 384.027344 608.871094 367.65625 629.304688 367.25 L 923.636719 367.25 C 944.480469 367.554688 961.152344 384.839844 960.847656 405.683594 C 960.542969 426.117188 944.074219 442.484375 923.636719 442.890625 Z M 629.304688 442.890625 " fill-opacity="1" fill-rule="nonzero"/><path fill="#5271ff" d="M 517.46875 542.324219 C 496.628906 542.019531 479.953125 524.734375 480.257812 503.894531 C 480.5625 483.457031 497.035156 467.089844 517.46875 466.683594 L 811.800781 466.683594 C 832.644531 466.988281 849.316406 484.273438 849.011719 505.113281 C 848.707031 525.550781 832.238281 541.917969 811.800781 542.324219 Z M 517.46875 542.324219 " fill-opacity="1" fill-rule="nonzero"/><path fill="#38b6ff" d="M 629.304688 641.757812 C 608.464844 641.453125 591.789062 624.167969 592.09375 603.324219 C 592.398438 582.890625 608.871094 566.523438 629.304688 566.117188 L 923.636719 566.117188 C 944.480469 566.421875 961.152344 583.703125 960.847656 604.546875 C 960.542969 624.980469 944.074219 641.351562 923.636719 641.757812 Z M 629.304688 641.757812 " fill-opacity="1" fill-rule="nonzero"/><path fill="#5271ff" d="M 517.46875 741.085938 C 496.628906 741.085938 479.648438 724.210938 479.648438 703.265625 C 479.648438 682.425781 496.527344 665.445312 517.46875 665.445312 L 811.800781 665.445312 C 832.644531 665.445312 849.621094 682.324219 849.621094 703.265625 C 849.621094 724.109375 832.746094 741.085938 811.800781 741.085938 Z M 517.46875 741.085938 " fill-opacity="1" fill-rule="nonzero"/><g clip-path="url(#d5d04375aa)"><path fill="#a67bfc" d="M 811.800781 754 L 517.46875 754 C 489.410156 754 466.738281 731.328125 466.738281 703.265625 C 466.738281 675.207031 489.410156 652.535156 517.46875 652.535156 L 614.96875 652.535156 C 588.128906 644.605469 572.675781 616.441406 580.605469 589.5 C 585.488281 572.925781 598.398438 560.015625 614.96875 555.136719 L 517.46875 555.136719 C 489.511719 555.644531 466.433594 533.277344 466.027344 505.214844 C 465.617188 477.15625 487.984375 454.179688 516.046875 453.769531 C 516.554688 453.769531 516.960938 453.769531 517.46875 453.769531 L 614.96875 453.769531 C 588.128906 445.839844 572.675781 417.679688 580.605469 390.738281 C 585.488281 374.164062 598.398438 361.253906 614.96875 356.371094 L 517.46875 356.371094 C 489.410156 356.472656 466.738281 333.699219 466.738281 305.742188 C 466.738281 277.78125 489.410156 255.007812 517.46875 255.007812 L 811.800781 255.007812 C 839.863281 255.007812 862.535156 277.679688 862.535156 305.742188 C 862.535156 328.210938 847.691406 348.035156 826.136719 354.441406 L 923.636719 354.441406 C 951.699219 354.441406 974.371094 377.113281 974.371094 405.171875 C 974.371094 433.234375 951.699219 455.90625 923.636719 455.90625 L 826.136719 455.90625 C 852.976562 463.835938 868.429688 492 860.5 518.839844 C 855.621094 535.410156 842.707031 548.324219 826.136719 553.203125 L 923.636719 553.203125 C 951.699219 553.203125 974.371094 575.875 974.371094 603.9375 C 974.371094 631.996094 951.699219 654.667969 923.636719 654.667969 L 826.136719 654.667969 C 852.976562 662.597656 868.429688 690.761719 860.5 717.601562 C 854.199219 739.15625 834.371094 754 811.800781 754 Z M 517.46875 654.667969 C 490.628906 654.667969 468.769531 676.425781 468.769531 703.367188 C 468.769531 730.207031 490.527344 752.066406 517.46875 752.066406 L 811.800781 752.066406 C 838.640625 752.066406 860.5 730.3125 860.5 703.367188 C 860.5 676.527344 838.742188 654.667969 811.800781 654.667969 C 811.191406 654.667969 810.785156 654.160156 810.785156 653.652344 C 810.785156 653.144531 811.292969 652.636719 811.800781 652.636719 L 923.636719 652.636719 C 950.476562 652.636719 972.335938 630.878906 972.335938 603.9375 C 972.335938 577.09375 950.578125 555.238281 923.636719 555.238281 L 811.800781 555.238281 C 811.191406 555.238281 810.785156 554.726562 810.785156 554.21875 C 810.785156 553.710938 811.292969 553.203125 811.800781 553.203125 C 838.640625 553.609375 860.804688 532.15625 861.210938 505.214844 C 861.621094 478.375 840.167969 456.210938 813.226562 455.804688 C 812.714844 455.804688 812.308594 455.804688 811.800781 455.804688 C 811.191406 455.804688 810.785156 455.296875 810.785156 454.789062 C 810.785156 454.28125 811.292969 453.769531 811.800781 453.769531 L 923.636719 453.769531 C 950.476562 453.769531 972.335938 432.015625 972.335938 405.070312 C 972.335938 378.128906 950.578125 356.371094 923.636719 356.371094 L 811.800781 356.371094 C 811.191406 356.371094 810.785156 355.863281 810.785156 355.355469 C 810.785156 354.746094 811.292969 354.339844 811.800781 354.339844 C 838.640625 354.339844 860.5 332.582031 860.5 305.640625 C 860.5 278.902344 838.742188 257.042969 811.800781 257.042969 L 517.46875 257.042969 C 490.628906 257.042969 468.769531 278.902344 468.769531 305.742188 C 468.769531 332.582031 490.527344 354.441406 517.46875 354.441406 L 629.304688 354.441406 C 629.914062 354.441406 630.324219 354.949219 630.324219 355.457031 C 630.324219 356.066406 629.8125 356.472656 629.304688 356.472656 C 602.464844 356.472656 580.605469 378.230469 580.605469 405.171875 C 580.605469 432.117188 602.363281 453.871094 629.304688 453.871094 C 629.914062 453.871094 630.324219 454.382812 630.324219 454.890625 C 630.324219 455.398438 629.8125 455.90625 629.304688 455.90625 L 517.46875 455.90625 C 490.628906 455.5 468.464844 476.953125 468.058594 503.792969 C 467.652344 530.632812 489.105469 552.796875 516.046875 553.203125 C 516.554688 553.203125 516.960938 553.203125 517.46875 553.203125 L 629.304688 553.203125 C 629.914062 553.203125 630.324219 553.710938 630.324219 554.21875 C 630.324219 554.726562 629.8125 555.238281 629.304688 555.238281 C 602.464844 555.238281 580.605469 576.992188 580.605469 603.9375 C 580.605469 630.777344 602.363281 652.636719 629.304688 652.636719 C 629.914062 652.636719 630.324219 653.144531 630.324219 653.652344 C 630.324219 654.160156 629.8125 654.667969 629.304688 654.667969 Z M 517.46875 654.667969 " fill-opacity="1" fill-rule="nonzero"/></g><path fill="#a67bfc" d="M 797.464844 343.5625 L 773.574219 367.453125 L 658.484375 367.453125 L 682.378906 343.5625 Z M 797.464844 343.5625 " fill-opacity="1" fill-rule="nonzero"/><path fill="#a67bfc" d="M 658.484375 442.890625 L 682.378906 466.785156 L 797.464844 466.785156 L 773.574219 442.890625 Z M 658.484375 442.890625 " fill-opacity="1" fill-rule="nonzero"/><path fill="#a67bfc" d="M 797.464844 542.324219 L 773.675781 566.117188 L 658.484375 566.117188 L 682.378906 542.222656 L 797.464844 542.222656 Z M 797.464844 542.324219 " fill-opacity="1" fill-rule="nonzero"/><path fill="#a67bfc" d="M 658.484375 641.65625 L 682.378906 665.445312 L 797.464844 665.445312 L 773.574219 641.65625 Z M 658.484375 641.65625 " fill-opacity="1" fill-rule="nonzero"/><g fill="#ffffff" fill-opacity="1"><g transform="translate(597.131232, 117.939842)"><g><path d="M 10.15625 -18.40625 C 11.78125 -18.40625 13.191406 -18.132812 14.390625 -17.59375 C 15.597656 -17.050781 16.523438 -16.28125 17.171875 -15.28125 C 17.816406 -14.28125 18.140625 -13.097656 18.140625 -11.734375 C 18.140625 -10.378906 17.816406 -9.195312 17.171875 -8.1875 C 16.523438 -7.175781 15.597656 -6.40625 14.390625 -5.875 C 13.191406 -5.34375 11.78125 -5.078125 10.15625 -5.078125 L 6.4375 -5.078125 L 6.4375 0 L 2.1875 0 L 2.1875 -18.40625 Z M 9.90625 -8.546875 C 11.1875 -8.546875 12.160156 -8.820312 12.828125 -9.375 C 13.492188 -9.925781 13.828125 -10.710938 13.828125 -11.734375 C 13.828125 -12.765625 13.492188 -13.554688 12.828125 -14.109375 C 12.160156 -14.660156 11.1875 -14.9375 9.90625 -14.9375 L 6.4375 -14.9375 L 6.4375 -8.546875 Z M 9.90625 -8.546875 "/></g></g></g><g fill="#ffffff" fill-opacity="1"><g transform="translate(616.380571, 117.939842)"><g><path d="M 1.890625 -19.515625 L 6 -19.515625 L 6 0 L 1.890625 0 Z M 1.890625 -19.515625 "/></g></g></g><g fill="#ffffff" fill-opacity="1"><g transform="translate(624.295946, 117.939842)"><g><path d="M 7.59375 -14.359375 C 9.789062 -14.359375 11.472656 -13.835938 12.640625 -12.796875 C 13.816406 -11.753906 14.40625 -10.179688 14.40625 -8.078125 L 14.40625 0 L 10.578125 0 L 10.578125 -1.765625 C 9.804688 -0.453125 8.367188 0.203125 6.265625 0.203125 C 5.171875 0.203125 4.222656 0.0195312 3.421875 -0.34375 C 2.628906 -0.707031 2.019531 -1.210938 1.59375 -1.859375 C 1.175781 -2.515625 0.96875 -3.253906 0.96875 -4.078125 C 0.96875 -5.390625 1.460938 -6.421875 2.453125 -7.171875 C 3.441406 -7.929688 4.972656 -8.3125 7.046875 -8.3125 L 10.3125 -8.3125 C 10.3125 -9.207031 10.035156 -9.894531 9.484375 -10.375 C 8.941406 -10.851562 8.128906 -11.09375 7.046875 -11.09375 C 6.296875 -11.09375 5.554688 -10.972656 4.828125 -10.734375 C 4.097656 -10.503906 3.476562 -10.1875 2.96875 -9.78125 L 1.5 -12.65625 C 2.269531 -13.195312 3.191406 -13.613281 4.265625 -13.90625 C 5.347656 -14.207031 6.457031 -14.359375 7.59375 -14.359375 Z M 7.28125 -2.546875 C 7.988281 -2.546875 8.613281 -2.707031 9.15625 -3.03125 C 9.695312 -3.363281 10.082031 -3.84375 10.3125 -4.46875 L 10.3125 -5.921875 L 7.5 -5.921875 C 5.8125 -5.921875 4.96875 -5.367188 4.96875 -4.265625 C 4.96875 -3.734375 5.171875 -3.3125 5.578125 -3 C 5.992188 -2.695312 6.5625 -2.546875 7.28125 -2.546875 Z M 7.28125 -2.546875 "/></g></g></g><g fill="#ffffff" fill-opacity="1"><g transform="translate(640.521138, 117.939842)"><g><path d="M 10.5 -14.359375 C 12.25 -14.359375 13.660156 -13.832031 14.734375 -12.78125 C 15.816406 -11.726562 16.359375 -10.164062 16.359375 -8.09375 L 16.359375 0 L 12.25 0 L 12.25 -7.46875 C 12.25 -8.59375 12.003906 -9.429688 11.515625 -9.984375 C 11.023438 -10.535156 10.316406 -10.8125 9.390625 -10.8125 C 8.359375 -10.8125 7.535156 -10.488281 6.921875 -9.84375 C 6.304688 -9.207031 6 -8.257812 6 -7 L 6 0 L 1.890625 0 L 1.890625 -14.140625 L 5.8125 -14.140625 L 5.8125 -12.484375 C 6.351562 -13.085938 7.023438 -13.550781 7.828125 -13.875 C 8.640625 -14.195312 9.53125 -14.359375 10.5 -14.359375 Z M 10.5 -14.359375 "/></g></g></g><g fill="#ffffff" fill-opacity="1"><g transform="translate(658.692307, 117.939842)"><g><path d="M 10.5 -14.359375 C 12.25 -14.359375 13.660156 -13.832031 14.734375 -12.78125 C 15.816406 -11.726562 16.359375 -10.164062 16.359375 -8.09375 L 16.359375 0 L 12.25 0 L 12.25 -7.46875 C 12.25 -8.59375 12.003906 -9.429688 11.515625 -9.984375 C 11.023438 -10.535156 10.316406 -10.8125 9.390625 -10.8125 C 8.359375 -10.8125 7.535156 -10.488281 6.921875 -9.84375 C 6.304688 -9.207031 6 -8.257812 6 -7 L 6 0 L 1.890625 0 L 1.890625 -14.140625 L 5.8125 -14.140625 L 5.8125 -12.484375 C 6.351562 -13.085938 7.023438 -13.550781 7.828125 -13.875 C 8.640625 -14.195312 9.53125 -14.359375 10.5 -14.359375 Z M 10.5 -14.359375 "/></g></g></g><g fill="#ffffff" fill-opacity="1"><g transform="translate(676.863475, 117.939842)"><g><path d="M 1.890625 -14.140625 L 6 -14.140625 L 6 0 L 1.890625 0 Z M 3.9375 -16.125 C 3.1875 -16.125 2.570312 -16.34375 2.09375 -16.78125 C 1.625 -17.21875 1.390625 -17.757812 1.390625 -18.40625 C 1.390625 -19.050781 1.625 -19.59375 2.09375 -20.03125 C 2.570312 -20.476562 3.1875 -20.703125 3.9375 -20.703125 C 4.6875 -20.703125 5.296875 -20.488281 5.765625 -20.0625 C 6.242188 -19.644531 6.484375 -19.117188 6.484375 -18.484375 C 6.484375 -17.804688 6.242188 -17.242188 5.765625 -16.796875 C 5.296875 -16.347656 4.6875 -16.125 3.9375 -16.125 Z M 3.9375 -16.125 "/></g></g></g><g fill="#ffffff" fill-opacity="1"><g transform="translate(684.77885, 117.939842)"><g><path d="M 10.5 -14.359375 C 12.25 -14.359375 13.660156 -13.832031 14.734375 -12.78125 C 15.816406 -11.726562 16.359375 -10.164062 16.359375 -8.09375 L 16.359375 0 L 12.25 0 L 12.25 -7.46875 C 12.25 -8.59375 12.003906 -9.429688 11.515625 -9.984375 C 11.023438 -10.535156 10.316406 -10.8125 9.390625 -10.8125 C 8.359375 -10.8125 7.535156 -10.488281 6.921875 -9.84375 C 6.304688 -9.207031 6 -8.257812 6 -7 L 6 0 L 1.890625 0 L 1.890625 -14.140625 L 5.8125 -14.140625 L 5.8125 -12.484375 C 6.351562 -13.085938 7.023438 -13.550781 7.828125 -13.875 C 8.640625 -14.195312 9.53125 -14.359375 10.5 -14.359375 Z M 10.5 -14.359375 "/></g></g></g><g fill="#ffffff" fill-opacity="1"><g transform="translate(703.107832, 117.939842)"><g><path d="M 16.484375 -14.140625 L 16.484375 -2.359375 C 16.484375 0.234375 15.804688 2.160156 14.453125 3.421875 C 13.109375 4.679688 11.140625 5.3125 8.546875 5.3125 C 7.179688 5.3125 5.882812 5.144531 4.65625 4.8125 C 3.425781 4.476562 2.410156 3.992188 1.609375 3.359375 L 3.234375 0.421875 C 3.828125 0.910156 4.578125 1.300781 5.484375 1.59375 C 6.398438 1.882812 7.316406 2.03125 8.234375 2.03125 C 9.648438 2.03125 10.695312 1.707031 11.375 1.0625 C 12.050781 0.425781 12.390625 -0.539062 12.390625 -1.84375 L 12.390625 -2.453125 C 11.316406 -1.273438 9.828125 -0.6875 7.921875 -0.6875 C 6.617188 -0.6875 5.425781 -0.96875 4.34375 -1.53125 C 3.269531 -2.101562 2.414062 -2.90625 1.78125 -3.9375 C 1.15625 -4.976562 0.84375 -6.171875 0.84375 -7.515625 C 0.84375 -8.867188 1.15625 -10.0625 1.78125 -11.09375 C 2.414062 -12.132812 3.269531 -12.9375 4.34375 -13.5 C 5.425781 -14.070312 6.617188 -14.359375 7.921875 -14.359375 C 9.960938 -14.359375 11.519531 -13.679688 12.59375 -12.328125 L 12.59375 -14.140625 Z M 8.734375 -4.046875 C 9.816406 -4.046875 10.703125 -4.363281 11.390625 -5 C 12.085938 -5.644531 12.4375 -6.484375 12.4375 -7.515625 C 12.4375 -8.554688 12.085938 -9.394531 11.390625 -10.03125 C 10.703125 -10.664062 9.816406 -10.984375 8.734375 -10.984375 C 7.640625 -10.984375 6.742188 -10.664062 6.046875 -10.03125 C 5.347656 -9.394531 5 -8.554688 5 -7.515625 C 5 -6.484375 5.347656 -5.644531 6.046875 -5 C 6.742188 -4.363281 7.640625 -4.046875 8.734375 -4.046875 Z M 8.734375 -4.046875 "/></g></g></g><g fill="#ffffff" fill-opacity="1"><g transform="translate(687.060908, 213.017208)"><g><path d="M 2.1875 -18.40625 L 10.546875 -18.40625 C 12.546875 -18.40625 14.3125 -18.023438 15.84375 -17.265625 C 17.375 -16.503906 18.566406 -15.429688 19.421875 -14.046875 C 20.273438 -12.660156 20.703125 -11.046875 20.703125 -9.203125 C 20.703125 -7.359375 20.273438 -5.742188 19.421875 -4.359375 C 18.566406 -2.972656 17.375 -1.898438 15.84375 -1.140625 C 14.3125 -0.378906 12.546875 0 10.546875 0 L 2.1875 0 Z M 10.328125 -3.5 C 12.171875 -3.5 13.640625 -4.007812 14.734375 -5.03125 C 15.835938 -6.0625 16.390625 -7.453125 16.390625 -9.203125 C 16.390625 -10.953125 15.835938 -12.335938 14.734375 -13.359375 C 13.640625 -14.390625 12.171875 -14.90625 10.328125 -14.90625 L 6.4375 -14.90625 L 6.4375 -3.5 Z M 10.328125 -3.5 "/></g></g></g><g fill="#ffffff" fill-opacity="1"><g transform="translate(708.782159, 213.017208)"><g><path d="M 15.75 -7.015625 C 15.75 -6.960938 15.722656 -6.597656 15.671875 -5.921875 L 4.96875 -5.921875 C 5.164062 -5.046875 5.625 -4.351562 6.34375 -3.84375 C 7.0625 -3.332031 7.953125 -3.078125 9.015625 -3.078125 C 9.753906 -3.078125 10.40625 -3.1875 10.96875 -3.40625 C 11.539062 -3.625 12.070312 -3.96875 12.5625 -4.4375 L 14.75 -2.078125 C 13.414062 -0.554688 11.472656 0.203125 8.921875 0.203125 C 7.316406 0.203125 5.898438 -0.101562 4.671875 -0.71875 C 3.453125 -1.34375 2.507812 -2.207031 1.84375 -3.3125 C 1.175781 -4.414062 0.84375 -5.671875 0.84375 -7.078125 C 0.84375 -8.460938 1.171875 -9.707031 1.828125 -10.8125 C 2.484375 -11.925781 3.382812 -12.796875 4.53125 -13.421875 C 5.6875 -14.046875 6.972656 -14.359375 8.390625 -14.359375 C 9.773438 -14.359375 11.023438 -14.054688 12.140625 -13.453125 C 13.265625 -12.859375 14.144531 -12.003906 14.78125 -10.890625 C 15.425781 -9.785156 15.75 -8.492188 15.75 -7.015625 Z M 8.421875 -11.25 C 7.484375 -11.25 6.695312 -10.984375 6.0625 -10.453125 C 5.4375 -9.929688 5.054688 -9.21875 4.921875 -8.3125 L 11.890625 -8.3125 C 11.742188 -9.207031 11.351562 -9.921875 10.71875 -10.453125 C 10.09375 -10.984375 9.328125 -11.25 8.421875 -11.25 Z M 8.421875 -11.25 "/></g></g></g><g fill="#ffffff" fill-opacity="1"><g transform="translate(725.112488, 213.017208)"><g><path d="M 15.9375 -14.140625 L 9.96875 0 L 5.734375 0 L -0.203125 -14.140625 L 4.015625 -14.140625 L 7.9375 -4.515625 L 11.984375 -14.140625 Z M 15.9375 -14.140625 "/></g></g></g><g fill="#ffffff" fill-opacity="1"><g transform="translate(740.443507, 213.017208)"><g><path d="M 15.75 -7.015625 C 15.75 -6.960938 15.722656 -6.597656 15.671875 -5.921875 L 4.96875 -5.921875 C 5.164062 -5.046875 5.625 -4.351562 6.34375 -3.84375 C 7.0625 -3.332031 7.953125 -3.078125 9.015625 -3.078125 C 9.753906 -3.078125 10.40625 -3.1875 10.96875 -3.40625 C 11.539062 -3.625 12.070312 -3.96875 12.5625 -4.4375 L 14.75 -2.078125 C 13.414062 -0.554688 11.472656 0.203125 8.921875 0.203125 C 7.316406 0.203125 5.898438 -0.101562 4.671875 -0.71875 C 3.453125 -1.34375 2.507812 -2.207031 1.84375 -3.3125 C 1.175781 -4.414062 0.84375 -5.671875 0.84375 -7.078125 C 0.84375 -8.460938 1.171875 -9.707031 1.828125 -10.8125 C 2.484375 -11.925781 3.382812 -12.796875 4.53125 -13.421875 C 5.6875 -14.046875 6.972656 -14.359375 8.390625 -14.359375 C 9.773438 -14.359375 11.023438 -14.054688 12.140625 -13.453125 C 13.265625 -12.859375 14.144531 -12.003906 14.78125 -10.890625 C 15.425781 -9.785156 15.75 -8.492188 15.75 -7.015625 Z M 8.421875 -11.25 C 7.484375 -11.25 6.695312 -10.984375 6.0625 -10.453125 C 5.4375 -9.929688 5.054688 -9.21875 4.921875 -8.3125 L 11.890625 -8.3125 C 11.742188 -9.207031 11.351562 -9.921875 10.71875 -10.453125 C 10.09375 -10.984375 9.328125 -11.25 8.421875 -11.25 Z M 8.421875 -11.25 "/></g></g></g><g fill="#ffffff" fill-opacity="1"><g transform="translate(757.036856, 213.017208)"><g><path d="M 1.890625 -19.515625 L 6 -19.515625 L 6 0 L 1.890625 0 Z M 1.890625 -19.515625 "/></g></g></g><g fill="#ffffff" fill-opacity="1"><g transform="translate(764.95223, 213.017208)"><g><path d="M 8.625 0.203125 C 7.132812 0.203125 5.796875 -0.101562 4.609375 -0.71875 C 3.429688 -1.34375 2.507812 -2.207031 1.84375 -3.3125 C 1.175781 -4.414062 0.84375 -5.671875 0.84375 -7.078125 C 0.84375 -8.472656 1.175781 -9.722656 1.84375 -10.828125 C 2.507812 -11.929688 3.429688 -12.796875 4.609375 -13.421875 C 5.796875 -14.046875 7.132812 -14.359375 8.625 -14.359375 C 10.113281 -14.359375 11.445312 -14.046875 12.625 -13.421875 C 13.800781 -12.796875 14.722656 -11.929688 15.390625 -10.828125 C 16.054688 -9.722656 16.390625 -8.472656 16.390625 -7.078125 C 16.390625 -5.671875 16.054688 -4.414062 15.390625 -3.3125 C 14.722656 -2.207031 13.800781 -1.34375 12.625 -0.71875 C 11.445312 -0.101562 10.113281 0.203125 8.625 0.203125 Z M 8.625 -3.15625 C 9.675781 -3.15625 10.539062 -3.507812 11.21875 -4.21875 C 11.894531 -4.925781 12.234375 -5.878906 12.234375 -7.078125 C 12.234375 -8.265625 11.894531 -9.210938 11.21875 -9.921875 C 10.539062 -10.628906 9.675781 -10.984375 8.625 -10.984375 C 7.570312 -10.984375 6.703125 -10.628906 6.015625 -9.921875 C 5.335938 -9.210938 5 -8.265625 5 -7.078125 C 5 -5.878906 5.335938 -4.925781 6.015625 -4.21875 C 6.703125 -3.507812 7.570312 -3.15625 8.625 -3.15625 Z M 8.625 -3.15625 "/></g></g></g><g fill="#ffffff" fill-opacity="1"><g transform="translate(782.176709, 213.017208)"><g><path d="M 10.25 -14.359375 C 11.570312 -14.359375 12.769531 -14.054688 13.84375 -13.453125 C 14.925781 -12.847656 15.769531 -11.992188 16.375 -10.890625 C 16.988281 -9.796875 17.296875 -8.523438 17.296875 -7.078125 C 17.296875 -5.617188 16.988281 -4.34375 16.375 -3.25 C 15.769531 -2.15625 14.925781 -1.304688 13.84375 -0.703125 C 12.769531 -0.0976562 11.570312 0.203125 10.25 0.203125 C 8.445312 0.203125 7.03125 -0.363281 6 -1.5 L 6 5.109375 L 1.890625 5.109375 L 1.890625 -14.140625 L 5.8125 -14.140625 L 5.8125 -12.515625 C 6.832031 -13.742188 8.3125 -14.359375 10.25 -14.359375 Z M 9.546875 -3.15625 C 10.597656 -3.15625 11.457031 -3.507812 12.125 -4.21875 C 12.800781 -4.925781 13.140625 -5.878906 13.140625 -7.078125 C 13.140625 -8.265625 12.800781 -9.210938 12.125 -9.921875 C 11.457031 -10.628906 10.597656 -10.984375 9.546875 -10.984375 C 8.492188 -10.984375 7.628906 -10.628906 6.953125 -9.921875 C 6.273438 -9.210938 5.9375 -8.265625 5.9375 -7.078125 C 5.9375 -5.878906 6.273438 -4.925781 6.953125 -4.21875 C 7.628906 -3.507812 8.492188 -3.15625 9.546875 -3.15625 Z M 9.546875 -3.15625 "/></g></g></g><g fill="#ffffff" fill-opacity="1"><g transform="translate(800.321579, 213.017208)"><g><path d="M 20.015625 -14.359375 C 21.785156 -14.359375 23.191406 -13.835938 24.234375 -12.796875 C 25.273438 -11.753906 25.796875 -10.1875 25.796875 -8.09375 L 25.796875 0 L 21.6875 0 L 21.6875 -7.46875 C 21.6875 -8.59375 21.453125 -9.429688 20.984375 -9.984375 C 20.523438 -10.535156 19.867188 -10.8125 19.015625 -10.8125 C 18.046875 -10.8125 17.28125 -10.5 16.71875 -9.875 C 16.164062 -9.25 15.890625 -8.320312 15.890625 -7.09375 L 15.890625 0 L 11.78125 0 L 11.78125 -7.46875 C 11.78125 -9.695312 10.882812 -10.8125 9.09375 -10.8125 C 8.144531 -10.8125 7.390625 -10.5 6.828125 -9.875 C 6.273438 -9.25 6 -8.320312 6 -7.09375 L 6 0 L 1.890625 0 L 1.890625 -14.140625 L 5.8125 -14.140625 L 5.8125 -12.515625 C 6.332031 -13.109375 6.972656 -13.5625 7.734375 -13.875 C 8.503906 -14.195312 9.34375 -14.359375 10.25 -14.359375 C 11.25 -14.359375 12.148438 -14.160156 12.953125 -13.765625 C 13.765625 -13.367188 14.414062 -12.796875 14.90625 -12.046875 C 15.488281 -12.773438 16.222656 -13.34375 17.109375 -13.75 C 17.992188 -14.15625 18.960938 -14.359375 20.015625 -14.359375 Z M 20.015625 -14.359375 "/></g></g></g><g fill="#ffffff" fill-opacity="1"><g transform="translate(828.064849, 213.017208)"><g><path d="M 15.75 -7.015625 C 15.75 -6.960938 15.722656 -6.597656 15.671875 -5.921875 L 4.96875 -5.921875 C 5.164062 -5.046875 5.625 -4.351562 6.34375 -3.84375 C 7.0625 -3.332031 7.953125 -3.078125 9.015625 -3.078125 C 9.753906 -3.078125 10.40625 -3.1875 10.96875 -3.40625 C 11.539062 -3.625 12.070312 -3.96875 12.5625 -4.4375 L 14.75 -2.078125 C 13.414062 -0.554688 11.472656 0.203125 8.921875 0.203125 C 7.316406 0.203125 5.898438 -0.101562 4.671875 -0.71875 C 3.453125 -1.34375 2.507812 -2.207031 1.84375 -3.3125 C 1.175781 -4.414062 0.84375 -5.671875 0.84375 -7.078125 C 0.84375 -8.460938 1.171875 -9.707031 1.828125 -10.8125 C 2.484375 -11.925781 3.382812 -12.796875 4.53125 -13.421875 C 5.6875 -14.046875 6.972656 -14.359375 8.390625 -14.359375 C 9.773438 -14.359375 11.023438 -14.054688 12.140625 -13.453125 C 13.265625 -12.859375 14.144531 -12.003906 14.78125 -10.890625 C 15.425781 -9.785156 15.75 -8.492188 15.75 -7.015625 Z M 8.421875 -11.25 C 7.484375 -11.25 6.695312 -10.984375 6.0625 -10.453125 C 5.4375 -9.929688 5.054688 -9.21875 4.921875 -8.3125 L 11.890625 -8.3125 C 11.742188 -9.207031 11.351562 -9.921875 10.71875 -10.453125 C 10.09375 -10.984375 9.328125 -11.25 8.421875 -11.25 Z M 8.421875 -11.25 "/></g></g></g><g fill="#ffffff" fill-opacity="1"><g transform="translate(844.658197, 213.017208)"><g><path d="M 10.5 -14.359375 C 12.25 -14.359375 13.660156 -13.832031 14.734375 -12.78125 C 15.816406 -11.726562 16.359375 -10.164062 16.359375 -8.09375 L 16.359375 0 L 12.25 0 L 12.25 -7.46875 C 12.25 -8.59375 12.003906 -9.429688 11.515625 -9.984375 C 11.023438 -10.535156 10.316406 -10.8125 9.390625 -10.8125 C 8.359375 -10.8125 7.535156 -10.488281 6.921875 -9.84375 C 6.304688 -9.207031 6 -8.257812 6 -7 L 6 0 L 1.890625 0 L 1.890625 -14.140625 L 5.8125 -14.140625 L 5.8125 -12.484375 C 6.351562 -13.085938 7.023438 -13.550781 7.828125 -13.875 C 8.640625 -14.195312 9.53125 -14.359375 10.5 -14.359375 Z M 10.5 -14.359375 "/></g></g></g><g fill="#ffffff" fill-opacity="1"><g transform="translate(862.829366, 213.017208)"><g><path d="M 11.015625 -0.6875 C 10.609375 -0.382812 10.113281 -0.160156 9.53125 -0.015625 C 8.945312 0.128906 8.328125 0.203125 7.671875 0.203125 C 5.992188 0.203125 4.691406 -0.222656 3.765625 -1.078125 C 2.847656 -1.929688 2.390625 -3.191406 2.390625 -4.859375 L 2.390625 -10.671875 L 0.203125 -10.671875 L 0.203125 -13.828125 L 2.390625 -13.828125 L 2.390625 -17.28125 L 6.5 -17.28125 L 6.5 -13.828125 L 10.015625 -13.828125 L 10.015625 -10.671875 L 6.5 -10.671875 L 6.5 -4.921875 C 6.5 -4.316406 6.648438 -3.851562 6.953125 -3.53125 C 7.265625 -3.207031 7.695312 -3.046875 8.25 -3.046875 C 8.90625 -3.046875 9.457031 -3.222656 9.90625 -3.578125 Z M 11.015625 -0.6875 "/></g></g></g><g fill="#ffffff" fill-opacity="1"><g transform="translate(581.868721, 313.696089)"><g><path d="M 2.1875 -18.40625 L 6.4375 -18.40625 L 6.4375 0 L 2.1875 0 Z M 2.1875 -18.40625 "/></g></g></g><g fill="#ffffff" fill-opacity="1"><g transform="translate(590.49411, 313.696089)"><g><path d="M 10.5 -14.359375 C 12.25 -14.359375 13.660156 -13.832031 14.734375 -12.78125 C 15.816406 -11.726562 16.359375 -10.164062 16.359375 -8.09375 L 16.359375 0 L 12.25 0 L 12.25 -7.46875 C 12.25 -8.59375 12.003906 -9.429688 11.515625 -9.984375 C 11.023438 -10.535156 10.316406 -10.8125 9.390625 -10.8125 C 8.359375 -10.8125 7.535156 -10.488281 6.921875 -9.84375 C 6.304688 -9.207031 6 -8.257812 6 -7 L 6 0 L 1.890625 0 L 1.890625 -14.140625 L 5.8125 -14.140625 L 5.8125 -12.484375 C 6.351562 -13.085938 7.023438 -13.550781 7.828125 -13.875 C 8.640625 -14.195312 9.53125 -14.359375 10.5 -14.359375 Z M 10.5 -14.359375 "/></g></g></g><g fill="#ffffff" fill-opacity="1"><g transform="translate(608.665278, 313.696089)"><g><path d="M 11.015625 -0.6875 C 10.609375 -0.382812 10.113281 -0.160156 9.53125 -0.015625 C 8.945312 0.128906 8.328125 0.203125 7.671875 0.203125 C 5.992188 0.203125 4.691406 -0.222656 3.765625 -1.078125 C 2.847656 -1.929688 2.390625 -3.191406 2.390625 -4.859375 L 2.390625 -10.671875 L 0.203125 -10.671875 L 0.203125 -13.828125 L 2.390625 -13.828125 L 2.390625 -17.28125 L 6.5 -17.28125 L 6.5 -13.828125 L 10.015625 -13.828125 L 10.015625 -10.671875 L 6.5 -10.671875 L 6.5 -4.921875 C 6.5 -4.316406 6.648438 -3.851562 6.953125 -3.53125 C 7.265625 -3.207031 7.695312 -3.046875 8.25 -3.046875 C 8.90625 -3.046875 9.457031 -3.222656 9.90625 -3.578125 Z M 11.015625 -0.6875 "/></g></g></g><g fill="#ffffff" fill-opacity="1"><g transform="translate(619.657293, 313.696089)"><g><path d="M 15.75 -7.015625 C 15.75 -6.960938 15.722656 -6.597656 15.671875 -5.921875 L 4.96875 -5.921875 C 5.164062 -5.046875 5.625 -4.351562 6.34375 -3.84375 C 7.0625 -3.332031 7.953125 -3.078125 9.015625 -3.078125 C 9.753906 -3.078125 10.40625 -3.1875 10.96875 -3.40625 C 11.539062 -3.625 12.070312 -3.96875 12.5625 -4.4375 L 14.75 -2.078125 C 13.414062 -0.554688 11.472656 0.203125 8.921875 0.203125 C 7.316406 0.203125 5.898438 -0.101562 4.671875 -0.71875 C 3.453125 -1.34375 2.507812 -2.207031 1.84375 -3.3125 C 1.175781 -4.414062 0.84375 -5.671875 0.84375 -7.078125 C 0.84375 -8.460938 1.171875 -9.707031 1.828125 -10.8125 C 2.484375 -11.925781 3.382812 -12.796875 4.53125 -13.421875 C 5.6875 -14.046875 6.972656 -14.359375 8.390625 -14.359375 C 9.773438 -14.359375 11.023438 -14.054688 12.140625 -13.453125 C 13.265625 -12.859375 14.144531 -12.003906 14.78125 -10.890625 C 15.425781 -9.785156 15.75 -8.492188 15.75 -7.015625 Z M 8.421875 -11.25 C 7.484375 -11.25 6.695312 -10.984375 6.0625 -10.453125 C 5.4375 -9.929688 5.054688 -9.21875 4.921875 -8.3125 L 11.890625 -8.3125 C 11.742188 -9.207031 11.351562 -9.921875 10.71875 -10.453125 C 10.09375 -10.984375 9.328125 -11.25 8.421875 -11.25 Z M 8.421875 -11.25 "/></g></g></g><g fill="#ffffff" fill-opacity="1"><g transform="translate(636.250642, 313.696089)"><g><path d="M 16.484375 -14.140625 L 16.484375 -2.359375 C 16.484375 0.234375 15.804688 2.160156 14.453125 3.421875 C 13.109375 4.679688 11.140625 5.3125 8.546875 5.3125 C 7.179688 5.3125 5.882812 5.144531 4.65625 4.8125 C 3.425781 4.476562 2.410156 3.992188 1.609375 3.359375 L 3.234375 0.421875 C 3.828125 0.910156 4.578125 1.300781 5.484375 1.59375 C 6.398438 1.882812 7.316406 2.03125 8.234375 2.03125 C 9.648438 2.03125 10.695312 1.707031 11.375 1.0625 C 12.050781 0.425781 12.390625 -0.539062 12.390625 -1.84375 L 12.390625 -2.453125 C 11.316406 -1.273438 9.828125 -0.6875 7.921875 -0.6875 C 6.617188 -0.6875 5.425781 -0.96875 4.34375 -1.53125 C 3.269531 -2.101562 2.414062 -2.90625 1.78125 -3.9375 C 1.15625 -4.976562 0.84375 -6.171875 0.84375 -7.515625 C 0.84375 -8.867188 1.15625 -10.0625 1.78125 -11.09375 C 2.414062 -12.132812 3.269531 -12.9375 4.34375 -13.5 C 5.425781 -14.070312 6.617188 -14.359375 7.921875 -14.359375 C 9.960938 -14.359375 11.519531 -13.679688 12.59375 -12.328125 L 12.59375 -14.140625 Z M 8.734375 -4.046875 C 9.816406 -4.046875 10.703125 -4.363281 11.390625 -5 C 12.085938 -5.644531 12.4375 -6.484375 12.4375 -7.515625 C 12.4375 -8.554688 12.085938 -9.394531 11.390625 -10.03125 C 10.703125 -10.664062 9.816406 -10.984375 8.734375 -10.984375 C 7.640625 -10.984375 6.742188 -10.664062 6.046875 -10.03125 C 5.347656 -9.394531 5 -8.554688 5 -7.515625 C 5 -6.484375 5.347656 -5.644531 6.046875 -5 C 6.742188 -4.363281 7.640625 -4.046875 8.734375 -4.046875 Z M 8.734375 -4.046875 "/></g></g></g><g fill="#ffffff" fill-opacity="1"><g transform="translate(654.658486, 313.696089)"><g><path d="M 5.8125 -12.28125 C 6.300781 -12.96875 6.960938 -13.484375 7.796875 -13.828125 C 8.628906 -14.179688 9.585938 -14.359375 10.671875 -14.359375 L 10.671875 -10.578125 C 10.222656 -10.609375 9.914062 -10.625 9.75 -10.625 C 8.582031 -10.625 7.664062 -10.296875 7 -9.640625 C 6.332031 -8.984375 6 -7.992188 6 -6.671875 L 6 0 L 1.890625 0 L 1.890625 -14.140625 L 5.8125 -14.140625 Z M 5.8125 -12.28125 "/></g></g></g><g fill="#ffffff" fill-opacity="1"><g transform="translate(665.808338, 313.696089)"><g><path d="M 7.59375 -14.359375 C 9.789062 -14.359375 11.472656 -13.835938 12.640625 -12.796875 C 13.816406 -11.753906 14.40625 -10.179688 14.40625 -8.078125 L 14.40625 0 L 10.578125 0 L 10.578125 -1.765625 C 9.804688 -0.453125 8.367188 0.203125 6.265625 0.203125 C 5.171875 0.203125 4.222656 0.0195312 3.421875 -0.34375 C 2.628906 -0.707031 2.019531 -1.210938 1.59375 -1.859375 C 1.175781 -2.515625 0.96875 -3.253906 0.96875 -4.078125 C 0.96875 -5.390625 1.460938 -6.421875 2.453125 -7.171875 C 3.441406 -7.929688 4.972656 -8.3125 7.046875 -8.3125 L 10.3125 -8.3125 C 10.3125 -9.207031 10.035156 -9.894531 9.484375 -10.375 C 8.941406 -10.851562 8.128906 -11.09375 7.046875 -11.09375 C 6.296875 -11.09375 5.554688 -10.972656 4.828125 -10.734375 C 4.097656 -10.503906 3.476562 -10.1875 2.96875 -9.78125 L 1.5 -12.65625 C 2.269531 -13.195312 3.191406 -13.613281 4.265625 -13.90625 C 5.347656 -14.207031 6.457031 -14.359375 7.59375 -14.359375 Z M 7.28125 -2.546875 C 7.988281 -2.546875 8.613281 -2.707031 9.15625 -3.03125 C 9.695312 -3.363281 10.082031 -3.84375 10.3125 -4.46875 L 10.3125 -5.921875 L 7.5 -5.921875 C 5.8125 -5.921875 4.96875 -5.367188 4.96875 -4.265625 C 4.96875 -3.734375 5.171875 -3.3125 5.578125 -3 C 5.992188 -2.695312 6.5625 -2.546875 7.28125 -2.546875 Z M 7.28125 -2.546875 "/></g></g></g><g fill="#ffffff" fill-opacity="1"><g transform="translate(682.033531, 313.696089)"><g><path d="M 11.015625 -0.6875 C 10.609375 -0.382812 10.113281 -0.160156 9.53125 -0.015625 C 8.945312 0.128906 8.328125 0.203125 7.671875 0.203125 C 5.992188 0.203125 4.691406 -0.222656 3.765625 -1.078125 C 2.847656 -1.929688 2.390625 -3.191406 2.390625 -4.859375 L 2.390625 -10.671875 L 0.203125 -10.671875 L 0.203125 -13.828125 L 2.390625 -13.828125 L 2.390625 -17.28125 L 6.5 -17.28125 L 6.5 -13.828125 L 10.015625 -13.828125 L 10.015625 -10.671875 L 6.5 -10.671875 L 6.5 -4.921875 C 6.5 -4.316406 6.648438 -3.851562 6.953125 -3.53125 C 7.265625 -3.207031 7.695312 -3.046875 8.25 -3.046875 C 8.90625 -3.046875 9.457031 -3.222656 9.90625 -3.578125 Z M 11.015625 -0.6875 "/></g></g></g><g fill="#ffffff" fill-opacity="1"><g transform="translate(693.472689, 313.696089)"><g><path d="M 1.890625 -14.140625 L 6 -14.140625 L 6 0 L 1.890625 0 Z M 3.9375 -16.125 C 3.1875 -16.125 2.570312 -16.34375 2.09375 -16.78125 C 1.625 -17.21875 1.390625 -17.757812 1.390625 -18.40625 C 1.390625 -19.050781 1.625 -19.59375 2.09375 -20.03125 C 2.570312 -20.476562 3.1875 -20.703125 3.9375 -20.703125 C 4.6875 -20.703125 5.296875 -20.488281 5.765625 -20.0625 C 6.242188 -19.644531 6.484375 -19.117188 6.484375 -18.484375 C 6.484375 -17.804688 6.242188 -17.242188 5.765625 -16.796875 C 5.296875 -16.347656 4.6875 -16.125 3.9375 -16.125 Z M 3.9375 -16.125 "/></g></g></g><g fill="#ffffff" fill-opacity="1"><g transform="translate(701.388064, 313.696089)"><g><path d="M 8.625 0.203125 C 7.132812 0.203125 5.796875 -0.101562 4.609375 -0.71875 C 3.429688 -1.34375 2.507812 -2.207031 1.84375 -3.3125 C 1.175781 -4.414062 0.84375 -5.671875 0.84375 -7.078125 C 0.84375 -8.472656 1.175781 -9.722656 1.84375 -10.828125 C 2.507812 -11.929688 3.429688 -12.796875 4.609375 -13.421875 C 5.796875 -14.046875 7.132812 -14.359375 8.625 -14.359375 C 10.113281 -14.359375 11.445312 -14.046875 12.625 -13.421875 C 13.800781 -12.796875 14.722656 -11.929688 15.390625 -10.828125 C 16.054688 -9.722656 16.390625 -8.472656 16.390625 -7.078125 C 16.390625 -5.671875 16.054688 -4.414062 15.390625 -3.3125 C 14.722656 -2.207031 13.800781 -1.34375 12.625 -0.71875 C 11.445312 -0.101562 10.113281 0.203125 8.625 0.203125 Z M 8.625 -3.15625 C 9.675781 -3.15625 10.539062 -3.507812 11.21875 -4.21875 C 11.894531 -4.925781 12.234375 -5.878906 12.234375 -7.078125 C 12.234375 -8.265625 11.894531 -9.210938 11.21875 -9.921875 C 10.539062 -10.628906 9.675781 -10.984375 8.625 -10.984375 C 7.570312 -10.984375 6.703125 -10.628906 6.015625 -9.921875 C 5.335938 -9.210938 5 -8.265625 5 -7.078125 C 5 -5.878906 5.335938 -4.925781 6.015625 -4.21875 C 6.703125 -3.507812 7.570312 -3.15625 8.625 -3.15625 Z M 8.625 -3.15625 "/></g></g></g><g fill="#ffffff" fill-opacity="1"><g transform="translate(718.612543, 313.696089)"><g><path d="M 10.5 -14.359375 C 12.25 -14.359375 13.660156 -13.832031 14.734375 -12.78125 C 15.816406 -11.726562 16.359375 -10.164062 16.359375 -8.09375 L 16.359375 0 L 12.25 0 L 12.25 -7.46875 C 12.25 -8.59375 12.003906 -9.429688 11.515625 -9.984375 C 11.023438 -10.535156 10.316406 -10.8125 9.390625 -10.8125 C 8.359375 -10.8125 7.535156 -10.488281 6.921875 -9.84375 C 6.304688 -9.207031 6 -8.257812 6 -7 L 6 0 L 1.890625 0 L 1.890625 -14.140625 L 5.8125 -14.140625 L 5.8125 -12.484375 C 6.351562 -13.085938 7.023438 -13.550781 7.828125 -13.875 C 8.640625 -14.195312 9.53125 -14.359375 10.5 -14.359375 Z M 10.5 -14.359375 "/></g></g></g><g fill="#ffffff" fill-opacity="1"><g transform="translate(729.937482, 414.374999)"><g><path d="M 6 -14.9375 L 0.109375 -14.9375 L 0.109375 -18.40625 L 16.140625 -18.40625 L 16.140625 -14.9375 L 10.25 -14.9375 L 10.25 0 L 6 0 Z M 6 -14.9375 "/></g></g></g><g fill="#ffffff" fill-opacity="1"><g transform="translate(744.742336, 414.374999)"><g><path d="M 15.75 -7.015625 C 15.75 -6.960938 15.722656 -6.597656 15.671875 -5.921875 L 4.96875 -5.921875 C 5.164062 -5.046875 5.625 -4.351562 6.34375 -3.84375 C 7.0625 -3.332031 7.953125 -3.078125 9.015625 -3.078125 C 9.753906 -3.078125 10.40625 -3.1875 10.96875 -3.40625 C 11.539062 -3.625 12.070312 -3.96875 12.5625 -4.4375 L 14.75 -2.078125 C 13.414062 -0.554688 11.472656 0.203125 8.921875 0.203125 C 7.316406 0.203125 5.898438 -0.101562 4.671875 -0.71875 C 3.453125 -1.34375 2.507812 -2.207031 1.84375 -3.3125 C 1.175781 -4.414062 0.84375 -5.671875 0.84375 -7.078125 C 0.84375 -8.460938 1.171875 -9.707031 1.828125 -10.8125 C 2.484375 -11.925781 3.382812 -12.796875 4.53125 -13.421875 C 5.6875 -14.046875 6.972656 -14.359375 8.390625 -14.359375 C 9.773438 -14.359375 11.023438 -14.054688 12.140625 -13.453125 C 13.265625 -12.859375 14.144531 -12.003906 14.78125 -10.890625 C 15.425781 -9.785156 15.75 -8.492188 15.75 -7.015625 Z M 8.421875 -11.25 C 7.484375 -11.25 6.695312 -10.984375 6.0625 -10.453125 C 5.4375 -9.929688 5.054688 -9.21875 4.921875 -8.3125 L 11.890625 -8.3125 C 11.742188 -9.207031 11.351562 -9.921875 10.71875 -10.453125 C 10.09375 -10.984375 9.328125 -11.25 8.421875 -11.25 Z M 8.421875 -11.25 "/></g></g></g><g fill="#ffffff" fill-opacity="1"><g transform="translate(761.335685, 414.374999)"><g><path d="M 6.65625 0.203125 C 5.476562 0.203125 4.328125 0.0625 3.203125 -0.21875 C 2.085938 -0.507812 1.195312 -0.875 0.53125 -1.3125 L 1.890625 -4.265625 C 2.523438 -3.859375 3.285156 -3.523438 4.171875 -3.265625 C 5.066406 -3.015625 5.945312 -2.890625 6.8125 -2.890625 C 8.550781 -2.890625 9.421875 -3.320312 9.421875 -4.1875 C 9.421875 -4.582031 9.179688 -4.867188 8.703125 -5.046875 C 8.234375 -5.222656 7.503906 -5.375 6.515625 -5.5 C 5.359375 -5.675781 4.40625 -5.875 3.65625 -6.09375 C 2.90625 -6.320312 2.253906 -6.722656 1.703125 -7.296875 C 1.148438 -7.878906 0.875 -8.707031 0.875 -9.78125 C 0.875 -10.675781 1.128906 -11.46875 1.640625 -12.15625 C 2.160156 -12.851562 2.914062 -13.394531 3.90625 -13.78125 C 4.894531 -14.164062 6.066406 -14.359375 7.421875 -14.359375 C 8.421875 -14.359375 9.414062 -14.25 10.40625 -14.03125 C 11.394531 -13.8125 12.210938 -13.507812 12.859375 -13.125 L 11.484375 -10.203125 C 10.242188 -10.898438 8.890625 -11.25 7.421875 -11.25 C 6.535156 -11.25 5.875 -11.125 5.4375 -10.875 C 5 -10.632812 4.78125 -10.320312 4.78125 -9.9375 C 4.78125 -9.5 5.015625 -9.191406 5.484375 -9.015625 C 5.960938 -8.835938 6.71875 -8.671875 7.75 -8.515625 C 8.914062 -8.328125 9.863281 -8.125 10.59375 -7.90625 C 11.332031 -7.6875 11.972656 -7.285156 12.515625 -6.703125 C 13.054688 -6.128906 13.328125 -5.320312 13.328125 -4.28125 C 13.328125 -3.40625 13.0625 -2.625 12.53125 -1.9375 C 12.007812 -1.257812 11.242188 -0.734375 10.234375 -0.359375 C 9.234375 0.015625 8.039062 0.203125 6.65625 0.203125 Z M 6.65625 0.203125 "/></g></g></g><g fill="#ffffff" fill-opacity="1"><g transform="translate(775.299341, 414.374999)"><g><path d="M 11.015625 -0.6875 C 10.609375 -0.382812 10.113281 -0.160156 9.53125 -0.015625 C 8.945312 0.128906 8.328125 0.203125 7.671875 0.203125 C 5.992188 0.203125 4.691406 -0.222656 3.765625 -1.078125 C 2.847656 -1.929688 2.390625 -3.191406 2.390625 -4.859375 L 2.390625 -10.671875 L 0.203125 -10.671875 L 0.203125 -13.828125 L 2.390625 -13.828125 L 2.390625 -17.28125 L 6.5 -17.28125 L 6.5 -13.828125 L 10.015625 -13.828125 L 10.015625 -10.671875 L 6.5 -10.671875 L 6.5 -4.921875 C 6.5 -4.316406 6.648438 -3.851562 6.953125 -3.53125 C 7.265625 -3.207031 7.695312 -3.046875 8.25 -3.046875 C 8.90625 -3.046875 9.457031 -3.222656 9.90625 -3.578125 Z M 11.015625 -0.6875 "/></g></g></g><g fill="#ffffff" fill-opacity="1"><g transform="translate(786.7385, 414.374999)"><g><path d="M 1.890625 -14.140625 L 6 -14.140625 L 6 0 L 1.890625 0 Z M 3.9375 -16.125 C 3.1875 -16.125 2.570312 -16.34375 2.09375 -16.78125 C 1.625 -17.21875 1.390625 -17.757812 1.390625 -18.40625 C 1.390625 -19.050781 1.625 -19.59375 2.09375 -20.03125 C 2.570312 -20.476562 3.1875 -20.703125 3.9375 -20.703125 C 4.6875 -20.703125 5.296875 -20.488281 5.765625 -20.0625 C 6.242188 -19.644531 6.484375 -19.117188 6.484375 -18.484375 C 6.484375 -17.804688 6.242188 -17.242188 5.765625 -16.796875 C 5.296875 -16.347656 4.6875 -16.125 3.9375 -16.125 Z M 3.9375 -16.125 "/></g></g></g><g fill="#ffffff" fill-opacity="1"><g transform="translate(794.653875, 414.374999)"><g><path d="M 10.5 -14.359375 C 12.25 -14.359375 13.660156 -13.832031 14.734375 -12.78125 C 15.816406 -11.726562 16.359375 -10.164062 16.359375 -8.09375 L 16.359375 0 L 12.25 0 L 12.25 -7.46875 C 12.25 -8.59375 12.003906 -9.429688 11.515625 -9.984375 C 11.023438 -10.535156 10.316406 -10.8125 9.390625 -10.8125 C 8.359375 -10.8125 7.535156 -10.488281 6.921875 -9.84375 C 6.304688 -9.207031 6 -8.257812 6 -7 L 6 0 L 1.890625 0 L 1.890625 -14.140625 L 5.8125 -14.140625 L 5.8125 -12.484375 C 6.351562 -13.085938 7.023438 -13.550781 7.828125 -13.875 C 8.640625 -14.195312 9.53125 -14.359375 10.5 -14.359375 Z M 10.5 -14.359375 "/></g></g></g><g fill="#ffffff" fill-opacity="1"><g transform="translate(812.982857, 414.374999)"><g><path d="M 16.484375 -14.140625 L 16.484375 -2.359375 C 16.484375 0.234375 15.804688 2.160156 14.453125 3.421875 C 13.109375 4.679688 11.140625 5.3125 8.546875 5.3125 C 7.179688 5.3125 5.882812 5.144531 4.65625 4.8125 C 3.425781 4.476562 2.410156 3.992188 1.609375 3.359375 L 3.234375 0.421875 C 3.828125 0.910156 4.578125 1.300781 5.484375 1.59375 C 6.398438 1.882812 7.316406 2.03125 8.234375 2.03125 C 9.648438 2.03125 10.695312 1.707031 11.375 1.0625 C 12.050781 0.425781 12.390625 -0.539062 12.390625 -1.84375 L 12.390625 -2.453125 C 11.316406 -1.273438 9.828125 -0.6875 7.921875 -0.6875 C 6.617188 -0.6875 5.425781 -0.96875 4.34375 -1.53125 C 3.269531 -2.101562 2.414062 -2.90625 1.78125 -3.9375 C 1.15625 -4.976562 0.84375 -6.171875 0.84375 -7.515625 C 0.84375 -8.867188 1.15625 -10.0625 1.78125 -11.09375 C 2.414062 -12.132812 3.269531 -12.9375 4.34375 -13.5 C 5.425781 -14.070312 6.617188 -14.359375 7.921875 -14.359375 C 9.960938 -14.359375 11.519531 -13.679688 12.59375 -12.328125 L 12.59375 -14.140625 Z M 8.734375 -4.046875 C 9.816406 -4.046875 10.703125 -4.363281 11.390625 -5 C 12.085938 -5.644531 12.4375 -6.484375 12.4375 -7.515625 C 12.4375 -8.554688 12.085938 -9.394531 11.390625 -10.03125 C 10.703125 -10.664062 9.816406 -10.984375 8.734375 -10.984375 C 7.640625 -10.984375 6.742188 -10.664062 6.046875 -10.03125 C 5.347656 -9.394531 5 -8.554688 5 -7.515625 C 5 -6.484375 5.347656 -5.644531 6.046875 -5 C 6.742188 -4.363281 7.640625 -4.046875 8.734375 -4.046875 Z M 8.734375 -4.046875 "/></g></g></g><g fill="#ffffff" fill-opacity="1"><g transform="translate(602.56404, 512.144754)"><g><path d="M 2.1875 -18.40625 L 10.546875 -18.40625 C 12.546875 -18.40625 14.3125 -18.023438 15.84375 -17.265625 C 17.375 -16.503906 18.566406 -15.429688 19.421875 -14.046875 C 20.273438 -12.660156 20.703125 -11.046875 20.703125 -9.203125 C 20.703125 -7.359375 20.273438 -5.742188 19.421875 -4.359375 C 18.566406 -2.972656 17.375 -1.898438 15.84375 -1.140625 C 14.3125 -0.378906 12.546875 0 10.546875 0 L 2.1875 0 Z M 10.328125 -3.5 C 12.171875 -3.5 13.640625 -4.007812 14.734375 -5.03125 C 15.835938 -6.0625 16.390625 -7.453125 16.390625 -9.203125 C 16.390625 -10.953125 15.835938 -12.335938 14.734375 -13.359375 C 13.640625 -14.390625 12.171875 -14.90625 10.328125 -14.90625 L 6.4375 -14.90625 L 6.4375 -3.5 Z M 10.328125 -3.5 "/></g></g></g><g fill="#ffffff" fill-opacity="1"><g transform="translate(624.285291, 512.144754)"><g><path d="M 15.75 -7.015625 C 15.75 -6.960938 15.722656 -6.597656 15.671875 -5.921875 L 4.96875 -5.921875 C 5.164062 -5.046875 5.625 -4.351562 6.34375 -3.84375 C 7.0625 -3.332031 7.953125 -3.078125 9.015625 -3.078125 C 9.753906 -3.078125 10.40625 -3.1875 10.96875 -3.40625 C 11.539062 -3.625 12.070312 -3.96875 12.5625 -4.4375 L 14.75 -2.078125 C 13.414062 -0.554688 11.472656 0.203125 8.921875 0.203125 C 7.316406 0.203125 5.898438 -0.101562 4.671875 -0.71875 C 3.453125 -1.34375 2.507812 -2.207031 1.84375 -3.3125 C 1.175781 -4.414062 0.84375 -5.671875 0.84375 -7.078125 C 0.84375 -8.460938 1.171875 -9.707031 1.828125 -10.8125 C 2.484375 -11.925781 3.382812 -12.796875 4.53125 -13.421875 C 5.6875 -14.046875 6.972656 -14.359375 8.390625 -14.359375 C 9.773438 -14.359375 11.023438 -14.054688 12.140625 -13.453125 C 13.265625 -12.859375 14.144531 -12.003906 14.78125 -10.890625 C 15.425781 -9.785156 15.75 -8.492188 15.75 -7.015625 Z M 8.421875 -11.25 C 7.484375 -11.25 6.695312 -10.984375 6.0625 -10.453125 C 5.4375 -9.929688 5.054688 -9.21875 4.921875 -8.3125 L 11.890625 -8.3125 C 11.742188 -9.207031 11.351562 -9.921875 10.71875 -10.453125 C 10.09375 -10.984375 9.328125 -11.25 8.421875 -11.25 Z M 8.421875 -11.25 "/></g></g></g><g fill="#ffffff" fill-opacity="1"><g transform="translate(640.87864, 512.144754)"><g><path d="M 1.890625 -19.515625 L 6 -19.515625 L 6 0 L 1.890625 0 Z M 1.890625 -19.515625 "/></g></g></g><g fill="#ffffff" fill-opacity="1"><g transform="translate(648.794014, 512.144754)"><g><path d="M 1.890625 -14.140625 L 6 -14.140625 L 6 0 L 1.890625 0 Z M 3.9375 -16.125 C 3.1875 -16.125 2.570312 -16.34375 2.09375 -16.78125 C 1.625 -17.21875 1.390625 -17.757812 1.390625 -18.40625 C 1.390625 -19.050781 1.625 -19.59375 2.09375 -20.03125 C 2.570312 -20.476562 3.1875 -20.703125 3.9375 -20.703125 C 4.6875 -20.703125 5.296875 -20.488281 5.765625 -20.0625 C 6.242188 -19.644531 6.484375 -19.117188 6.484375 -18.484375 C 6.484375 -17.804688 6.242188 -17.242188 5.765625 -16.796875 C 5.296875 -16.347656 4.6875 -16.125 3.9375 -16.125 Z M 3.9375 -16.125 "/></g></g></g><g fill="#ffffff" fill-opacity="1"><g transform="translate(656.709389, 512.144754)"><g><path d="M 15.9375 -14.140625 L 9.96875 0 L 5.734375 0 L -0.203125 -14.140625 L 4.015625 -14.140625 L 7.9375 -4.515625 L 11.984375 -14.140625 Z M 15.9375 -14.140625 "/></g></g></g><g fill="#ffffff" fill-opacity="1"><g transform="translate(672.040408, 512.144754)"><g><path d="M 15.75 -7.015625 C 15.75 -6.960938 15.722656 -6.597656 15.671875 -5.921875 L 4.96875 -5.921875 C 5.164062 -5.046875 5.625 -4.351562 6.34375 -3.84375 C 7.0625 -3.332031 7.953125 -3.078125 9.015625 -3.078125 C 9.753906 -3.078125 10.40625 -3.1875 10.96875 -3.40625 C 11.539062 -3.625 12.070312 -3.96875 12.5625 -4.4375 L 14.75 -2.078125 C 13.414062 -0.554688 11.472656 0.203125 8.921875 0.203125 C 7.316406 0.203125 5.898438 -0.101562 4.671875 -0.71875 C 3.453125 -1.34375 2.507812 -2.207031 1.84375 -3.3125 C 1.175781 -4.414062 0.84375 -5.671875 0.84375 -7.078125 C 0.84375 -8.460938 1.171875 -9.707031 1.828125 -10.8125 C 2.484375 -11.925781 3.382812 -12.796875 4.53125 -13.421875 C 5.6875 -14.046875 6.972656 -14.359375 8.390625 -14.359375 C 9.773438 -14.359375 11.023438 -14.054688 12.140625 -13.453125 C 13.265625 -12.859375 14.144531 -12.003906 14.78125 -10.890625 C 15.425781 -9.785156 15.75 -8.492188 15.75 -7.015625 Z M 8.421875 -11.25 C 7.484375 -11.25 6.695312 -10.984375 6.0625 -10.453125 C 5.4375 -9.929688 5.054688 -9.21875 4.921875 -8.3125 L 11.890625 -8.3125 C 11.742188 -9.207031 11.351562 -9.921875 10.71875 -10.453125 C 10.09375 -10.984375 9.328125 -11.25 8.421875 -11.25 Z M 8.421875 -11.25 "/></g></g></g><g fill="#ffffff" fill-opacity="1"><g transform="translate(688.633757, 512.144754)"><g><path d="M 5.8125 -12.28125 C 6.300781 -12.96875 6.960938 -13.484375 7.796875 -13.828125 C 8.628906 -14.179688 9.585938 -14.359375 10.671875 -14.359375 L 10.671875 -10.578125 C 10.222656 -10.609375 9.914062 -10.625 9.75 -10.625 C 8.582031 -10.625 7.664062 -10.296875 7 -9.640625 C 6.332031 -8.984375 6 -7.992188 6 -6.671875 L 6 0 L 1.890625 0 L 1.890625 -14.140625 L 5.8125 -14.140625 Z M 5.8125 -12.28125 "/></g></g></g><g fill="#ffffff" fill-opacity="1"><g transform="translate(700.362256, 512.144754)"><g><path d="M 15.9375 -14.140625 L 9.546875 0.875 C 8.898438 2.5 8.097656 3.644531 7.140625 4.3125 C 6.179688 4.976562 5.03125 5.3125 3.6875 5.3125 C 2.945312 5.3125 2.21875 5.195312 1.5 4.96875 C 0.78125 4.738281 0.191406 4.421875 -0.265625 4.015625 L 1.234375 1.109375 C 1.546875 1.390625 1.90625 1.609375 2.3125 1.765625 C 2.726562 1.921875 3.140625 2 3.546875 2 C 4.109375 2 4.5625 1.863281 4.90625 1.59375 C 5.257812 1.320312 5.578125 0.867188 5.859375 0.234375 L 5.921875 0.109375 L -0.203125 -14.140625 L 4.015625 -14.140625 L 8 -4.546875 L 11.984375 -14.140625 Z M 15.9375 -14.140625 "/></g></g></g><g fill="#ffffff" fill-opacity="1"><g transform="translate(695.226523, 611.369101)"><g><path d="M 2.1875 -18.40625 L 10.546875 -18.40625 C 12.546875 -18.40625 14.3125 -18.023438 15.84375 -17.265625 C 17.375 -16.503906 18.566406 -15.429688 19.421875 -14.046875 C 20.273438 -12.660156 20.703125 -11.046875 20.703125 -9.203125 C 20.703125 -7.359375 20.273438 -5.742188 19.421875 -4.359375 C 18.566406 -2.972656 17.375 -1.898438 15.84375 -1.140625 C 14.3125 -0.378906 12.546875 0 10.546875 0 L 2.1875 0 Z M 10.328125 -3.5 C 12.171875 -3.5 13.640625 -4.007812 14.734375 -5.03125 C 15.835938 -6.0625 16.390625 -7.453125 16.390625 -9.203125 C 16.390625 -10.953125 15.835938 -12.335938 14.734375 -13.359375 C 13.640625 -14.390625 12.171875 -14.90625 10.328125 -14.90625 L 6.4375 -14.90625 L 6.4375 -3.5 Z M 10.328125 -3.5 "/></g></g></g><g fill="#ffffff" fill-opacity="1"><g transform="translate(716.947775, 611.369101)"><g><path d="M 15.75 -7.015625 C 15.75 -6.960938 15.722656 -6.597656 15.671875 -5.921875 L 4.96875 -5.921875 C 5.164062 -5.046875 5.625 -4.351562 6.34375 -3.84375 C 7.0625 -3.332031 7.953125 -3.078125 9.015625 -3.078125 C 9.753906 -3.078125 10.40625 -3.1875 10.96875 -3.40625 C 11.539062 -3.625 12.070312 -3.96875 12.5625 -4.4375 L 14.75 -2.078125 C 13.414062 -0.554688 11.472656 0.203125 8.921875 0.203125 C 7.316406 0.203125 5.898438 -0.101562 4.671875 -0.71875 C 3.453125 -1.34375 2.507812 -2.207031 1.84375 -3.3125 C 1.175781 -4.414062 0.84375 -5.671875 0.84375 -7.078125 C 0.84375 -8.460938 1.171875 -9.707031 1.828125 -10.8125 C 2.484375 -11.925781 3.382812 -12.796875 4.53125 -13.421875 C 5.6875 -14.046875 6.972656 -14.359375 8.390625 -14.359375 C 9.773438 -14.359375 11.023438 -14.054688 12.140625 -13.453125 C 13.265625 -12.859375 14.144531 -12.003906 14.78125 -10.890625 C 15.425781 -9.785156 15.75 -8.492188 15.75 -7.015625 Z M 8.421875 -11.25 C 7.484375 -11.25 6.695312 -10.984375 6.0625 -10.453125 C 5.4375 -9.929688 5.054688 -9.21875 4.921875 -8.3125 L 11.890625 -8.3125 C 11.742188 -9.207031 11.351562 -9.921875 10.71875 -10.453125 C 10.09375 -10.984375 9.328125 -11.25 8.421875 -11.25 Z M 8.421875 -11.25 "/></g></g></g><g fill="#ffffff" fill-opacity="1"><g transform="translate(733.541123, 611.369101)"><g><path d="M 10.25 -14.359375 C 11.570312 -14.359375 12.769531 -14.054688 13.84375 -13.453125 C 14.925781 -12.847656 15.769531 -11.992188 16.375 -10.890625 C 16.988281 -9.796875 17.296875 -8.523438 17.296875 -7.078125 C 17.296875 -5.617188 16.988281 -4.34375 16.375 -3.25 C 15.769531 -2.15625 14.925781 -1.304688 13.84375 -0.703125 C 12.769531 -0.0976562 11.570312 0.203125 10.25 0.203125 C 8.445312 0.203125 7.03125 -0.363281 6 -1.5 L 6 5.109375 L 1.890625 5.109375 L 1.890625 -14.140625 L 5.8125 -14.140625 L 5.8125 -12.515625 C 6.832031 -13.742188 8.3125 -14.359375 10.25 -14.359375 Z M 9.546875 -3.15625 C 10.597656 -3.15625 11.457031 -3.507812 12.125 -4.21875 C 12.800781 -4.925781 13.140625 -5.878906 13.140625 -7.078125 C 13.140625 -8.265625 12.800781 -9.210938 12.125 -9.921875 C 11.457031 -10.628906 10.597656 -10.984375 9.546875 -10.984375 C 8.492188 -10.984375 7.628906 -10.628906 6.953125 -9.921875 C 6.273438 -9.210938 5.9375 -8.265625 5.9375 -7.078125 C 5.9375 -5.878906 6.273438 -4.925781 6.953125 -4.21875 C 7.628906 -3.507812 8.492188 -3.15625 9.546875 -3.15625 Z M 9.546875 -3.15625 "/></g></g></g><g fill="#ffffff" fill-opacity="1"><g transform="translate(751.685993, 611.369101)"><g><path d="M 1.890625 -19.515625 L 6 -19.515625 L 6 0 L 1.890625 0 Z M 1.890625 -19.515625 "/></g></g></g><g fill="#ffffff" fill-opacity="1"><g transform="translate(759.601368, 611.369101)"><g><path d="M 8.625 0.203125 C 7.132812 0.203125 5.796875 -0.101562 4.609375 -0.71875 C 3.429688 -1.34375 2.507812 -2.207031 1.84375 -3.3125 C 1.175781 -4.414062 0.84375 -5.671875 0.84375 -7.078125 C 0.84375 -8.472656 1.175781 -9.722656 1.84375 -10.828125 C 2.507812 -11.929688 3.429688 -12.796875 4.609375 -13.421875 C 5.796875 -14.046875 7.132812 -14.359375 8.625 -14.359375 C 10.113281 -14.359375 11.445312 -14.046875 12.625 -13.421875 C 13.800781 -12.796875 14.722656 -11.929688 15.390625 -10.828125 C 16.054688 -9.722656 16.390625 -8.472656 16.390625 -7.078125 C 16.390625 -5.671875 16.054688 -4.414062 15.390625 -3.3125 C 14.722656 -2.207031 13.800781 -1.34375 12.625 -0.71875 C 11.445312 -0.101562 10.113281 0.203125 8.625 0.203125 Z M 8.625 -3.15625 C 9.675781 -3.15625 10.539062 -3.507812 11.21875 -4.21875 C 11.894531 -4.925781 12.234375 -5.878906 12.234375 -7.078125 C 12.234375 -8.265625 11.894531 -9.210938 11.21875 -9.921875 C 10.539062 -10.628906 9.675781 -10.984375 8.625 -10.984375 C 7.570312 -10.984375 6.703125 -10.628906 6.015625 -9.921875 C 5.335938 -9.210938 5 -8.265625 5 -7.078125 C 5 -5.878906 5.335938 -4.925781 6.015625 -4.21875 C 6.703125 -3.507812 7.570312 -3.15625 8.625 -3.15625 Z M 8.625 -3.15625 "/></g></g></g><g fill="#ffffff" fill-opacity="1"><g transform="translate(776.431311, 611.369101)"><g><path d="M 15.9375 -14.140625 L 9.546875 0.875 C 8.898438 2.5 8.097656 3.644531 7.140625 4.3125 C 6.179688 4.976562 5.03125 5.3125 3.6875 5.3125 C 2.945312 5.3125 2.21875 5.195312 1.5 4.96875 C 0.78125 4.738281 0.191406 4.421875 -0.265625 4.015625 L 1.234375 1.109375 C 1.546875 1.390625 1.90625 1.609375 2.3125 1.765625 C 2.726562 1.921875 3.140625 2 3.546875 2 C 4.109375 2 4.5625 1.863281 4.90625 1.59375 C 5.257812 1.320312 5.578125 0.867188 5.859375 0.234375 L 5.921875 0.109375 L -0.203125 -14.140625 L 4.015625 -14.140625 L 8 -4.546875 L 11.984375 -14.140625 Z M 15.9375 -14.140625 "/></g></g></g><g fill="#ffffff" fill-opacity="1"><g transform="translate(792.156866, 611.369101)"><g><path d="M 20.015625 -14.359375 C 21.785156 -14.359375 23.191406 -13.835938 24.234375 -12.796875 C 25.273438 -11.753906 25.796875 -10.1875 25.796875 -8.09375 L 25.796875 0 L 21.6875 0 L 21.6875 -7.46875 C 21.6875 -8.59375 21.453125 -9.429688 20.984375 -9.984375 C 20.523438 -10.535156 19.867188 -10.8125 19.015625 -10.8125 C 18.046875 -10.8125 17.28125 -10.5 16.71875 -9.875 C 16.164062 -9.25 15.890625 -8.320312 15.890625 -7.09375 L 15.890625 0 L 11.78125 0 L 11.78125 -7.46875 C 11.78125 -9.695312 10.882812 -10.8125 9.09375 -10.8125 C 8.144531 -10.8125 7.390625 -10.5 6.828125 -9.875 C 6.273438 -9.25 6 -8.320312 6 -7.09375 L 6 0 L 1.890625 0 L 1.890625 -14.140625 L 5.8125 -14.140625 L 5.8125 -12.515625 C 6.332031 -13.109375 6.972656 -13.5625 7.734375 -13.875 C 8.503906 -14.195312 9.34375 -14.359375 10.25 -14.359375 C 11.25 -14.359375 12.148438 -14.160156 12.953125 -13.765625 C 13.765625 -13.367188 14.414062 -12.796875 14.90625 -12.046875 C 15.488281 -12.773438 16.222656 -13.34375 17.109375 -13.75 C 17.992188 -14.15625 18.960938 -14.359375 20.015625 -14.359375 Z M 20.015625 -14.359375 "/></g></g></g><g fill="#ffffff" fill-opacity="1"><g transform="translate(819.900135, 611.369101)"><g><path d="M 15.75 -7.015625 C 15.75 -6.960938 15.722656 -6.597656 15.671875 -5.921875 L 4.96875 -5.921875 C 5.164062 -5.046875 5.625 -4.351562 6.34375 -3.84375 C 7.0625 -3.332031 7.953125 -3.078125 9.015625 -3.078125 C 9.753906 -3.078125 10.40625 -3.1875 10.96875 -3.40625 C 11.539062 -3.625 12.070312 -3.96875 12.5625 -4.4375 L 14.75 -2.078125 C 13.414062 -0.554688 11.472656 0.203125 8.921875 0.203125 C 7.316406 0.203125 5.898438 -0.101562 4.671875 -0.71875 C 3.453125 -1.34375 2.507812 -2.207031 1.84375 -3.3125 C 1.175781 -4.414062 0.84375 -5.671875 0.84375 -7.078125 C 0.84375 -8.460938 1.171875 -9.707031 1.828125 -10.8125 C 2.484375 -11.925781 3.382812 -12.796875 4.53125 -13.421875 C 5.6875 -14.046875 6.972656 -14.359375 8.390625 -14.359375 C 9.773438 -14.359375 11.023438 -14.054688 12.140625 -13.453125 C 13.265625 -12.859375 14.144531 -12.003906 14.78125 -10.890625 C 15.425781 -9.785156 15.75 -8.492188 15.75 -7.015625 Z M 8.421875 -11.25 C 7.484375 -11.25 6.695312 -10.984375 6.0625 -10.453125 C 5.4375 -9.929688 5.054688 -9.21875 4.921875 -8.3125 L 11.890625 -8.3125 C 11.742188 -9.207031 11.351562 -9.921875 10.71875 -10.453125 C 10.09375 -10.984375 9.328125 -11.25 8.421875 -11.25 Z M 8.421875 -11.25 "/></g></g></g><g fill="#ffffff" fill-opacity="1"><g transform="translate(836.493484, 611.369101)"><g><path d="M 10.5 -14.359375 C 12.25 -14.359375 13.660156 -13.832031 14.734375 -12.78125 C 15.816406 -11.726562 16.359375 -10.164062 16.359375 -8.09375 L 16.359375 0 L 12.25 0 L 12.25 -7.46875 C 12.25 -8.59375 12.003906 -9.429688 11.515625 -9.984375 C 11.023438 -10.535156 10.316406 -10.8125 9.390625 -10.8125 C 8.359375 -10.8125 7.535156 -10.488281 6.921875 -9.84375 C 6.304688 -9.207031 6 -8.257812 6 -7 L 6 0 L 1.890625 0 L 1.890625 -14.140625 L 5.8125 -14.140625 L 5.8125 -12.484375 C 6.351562 -13.085938 7.023438 -13.550781 7.828125 -13.875 C 8.640625 -14.195312 9.53125 -14.359375 10.5 -14.359375 Z M 10.5 -14.359375 "/></g></g></g><g fill="#ffffff" fill-opacity="1"><g transform="translate(854.664652, 611.369101)"><g><path d="M 11.015625 -0.6875 C 10.609375 -0.382812 10.113281 -0.160156 9.53125 -0.015625 C 8.945312 0.128906 8.328125 0.203125 7.671875 0.203125 C 5.992188 0.203125 4.691406 -0.222656 3.765625 -1.078125 C 2.847656 -1.929688 2.390625 -3.191406 2.390625 -4.859375 L 2.390625 -10.671875 L 0.203125 -10.671875 L 0.203125 -13.828125 L 2.390625 -13.828125 L 2.390625 -17.28125 L 6.5 -17.28125 L 6.5 -13.828125 L 10.015625 -13.828125 L 10.015625 -10.671875 L 6.5 -10.671875 L 6.5 -4.921875 C 6.5 -4.316406 6.648438 -3.851562 6.953125 -3.53125 C 7.265625 -3.207031 7.695312 -3.046875 8.25 -3.046875 C 8.90625 -3.046875 9.457031 -3.222656 9.90625 -3.578125 Z M 11.015625 -0.6875 "/></g></g></g><g fill="#ffffff" fill-opacity="1"><g transform="translate(583.064041, 711.85856)"><g><path d="M 18.9375 0 L 18.90625 -11.046875 L 13.484375 -1.953125 L 11.578125 -1.953125 L 6.1875 -10.8125 L 6.1875 0 L 2.1875 0 L 2.1875 -18.40625 L 5.703125 -18.40625 L 12.59375 -6.96875 L 19.375 -18.40625 L 22.875 -18.40625 L 22.9375 0 Z M 18.9375 0 "/></g></g></g><g fill="#ffffff" fill-opacity="1"><g transform="translate(608.177595, 711.85856)"><g><path d="M 8.625 0.203125 C 7.132812 0.203125 5.796875 -0.101562 4.609375 -0.71875 C 3.429688 -1.34375 2.507812 -2.207031 1.84375 -3.3125 C 1.175781 -4.414062 0.84375 -5.671875 0.84375 -7.078125 C 0.84375 -8.472656 1.175781 -9.722656 1.84375 -10.828125 C 2.507812 -11.929688 3.429688 -12.796875 4.609375 -13.421875 C 5.796875 -14.046875 7.132812 -14.359375 8.625 -14.359375 C 10.113281 -14.359375 11.445312 -14.046875 12.625 -13.421875 C 13.800781 -12.796875 14.722656 -11.929688 15.390625 -10.828125 C 16.054688 -9.722656 16.390625 -8.472656 16.390625 -7.078125 C 16.390625 -5.671875 16.054688 -4.414062 15.390625 -3.3125 C 14.722656 -2.207031 13.800781 -1.34375 12.625 -0.71875 C 11.445312 -0.101562 10.113281 0.203125 8.625 0.203125 Z M 8.625 -3.15625 C 9.675781 -3.15625 10.539062 -3.507812 11.21875 -4.21875 C 11.894531 -4.925781 12.234375 -5.878906 12.234375 -7.078125 C 12.234375 -8.265625 11.894531 -9.210938 11.21875 -9.921875 C 10.539062 -10.628906 9.675781 -10.984375 8.625 -10.984375 C 7.570312 -10.984375 6.703125 -10.628906 6.015625 -9.921875 C 5.335938 -9.210938 5 -8.265625 5 -7.078125 C 5 -5.878906 5.335938 -4.925781 6.015625 -4.21875 C 6.703125 -3.507812 7.570312 -3.15625 8.625 -3.15625 Z M 8.625 -3.15625 "/></g></g></g><g fill="#ffffff" fill-opacity="1"><g transform="translate(625.402074, 711.85856)"><g><path d="M 10.5 -14.359375 C 12.25 -14.359375 13.660156 -13.832031 14.734375 -12.78125 C 15.816406 -11.726562 16.359375 -10.164062 16.359375 -8.09375 L 16.359375 0 L 12.25 0 L 12.25 -7.46875 C 12.25 -8.59375 12.003906 -9.429688 11.515625 -9.984375 C 11.023438 -10.535156 10.316406 -10.8125 9.390625 -10.8125 C 8.359375 -10.8125 7.535156 -10.488281 6.921875 -9.84375 C 6.304688 -9.207031 6 -8.257812 6 -7 L 6 0 L 1.890625 0 L 1.890625 -14.140625 L 5.8125 -14.140625 L 5.8125 -12.484375 C 6.351562 -13.085938 7.023438 -13.550781 7.828125 -13.875 C 8.640625 -14.195312 9.53125 -14.359375 10.5 -14.359375 Z M 10.5 -14.359375 "/></g></g></g><g fill="#ffffff" fill-opacity="1"><g transform="translate(643.573243, 711.85856)"><g><path d="M 1.890625 -14.140625 L 6 -14.140625 L 6 0 L 1.890625 0 Z M 3.9375 -16.125 C 3.1875 -16.125 2.570312 -16.34375 2.09375 -16.78125 C 1.625 -17.21875 1.390625 -17.757812 1.390625 -18.40625 C 1.390625 -19.050781 1.625 -19.59375 2.09375 -20.03125 C 2.570312 -20.476562 3.1875 -20.703125 3.9375 -20.703125 C 4.6875 -20.703125 5.296875 -20.488281 5.765625 -20.0625 C 6.242188 -19.644531 6.484375 -19.117188 6.484375 -18.484375 C 6.484375 -17.804688 6.242188 -17.242188 5.765625 -16.796875 C 5.296875 -16.347656 4.6875 -16.125 3.9375 -16.125 Z M 3.9375 -16.125 "/></g></g></g><g fill="#ffffff" fill-opacity="1"><g transform="translate(651.488617, 711.85856)"><g><path d="M 11.015625 -0.6875 C 10.609375 -0.382812 10.113281 -0.160156 9.53125 -0.015625 C 8.945312 0.128906 8.328125 0.203125 7.671875 0.203125 C 5.992188 0.203125 4.691406 -0.222656 3.765625 -1.078125 C 2.847656 -1.929688 2.390625 -3.191406 2.390625 -4.859375 L 2.390625 -10.671875 L 0.203125 -10.671875 L 0.203125 -13.828125 L 2.390625 -13.828125 L 2.390625 -17.28125 L 6.5 -17.28125 L 6.5 -13.828125 L 10.015625 -13.828125 L 10.015625 -10.671875 L 6.5 -10.671875 L 6.5 -4.921875 C 6.5 -4.316406 6.648438 -3.851562 6.953125 -3.53125 C 7.265625 -3.207031 7.695312 -3.046875 8.25 -3.046875 C 8.90625 -3.046875 9.457031 -3.222656 9.90625 -3.578125 Z M 11.015625 -0.6875 "/></g></g></g><g fill="#ffffff" fill-opacity="1"><g transform="translate(662.480632, 711.85856)"><g><path d="M 8.625 0.203125 C 7.132812 0.203125 5.796875 -0.101562 4.609375 -0.71875 C 3.429688 -1.34375 2.507812 -2.207031 1.84375 -3.3125 C 1.175781 -4.414062 0.84375 -5.671875 0.84375 -7.078125 C 0.84375 -8.472656 1.175781 -9.722656 1.84375 -10.828125 C 2.507812 -11.929688 3.429688 -12.796875 4.609375 -13.421875 C 5.796875 -14.046875 7.132812 -14.359375 8.625 -14.359375 C 10.113281 -14.359375 11.445312 -14.046875 12.625 -13.421875 C 13.800781 -12.796875 14.722656 -11.929688 15.390625 -10.828125 C 16.054688 -9.722656 16.390625 -8.472656 16.390625 -7.078125 C 16.390625 -5.671875 16.054688 -4.414062 15.390625 -3.3125 C 14.722656 -2.207031 13.800781 -1.34375 12.625 -0.71875 C 11.445312 -0.101562 10.113281 0.203125 8.625 0.203125 Z M 8.625 -3.15625 C 9.675781 -3.15625 10.539062 -3.507812 11.21875 -4.21875 C 11.894531 -4.925781 12.234375 -5.878906 12.234375 -7.078125 C 12.234375 -8.265625 11.894531 -9.210938 11.21875 -9.921875 C 10.539062 -10.628906 9.675781 -10.984375 8.625 -10.984375 C 7.570312 -10.984375 6.703125 -10.628906 6.015625 -9.921875 C 5.335938 -9.210938 5 -8.265625 5 -7.078125 C 5 -5.878906 5.335938 -4.925781 6.015625 -4.21875 C 6.703125 -3.507812 7.570312 -3.15625 8.625 -3.15625 Z M 8.625 -3.15625 "/></g></g></g><g fill="#ffffff" fill-opacity="1"><g transform="translate(679.705111, 711.85856)"><g><path d="M 5.8125 -12.28125 C 6.300781 -12.96875 6.960938 -13.484375 7.796875 -13.828125 C 8.628906 -14.179688 9.585938 -14.359375 10.671875 -14.359375 L 10.671875 -10.578125 C 10.222656 -10.609375 9.914062 -10.625 9.75 -10.625 C 8.582031 -10.625 7.664062 -10.296875 7 -9.640625 C 6.332031 -8.984375 6 -7.992188 6 -6.671875 L 6 0 L 1.890625 0 L 1.890625 -14.140625 L 5.8125 -14.140625 Z M 5.8125 -12.28125 "/></g></g></g><g fill="#ffffff" fill-opacity="1"><g transform="translate(690.933871, 711.85856)"><g><path d="M 1.890625 -14.140625 L 6 -14.140625 L 6 0 L 1.890625 0 Z M 3.9375 -16.125 C 3.1875 -16.125 2.570312 -16.34375 2.09375 -16.78125 C 1.625 -17.21875 1.390625 -17.757812 1.390625 -18.40625 C 1.390625 -19.050781 1.625 -19.59375 2.09375 -20.03125 C 2.570312 -20.476562 3.1875 -20.703125 3.9375 -20.703125 C 4.6875 -20.703125 5.296875 -20.488281 5.765625 -20.0625 C 6.242188 -19.644531 6.484375 -19.117188 6.484375 -18.484375 C 6.484375 -17.804688 6.242188 -17.242188 5.765625 -16.796875 C 5.296875 -16.347656 4.6875 -16.125 3.9375 -16.125 Z M 3.9375 -16.125 "/></g></g></g><g fill="#ffffff" fill-opacity="1"><g transform="translate(698.849245, 711.85856)"><g><path d="M 10.5 -14.359375 C 12.25 -14.359375 13.660156 -13.832031 14.734375 -12.78125 C 15.816406 -11.726562 16.359375 -10.164062 16.359375 -8.09375 L 16.359375 0 L 12.25 0 L 12.25 -7.46875 C 12.25 -8.59375 12.003906 -9.429688 11.515625 -9.984375 C 11.023438 -10.535156 10.316406 -10.8125 9.390625 -10.8125 C 8.359375 -10.8125 7.535156 -10.488281 6.921875 -9.84375 C 6.304688 -9.207031 6 -8.257812 6 -7 L 6 0 L 1.890625 0 L 1.890625 -14.140625 L 5.8125 -14.140625 L 5.8125 -12.484375 C 6.351562 -13.085938 7.023438 -13.550781 7.828125 -13.875 C 8.640625 -14.195312 9.53125 -14.359375 10.5 -14.359375 Z M 10.5 -14.359375 "/></g></g></g><g fill="#ffffff" fill-opacity="1"><g transform="translate(717.178227, 711.85856)"><g><path d="M 16.484375 -14.140625 L 16.484375 -2.359375 C 16.484375 0.234375 15.804688 2.160156 14.453125 3.421875 C 13.109375 4.679688 11.140625 5.3125 8.546875 5.3125 C 7.179688 5.3125 5.882812 5.144531 4.65625 4.8125 C 3.425781 4.476562 2.410156 3.992188 1.609375 3.359375 L 3.234375 0.421875 C 3.828125 0.910156 4.578125 1.300781 5.484375 1.59375 C 6.398438 1.882812 7.316406 2.03125 8.234375 2.03125 C 9.648438 2.03125 10.695312 1.707031 11.375 1.0625 C 12.050781 0.425781 12.390625 -0.539062 12.390625 -1.84375 L 12.390625 -2.453125 C 11.316406 -1.273438 9.828125 -0.6875 7.921875 -0.6875 C 6.617188 -0.6875 5.425781 -0.96875 4.34375 -1.53125 C 3.269531 -2.101562 2.414062 -2.90625 1.78125 -3.9375 C 1.15625 -4.976562 0.84375 -6.171875 0.84375 -7.515625 C 0.84375 -8.867188 1.15625 -10.0625 1.78125 -11.09375 C 2.414062 -12.132812 3.269531 -12.9375 4.34375 -13.5 C 5.425781 -14.070312 6.617188 -14.359375 7.921875 -14.359375 C 9.960938 -14.359375 11.519531 -13.679688 12.59375 -12.328125 L 12.59375 -14.140625 Z M 8.734375 -4.046875 C 9.816406 -4.046875 10.703125 -4.363281 11.390625 -5 C 12.085938 -5.644531 12.4375 -6.484375 12.4375 -7.515625 C 12.4375 -8.554688 12.085938 -9.394531 11.390625 -10.03125 C 10.703125 -10.664062 9.816406 -10.984375 8.734375 -10.984375 C 7.640625 -10.984375 6.742188 -10.664062 6.046875 -10.03125 C 5.347656 -9.394531 5 -8.554688 5 -7.515625 C 5 -6.484375 5.347656 -5.644531 6.046875 -5 C 6.742188 -4.363281 7.640625 -4.046875 8.734375 -4.046875 Z M 8.734375 -4.046875 "/></g></g></g></svg>