<svg xmlns="http://www.w3.org/2000/svg" xmlns:xlink="http://www.w3.org/1999/xlink" width="1920" zoomAndPan="magnify" viewBox="0 0 1440 809.999993" height="1080" preserveAspectRatio="xMidYMid meet" version="1.0"><defs><g/><clipPath id="5e4630f396"><path d="M 633 295 L 890.199219 295 L 890.199219 385 L 633 385 Z M 633 295 " clip-rule="nonzero"/></clipPath><clipPath id="52c05f5b8f"><path d="M 549.699219 363 L 751 363 L 751 532 L 549.699219 532 Z M 549.699219 363 " clip-rule="nonzero"/></clipPath><clipPath id="e3d1123099"><path d="M 668.457031 370.175781 L 771.207031 370.175781 L 771.207031 472.925781 L 668.457031 472.925781 Z M 668.457031 370.175781 " clip-rule="nonzero"/></clipPath></defs><path fill="#065381" d="M 827.578125 424.75 C 827.292969 424.738281 827.015625 424.78125 826.75 424.878906 C 826.480469 424.972656 826.242188 425.117188 826.03125 425.3125 C 825.820312 425.503906 825.65625 425.726562 825.535156 425.984375 C 825.414062 426.242188 825.347656 426.515625 825.332031 426.796875 C 825.21875 429.191406 825.023438 431.578125 824.75 433.957031 C 824.472656 436.335938 824.117188 438.703125 823.679688 441.058594 C 823.242188 443.414062 822.726562 445.75 822.128906 448.070312 C 821.535156 450.390625 820.859375 452.6875 820.109375 454.964844 C 819.355469 457.238281 818.527344 459.484375 817.621094 461.699219 C 816.71875 463.917969 815.738281 466.101562 814.683594 468.253906 C 813.632812 470.40625 812.507812 472.519531 811.308594 474.59375 C 810.113281 476.667969 808.84375 478.699219 807.507812 480.6875 C 806.175781 482.675781 804.773438 484.617188 803.304688 486.511719 C 801.839844 488.402344 800.308594 490.242188 798.714844 492.03125 C 797.121094 493.820312 795.472656 495.554688 793.761719 497.230469 C 792.050781 498.90625 790.285156 500.523438 788.464844 502.082031 C 786.644531 503.636719 784.773438 505.128906 782.851562 506.558594 C 780.929688 507.988281 778.960938 509.347656 776.945312 510.644531 C 774.929688 511.941406 772.875 513.164062 770.777344 514.320312 C 768.679688 515.476562 766.542969 516.558594 764.371094 517.566406 C 764.082031 517.703125 763.832031 517.894531 763.625 518.140625 C 763.421875 518.386719 763.277344 518.664062 763.195312 518.976562 C 763.113281 519.285156 763.105469 519.601562 763.164062 519.914062 C 763.222656 520.230469 763.347656 520.519531 763.539062 520.777344 L 773.125 533.980469 C 770.625 535.167969 768.085938 536.277344 765.511719 537.296875 C 762.933594 538.316406 760.328125 539.25 757.6875 540.09375 C 755.050781 540.941406 752.386719 541.695312 749.699219 542.363281 C 747.007812 543.027344 744.300781 543.605469 741.574219 544.089844 C 738.84375 544.574219 736.105469 544.964844 733.351562 545.265625 C 730.597656 545.566406 727.835938 545.773438 725.066406 545.886719 C 722.296875 546 719.53125 546.023438 716.761719 545.953125 C 713.992188 545.882812 711.226562 545.714844 708.46875 545.460938 C 705.710938 545.203125 702.964844 544.851562 700.230469 544.410156 C 697.492188 543.96875 694.777344 543.4375 692.078125 542.8125 C 689.378906 542.1875 686.703125 541.476562 684.050781 540.671875 C 681.402344 539.867188 678.777344 538.976562 676.1875 537.996094 C 673.597656 537.015625 671.039062 535.949219 668.519531 534.796875 C 666 533.644531 663.523438 532.410156 661.085938 531.09375 C 658.648438 529.773438 656.257812 528.375 653.917969 526.898438 C 651.574219 525.417969 649.28125 523.863281 647.042969 522.230469 C 646.8125 522.0625 646.558594 521.945312 646.285156 521.878906 C 646.007812 521.8125 645.726562 521.800781 645.445312 521.84375 C 645.164062 521.890625 644.902344 521.988281 644.660156 522.136719 C 644.417969 522.285156 644.210938 522.472656 644.042969 522.703125 L 620 555.808594 L 621.074219 550.09375 C 621.128906 549.8125 621.125 549.535156 621.066406 549.253906 C 621.007812 548.976562 620.898438 548.71875 620.738281 548.484375 C 620.578125 548.25 620.378906 548.054688 620.140625 547.898438 C 619.902344 547.742188 619.640625 547.636719 619.363281 547.585938 C 619.082031 547.53125 618.804688 547.535156 618.523438 547.59375 C 618.246094 547.652344 617.988281 547.761719 617.753906 547.921875 C 617.519531 548.082031 617.324219 548.28125 617.167969 548.519531 C 617.011719 548.757812 616.90625 549.019531 616.855469 549.296875 L 614.015625 564.402344 C 614.011719 564.425781 614.015625 564.449219 614.011719 564.472656 C 613.988281 564.625 613.980469 564.777344 613.992188 564.933594 C 613.996094 564.972656 613.996094 565.015625 614 565.054688 C 614.019531 565.230469 614.0625 565.402344 614.125 565.570312 C 614.136719 565.597656 614.148438 565.621094 614.160156 565.648438 C 614.222656 565.789062 614.296875 565.917969 614.386719 566.042969 C 614.414062 566.082031 614.441406 566.117188 614.46875 566.152344 C 614.582031 566.296875 614.714844 566.425781 614.863281 566.535156 C 615.238281 566.808594 615.660156 566.945312 616.125 566.945312 C 616.132812 566.945312 616.140625 566.941406 616.148438 566.941406 C 616.3125 566.941406 616.472656 566.921875 616.632812 566.882812 C 616.6875 566.871094 616.734375 566.84375 616.789062 566.828125 C 616.902344 566.792969 617.011719 566.75 617.121094 566.695312 C 617.132812 566.691406 617.144531 566.6875 617.15625 566.683594 L 630.636719 559.3125 C 630.886719 559.175781 631.097656 558.996094 631.277344 558.777344 C 631.453125 558.554688 631.582031 558.308594 631.660156 558.035156 C 631.742188 557.761719 631.765625 557.484375 631.734375 557.199219 C 631.703125 556.917969 631.621094 556.652344 631.484375 556.402344 C 631.347656 556.152344 631.167969 555.941406 630.949219 555.761719 C 630.726562 555.582031 630.480469 555.453125 630.207031 555.375 C 629.933594 555.292969 629.65625 555.265625 629.375 555.296875 C 629.09375 555.328125 628.828125 555.410156 628.578125 555.542969 L 623.476562 558.332031 L 646.265625 526.953125 C 648.621094 528.609375 651.023438 530.183594 653.484375 531.675781 C 655.941406 533.171875 658.445312 534.578125 661 535.90625 C 663.554688 537.230469 666.148438 538.464844 668.785156 539.617188 C 671.421875 540.765625 674.09375 541.824219 676.800781 542.796875 C 679.507812 543.765625 682.246094 544.640625 685.015625 545.425781 C 687.78125 546.210938 690.570312 546.902344 693.386719 547.5 C 696.199219 548.097656 699.027344 548.597656 701.875 549.003906 C 704.722656 549.410156 707.582031 549.722656 710.449219 549.933594 C 713.316406 550.148438 716.191406 550.265625 719.066406 550.285156 C 721.941406 550.304688 724.816406 550.230469 727.6875 550.054688 C 730.558594 549.882812 733.421875 549.609375 736.273438 549.246094 C 739.125 548.878906 741.960938 548.414062 744.785156 547.855469 C 747.605469 547.300781 750.40625 546.648438 753.183594 545.902344 C 755.960938 545.152344 758.710938 544.316406 761.429688 543.382812 C 764.152344 542.449219 766.839844 541.429688 769.492188 540.316406 C 772.144531 539.203125 774.753906 538 777.328125 536.710938 C 777.609375 536.570312 777.847656 536.375 778.046875 536.128906 C 778.242188 535.882812 778.378906 535.605469 778.453125 535.300781 C 778.53125 534.992188 778.535156 534.683594 778.476562 534.375 C 778.414062 534.066406 778.292969 533.78125 778.105469 533.527344 L 768.527344 520.339844 C 770.714844 519.261719 772.863281 518.109375 774.972656 516.886719 C 777.082031 515.664062 779.148438 514.371094 781.167969 513.011719 C 783.191406 511.648438 785.167969 510.222656 787.097656 508.730469 C 789.027344 507.238281 790.902344 505.683594 792.726562 504.066406 C 794.550781 502.449219 796.320312 500.773438 798.035156 499.039062 C 799.746094 497.300781 801.402344 495.511719 802.996094 493.667969 C 804.589844 491.824219 806.121094 489.925781 807.589844 487.980469 C 809.058594 486.03125 810.460938 484.039062 811.796875 481.996094 C 813.128906 479.957031 814.398438 477.875 815.59375 475.75 C 816.789062 473.625 817.914062 471.464844 818.96875 469.265625 C 820.019531 467.0625 821 464.832031 821.90625 462.566406 C 822.808594 460.300781 823.636719 458.011719 824.390625 455.691406 C 825.140625 453.371094 825.816406 451.027344 826.410156 448.664062 C 827.007812 446.296875 827.523438 443.917969 827.960938 441.515625 C 828.398438 439.117188 828.757812 436.707031 829.035156 434.285156 C 829.3125 431.863281 829.507812 429.433594 829.625 426.996094 C 829.636719 426.710938 829.59375 426.433594 829.496094 426.167969 C 829.402344 425.898438 829.257812 425.660156 829.066406 425.449219 C 828.871094 425.238281 828.648438 425.074219 828.390625 424.953125 C 828.132812 424.832031 827.863281 424.765625 827.578125 424.75 Z M 827.578125 424.75 " fill-opacity="1" fill-rule="nonzero"/><path fill="#03a9f4" d="M 825.902344 564.472656 C 825.898438 564.449219 825.902344 564.425781 825.898438 564.402344 L 823.058594 549.296875 C 823.007812 549.019531 822.902344 548.757812 822.746094 548.519531 C 822.589844 548.28125 822.394531 548.082031 822.160156 547.921875 C 821.925781 547.761719 821.667969 547.652344 821.390625 547.59375 C 821.109375 547.535156 820.832031 547.53125 820.550781 547.585938 C 820.273438 547.636719 820.011719 547.742188 819.773438 547.898438 C 819.535156 548.054688 819.335938 548.25 819.175781 548.484375 C 819.015625 548.71875 818.90625 548.976562 818.847656 549.253906 C 818.789062 549.535156 818.785156 549.8125 818.839844 550.09375 L 819.914062 555.808594 L 797.121094 524.429688 C 799.421875 522.703125 801.664062 520.902344 803.84375 519.023438 C 806.023438 517.148438 808.136719 515.199219 810.1875 513.179688 C 812.234375 511.160156 814.214844 509.074219 816.121094 506.921875 C 818.03125 504.769531 819.863281 502.554688 821.621094 500.277344 C 823.378906 498 825.0625 495.667969 826.664062 493.277344 C 828.265625 490.886719 829.785156 488.449219 831.222656 485.957031 C 832.65625 483.464844 834.011719 480.925781 835.277344 478.34375 C 836.542969 475.757812 837.71875 473.136719 838.808594 470.472656 C 839.898438 467.8125 840.898438 465.113281 841.804688 462.382812 C 842.710938 459.652344 843.527344 456.898438 844.25 454.113281 C 844.972656 451.328125 845.597656 448.519531 846.132812 445.695312 C 846.664062 442.867188 847.101562 440.023438 847.441406 437.167969 C 847.785156 434.3125 848.027344 431.445312 848.175781 428.574219 C 848.324219 425.699219 848.375 422.824219 848.332031 419.949219 C 848.285156 417.070312 848.144531 414.199219 847.90625 411.332031 C 847.664062 408.464844 847.332031 405.609375 846.898438 402.765625 C 846.851562 402.453125 846.742188 402.164062 846.566406 401.898438 C 846.394531 401.636719 846.171875 401.421875 845.90625 401.253906 C 845.636719 401.089844 845.34375 400.988281 845.03125 400.949219 C 844.71875 400.910156 844.410156 400.941406 844.109375 401.039062 L 828.617188 406.078125 C 828.265625 403.664062 827.832031 401.265625 827.320312 398.878906 C 826.808594 396.496094 826.21875 394.128906 825.550781 391.785156 C 824.882812 389.441406 824.136719 387.117188 823.3125 384.824219 C 822.492188 382.527344 821.59375 380.261719 820.617188 378.027344 C 819.644531 375.789062 818.597656 373.589844 817.476562 371.421875 C 816.359375 369.257812 815.167969 367.128906 813.90625 365.042969 C 812.644531 362.957031 811.3125 360.914062 809.914062 358.917969 C 808.519531 356.917969 807.054688 354.96875 805.527344 353.066406 C 804 351.167969 802.414062 349.316406 800.761719 347.523438 C 799.113281 345.726562 797.402344 343.988281 795.636719 342.308594 C 793.871094 340.625 792.050781 339.007812 790.179688 337.445312 C 788.304688 335.886719 786.378906 334.390625 784.40625 332.957031 C 782.433594 331.523438 780.414062 330.160156 778.351562 328.863281 C 776.285156 327.5625 774.183594 326.335938 772.035156 325.179688 C 769.890625 324.019531 767.707031 322.9375 765.488281 321.921875 C 763.273438 320.910156 761.023438 319.972656 758.742188 319.109375 C 758.476562 319.007812 758.199219 318.964844 757.914062 318.972656 C 757.628906 318.980469 757.359375 319.042969 757.097656 319.164062 C 756.839844 319.28125 756.609375 319.441406 756.414062 319.652344 C 756.222656 319.859375 756.074219 320.097656 755.972656 320.363281 C 755.871094 320.628906 755.828125 320.90625 755.835938 321.191406 C 755.84375 321.476562 755.910156 321.746094 756.027344 322.007812 C 756.144531 322.265625 756.308594 322.492188 756.515625 322.6875 C 756.722656 322.882812 756.960938 323.03125 757.230469 323.128906 C 759.46875 323.976562 761.675781 324.902344 763.855469 325.898438 C 766.03125 326.894531 768.171875 327.96875 770.277344 329.109375 C 772.378906 330.253906 774.445312 331.46875 776.464844 332.75 C 778.488281 334.035156 780.464844 335.386719 782.394531 336.804688 C 784.324219 338.222656 786.203125 339.707031 788.03125 341.25 C 789.859375 342.796875 791.632812 344.402344 793.355469 346.070312 C 795.074219 347.738281 796.734375 349.460938 798.335938 351.242188 C 799.941406 353.023438 801.480469 354.855469 802.957031 356.738281 C 804.4375 358.625 805.847656 360.558594 807.195312 362.539062 C 808.542969 364.519531 809.820312 366.542969 811.027344 368.609375 C 812.238281 370.679688 813.375 372.785156 814.4375 374.929688 C 815.503906 377.074219 816.496094 379.253906 817.414062 381.46875 C 818.332031 383.679688 819.171875 385.921875 819.9375 388.191406 C 820.699219 390.460938 821.386719 392.753906 821.996094 395.070312 C 822.605469 397.390625 823.132812 399.722656 823.585938 402.078125 C 824.035156 404.429688 824.402344 406.792969 824.695312 409.171875 C 824.730469 409.492188 824.835938 409.785156 825.007812 410.058594 C 825.179688 410.332031 825.398438 410.554688 825.667969 410.726562 C 825.941406 410.898438 826.234375 411.007812 826.554688 411.046875 C 826.871094 411.089844 827.183594 411.058594 827.488281 410.960938 L 843 405.917969 C 843.359375 408.664062 843.628906 411.421875 843.800781 414.1875 C 843.976562 416.953125 844.058594 419.722656 844.046875 422.492188 C 844.035156 425.261719 843.929688 428.03125 843.734375 430.792969 C 843.535156 433.558594 843.246094 436.3125 842.863281 439.058594 C 842.480469 441.800781 842.007812 444.53125 841.441406 447.242188 C 840.875 449.957031 840.21875 452.648438 839.472656 455.316406 C 838.726562 457.984375 837.890625 460.625 836.96875 463.238281 C 836.042969 465.851562 835.035156 468.429688 833.9375 470.972656 C 832.839844 473.519531 831.660156 476.023438 830.394531 478.488281 C 829.128906 480.953125 827.785156 483.375 826.355469 485.75 C 824.929688 488.125 823.421875 490.449219 821.839844 492.722656 C 820.253906 494.996094 818.597656 497.214844 816.863281 499.375 C 815.132812 501.539062 813.328125 503.640625 811.457031 505.683594 C 809.582031 507.722656 807.640625 509.699219 805.636719 511.609375 C 803.628906 513.519531 801.5625 515.363281 799.429688 517.132812 C 797.300781 518.90625 795.113281 520.605469 792.871094 522.230469 C 792.640625 522.398438 792.449219 522.601562 792.300781 522.84375 C 792.152344 523.085938 792.054688 523.351562 792.011719 523.632812 C 791.964844 523.914062 791.976562 524.191406 792.042969 524.46875 C 792.109375 524.746094 792.226562 525 792.394531 525.230469 L 816.4375 558.332031 L 811.335938 555.542969 C 811.089844 555.40625 810.820312 555.324219 810.539062 555.292969 C 810.253906 555.261719 809.976562 555.285156 809.699219 555.363281 C 809.425781 555.445312 809.179688 555.574219 808.957031 555.753906 C 808.734375 555.929688 808.554688 556.144531 808.417969 556.394531 C 808.28125 556.648438 808.199219 556.914062 808.167969 557.199219 C 808.136719 557.480469 808.160156 557.761719 808.242188 558.035156 C 808.324219 558.308594 808.453125 558.554688 808.632812 558.777344 C 808.8125 559 809.027344 559.179688 809.277344 559.3125 L 822.757812 566.683594 C 822.769531 566.6875 822.78125 566.691406 822.792969 566.695312 C 822.902344 566.75 823.011719 566.792969 823.125 566.828125 C 823.179688 566.84375 823.226562 566.871094 823.28125 566.882812 C 823.441406 566.921875 823.601562 566.941406 823.765625 566.941406 C 823.773438 566.941406 823.78125 566.945312 823.789062 566.945312 L 823.792969 566.945312 C 824.472656 566.953125 825.023438 566.6875 825.445312 566.152344 C 825.476562 566.117188 825.5 566.082031 825.527344 566.042969 C 825.617188 565.917969 825.691406 565.789062 825.753906 565.648438 C 825.765625 565.621094 825.78125 565.597656 825.789062 565.570312 C 825.851562 565.402344 825.894531 565.230469 825.914062 565.054688 C 825.921875 565.015625 825.921875 564.972656 825.921875 564.933594 C 825.933594 564.777344 825.925781 564.625 825.902344 564.472656 Z M 825.902344 564.472656 " fill-opacity="1" fill-rule="nonzero"/><g clip-path="url(#5e4630f396)"><path fill="#00cee8" d="M 889.832031 368.285156 C 889.917969 368.128906 889.984375 367.96875 890.03125 367.796875 C 890.039062 367.769531 890.042969 367.738281 890.050781 367.707031 C 890.082031 367.558594 890.097656 367.410156 890.097656 367.257812 C 890.097656 367.210938 890.097656 367.167969 890.097656 367.121094 C 890.085938 366.742188 889.976562 366.402344 889.761719 366.089844 C 889.734375 366.046875 889.707031 366.011719 889.675781 365.96875 C 889.589844 365.855469 889.496094 365.746094 889.386719 365.652344 C 889.359375 365.625 889.335938 365.597656 889.304688 365.574219 C 889.171875 365.46875 889.027344 365.378906 888.871094 365.304688 C 888.824219 365.285156 888.777344 365.269531 888.730469 365.25 C 888.597656 365.199219 888.464844 365.160156 888.324219 365.136719 C 888.292969 365.132812 888.265625 365.117188 888.234375 365.113281 L 873 363.148438 C 872.714844 363.113281 872.4375 363.128906 872.164062 363.203125 C 871.886719 363.277344 871.636719 363.402344 871.410156 363.578125 C 871.183594 363.75 871 363.960938 870.859375 364.210938 C 870.71875 364.457031 870.628906 364.722656 870.59375 365.003906 C 870.554688 365.285156 870.574219 365.566406 870.648438 365.839844 C 870.722656 366.117188 870.847656 366.367188 871.023438 366.59375 C 871.195312 366.816406 871.40625 367 871.65625 367.144531 C 871.902344 367.285156 872.167969 367.375 872.449219 367.410156 L 878.214844 368.152344 L 841.335938 380.136719 C 840.40625 377.414062 839.386719 374.726562 838.277344 372.074219 C 837.164062 369.417969 835.964844 366.804688 834.679688 364.234375 C 833.390625 361.660156 832.019531 359.132812 830.5625 356.652344 C 829.105469 354.171875 827.566406 351.746094 825.945312 349.367188 C 824.324219 346.992188 822.625 344.671875 820.847656 342.410156 C 819.070312 340.148438 817.21875 337.949219 815.292969 335.808594 C 813.367188 333.671875 811.375 331.601562 809.308594 329.601562 C 807.246094 327.597656 805.113281 325.664062 802.917969 323.808594 C 800.722656 321.949219 798.46875 320.164062 796.152344 318.457031 C 793.839844 316.75 791.46875 315.121094 789.042969 313.574219 C 786.617188 312.027344 784.144531 310.5625 781.621094 309.183594 C 779.097656 307.804688 776.53125 306.507812 773.921875 305.300781 C 771.308594 304.09375 768.660156 302.976562 765.976562 301.945312 C 763.289062 300.917969 760.570312 299.980469 757.820312 299.136719 C 755.074219 298.289062 752.296875 297.539062 749.5 296.878906 C 746.699219 296.21875 743.878906 295.65625 741.042969 295.1875 C 740.730469 295.136719 740.421875 295.152344 740.117188 295.234375 C 739.8125 295.320312 739.542969 295.464844 739.300781 295.667969 C 739.058594 295.871094 738.871094 296.117188 738.738281 296.402344 C 738.605469 296.6875 738.539062 296.992188 738.539062 297.304688 L 738.539062 313.605469 C 736.136719 313.195312 733.722656 312.863281 731.296875 312.613281 C 728.871094 312.363281 726.441406 312.191406 724.003906 312.101562 C 721.570312 312.015625 719.132812 312.007812 716.695312 312.082031 C 714.257812 312.15625 711.828125 312.308594 709.398438 312.542969 C 706.972656 312.78125 704.558594 313.09375 702.152344 313.492188 C 699.746094 313.886719 697.355469 314.363281 694.980469 314.917969 C 692.605469 315.476562 690.253906 316.109375 687.921875 316.820312 C 685.589844 317.53125 683.285156 318.320312 681.003906 319.1875 C 678.726562 320.050781 676.476562 320.992188 674.261719 322.007812 C 672.042969 323.023438 669.863281 324.109375 667.71875 325.273438 C 665.574219 326.433594 663.472656 327.664062 661.410156 328.960938 C 659.347656 330.261719 657.328125 331.628906 655.359375 333.066406 C 653.386719 334.5 651.464844 336 649.59375 337.5625 C 647.71875 339.125 645.902344 340.746094 644.140625 342.429688 C 642.375 344.113281 640.667969 345.855469 639.019531 347.652344 C 637.371094 349.449219 635.785156 351.300781 634.261719 353.203125 C 634.082031 353.425781 633.953125 353.671875 633.875 353.945312 C 633.796875 354.21875 633.769531 354.5 633.800781 354.78125 C 633.832031 355.066406 633.917969 355.332031 634.054688 355.582031 C 634.195312 355.832031 634.375 356.046875 634.597656 356.222656 C 634.820312 356.402344 635.066406 356.53125 635.339844 356.609375 C 635.613281 356.6875 635.894531 356.710938 636.175781 356.679688 C 636.460938 356.648438 636.726562 356.5625 636.976562 356.425781 C 637.226562 356.289062 637.4375 356.109375 637.617188 355.886719 C 639.113281 354.015625 640.675781 352.199219 642.296875 350.4375 C 643.917969 348.675781 645.597656 346.96875 647.332031 345.320312 C 649.070312 343.671875 650.863281 342.082031 652.707031 340.558594 C 654.554688 339.03125 656.449219 337.570312 658.394531 336.171875 C 660.339844 334.773438 662.328125 333.441406 664.363281 332.179688 C 666.398438 330.917969 668.476562 329.726562 670.59375 328.605469 C 672.707031 327.484375 674.859375 326.4375 677.046875 325.464844 C 679.234375 324.488281 681.453125 323.589844 683.703125 322.765625 C 685.953125 321.941406 688.226562 321.195312 690.523438 320.527344 C 692.824219 319.859375 695.144531 319.269531 697.484375 318.757812 C 699.824219 318.246094 702.179688 317.816406 704.546875 317.464844 C 706.917969 317.117188 709.292969 316.847656 711.679688 316.65625 C 714.070312 316.46875 716.460938 316.359375 718.855469 316.335938 C 721.25 316.308594 723.640625 316.363281 726.03125 316.5 C 728.421875 316.636719 730.808594 316.855469 733.183594 317.15625 C 735.558594 317.453125 737.921875 317.832031 740.273438 318.292969 C 740.585938 318.355469 740.902344 318.347656 741.210938 318.269531 C 741.523438 318.191406 741.804688 318.046875 742.050781 317.84375 C 742.300781 317.640625 742.492188 317.394531 742.628906 317.101562 C 742.765625 316.8125 742.835938 316.507812 742.835938 316.183594 L 742.835938 299.871094 C 745.558594 300.375 748.261719 300.976562 750.945312 301.664062 C 753.628906 302.351562 756.285156 303.128906 758.917969 303.996094 C 761.546875 304.863281 764.148438 305.820312 766.714844 306.863281 C 769.28125 307.902344 771.8125 309.03125 774.300781 310.242188 C 776.792969 311.453125 779.242188 312.75 781.644531 314.125 C 784.050781 315.5 786.40625 316.957031 788.710938 318.492188 C 791.019531 320.027344 793.273438 321.636719 795.472656 323.324219 C 797.667969 325.007812 799.808594 326.765625 801.890625 328.597656 C 803.96875 330.425781 805.988281 332.324219 807.941406 334.289062 C 809.894531 336.253906 811.777344 338.28125 813.59375 340.375 C 815.414062 342.464844 817.15625 344.617188 818.828125 346.824219 C 820.503906 349.035156 822.097656 351.296875 823.617188 353.613281 C 825.140625 355.929688 826.582031 358.296875 827.941406 360.707031 C 829.304688 363.121094 830.582031 365.578125 831.78125 368.078125 C 832.976562 370.578125 834.089844 373.113281 835.113281 375.6875 C 836.140625 378.261719 837.082031 380.867188 837.933594 383.503906 C 838.019531 383.773438 838.15625 384.019531 838.339844 384.234375 C 838.527344 384.453125 838.746094 384.625 839 384.753906 C 839.253906 384.882812 839.523438 384.960938 839.804688 384.980469 C 840.089844 385.003906 840.367188 384.96875 840.636719 384.882812 L 879.542969 372.238281 L 875.316406 376.230469 C 875.105469 376.425781 874.945312 376.652344 874.828125 376.914062 C 874.707031 377.171875 874.644531 377.445312 874.636719 377.730469 C 874.628906 378.015625 874.675781 378.292969 874.777344 378.558594 C 874.878906 378.828125 875.027344 379.0625 875.222656 379.269531 C 875.417969 379.480469 875.644531 379.640625 875.90625 379.757812 C 876.167969 379.875 876.441406 379.9375 876.726562 379.945312 C 877.011719 379.953125 877.285156 379.90625 877.554688 379.800781 C 877.820312 379.699219 878.054688 379.550781 878.261719 379.351562 L 889.433594 368.804688 C 889.453125 368.789062 889.460938 368.765625 889.476562 368.75 C 889.585938 368.640625 889.683594 368.519531 889.765625 368.390625 C 889.789062 368.355469 889.8125 368.320312 889.832031 368.285156 Z M 889.832031 368.285156 " fill-opacity="1" fill-rule="nonzero"/></g><path fill="#ffd000" d="M 728.472656 258.117188 L 721.898438 244.230469 C 721.886719 244.207031 721.867188 244.1875 721.855469 244.167969 C 721.785156 244.03125 721.703125 243.90625 721.605469 243.789062 C 721.578125 243.753906 721.554688 243.71875 721.523438 243.6875 C 721.40625 243.558594 721.269531 243.445312 721.125 243.347656 C 721.097656 243.332031 721.070312 243.320312 721.042969 243.304688 C 720.914062 243.226562 720.777344 243.167969 720.632812 243.117188 C 720.589844 243.105469 720.542969 243.089844 720.5 243.078125 C 720.136719 242.972656 719.777344 242.972656 719.414062 243.078125 C 719.371094 243.089844 719.324219 243.105469 719.28125 243.117188 C 719.136719 243.167969 719 243.226562 718.871094 243.304688 C 718.84375 243.320312 718.816406 243.332031 718.789062 243.347656 C 718.640625 243.445312 718.507812 243.558594 718.390625 243.6875 C 718.359375 243.71875 718.335938 243.753906 718.308594 243.789062 C 718.210938 243.90625 718.128906 244.03125 718.058594 244.167969 C 718.046875 244.1875 718.027344 244.207031 718.015625 244.230469 L 711.441406 258.117188 C 711.316406 258.375 711.25 258.644531 711.234375 258.929688 C 711.222656 259.214844 711.261719 259.488281 711.359375 259.757812 C 711.453125 260.027344 711.597656 260.265625 711.789062 260.476562 C 711.980469 260.6875 712.203125 260.855469 712.460938 260.976562 C 712.71875 261.097656 712.988281 261.167969 713.273438 261.179688 C 713.558594 261.195312 713.835938 261.152344 714.101562 261.058594 C 714.371094 260.960938 714.609375 260.820312 714.820312 260.628906 C 715.03125 260.4375 715.199219 260.210938 715.320312 259.957031 L 717.808594 254.699219 L 717.808594 293.488281 C 714.933594 293.53125 712.0625 293.671875 709.195312 293.90625 C 706.328125 294.144531 703.472656 294.476562 700.628906 294.90625 C 697.785156 295.335938 694.960938 295.859375 692.152344 296.480469 C 689.34375 297.097656 686.558594 297.8125 683.796875 298.621094 C 681.035156 299.429688 678.304688 300.328125 675.605469 301.320312 C 672.90625 302.3125 670.242188 303.390625 667.613281 304.5625 C 664.988281 305.734375 662.402344 306.992188 659.859375 308.339844 C 657.320312 309.683594 654.824219 311.113281 652.378906 312.628906 C 649.933594 314.140625 647.539062 315.734375 645.203125 317.410156 C 642.863281 319.085938 640.582031 320.835938 638.363281 322.664062 C 636.140625 324.492188 633.984375 326.394531 631.894531 328.371094 C 629.800781 330.34375 627.777344 332.386719 625.820312 334.496094 C 623.867188 336.605469 621.984375 338.78125 620.175781 341.019531 C 618.371094 343.253906 616.636719 345.550781 614.984375 347.90625 C 613.332031 350.257812 611.757812 352.664062 610.265625 355.125 C 608.777344 357.585938 607.367188 360.09375 606.046875 362.648438 C 605.902344 362.929688 605.820312 363.226562 605.804688 363.542969 C 605.792969 363.859375 605.84375 364.160156 605.964844 364.453125 C 606.082031 364.746094 606.257812 365 606.492188 365.214844 C 606.722656 365.429688 606.988281 365.585938 607.289062 365.683594 L 622.785156 370.71875 C 621.652344 372.878906 620.589844 375.074219 619.601562 377.304688 C 618.613281 379.53125 617.703125 381.792969 616.863281 384.082031 C 616.027344 386.375 615.269531 388.6875 614.585938 391.03125 C 613.902344 393.371094 613.296875 395.734375 612.769531 398.113281 C 612.246094 400.496094 611.796875 402.890625 611.433594 405.300781 C 611.066406 407.714844 610.78125 410.132812 610.574219 412.5625 C 610.367188 414.996094 610.242188 417.429688 610.199219 419.867188 C 610.15625 422.304688 610.195312 424.742188 610.3125 427.179688 C 610.429688 429.613281 610.632812 432.042969 610.910156 434.464844 C 611.191406 436.890625 611.550781 439.300781 611.992188 441.699219 C 612.433594 444.097656 612.953125 446.476562 613.550781 448.84375 C 614.152344 451.207031 614.828125 453.546875 615.582031 455.867188 C 616.335938 458.183594 617.167969 460.476562 618.078125 462.742188 C 618.984375 465.003906 619.964844 467.234375 621.019531 469.433594 C 622.078125 471.632812 623.203125 473.792969 624.402344 475.914062 C 625.601562 478.039062 626.871094 480.121094 628.210938 482.15625 C 628.367188 482.398438 628.5625 482.597656 628.796875 482.757812 C 629.035156 482.917969 629.292969 483.027344 629.570312 483.085938 C 629.851562 483.144531 630.128906 483.144531 630.410156 483.09375 C 630.691406 483.039062 630.949219 482.933594 631.1875 482.777344 C 631.425781 482.621094 631.625 482.421875 631.785156 482.1875 C 631.945312 481.949219 632.054688 481.691406 632.109375 481.414062 C 632.167969 481.132812 632.167969 480.851562 632.113281 480.574219 C 632.058594 480.292969 631.953125 480.035156 631.796875 479.796875 C 630.480469 477.792969 629.238281 475.75 628.0625 473.660156 C 626.886719 471.574219 625.785156 469.449219 624.753906 467.285156 C 623.722656 465.125 622.769531 462.929688 621.886719 460.703125 C 621.003906 458.476562 620.199219 456.21875 619.472656 453.9375 C 618.746094 451.65625 618.09375 449.351562 617.523438 447.023438 C 616.953125 444.699219 616.460938 442.355469 616.050781 439.996094 C 615.636719 437.636719 615.308594 435.265625 615.058594 432.882812 C 614.804688 430.5 614.636719 428.113281 614.550781 425.71875 C 614.460938 423.324219 614.453125 420.929688 614.527344 418.535156 C 614.605469 416.140625 614.761719 413.753906 614.996094 411.371094 C 615.234375 408.984375 615.550781 406.613281 615.949219 404.25 C 616.351562 401.890625 616.828125 399.542969 617.386719 397.214844 C 617.945312 394.886719 618.582031 392.578125 619.296875 390.289062 C 620.011719 388.003906 620.804688 385.746094 621.671875 383.511719 C 622.542969 381.28125 623.484375 379.082031 624.503906 376.914062 C 625.523438 374.746094 626.613281 372.613281 627.777344 370.519531 C 627.933594 370.238281 628.023438 369.9375 628.042969 369.617188 C 628.066406 369.296875 628.015625 368.988281 627.898438 368.691406 C 627.78125 368.390625 627.605469 368.128906 627.375 367.910156 C 627.140625 367.691406 626.871094 367.53125 626.566406 367.429688 L 611.050781 362.390625 C 612.375 359.957031 613.78125 357.566406 615.261719 355.226562 C 616.746094 352.886719 618.308594 350.601562 619.945312 348.367188 C 621.585938 346.128906 623.292969 343.953125 625.078125 341.832031 C 626.863281 339.714844 628.714844 337.65625 630.636719 335.660156 C 632.558594 333.664062 634.546875 331.734375 636.597656 329.871094 C 638.648438 328.011719 640.761719 326.21875 642.933594 324.5 C 645.105469 322.777344 647.332031 321.132812 649.617188 319.5625 C 651.898438 317.992188 654.230469 316.5 656.613281 315.085938 C 658.996094 313.671875 661.421875 312.339844 663.894531 311.089844 C 666.367188 309.839844 668.878906 308.671875 671.429688 307.589844 C 673.980469 306.507812 676.5625 305.511719 679.179688 304.605469 C 681.796875 303.695312 684.441406 302.875 687.117188 302.144531 C 689.789062 301.414062 692.480469 300.773438 695.195312 300.226562 C 697.914062 299.675781 700.644531 299.21875 703.390625 298.851562 C 706.136719 298.484375 708.890625 298.210938 711.65625 298.03125 C 714.417969 297.847656 717.1875 297.761719 719.957031 297.765625 C 720.242188 297.765625 720.515625 297.710938 720.777344 297.601562 C 721.042969 297.492188 721.273438 297.335938 721.476562 297.136719 C 721.675781 296.933594 721.832031 296.703125 721.941406 296.441406 C 722.050781 296.175781 722.105469 295.902344 722.105469 295.617188 L 722.105469 254.699219 L 724.59375 259.953125 C 724.714844 260.210938 724.882812 260.4375 725.09375 260.628906 C 725.304688 260.820312 725.542969 260.964844 725.8125 261.058594 C 726.078125 261.15625 726.355469 261.199219 726.640625 261.183594 C 726.925781 261.167969 727.195312 261.101562 727.453125 260.980469 C 727.710938 260.859375 727.9375 260.691406 728.128906 260.480469 C 728.320312 260.269531 728.460938 260.027344 728.558594 259.757812 C 728.652344 259.492188 728.695312 259.214844 728.679688 258.929688 C 728.664062 258.644531 728.597656 258.375 728.472656 258.117188 Z M 728.472656 258.117188 " fill-opacity="1" fill-rule="nonzero"/><g clip-path="url(#52c05f5b8f)"><path fill="#fe2635" d="M 750.453125 525.125 C 750.375 524.851562 750.25 524.601562 750.074219 524.375 C 749.902344 524.152344 749.691406 523.96875 749.441406 523.828125 C 749.195312 523.6875 748.929688 523.597656 748.648438 523.5625 C 748.363281 523.527344 748.085938 523.546875 747.8125 523.621094 C 745.5 524.253906 743.171875 524.804688 740.824219 525.277344 C 738.476562 525.75 736.117188 526.144531 733.742188 526.457031 C 731.367188 526.769531 728.984375 527 726.59375 527.148438 C 724.207031 527.300781 721.8125 527.367188 719.417969 527.355469 C 717.023438 527.34375 714.632812 527.25 712.242188 527.074219 C 709.855469 526.898438 707.476562 526.640625 705.105469 526.304688 C 702.734375 525.964844 700.378906 525.546875 698.035156 525.050781 C 695.691406 524.550781 693.371094 523.976562 691.066406 523.320312 C 688.761719 522.664062 686.484375 521.929688 684.230469 521.117188 C 681.976562 520.308594 679.753906 519.421875 677.5625 518.460938 C 675.367188 517.496094 673.210938 516.460938 671.089844 515.351562 C 668.964844 514.242188 666.882812 513.0625 664.839844 511.8125 C 662.796875 510.5625 660.800781 509.242188 658.847656 507.855469 C 656.894531 506.46875 654.992188 505.015625 653.140625 503.5 C 651.285156 501.984375 649.484375 500.40625 647.738281 498.769531 C 645.992188 497.128906 644.300781 495.433594 642.671875 493.679688 C 642.453125 493.441406 642.195312 493.265625 641.898438 493.144531 C 641.597656 493.027344 641.289062 492.976562 640.96875 492.996094 C 640.648438 493.015625 640.347656 493.101562 640.066406 493.253906 C 639.785156 493.410156 639.546875 493.617188 639.359375 493.875 L 629.773438 507.078125 C 627.867188 505.066406 626.03125 502.992188 624.265625 500.855469 C 622.5 498.722656 620.804688 496.53125 619.1875 494.28125 C 617.566406 492.03125 616.027344 489.730469 614.5625 487.378906 C 613.097656 485.027344 611.714844 482.628906 610.410156 480.183594 C 609.105469 477.738281 607.886719 475.253906 606.75 472.726562 C 605.613281 470.199219 604.5625 467.636719 603.597656 465.039062 C 602.632812 462.441406 601.757812 459.8125 600.96875 457.15625 C 600.183594 454.5 599.484375 451.820312 598.875 449.117188 C 598.269531 446.410156 597.75 443.691406 597.328125 440.953125 C 596.902344 438.214844 596.566406 435.464844 596.328125 432.703125 C 596.085938 429.945312 595.9375 427.179688 595.882812 424.40625 C 595.828125 421.636719 595.867188 418.867188 596 416.097656 C 596.128906 413.332031 596.351562 410.570312 596.667969 407.816406 C 596.984375 405.066406 597.394531 402.324219 597.894531 399.601562 C 598.394531 396.875 598.984375 394.167969 599.667969 391.484375 C 600.351562 388.796875 601.121094 386.136719 601.980469 383.503906 C 602.070312 383.230469 602.101562 382.953125 602.082031 382.671875 C 602.058594 382.386719 601.980469 382.117188 601.851562 381.863281 C 601.722656 381.609375 601.550781 381.390625 601.335938 381.207031 C 601.117188 381.019531 600.875 380.882812 600.601562 380.796875 L 561.699219 368.152344 L 567.464844 367.410156 C 567.746094 367.375 568.011719 367.285156 568.257812 367.144531 C 568.507812 367 568.71875 366.816406 568.890625 366.59375 C 569.066406 366.367188 569.191406 366.117188 569.265625 365.839844 C 569.339844 365.566406 569.359375 365.285156 569.324219 365.003906 C 569.285156 364.722656 569.195312 364.457031 569.054688 364.210938 C 568.914062 363.960938 568.730469 363.75 568.503906 363.578125 C 568.277344 363.402344 568.027344 363.277344 567.753906 363.203125 C 567.476562 363.128906 567.199219 363.113281 566.914062 363.148438 L 551.679688 365.113281 C 551.652344 365.117188 551.628906 365.128906 551.601562 365.132812 C 551.453125 365.160156 551.308594 365.199219 551.167969 365.253906 C 551.128906 365.269531 551.089844 365.28125 551.050781 365.300781 C 550.890625 365.375 550.738281 365.46875 550.601562 365.578125 C 550.578125 365.597656 550.5625 365.617188 550.539062 365.636719 C 550.425781 365.738281 550.320312 365.851562 550.230469 365.976562 C 550.203125 366.011719 550.175781 366.046875 550.152344 366.085938 C 550.050781 366.238281 549.972656 366.402344 549.914062 366.574219 L 549.910156 366.578125 L 549.910156 366.582031 C 549.855469 366.757812 549.824219 366.9375 549.816406 367.121094 C 549.8125 367.167969 549.816406 367.210938 549.816406 367.257812 C 549.816406 367.410156 549.832031 367.558594 549.863281 367.707031 C 549.871094 367.738281 549.875 367.769531 549.882812 367.796875 C 549.929688 367.96875 549.996094 368.128906 550.082031 368.285156 C 550.101562 368.320312 550.125 368.355469 550.148438 368.390625 C 550.230469 368.519531 550.328125 368.640625 550.433594 368.75 C 550.453125 368.765625 550.460938 368.789062 550.480469 368.804688 L 561.652344 379.351562 C 561.859375 379.550781 562.09375 379.699219 562.363281 379.800781 C 562.628906 379.90625 562.902344 379.953125 563.1875 379.945312 C 563.476562 379.9375 563.746094 379.875 564.007812 379.757812 C 564.269531 379.640625 564.496094 379.480469 564.695312 379.273438 C 564.890625 379.0625 565.039062 378.828125 565.140625 378.558594 C 565.242188 378.292969 565.289062 378.015625 565.277344 377.730469 C 565.269531 377.445312 565.207031 377.171875 565.089844 376.914062 C 564.972656 376.652344 564.808594 376.425781 564.597656 376.230469 L 560.371094 372.238281 L 597.25 384.222656 C 596.402344 386.972656 595.648438 389.746094 594.988281 392.546875 C 594.328125 395.347656 593.761719 398.167969 593.289062 401.003906 C 592.820312 403.84375 592.445312 406.695312 592.167969 409.558594 C 591.886719 412.421875 591.707031 415.292969 591.621094 418.167969 C 591.535156 421.042969 591.546875 423.917969 591.65625 426.792969 C 591.765625 429.667969 591.96875 432.535156 592.269531 435.398438 C 592.574219 438.257812 592.96875 441.105469 593.464844 443.941406 C 593.957031 446.777344 594.546875 449.589844 595.230469 452.382812 C 595.914062 455.179688 596.6875 457.949219 597.558594 460.691406 C 598.429688 463.433594 599.390625 466.140625 600.441406 468.820312 C 601.496094 471.496094 602.636719 474.136719 603.867188 476.738281 C 605.097656 479.335938 606.414062 481.894531 607.816406 484.40625 C 609.21875 486.917969 610.703125 489.378906 612.273438 491.789062 C 613.839844 494.203125 615.488281 496.558594 617.214844 498.859375 C 618.945312 501.160156 620.746094 503.398438 622.625 505.578125 C 624.503906 507.757812 626.453125 509.871094 628.472656 511.917969 C 628.695312 512.144531 628.953125 512.3125 629.246094 512.421875 C 629.542969 512.535156 629.847656 512.578125 630.164062 512.554688 C 630.476562 512.53125 630.773438 512.441406 631.050781 512.289062 C 631.324219 512.136719 631.554688 511.929688 631.742188 511.675781 L 641.316406 498.488281 C 643.019531 500.238281 644.777344 501.925781 646.589844 503.558594 C 648.402344 505.1875 650.269531 506.757812 652.1875 508.261719 C 654.105469 509.769531 656.070312 511.210938 658.085938 512.585938 C 660.101562 513.960938 662.15625 515.265625 664.257812 516.503906 C 666.359375 517.742188 668.5 518.910156 670.679688 520.003906 C 672.859375 521.097656 675.074219 522.121094 677.320312 523.066406 C 679.566406 524.015625 681.84375 524.886719 684.148438 525.679688 C 686.453125 526.476562 688.78125 527.195312 691.136719 527.835938 C 693.488281 528.472656 695.859375 529.035156 698.25 529.515625 C 700.640625 530 703.046875 530.402344 705.464844 530.722656 C 707.882812 531.042969 710.304688 531.285156 712.738281 531.445312 C 715.171875 531.601562 717.609375 531.679688 720.046875 531.679688 C 722.488281 531.675781 724.921875 531.589844 727.355469 531.425781 C 729.789062 531.261719 732.214844 531.015625 734.628906 530.6875 C 737.046875 530.359375 739.449219 529.953125 741.839844 529.464844 C 744.226562 528.976562 746.597656 528.410156 748.949219 527.765625 C 749.226562 527.6875 749.472656 527.5625 749.699219 527.390625 C 749.925781 527.214844 750.105469 527.003906 750.246094 526.753906 C 750.386719 526.507812 750.476562 526.242188 750.511719 525.960938 C 750.546875 525.675781 750.527344 525.398438 750.453125 525.125 Z M 750.453125 525.125 " fill-opacity="1" fill-rule="nonzero"/></g><g clip-path="url(#e3d1123099)"><path fill="#5271ff" d="M 680.730469 437.96875 C 680.097656 437.609375 679.484375 437.246094 678.898438 436.871094 C 672.230469 432.652344 668.453125 427.335938 668.453125 421.707031 C 668.453125 416.078125 672.230469 410.761719 678.898438 406.542969 C 679.484375 406.167969 680.097656 405.804688 680.730469 405.449219 C 680.535156 404.746094 680.359375 404.054688 680.207031 403.375 C 678.480469 395.679688 679.566406 389.25 683.546875 385.269531 C 687.527344 381.285156 693.957031 380.199219 701.65625 381.929688 C 702.335938 382.082031 703.027344 382.257812 703.726562 382.453125 C 704.082031 381.820312 704.449219 381.207031 704.820312 380.617188 C 709.042969 373.953125 714.359375 370.175781 719.988281 370.175781 C 725.617188 370.175781 730.933594 373.953125 735.152344 380.617188 C 735.527344 381.207031 735.890625 381.820312 736.246094 382.453125 C 736.949219 382.257812 737.636719 382.082031 738.320312 381.929688 C 746.015625 380.199219 752.445312 381.289062 756.425781 385.269531 C 760.40625 389.25 761.496094 395.679688 759.765625 403.375 C 759.613281 404.054688 759.4375 404.746094 759.242188 405.449219 C 759.875 405.804688 760.488281 406.167969 761.078125 406.542969 C 767.742188 410.761719 771.519531 416.078125 771.519531 421.707031 C 771.519531 427.335938 767.742188 432.652344 761.078125 436.871094 C 760.488281 437.246094 759.875 437.609375 759.242188 437.96875 C 759.4375 438.667969 759.613281 439.359375 759.765625 440.039062 C 761.496094 447.734375 760.40625 454.167969 756.425781 458.148438 C 752.445312 462.128906 746.015625 463.214844 738.320312 461.488281 C 737.636719 461.332031 736.949219 461.160156 736.246094 460.960938 C 735.890625 461.597656 735.527344 462.207031 735.152344 462.796875 C 730.933594 469.460938 725.617188 473.242188 719.988281 473.242188 C 714.359375 473.242188 709.042969 469.460938 704.820312 462.796875 C 704.449219 462.207031 704.082031 461.597656 703.726562 460.960938 C 703.027344 461.160156 702.335938 461.332031 701.65625 461.488281 C 693.957031 463.214844 687.527344 462.128906 683.546875 458.148438 C 679.566406 454.167969 678.480469 447.734375 680.207031 440.039062 C 680.359375 439.359375 680.535156 438.667969 680.730469 437.96875 Z M 681.878906 408.984375 C 681.527344 409.191406 681.179688 409.402344 680.84375 409.617188 C 675.441406 413.039062 672.09375 417.144531 672.09375 421.707031 C 672.09375 426.269531 675.441406 430.378906 680.84375 433.796875 C 681.179688 434.011719 681.527344 434.222656 681.878906 434.429688 C 683.363281 430.371094 685.5 426.070312 688.230469 421.707031 C 685.5 417.34375 683.363281 413.042969 681.878906 408.984375 Z M 702.035156 385.765625 C 701.640625 385.664062 701.246094 385.566406 700.859375 385.480469 C 694.621094 384.078125 689.347656 384.613281 686.121094 387.839844 C 682.894531 391.066406 682.359375 396.339844 683.757812 402.578125 C 683.847656 402.96875 683.941406 403.359375 684.042969 403.757812 C 687.964844 401.9375 692.515625 400.40625 697.53125 399.25 C 698.6875 394.234375 700.214844 389.683594 702.035156 385.765625 Z M 732.707031 383.597656 C 732.5 383.246094 732.289062 382.902344 732.078125 382.566406 C 728.65625 377.164062 724.550781 373.8125 719.988281 373.8125 C 715.425781 373.8125 711.316406 377.164062 707.898438 382.566406 C 707.683594 382.902344 707.472656 383.246094 707.265625 383.597656 C 711.324219 385.082031 715.621094 387.21875 719.988281 389.949219 C 724.351562 387.21875 728.652344 385.082031 732.707031 383.597656 Z M 755.929688 403.757812 C 756.03125 403.359375 756.128906 402.96875 756.214844 402.578125 C 757.617188 396.339844 757.078125 391.066406 753.851562 387.839844 C 750.628906 384.613281 745.355469 384.078125 739.117188 385.480469 C 738.726562 385.566406 738.335938 385.664062 737.9375 385.765625 C 739.757812 389.683594 741.285156 394.234375 742.445312 399.25 C 747.460938 400.40625 752.011719 401.9375 755.929688 403.757812 Z M 758.09375 434.429688 C 758.449219 434.222656 758.792969 434.011719 759.128906 433.796875 C 764.53125 430.378906 767.882812 426.269531 767.882812 421.707031 C 767.882812 417.144531 764.53125 413.039062 759.128906 409.617188 C 758.792969 409.402344 758.449219 409.191406 758.09375 408.984375 C 756.609375 413.042969 754.472656 417.34375 751.746094 421.707031 C 754.472656 426.070312 756.609375 430.371094 758.09375 434.429688 Z M 737.9375 457.648438 C 738.335938 457.753906 738.726562 457.847656 739.117188 457.933594 C 745.355469 459.335938 750.628906 458.800781 753.851562 455.574219 C 757.078125 452.347656 757.617188 447.074219 756.214844 440.835938 C 756.128906 440.449219 756.03125 440.054688 755.929688 439.660156 C 752.011719 441.476562 747.460938 443.007812 742.445312 444.164062 C 741.285156 449.179688 739.757812 453.730469 737.9375 457.648438 Z M 707.265625 459.816406 C 707.472656 460.167969 707.683594 460.511719 707.898438 460.851562 C 711.316406 466.253906 715.425781 469.601562 719.988281 469.601562 C 724.550781 469.601562 728.65625 466.253906 732.078125 460.851562 C 732.289062 460.511719 732.5 460.167969 732.707031 459.816406 C 728.652344 458.332031 724.351562 456.195312 719.988281 453.464844 C 715.621094 456.195312 711.324219 458.332031 707.265625 459.816406 Z M 684.042969 439.660156 C 683.941406 440.054688 683.847656 440.449219 683.757812 440.835938 C 682.359375 447.074219 682.894531 452.347656 686.121094 455.574219 C 689.347656 458.800781 694.621094 459.335938 700.859375 457.933594 C 701.246094 457.847656 701.640625 457.753906 702.035156 457.648438 C 700.214844 453.730469 698.6875 449.179688 697.53125 444.164062 C 692.515625 443.007812 687.964844 441.476562 684.042969 439.660156 Z M 696.71875 403.175781 C 692.414062 404.265625 688.507812 405.644531 685.121094 407.265625 C 686.371094 410.804688 688.15625 414.546875 690.429688 418.359375 C 691.992188 416.097656 693.703125 413.835938 695.558594 411.589844 C 695.832031 408.6875 696.222656 405.875 696.71875 403.175781 Z M 690.429688 425.058594 C 688.15625 428.871094 686.371094 432.609375 685.121094 436.148438 C 688.507812 437.769531 692.414062 439.152344 696.71875 440.238281 C 696.222656 437.539062 695.832031 434.726562 695.558594 431.824219 C 693.703125 429.582031 691.992188 427.316406 690.429688 425.058594 Z M 716.636719 392.152344 C 712.824219 389.878906 709.085938 388.089844 705.546875 386.84375 C 703.925781 390.226562 702.542969 394.136719 701.457031 398.441406 C 704.15625 397.945312 706.96875 397.554688 709.867188 397.28125 C 712.113281 395.421875 714.378906 393.710938 716.636719 392.152344 Z M 738.515625 398.441406 C 737.429688 394.136719 736.050781 390.226562 734.429688 386.84375 C 730.890625 388.089844 727.148438 389.878906 723.335938 392.152344 C 725.597656 393.710938 727.859375 395.421875 730.105469 397.28125 C 733.007812 397.554688 735.816406 397.945312 738.515625 398.441406 Z M 749.542969 418.359375 C 751.816406 414.546875 753.605469 410.804688 754.851562 407.265625 C 751.464844 405.644531 747.558594 404.265625 743.253906 403.175781 C 743.75 405.875 744.140625 408.6875 744.414062 411.589844 C 746.273438 413.835938 747.984375 416.097656 749.542969 418.359375 Z M 743.253906 440.238281 C 747.558594 439.152344 751.464844 437.769531 754.851562 436.148438 C 753.605469 432.609375 751.816406 428.871094 749.542969 425.058594 C 747.984375 427.316406 746.273438 429.582031 744.414062 431.824219 C 744.140625 434.726562 743.75 437.539062 743.253906 440.238281 Z M 723.335938 451.261719 C 727.148438 453.539062 730.890625 455.324219 734.429688 456.574219 C 736.050781 453.1875 737.429688 449.277344 738.515625 444.976562 C 735.816406 445.46875 733.007812 445.859375 730.105469 446.136719 C 727.859375 447.992188 725.597656 449.703125 723.335938 451.261719 Z M 701.457031 444.976562 C 702.542969 449.277344 703.925781 453.1875 705.546875 456.574219 C 709.085938 455.324219 712.824219 453.539062 716.636719 451.261719 C 714.378906 449.703125 712.113281 447.992188 709.867188 446.136719 C 706.96875 445.859375 704.15625 445.46875 701.457031 444.976562 Z M 695.148438 418.003906 C 694.234375 419.238281 693.363281 420.476562 692.542969 421.707031 C 693.363281 422.941406 694.234375 424.175781 695.148438 425.414062 C 695.105469 424.1875 695.085938 422.953125 695.085938 421.707031 C 695.085938 420.460938 695.105469 419.226562 695.148438 418.003906 Z M 700.582031 402.304688 C 700.289062 403.753906 700.03125 405.242188 699.804688 406.761719 C 700.640625 405.867188 701.5 404.980469 702.378906 404.101562 C 703.261719 403.21875 704.148438 402.359375 705.042969 401.523438 C 703.523438 401.75 702.035156 402.011719 700.582031 402.304688 Z M 699.804688 436.652344 C 700.03125 438.171875 700.289062 439.660156 700.582031 441.113281 C 702.035156 441.40625 703.523438 441.664062 705.042969 441.890625 C 704.148438 441.054688 703.261719 440.195312 702.378906 439.316406 C 701.5 438.433594 700.640625 437.546875 699.804688 436.652344 Z M 719.988281 394.265625 C 718.753906 395.085938 717.519531 395.953125 716.28125 396.867188 C 717.507812 396.828125 718.742188 396.804688 719.988281 396.804688 C 721.234375 396.804688 722.46875 396.828125 723.691406 396.867188 C 722.457031 395.953125 721.21875 395.085938 719.988281 394.265625 Z M 739.390625 402.304688 C 737.941406 402.011719 736.453125 401.75 734.929688 401.523438 C 735.824219 402.359375 736.714844 403.21875 737.59375 404.101562 C 738.476562 404.980469 739.335938 405.867188 740.171875 406.761719 C 739.945312 405.242188 739.683594 403.753906 739.390625 402.304688 Z M 747.429688 421.707031 C 746.609375 420.476562 745.742188 419.238281 744.824219 418.003906 C 744.867188 419.226562 744.886719 420.460938 744.886719 421.707031 C 744.886719 422.953125 744.867188 424.1875 744.824219 425.414062 C 745.742188 424.175781 746.609375 422.941406 747.429688 421.707031 Z M 739.390625 441.113281 C 739.683594 439.660156 739.945312 438.171875 740.171875 436.652344 C 739.335938 437.546875 738.476562 438.433594 737.59375 439.316406 C 736.714844 440.195312 735.824219 441.054688 734.929688 441.890625 C 736.453125 441.664062 737.941406 441.40625 739.390625 441.113281 Z M 719.988281 449.148438 C 721.21875 448.328125 722.457031 447.460938 723.691406 446.546875 C 722.46875 446.585938 721.234375 446.609375 719.988281 446.609375 C 718.742188 446.609375 717.507812 446.585938 716.28125 446.546875 C 717.519531 447.460938 718.753906 448.328125 719.988281 449.148438 Z M 712.140625 425.371094 L 709.421875 432.039062 L 706.132812 430.699219 L 714.050781 411.273438 L 717.339844 411.273438 L 725.261719 430.699219 L 721.972656 432.039062 L 719.253906 425.371094 Z M 717.804688 421.820312 L 715.695312 416.644531 L 713.585938 421.820312 Z M 727.089844 410.984375 L 730.640625 410.984375 L 730.640625 431.6875 L 727.089844 431.6875 Z M 727.089844 410.984375 " fill-opacity="1" fill-rule="evenodd"/></g><g fill="#ffffff" fill-opacity="1"><g transform="translate(648.349204, 201.729151)"><g><path d="M 11.6875 -21.203125 C 13.570312 -21.203125 15.203125 -20.890625 16.578125 -20.265625 C 17.960938 -19.640625 19.03125 -18.75 19.78125 -17.59375 C 20.53125 -16.445312 20.90625 -15.085938 20.90625 -13.515625 C 20.90625 -11.953125 20.53125 -10.59375 19.78125 -9.4375 C 19.03125 -8.28125 17.960938 -7.390625 16.578125 -6.765625 C 15.203125 -6.148438 13.570312 -5.84375 11.6875 -5.84375 L 7.421875 -5.84375 L 7.421875 0 L 2.515625 0 L 2.515625 -21.203125 Z M 11.421875 -9.84375 C 12.898438 -9.84375 14.019531 -10.160156 14.78125 -10.796875 C 15.550781 -11.429688 15.9375 -12.335938 15.9375 -13.515625 C 15.9375 -14.703125 15.550781 -15.613281 14.78125 -16.25 C 14.019531 -16.882812 12.898438 -17.203125 11.421875 -17.203125 L 7.421875 -17.203125 L 7.421875 -9.84375 Z M 11.421875 -9.84375 "/></g></g></g><g fill="#ffffff" fill-opacity="1"><g transform="translate(670.523711, 201.729151)"><g><path d="M 2.1875 -22.484375 L 6.90625 -22.484375 L 6.90625 0 L 2.1875 0 Z M 2.1875 -22.484375 "/></g></g></g><g fill="#ffffff" fill-opacity="1"><g transform="translate(679.641916, 201.729151)"><g><path d="M 8.75 -16.546875 C 11.28125 -16.546875 13.222656 -15.941406 14.578125 -14.734375 C 15.929688 -13.535156 16.609375 -11.722656 16.609375 -9.296875 L 16.609375 0 L 12.171875 0 L 12.171875 -2.03125 C 11.285156 -0.507812 9.628906 0.25 7.203125 0.25 C 5.953125 0.25 4.867188 0.0351562 3.953125 -0.390625 C 3.035156 -0.816406 2.332031 -1.398438 1.84375 -2.140625 C 1.363281 -2.890625 1.125 -3.742188 1.125 -4.703125 C 1.125 -6.210938 1.691406 -7.398438 2.828125 -8.265625 C 3.972656 -9.140625 5.738281 -9.578125 8.125 -9.578125 L 11.875 -9.578125 C 11.875 -10.609375 11.5625 -11.398438 10.9375 -11.953125 C 10.3125 -12.503906 9.375 -12.78125 8.125 -12.78125 C 7.25 -12.78125 6.390625 -12.644531 5.546875 -12.375 C 4.710938 -12.101562 4.003906 -11.734375 3.421875 -11.265625 L 1.734375 -14.578125 C 2.617188 -15.203125 3.679688 -15.6875 4.921875 -16.03125 C 6.160156 -16.375 7.4375 -16.546875 8.75 -16.546875 Z M 8.390625 -2.9375 C 9.203125 -2.9375 9.921875 -3.125 10.546875 -3.5 C 11.171875 -3.875 11.613281 -4.425781 11.875 -5.15625 L 11.875 -6.8125 L 8.640625 -6.8125 C 6.691406 -6.8125 5.71875 -6.175781 5.71875 -4.90625 C 5.71875 -4.300781 5.957031 -3.820312 6.4375 -3.46875 C 6.914062 -3.113281 7.566406 -2.9375 8.390625 -2.9375 Z M 8.390625 -2.9375 "/></g></g></g><g fill="#ffffff" fill-opacity="1"><g transform="translate(698.332727, 201.729151)"><g><path d="M 12.09375 -16.546875 C 14.113281 -16.546875 15.742188 -15.9375 16.984375 -14.71875 C 18.222656 -13.507812 18.84375 -11.710938 18.84375 -9.328125 L 18.84375 0 L 14.125 0 L 14.125 -8.609375 C 14.125 -9.898438 13.835938 -10.863281 13.265625 -11.5 C 12.703125 -12.132812 11.882812 -12.453125 10.8125 -12.453125 C 9.625 -12.453125 8.675781 -12.082031 7.96875 -11.34375 C 7.257812 -10.601562 6.90625 -9.507812 6.90625 -8.0625 L 6.90625 0 L 2.1875 0 L 2.1875 -16.296875 L 6.703125 -16.296875 L 6.703125 -14.390625 C 7.328125 -15.078125 8.101562 -15.609375 9.03125 -15.984375 C 9.957031 -16.359375 10.976562 -16.546875 12.09375 -16.546875 Z M 12.09375 -16.546875 "/></g></g></g><g fill="#ffffff" fill-opacity="1"><g transform="translate(719.265217, 201.729151)"><g><path d="M 12.09375 -16.546875 C 14.113281 -16.546875 15.742188 -15.9375 16.984375 -14.71875 C 18.222656 -13.507812 18.84375 -11.710938 18.84375 -9.328125 L 18.84375 0 L 14.125 0 L 14.125 -8.609375 C 14.125 -9.898438 13.835938 -10.863281 13.265625 -11.5 C 12.703125 -12.132812 11.882812 -12.453125 10.8125 -12.453125 C 9.625 -12.453125 8.675781 -12.082031 7.96875 -11.34375 C 7.257812 -10.601562 6.90625 -9.507812 6.90625 -8.0625 L 6.90625 0 L 2.1875 0 L 2.1875 -16.296875 L 6.703125 -16.296875 L 6.703125 -14.390625 C 7.328125 -15.078125 8.101562 -15.609375 9.03125 -15.984375 C 9.957031 -16.359375 10.976562 -16.546875 12.09375 -16.546875 Z M 12.09375 -16.546875 "/></g></g></g><g fill="#ffffff" fill-opacity="1"><g transform="translate(740.197707, 201.729151)"><g><path d="M 2.1875 -16.296875 L 6.90625 -16.296875 L 6.90625 0 L 2.1875 0 Z M 4.546875 -18.578125 C 3.679688 -18.578125 2.972656 -18.828125 2.421875 -19.328125 C 1.878906 -19.835938 1.609375 -20.460938 1.609375 -21.203125 C 1.609375 -21.953125 1.878906 -22.578125 2.421875 -23.078125 C 2.972656 -23.585938 3.679688 -23.84375 4.546875 -23.84375 C 5.421875 -23.84375 6.128906 -23.597656 6.671875 -23.109375 C 7.210938 -22.628906 7.484375 -22.023438 7.484375 -21.296875 C 7.484375 -20.503906 7.210938 -19.851562 6.671875 -19.34375 C 6.128906 -18.832031 5.421875 -18.578125 4.546875 -18.578125 Z M 4.546875 -18.578125 "/></g></g></g><g fill="#ffffff" fill-opacity="1"><g transform="translate(749.315912, 201.729151)"><g><path d="M 12.09375 -16.546875 C 14.113281 -16.546875 15.742188 -15.9375 16.984375 -14.71875 C 18.222656 -13.507812 18.84375 -11.710938 18.84375 -9.328125 L 18.84375 0 L 14.125 0 L 14.125 -8.609375 C 14.125 -9.898438 13.835938 -10.863281 13.265625 -11.5 C 12.703125 -12.132812 11.882812 -12.453125 10.8125 -12.453125 C 9.625 -12.453125 8.675781 -12.082031 7.96875 -11.34375 C 7.257812 -10.601562 6.90625 -9.507812 6.90625 -8.0625 L 6.90625 0 L 2.1875 0 L 2.1875 -16.296875 L 6.703125 -16.296875 L 6.703125 -14.390625 C 7.328125 -15.078125 8.101562 -15.609375 9.03125 -15.984375 C 9.957031 -16.359375 10.976562 -16.546875 12.09375 -16.546875 Z M 12.09375 -16.546875 "/></g></g></g><g fill="#ffffff" fill-opacity="1"><g transform="translate(770.430204, 201.729151)"><g><path d="M 19 -16.296875 L 19 -2.734375 C 19 0.253906 18.21875 2.476562 16.65625 3.9375 C 15.101562 5.394531 12.832031 6.125 9.84375 6.125 C 8.269531 6.125 6.773438 5.929688 5.359375 5.546875 C 3.941406 5.160156 2.769531 4.601562 1.84375 3.875 L 3.71875 0.484375 C 4.40625 1.046875 5.273438 1.492188 6.328125 1.828125 C 7.378906 2.160156 8.429688 2.328125 9.484375 2.328125 C 11.117188 2.328125 12.320312 1.957031 13.09375 1.21875 C 13.875 0.488281 14.265625 -0.625 14.265625 -2.125 L 14.265625 -2.8125 C 13.035156 -1.457031 11.320312 -0.78125 9.125 -0.78125 C 7.625 -0.78125 6.253906 -1.109375 5.015625 -1.765625 C 3.773438 -2.421875 2.789062 -3.34375 2.0625 -4.53125 C 1.332031 -5.726562 0.96875 -7.109375 0.96875 -8.671875 C 0.96875 -10.222656 1.332031 -11.59375 2.0625 -12.78125 C 2.789062 -13.976562 3.773438 -14.90625 5.015625 -15.5625 C 6.253906 -16.21875 7.625 -16.546875 9.125 -16.546875 C 11.488281 -16.546875 13.285156 -15.765625 14.515625 -14.203125 L 14.515625 -16.296875 Z M 10.0625 -4.671875 C 11.3125 -4.671875 12.332031 -5.035156 13.125 -5.765625 C 13.925781 -6.503906 14.328125 -7.472656 14.328125 -8.671875 C 14.328125 -9.859375 13.925781 -10.820312 13.125 -11.5625 C 12.332031 -12.300781 11.3125 -12.671875 10.0625 -12.671875 C 8.8125 -12.671875 7.78125 -12.300781 6.96875 -11.5625 C 6.15625 -10.820312 5.75 -9.859375 5.75 -8.671875 C 5.75 -7.472656 6.15625 -6.503906 6.96875 -5.765625 C 7.78125 -5.035156 8.8125 -4.671875 10.0625 -4.671875 Z M 10.0625 -4.671875 "/></g></g></g><g fill="#ffffff" fill-opacity="1"><g transform="translate(952.36695, 354.780237)"><g><path d="M 2.515625 -21.203125 L 12.15625 -21.203125 C 14.457031 -21.203125 16.488281 -20.765625 18.25 -19.890625 C 20.019531 -19.015625 21.394531 -17.773438 22.375 -16.171875 C 23.351562 -14.578125 23.84375 -12.722656 23.84375 -10.609375 C 23.84375 -8.484375 23.351562 -6.625 22.375 -5.03125 C 21.394531 -3.4375 20.019531 -2.195312 18.25 -1.3125 C 16.488281 -0.4375 14.457031 0 12.15625 0 L 2.515625 0 Z M 11.90625 -4.03125 C 14.03125 -4.03125 15.722656 -4.617188 16.984375 -5.796875 C 18.242188 -6.984375 18.875 -8.585938 18.875 -10.609375 C 18.875 -12.628906 18.242188 -14.226562 16.984375 -15.40625 C 15.722656 -16.582031 14.03125 -17.171875 11.90625 -17.171875 L 7.421875 -17.171875 L 7.421875 -4.03125 Z M 11.90625 -4.03125 "/></g></g></g><g fill="#ffffff" fill-opacity="1"><g transform="translate(977.389009, 354.780237)"><g><path d="M 8.75 -16.546875 C 11.28125 -16.546875 13.222656 -15.941406 14.578125 -14.734375 C 15.929688 -13.535156 16.609375 -11.722656 16.609375 -9.296875 L 16.609375 0 L 12.171875 0 L 12.171875 -2.03125 C 11.285156 -0.507812 9.628906 0.25 7.203125 0.25 C 5.953125 0.25 4.867188 0.0351562 3.953125 -0.390625 C 3.035156 -0.816406 2.332031 -1.398438 1.84375 -2.140625 C 1.363281 -2.890625 1.125 -3.742188 1.125 -4.703125 C 1.125 -6.210938 1.691406 -7.398438 2.828125 -8.265625 C 3.972656 -9.140625 5.738281 -9.578125 8.125 -9.578125 L 11.875 -9.578125 C 11.875 -10.609375 11.5625 -11.398438 10.9375 -11.953125 C 10.3125 -12.503906 9.375 -12.78125 8.125 -12.78125 C 7.25 -12.78125 6.390625 -12.644531 5.546875 -12.375 C 4.710938 -12.101562 4.003906 -11.734375 3.421875 -11.265625 L 1.734375 -14.578125 C 2.617188 -15.203125 3.679688 -15.6875 4.921875 -16.03125 C 6.160156 -16.375 7.4375 -16.546875 8.75 -16.546875 Z M 8.390625 -2.9375 C 9.203125 -2.9375 9.921875 -3.125 10.546875 -3.5 C 11.171875 -3.875 11.613281 -4.425781 11.875 -5.15625 L 11.875 -6.8125 L 8.640625 -6.8125 C 6.691406 -6.8125 5.71875 -6.175781 5.71875 -4.90625 C 5.71875 -4.300781 5.957031 -3.820312 6.4375 -3.46875 C 6.914062 -3.113281 7.566406 -2.9375 8.390625 -2.9375 Z M 8.390625 -2.9375 "/></g></g></g><g fill="#ffffff" fill-opacity="1"><g transform="translate(996.079819, 354.780237)"><g><path d="M 12.6875 -0.78125 C 12.226562 -0.4375 11.660156 -0.175781 10.984375 0 C 10.304688 0.164062 9.59375 0.25 8.84375 0.25 C 6.90625 0.25 5.40625 -0.242188 4.34375 -1.234375 C 3.28125 -2.234375 2.75 -3.691406 2.75 -5.609375 L 2.75 -12.296875 L 0.25 -12.296875 L 0.25 -15.9375 L 2.75 -15.9375 L 2.75 -19.90625 L 7.484375 -19.90625 L 7.484375 -15.9375 L 11.546875 -15.9375 L 11.546875 -12.296875 L 7.484375 -12.296875 L 7.484375 -5.671875 C 7.484375 -4.984375 7.660156 -4.453125 8.015625 -4.078125 C 8.367188 -3.703125 8.867188 -3.515625 9.515625 -3.515625 C 10.265625 -3.515625 10.898438 -3.71875 11.421875 -4.125 Z M 12.6875 -0.78125 "/></g></g></g><g fill="#ffffff" fill-opacity="1"><g transform="translate(1009.25729, 354.780237)"><g><path d="M 8.75 -16.546875 C 11.28125 -16.546875 13.222656 -15.941406 14.578125 -14.734375 C 15.929688 -13.535156 16.609375 -11.722656 16.609375 -9.296875 L 16.609375 0 L 12.171875 0 L 12.171875 -2.03125 C 11.285156 -0.507812 9.628906 0.25 7.203125 0.25 C 5.953125 0.25 4.867188 0.0351562 3.953125 -0.390625 C 3.035156 -0.816406 2.332031 -1.398438 1.84375 -2.140625 C 1.363281 -2.890625 1.125 -3.742188 1.125 -4.703125 C 1.125 -6.210938 1.691406 -7.398438 2.828125 -8.265625 C 3.972656 -9.140625 5.738281 -9.578125 8.125 -9.578125 L 11.875 -9.578125 C 11.875 -10.609375 11.5625 -11.398438 10.9375 -11.953125 C 10.3125 -12.503906 9.375 -12.78125 8.125 -12.78125 C 7.25 -12.78125 6.390625 -12.644531 5.546875 -12.375 C 4.710938 -12.101562 4.003906 -11.734375 3.421875 -11.265625 L 1.734375 -14.578125 C 2.617188 -15.203125 3.679688 -15.6875 4.921875 -16.03125 C 6.160156 -16.375 7.4375 -16.546875 8.75 -16.546875 Z M 8.390625 -2.9375 C 9.203125 -2.9375 9.921875 -3.125 10.546875 -3.5 C 11.171875 -3.875 11.613281 -4.425781 11.875 -5.15625 L 11.875 -6.8125 L 8.640625 -6.8125 C 6.691406 -6.8125 5.71875 -6.175781 5.71875 -4.90625 C 5.71875 -4.300781 5.957031 -3.820312 6.4375 -3.46875 C 6.914062 -3.113281 7.566406 -2.9375 8.390625 -2.9375 Z M 8.390625 -2.9375 "/></g></g></g><g fill="#ffffff" fill-opacity="1"><g transform="translate(1027.952883, 354.780237)"><g/></g></g><g fill="#ffffff" fill-opacity="1"><g transform="translate(914.421639, 396.780235)"><g><path d="M 12.671875 0.359375 C 10.503906 0.359375 8.546875 -0.109375 6.796875 -1.046875 C 5.054688 -1.984375 3.6875 -3.285156 2.6875 -4.953125 C 1.6875 -6.617188 1.1875 -8.503906 1.1875 -10.609375 C 1.1875 -12.703125 1.6875 -14.582031 2.6875 -16.25 C 3.6875 -17.914062 5.054688 -19.21875 6.796875 -20.15625 C 8.546875 -21.101562 10.507812 -21.578125 12.6875 -21.578125 C 14.53125 -21.578125 16.191406 -21.25 17.671875 -20.59375 C 19.160156 -19.945312 20.410156 -19.019531 21.421875 -17.8125 L 18.265625 -14.90625 C 16.835938 -16.5625 15.0625 -17.390625 12.9375 -17.390625 C 11.625 -17.390625 10.453125 -17.097656 9.421875 -16.515625 C 8.390625 -15.941406 7.585938 -15.140625 7.015625 -14.109375 C 6.441406 -13.085938 6.15625 -11.921875 6.15625 -10.609375 C 6.15625 -9.296875 6.441406 -8.125 7.015625 -7.09375 C 7.585938 -6.0625 8.390625 -5.253906 9.421875 -4.671875 C 10.453125 -4.097656 11.625 -3.8125 12.9375 -3.8125 C 15.0625 -3.8125 16.835938 -4.648438 18.265625 -6.328125 L 21.421875 -3.421875 C 20.410156 -2.191406 19.15625 -1.253906 17.65625 -0.609375 C 16.164062 0.0351562 14.503906 0.359375 12.671875 0.359375 Z M 12.671875 0.359375 "/></g></g></g><g fill="#ffffff" fill-opacity="1"><g transform="translate(936.050742, 396.780235)"><g><path d="M 9.9375 0.25 C 8.21875 0.25 6.675781 -0.109375 5.3125 -0.828125 C 3.945312 -1.546875 2.878906 -2.539062 2.109375 -3.8125 C 1.347656 -5.082031 0.96875 -6.53125 0.96875 -8.15625 C 0.96875 -9.769531 1.347656 -11.210938 2.109375 -12.484375 C 2.878906 -13.753906 3.945312 -14.75 5.3125 -15.46875 C 6.675781 -16.1875 8.21875 -16.546875 9.9375 -16.546875 C 11.65625 -16.546875 13.191406 -16.1875 14.546875 -15.46875 C 15.898438 -14.75 16.957031 -13.753906 17.71875 -12.484375 C 18.488281 -11.210938 18.875 -9.769531 18.875 -8.15625 C 18.875 -6.53125 18.488281 -5.082031 17.71875 -3.8125 C 16.957031 -2.539062 15.898438 -1.546875 14.546875 -0.828125 C 13.191406 -0.109375 11.65625 0.25 9.9375 0.25 Z M 9.9375 -3.640625 C 11.144531 -3.640625 12.140625 -4.046875 12.921875 -4.859375 C 13.703125 -5.679688 14.09375 -6.78125 14.09375 -8.15625 C 14.09375 -9.519531 13.703125 -10.613281 12.921875 -11.4375 C 12.140625 -12.257812 11.144531 -12.671875 9.9375 -12.671875 C 8.726562 -12.671875 7.726562 -12.257812 6.9375 -11.4375 C 6.144531 -10.613281 5.75 -9.519531 5.75 -8.15625 C 5.75 -6.78125 6.144531 -5.679688 6.9375 -4.859375 C 7.726562 -4.046875 8.726562 -3.640625 9.9375 -3.640625 Z M 9.9375 -3.640625 "/></g></g></g><g fill="#ffffff" fill-opacity="1"><g transform="translate(955.892691, 396.780235)"><g><path d="M 2.1875 -22.484375 L 6.90625 -22.484375 L 6.90625 0 L 2.1875 0 Z M 2.1875 -22.484375 "/></g></g></g><g fill="#ffffff" fill-opacity="1"><g transform="translate(965.010897, 396.780235)"><g><path d="M 2.1875 -22.484375 L 6.90625 -22.484375 L 6.90625 0 L 2.1875 0 Z M 2.1875 -22.484375 "/></g></g></g><g fill="#ffffff" fill-opacity="1"><g transform="translate(974.129102, 396.780235)"><g><path d="M 18.140625 -8.09375 C 18.140625 -8.03125 18.113281 -7.601562 18.0625 -6.8125 L 5.71875 -6.8125 C 5.945312 -5.800781 6.472656 -5.003906 7.296875 -4.421875 C 8.128906 -3.835938 9.160156 -3.546875 10.390625 -3.546875 C 11.242188 -3.546875 12 -3.671875 12.65625 -3.921875 C 13.3125 -4.171875 13.921875 -4.570312 14.484375 -5.125 L 17 -2.390625 C 15.457031 -0.628906 13.210938 0.25 10.265625 0.25 C 8.429688 0.25 6.804688 -0.109375 5.390625 -0.828125 C 3.972656 -1.546875 2.878906 -2.539062 2.109375 -3.8125 C 1.347656 -5.082031 0.96875 -6.53125 0.96875 -8.15625 C 0.96875 -9.75 1.34375 -11.1875 2.09375 -12.46875 C 2.851562 -13.75 3.894531 -14.75 5.21875 -15.46875 C 6.539062 -16.1875 8.023438 -16.546875 9.671875 -16.546875 C 11.265625 -16.546875 12.707031 -16.203125 14 -15.515625 C 15.289062 -14.828125 16.300781 -13.84375 17.03125 -12.5625 C 17.769531 -11.28125 18.140625 -9.789062 18.140625 -8.09375 Z M 9.6875 -12.96875 C 8.625 -12.96875 7.726562 -12.664062 7 -12.0625 C 6.269531 -11.457031 5.828125 -10.628906 5.671875 -9.578125 L 13.6875 -9.578125 C 13.53125 -10.609375 13.085938 -11.429688 12.359375 -12.046875 C 11.628906 -12.660156 10.738281 -12.96875 9.6875 -12.96875 Z M 9.6875 -12.96875 "/></g></g></g><g fill="#ffffff" fill-opacity="1"><g transform="translate(993.244019, 396.780235)"><g><path d="M 10.0625 0.25 C 8.320312 0.25 6.757812 -0.109375 5.375 -0.828125 C 3.988281 -1.546875 2.90625 -2.539062 2.125 -3.8125 C 1.351562 -5.082031 0.96875 -6.53125 0.96875 -8.15625 C 0.96875 -9.769531 1.351562 -11.210938 2.125 -12.484375 C 2.90625 -13.753906 3.988281 -14.75 5.375 -15.46875 C 6.757812 -16.1875 8.320312 -16.546875 10.0625 -16.546875 C 11.78125 -16.546875 13.28125 -16.1875 14.5625 -15.46875 C 15.84375 -14.75 16.773438 -13.722656 17.359375 -12.390625 L 13.6875 -10.421875 C 12.84375 -11.921875 11.625 -12.671875 10.03125 -12.671875 C 8.800781 -12.671875 7.78125 -12.265625 6.96875 -11.453125 C 6.15625 -10.640625 5.75 -9.539062 5.75 -8.15625 C 5.75 -6.757812 6.15625 -5.65625 6.96875 -4.84375 C 7.78125 -4.039062 8.800781 -3.640625 10.03125 -3.640625 C 11.644531 -3.640625 12.863281 -4.382812 13.6875 -5.875 L 17.359375 -3.875 C 16.773438 -2.582031 15.84375 -1.570312 14.5625 -0.84375 C 13.28125 -0.113281 11.78125 0.25 10.0625 0.25 Z M 10.0625 0.25 "/></g></g></g><g fill="#ffffff" fill-opacity="1"><g transform="translate(1011.38961, 396.780235)"><g><path d="M 12.6875 -0.78125 C 12.226562 -0.4375 11.660156 -0.175781 10.984375 0 C 10.304688 0.164062 9.59375 0.25 8.84375 0.25 C 6.90625 0.25 5.40625 -0.242188 4.34375 -1.234375 C 3.28125 -2.234375 2.75 -3.691406 2.75 -5.609375 L 2.75 -12.296875 L 0.25 -12.296875 L 0.25 -15.9375 L 2.75 -15.9375 L 2.75 -19.90625 L 7.484375 -19.90625 L 7.484375 -15.9375 L 11.546875 -15.9375 L 11.546875 -12.296875 L 7.484375 -12.296875 L 7.484375 -5.671875 C 7.484375 -4.984375 7.660156 -4.453125 8.015625 -4.078125 C 8.367188 -3.703125 8.867188 -3.515625 9.515625 -3.515625 C 10.265625 -3.515625 10.898438 -3.71875 11.421875 -4.125 Z M 12.6875 -0.78125 "/></g></g></g><g fill="#ffffff" fill-opacity="1"><g transform="translate(1024.56708, 396.780235)"><g><path d="M 2.1875 -16.296875 L 6.90625 -16.296875 L 6.90625 0 L 2.1875 0 Z M 4.546875 -18.578125 C 3.679688 -18.578125 2.972656 -18.828125 2.421875 -19.328125 C 1.878906 -19.835938 1.609375 -20.460938 1.609375 -21.203125 C 1.609375 -21.953125 1.878906 -22.578125 2.421875 -23.078125 C 2.972656 -23.585938 3.679688 -23.84375 4.546875 -23.84375 C 5.421875 -23.84375 6.128906 -23.597656 6.671875 -23.109375 C 7.210938 -22.628906 7.484375 -22.023438 7.484375 -21.296875 C 7.484375 -20.503906 7.210938 -19.851562 6.671875 -19.34375 C 6.128906 -18.832031 5.421875 -18.578125 4.546875 -18.578125 Z M 4.546875 -18.578125 "/></g></g></g><g fill="#ffffff" fill-opacity="1"><g transform="translate(1033.685286, 396.780235)"><g><path d="M 9.9375 0.25 C 8.21875 0.25 6.675781 -0.109375 5.3125 -0.828125 C 3.945312 -1.546875 2.878906 -2.539062 2.109375 -3.8125 C 1.347656 -5.082031 0.96875 -6.53125 0.96875 -8.15625 C 0.96875 -9.769531 1.347656 -11.210938 2.109375 -12.484375 C 2.878906 -13.753906 3.945312 -14.75 5.3125 -15.46875 C 6.675781 -16.1875 8.21875 -16.546875 9.9375 -16.546875 C 11.65625 -16.546875 13.191406 -16.1875 14.546875 -15.46875 C 15.898438 -14.75 16.957031 -13.753906 17.71875 -12.484375 C 18.488281 -11.210938 18.875 -9.769531 18.875 -8.15625 C 18.875 -6.53125 18.488281 -5.082031 17.71875 -3.8125 C 16.957031 -2.539062 15.898438 -1.546875 14.546875 -0.828125 C 13.191406 -0.109375 11.65625 0.25 9.9375 0.25 Z M 9.9375 -3.640625 C 11.144531 -3.640625 12.140625 -4.046875 12.921875 -4.859375 C 13.703125 -5.679688 14.09375 -6.78125 14.09375 -8.15625 C 14.09375 -9.519531 13.703125 -10.613281 12.921875 -11.4375 C 12.140625 -12.257812 11.144531 -12.671875 9.9375 -12.671875 C 8.726562 -12.671875 7.726562 -12.257812 6.9375 -11.4375 C 6.144531 -10.613281 5.75 -9.519531 5.75 -8.15625 C 5.75 -6.78125 6.144531 -5.679688 6.9375 -4.859375 C 7.726562 -4.046875 8.726562 -3.640625 9.9375 -3.640625 Z M 9.9375 -3.640625 "/></g></g></g><g fill="#ffffff" fill-opacity="1"><g transform="translate(1053.527235, 396.780235)"><g><path d="M 12.09375 -16.546875 C 14.113281 -16.546875 15.742188 -15.9375 16.984375 -14.71875 C 18.222656 -13.507812 18.84375 -11.710938 18.84375 -9.328125 L 18.84375 0 L 14.125 0 L 14.125 -8.609375 C 14.125 -9.898438 13.835938 -10.863281 13.265625 -11.5 C 12.703125 -12.132812 11.882812 -12.453125 10.8125 -12.453125 C 9.625 -12.453125 8.675781 -12.082031 7.96875 -11.34375 C 7.257812 -10.601562 6.90625 -9.507812 6.90625 -8.0625 L 6.90625 0 L 2.1875 0 L 2.1875 -16.296875 L 6.703125 -16.296875 L 6.703125 -14.390625 C 7.328125 -15.078125 8.101562 -15.609375 9.03125 -15.984375 C 9.957031 -16.359375 10.976562 -16.546875 12.09375 -16.546875 Z M 12.09375 -16.546875 "/></g></g></g><g fill="#ffffff" fill-opacity="1"><g transform="translate(815.59046, 641.922636)"><g><path d="M 21.8125 0 L 21.78125 -12.71875 L 15.546875 -2.234375 L 13.328125 -2.234375 L 7.125 -12.453125 L 7.125 0 L 2.515625 0 L 2.515625 -21.203125 L 6.578125 -21.203125 L 14.515625 -8.03125 L 22.328125 -21.203125 L 26.359375 -21.203125 L 26.421875 0 Z M 21.8125 0 "/></g></g></g><g fill="#ffffff" fill-opacity="1"><g transform="translate(844.520322, 641.922636)"><g><path d="M 9.9375 0.25 C 8.21875 0.25 6.675781 -0.109375 5.3125 -0.828125 C 3.945312 -1.546875 2.878906 -2.539062 2.109375 -3.8125 C 1.347656 -5.082031 0.96875 -6.53125 0.96875 -8.15625 C 0.96875 -9.769531 1.347656 -11.210938 2.109375 -12.484375 C 2.878906 -13.753906 3.945312 -14.75 5.3125 -15.46875 C 6.675781 -16.1875 8.21875 -16.546875 9.9375 -16.546875 C 11.65625 -16.546875 13.191406 -16.1875 14.546875 -15.46875 C 15.898438 -14.75 16.957031 -13.753906 17.71875 -12.484375 C 18.488281 -11.210938 18.875 -9.769531 18.875 -8.15625 C 18.875 -6.53125 18.488281 -5.082031 17.71875 -3.8125 C 16.957031 -2.539062 15.898438 -1.546875 14.546875 -0.828125 C 13.191406 -0.109375 11.65625 0.25 9.9375 0.25 Z M 9.9375 -3.640625 C 11.144531 -3.640625 12.140625 -4.046875 12.921875 -4.859375 C 13.703125 -5.679688 14.09375 -6.78125 14.09375 -8.15625 C 14.09375 -9.519531 13.703125 -10.613281 12.921875 -11.4375 C 12.140625 -12.257812 11.144531 -12.671875 9.9375 -12.671875 C 8.726562 -12.671875 7.726562 -12.257812 6.9375 -11.4375 C 6.144531 -10.613281 5.75 -9.519531 5.75 -8.15625 C 5.75 -6.78125 6.144531 -5.679688 6.9375 -4.859375 C 7.726562 -4.046875 8.726562 -3.640625 9.9375 -3.640625 Z M 9.9375 -3.640625 "/></g></g></g><g fill="#ffffff" fill-opacity="1"><g transform="translate(864.36227, 641.922636)"><g><path d="M 18.78125 -22.484375 L 18.78125 0 L 14.265625 0 L 14.265625 -1.875 C 13.097656 -0.457031 11.40625 0.25 9.1875 0.25 C 7.644531 0.25 6.253906 -0.09375 5.015625 -0.78125 C 3.773438 -1.46875 2.800781 -2.445312 2.09375 -3.71875 C 1.382812 -5 1.03125 -6.476562 1.03125 -8.15625 C 1.03125 -9.832031 1.382812 -11.304688 2.09375 -12.578125 C 2.800781 -13.847656 3.773438 -14.828125 5.015625 -15.515625 C 6.253906 -16.203125 7.644531 -16.546875 9.1875 -16.546875 C 11.257812 -16.546875 12.882812 -15.890625 14.0625 -14.578125 L 14.0625 -22.484375 Z M 10 -3.640625 C 11.1875 -3.640625 12.175781 -4.046875 12.96875 -4.859375 C 13.757812 -5.679688 14.15625 -6.78125 14.15625 -8.15625 C 14.15625 -9.519531 13.757812 -10.613281 12.96875 -11.4375 C 12.175781 -12.257812 11.1875 -12.671875 10 -12.671875 C 8.789062 -12.671875 7.789062 -12.257812 7 -11.4375 C 6.207031 -10.613281 5.8125 -9.519531 5.8125 -8.15625 C 5.8125 -6.78125 6.207031 -5.679688 7 -4.859375 C 7.789062 -4.046875 8.789062 -3.640625 10 -3.640625 Z M 10 -3.640625 "/></g></g></g><g fill="#ffffff" fill-opacity="1"><g transform="translate(885.325053, 641.922636)"><g><path d="M 18.140625 -8.09375 C 18.140625 -8.03125 18.113281 -7.601562 18.0625 -6.8125 L 5.71875 -6.8125 C 5.945312 -5.800781 6.472656 -5.003906 7.296875 -4.421875 C 8.128906 -3.835938 9.160156 -3.546875 10.390625 -3.546875 C 11.242188 -3.546875 12 -3.671875 12.65625 -3.921875 C 13.3125 -4.171875 13.921875 -4.570312 14.484375 -5.125 L 17 -2.390625 C 15.457031 -0.628906 13.210938 0.25 10.265625 0.25 C 8.429688 0.25 6.804688 -0.109375 5.390625 -0.828125 C 3.972656 -1.546875 2.878906 -2.539062 2.109375 -3.8125 C 1.347656 -5.082031 0.96875 -6.53125 0.96875 -8.15625 C 0.96875 -9.75 1.34375 -11.1875 2.09375 -12.46875 C 2.851562 -13.75 3.894531 -14.75 5.21875 -15.46875 C 6.539062 -16.1875 8.023438 -16.546875 9.671875 -16.546875 C 11.265625 -16.546875 12.707031 -16.203125 14 -15.515625 C 15.289062 -14.828125 16.300781 -13.84375 17.03125 -12.5625 C 17.769531 -11.28125 18.140625 -9.789062 18.140625 -8.09375 Z M 9.6875 -12.96875 C 8.625 -12.96875 7.726562 -12.664062 7 -12.0625 C 6.269531 -11.457031 5.828125 -10.628906 5.671875 -9.578125 L 13.6875 -9.578125 C 13.53125 -10.609375 13.085938 -11.429688 12.359375 -12.046875 C 11.628906 -12.660156 10.738281 -12.96875 9.6875 -12.96875 Z M 9.6875 -12.96875 "/></g></g></g><g fill="#ffffff" fill-opacity="1"><g transform="translate(904.43997, 641.922636)"><g><path d="M 2.1875 -22.484375 L 6.90625 -22.484375 L 6.90625 0 L 2.1875 0 Z M 2.1875 -22.484375 "/></g></g></g><g fill="#ffffff" fill-opacity="1"><g transform="translate(913.558175, 641.922636)"><g><path d="M 2.1875 -16.296875 L 6.90625 -16.296875 L 6.90625 0 L 2.1875 0 Z M 4.546875 -18.578125 C 3.679688 -18.578125 2.972656 -18.828125 2.421875 -19.328125 C 1.878906 -19.835938 1.609375 -20.460938 1.609375 -21.203125 C 1.609375 -21.953125 1.878906 -22.578125 2.421875 -23.078125 C 2.972656 -23.585938 3.679688 -23.84375 4.546875 -23.84375 C 5.421875 -23.84375 6.128906 -23.597656 6.671875 -23.109375 C 7.210938 -22.628906 7.484375 -22.023438 7.484375 -21.296875 C 7.484375 -20.503906 7.210938 -19.851562 6.671875 -19.34375 C 6.128906 -18.832031 5.421875 -18.578125 4.546875 -18.578125 Z M 4.546875 -18.578125 "/></g></g></g><g fill="#ffffff" fill-opacity="1"><g transform="translate(922.676381, 641.922636)"><g><path d="M 12.09375 -16.546875 C 14.113281 -16.546875 15.742188 -15.9375 16.984375 -14.71875 C 18.222656 -13.507812 18.84375 -11.710938 18.84375 -9.328125 L 18.84375 0 L 14.125 0 L 14.125 -8.609375 C 14.125 -9.898438 13.835938 -10.863281 13.265625 -11.5 C 12.703125 -12.132812 11.882812 -12.453125 10.8125 -12.453125 C 9.625 -12.453125 8.675781 -12.082031 7.96875 -11.34375 C 7.257812 -10.601562 6.90625 -9.507812 6.90625 -8.0625 L 6.90625 0 L 2.1875 0 L 2.1875 -16.296875 L 6.703125 -16.296875 L 6.703125 -14.390625 C 7.328125 -15.078125 8.101562 -15.609375 9.03125 -15.984375 C 9.957031 -16.359375 10.976562 -16.546875 12.09375 -16.546875 Z M 12.09375 -16.546875 "/></g></g></g><g fill="#ffffff" fill-opacity="1"><g transform="translate(943.790672, 641.922636)"><g><path d="M 19 -16.296875 L 19 -2.734375 C 19 0.253906 18.21875 2.476562 16.65625 3.9375 C 15.101562 5.394531 12.832031 6.125 9.84375 6.125 C 8.269531 6.125 6.773438 5.929688 5.359375 5.546875 C 3.941406 5.160156 2.769531 4.601562 1.84375 3.875 L 3.71875 0.484375 C 4.40625 1.046875 5.273438 1.492188 6.328125 1.828125 C 7.378906 2.160156 8.429688 2.328125 9.484375 2.328125 C 11.117188 2.328125 12.320312 1.957031 13.09375 1.21875 C 13.875 0.488281 14.265625 -0.625 14.265625 -2.125 L 14.265625 -2.8125 C 13.035156 -1.457031 11.320312 -0.78125 9.125 -0.78125 C 7.625 -0.78125 6.253906 -1.109375 5.015625 -1.765625 C 3.773438 -2.421875 2.789062 -3.34375 2.0625 -4.53125 C 1.332031 -5.726562 0.96875 -7.109375 0.96875 -8.671875 C 0.96875 -10.222656 1.332031 -11.59375 2.0625 -12.78125 C 2.789062 -13.976562 3.773438 -14.90625 5.015625 -15.5625 C 6.253906 -16.21875 7.625 -16.546875 9.125 -16.546875 C 11.488281 -16.546875 13.285156 -15.765625 14.515625 -14.203125 L 14.515625 -16.296875 Z M 10.0625 -4.671875 C 11.3125 -4.671875 12.332031 -5.035156 13.125 -5.765625 C 13.925781 -6.503906 14.328125 -7.472656 14.328125 -8.671875 C 14.328125 -9.859375 13.925781 -10.820312 13.125 -11.5625 C 12.332031 -12.300781 11.3125 -12.671875 10.0625 -12.671875 C 8.8125 -12.671875 7.78125 -12.300781 6.96875 -11.5625 C 6.15625 -10.820312 5.75 -9.859375 5.75 -8.671875 C 5.75 -7.472656 6.15625 -6.503906 6.96875 -5.765625 C 7.78125 -5.035156 8.8125 -4.671875 10.0625 -4.671875 Z M 10.0625 -4.671875 "/></g></g></g><g fill="#ffffff" fill-opacity="1"><g transform="translate(525.563699, 641.922636)"><g><path d="M 6.90625 -17.203125 L 0.125 -17.203125 L 0.125 -21.203125 L 18.609375 -21.203125 L 18.609375 -17.203125 L 11.8125 -17.203125 L 11.8125 0 L 6.90625 0 Z M 6.90625 -17.203125 "/></g></g></g><g fill="#ffffff" fill-opacity="1"><g transform="translate(543.921199, 641.922636)"><g><path d="M 6.703125 -14.15625 C 7.265625 -14.9375 8.023438 -15.53125 8.984375 -15.9375 C 9.941406 -16.34375 11.046875 -16.546875 12.296875 -16.546875 L 12.296875 -12.171875 C 11.773438 -12.210938 11.421875 -12.234375 11.234375 -12.234375 C 9.878906 -12.234375 8.816406 -11.851562 8.046875 -11.09375 C 7.285156 -10.34375 6.90625 -9.210938 6.90625 -7.703125 L 6.90625 0 L 2.1875 0 L 2.1875 -16.296875 L 6.703125 -16.296875 Z M 6.703125 -14.15625 "/></g></g></g><g fill="#ffffff" fill-opacity="1"><g transform="translate(556.765395, 641.922636)"><g><path d="M 8.75 -16.546875 C 11.28125 -16.546875 13.222656 -15.941406 14.578125 -14.734375 C 15.929688 -13.535156 16.609375 -11.722656 16.609375 -9.296875 L 16.609375 0 L 12.171875 0 L 12.171875 -2.03125 C 11.285156 -0.507812 9.628906 0.25 7.203125 0.25 C 5.953125 0.25 4.867188 0.0351562 3.953125 -0.390625 C 3.035156 -0.816406 2.332031 -1.398438 1.84375 -2.140625 C 1.363281 -2.890625 1.125 -3.742188 1.125 -4.703125 C 1.125 -6.210938 1.691406 -7.398438 2.828125 -8.265625 C 3.972656 -9.140625 5.738281 -9.578125 8.125 -9.578125 L 11.875 -9.578125 C 11.875 -10.609375 11.5625 -11.398438 10.9375 -11.953125 C 10.3125 -12.503906 9.375 -12.78125 8.125 -12.78125 C 7.25 -12.78125 6.390625 -12.644531 5.546875 -12.375 C 4.710938 -12.101562 4.003906 -11.734375 3.421875 -11.265625 L 1.734375 -14.578125 C 2.617188 -15.203125 3.679688 -15.6875 4.921875 -16.03125 C 6.160156 -16.375 7.4375 -16.546875 8.75 -16.546875 Z M 8.390625 -2.9375 C 9.203125 -2.9375 9.921875 -3.125 10.546875 -3.5 C 11.171875 -3.875 11.613281 -4.425781 11.875 -5.15625 L 11.875 -6.8125 L 8.640625 -6.8125 C 6.691406 -6.8125 5.71875 -6.175781 5.71875 -4.90625 C 5.71875 -4.300781 5.957031 -3.820312 6.4375 -3.46875 C 6.914062 -3.113281 7.566406 -2.9375 8.390625 -2.9375 Z M 8.390625 -2.9375 "/></g></g></g><g fill="#ffffff" fill-opacity="1"><g transform="translate(575.456206, 641.922636)"><g><path d="M 2.1875 -16.296875 L 6.90625 -16.296875 L 6.90625 0 L 2.1875 0 Z M 4.546875 -18.578125 C 3.679688 -18.578125 2.972656 -18.828125 2.421875 -19.328125 C 1.878906 -19.835938 1.609375 -20.460938 1.609375 -21.203125 C 1.609375 -21.953125 1.878906 -22.578125 2.421875 -23.078125 C 2.972656 -23.585938 3.679688 -23.84375 4.546875 -23.84375 C 5.421875 -23.84375 6.128906 -23.597656 6.671875 -23.109375 C 7.210938 -22.628906 7.484375 -22.023438 7.484375 -21.296875 C 7.484375 -20.503906 7.210938 -19.851562 6.671875 -19.34375 C 6.128906 -18.832031 5.421875 -18.578125 4.546875 -18.578125 Z M 4.546875 -18.578125 "/></g></g></g><g fill="#ffffff" fill-opacity="1"><g transform="translate(584.574411, 641.922636)"><g><path d="M 12.09375 -16.546875 C 14.113281 -16.546875 15.742188 -15.9375 16.984375 -14.71875 C 18.222656 -13.507812 18.84375 -11.710938 18.84375 -9.328125 L 18.84375 0 L 14.125 0 L 14.125 -8.609375 C 14.125 -9.898438 13.835938 -10.863281 13.265625 -11.5 C 12.703125 -12.132812 11.882812 -12.453125 10.8125 -12.453125 C 9.625 -12.453125 8.675781 -12.082031 7.96875 -11.34375 C 7.257812 -10.601562 6.90625 -9.507812 6.90625 -8.0625 L 6.90625 0 L 2.1875 0 L 2.1875 -16.296875 L 6.703125 -16.296875 L 6.703125 -14.390625 C 7.328125 -15.078125 8.101562 -15.609375 9.03125 -15.984375 C 9.957031 -16.359375 10.976562 -16.546875 12.09375 -16.546875 Z M 12.09375 -16.546875 "/></g></g></g><g fill="#ffffff" fill-opacity="1"><g transform="translate(605.506901, 641.922636)"><g><path d="M 2.1875 -16.296875 L 6.90625 -16.296875 L 6.90625 0 L 2.1875 0 Z M 4.546875 -18.578125 C 3.679688 -18.578125 2.972656 -18.828125 2.421875 -19.328125 C 1.878906 -19.835938 1.609375 -20.460938 1.609375 -21.203125 C 1.609375 -21.953125 1.878906 -22.578125 2.421875 -23.078125 C 2.972656 -23.585938 3.679688 -23.84375 4.546875 -23.84375 C 5.421875 -23.84375 6.128906 -23.597656 6.671875 -23.109375 C 7.210938 -22.628906 7.484375 -22.023438 7.484375 -21.296875 C 7.484375 -20.503906 7.210938 -19.851562 6.671875 -19.34375 C 6.128906 -18.832031 5.421875 -18.578125 4.546875 -18.578125 Z M 4.546875 -18.578125 "/></g></g></g><g fill="#ffffff" fill-opacity="1"><g transform="translate(614.625107, 641.922636)"><g><path d="M 12.09375 -16.546875 C 14.113281 -16.546875 15.742188 -15.9375 16.984375 -14.71875 C 18.222656 -13.507812 18.84375 -11.710938 18.84375 -9.328125 L 18.84375 0 L 14.125 0 L 14.125 -8.609375 C 14.125 -9.898438 13.835938 -10.863281 13.265625 -11.5 C 12.703125 -12.132812 11.882812 -12.453125 10.8125 -12.453125 C 9.625 -12.453125 8.675781 -12.082031 7.96875 -11.34375 C 7.257812 -10.601562 6.90625 -9.507812 6.90625 -8.0625 L 6.90625 0 L 2.1875 0 L 2.1875 -16.296875 L 6.703125 -16.296875 L 6.703125 -14.390625 C 7.328125 -15.078125 8.101562 -15.609375 9.03125 -15.984375 C 9.957031 -16.359375 10.976562 -16.546875 12.09375 -16.546875 Z M 12.09375 -16.546875 "/></g></g></g><g fill="#ffffff" fill-opacity="1"><g transform="translate(635.739398, 641.922636)"><g><path d="M 19 -16.296875 L 19 -2.734375 C 19 0.253906 18.21875 2.476562 16.65625 3.9375 C 15.101562 5.394531 12.832031 6.125 9.84375 6.125 C 8.269531 6.125 6.773438 5.929688 5.359375 5.546875 C 3.941406 5.160156 2.769531 4.601562 1.84375 3.875 L 3.71875 0.484375 C 4.40625 1.046875 5.273438 1.492188 6.328125 1.828125 C 7.378906 2.160156 8.429688 2.328125 9.484375 2.328125 C 11.117188 2.328125 12.320312 1.957031 13.09375 1.21875 C 13.875 0.488281 14.265625 -0.625 14.265625 -2.125 L 14.265625 -2.8125 C 13.035156 -1.457031 11.320312 -0.78125 9.125 -0.78125 C 7.625 -0.78125 6.253906 -1.109375 5.015625 -1.765625 C 3.773438 -2.421875 2.789062 -3.34375 2.0625 -4.53125 C 1.332031 -5.726562 0.96875 -7.109375 0.96875 -8.671875 C 0.96875 -10.222656 1.332031 -11.59375 2.0625 -12.78125 C 2.789062 -13.976562 3.773438 -14.90625 5.015625 -15.5625 C 6.253906 -16.21875 7.625 -16.546875 9.125 -16.546875 C 11.488281 -16.546875 13.285156 -15.765625 14.515625 -14.203125 L 14.515625 -16.296875 Z M 10.0625 -4.671875 C 11.3125 -4.671875 12.332031 -5.035156 13.125 -5.765625 C 13.925781 -6.503906 14.328125 -7.472656 14.328125 -8.671875 C 14.328125 -9.859375 13.925781 -10.820312 13.125 -11.5625 C 12.332031 -12.300781 11.3125 -12.671875 10.0625 -12.671875 C 8.8125 -12.671875 7.78125 -12.300781 6.96875 -11.5625 C 6.15625 -10.820312 5.75 -9.859375 5.75 -8.671875 C 5.75 -7.472656 6.15625 -6.503906 6.96875 -5.765625 C 7.78125 -5.035156 8.8125 -4.671875 10.0625 -4.671875 Z M 10.0625 -4.671875 "/></g></g></g><g fill="#ffffff" fill-opacity="1"><g transform="translate(334.895233, 375.780236)"><g><path d="M 2.515625 -21.203125 L 12.15625 -21.203125 C 14.457031 -21.203125 16.488281 -20.765625 18.25 -19.890625 C 20.019531 -19.015625 21.394531 -17.773438 22.375 -16.171875 C 23.351562 -14.578125 23.84375 -12.722656 23.84375 -10.609375 C 23.84375 -8.484375 23.351562 -6.625 22.375 -5.03125 C 21.394531 -3.4375 20.019531 -2.195312 18.25 -1.3125 C 16.488281 -0.4375 14.457031 0 12.15625 0 L 2.515625 0 Z M 11.90625 -4.03125 C 14.03125 -4.03125 15.722656 -4.617188 16.984375 -5.796875 C 18.242188 -6.984375 18.875 -8.585938 18.875 -10.609375 C 18.875 -12.628906 18.242188 -14.226562 16.984375 -15.40625 C 15.722656 -16.582031 14.03125 -17.171875 11.90625 -17.171875 L 7.421875 -17.171875 L 7.421875 -4.03125 Z M 11.90625 -4.03125 "/></g></g></g><g fill="#ffffff" fill-opacity="1"><g transform="translate(359.917292, 375.780236)"><g><path d="M 18.140625 -8.09375 C 18.140625 -8.03125 18.113281 -7.601562 18.0625 -6.8125 L 5.71875 -6.8125 C 5.945312 -5.800781 6.472656 -5.003906 7.296875 -4.421875 C 8.128906 -3.835938 9.160156 -3.546875 10.390625 -3.546875 C 11.242188 -3.546875 12 -3.671875 12.65625 -3.921875 C 13.3125 -4.171875 13.921875 -4.570312 14.484375 -5.125 L 17 -2.390625 C 15.457031 -0.628906 13.210938 0.25 10.265625 0.25 C 8.429688 0.25 6.804688 -0.109375 5.390625 -0.828125 C 3.972656 -1.546875 2.878906 -2.539062 2.109375 -3.8125 C 1.347656 -5.082031 0.96875 -6.53125 0.96875 -8.15625 C 0.96875 -9.75 1.34375 -11.1875 2.09375 -12.46875 C 2.851562 -13.75 3.894531 -14.75 5.21875 -15.46875 C 6.539062 -16.1875 8.023438 -16.546875 9.671875 -16.546875 C 11.265625 -16.546875 12.707031 -16.203125 14 -15.515625 C 15.289062 -14.828125 16.300781 -13.84375 17.03125 -12.5625 C 17.769531 -11.28125 18.140625 -9.789062 18.140625 -8.09375 Z M 9.6875 -12.96875 C 8.625 -12.96875 7.726562 -12.664062 7 -12.0625 C 6.269531 -11.457031 5.828125 -10.628906 5.671875 -9.578125 L 13.6875 -9.578125 C 13.53125 -10.609375 13.085938 -11.429688 12.359375 -12.046875 C 11.628906 -12.660156 10.738281 -12.96875 9.6875 -12.96875 Z M 9.6875 -12.96875 "/></g></g></g><g fill="#ffffff" fill-opacity="1"><g transform="translate(379.032209, 375.780236)"><g><path d="M 11.8125 -16.546875 C 13.332031 -16.546875 14.710938 -16.195312 15.953125 -15.5 C 17.191406 -14.800781 18.164062 -13.820312 18.875 -12.5625 C 19.582031 -11.300781 19.9375 -9.832031 19.9375 -8.15625 C 19.9375 -6.476562 19.582031 -5.003906 18.875 -3.734375 C 18.164062 -2.472656 17.191406 -1.492188 15.953125 -0.796875 C 14.710938 -0.0976562 13.332031 0.25 11.8125 0.25 C 9.726562 0.25 8.09375 -0.410156 6.90625 -1.734375 L 6.90625 5.875 L 2.1875 5.875 L 2.1875 -16.296875 L 6.703125 -16.296875 L 6.703125 -14.421875 C 7.867188 -15.835938 9.570312 -16.546875 11.8125 -16.546875 Z M 11 -3.640625 C 12.207031 -3.640625 13.195312 -4.046875 13.96875 -4.859375 C 14.75 -5.679688 15.140625 -6.78125 15.140625 -8.15625 C 15.140625 -9.519531 14.75 -10.613281 13.96875 -11.4375 C 13.195312 -12.257812 12.207031 -12.671875 11 -12.671875 C 9.789062 -12.671875 8.796875 -12.257812 8.015625 -11.4375 C 7.234375 -10.613281 6.84375 -9.519531 6.84375 -8.15625 C 6.84375 -6.78125 7.234375 -5.679688 8.015625 -4.859375 C 8.796875 -4.046875 9.789062 -3.640625 11 -3.640625 Z M 11 -3.640625 "/></g></g></g><g fill="#ffffff" fill-opacity="1"><g transform="translate(399.934406, 375.780236)"><g><path d="M 2.1875 -22.484375 L 6.90625 -22.484375 L 6.90625 0 L 2.1875 0 Z M 2.1875 -22.484375 "/></g></g></g><g fill="#ffffff" fill-opacity="1"><g transform="translate(409.052612, 375.780236)"><g><path d="M 9.9375 0.25 C 8.21875 0.25 6.675781 -0.109375 5.3125 -0.828125 C 3.945312 -1.546875 2.878906 -2.539062 2.109375 -3.8125 C 1.347656 -5.082031 0.96875 -6.53125 0.96875 -8.15625 C 0.96875 -9.769531 1.347656 -11.210938 2.109375 -12.484375 C 2.878906 -13.753906 3.945312 -14.75 5.3125 -15.46875 C 6.675781 -16.1875 8.21875 -16.546875 9.9375 -16.546875 C 11.65625 -16.546875 13.191406 -16.1875 14.546875 -15.46875 C 15.898438 -14.75 16.957031 -13.753906 17.71875 -12.484375 C 18.488281 -11.210938 18.875 -9.769531 18.875 -8.15625 C 18.875 -6.53125 18.488281 -5.082031 17.71875 -3.8125 C 16.957031 -2.539062 15.898438 -1.546875 14.546875 -0.828125 C 13.191406 -0.109375 11.65625 0.25 9.9375 0.25 Z M 9.9375 -3.640625 C 11.144531 -3.640625 12.140625 -4.046875 12.921875 -4.859375 C 13.703125 -5.679688 14.09375 -6.78125 14.09375 -8.15625 C 14.09375 -9.519531 13.703125 -10.613281 12.921875 -11.4375 C 12.140625 -12.257812 11.144531 -12.671875 9.9375 -12.671875 C 8.726562 -12.671875 7.726562 -12.257812 6.9375 -11.4375 C 6.144531 -10.613281 5.75 -9.519531 5.75 -8.15625 C 5.75 -6.78125 6.144531 -5.679688 6.9375 -4.859375 C 7.726562 -4.046875 8.726562 -3.640625 9.9375 -3.640625 Z M 9.9375 -3.640625 "/></g></g></g><g fill="#ffffff" fill-opacity="1"><g transform="translate(428.440058, 375.780236)"><g><path d="M 18.359375 -16.296875 L 11 1 C 10.25 2.875 9.320312 4.195312 8.21875 4.96875 C 7.125 5.738281 5.796875 6.125 4.234375 6.125 C 3.390625 6.125 2.550781 5.988281 1.71875 5.71875 C 0.894531 5.457031 0.222656 5.097656 -0.296875 4.640625 L 1.421875 1.265625 C 1.785156 1.585938 2.203125 1.835938 2.671875 2.015625 C 3.148438 2.203125 3.625 2.296875 4.09375 2.296875 C 4.738281 2.296875 5.257812 2.140625 5.65625 1.828125 C 6.0625 1.515625 6.425781 0.992188 6.75 0.265625 L 6.8125 0.125 L -0.25 -16.296875 L 4.640625 -16.296875 L 9.203125 -5.234375 L 13.8125 -16.296875 Z M 18.359375 -16.296875 "/></g></g></g><g fill="#ffffff" fill-opacity="1"><g transform="translate(446.555299, 375.780236)"><g><path d="M 23.0625 -16.546875 C 25.09375 -16.546875 26.707031 -15.941406 27.90625 -14.734375 C 29.113281 -13.535156 29.71875 -11.734375 29.71875 -9.328125 L 29.71875 0 L 25 0 L 25 -8.609375 C 25 -9.898438 24.726562 -10.863281 24.1875 -11.5 C 23.65625 -12.132812 22.894531 -12.453125 21.90625 -12.453125 C 20.789062 -12.453125 19.910156 -12.09375 19.265625 -11.375 C 18.617188 -10.65625 18.296875 -9.59375 18.296875 -8.1875 L 18.296875 0 L 13.578125 0 L 13.578125 -8.609375 C 13.578125 -11.171875 12.546875 -12.453125 10.484375 -12.453125 C 9.390625 -12.453125 8.519531 -12.09375 7.875 -11.375 C 7.226562 -10.65625 6.90625 -9.59375 6.90625 -8.1875 L 6.90625 0 L 2.1875 0 L 2.1875 -16.296875 L 6.703125 -16.296875 L 6.703125 -14.421875 C 7.304688 -15.109375 8.046875 -15.632812 8.921875 -16 C 9.796875 -16.363281 10.757812 -16.546875 11.8125 -16.546875 C 12.96875 -16.546875 14.007812 -16.316406 14.9375 -15.859375 C 15.863281 -15.398438 16.609375 -14.738281 17.171875 -13.875 C 17.835938 -14.71875 18.679688 -15.375 19.703125 -15.84375 C 20.722656 -16.3125 21.84375 -16.546875 23.0625 -16.546875 Z M 23.0625 -16.546875 "/></g></g></g><g fill="#ffffff" fill-opacity="1"><g transform="translate(478.514503, 375.780236)"><g><path d="M 18.140625 -8.09375 C 18.140625 -8.03125 18.113281 -7.601562 18.0625 -6.8125 L 5.71875 -6.8125 C 5.945312 -5.800781 6.472656 -5.003906 7.296875 -4.421875 C 8.128906 -3.835938 9.160156 -3.546875 10.390625 -3.546875 C 11.242188 -3.546875 12 -3.671875 12.65625 -3.921875 C 13.3125 -4.171875 13.921875 -4.570312 14.484375 -5.125 L 17 -2.390625 C 15.457031 -0.628906 13.210938 0.25 10.265625 0.25 C 8.429688 0.25 6.804688 -0.109375 5.390625 -0.828125 C 3.972656 -1.546875 2.878906 -2.539062 2.109375 -3.8125 C 1.347656 -5.082031 0.96875 -6.53125 0.96875 -8.15625 C 0.96875 -9.75 1.34375 -11.1875 2.09375 -12.46875 C 2.851562 -13.75 3.894531 -14.75 5.21875 -15.46875 C 6.539062 -16.1875 8.023438 -16.546875 9.671875 -16.546875 C 11.265625 -16.546875 12.707031 -16.203125 14 -15.515625 C 15.289062 -14.828125 16.300781 -13.84375 17.03125 -12.5625 C 17.769531 -11.28125 18.140625 -9.789062 18.140625 -8.09375 Z M 9.6875 -12.96875 C 8.625 -12.96875 7.726562 -12.664062 7 -12.0625 C 6.269531 -11.457031 5.828125 -10.628906 5.671875 -9.578125 L 13.6875 -9.578125 C 13.53125 -10.609375 13.085938 -11.429688 12.359375 -12.046875 C 11.628906 -12.660156 10.738281 -12.96875 9.6875 -12.96875 Z M 9.6875 -12.96875 "/></g></g></g><g fill="#ffffff" fill-opacity="1"><g transform="translate(497.62942, 375.780236)"><g><path d="M 12.09375 -16.546875 C 14.113281 -16.546875 15.742188 -15.9375 16.984375 -14.71875 C 18.222656 -13.507812 18.84375 -11.710938 18.84375 -9.328125 L 18.84375 0 L 14.125 0 L 14.125 -8.609375 C 14.125 -9.898438 13.835938 -10.863281 13.265625 -11.5 C 12.703125 -12.132812 11.882812 -12.453125 10.8125 -12.453125 C 9.625 -12.453125 8.675781 -12.082031 7.96875 -11.34375 C 7.257812 -10.601562 6.90625 -9.507812 6.90625 -8.0625 L 6.90625 0 L 2.1875 0 L 2.1875 -16.296875 L 6.703125 -16.296875 L 6.703125 -14.390625 C 7.328125 -15.078125 8.101562 -15.609375 9.03125 -15.984375 C 9.957031 -16.359375 10.976562 -16.546875 12.09375 -16.546875 Z M 12.09375 -16.546875 "/></g></g></g><g fill="#ffffff" fill-opacity="1"><g transform="translate(518.56191, 375.780236)"><g><path d="M 12.6875 -0.78125 C 12.226562 -0.4375 11.660156 -0.175781 10.984375 0 C 10.304688 0.164062 9.59375 0.25 8.84375 0.25 C 6.90625 0.25 5.40625 -0.242188 4.34375 -1.234375 C 3.28125 -2.234375 2.75 -3.691406 2.75 -5.609375 L 2.75 -12.296875 L 0.25 -12.296875 L 0.25 -15.9375 L 2.75 -15.9375 L 2.75 -19.90625 L 7.484375 -19.90625 L 7.484375 -15.9375 L 11.546875 -15.9375 L 11.546875 -12.296875 L 7.484375 -12.296875 L 7.484375 -5.671875 C 7.484375 -4.984375 7.660156 -4.453125 8.015625 -4.078125 C 8.367188 -3.703125 8.867188 -3.515625 9.515625 -3.515625 C 10.265625 -3.515625 10.898438 -3.71875 11.421875 -4.125 Z M 12.6875 -0.78125 "/></g></g></g></svg>