<svg xmlns="http://www.w3.org/2000/svg" width="100" height="100" fill="none"><path fill="url(#a)" d="M7.26 34.9c-5.902 6.377-4.453 18.306 3.209 26.636s18.74 9.873 24.642 3.497c5.901-6.376 4.452-18.306-3.21-26.636S13.264 28.524 7.259 34.9m5.383 2.674c4.66-5.039 13.253-3.908 19.154 2.468 5.902 6.377 6.937 15.633 2.278 20.672s-13.253 3.908-19.154-2.468c-5.902-6.377-6.937-15.632-2.278-20.672"/><path fill="#FF7F2A" d="M29.83 37.266h3.21c.517 0 .828.411.828.823v3.188c0 .514-.414.822-.828.822h-3.21a.814.814 0 0 1-.828-.822v-3.188c-.104-.515.31-.823.828-.823"/><path fill="#D45500" fill-rule="evenodd" d="M29.443 37.766c-.052.048-.09.117-.063.248l.007.037v3.226c0 .232.17.44.443.44h3.21a.43.43 0 0 0 .443-.44v-3.188a.43.43 0 0 0-.443-.44h-3.21c-.188 0-.32.056-.387.117m-.52-.564c.243-.221.578-.319.907-.319h3.21c.761 0 1.213.615 1.213 1.206v3.188c0 .756-.618 1.205-1.213 1.205h-3.21c-.761 0-1.213-.615-1.213-1.205v-3.154a.99.99 0 0 1 .306-.92" clip-rule="evenodd"/><path fill="#FF7F2A" d="M3.118 43.745h7.558a2.07 2.07 0 0 1 2.07 2.057v7.507a2.07 2.07 0 0 1-2.07 2.057H3.118a2.07 2.07 0 0 1-2.071-2.057v-7.507c0-1.132.828-2.057 2.07-2.057"/><path fill="#D45500" fill-rule="evenodd" d="M3.118 44.127c-1.017 0-1.686.742-1.686 1.675v7.507c0 .92.76 1.674 1.686 1.674h7.558c.926 0 1.685-.754 1.685-1.674v-7.507c0-.92-.759-1.675-1.685-1.675zM.662 45.802c0-1.33.988-2.44 2.456-2.44h7.558a2.454 2.454 0 0 1 2.456 2.44v7.507a2.454 2.454 0 0 1-2.456 2.44H3.118a2.454 2.454 0 0 1-2.456-2.44z" clip-rule="evenodd"/><path fill="#FF7F2A" d="M32.419 58.965h4.555c.725 0 1.243.515 1.243 1.234v4.526c0 .72-.518 1.234-1.243 1.234H32.42c-.725 0-1.243-.515-1.243-1.234V60.2c0-.72.621-1.235 1.243-1.235"/><path fill="#D45500" fill-rule="evenodd" d="M32.419 59.348c-.43 0-.858.363-.858.852v4.525c0 .508.346.851.858.851h4.555c.512 0 .858-.343.858-.851V60.2c0-.51-.346-.852-.858-.852zm-1.628.852c0-.952.815-1.617 1.628-1.617h4.555c.938 0 1.628.685 1.628 1.617v4.525c0 .93-.69 1.616-1.628 1.616H32.42c-.938 0-1.628-.685-1.628-1.616z" clip-rule="evenodd"/><path fill="#0C94C2" d="M55.647 49.19q0 2.794-1.396 4.308c-.931.998-2.267 1.51-4.006 1.51s-3.075-.5-4.006-1.51c-.93-.997-1.396-2.445-1.396-4.32 0-1.873.465-3.309 1.396-4.294.931-.986 2.279-1.485 4.018-1.485q2.61 0 4.006 1.497c.919.997 1.384 2.433 1.384 4.295m-8.28 0c0 1.266.244 2.203.722 2.848.478.633 1.2.961 2.156.961 1.923 0 2.879-1.265 2.879-3.796 0-2.543-.956-3.809-2.867-3.809-.955 0-1.678.317-2.168.962s-.723 1.582-.723 2.835M61.331 55.007c-2.707 0-4.055-1.472-4.055-4.417q0-2.19 1.103-3.358c.735-.779 1.788-1.156 3.16-1.156 1.005 0 1.9.195 2.708.584l-.699 1.825a14 14 0 0 0-1.04-.365 3.3 3.3 0 0 0-.969-.146c-1.237 0-1.85.864-1.85 2.604 0 1.691.613 2.53 1.85 2.53.454 0 .883-.06 1.262-.182a4.3 4.3 0 0 0 1.164-.572v2.008c-.38.243-.772.414-1.164.5q-.57.145-1.47.145M69.637 53.133c.416 0 .906-.085 1.494-.268v1.74c-.588.268-1.31.39-2.168.39-.943 0-1.642-.243-2.07-.718-.43-.474-.65-1.193-.65-2.142v-4.16h-1.139v-.999l1.31-.766.687-1.825h1.519v1.837h2.425v1.764H68.62v4.162c0 .328.098.584.282.742s.428.243.735.243M78.395 54.849l-.453-1.168h-.061c-.404.499-.809.84-1.225 1.034q-.625.292-1.654.292c-.833 0-1.494-.231-1.972-.706-.478-.474-.723-1.143-.723-2.02 0-.912.319-1.593.968-2.02.65-.437 1.617-.669 2.915-.717l1.507-.049v-.377c0-.876-.453-1.314-1.347-1.314-.699 0-1.507.207-2.45.62l-.784-1.594c1.004-.523 2.107-.778 3.32-.778 1.163 0 2.057.255 2.682.754s.931 1.265.931 2.3v5.743zm-.698-3.991-.919.036c-.686.025-1.2.146-1.53.365-.332.232-.503.572-.503 1.035 0 .657.38.997 1.151.997.552 0 .993-.158 1.311-.474.33-.316.49-.73.49-1.253zM84.557 54.849l-3.307-8.615h2.474l1.678 4.916c.184.62.307 1.205.356 1.764h.049c.024-.499.147-1.083.355-1.764l1.666-4.916h2.474l-3.307 8.615zM95.46 55.007c-1.397 0-2.487-.377-3.271-1.144q-1.176-1.15-1.176-3.248c0-1.449.367-2.556 1.09-3.347s1.727-1.18 3.014-1.18c1.225 0 2.18.353 2.866 1.047.686.693 1.03 1.654 1.03 2.871v1.144h-5.6c.025.67.221 1.192.601 1.57.368.377.894.56 1.568.56.527 0 1.017-.05 1.482-.159.466-.11.956-.28 1.458-.511v1.825a6 6 0 0 1-1.323.463c-.49.06-1.066.11-1.74.11m-.331-7.264q-.753 0-1.176.474c-.282.317-.453.767-.49 1.351h3.32c-.013-.584-.16-1.034-.454-1.35-.306-.317-.698-.475-1.2-.475"/><defs><radialGradient id="a" cx="0" cy="0" r="1" gradientTransform="rotate(-47.188 79.223 17.513)scale(484.43 1611.2)" gradientUnits="userSpaceOnUse"><stop stop-color="#008CBE"/><stop offset="1" stop-color="#B2FFFF"/></radialGradient></defs></svg>