<svg xmlns="http://www.w3.org/2000/svg" width="100" height="100" fill="none"><path fill="#B0B1B5" d="M49.978 13C22.94 13 1 27.647 1 45.78c0 18.132 21.94 32.779 48.978 32.779 27.037 0 48.978-14.647 48.978-32.78C98.956 27.647 77.06 13 49.978 13m6.648 57.53c-19.99 0-36.212-9.971-36.212-22.28s16.222-22.28 36.212-22.28 36.213 6 36.213 22.28-16.178 22.28-36.213 22.28"/><path fill="#1F65B8" d="M83.62 68.5c-1.02-1.853-4.832-4.147-7.801-4.588 9.263-2.47 14.228-6.662 14.228-16.632S79.63 33.735 74.223 33.735H41.379V88h16.444V66.735h4.699c2.57 0 3.457 1.81 13.784 21.265h18.616S84.64 70.353 83.62 68.5M68.727 54.338H57.912v-8.956h10.815c2.305 0 4.122 1.853 4.122 4.456s-1.817 4.5-4.122 4.5"/></svg>