<svg xmlns="http://www.w3.org/2000/svg" width="100" height="100" fill="none"><path fill="#0BBCD4" d="M36.673 53.967V47.84l-2.623 6.805a.605.605 0 0 1-.554.38.605.605 0 0 1-.556-.38l-2.622-6.805v6.127c0 .565-.444 1.059-1.013 1.059a1.07 1.07 0 0 1-1.054-1.059v-7.285c0-.946.763-1.708 1.679-1.708.721 0 1.332.452 1.581 1.101l1.97 5.14 1.999-5.14a1.66 1.66 0 0 1 1.554-1.1c.943 0 1.693.776 1.693 1.707v7.271a1.06 1.06 0 0 1-1.055 1.059c-.541 0-1-.48-1-1.045M51.02 53.953c0 .593-.472 1.073-1.055 1.073-.444 0-.832-.297-.97-.706l-.39-1.144H44.25l-.389 1.144c-.125.41-.54.706-.985.706a1.055 1.055 0 0 1-1.054-1.073c0-.127.027-.268.083-.367l2.83-7.426a1.808 1.808 0 0 1 3.386 0l2.817 7.426c.027.113.083.226.083.367m-3.067-2.612-1.526-4.447-1.54 4.447zM60.732 53.967v-3.176h-4.565v3.19c0 .565-.444 1.059-1.012 1.059a1.07 1.07 0 0 1-1.055-1.059V46.02c0-.579.458-1.059 1.04-1.059.584 0 1.041.466 1.041 1.059v2.922h4.565V46.02c0-.579.458-1.059 1.055-1.059.569 0 1.04.466 1.04 1.059v7.934a1.06 1.06 0 0 1-1.054 1.059c-.597 0-1.055-.48-1.055-1.045M71.083 44.904c2.928 0 5.065 2.117 5.065 5.096 0 2.965-2.137 5.096-5.065 5.096-2.913 0-5.05-2.117-5.05-5.096.014-2.965 2.136-5.096 5.05-5.096m0 1.863c-1.79 0-2.927 1.398-2.927 3.233 0 1.821 1.137 3.233 2.927 3.233S74.04 51.835 74.04 50c-.014-1.835-1.166-3.233-2.956-3.233M79.408 46.033a1.055 1.055 0 1 1 2.11 0v4.885c0 1.37.735 2.315 2.247 2.315 1.485 0 2.22-.946 2.22-2.315v-4.885a1.055 1.055 0 1 1 2.11 0v4.941c0 2.457-1.374 4.123-4.316 4.123-2.955 0-4.343-1.68-4.343-4.109v-4.955zM94.005 53.967v-7.059h-2.012a.92.92 0 0 1-.916-.917c0-.523.416-.932.916-.932h6.105c.5 0 .916.41.916.932a.92.92 0 0 1-.916.917h-2.012v7.06c0 .564-.458 1.058-1.04 1.058a1.076 1.076 0 0 1-1.041-1.059M10.31 57.779v-2.485c-.971-.183-1.706-1.059-1.706-2.09 0-.423.124-.832.346-1.171l-2.053-1.539-2.04 1.539c.222.339.347.734.347 1.172s-.125.847-.36 1.172l4.648 3.726c.25-.155.527-.282.818-.324m.777 0c.292.056.57.17.805.353l4.648-3.727a2.15 2.15 0 0 1-.347-1.172c0-.424.125-.847.347-1.172l-2.026-1.553-2.067 1.525c.222.339.347.734.347 1.172a2.11 2.11 0 0 1-1.707 2.09zm1.346.917c.222.34.347.749.347 1.172 0 1.172-.944 2.132-2.095 2.132s-2.095-.96-2.095-2.132c0-.437.125-.833.36-1.172L4.302 54.97c-.347.24-.749.382-1.193.382-1.152 0-2.095-.96-2.095-2.132 0-1.045.735-1.906 1.707-2.09V48.9A2.14 2.14 0 0 1 1 46.795c0-1.172.944-2.132 2.095-2.132.444 0 .847.142 1.193.382l4.649-3.727a2.3 2.3 0 0 1-.347-1.186C8.604 38.96 9.547 38 10.699 38c1.151 0 2.095.96 2.095 2.132 0 .437-.125.833-.347 1.172l4.648 3.74c.347-.24.75-.38 1.193-.38 1.152 0 2.096.96 2.096 2.131a2.11 2.11 0 0 1-1.707 2.09V51.1c.971.184 1.707 1.059 1.707 2.09 0 1.171-.944 2.131-2.096 2.131-.444 0-.846-.14-1.193-.38zm-8.13-7.242L6.23 50l-1.929-1.454c-.236.17-.513.296-.818.353v2.216c.305.043.582.17.818.34m.554-3.487 2.04 1.539 2.04-1.539a2.27 2.27 0 0 1-.347-1.172c0-1.044.735-1.906 1.706-2.09v-2.484a1.9 1.9 0 0 1-.804-.353L4.857 45.61c.208.353.347.749.347 1.186a2.3 2.3 0 0 1-.347 1.172m12.238 3.487c.236-.17.514-.296.819-.353V48.9a1.86 1.86 0 0 1-.819-.353L15.167 50zm-.541-5.83-4.648-3.727a2.1 2.1 0 0 1-.805.352v2.485c.971.184 1.707 1.059 1.707 2.09 0 .423-.125.847-.347 1.171l2.026 1.525 2.053-1.553a2.1 2.1 0 0 1-.347-1.172 2.24 2.24 0 0 1 .361-1.172m-7.062 5.83c.346-.24.763-.381 1.207-.381s.86.141 1.207.381L13.834 50l-1.928-1.454c-.347.24-.763.381-1.207.381s-.86-.141-1.207-.381L7.562 50zm1.207-3.318c.721 0 1.304-.607 1.304-1.327s-.597-1.327-1.304-1.327c-.722 0-1.305.607-1.305 1.327s.583 1.328 1.305 1.328m0 6.396c.721 0 1.304-.607 1.304-1.327 0-.734-.597-1.327-1.304-1.327-.722 0-1.305.607-1.305 1.327a1.306 1.306 0 0 0 1.305 1.327m7.603-6.395c.722 0 1.305-.608 1.305-1.328s-.597-1.327-1.305-1.327c-.721 0-1.304.607-1.304 1.327s.583 1.328 1.304 1.328m0 6.395c.722 0 1.305-.607 1.305-1.327 0-.734-.597-1.327-1.305-1.327-.721 0-1.304.607-1.304 1.327a1.306 1.306 0 0 0 1.304 1.327M3.095 48.137c.722 0 1.304-.608 1.304-1.328s-.596-1.327-1.304-1.327c-.707 0-1.304.607-1.304 1.327s.583 1.328 1.304 1.328m0 6.395c.722 0 1.304-.607 1.304-1.327 0-.734-.596-1.327-1.304-1.327-.707 0-1.304.607-1.304 1.327 0 .734.583 1.327 1.304 1.327m7.604 6.663c.721 0 1.304-.607 1.304-1.327s-.597-1.327-1.304-1.327c-.722 0-1.305.607-1.305 1.327s.583 1.327 1.305 1.327m0-19.722c.721 0 1.304-.607 1.304-1.327s-.597-1.327-1.304-1.327c-.722 0-1.305.607-1.305 1.327s.583 1.327 1.305 1.327"/></svg>