<svg xmlns="http://www.w3.org/2000/svg" width="100" height="100" fill="none"><path fill="#C20000" d="M27.307 40.199c.097 1.432.207 2.872.28 4.295 0 .27.274.722-.248.796-.521.074-.444-.41-.537-.681a18 18 0 0 0-1.63-3.692c-3.91-6.367-13.394-6.277-16.864.344a20.044 20.044 0 0 0-.7 17.71c2.806 6.585 11.95 8.206 17.108 3.237a23.5 23.5 0 0 0 2.558-2.966c.171-.233.314-.664.745-.377.432.287.106.562-.036.82-2.717 5.182-8.383 7.852-14.131 7.225C5.64 66 .047 58.328 1.134 49.15c.864-7.29 5.296-12.434 11.968-14.026a13.67 13.67 0 0 1 9.695 1.23c1.898.973 2.363.821 3.284-1.12.122-.258.163-.561.553-.504.392.058.322.41.339.669.122 1.608.228 3.204.334 4.8M59.707 55.03c0 2.338-.061 4.676 0 7.01.086 2.597.97 3.393 3.56 3.418h.734c.244 0 .346.156.346.41s-.13.36-.37.369H53.103c-.326 0-.937.304-.916-.41 0-.575.553-.324.871-.361 1.899-.222 2.852-1.08 2.88-3 .086-4.959.057-9.919.094-14.883 0-.615-.24-.771-.815-.75-.815.032-1.63 0-2.444 0-.546.02-.79-.111-.815-.735-.024-.623.228-.82.844-.82 1.01.028 2.269.324 2.965-.164.697-.489.163-1.826.269-2.794.615-5.038 4.029-8.406 8.603-8.32a6.6 6.6 0 0 1 2.555.519c.81.34 1.545.84 2.162 1.467.664.664 1.072 1.472.652 2.461-.562 1.3-1.943 1.596-2.986.583a19 19 0 0 1-1.597-2.01c-.88-1.125-1.935-1.736-3.393-1.379s-1.992 1.547-2.167 2.93c-.252 1.997-.143 4.011-.216 6.018-.024.648.269.734.815.721 1.14-.028 2.281 0 3.422 0 .545 0 1.136-.18 1.112.788 0 .89-.554.726-1.06.73-1.059 0-2.122.054-3.173 0-.814-.053-1.132.18-1.108 1.071.061 2.376.02 4.755.02 7.134z"/><path fill="#C20000" d="M70.461 54.951c0-2.38-.024-4.754 0-7.134 0-.722-.147-1.058-.937-.989s-1.548 0-2.317.025c-.563.029-.815-.14-.783-.75 0-.546.098-.821.73-.797 1.05.03 2.403.35 3.07-.176.669-.525.164-1.99.302-3.036.656-4.923 4.033-8.184 8.555-8.086a6.5 6.5 0 0 1 2.612.541 6.6 6.6 0 0 1 2.182 1.543c.689.735 1.023 1.6.444 2.573-.688 1.144-1.886 1.316-2.88.348a17 17 0 0 1-1.52-1.916c-.883-1.156-1.95-1.825-3.47-1.431s-1.984 1.555-2.155 2.937c-.252 1.998-.138 4.012-.216 6.018-.024.665.298.718.815.706 1.222-.025 2.444.02 3.666 0 .62-.02.86.144.852.82-.008.677-.294.739-.815.727-1.222-.025-2.444.02-3.666 0-.636-.02-.848.184-.843.82.036 4.796 0 9.596.077 14.391.045 2.593.965 3.377 3.568 3.405h.734c.244 0 .334.173.33.41-.005.239-.151.353-.383.358H67.54c-.314 0-.844.238-.9-.3-.074-.69.533-.41.88-.468 1.89-.221 2.81-1.083 2.85-3.01.082-2.5 0-5.002 0-7.5zM49.963 62.38c-.31.276-.61.546-.912.821-.465.41-.925.862-1.63.616-.79-.288-.668-1.034-.753-1.662-.02-.16 0-.328 0-.492-.155-4.053.11-8.11-.155-12.164-.138-2.08-1.222-3.438-3.132-4.102a10.9 10.9 0 0 0-4.933-.493c-2.037.247-3.874.923-5.19 2.618-.762.98-1.157 2.08-.815 3.327.106.407.349.765.688 1.011a1.79 1.79 0 0 0 2.285-.146c.305-.288.501-.673.555-1.09q.096-.862.061-1.728a2.47 2.47 0 0 1 .376-1.405c.263-.42.646-.75 1.099-.946a3.574 3.574 0 0 1 4.475.87c.352.426.602.93.73 1.469.155.632.167 1.3.29 1.94.228 1.198-.212 1.76-1.398 2.203-2.92 1.091-5.906 2.133-8.26 4.337a5.707 5.707 0 0 0-.652 7.573c1.674 2.104 4.64 2.408 7.136.705 1.007-.685 1.972-1.427 3.1-2.252.106.632.16 1.075.257 1.506.074.427.272.823.568 1.138.297.315.678.536 1.098.634 1.85.484 5.243-2.146 5.296-4.103-.033-.04-.11-.09-.184-.184m-7.52-.143c-1.376.936-2.688 2.051-4.52 1.78-1.834-.27-3.089-2.613-2.559-4.738a4.76 4.76 0 0 1 1.858-2.65c1.54-1.181 3.348-1.809 5.095-2.564.62-.267.685.029.677.534v3.314q.056.922 0 1.842c-.123.841.42 1.826-.55 2.486z"/><path fill="#C20000" d="M98.625 58.41c-.623-.226-.599.603-.786.968-2.09 4.102-6.705 4.947-10.094 1.83-2.037-1.863-2.778-4.255-2.937-6.934-.049-.82.134-1.079.974-1.058 2.036.057 4.073 0 6.11 0s4.073-.05 6.11.02c.925.033 1.104-.303.957-1.132a11.7 11.7 0 0 0-.733-2.847c-2.367-5.251-9.809-6.043-13.85-1.477-3.259 3.692-3.666 11.077-.815 15.08 1.687 2.372 3.948 3.759 6.88 3.832 3.789.095 7.125-2.703 8.266-6.916.122-.415.627-1.108-.082-1.366m-13.772-6.975c.297-1.911 1.108-3.495 2.851-4.471a4.12 4.12 0 0 1 4.583.205c1.511 1 1.923 2.543 2.065 4.23.05.57-.277.57-.668.566h-8.159c-.35-.004-.766.086-.672-.53"/></svg>