<svg xmlns="http://www.w3.org/2000/svg" width="100" height="100" fill="none"><path fill="#048BCA" d="M15.971 66c-.294-.125-.614-.1-.92-.142-6.878-.965-12.32-5.853-13.681-12.597-1.232-6.108.635-11.307 5.357-15.445 2.3-2.016 5.033-3.216 8.079-3.637 4.748-.658 9.023.494 12.737 3.497 2.921 2.365 4.8 5.405 5.533 9.063 1.001 5.003-.13 9.535-3.412 13.486-2.383 2.87-5.467 4.654-9.14 5.44q-.958.196-1.933.279c-.063.005-.145-.03-.187.052h-.37a.4.4 0 0 0-.317 0h-1.005a.55.55 0 0 0-.37 0zM99 54.15c-.096.051-.066.156-.078.233-.185 1.136-.896 1.787-1.988 2.036a5.84 5.84 0 0 1-3.029-.109c-1.222-.37-1.792-1.27-1.99-2.456a5.4 5.4 0 0 1-.056-.884q-.002-3.994.007-7.988c0-.26-.045-.356-.334-.344-.589.026-1.18 0-1.77.012-.165 0-.216-.046-.209-.206q.017-.43 0-.86c-.004-.14.035-.196.186-.21q.553-.05 1.095-.168c1.258-.273 1.948-1.07 2.19-2.288a7 7 0 0 0 .102-1.558c-.006-.174.039-.24.227-.25a41 41 0 0 0 1.87-.148c.234-.024.274.05.272.261-.01 1.183 0 2.366-.01 3.55 0 .207.056.261.265.258 1.084-.01 2.168-.005 3.252-.005v.104a.4.4 0 0 0 0 .314v.313q-.063.45-.053.905c0 .274-.062.344-.326.3a22 22 0 0 0-2.1-.218 10 10 0 0 0-.711-.015c-.14 0-.212.066-.212.206l-.003.235v8.556q-.002.144.006.287c.036.403.265.675.664.783q.153.043.312.052c.64.032 1-.287 1.019-.92.014-.452 0-.904.006-1.357.006-.35.085-.425.442-.433q.33-.006.66 0c.106 0 .212.003.3.079z"/><path fill="#49ABD8" d="M99 43.447c-.093-.105-.07-.209 0-.314z"/><path fill="#048BCA" d="M59.021 45.67c.414-.484.812-.896 1.262-1.254 1.819-1.452 3.883-1.952 6.166-1.485 1.648.337 2.573 1.457 2.672 3.118.061 1.026.027 2.053.032 3.08.006 1.47 0 2.94 0 4.41 0 .572.202.866.743 1.07.433.162.89.211 1.349.214.177 0 .247.042.239.23a11 11 0 0 0 0 1.045c.012.216-.07.254-.268.253q-3.477-.01-6.953-.006c-.487 0-.487 0-.487-.491 0-.279.007-.557-.003-.836-.006-.144.037-.197.188-.194q.332.002.653-.088c.661-.172.925-.496.928-1.172q.008-1.852 0-3.707-.001-1.318-.025-2.635a3.7 3.7 0 0 0-.2-1.1c-.326-.974-1.094-1.437-2.123-1.293-1.302.181-2.296.873-3.14 1.82-.132.149-.253.312-.375.469-.46.605-.713 1.249-.68 2.044.06 1.442.017 2.888.017 4.334 0 .766.311 1.138 1.07 1.274q.169.03.34.047c.37.039.37.038.37.418 0 .304-.005.61 0 .913.003.136-.022.201-.185.201q-3.66-.008-7.323 0c-.143 0-.179-.052-.176-.182q.011-.573 0-1.148c-.004-.148.044-.193.194-.193a4 4 0 0 0 1.2-.163c.645-.195.882-.515.882-1.183v-7.622c0-.649-.223-.951-.846-1.157a3.6 3.6 0 0 0-1.197-.167c-.188.002-.24-.065-.234-.243.013-.356.01-.713 0-1.07-.003-.145.04-.193.193-.193q2.762.008 5.524 0c.153 0 .192.046.19.191-.006.713-.002 1.427-.002 2.14.005.081.005.164.005.31M46.856 56.342c-1.33 0-2.662-.005-3.992.005-.203 0-.252-.052-.244-.246a12 12 0 0 0 0-1.044c-.007-.178.037-.241.228-.234.414.015.829.009 1.243.003.242-.003.534.049.66-.215.13-.272-.053-.5-.226-.702a795 795 0 0 0-1.798-2.088c-.303-.351-.61-.698-.906-1.055-.1-.122-.155-.107-.257 0q-1.428 1.484-2.87 2.96a1 1 0 0 0-.102.12c-.383.507-.233.898.4.957.49.046.985.028 1.48.02.186-.002.242.053.235.233-.014.366-.01.731 0 1.097.004.145-.04.193-.193.193q-3.172-.008-6.346 0c-.15 0-.199-.042-.195-.191a27 27 0 0 0 0-1.149c0-.13.033-.18.175-.184 1.045-.034 1.914-.439 2.65-1.176 1.294-1.293 2.61-2.566 3.922-3.842.127-.123.135-.19.011-.326-1.14-1.257-2.287-2.51-3.403-3.787-.669-.765-1.498-1.132-2.502-1.139-.2 0-.253-.056-.244-.248.017-.357.012-.714 0-1.07-.004-.152.026-.209.2-.209q3.833.009 7.668 0c.156 0 .219.032.211.2a17 17 0 0 0 0 1.122c.005.168-.057.206-.211.2-.29-.011-.582-.006-.872 0-.212.003-.443 0-.554.222-.11.223.038.407.17.566.506.602 1.024 1.195 1.538 1.791.205.239.416.47.614.718.099.123.158.108.264 0 .722-.763 1.451-1.52 2.177-2.279a1.4 1.4 0 0 0 .13-.164c.291-.41.159-.748-.339-.831-.357-.06-.721-.02-1.082-.022-.136 0-.183-.035-.18-.175q.015-.587 0-1.174c-.003-.143.05-.172.183-.172q2.895.006 5.79 0c.17 0 .206.056.203.209q-.015.561 0 1.122c.004.15-.05.187-.194.199-.289.023-.577.066-.864.11-.667.105-1.212.425-1.689.898a269 269 0 0 1-3.337 3.237c-.145.139-.133.208-.005.347a976 976 0 0 1 4.15 4.529c.635.697 1.397 1.133 2.368 1.142.147 0 .174.057.172.184-.007.366-.014.731 0 1.097.008.193-.044.247-.245.245-1.33-.009-2.661-.004-3.992-.004M87.528 49.27c-.024-.845-.106-1.682-.32-2.506-.568-2.172-1.926-3.57-4.16-4.082a9.3 9.3 0 0 0-3.987-.062c-2.46.505-4.183 1.893-4.982 4.277-.634 1.897-.616 3.827-.01 5.722.557 1.745 1.712 3.011 3.475 3.645 1.587.57 3.232.725 4.891.398 2.371-.467 3.823-1.943 4.536-4.182.044-.139.03-.199-.133-.225-.4-.065-.798-.138-1.19-.234-.212-.052-.288.01-.348.209-.382 1.27-1.2 2.14-2.476 2.579q-.576.195-1.184.25c-1.754.163-3.072-.442-3.797-2.123-.438-1.017-.566-2.091-.63-3.18-.012-.205.044-.261.255-.261 1.63.009 3.26.005 4.891.005 1.64 0 3.28-.003 4.919.004.188.005.256-.027.25-.234m-3.522-1.122c-1.083-.011-2.168-.005-3.251-.005s-2.168-.005-3.251.004c-.207 0-.243-.045-.216-.246.094-.674.225-1.337.512-1.96.858-1.867 3.242-2.578 4.865-1.45.867.604 1.277 1.482 1.468 2.477.058.307.067.621.11.931.026.193-.031.254-.237.249"/><path fill="#FEFEFE" d="M10.072 46.142c.284-.342.555-.679.862-.986 1.516-1.514 3.341-2.163 5.478-1.846 1.546.229 2.499 1.185 2.797 2.7.013.068.03.134.053.237a8.2 8.2 0 0 1 1.419-1.531c1.307-1.096 2.81-1.584 4.52-1.47 2.01.134 3.197 1.31 3.314 3.3.052.87.021 1.74.024 2.61.005 1.61 0 3.22 0 4.83 0 .599.206.892.775 1.101.39.14.805.204 1.22.192.22-.003.264.076.254.27q-.024.508 0 1.017c.01.204-.053.26-.26.26-2.23-.007-4.46-.004-6.69-.004-.15 0-.3-.009-.45 0-.149.009-.22-.032-.214-.2q.017-.575 0-1.148c-.004-.153.053-.193.198-.192q.332 0 .653-.09c.63-.173.894-.504.899-1.148q.006-1.802 0-3.603c-.005-.974.03-1.948-.029-2.923a4.6 4.6 0 0 0-.211-1.205c-.265-.783-.788-1.11-1.617-1.016-.973.11-1.722.622-2.37 1.305-.567.596-.984 1.29-1.331 2.028a.74.74 0 0 0-.053.33v5.064c0 .694.306 1.066.996 1.201q.26.052.525.057c.144 0 .176.056.174.186-.007.366-.015.731 0 1.097.009.202-.048.26-.26.26-2.177-.007-4.354-.004-6.53-.004a1 1 0 0 0-.106 0c-.13.016-.165-.045-.163-.166.005-.4.008-.8 0-1.2-.004-.148.062-.17.188-.172.3 0 .598-.054.878-.16.427-.17.676-.482.675-.94 0-2.21.042-4.42-.024-6.63-.01-.41-.08-.816-.209-1.206-.269-.8-.802-1.14-1.652-1.054-.833.085-1.52.474-2.127 1.017-.726.65-1.22 1.456-1.606 2.334-.048.11-.041.221-.041.334v5.011c0 .722.307 1.097 1.023 1.233q.26.054.525.056c.172 0 .205.067.2.217-.01.357-.016.714 0 1.07.011.212-.063.257-.264.256-2.097-.007-4.195-.004-6.293-.004-.274 0-.547-.008-.82.003-.159.007-.217-.04-.212-.204q.02-.56 0-1.121c-.006-.182.067-.215.23-.216.423 0 .846-.052 1.244-.201.537-.202.75-.502.75-1.068 0-2.584-.002-5.169.004-7.752 0-.522-.24-.853-.717-1.041-.407-.162-.835-.213-1.269-.215-.175 0-.25-.041-.243-.232.015-.356.01-.713 0-1.07-.003-.147.025-.216.2-.215q2.723.009 5.447 0c.18 0 .197.075.195.219q-.006 1.083 0 2.166c.004.085-.023.172.04.272"/></svg>