<svg xmlns="http://www.w3.org/2000/svg" width="100" height="100" fill="none"><mask id="a" width="13" height="29" x="50" y="24" maskUnits="userSpaceOnUse" style="mask-type:luminance"><path fill="#fff" d="M62.694 31.109 50.539 24.11v28.754l4.861-2.84v-8.094l3.673 2.135-.052-5.525-3.62-2.13v-3.226l7.293 4.318z"/></mask><g mask="url(#a)"><path fill="url(#b)" d="M36.175 24h29.806v28.923H36.175z"/></g><mask id="c" width="13" height="29" x="37" y="24" maskUnits="userSpaceOnUse" style="mask-type:luminance"><path fill="#fff" d="m37.31 31.109 12.15-6.998v28.754l-4.86-2.84v-16.84l-7.29 4.318z"/></mask><g mask="url(#c)"><path fill="url(#d)" d="M36.013 24H65.82v28.923H36.013z"/></g><path fill="#425066" d="M12.274 64.42H7.89v12.35H5.383V64.42H1v-2.006h11.274z"/><path fill="#425066" d="M15.228 76.951a4.9 4.9 0 0 1-1.973-.335 5 5 0 0 1-1.683-1.094 5.2 5.2 0 0 1-1.092-1.77 5.3 5.3 0 0 1-.32-2.064v-.31a6.4 6.4 0 0 1 .619-2.853 4.9 4.9 0 0 1 1.718-1.962 4.4 4.4 0 0 1 2.468-.714c1.455 0 2.555.444 3.349 1.384.793.941 1.188 2.219 1.188 3.923v.98h-6.917a3.33 3.33 0 0 0 .876 2.095 2.46 2.46 0 0 0 1.938.759 3.1 3.1 0 0 0 1.478-.335 3.15 3.15 0 0 0 1.152-.996l1.275 1.246a4.4 4.4 0 0 1-1.648 1.456 4.34 4.34 0 0 1-2.428.59m-.263-9.14a1.93 1.93 0 0 0-1.587.67 3.33 3.33 0 0 0-.75 1.916h4.537v-.177a3 3 0 0 0-.618-1.846 2.33 2.33 0 0 0-1.586-.564zm8.543-1.74.088 1.246c.367-.46.836-.83 1.368-1.078a3.76 3.76 0 0 1 1.7-.35c2.191 0 3.305 1.291 3.348 3.834v7.046h-2.366V69.86a2.24 2.24 0 0 0-.439-1.517 1.87 1.87 0 0 0-1.411-.493 2.3 2.3 0 0 0-1.267.323c-.382.23-.691.566-.89.968v7.58h-2.38V66.025zm14.184 7.805a1.13 1.13 0 0 0-.53-.98 4.9 4.9 0 0 0-1.719-.582 8.3 8.3 0 0 1-2.007-.67c-1.188-.581-1.753-1.429-1.753-2.498.004-.45.109-.892.307-1.294a2.95 2.95 0 0 1 .837-1.027 4.47 4.47 0 0 1 2.906-.936 4.6 4.6 0 0 1 3.037.936c.364.288.655.658.85 1.082.195.423.288.887.272 1.354h-2.38a1.52 1.52 0 0 0-.53-1.158 1.88 1.88 0 0 0-1.368-.444c-.45-.014-.895.11-1.275.355a1.18 1.18 0 0 0-.465.999 1.03 1.03 0 0 0 .438.847c.58.306 1.205.517 1.85.626.763.146 1.5.401 2.192.759.48.227.89.58 1.188 1.025.362.617.481 1.35.334 2.051a2.86 2.86 0 0 1-1.128 1.738 5.696 5.696 0 0 1-5.374.4 3.74 3.74 0 0 1-1.586-1.292 3.3 3.3 0 0 1-.575-1.775h2.293a1.66 1.66 0 0 0 .618 1.292c.45.32.994.477 1.543.443a2.43 2.43 0 0 0 1.411-.355.9.9 0 0 0 .451-.342c.11-.16.17-.35.167-.545zm3.568-2.543a6.1 6.1 0 0 1 .618-2.808 4.5 4.5 0 0 1 1.714-1.926 4.8 4.8 0 0 1 2.555-.662 4.6 4.6 0 0 1 1.885.32c.6.238 1.143.601 1.595 1.065a5.62 5.62 0 0 1 1.456 3.7v.582a6.2 6.2 0 0 1-.618 2.809 4.24 4.24 0 0 1-1.719 1.917 4.8 4.8 0 0 1-2.599.67 4.4 4.4 0 0 1-1.956-.352 4.5 4.5 0 0 1-1.612-1.175c-.876-.98-1.315-2.32-1.367-3.993zm2.336.222c-.054.911.176 1.816.658 2.587a2.35 2.35 0 0 0 3.743 0 4.8 4.8 0 0 0 .662-2.764 4.27 4.27 0 0 0-.706-2.587 2.336 2.336 0 0 0-3.261-.493 5 5 0 0 0-.487.444 5.75 5.75 0 0 0-.613 2.813zm14.579-3.257a7 7 0 0 0-.969-.088c-1.1 0-1.806.399-2.192 1.246v7.313h-2.38V66.071h2.245l.043 1.202c.233-.43.578-.787.998-1.031.42-.245.898-.367 1.382-.353.285 0 .567.045.838.133l.044 2.272zm9.888 2.365h-5.698v6.11h-2.468V62.415h9.043v2.006h-6.575v4.282h5.698zm4.712 6.11h-2.38V62.37h2.38zm1.718-5.44a6.1 6.1 0 0 1 .619-2.808 4.5 4.5 0 0 1 1.718-1.926 4.8 4.8 0 0 1 2.555-.67 4.6 4.6 0 0 1 1.885.319c.6.238 1.143.601 1.595 1.065a5.62 5.62 0 0 1 1.456 3.7v.582a6.8 6.8 0 0 1-.575 2.809 4.24 4.24 0 0 1-1.718 1.917 4.8 4.8 0 0 1-2.6.67 4.4 4.4 0 0 1-1.954-.348 4.5 4.5 0 0 1-1.613-1.17 5.8 5.8 0 0 1-1.368-3.993v-.147m2.38.222a4.4 4.4 0 0 0 .662 2.587 2.2 2.2 0 0 0 .829.714c.33.163.697.24 1.065.223.363.024.725-.05 1.05-.215s.601-.413.8-.722a4.8 4.8 0 0 0 .662-2.764 4.27 4.27 0 0 0-.706-2.587 2.336 2.336 0 0 0-3.261-.493 5 5 0 0 0-.487.444 5.3 5.3 0 0 0-.596 2.813zm18.147 1.917 1.674-7.357h2.293l-2.85 10.69H94.2l-2.244-7.358-2.248 7.358h-1.92l-2.906-10.703h2.336l1.718 7.313 2.157-7.313h1.806l2.156 7.357z"/><defs><linearGradient id="b" x1="36.175" x2="65.986" y1="38.461" y2="38.461" gradientUnits="userSpaceOnUse"><stop stop-color="#FF6F00"/><stop offset="1" stop-color="#FFA800"/></linearGradient><linearGradient id="d" x1="36.013" x2="65.823" y1="38.461" y2="38.461" gradientUnits="userSpaceOnUse"><stop stop-color="#FF6F00"/><stop offset="1" stop-color="#FFA800"/></linearGradient></defs></svg>