<svg xmlns="http://www.w3.org/2000/svg" width="100" height="100" fill="none"><path fill="#D00000" d="M30.655 65H1V36h29.655z"/><path fill="#fff" d="M9.095 58.368c0 .02.02.058.02.077l.509.498c.02.02.04.02.078.02h1.745c.02 0 .059-.02.078-.02l.51-.498c.02-.02.02-.038.02-.077v-5.386c0-.019.019-.057.039-.076l2.214-2.07q.03-.03.06 0l5.566 8.069c.02.019.039.038.058.038h2.47c.02 0 .059-.019.059-.038l.45-.843c.02-.02 0-.058 0-.077l-6.565-9.2q-.03-.03 0-.058l5.997-5.846c.02-.02.02-.038.02-.077v-.096c0-.019 0-.057-.02-.076l-.353-.786c0-.02-.039-.038-.058-.038H19.58c-.02 0-.059.019-.079.019l-7.448 7.303c-.02.019-.02.019-.02-.02v-6.708c0-.02-.019-.058-.019-.077l-.49-.517c-.02-.02-.039-.039-.059-.039H9.722c-.02 0-.059.02-.059.039l-.51.536c-.019.02-.019.039-.019.077z"/><path fill="#2F2F2F" d="M51.45 58.464h-2.47c-.097 0-.176-.038-.215-.115l-5.115-7.207-1.588 1.265v5.789a.265.265 0 0 1-.274.268h-2.156a.265.265 0 0 1-.275-.268V42.574c0-.153.118-.268.275-.268h2.156c.156 0 .274.115.274.268v7.456c.745-.881 1.47-1.744 2.195-2.549l4.39-5.06a.28.28 0 0 1 .216-.096h2.372c.235 0 .353.268.196.441a899 899 0 0 1-5.821 6.651l6.076 8.664c.117.153-.02.383-.236.383M59.33 58.694c-1.94 0-3.47-.556-4.567-1.668-1.098-1.111-1.647-2.645-1.647-4.58q0-2.991 1.53-4.716c1.018-1.15 2.41-1.705 4.194-1.705 1.646 0 2.96.498 3.9 1.475.96.978 1.43 2.32 1.43 4.045v1.13a.265.265 0 0 1-.274.269h-8.055c.039 1.188.372 2.09.98 2.74.627.633 1.49.96 2.607.96.744 0 1.43-.078 2.058-.212.529-.115 1.078-.287 1.685-.517a.27.27 0 0 1 .373.249v1.533a.3.3 0 0 1-.157.25 8 8 0 0 1-1.803.575 15.4 15.4 0 0 1-2.254.172m-.49-10.715c-.843 0-1.53.269-2.02.786-.509.518-.803 1.285-.9 2.281h5.664c-.02-1.016-.255-1.782-.745-2.3-.49-.498-1.157-.767-2-.767M73.54 46.025c.411 0 .764.019 1.078.057.137.02.235.153.235.288l-.196 1.878c-.02.153-.157.268-.314.23a4.6 4.6 0 0 0-.882-.077c-1.058 0-1.92.345-2.587 1.016-.666.67-.98 1.553-.98 2.645v6.115a.265.265 0 0 1-.274.268h-2.117a.265.265 0 0 1-.275-.269V46.485c0-.153.118-.268.275-.268h1.568c.137 0 .255.096.274.23l.314 1.936h.137a5 5 0 0 1 1.627-1.744 3.9 3.9 0 0 1 2.117-.613M85.202 58.464a.27.27 0 0 1-.255-.192l-.47-1.514h-.099c-.607.748-1.215 1.246-1.822 1.514q-.912.403-2.352.403-1.853 0-2.882-.978c-.686-.651-1.038-1.571-1.038-2.76 0-1.265.47-2.204 1.43-2.856.96-.632 2.411-.996 4.371-1.054l2.156-.057v-.652c0-.786-.196-1.36-.568-1.744-.373-.384-.96-.575-1.725-.575-.647 0-1.254.095-1.842.268-.49.153-.98.345-1.45.537a.27.27 0 0 1-.354-.134l-.646-1.38a.267.267 0 0 1 .117-.346 9 9 0 0 1 2-.67c.803-.173 1.567-.269 2.273-.269 1.588 0 2.783.345 3.606 1.016.804.671 1.216 1.744 1.216 3.201v7.974a.265.265 0 0 1-.275.268zm-4.156-1.763c.96 0 1.745-.269 2.313-.786.588-.518.882-1.265.882-2.224v-1.054l-1.607.058c-1.254.038-2.156.249-2.724.613s-.863.92-.863 1.668c0 .536.157.958.49 1.265.353.306.843.46 1.51.46M99 54.976c0 1.188-.45 2.108-1.333 2.74-.882.633-2.156.959-3.822.959-1.587 0-2.861-.23-3.861-.671a.25.25 0 0 1-.157-.23v-1.668c0-.191.196-.325.373-.249 1.332.556 2.567.824 3.724.824 1.626 0 2.45-.479 2.45-1.456 0-.307-.098-.575-.275-.767-.176-.21-.47-.422-.901-.633-.412-.23-1-.479-1.725-.747-1.431-.537-2.411-1.093-2.92-1.63q-.765-.804-.765-2.127c0-1.054.431-1.859 1.294-2.434q1.293-.862 3.528-.862c1.372 0 2.685.249 3.92.766.137.058.196.211.137.345l-.647 1.476c-.059.134-.216.192-.353.134-1.235-.479-2.293-.728-3.155-.728-1.392 0-2.098.383-2.098 1.17 0 .382.177.708.55.977.372.268 1.156.632 2.39 1.092 1.04.384 1.784.748 2.254 1.074.47.325.824.69 1.04 1.13.234.422.352.94.352 1.515"/></svg>