<svg xmlns="http://www.w3.org/2000/svg" width="100" height="100" fill="none"><path fill="url(#a)" d="M19.966 68.935c-1.333-.283-2.556-1.24-3.124-2.46-.306-.63-.328-.849-.328-1.828 0-.87.066-1.219.262-1.654.524-1.175 1.464-2.024 2.666-2.394l.634-.196.327-1.132c.568-1.937.94-3.613.83-4.113-.043-.24-.349-1.85-.567-3.33-.7-4.506-.765-4.723-1.923-5.55-1.093-.806-1.508-1.371-2.032-2.939-.175-.5-.481-.87-2.207-2.568-1.945-1.915-1.923-1.937-2.404-2.154-.415-.175-1.508-.37-1.945-.436l-.786-.13-.809.805c-.568.566-1.07.936-1.704 1.24-.852.414-.918.436-1.901.392-.874-.043-1.114-.109-1.748-.435-1.093-.588-1.923-1.654-2.163-2.764-.153-.74-.088-1.894.174-2.59.394-.936 1.333-1.937 2.273-2.372.634-.283.874-.327 1.77-.327.94 0 1.114.044 1.813.37.503.24.984.588 1.355 1.001.612.653 1.18 1.676 1.18 2.09 0 .152.524.783 1.442 1.697 1.355 1.35 1.05 1.328 1.836 1.61.459.175 1.966.763 2.797 1.11l1.551.74.612-.848c.852-1.175 1.77-1.415 3.255-1.415 2.055 0 2.863.523 3.737 2.373.48 1.023.503 1.044 1.07 1.218.94.283 1.596.218 3.125-.304 1.42-.48 4.567-1.763 5.529-2.242.284-.152.611-.413.699-.566.306-.566 1.464-1.523 2.163-1.785.961-.37 2.49-.304 3.43.131a4.26 4.26 0 0 1 2.01 2.002c.307.631.328.784.328 1.894 0 1.001-.043 1.306-.262 1.763-.371.827-1.289 1.72-2.141 2.111-.634.283-.852.326-1.835.326-.94 0-1.202-.043-1.749-.304-1.158-.544-2.032-1.524-2.36-2.677-.152-.566-.48-.762-1.682-1.067-1.311-.326-2.25-.283-4.13.523-2.665 1.153-3.692 2.067-4.108 2.894-.24.48-1.31 1.524-1.813 1.785-.197.087-.546.24-.809.305l-.459.13v2.569c0 1.675-.109 3.199-.24 4.33-.24 1.96-.218 1.829.568 5.05.46 1.915.48 1.959.896 2.22 2.273 1.437 2.71 4.57.918 6.595-.896.98-2.688 1.567-4.02 1.306"/><path fill="#000" d="M44.46 52.568h-5.374v-3.243l-.787.021v.501c0 .326 0 .697-.022 1.11 0 .37-.022.74-.044 1.11-.021.327-.043.5-.087.5h-2.84v.719h2.971v11.492c0 1.218.284 2.089.874 2.568s1.464.718 2.644.718c.459 0 .94-.022 1.42-.065.481-.044.852-.087 1.093-.153v-.674c-.219.043-.59.065-1.114.109-.525.043-.94.065-1.224.065-1.005 0-1.748-.174-2.185-.544-.46-.37-.678-1.132-.678-2.307v-11.21h5.376zm7.91-.283c-1.31 0-2.425.217-3.342.63s-1.683.98-2.251 1.699a6.9 6.9 0 0 0-1.267 2.524q-.394 1.436-.394 3.069c0 2.808.634 4.832 1.88 6.072 1.267 1.24 3.059 1.872 5.375 1.872 2.338 0 4.108-.696 5.331-2.067q1.836-2.057 1.836-5.877c0-2.438-.546-4.353-1.617-5.768-1.027-1.436-2.885-2.154-5.55-2.154m.023 15.104c-2.207 0-3.824-.587-4.873-1.763s-1.573-2.981-1.573-5.463c0-1.022.109-1.958.35-2.829.24-.87.611-1.632 1.114-2.264.502-.63 1.158-1.131 1.988-1.501s1.814-.544 2.972-.544c2.469 0 4.151.653 5.07 1.937q1.376 1.926 1.376 5.223c0 2.35-.547 4.157-1.617 5.376-1.115 1.219-2.71 1.828-4.807 1.828m15.71-15.104c-1.333 0-2.513.348-3.496 1.066-.983.697-1.617 1.589-1.88 2.655v-3.438h-.807v15.3h.786v-9.293c0-.85.153-1.61.437-2.307.306-.675.7-1.263 1.18-1.72a5.3 5.3 0 0 1 1.726-1.088 5.4 5.4 0 0 1 2.032-.37c.569 0 1.137.022 1.661.087q.786.098 1.377.261v-.87a8 8 0 0 0-1.224-.218 19 19 0 0 0-1.792-.065m9.746 0c-2.295 0-4.043.718-5.266 2.133-1.224 1.414-1.836 3.351-1.836 5.767 0 2.764.612 4.788 1.836 6.05 1.223 1.263 2.971 1.894 5.222 1.894 2.163 0 3.758-.479 4.829-1.458 1.049-.958 1.682-2.155 1.857-3.57h-.787c-.065.567-.24 1.089-.48 1.611-.24.523-.612.98-1.093 1.371a5.3 5.3 0 0 1-1.77.936c-.699.24-1.53.349-2.49.349-2.01 0-3.562-.566-4.677-1.676q-1.638-1.665-1.638-5.485c0-2.264.524-4.026 1.595-5.267 1.07-1.262 2.622-1.872 4.698-1.872 1.879 0 3.299.414 4.282 1.219.962.827 1.486 1.894 1.53 3.221h.808c-.043-1.545-.59-2.808-1.682-3.787-1.07-.936-2.71-1.436-4.938-1.436m21.107 4.157c0-1.35-.48-2.394-1.42-3.09-.94-.697-2.316-1.067-4.086-1.067-1.398 0-2.622.24-3.65.74-1.026.5-1.703 1.218-1.988 2.176V45.69h-.786v22.178h.786v-10.49q0-1.143.46-1.96a3.8 3.8 0 0 1 1.223-1.327c.502-.348 1.093-.587 1.77-.762a8.4 8.4 0 0 1 2.097-.26c1.77 0 3.016.326 3.737 1 .721.675 1.07 1.59 1.07 2.764v9.512c0 .696 0 1.131.023 1.284 0 .152.021.24.043.26h.809c-.022-.02-.044-.108-.044-.26s-.022-.61-.022-1.328v-9.86z"/><defs><radialGradient id="a" cx="0" cy="0" r="1" gradientTransform="rotate(-10.305 246.658 -96.179)scale(21.4693 18.8242)" gradientUnits="userSpaceOnUse"><stop stop-color="#4FFFFF" stop-opacity=".894"/><stop offset="1" stop-color="#00C4C2" stop-opacity=".894"/></radialGradient></defs></svg>