<svg xmlns="http://www.w3.org/2000/svg" width="100" height="100" fill="none"><path fill="#FF0101" d="M40.845 35.51a18.47 18.47 0 0 1-7.807-8.937 18.55 18.55 0 0 1-.773-11.86 18.5 18.5 0 0 1 6.58-9.883A18.38 18.38 0 0 1 50.06 1.01c4.056 0 7.998 1.343 11.215 3.82a18.5 18.5 0 0 1 6.581 9.883c1.05 3.93.778 8.1-.773 11.86a18.47 18.47 0 0 1-7.807 8.938l-5.555-9.647a7.35 7.35 0 0 0 3.107-3.556 7.38 7.38 0 0 0 .308-4.719 7.36 7.36 0 0 0-2.618-3.932 7.31 7.31 0 0 0-8.925 0 7.36 7.36 0 0 0-2.618 3.932 7.38 7.38 0 0 0 .309 4.72 7.35 7.35 0 0 0 3.107 3.555z"/><path fill="#0101FF" d="M80.305 39.983a18.47 18.47 0 0 1 7.81 8.936 18.55 18.55 0 0 1 .775 11.862 18.5 18.5 0 0 1-6.58 9.883 18.38 18.38 0 0 1-11.217 3.821 18.38 18.38 0 0 1-11.216-3.82 18.5 18.5 0 0 1-6.58-9.884c-1.05-3.932-.777-8.101.775-11.862a18.47 18.47 0 0 1 7.81-8.936l5.546 9.641a7.35 7.35 0 0 0-3.107 3.556 7.38 7.38 0 0 0-.308 4.719 7.36 7.36 0 0 0 2.618 3.932 7.31 7.31 0 0 0 8.924 0 7.36 7.36 0 0 0 2.618-3.932 7.38 7.38 0 0 0-.308-4.72 7.35 7.35 0 0 0-3.107-3.555z"/><path fill="#01FF01" d="M47.848 55.994c0 4.07-1.34 8.027-3.81 11.256a18.42 18.42 0 0 1-9.85 6.602 18.36 18.36 0 0 1-11.819-.78 18.45 18.45 0 0 1-8.903-7.84 18.545 18.545 0 0 1 2.935-22.32 18.37 18.37 0 0 1 22.242-2.93l-5.555 9.642a7.31 7.31 0 0 0-8.848 1.17 7.378 7.378 0 0 0-1.165 8.88 7.34 7.34 0 0 0 3.542 3.117c1.491.62 3.144.729 4.702.31a7.33 7.33 0 0 0 3.919-2.627 7.37 7.37 0 0 0 1.515-4.478z"/><path fill="#050505" d="M54.152 84.118c.915-.637 2.097-.726 3.174-.601.917.097 1.887.447 2.428 1.24.48.664.614 1.498.62 2.296v7.3h-2.512v-6.902c-.025-.503 0-1.085-.383-1.472-.396-.437-1.032-.522-1.595-.518-.68 0-1.415.113-1.939.584-.511.438-.706 1.144-.709 1.797v6.514h-2.512V83.604h2.469c0 .63-.066 1.255-.085 1.884.266-.51.55-1.046 1.044-1.37M64.922 79.409c1.386-.468 2.863-.532 4.313-.586 1.404 0 2.873.02 4.185.588.661.279 1.128.89 1.353 1.564.366 1.007.377 2.098.385 3.159h-2.9c-.015-.746.041-1.582-.419-2.217-.465-.478-1.19-.476-1.81-.55-1.257-.023-2.565-.104-3.769.331-.434.133-.661.574-.746.993-.247 1.126-.248 2.287-.247 3.435.015 1.534-.01 3.091.318 4.6.086.553.592.893 1.1 1.015 1.174.293 2.4.25 3.6.179.626-.082 1.388-.124 1.78-.7.42-.687.35-1.533.327-2.305h2.927c-.012 1.22-.033 2.48-.475 3.634a2.3 2.3 0 0 1-1.305 1.347c-1.19.48-2.504.511-3.771.588-1.47.026-2.957-.01-4.394-.354-.842-.22-1.763-.608-2.153-1.448-.499-1.111-.59-2.347-.718-3.543-.107-1.58-.176-3.161-.133-4.744.076-1.28.192-2.63.881-3.747.361-.622 1.004-1.011 1.67-1.24M75.795 78.961c1.008 0 2.016-.028 3.022.015.98 3.12 2.057 6.21 3.042 9.326.385 1.194.662 2.429 1.058 3.622.446-1.288.732-2.626 1.168-3.916.967-3.014 1.96-6.02 2.926-9.033.995-.043 1.992 0 2.988-.02v.331c-1.638 5.008-3.237 10.03-4.841 15.05-1.497.03-2.997.034-4.497 0C79.07 89.2 77.395 84.09 75.795 78.96M24.74 83.211c-.165-1.079-.35-2.256-1.102-3.092-.719-.7-1.733-.948-2.69-1.118a20.2 20.2 0 0 0-4.687-.086c-1.19.124-2.452.3-3.438 1.023-.705.559-.938 1.48-1.13 2.318-.354 1.794-.389 3.636-.382 5.46.058 1.38.112 2.788.54 4.115.212.636.528 1.291 1.11 1.663.901.607 2.007.797 3.066.903 1.564.147 3.14.118 4.697-.085 1.058-.168 2.206-.398 2.985-1.187.714-.89.872-2.07 1.032-3.164a30 30 0 0 0 0-6.75m-3.14 7.782c-.346.745-1.286.806-1.995.915-1.422.081-2.898.153-4.277-.266-.636-.168-.838-.853-.935-1.428-.265-1.703-.179-3.435-.146-5.151.07-.962.058-1.96.397-2.875.397-.613 1.213-.664 1.869-.767 1.322-.107 2.67-.133 3.977.12.506.101 1.104.348 1.2.928.396 1.629.304 3.319.32 4.99-.043 1.178-.015 2.402-.41 3.534M36.365 84.88c-.546-.943-1.678-1.29-2.698-1.378-1.092-.1-2.268 0-3.215.603-.434.265-.729.695-1.046 1.084.014-.53.043-1.062.072-1.585h-2.566v15.397h2.646V92.8c.358.547.793 1.08 1.416 1.327 1.158.48 2.478.449 3.678.153.785-.198 1.517-.7 1.836-1.46.558-1.261.584-2.677.613-4.034-.045-1.326-.084-2.724-.736-3.906m-1.968 5.496c-.082.712-.196 1.633-.976 1.909-.917.31-1.912.3-2.822-.032-.83-.35-.926-1.358-1.008-2.14-.05-1.194-.109-2.434.229-3.6.178-.663.863-.974 1.493-1.023.74-.057 1.524-.073 2.217.234.439.19.67.656.748 1.107.23 1.164.201 2.367.12 3.545M45.528 92.21c-.684.346-1.482.285-2.224.28-.6-.034-1.311-.15-1.646-.713-.397-.715-.29-1.555-.375-2.334h7.236c-.103-1.51.017-3.13-.721-4.513-.661-1.14-2.096-1.34-3.284-1.439-1.427-.067-2.95-.043-4.25.627-1.058.572-1.351 1.866-1.486 2.967a16.4 16.4 0 0 0 .078 4.197c.153.929.43 1.99 1.302 2.51 1.077.596 2.347.656 3.55.692 1.361-.026 2.885-.132 3.95-1.084.709-.624.822-1.617.854-2.503h-2.54c-.055.457-.055 1.004-.444 1.312m-3.711-6.393c.722-.44 1.616-.352 2.427-.34.503.054 1.115.084 1.442.531.333.55.273 1.225.276 1.844-1.557 0-3.112.006-4.667 0 .017-.693-.037-1.532.522-2.035"/></svg>