<svg xmlns="http://www.w3.org/2000/svg" width="100" height="100" fill="none"><path fill="#11557C" d="M7.645 40.592v4.296h5.75v1.928h-5.75v8.231c0 1.113.21 1.902.644 2.342q.653.66 2.25.66h2.843v1.993h-3.08c-1.894 0-3.236-.375-4.013-1.126s-1.17-2.044-1.17-3.869V46.83H1v-1.928h4.118v-4.31zM30.592 50.66v9.382h-2.54V50.66c0-1.359-.236-2.368-.723-3.002-.487-.635-1.25-.958-2.29-.958-1.184 0-2.092.414-2.736 1.242-.632.816-.948 2.006-.948 3.546v8.567H18.83V39h2.526v8.166c.448-.867 1.053-1.514 1.83-1.967.776-.453 1.683-.673 2.736-.673 1.566 0 2.737.505 3.513 1.527s1.158 2.55 1.158 4.607m29.092 1.773h-.842c-1.474 0-2.592.259-3.342.776-.737.505-1.118 1.269-1.118 2.278 0 .906.276 1.618.842 2.122.566.505 1.329.764 2.329.764 1.394 0 2.486-.479 3.29-1.424.802-.957 1.196-2.277 1.21-3.947v-.556h-2.369zm4.908-1.022v8.644h-2.54v-2.251c-.539.905-1.223 1.565-2.052 2.005-.816.428-1.816.635-2.987.635-1.566 0-2.816-.428-3.75-1.295-.934-.88-1.408-2.044-1.408-3.507 0-1.682.58-2.963 1.724-3.843 1.158-.88 2.842-1.307 5.079-1.307h3.395v-.389c-.014-1.203-.316-2.083-.935-2.626-.618-.557-1.592-.829-2.947-.829-.868 0-1.737.117-2.618.363-.882.245-1.737.595-2.566 1.074v-2.498c.934-.35 1.829-.608 2.684-.79a12 12 0 0 1 2.5-.271c1.276 0 2.355.181 3.263.556s1.645.92 2.198 1.67c.342.453.592 1.01.736 1.682.158.647.224 1.644.224 2.977m16.842-.751v9.382h-2.54V50.66c0-1.359-.236-2.368-.723-3.002-.487-.635-1.25-.958-2.29-.958-1.184 0-2.091.414-2.736 1.242-.632.816-.948 2.006-.948 3.546v8.567h-2.526V44.901h2.513v2.278c.448-.867 1.053-1.514 1.83-1.967.776-.453 1.683-.673 2.736-.673 1.566 0 2.737.505 3.513 1.527.776 1.01 1.171 2.536 1.171 4.594m10.96-4.012c-1.289 0-2.25.492-2.92 1.475-.658.984-.987 2.434-.987 4.375 0 1.915.329 3.377.987 4.374q.987 1.475 2.92 1.475c1.29 0 2.264-.492 2.935-1.475.658-.997.987-2.446.987-4.374 0-1.929-.33-3.39-.987-4.374-.658-.984-1.645-1.476-2.934-1.476m0-2.11c2.132 0 3.764.687 4.895 2.046C98.422 47.942 99 49.909 99 52.498s-.566 4.568-1.697 5.927-2.763 2.032-4.908 2.032c-2.132 0-3.763-.674-4.895-2.032-1.132-1.36-1.697-3.34-1.697-5.927 0-2.576.565-4.556 1.697-5.914 1.118-1.372 2.763-2.045 4.895-2.045M40.395 60.858c-2.04-.389-3.224-.92-4.382-2.537-.829-1.178-.96-2.135-.987-3.792-.013-.79.013-.957.184-1.346l.185-.44.223.48c.264.543.514.931.671 1.035.093.064.119-.065.171-.88.04-.518.08-1.1.119-1.282.053-.336.053-.336.5-.491.842-.311 2.42-.363 5.25-.13 1.303.104 4.092.155 4.381-.09.303-.26.343-.376.25-1.1-.118-.854.014-1.036-.355-1.747-.947-1.838-2.513-2.615-4.592-2.627-1.868 0-3.368.672-4.276 2.16-.803 1.32-1.158 2.731-1.369 5.423l-.052.75-.171-.245c-.856-1.204-1.382-3.3-1.014-4.892.29-1.242.856-2.304 1.803-3.339.816-.893 2.145-1.398 3.737-1.708 1.026-.194 1.737-.194 2.763 0 1.605.297 2.763.867 3.566 1.76.934 1.022 1.513 2.11 1.79 3.3.184.802.21 2.032.065 2.42-.131.336-1.145 1.436-1.17 1.294a.32.32 0 0 1 .065-.233c.145-.194.013-.272-.197-.13-.158.117-.198.117-.29.027-.197-.182-.276.013-.092.233.21.258.21.349.013.349-.092 0-.17.026-.197.052-.198.233-3.171.284-5.54.103-1.75-.142-3.145-.103-3.46.078-.263.142-.619.673-.737 1.1-.118.401-.053 1.63.118 2.122.158.492.737 1.217 1.342 1.683 1.685 1.294 4.474 1.307 6.172.038.855-.634 1.539-1.669 1.342-2.005a.8.8 0 0 1-.092-.363c0-.207.25-.647.407-.725.224-.103.487-.517.487-.789 0-.31.105-.505.276-.505.264 0 .224-.79-.039-1.126-.21-.258-.184-.31.053-.142.158.104.197.117.197.052 0-.052.066-.13.132-.181.118-.078.131-.065.065.038-.039.065-.065.389-.052.712.026.544.04.608.21.712.158.09.198.181.224.518.026.284.118.53.303.815.21.336.25.466.223.686a.83.83 0 0 1-.197.401c-.197.168-1.026 1.23-1.105 1.424-.145.375-.658 1.151-.987 1.514-.513.57-1.053.919-2 1.255-1.421.479-2.526.57-3.934.31"/></svg>