<svg xmlns="http://www.w3.org/2000/svg" width="100" height="100" fill="none"><path fill="#E25A1C" d="M90.606 50.685c-.09-.18-.12-.27-.18-.36-1.229-2.34-2.458-4.68-3.687-6.99-.12-.24-.12-.36.06-.57 1.948-2.28 3.897-4.56 5.846-6.87.06-.09.12-.18.15-.3l-1.71.45c-2.368.63-4.706 1.26-7.074 1.89-.21.06-.33 0-.42-.18-1.349-2.25-2.698-4.47-4.047-6.72a.8.8 0 0 0-.3-.33c-.12.6-.21 1.2-.33 1.8-.36 2.1-.75 4.23-1.109 6.33-.03.24-.09.45-.12.69-.03.21-.12.3-.33.36-2.788.87-5.546 1.77-8.334 2.64-.12.03-.24.09-.36.21l6.866 2.73c-.09.06-.15.12-.21.15-1.41.93-2.848 1.83-4.257 2.76-.18.12-.3.12-.51.03-1.708-.75-3.387-1.53-5.096-2.28-.75-.33-1.439-.78-1.979-1.44-1.199-1.47-.959-3.15.63-4.2.54-.33 1.14-.6 1.709-.78 2.728-.9 5.456-1.74 8.184-2.61.24-.06.33-.18.39-.42.36-2.1.75-4.23 1.109-6.33.21-1.14.3-2.28.87-3.3.209-.39.449-.78.749-1.11 1.079-1.2 2.608-1.26 3.747-.09.39.39.72.84 1.02 1.32a680 680 0 0 1 3.747 6.21c.15.24.27.3.54.21 3.057-.81 6.085-1.62 9.143-2.43.63-.18 1.259-.24 1.918-.12 1.41.27 2.009 1.32 1.56 2.7-.21.63-.6 1.14-1.02 1.65-2.129 2.49-4.257 5.01-6.386 7.5-.18.21-.18.36-.06.57 1.26 2.4 2.549 4.8 3.808 7.23.3.57.54 1.17.54 1.83.03 1.5-1.08 2.73-2.579 2.94-.84.12-1.619-.06-2.398-.3-1.919-.6-3.837-1.17-5.726-1.74-.18-.06-.24-.12-.27-.3-.21-1.35-.45-2.7-.69-4.05v-.15z"/><path fill="#3C3A3E" d="M86.889 70.305h-5.157c-.24 0-.36-.06-.48-.27a1666 1666 0 0 0-6.385-9.69c-.45 3.36-.87 6.63-1.289 9.93h-4.557c.06-.45.09-.87.15-1.29.45-3.36.87-6.72 1.32-10.11.419-3.21.839-6.42 1.258-9.66 0-.09.09-.21.15-.27 1.56-1.02 3.118-2.01 4.677-3.03.03 0 .06-.03.12-.03l-1.41 10.74.06.03 7.376-8.19c.06.42.12.78.21 1.14.18 1.02.33 2.04.54 3.06.03.21-.03.33-.15.48-1.59 1.65-3.149 3.33-4.737 4.98-.06.06-.12.15-.21.24.06.09.09.15.15.24 2.728 3.81 5.426 7.65 8.154 11.46l.18.18v.06m-53.452-9.9c-.06-.36-.12-.87-.27-1.35-.75-2.34-3.148-3.6-5.636-3.03-2.698.6-4.647 2.76-4.946 5.52-.21 2.04.899 4.02 2.938 4.77 1.648.6 3.237.36 4.736-.54 1.979-1.17 3.028-2.91 3.178-5.37m-11.932 8.67c-.12.99-.27 1.95-.39 2.91-.18 1.26-.33 2.52-.479 3.78-.03.15-.06.21-.21.21H16.68c-.03 0-.06-.03-.12-.03.09-.6.15-1.2.24-1.8.27-2.1.54-4.17.81-6.27.329-2.4.569-4.77.988-7.14.72-4.2 4.287-7.83 8.454-8.73 2.429-.51 4.737-.27 6.866 1.08 2.098 1.35 3.327 3.33 3.597 5.82.39 3.51-.9 6.42-3.388 8.82-1.648 1.59-3.597 2.58-5.845 2.94-2.339.36-4.497-.03-6.476-1.41-.12-.06-.21-.12-.33-.18m-2.008-19.95-4.077 3.03c-.21-.33-.42-.69-.63-.99-.57-.81-1.319-1.44-2.368-1.5-.87-.06-1.619.24-2.219.87-.54.57-.6 1.41-.09 2.07.54.72 1.14 1.41 1.77 2.07 1.018 1.11 2.068 2.16 3.087 3.27.93 1.02 1.649 2.13 1.889 3.51.27 1.65-.06 3.21-.84 4.65-1.439 2.67-3.687 4.23-6.685 4.71-1.319.21-2.638.18-3.927-.21-1.709-.51-2.908-1.62-3.658-3.21-.27-.57-.48-1.14-.719-1.74l4.407-2.37c.06.12.09.24.15.33.24.51.45 1.05.78 1.5.929 1.38 2.397 1.8 3.926 1.11.39-.18.75-.42 1.08-.69.989-.87 1.169-2.07.45-3.15-.42-.63-.93-1.2-1.44-1.74-1.199-1.35-2.458-2.64-3.627-3.99a6.34 6.34 0 0 1-1.529-3.3c-.18-1.38.09-2.67.81-3.84 1.768-2.88 4.346-4.38 7.764-4.26 1.948.06 3.507.99 4.706 2.49.27.42.6.87.99 1.38m33.006 15.45c-.24 1.74-.45 3.39-.66 5.04 0 .09-.09.21-.15.24-3.357 1.56-7.794 1.35-10.552-1.8-1.469-1.68-2.098-3.69-2.008-5.91.21-5.16 4.497-9.66 9.593-10.29 2.998-.36 5.606.45 7.615 2.76 1.379 1.59 2.008 3.48 1.918 5.55-.06 1.38-.27 2.73-.45 4.11-.24 1.95-.51 3.87-.749 5.82 0 .06-.03.15-.03.21h-4.017c.06-.45.09-.87.15-1.32.3-2.25.6-4.47.87-6.72.149-1.41.06-2.79-.57-4.08-.69-1.38-1.83-2.1-3.328-2.25-3.088-.33-6.056 1.83-6.715 4.89-.45 2.01.24 3.93 1.858 5.01 1.56 1.05 3.238 1.05 4.947.36.84-.36 1.559-.9 2.278-1.62m16.938-12.36-.54 4.17h-2.518c-.69 0-1.289.45-1.499 1.08-.09.24-.12.51-.15.78l-1.259 9.63c-.12.81-.21 1.62-.33 2.43H58.92c.09-.63.15-1.2.24-1.8.27-2.07.54-4.14.809-6.24.24-1.8.45-3.6.72-5.4.39-2.4 2.757-4.53 5.186-4.65 1.169-.03 2.338 0 3.537 0M91.835 70.305v-1.77l-.69 1.77h-.24l-.689-1.77v1.77h-.36v-2.13h.54l.63 1.62.63-1.62h.539v2.13zm-3.088-1.86v1.83h-.36v-1.83h-.659v-.27h1.679v.27zm-63.674-22.32h1.05l-.27-1.56zm1.199 1.02h-1.739l-.54 1.08h-1.228l2.697-5.04h1.17l.929 5.04h-1.14zm6.176-2.94h-.63l-.21 1.17h.63c.36 0 .66-.24.66-.69 0-.33-.18-.48-.45-.48m-1.5-1.02h1.62c.839 0 1.438.51 1.438 1.38 0 1.08-.779 1.83-1.858 1.83h-.69l-.33 1.86H30.08zm6.626 2.94h1.05l-.24-1.56zm1.229 1.02h-1.739l-.54 1.08h-1.229l2.699-5.04h1.169l.93 5.04h-1.14zm6.805.9c-.36.15-.75.27-1.139.27-1.35 0-2.159-.99-2.159-2.25 0-1.59 1.35-2.94 2.938-2.94.39 0 .75.09 1.05.27l-.15 1.2c-.21-.24-.57-.42-1.02-.42-.929 0-1.738.84-1.738 1.8 0 .72.45 1.32 1.199 1.32.45 0 .87-.18 1.169-.42zm6.446-1.86h-2.189l-.36 2.04h-1.049l.9-5.04h1.049l-.36 2.01h2.188l.36-2.01h1.05l-.9 5.04h-1.05zm3.867 2.04.9-5.04h2.787l-.18 1.02H57.69l-.18.99h1.589l-.18 1.02h-1.59l-.18 1.02h1.74l-.18 1.02H55.92"/></svg>