<svg xmlns="http://www.w3.org/2000/svg" width="100" height="100" fill="none"><path fill="#F89939" d="M76.169 69.037C88.137 57.035 90.127 39.572 80.61 30.03c-9.513-9.54-26.927-7.546-38.895 4.455s-8.506 34.93-4.442 39.006c3.284 3.293 26.927 7.546 38.895-4.455"/><path fill="#3499CD" d="M27.059 51.695c-6.943-6.963-17.048-8.122-22.57-2.585-5.52 5.536-4.366 15.67 2.58 22.632 6.944 6.965 20.21 4.95 22.567 2.585 1.907-1.91 4.368-15.669-2.577-22.632"/><path fill="#010101" d="M51.016 66.095q-1.84 1.699-3.228 2.505-1.386.808-2.646.808-1.448 0-2.335-1.127-.886-1.127-.886-3.027 0-2.85 1.232-6.84 1.231-3.992 2.99-7.357l3.439-1.277a.9.9 0 0 1 .244-.054q.392 0 .642.576.25.579.251 1.555 0 2.769-1.273 5.362t-3.979 5.538q-.108 1.41-.108 1.94 0 1.182.432 1.873.434.694 1.151.693.731 0 1.557-.529.825-.528 2.517-2.2zm-5.184-5.306a16.6 16.6 0 0 0 2.789-4.295q1.068-2.379 1.068-4.093 0-.501-.148-.807-.149-.306-.379-.306-.5 0-1.455 2.5-.954 2.5-1.875 7.001"/><path fill="#010101" d="M61.141 66.095q-1.718 1.699-3.086 2.505a5.8 5.8 0 0 1-3.018.808q-1.84 0-2.972-1.18c-.753-.79-1.129-1.824-1.129-3.11q0-2.876 1.99-5.205 1.99-2.328 4.412-2.328 1.258 0 2.017.652.758.653.758 1.71 0 2.81-5.955 4.56.54 2.648 2.828 2.648.894 0 1.705-.481.813-.484 2.45-2.139zm-7.092-2.51q3.464-.978 3.465-3.61 0-1.304-.948-1.303-.892 0-1.704 1.364-.814 1.363-.813 3.549"/><path fill="#010101" d="M75.597 66.095q-2.166 2.064-3.1 2.69-.933.623-1.787.623-2.138 0-2.016-3.787-1.355 1.94-2.498 2.865-1.144.922-2.362.922-1.19 0-2.023-1.12-.833-1.119-.832-2.748 0-2.035 1.115-3.883a9.2 9.2 0 0 1 2.863-2.985q1.747-1.14 3.086-1.14 1.692 0 2.37 1.56l2.766-1.533h.759l-1.195 3.976q-.921 3-.921 4.114 0 1.167.825 1.167.526 0 1.163-.564a44 44 0 0 0 1.786-1.717v1.56m-9.908.748q1.352 0 2.552-2.314 1.198-2.315 1.198-4.27-.001-.76-.338-1.187a1.1 1.1 0 0 0-.907-.428q-1.355 0-2.565 2.308-1.212 2.308-1.212 4.247 0 .735.359 1.189.358.454.913.454"/><path fill="#010101" d="M85.708 66.095q-3.398 3.34-5.239 3.34-.826 0-1.394-.698-.568-.7-.568-1.732 0-1.913 2.044-5.13a7.5 7.5 0 0 1-2.193.719q-.88 1.63-2.761 3.5h-.31v-1.22q1.054-1.099 1.907-2.362-1.165-.516-1.164-1.533 0-1.045.711-2.234.71-1.185 1.956-1.186 1.055-.001 1.055 1.085 0 .855-.61 2.443 2.247-.243 3.926-3.448l1.232-.054-1.26 3.474q-.783 2.2-1.014 2.994t-.23 1.404q0 .571.263.91a.85.85 0 0 0 .712.34q.487-.001.933-.332.447-.335 2.004-1.84z"/><path fill="#010101" d="M99 66.095q-3.127 3.314-5.36 3.313-.907 0-1.462-.638t-.556-1.71q0-1.452 1.192-4.438.637-1.603.637-2.036-.001-.435-.338-.435-.19 0-.501.19-.286.19-.664.53-.339.312-.759.759-.367.382-.784.869l-.759.883q-.5.61-.622 1.289a21 21 0 0 0-.271 2.119q-.041.716-.04 1.94l-2.992.705q-.15-1.832-.15-2.728 0-2.185.509-4.14.507-1.954 1.63-4.398l3.303-.637q-1.042 2.809-1.367 4.424 2.219-2.483 3.523-3.441 1.303-.957 2.317-.956.69 0 1.149.522t.46 1.307q0 1.302-1.163 4.29-.8 2.047-.8 2.66 0 .817.665.817.99 0 3.203-2.62z"/><path fill="#fff" d="m58.962 49.195-.614.174a1.1 1.1 0 0 0-.17-.299.8.8 0 0 0-.302-.244 1.1 1.1 0 0 0-.49-.096q-.408 0-.68.19-.27.184-.27.472 0 .255.186.404.184.148.579.247l.66.163q.597.145.89.444.292.297.292.764 0 .384-.22.685a1.46 1.46 0 0 1-.608.477q-.39.174-.91.174-.68 0-1.126-.296-.447-.296-.565-.866l.649-.162q.092.36.35.54.26.18.68.18.479 0 .76-.203.283-.206.283-.494a.52.52 0 0 0-.162-.39q-.162-.159-.498-.237l-.741-.175q-.612-.145-.898-.45a1.1 1.1 0 0 1-.284-.77q0-.377.211-.668a1.44 1.44 0 0 1 .583-.456q.37-.165.84-.165.66 0 1.036.29.38.291.539.767M61.88 52.75q-.627 0-1.078-.296a1.93 1.93 0 0 1-.695-.816 2.8 2.8 0 0 1-.244-1.188q0-.68.25-1.2.252-.522.7-.816a1.9 1.9 0 0 1 1.055-.296q.469 0 .845.174.377.174.617.488t.299.732h-.684a1.06 1.06 0 0 0-.348-.54q-.265-.239-.718-.238-.4 0-.7.209a1.36 1.36 0 0 0-.467.583q-.165.375-.165.88 0 .517.162.9.165.384.464.596.3.213.706.212.267 0 .484-.093a1 1 0 0 0 .582-.685h.684a1.59 1.59 0 0 1-.887 1.211 1.9 1.9 0 0 1-.863.183M64.628 52.657v-4.461h.683v4.461zm.347-5.205a.49.49 0 0 1-.344-.136.44.44 0 0 1-.142-.328.44.44 0 0 1 .142-.328.49.49 0 0 1 .344-.137q.201 0 .342.136.145.137.145.329a.44.44 0 0 1-.145.328.48.48 0 0 1-.342.136M67.2 51.03l-.011-.848h.139l1.946-1.986h.846l-2.074 2.103h-.058zm-.637 1.627V46.71h.684v5.948zm2.827 0-1.738-2.207.487-.477 2.12 2.684zM71 52.657v-4.461h.683v4.461zm.347-5.205a.49.49 0 0 1-.344-.136.44.44 0 0 1-.142-.328.44.44 0 0 1 .141-.328.49.49 0 0 1 .345-.137q.2 0 .342.136.145.137.145.329a.44.44 0 0 1-.145.328.48.48 0 0 1-.342.136M74.87 48.196v.58h-2.306v-.58zm-1.634-1.069h.684v4.252q0 .29.084.436a.44.44 0 0 0 .22.192.9.9 0 0 0 .287.046q.113 0 .185-.012l.116-.023.139.616a1.422 1.422 0 0 1-.51.081q-.29 0-.568-.125a1.13 1.13 0 0 1-.457-.38q-.18-.256-.18-.645z"/></svg>