<svg xmlns="http://www.w3.org/2000/svg" width="100" height="100" fill="none"><path fill="#001A5E" d="M12.564 62.02c6.376 0 11.544-5.154 11.544-11.51 0-6.357-5.168-11.51-11.544-11.51S1.019 44.153 1.019 50.51c0 6.356 5.169 11.51 11.545 11.51"/><path fill="#7A9AEF" d="M13.29 39.02c-5.293.332-9.487 4.728-9.487 10.102 0 5.59 4.547 10.123 10.153 10.123 5.39 0 9.78-4.182 10.133-9.458-.373-5.785-5.018-10.396-10.8-10.767"/><path fill="#001A5E" d="M10.976 57.506c3.15 0 5.704-2.546 5.704-5.687 0-3.14-2.554-5.687-5.704-5.687S5.273 48.68 5.273 51.82s2.553 5.686 5.703 5.686"/><path fill="#001A5E" d="m9.685 50.292-6.479 5.405 2.59 3.087 6.48-5.404zM33.712 51.878h2.646v1.895s-.47.352-1.999.352c-1.137 0-3.195-.274-3.195-3.38 0-3.557 2.078-3.87 3.999-3.87 1.92 0 3.802.645 3.802.645v-3.38s-1.352-.606-4.135-.606c-3.176 0-7.742 1.485-7.742 6.526 0 4.768 2.175 7.406 7.33 7.406 3.704 0 5.272-1.23 5.272-1.23v-6.781h-5.978zM82.497 43.866h-3.92v13.346h3.92zM61.133 50.94l-5.077-7.074h-3.41v13.346h3.92v-6.995l5.096 6.995h3.39V43.866h-3.92zM44.12 43.866h-2.96v13.346h10.251000000000001v-2.95h-6.33v-2.248h5.487v-2.95H45.08v-2.248h6.331v-2.95H44.12M73.99 49.22c-2.195-.586-3.41-.782-3.41-1.505s.392-1.016 2.078-1.016c2.214 0 3.743.762 3.743.762v-3.283s-2.097-.644-3.9-.644c-3.215 0-5.88.82-5.88 3.83 0 3.009 1.47 3.693 3.489 4.26 2.018.566 3.038 1.016 3.038 1.7 0 .664-.51 1.075-2 1.075-2.567 0-4.41-.997-4.41-.997v3.224s1.804.86 4.802.86c4.116 0 5.626-2.032 5.626-4.084s-.98-3.596-3.176-4.182M95.1 43.866l-3.43 6.683-3.43-6.683h-3.9v13.346h3.92v-6.995l2.37 4.807h2.0780000000000003l2.392-4.807v6.995h3.92V43.866z"/></svg>