<svg xmlns="http://www.w3.org/2000/svg" width="100" height="100" fill="none"><path fill="#09A3D5" d="M13.252 47.29c-2.254-.273-2.418-3.282-5.29-3.026-1.4 0-2.69.583-2.69 1.878 0 1.933 2.981 2.115 4.78 2.607 3.073.93 6.036 1.569 6.036 4.906 0 4.249-3.308 5.707-7.69 5.707-3.69 0-7.398-1.294-7.398-4.668 0-.93.89-1.678 1.763-1.678 1.091 0 1.49.475 1.873 1.24.854 1.496 1.8 2.298 4.163 2.298 1.49 0 3.035-.565 3.035-1.878 0-1.86-1.89-2.261-3.835-2.699-3.454-.966-6.417-1.459-6.763-5.306-.363-6.547 13.234-6.802 14.016-1.058-.018 1.04-.982 1.678-2 1.678m16.18-5.743c4.78 0 7.489 4.011 7.489 8.953 0 4.96-2.636 8.954-7.49 8.954-2.69 0-4.38-1.15-5.599-2.918v6.546c0 1.97-.636 2.918-2.072 2.918-1.745 0-2.073-1.112-2.073-2.918V44.026c0-1.55.655-2.498 2.073-2.498 1.327 0 2.072 1.058 2.072 2.499v.528c1.363-1.696 2.909-3.008 5.6-3.008m-1.128 14.497c2.8 0 4.054-2.59 4.054-5.617 0-2.954-1.273-5.616-4.054-5.616-2.908 0-4.254 2.407-4.254 5.616 0 3.118 1.364 5.617 4.254 5.617m11.87-9.83c0-3.446 3.945-4.667 7.78-4.667 5.382 0 7.6 1.568 7.6 6.783v5.015c0 1.185.727 3.556.727 4.267 0 1.094-1 1.769-2.073 1.769-1.181 0-2.072-1.404-2.69-2.407-1.745 1.404-3.6 2.407-6.435 2.407-3.127 0-5.6-1.86-5.6-4.906 0-2.699 1.928-4.267 4.255-4.796 0 .019 7.489-1.768 7.489-1.787 0-2.297-.818-3.318-3.236-3.318-2.127 0-3.217.583-4.053 1.878-.673.966-.582 1.55-1.873 1.55-.981-.037-1.89-.73-1.89-1.787m6.4 10.34c3.272 0 4.653-1.732 4.653-5.197v-.73c-.89.292-4.454 1.186-5.417 1.332-1.036.2-2.073.966-2.073 2.188.055 1.35 1.418 2.407 2.836 2.407M70.66 35.018c4.635 0 9.634 2.772 9.634 7.185 0 1.13-.854 2.079-1.963 2.079-1.509 0-1.727-.82-2.4-1.97-1.108-2.06-2.435-3.428-5.29-3.428-4.435-.036-6.416 3.775-6.416 8.516 0 4.778 1.654 8.224 6.235 8.224 3.054 0 4.726-1.769 5.599-4.066.345-1.058.981-2.08 2.29-2.08 1.036 0 2.073 1.058 2.073 2.19 0 4.667-4.763 7.913-9.653 7.913-5.363 0-8.399-2.28-10.053-6.054-.818-1.805-1.327-3.683-1.327-6.255-.054-7.239 4.163-12.254 11.27-12.254m26.486 6.529c1.181 0 1.872.765 1.872 1.969 0 .492-.382 1.459-.527 1.97l-5.69 15.007C91.53 63.757 90.583 66 86.275 66c-2.054 0-3.836-.182-3.836-1.97 0-1.039.782-1.55 1.873-1.55.2 0 .527.092.727.092.309 0 .527.091.727.091 2.163 0 2.472-2.225 3.236-3.756l-5.49-13.64c-.31-.73-.527-1.24-.527-1.678 0-1.204.927-2.079 2.181-2.079 1.4 0 1.945 1.094 2.29 2.298l3.636 10.831 3.636-10.01c.51-1.514.564-3.082 2.418-3.082"/></svg>