<svg xmlns="http://www.w3.org/2000/svg" width="100" height="100" fill="none"><path fill="#201C1D" d="M98.903 40.303a.56.56 0 0 1-.526.258h-1.205c-.404 0-.468-.096-.468-.47v-5.103a3 3 0 0 0-.144-.907.77.77 0 0 0-.242-.396.74.74 0 0 0-.424-.18.84.84 0 0 0-.5.099.86.86 0 0 0-.357.372 2.9 2.9 0 0 0-.348 1.418v4.665c0 .369-.089.46-.45.46h-1.37c-.264 0-.38-.12-.38-.389v-8.178c0-.283.116-.388.392-.388h1.285c.279 0 .393.114.395.408.003.295 0 .584 0 .902q.145-.167.223-.374a1.9 1.9 0 0 1 .496-.651c.21-.178.454-.308.717-.381 1.392-.352 2.6.351 2.805 1.786q.079.421.081.85a.22.22 0 0 0 .04.159zM59.225 32.647c.473-.85 1.113-1.29 2.098-1.278.985.01 1.559.584 1.965 1.46.095-.162.17-.301.253-.431.187-.283.433-.52.72-.696a2.26 2.26 0 0 1 1.927-.205c.317.111.605.292.846.53.344.348.549.815.573 1.309.1 1.134.028 2.267.039 3.418s0 2.24 0 3.36c0 .302-.086.388-.381.388h-1.453c-.24 0-.364-.114-.367-.352v-4.629q.015-.659-.045-1.315a.82.82 0 0 0-.36-.61.78.78 0 0 0-.695-.082c-.202.05-.384.162-.522.321a1.05 1.05 0 0 0-.251.567 5 5 0 0 0-.09.98v4.649c0 .388-.085.468-.461.468h-1.308c-.334 0-.431-.097-.431-.437v-4.836a3.8 3.8 0 0 0-.062-1.023.9.9 0 0 0-.268-.476.86.86 0 0 0-.494-.221.9.9 0 0 0-.58.138.93.93 0 0 0-.375.471 2.9 2.9 0 0 0-.158.85c-.087 1.738 0 3.476-.04 5.213 0 .244-.08.326-.325.33h-1.452c-.301 0-.382-.08-.382-.39v-8.18c0-.334.064-.388.382-.388h1.355c.278 0 .362.094.364.363.003.27-.022.496-.022.734M75.786 35.884v1.494c-.011.538.18 1.06.534 1.46a.37.37 0 0 1 .121.31.37.37 0 0 1-.174.282c-.312.284-.623.567-.921.85-.35.34-.47.343-.818 0a3 3 0 0 1-.523-.62c-.081-.145-.148-.16-.26-.029a3 3 0 0 1-2.061.967c-.44.04-.885-.01-1.305-.15a2.07 2.07 0 0 1-.901-.648 2.1 2.1 0 0 1-.446-1.028 3.23 3.23 0 0 1 .147-1.933 2.7 2.7 0 0 1 .686-.975c.297-.27.65-.468 1.031-.58q1.01-.305 2.057-.426.238.005.473-.04c.075-.028.117-.054.12-.139a3 3 0 0 0-.106-1c-.17-.542-.79-.698-1.158-.632-.251.035-.486.15-.67.327s-.309.41-.357.665c-.064.258-.178.317-.437.283q-.601-.091-1.207-.139c-.312-.025-.446-.175-.382-.479.084-.465.284-.901.581-1.265a2.7 2.7 0 0 1 1.117-.81c1-.436 2.124-.474 3.15-.107 1.113.41 1.606 1.06 1.67 2.358.039.697.028 1.397.039 2.004m-2.243.887v-.465c0-.113-.056-.164-.153-.139-.242.06-.493.023-.738.08-.396.05-.764.234-1.043.524a1.54 1.54 0 0 0-.223 1.582.9.9 0 0 0 .278.388c.504.425 1.17.105 1.436-.269a2.76 2.76 0 0 0 .443-1.7M55.324 35.552V37.3c-.01.56.19 1.104.556 1.522a.38.38 0 0 1 0 .533l-.028.025q-.573.533-1.155 1.05a.33.33 0 0 1-.464-.015 3.6 3.6 0 0 1-.69-.81c-.059-.083-.087-.14-.193-.03-.481.56-1.15.918-1.875 1.004-.835.091-1.65.029-2.29-.632a2.47 2.47 0 0 1-.635-1.448 3.16 3.16 0 0 1 .084-1.33c.118-.453.351-.866.676-1.199.325-.332.73-.572 1.174-.694.666-.2 1.348-.34 2.037-.422q.239.004.473-.037c.09-.029.126-.066.126-.159a3.6 3.6 0 0 0-.098-.958c-.145-.533-.762-.734-1.157-.658-.26.029-.504.145-.691.33-.188.186-.309.43-.345.694a.33.33 0 0 1-.13.21.32.32 0 0 1-.237.056h-.014c-.423-.06-.835-.113-1.266-.159-.317-.034-.423-.173-.348-.49.309-1.332 1.183-2.044 2.454-2.296a4.3 4.3 0 0 1 2.13.042c.653.196 1.26.5 1.608 1.154.182.361.278.762.278 1.168.03.604.02 1.202.02 1.8m-4.44 2.22c-.024.24.023.483.135.697a.84.84 0 0 0 .343.373c.15.086.32.123.491.106.213-.025.417-.105.59-.232.175-.128.314-.299.404-.497.26-.611.357-1.282.278-1.944 0-.1-.07-.12-.142-.105q-.481.038-.954.136c-.74.215-1.18.643-1.141 1.465zM84.254 36.1a5.8 5.8 0 0 1 .662-3.014c.221-.442.544-.824.94-1.112a3 3 0 0 1 1.34-.543 3.27 3.27 0 0 1 2.298.425 3.6 3.6 0 0 1 1.391 1.726c.373.92.53 1.914.457 2.906a5.2 5.2 0 0 1-.89 2.772c-.292.436-.683.793-1.14 1.04a3.1 3.1 0 0 1-1.485.377 3 3 0 0 1-1.322-.233 3.1 3.1 0 0 1-1.1-.784 4.4 4.4 0 0 1-1.023-2.194 5.5 5.5 0 0 1-.128-1.367m3.684 2.851a.83.83 0 0 0 .599-.388c.31-.493.463-1.071.44-1.656a13 13 0 0 0 0-1.576 6.8 6.8 0 0 0-.257-1.505 1 1 0 0 0-.404-.532 1 1 0 0 0-.642-.16.87.87 0 0 0-.477.164.9.9 0 0 0-.31.403c-.223.476-.332.999-.318 1.525-.04.709-.014 1.42.078 2.124.048.38.164.748.342 1.085a.95.95 0 0 0 .395.411.92.92 0 0 0 .554.105M80.52 33.37h-2.505c-.262 0-.356-.054-.382-.31a5.7 5.7 0 0 1 0-1.28c.028-.207.154-.27.332-.27h4.917c.362 0 .45.091.45.457v.567c.022.374-.094.742-.325 1.034-.556.788-1.077 1.593-1.611 2.39l-.94 1.417c-.031.045-.093.085-.068.145s.109.042.167.04a5.3 5.3 0 0 1 2.608.628.56.56 0 0 1 .255.221c.06.098.09.213.084.33v1.204c0 .303-.192.43-.464.284a6 6 0 0 0-1.837-.593 5.5 5.5 0 0 0-2.933.374c-.192.082-.381.179-.587.255a.255.255 0 0 1-.31-.1.3.3 0 0 1-.04-.112 10.3 10.3 0 0 1 .032-1.684 1.9 1.9 0 0 1 .373-.745l2.672-4.037a.54.54 0 0 0 .111-.215"/><path fill="#9D5025" d="M1 43.194v-7.338L20.655 26v12.112z"/><path fill="#F58536" d="M20.655 26v12.112l19.569 5.082v-7.256z"/><path fill="#6B3A19" d="m1 43.194 19.655-5.082 19.569 5.082-19.569 2.007z"/><path fill="#9D5025" d="M7.403 47.205 1 47.741v6.862l6.403 1.1zM10.812 46.922v9.348l9.788 1.664V46.13zM6.376 66.772l4.436 2.23v-9.515L6.376 58.36zM4.161 57.795 1 57.005v7.029l3.161 1.61zM13.559 60.165v10.25L20.655 74V61.973z"/><path fill="#F58536" d="M7.403 47.205h3.41v8.385l-3.41.113z"/><path fill="#FBBF93" d="m4.161 57.795 6.735-.765-4.019-.706-5.877.68zM12.755 57.37l-6.379.989 4.436 1.128 6.932-1.213z"/><path fill="#F58536" d="M10.896 57.03v.623l-4.52.706v6.831l-2.215.454v-7.849zM17.744 58.274v1.072l-4.185.819v7.934l-2.747.904v-9.516zM33.876 47.205l6.404.536v6.862l-6.404 1.1zM30.44 46.922v9.348l-9.785 1.664V46.13zM34.903 66.772l-4.436 2.23v-9.515l4.436-1.128zM37.149 57.795l3.13-.79v7.029l-3.13 1.61zM27.724 60.165v10.25L20.655 74V61.973z"/><path fill="#9D5025" d="M33.876 47.205h-3.409v8.385l3.41.113z"/><path fill="#FBBF93" d="m37.149 57.795-6.765-.765 4.018-.706 5.878.68zM20.655 58.781l-7.096 1.384 7.096 1.808 7.069-1.808zM28.528 57.37l6.375.989-4.436 1.128-6.904-1.213z"/><path fill="#9D5025" d="M30.384 57.03v.623l4.52.706v6.831l2.245.454v-7.849zM23.563 58.274v1.072l4.16.819v7.934l2.744.904v-9.516z"/><path fill="#201C1D" d="M56.2 53.917v-6.105l-1.912 3.968h-1.67l-1.911-3.968v6.105h-1.648v-8.815h2.049l2.36 5.011 2.373-5.011h2.012v8.815zM63.383 53.917l-.15-.567a3 3 0 0 1-.894.567c-.31.134-.643.206-.98.21a2.05 2.05 0 0 1-1.48-.533 1.897 1.897 0 0 1-.556-1.417c-.008-.38.097-.755.3-1.074.214-.322.513-.575.863-.732.417-.186.869-.277 1.324-.266q.67.008 1.325.164v-.652a1.07 1.07 0 0 0-.237-.802 1.32 1.32 0 0 0-.873-.215 7.5 7.5 0 0 0-2.26.394V47.76a4.5 4.5 0 0 1 1.16-.389 7 7 0 0 1 1.425-.147q1.285 0 1.879.527.592.528.592 1.661v4.504zm-1.512-1.043c.222-.002.44-.05.643-.139a2.4 2.4 0 0 0 .618-.374v-1.105a6 6 0 0 0-.988-.088q-1.085 0-1.085.89a.77.77 0 0 0 .213.61.74.74 0 0 0 .6.218zM71.15 53.637a2.8 2.8 0 0 1-.813.312 4.4 4.4 0 0 1-.988.107q-1.525 0-2.33-.864-.803-.865-.803-2.495 0-1.615.848-2.52.85-.904 2.36-.904a3.56 3.56 0 0 1 1.686.408v1.233a4.8 4.8 0 0 0-1.35-.215 1.64 1.64 0 0 0-1.285.45q-.412.451-.412 1.418v.178q0 .967.407 1.418a1.62 1.62 0 0 0 1.266.482 5.3 5.3 0 0 0 1.425-.23zM76.545 53.917v-4.251a1.1 1.1 0 0 0-.225-.763.9.9 0 0 0-.687-.24c-.485.008-.958.159-1.361.433v4.821h-1.823v-9.413h1.823v3.498a3.8 3.8 0 0 1 2.248-.777c.25-.028.502.001.739.086.236.085.451.223.628.404s.312.401.394.642c.082.242.11.5.081.753v4.819zM81.054 46.409a1.08 1.08 0 0 1-.763-.267 1.056 1.056 0 0 1 0-1.451 1.224 1.224 0 0 1 1.525 0 1.056 1.056 0 0 1 0 1.451c-.211.185-.484.28-.763.267m-.913 7.505v-6.496h1.822v6.5zM87.86 53.917v-4.251a1.1 1.1 0 0 0-.225-.763.9.9 0 0 0-.687-.24c-.48.007-.949.153-1.35.421v4.833h-1.823v-6.5h1.5l.175.7a3.8 3.8 0 0 1 2.374-.89 1.64 1.64 0 0 1 1.37.488 1.731 1.731 0 0 1 .478 1.395v4.819zM92.767 51.12a1.64 1.64 0 0 0 .498 1.216q.45.377 1.41.374a7.2 7.2 0 0 0 1.949-.318v1.233a4 4 0 0 1-1.044.358 6 6 0 0 1-1.255.127q-1.587 0-2.416-.879-.829-.878-.835-2.57 0-1.628.835-2.532a3 3 0 0 1 1.047-.703 2.9 2.9 0 0 1 1.238-.201q1.236 0 1.903.694.669.695.668 1.985a6 6 0 0 1-.036.635 6 6 0 0 1-.086.584zm1.36-2.608a1.26 1.26 0 0 0-.968.374c-.257.303-.401.688-.406 1.088H95.2v-.215q.003-1.247-1.07-1.247zM49.057 66.673v-8.816h1.872v7.288h3.796v1.528zM57.074 63.875a1.64 1.64 0 0 0 .5 1.216q.452.377 1.412.374a7.2 7.2 0 0 0 1.948-.317v1.233c-.33.166-.682.286-1.044.357a6 6 0 0 1-1.255.127q-1.586 0-2.415-.878-.83-.879-.835-2.571 0-1.628.835-2.531a3 3 0 0 1 1.046-.704 2.9 2.9 0 0 1 1.238-.2c.347-.023.695.027 1.023.146.327.12.627.306.88.548q.669.694.669 1.984a6 6 0 0 1-.037.635q-.027.293-.086.584zm1.36-2.608a1.26 1.26 0 0 0-.968.374 1.72 1.72 0 0 0-.406 1.089h2.449v-.215q0-1.248-1.074-1.248M66.118 66.673l-.15-.567c-.263.24-.565.433-.893.567-.31.134-.643.205-.98.21a2.05 2.05 0 0 1-1.48-.533 1.896 1.896 0 0 1-.557-1.417c-.007-.381.098-.755.3-1.075.215-.322.514-.575.863-.731a3.1 3.1 0 0 1 1.325-.267 6 6 0 0 1 1.325.165v-.635a1.07 1.07 0 0 0-.237-.802 1.32 1.32 0 0 0-.874-.216 7.5 7.5 0 0 0-2.26.394v-1.233a4.5 4.5 0 0 1 1.16-.388 7 7 0 0 1 1.426-.148q1.286 0 1.878.528.593.527.593 1.66v4.505zm-1.51-1.043c.22-.003.439-.05.642-.14.223-.095.432-.224.618-.382v-1.105a6 6 0 0 0-.988-.088q-1.085 0-1.088.89a.77.77 0 0 0 .213.61.74.74 0 0 0 .6.217zM69.288 66.673v-6.5h1.5l.225.967c.267-.318.587-.587.944-.794a2 2 0 0 1 .943-.235q.25 0 .498.037v1.717a3.6 3.6 0 0 0-.774-.076 3.9 3.9 0 0 0-1.51.283v4.592zM78.443 66.673V62.42a1.1 1.1 0 0 0-.225-.763.9.9 0 0 0-.687-.24c-.486.008-.958.159-1.361.433v4.833h-1.823v-6.51h1.511l.175.7a3.8 3.8 0 0 1 2.4-.89 1.64 1.64 0 0 1 1.369.486 1.731 1.731 0 0 1 .478 1.395v4.82zM82.951 59.164a1.08 1.08 0 0 1-.762-.266 1.056 1.056 0 0 1 0-1.452 1.224 1.224 0 0 1 1.525 0 1.056 1.056 0 0 1 0 1.452c-.211.185-.484.28-.763.266m-.912 7.506v-6.497h1.822v6.5zM89.758 66.673V62.42a1.1 1.1 0 0 0-.225-.763.9.9 0 0 0-.687-.24c-.486.008-.958.159-1.361.433v4.833h-1.823v-6.51h1.5l.175.7a3.8 3.8 0 0 1 2.399-.89 1.64 1.64 0 0 1 1.37.486 1.731 1.731 0 0 1 .478 1.395v4.82zM97.202 65.885a2.4 2.4 0 0 1-1.67.649 2.2 2.2 0 0 1-1.03-.215 2.26 2.26 0 0 1-.823-.67 3.73 3.73 0 0 1-.693-2.36 3.82 3.82 0 0 1 .699-2.404c.219-.292.503-.526.829-.684a2.2 2.2 0 0 1 1.044-.22c.338-.003.673.061.987.19.314.128.598.321.835.566l.137-.567h1.5v5.995q0 1.551-.85 2.418-.848.868-2.348.865a5.04 5.04 0 0 1-2.298-.547v-1.248a7.2 7.2 0 0 0 2.134.394 1.58 1.58 0 0 0 1.194-.388q.367-.388.367-1.267zm-1.113-.726q.299-.002.582-.096c.188-.06.368-.148.531-.261v-3.118a2.23 2.23 0 0 0-1.2-.317q-1.198 0-1.198 1.882a2.66 2.66 0 0 0 .311 1.45c.11.157.257.28.428.36.17.081.359.115.546.1"/></svg>