<svg width="100" height="100" viewBox="0 0 100 100" fill="none" xmlns="http://www.w3.org/2000/svg">
<path d="M98.9026 40.3031C98.847 40.3914 98.7684 40.4624 98.6755 40.5079C98.5827 40.5534 98.4792 40.5718 98.3767 40.561C97.976 40.561 97.5752 40.561 97.1717 40.561C96.7682 40.561 96.7042 40.4646 96.7042 40.0905V34.9883C96.7026 34.6801 96.6538 34.3741 96.5595 34.0813C96.5216 33.9266 96.4371 33.7878 96.3178 33.6846C96.1985 33.5814 96.0504 33.5189 95.8944 33.5058C95.7214 33.4856 95.5466 33.5199 95.3933 33.604C95.2401 33.6882 95.1158 33.8181 95.0373 33.9764C94.8033 34.4104 94.6835 34.8986 94.6894 35.3936C94.6894 36.9498 94.6894 38.5116 94.6894 40.0593C94.6894 40.4278 94.6004 40.5185 94.2386 40.5185H92.8695C92.6051 40.5185 92.4882 40.3994 92.4882 40.1301V31.9525C92.4882 31.6691 92.6051 31.5642 92.8806 31.5642H94.1663C94.4445 31.5642 94.5586 31.6776 94.5614 31.9724C94.5642 32.2672 94.5614 32.5563 94.5614 32.8737C94.6567 32.7634 94.7321 32.6367 94.7841 32.4996C94.9016 32.2489 95.0709 32.027 95.2802 31.8489C95.4896 31.6709 95.7342 31.5409 95.9974 31.4678C97.3888 31.1163 98.5965 31.8193 98.8025 33.2536C98.8543 33.534 98.8813 33.8186 98.8831 34.1039C98.8751 34.16 98.8891 34.217 98.9221 34.2627L98.9026 40.3031Z" fill="#201C1D"/>
<path d="M59.2251 32.647C59.6982 31.7966 60.3382 31.3573 61.3233 31.3686C62.3084 31.3799 62.8817 31.9525 63.288 32.8284C63.3826 32.6668 63.4578 32.5279 63.5412 32.3975C63.7284 32.1148 63.9741 31.8773 64.2611 31.7018C64.5481 31.5263 64.8694 31.4169 65.2024 31.3815C65.5353 31.3461 65.8719 31.3855 66.1883 31.4969C66.5047 31.6083 66.7932 31.789 67.0337 32.0262C67.3783 32.3747 67.5828 32.8417 67.6069 33.3358C67.7071 34.4696 67.6348 35.6034 67.6459 36.7542C67.657 37.905 67.6459 38.9935 67.6459 40.1131C67.6459 40.4164 67.5596 40.5015 67.2647 40.5015H65.812C65.5727 40.5015 65.4475 40.3881 65.4447 40.15C65.4447 38.6052 65.4447 37.066 65.4447 35.5212C65.4548 35.0823 65.4399 34.6431 65.4002 34.206C65.3902 34.0829 65.3526 33.9637 65.2902 33.8578C65.2278 33.7519 65.1423 33.662 65.0403 33.5951C64.9384 33.5283 64.8226 33.4862 64.7021 33.4722C64.5817 33.4582 64.4596 33.4726 64.3455 33.5143C64.1433 33.5646 63.9609 33.6765 63.8227 33.835C63.6845 33.9935 63.597 34.1911 63.5718 34.4016C63.5094 34.7245 63.4795 35.0532 63.4828 35.3823V40.0309C63.4828 40.4193 63.3965 40.4986 63.0208 40.4986H61.7129C61.379 40.4986 61.2816 40.4023 61.2816 40.0621V35.2264C61.3073 34.8841 61.2867 34.5398 61.2204 34.2031C61.1831 34.0192 61.089 33.8522 60.9518 33.7267C60.8145 33.6012 60.6414 33.5238 60.4579 33.5058C60.2549 33.485 60.0509 33.5336 59.8781 33.644C59.7053 33.7543 59.5734 33.9201 59.5034 34.1153C59.4076 34.3887 59.3541 34.6755 59.3447 34.9656C59.2585 36.7032 59.3447 38.4408 59.3058 40.1783C59.3058 40.4221 59.2251 40.5043 58.9802 40.5071H57.5276C57.227 40.5071 57.1463 40.4278 57.1463 40.1188C57.1463 38.4502 57.1463 36.7807 57.1463 35.1102C57.1463 34.0539 57.1463 32.9966 57.1463 31.9383C57.1463 31.6039 57.2103 31.55 57.5276 31.55H58.8828C59.1611 31.55 59.2446 31.6436 59.2473 31.9128C59.2501 32.1821 59.2251 32.4089 59.2251 32.647Z" fill="#201C1D"/>
<path d="M75.7857 35.884C75.7857 36.4509 75.7857 36.913 75.7857 37.3778C75.7749 37.9159 75.966 38.438 76.32 38.8376C76.3627 38.8759 76.3959 38.9239 76.4169 38.9778C76.438 39.0316 76.4463 39.0898 76.4411 39.1475C76.436 39.2052 76.4175 39.2609 76.3873 39.31C76.3571 39.3591 76.3159 39.4002 76.2671 39.43C75.9554 39.7135 75.6437 39.9969 75.346 40.2804C74.9953 40.6205 74.8757 40.6234 74.5278 40.2804C74.3273 40.0979 74.1513 39.8892 74.0047 39.6596C73.924 39.5151 73.8572 39.5009 73.7459 39.6313C73.2076 40.2137 72.4682 40.5602 71.6838 40.5979C71.2432 40.6385 70.7992 40.5874 70.3786 40.4476C70.0263 40.3188 69.7149 40.0949 69.4776 39.7998C69.2404 39.5048 69.0863 39.1497 69.0318 38.7724C68.882 38.1281 68.9335 37.4523 69.1792 36.8393C69.3337 36.4661 69.568 36.1327 69.8651 35.8635C70.1621 35.5943 70.5144 35.396 70.8962 35.2831C71.5682 35.0805 72.2564 34.9382 72.9528 34.8579C73.1114 34.8622 73.27 34.8489 73.4258 34.8182C73.501 34.7899 73.5427 34.7644 73.5455 34.6793C73.566 34.3421 73.5303 34.0038 73.4397 33.6788C73.27 33.1374 72.6494 32.9815 72.2821 33.0467C72.0305 33.0818 71.7961 33.1964 71.6119 33.3744C71.4277 33.5524 71.303 33.7847 71.2552 34.0387C71.1912 34.2967 71.0771 34.3562 70.8183 34.3222C70.4176 34.2627 70.0141 34.2145 69.6106 34.1833C69.2989 34.1578 69.1653 34.0076 69.2293 33.7043C69.3126 33.2387 69.5127 32.8029 69.8101 32.4393C70.1075 32.0758 70.4923 31.7968 70.9269 31.6294C71.9267 31.1933 73.0507 31.1549 74.077 31.5217C75.1901 31.9327 75.6827 32.5818 75.7467 33.88C75.7857 34.5773 75.7745 35.2774 75.7857 35.884ZM73.5427 36.7712V36.3064C73.5427 36.193 73.4871 36.142 73.3897 36.1675C73.1476 36.227 72.8971 36.1902 72.6522 36.2468C72.2561 36.2964 71.8883 36.4813 71.6086 36.7712C71.4316 36.9881 71.317 37.2508 71.2777 37.53C71.2384 37.8092 71.2759 38.0941 71.386 38.3529C71.4424 38.5057 71.5386 38.6399 71.6643 38.7412C72.168 39.1664 72.8331 38.8461 73.1002 38.472C73.4286 37.9706 73.5842 37.3724 73.5427 36.7712Z" fill="#201C1D"/>
<path d="M55.3235 35.5519V37.3008C55.3147 37.8614 55.5134 38.4048 55.8801 38.8229C55.9494 38.8936 55.9884 38.9895 55.9884 39.0894C55.9884 39.1893 55.9494 39.2851 55.8801 39.3558L55.8523 39.3813C55.4701 39.7366 55.0852 40.0862 54.6974 40.4301C54.6333 40.4897 54.549 40.5216 54.4622 40.5189C54.3755 40.5163 54.2931 40.4794 54.2327 40.4159C53.9647 40.1818 53.7321 39.9087 53.5425 39.6053C53.4841 39.5231 53.4563 39.4664 53.3505 39.5769C52.8689 40.1364 52.2005 40.494 51.4749 40.5803C50.6401 40.6711 49.8247 40.6087 49.1846 39.9482C48.8211 39.5506 48.5978 39.041 48.5501 38.4998C48.483 38.0557 48.5115 37.6021 48.6336 37.1704C48.7519 36.7172 48.9852 36.3036 49.31 35.9713C49.6348 35.6389 50.0398 35.3994 50.4842 35.2769C51.1502 35.0774 51.8317 34.9361 52.5212 34.8546C52.6797 34.8581 52.8382 34.8457 52.9943 34.8177C53.0834 34.7894 53.1195 34.7525 53.1195 34.659C53.1306 34.3366 53.0978 34.0142 53.0222 33.7009C52.8774 33.168 52.2597 32.9668 51.8645 33.0433C51.6046 33.0718 51.3615 33.188 51.1739 33.3734C50.9864 33.5588 50.865 33.8028 50.8293 34.0666C50.815 34.1514 50.7683 34.227 50.6995 34.2769C50.6307 34.3268 50.5453 34.347 50.462 34.333H50.448C50.025 34.2735 49.6132 34.2197 49.1818 34.1743C48.8646 34.1403 48.7589 34.0014 48.834 33.6839C49.1429 32.3517 50.0167 31.6402 51.2885 31.388C51.9906 31.2227 52.722 31.2373 53.4173 31.4305C54.0713 31.6261 54.6779 31.9293 55.0258 32.5841C55.2085 32.9453 55.3039 33.3457 55.3041 33.752C55.3347 34.3557 55.3235 34.9538 55.3235 35.5519ZM50.8849 37.7713C50.8603 38.0121 50.9068 38.2549 51.0185 38.4686C51.0925 38.6261 51.2124 38.7566 51.3618 38.8423C51.5111 38.928 51.6828 38.9648 51.8534 38.9477C52.0664 38.9232 52.2697 38.8434 52.4437 38.7158C52.6177 38.5882 52.7565 38.4172 52.8468 38.2192C53.1075 37.6077 53.2036 36.9365 53.1251 36.2747C53.1251 36.1755 53.0555 36.1556 52.9832 36.1698C52.6626 36.1955 52.3439 36.2409 52.0287 36.3059C51.2884 36.5213 50.8488 36.9493 50.8877 37.7713H50.8849Z" fill="#201C1D"/>
<path d="M84.2538 36.0995C84.1987 35.0522 84.4278 34.0097 84.9161 33.0863C85.137 32.6438 85.4596 32.2622 85.8564 31.974C86.2532 31.6858 86.7126 31.4995 87.1953 31.431C87.9867 31.2844 88.8036 31.4354 89.4939 31.8562C90.1251 32.2673 90.6122 32.8717 90.8853 33.5824C91.2579 34.5013 91.4142 35.4963 91.3417 36.4878C91.3149 37.4802 91.0055 38.4433 90.4512 39.26C90.1603 39.6962 89.7692 40.0534 89.3118 40.3004C88.8544 40.5474 88.3447 40.6768 87.827 40.6772C87.3748 40.6994 86.9234 40.6197 86.5049 40.4438C86.0864 40.2679 85.7112 40.0002 85.4059 39.6596C84.8679 39.0416 84.5128 38.2809 84.3818 37.4657C84.2824 37.0177 84.2393 36.5586 84.2538 36.0995ZM87.9383 38.951C88.0599 38.935 88.1765 38.8919 88.28 38.8248C88.3834 38.7577 88.471 38.6682 88.5366 38.5627C88.8463 38.0698 88.9998 37.4919 88.9763 36.9073C89.008 36.3825 89.008 35.8561 88.9763 35.3313C88.9476 34.8213 88.8617 34.3163 88.7203 33.8262C88.6488 33.6071 88.5062 33.4193 88.3161 33.2936C88.1259 33.1679 87.8995 33.1118 87.6739 33.1345C87.5026 33.1402 87.3367 33.197 87.1967 33.2978C87.0568 33.3985 86.9489 33.5389 86.8864 33.7014C86.6642 34.1772 86.5555 34.6997 86.5691 35.2264C86.5286 35.935 86.5547 36.6459 86.6471 37.3495C86.6947 37.7297 86.8107 38.0977 86.9893 38.4351C87.0761 38.6101 87.2139 38.7536 87.3837 38.846C87.5535 38.9383 87.7472 38.975 87.9383 38.951Z" fill="#201C1D"/>
<path d="M80.5192 33.3698H78.0147C77.7531 33.3698 77.6585 33.3159 77.6335 33.0608C77.5857 32.6351 77.5857 32.2053 77.6335 31.7796C77.6613 31.5727 77.7865 31.5103 77.9646 31.5103H82.8819C83.2436 31.5103 83.3327 31.601 83.3327 31.9667C83.3327 32.1623 83.3327 32.355 83.3327 32.5336C83.3536 32.9076 83.2376 33.2763 83.0071 33.5682C82.4505 34.3562 81.9301 35.1612 81.3958 35.9577L80.4552 37.375C80.4246 37.4203 80.3634 37.46 80.3885 37.5195C80.4135 37.5791 80.497 37.5621 80.5554 37.5592C81.4629 37.5408 82.36 37.7574 83.1629 38.1885C83.268 38.2337 83.3569 38.3106 83.4177 38.409C83.4784 38.5074 83.508 38.6223 83.5024 38.7384V39.9431C83.5024 40.2464 83.3104 40.3739 83.0377 40.2265C82.4605 39.9304 81.8404 39.7304 81.201 39.6341C80.2081 39.4888 79.195 39.618 78.2679 40.0083C78.0759 40.0905 77.8867 40.1868 77.6808 40.2634C77.6441 40.2779 77.6047 40.2837 77.5655 40.2804C77.5263 40.2771 77.4883 40.2647 77.4545 40.2442C77.4207 40.2237 77.3919 40.1957 77.3704 40.1621C77.3488 40.1286 77.3351 40.0905 77.3301 40.0508C77.2954 39.4896 77.3066 38.9264 77.3635 38.3671C77.4327 38.0938 77.56 37.8393 77.7364 37.6216L80.4079 33.5852C80.4606 33.5229 80.4987 33.4493 80.5192 33.3698Z" fill="#201C1D"/>
<path d="M1 43.1943V35.8557L20.6551 26V38.112L1 43.1943Z" fill="#9D5025"/>
<path d="M20.6551 26V38.112L40.2239 43.1943V35.9379L20.6551 26Z" fill="#F58536"/>
<path d="M1 43.1943L20.6551 38.112L40.2239 43.1943L20.6551 45.2011L1 43.1943Z" fill="#6B3A19"/>
<path d="M7.40328 47.2052L1 47.7409V54.6033L7.40328 55.7031V47.2052Z" fill="#9D5025"/>
<path d="M10.8123 46.9217V56.27L20.5995 57.9339V46.1309L10.8123 46.9217Z" fill="#9D5025"/>
<path d="M6.3764 66.7719L10.8122 69.0027V59.4872L6.3764 58.359V66.7719Z" fill="#9D5025"/>
<path d="M4.16129 57.795L1 57.0041V64.0338L4.16129 65.6438V57.795Z" fill="#9D5025"/>
<path d="M13.5589 60.1646V70.4143L20.6551 74V61.9731L13.5589 60.1646Z" fill="#9D5025"/>
<path d="M7.40326 47.2052H10.8122V55.5897L7.40326 55.7031V47.2052Z" fill="#F58536"/>
<path d="M4.16129 57.795L10.8957 57.0297L6.87733 56.3239L1 57.0041L4.16129 57.795Z" fill="#FBBF93"/>
<path d="M12.7546 57.3698L6.3764 58.359L10.8122 59.4872L17.7442 58.274L12.7546 57.3698Z" fill="#FBBF93"/>
<path d="M10.8958 57.0296V57.6532L6.37645 58.359V65.1903L4.16132 65.6438V57.795L10.8958 57.0296Z" fill="#F58536"/>
<path d="M17.7443 58.274V59.3455L13.5589 60.1646V68.0985L10.8123 69.0027V59.4872L17.7443 58.274Z" fill="#F58536"/>
<path d="M33.8763 47.2052L40.2796 47.7409V54.6033L33.8763 55.7031V47.2052Z" fill="#F58536"/>
<path d="M30.4395 46.9217V56.27L20.6551 57.9339V46.1309L30.4395 46.9217Z" fill="#F58536"/>
<path d="M34.9032 66.7719L30.4673 69.0027V59.4872L34.9032 58.359V66.7719Z" fill="#F58536"/>
<path d="M37.1489 57.795L40.2796 57.0041V64.0338L37.1489 65.6438V57.795Z" fill="#F58536"/>
<path d="M27.7235 60.1646V70.4143L20.6551 74V61.9731L27.7235 60.1646Z" fill="#F58536"/>
<path d="M33.8763 47.2052H30.4673V55.5897L33.8763 55.7031V47.2052Z" fill="#9D5025"/>
<path d="M37.1489 57.795L30.3839 57.0297L34.4023 56.3239L40.2796 57.0041L37.1489 57.795Z" fill="#FBBF93"/>
<path d="M20.6551 58.7814L13.5589 60.1646L20.6551 61.9731L27.7235 60.1646L20.6551 58.7814Z" fill="#FBBF93"/>
<path d="M28.5277 57.3698L34.9032 58.359L30.4674 59.4872L23.5632 58.274L28.5277 57.3698Z" fill="#FBBF93"/>
<path d="M30.3839 57.0296V57.6532L34.9032 58.359V65.1903L37.1489 65.6438V57.795L30.3839 57.0296Z" fill="#9D5025"/>
<path d="M23.5632 58.274V59.3455L27.7235 60.1646V68.0985L30.4674 69.0027V59.4872L23.5632 58.274Z" fill="#9D5025"/>
<path d="M56.2001 53.9173V47.8117L54.2883 51.7801H52.6186L50.7068 47.8117V53.9173H49.0594V45.1019H51.1075L53.4674 50.1134L55.8411 45.1019H57.8531V53.9173H56.2001Z" fill="#201C1D"/>
<path d="M63.3826 53.9173L63.2323 53.3504C62.9695 53.5912 62.6671 53.7831 62.3391 53.9173C62.029 54.0515 61.6963 54.1228 61.3595 54.1271C60.8164 54.1547 60.2845 53.9632 59.879 53.5942C59.6934 53.4113 59.5478 53.1905 59.4519 52.9462C59.356 52.7019 59.3119 52.4398 59.3225 52.1769C59.3153 51.7963 59.42 51.4222 59.623 51.1026C59.8372 50.781 60.1363 50.5275 60.4857 50.3713C60.9027 50.1846 61.3549 50.0937 61.8103 50.1049C62.2564 50.1102 62.7006 50.1653 63.1349 50.2693V49.6173C63.1516 49.4743 63.1391 49.3292 63.0985 49.1912C63.0578 49.0532 62.9897 48.9252 62.8984 48.8152C62.6402 48.6429 62.3315 48.5668 62.0246 48.5997C61.2562 48.6144 60.4944 48.7472 59.7649 48.9937V47.7607C60.133 47.5791 60.5233 47.4485 60.9254 47.3724C61.3942 47.2742 61.8716 47.2248 62.3502 47.225C63.2073 47.225 63.8334 47.4007 64.2286 47.7522C64.6238 48.1037 64.8213 48.6574 64.8213 49.4133V53.9173H63.3826ZM61.8715 52.8742C62.0927 52.8718 62.3112 52.8245 62.5144 52.7353C62.7374 52.6425 62.9456 52.5164 63.1322 52.3612V51.2557C62.8056 51.2003 62.4753 51.1709 62.1443 51.1678C61.4207 51.1678 61.059 51.4645 61.059 52.0579C61.0476 52.1694 61.0608 52.2821 61.0976 52.3878C61.1345 52.4935 61.194 52.5894 61.2718 52.6687C61.3497 52.748 61.4439 52.8086 61.5476 52.8461C61.6514 52.8836 61.762 52.8971 61.8715 52.8856V52.8742Z" fill="#201C1D"/>
<path d="M71.1495 53.6367C70.8963 53.7833 70.6221 53.8885 70.3369 53.9485C70.0125 54.0213 69.6812 54.0574 69.349 54.0562C68.3323 54.0562 67.5559 53.768 67.0198 53.1917C66.4836 52.6153 66.2155 51.7839 66.2155 50.6973C66.2155 49.6202 66.4984 48.7802 67.0643 48.1774C67.6301 47.5746 68.4167 47.2732 69.4241 47.2732C70.0104 47.268 70.5892 47.4081 71.1105 47.6813V48.9144C70.6726 48.7789 70.2184 48.7064 69.7608 48.6989C69.5275 48.678 69.2924 48.7073 69.0709 48.785C68.8494 48.8626 68.6464 48.9869 68.4752 49.1496C68.2006 49.4501 68.0633 49.9225 68.0633 50.5669V50.7455C68.0633 51.3899 68.1987 51.8623 68.4696 52.1627C68.6342 52.3311 68.8326 52.4612 69.0511 52.5444C69.2696 52.6275 69.5031 52.6617 69.7358 52.6446C70.2186 52.633 70.6978 52.5558 71.1606 52.415L71.1495 53.6367Z" fill="#201C1D"/>
<path d="M76.5454 53.9173V49.6655C76.5683 49.3914 76.4877 49.1187 76.3199 48.903C76.228 48.8166 76.1194 48.7506 76.0011 48.7091C75.8828 48.6677 75.7573 48.6517 75.6326 48.6621C75.1476 48.6711 74.6753 48.8216 74.2718 49.0958V53.9173H72.449V44.5038H74.2718V48.0017C74.9216 47.5066 75.7089 47.2347 76.5203 47.225C76.7697 47.1969 77.0221 47.2264 77.2587 47.3114C77.4953 47.3963 77.7101 47.5344 77.8871 47.7155C78.0641 47.8967 78.1988 48.1161 78.2811 48.3575C78.3634 48.5989 78.3912 48.8561 78.3625 49.11V53.9287L76.5454 53.9173Z" fill="#201C1D"/>
<path d="M81.0535 46.4086C80.7753 46.4225 80.5023 46.3272 80.291 46.1422C80.1067 45.9473 80.0037 45.6872 80.0037 45.4166C80.0037 45.1459 80.1067 44.8858 80.291 44.6909C80.5088 44.5176 80.7772 44.4234 81.0535 44.4234C81.3299 44.4234 81.5983 44.5176 81.816 44.6909C82.0004 44.8858 82.1034 45.1459 82.1034 45.4166C82.1034 45.6872 82.0004 45.9473 81.816 46.1422C81.6049 46.3274 81.3319 46.4228 81.0535 46.4086ZM80.1408 53.9145V47.4177H81.9635V53.9173L80.1408 53.9145Z" fill="#201C1D"/>
<path d="M87.8603 53.9173V49.6655C87.8833 49.3914 87.8027 49.1187 87.6349 48.903C87.5429 48.8166 87.4344 48.7506 87.3161 48.7091C87.1977 48.6677 87.0723 48.6516 86.9476 48.6621C86.4675 48.6699 85.9994 48.8163 85.5979 49.0844V53.9173H83.7751V47.4177H85.2751L85.4504 48.1179C86.1203 47.5567 86.9569 47.243 87.8242 47.2278C88.0737 47.1989 88.3264 47.2277 88.5635 47.312C88.8007 47.3964 89.016 47.5342 89.1936 47.715C89.3712 47.8959 89.5065 48.1153 89.5893 48.3568C89.6721 48.5983 89.7004 48.8558 89.672 49.11V53.9287L87.8603 53.9173Z" fill="#201C1D"/>
<path d="M92.7665 51.1196C92.761 51.3466 92.8025 51.5722 92.8883 51.7817C92.9741 51.9912 93.1024 52.18 93.2646 52.3357C93.5652 52.587 94.0355 52.7117 94.6755 52.7098C95.3359 52.6938 95.9911 52.587 96.6235 52.3923V53.6254C96.293 53.7918 95.942 53.9119 95.5799 53.9825C95.1669 54.0683 94.7464 54.1111 94.3249 54.1101C93.2674 54.1101 92.4622 53.8172 91.9094 53.2314C91.3565 52.6456 91.0782 51.7886 91.0745 50.6604C91.0745 49.5758 91.3528 48.732 91.9094 48.1292C92.205 47.8214 92.5617 47.5814 92.9558 47.4255C93.3498 47.2696 93.772 47.2012 94.1941 47.225C95.0178 47.225 95.6523 47.4565 96.0975 47.9194C96.5428 48.3824 96.7654 49.0438 96.7654 49.9036C96.7643 50.1158 96.7522 50.3277 96.7292 50.5386C96.7109 50.7346 96.6821 50.9296 96.643 51.1225L92.7665 51.1196ZM94.1273 48.5119C93.9492 48.5022 93.7711 48.5305 93.6044 48.595C93.4376 48.6594 93.2859 48.7585 93.1589 48.886C92.9019 49.1888 92.758 49.5743 92.7526 49.9745H95.2015V49.7591C95.2033 48.9276 94.8462 48.5119 94.1301 48.5119H94.1273Z" fill="#201C1D"/>
<path d="M49.0566 66.6727V57.8573H50.9295V65.1449H54.7253V66.6727H49.0566Z" fill="#201C1D"/>
<path d="M57.0739 63.875C57.0688 64.1022 57.1107 64.3279 57.1971 64.5375C57.2834 64.747 57.4121 64.9356 57.5749 65.0911C57.8754 65.3424 58.3457 65.4671 58.9857 65.4652C59.6461 65.4492 60.3014 65.3424 60.9337 65.1477V66.3808C60.6033 66.5472 60.2522 66.6674 59.8902 66.7379C59.4771 66.8237 59.0566 66.8665 58.6351 66.8655C57.5776 66.8655 56.7725 66.5726 56.2196 65.9868C55.6668 65.401 55.3885 64.544 55.3848 63.4158C55.3848 62.3312 55.663 61.4874 56.2196 60.8846C56.5152 60.5768 56.872 60.3369 57.266 60.1809C57.66 60.025 58.0822 59.9566 58.5043 59.9804C58.8513 59.9578 59.1992 60.0077 59.5265 60.1272C59.8539 60.2466 60.1538 60.433 60.4078 60.6749C60.853 61.1378 61.0756 61.7992 61.0756 62.659C61.0746 62.8712 61.0625 63.0831 61.0395 63.294C61.021 63.49 60.9922 63.6849 60.9532 63.8779L57.0739 63.875ZM58.4347 61.2673C58.2567 61.2576 58.0786 61.286 57.9118 61.3504C57.7451 61.4148 57.5933 61.5139 57.4663 61.6414C57.2094 61.9442 57.0655 62.3297 57.06 62.7299H59.5089V62.5145C59.5089 61.683 59.1509 61.2673 58.4347 61.2673Z" fill="#201C1D"/>
<path d="M66.1181 66.6727L65.9679 66.1058C65.705 66.3467 65.4027 66.5385 65.0746 66.6727C64.7646 66.8069 64.4318 66.8782 64.095 66.8825C63.5519 66.9101 63.0201 66.7186 62.6146 66.3496C62.4289 66.1667 62.2833 65.9459 62.1874 65.7016C62.0915 65.4574 62.0474 65.1952 62.058 64.9323C62.0509 64.5517 62.1555 64.1776 62.3585 63.858C62.5728 63.5364 62.8718 63.2829 63.2212 63.1267C63.6383 62.9401 64.0905 62.8492 64.5458 62.8603C64.992 62.8656 65.4362 62.9208 65.8705 63.0247V62.3898C65.8871 62.2467 65.8747 62.1016 65.834 61.9636C65.7933 61.8257 65.7252 61.6977 65.6339 61.5876C65.3758 61.4153 65.0671 61.3392 64.7601 61.3722C63.9917 61.3868 63.2299 61.5196 62.5005 61.7662V60.5331C62.8685 60.3515 63.2588 60.2209 63.6609 60.1448C64.1297 60.0466 64.6071 59.9973 65.0857 59.9974C65.9428 59.9974 66.569 60.1731 66.9641 60.5246C67.3593 60.8761 67.5569 61.4298 67.5569 62.1857V66.6897L66.1181 66.6727ZM64.6071 65.6296C64.8283 65.6272 65.0468 65.5799 65.2499 65.4907C65.4734 65.3952 65.6816 65.2663 65.8677 65.1081V64.0026C65.5411 63.9472 65.2108 63.9178 64.8798 63.9147C64.1563 63.9147 63.7936 64.2114 63.7917 64.8048C63.7804 64.9163 63.7936 65.029 63.8304 65.1347C63.8672 65.2404 63.9267 65.3363 64.0046 65.4156C64.0824 65.4949 64.1766 65.5555 64.2804 65.593C64.3841 65.6306 64.4948 65.644 64.6043 65.6325L64.6071 65.6296Z" fill="#201C1D"/>
<path d="M69.2878 66.6727V60.1731H70.7877L71.0131 61.1397C71.2803 60.8218 71.5995 60.5532 71.9565 60.346C72.2473 60.1902 72.5713 60.1094 72.8999 60.1108C73.0666 60.1111 73.233 60.1234 73.398 60.1476V61.8654C73.1435 61.8122 72.8842 61.7866 72.6244 61.7888C72.1073 61.7813 71.5938 61.8776 71.1133 62.0723V66.6642L69.2878 66.6727Z" fill="#201C1D"/>
<path d="M78.4432 66.6727V62.4209C78.4662 62.1468 78.3856 61.8741 78.2178 61.6584C78.1259 61.572 78.0173 61.506 77.899 61.4645C77.7807 61.4231 77.6552 61.407 77.5305 61.4175C77.0455 61.4265 76.5732 61.577 76.1697 61.8512V66.6841H74.3469V60.1731H75.858L76.0333 60.8733C76.7099 60.3066 77.5563 59.9926 78.4321 59.9832C78.6817 59.9543 78.9344 59.9831 79.1715 60.0674C79.4086 60.1518 79.624 60.2896 79.8016 60.4704C79.9792 60.6513 80.1144 60.8707 80.1972 61.1122C80.28 61.3537 80.3083 61.6112 80.2799 61.8654V66.6841L78.4432 66.6727Z" fill="#201C1D"/>
<path d="M82.9514 59.1641C82.6731 59.178 82.4002 59.0826 82.1889 58.8976C82.0046 58.7027 81.9016 58.4426 81.9016 58.172C81.9016 57.9013 82.0046 57.6412 82.1889 57.4463C82.4067 57.273 82.6751 57.1789 82.9514 57.1789C83.2278 57.1789 83.4962 57.273 83.7139 57.4463C83.8983 57.6412 84.0012 57.9013 84.0012 58.172C84.0012 58.4426 83.8983 58.7027 83.7139 58.8976C83.5028 59.0828 83.2297 59.1782 82.9514 59.1641ZM82.0387 66.6699V60.1731H83.8614V66.6727L82.0387 66.6699Z" fill="#201C1D"/>
<path d="M89.7582 66.6727V62.4209C89.7812 62.1468 89.7006 61.8741 89.5328 61.6584C89.4409 61.572 89.3323 61.506 89.214 61.4645C89.0956 61.4231 88.9702 61.407 88.8455 61.4175C88.3605 61.4265 87.8882 61.577 87.4847 61.8512V66.6841H85.6619V60.1731H87.1619L87.3372 60.8733C88.0137 60.3066 88.8601 59.9926 89.736 59.9832C89.9855 59.9543 90.2383 59.9831 90.4754 60.0674C90.7125 60.1518 90.9279 60.2896 91.1054 60.4704C91.283 60.6513 91.4183 60.8707 91.5011 61.1122C91.5839 61.3537 91.6122 61.6112 91.5838 61.8654V66.6841L89.7582 66.6727Z" fill="#201C1D"/>
<path d="M97.2023 65.8847C96.7469 66.3093 96.1499 66.5414 95.5326 66.5338C95.177 66.5461 94.8237 66.4723 94.5015 66.3186C94.1794 66.1648 93.8976 65.9355 93.6792 65.6495C93.1891 64.9667 92.9444 64.133 92.9863 63.2883C92.9434 62.4294 93.1898 61.5813 93.6848 60.8846C93.9037 60.5928 94.1878 60.3585 94.5136 60.2012C94.8394 60.0439 95.1973 59.9682 95.5576 59.9804C95.8959 59.9778 96.2315 60.0423 96.5455 60.1703C96.859 60.2991 97.1431 60.4921 97.3804 60.7372L97.5167 60.1703H99.0167V66.1653C99.0167 67.199 98.7338 68.005 98.1679 68.5832C97.6021 69.1614 96.8192 69.4496 95.8192 69.4477C95.0216 69.4502 94.2345 69.2629 93.5206 68.9007V67.6535C94.209 67.892 94.9283 68.0247 95.655 68.0475C95.8694 68.0677 96.0856 68.0438 96.2908 67.9771C96.4959 67.9104 96.6857 67.8022 96.8489 67.6591C97.0938 67.4003 97.2162 66.9779 97.2162 66.3921L97.2023 65.8847ZM96.0892 65.1591C96.2868 65.1578 96.483 65.1253 96.6708 65.0627C96.8595 65.0028 97.0386 64.9149 97.2023 64.8019V61.6839C96.8393 61.4663 96.4239 61.3564 96.0029 61.3665C95.2033 61.3665 94.8035 61.9939 94.8035 63.2486C94.7678 63.7529 94.8761 64.2569 95.1152 64.6999C95.2249 64.8555 95.3722 64.9795 95.5429 65.0599C95.7135 65.1404 95.9017 65.1745 96.0892 65.1591Z" fill="#201C1D"/>
</svg>
