<svg width="100" height="100" viewBox="0 0 100 100" fill="none" xmlns="http://www.w3.org/2000/svg">
<path d="M77.9956 1H22.2495V56.7461H77.9956V1Z" fill="#A166FF"/>
<path d="M54.7434 47.6654C54.6071 47.6676 54.4736 47.6265 54.362 47.5481L50.093 45.0101L45.8534 47.5481C45.7392 47.6123 45.6104 47.6461 45.4793 47.6461C45.3483 47.6461 45.2194 47.6123 45.1052 47.5481L36.3032 42.2228C36.1929 42.1557 36.1023 42.0607 36.0405 41.9474C35.9786 41.8341 35.9478 41.7064 35.9511 41.5774V36.2081L31.8435 33.8903C31.7333 33.8207 31.6412 33.7258 31.5749 33.6136C31.5086 33.5013 31.4699 33.3749 31.4621 33.2448V24.4721C31.4601 24.3398 31.4947 24.2096 31.562 24.0957C31.6293 23.9818 31.7267 23.8887 31.8435 23.8266L35.9952 21.5381V16.1689C35.9933 16.0401 36.0247 15.913 36.0864 15.7999C36.1481 15.6868 36.2379 15.5916 36.3472 15.5234L45.1493 10.1982C45.2607 10.1262 45.3906 10.0879 45.5233 10.0879C45.656 10.0879 45.7859 10.1262 45.8974 10.1982L50.093 12.7361L54.362 10.1982C54.4735 10.1262 54.6034 10.0879 54.7361 10.0879C54.8688 10.0879 54.9987 10.1262 55.1102 10.1982L63.9122 15.5234C64.0225 15.5905 64.1132 15.6855 64.175 15.7988C64.2368 15.9122 64.2676 16.0398 64.2643 16.1689V21.5381L68.3719 23.856C68.4821 23.9256 68.5742 24.0204 68.6405 24.1327C68.7069 24.2449 68.7455 24.3713 68.7533 24.5014V33.3035C68.7553 33.4357 68.7207 33.566 68.6534 33.6799C68.5861 33.7938 68.4887 33.8869 68.3719 33.9489L64.2496 36.2081V41.548C64.2515 41.6768 64.22 41.8039 64.1583 41.917C64.0967 42.0301 64.0068 42.1253 63.8975 42.1935L55.0955 47.5481C54.9877 47.6113 54.8677 47.6513 54.7434 47.6654ZM50.8559 43.7045L54.7581 46.0077L62.768 41.1079V35.7534C62.7635 35.6225 62.7972 35.4933 62.8649 35.3813C62.9326 35.2693 63.0315 35.1794 63.1494 35.1225L66.4208 33.2741L63.6628 31.8071C63.3415 32.0843 62.945 32.2597 62.5238 32.3111C62.1025 32.3626 61.6755 32.2877 61.2969 32.0961C60.9182 31.9045 60.6051 31.6047 60.3971 31.2348C60.1891 30.8649 60.0957 30.4415 60.1287 30.0184C60.1618 29.5954 60.3197 29.1916 60.5826 28.8585C60.8454 28.5253 61.2013 28.2777 61.6051 28.1472C62.0089 28.0166 62.4423 28.0089 62.8505 28.1251C63.2586 28.2413 63.6231 28.4761 63.8975 28.7998C64.2351 29.1839 64.4134 29.6823 64.3963 30.1934V30.3401L67.2423 31.9098V24.9122L63.1054 22.5943C62.9946 22.529 62.9017 22.4371 62.8351 22.327C62.7686 22.2169 62.7304 22.092 62.7239 21.9635V19.9537H60.6555C60.4973 20.3433 60.2279 20.6777 59.8809 20.9153C59.5339 21.1528 59.1247 21.283 58.7043 21.2895C58.2838 21.296 57.8708 21.1787 57.5166 20.952C57.1624 20.7254 56.8827 20.3995 56.7125 20.015C56.5423 19.6305 56.489 19.2044 56.5593 18.7898C56.6296 18.3752 56.8204 17.9905 57.1079 17.6836C57.3954 17.3768 57.7668 17.1613 58.176 17.0641C58.5851 16.9669 59.0137 16.9923 59.4085 17.1371C59.697 17.2374 59.959 17.4017 60.1749 17.6177C60.3908 17.8336 60.5551 18.0956 60.6555 18.384H62.7239V16.609L54.7288 11.7092L50.8559 14.0124V22.1836L54.9928 24.5748C55.3283 24.3167 55.7332 24.1645 56.1557 24.1378C56.5782 24.1111 56.999 24.211 57.3644 24.4249C57.7297 24.6387 58.023 24.9566 58.2066 25.3381C58.3902 25.7195 58.4558 26.147 58.3951 26.566C58.3343 26.9849 58.15 27.3762 57.8656 27.6897C57.5812 28.0033 57.2097 28.2249 56.7987 28.3261C56.3877 28.4274 55.9558 28.4037 55.5583 28.2581C55.1608 28.1125 54.8158 27.8516 54.5674 27.5088C54.2905 27.1363 54.1459 26.6819 54.1566 26.2178C54.1566 26.0858 54.1566 25.9098 54.1566 25.7777L49.7556 23.2398C49.6464 23.1716 49.5565 23.0764 49.4948 22.9633C49.4332 22.8502 49.4017 22.7231 49.4036 22.5943V14.0417L45.5013 11.7238L41.9512 13.8803V19.1175H40.4842V14.7165L37.5502 16.5503V21.5381L41.2617 23.6652L44.9879 21.5381V17.7239H46.4549V21.9635C46.4593 22.0943 46.4256 22.2236 46.3579 22.3356C46.2902 22.4476 46.1914 22.5375 46.0735 22.5943L41.9072 24.9122V28.4477L46.0001 31.1323C46.1054 31.1965 46.1919 31.2872 46.2511 31.3953C46.3103 31.5034 46.3401 31.6252 46.3375 31.7484V34.257L49.2715 32.4966V29.3426L45.3693 27.0394L46.1175 25.7484L50.4158 28.2863C50.531 28.3414 50.6312 28.4235 50.7078 28.5257C50.7845 28.6279 50.8353 28.7471 50.8559 28.8731V38.5407H54.2593C54.3816 38.1635 54.6076 37.8284 54.9114 37.5736C55.2152 37.3189 55.5846 37.1547 55.9773 37.1C56.37 37.0453 56.7702 37.1022 57.132 37.2642C57.4939 37.4262 57.8029 37.6868 58.0236 38.0162C58.2444 38.3455 58.368 38.7304 58.3803 39.1267C58.3926 39.523 58.2931 39.9147 58.0933 40.2572C57.8934 40.5996 57.6012 40.8789 57.2501 41.063C56.899 41.2472 56.5031 41.3288 56.1078 41.2986C55.7126 41.2746 55.3315 41.143 55.0057 40.9181C54.6799 40.6931 54.4218 40.3834 54.2593 40.0223H50.8559V43.7045ZM42.3913 44.1153L45.4867 46.0077L49.3889 43.7045V34.257L41.071 39.1421L40.3081 37.8658L44.9879 35.1372V32.2032L41.2764 29.7533L37.1247 32.1005L36.3766 30.7802L40.5575 28.4477V24.9122L36.7727 22.8291L33.0611 24.9122V27.6115L36.1859 25.7484L36.934 27.0394L33.0025 29.3426V32.834L36.714 34.9172L40.5869 32.6873L41.3497 33.9783L37.5208 36.2081V41.1373L40.8656 43.2057L44.7385 40.9172L44.8999 40.7998L45.6627 42.0761L42.3913 44.1153ZM56.2985 38.5993C56.1708 38.5993 56.046 38.6372 55.9399 38.7081C55.8337 38.779 55.751 38.8799 55.7021 38.9978C55.6533 39.1158 55.6405 39.2455 55.6654 39.3707C55.6903 39.496 55.7518 39.611 55.842 39.7012C55.9323 39.7915 56.0473 39.853 56.1725 39.8779C56.2978 39.9028 56.4275 39.89 56.5455 39.8412C56.6634 39.7923 56.7642 39.7096 56.8352 39.6034C56.9061 39.4973 56.944 39.3725 56.944 39.2448C56.9364 39.0788 56.8651 38.922 56.7448 38.8072C56.6246 38.6925 56.4647 38.6285 56.2985 38.6287V38.5993ZM62.2838 29.4599C62.1562 29.4599 62.0314 29.4978 61.9252 29.5687C61.8191 29.6396 61.7363 29.7404 61.6875 29.8584C61.6386 29.9763 61.6259 30.1061 61.6508 30.2313C61.6757 30.3565 61.7371 30.4715 61.8274 30.5618C61.9177 30.6521 62.0327 30.7136 62.1579 30.7385C62.2831 30.7634 62.4129 30.7506 62.5309 30.7017C62.6488 30.6529 62.7496 30.5702 62.8205 30.464C62.8915 30.3579 62.9293 30.2331 62.9293 30.1054C62.9183 29.9405 62.846 29.7858 62.7264 29.6717C62.6069 29.5577 62.449 29.4926 62.2838 29.4893V29.4599ZM56.2838 25.6457C56.1555 25.6457 56.0302 25.684 55.9237 25.7556C55.8173 25.8272 55.7346 25.9289 55.6862 26.0477C55.6378 26.1665 55.6259 26.297 55.652 26.4226C55.6781 26.5482 55.7411 26.6632 55.8328 26.7528C55.9246 26.8425 56.0409 26.9028 56.1671 26.926C56.2933 26.9492 56.4235 26.9343 56.5411 26.8832C56.6588 26.8321 56.7586 26.7471 56.8277 26.639C56.8968 26.531 56.9322 26.4048 56.9293 26.2765C56.9217 26.1105 56.8504 25.9537 56.7302 25.8389C56.6099 25.7242 56.45 25.6602 56.2838 25.6604V25.6457ZM58.675 18.6041C58.5474 18.6041 58.4226 18.6419 58.3164 18.7129C58.2103 18.7838 58.1275 18.8846 58.0787 19.0026C58.0298 19.1205 58.017 19.2503 58.0419 19.3755C58.0668 19.5007 58.1283 19.6157 58.2186 19.706C58.3089 19.7963 58.4239 19.8577 58.5491 19.8827C58.6743 19.9076 58.8041 19.8948 58.922 19.8459C59.04 19.7971 59.1408 19.7143 59.2117 19.6082C59.2826 19.502 59.3205 19.3772 59.3205 19.2496C59.3205 19.0784 59.2525 18.9142 59.1314 18.7931C59.0104 18.6721 58.8462 18.6041 58.675 18.6041Z" fill="white"/>
<path d="M22.8803 72.7805L21.648 76.5067H20.049L24.0833 64.6534H25.917L29.9513 76.5067H28.3522L27.076 72.7805H22.8803ZM26.7679 71.5776L25.609 68.1595C25.3449 67.3966 25.1689 66.6925 24.9928 66.003C24.8168 66.7072 24.6261 67.47 24.406 68.1448L23.2324 71.5776H26.7679Z" fill="black"/>
<path d="M31.6235 70.3013C31.6235 69.4211 31.6235 68.6876 31.6235 67.9834H32.9732L33.0465 69.3624C33.302 68.8755 33.6891 68.4701 34.1638 68.1926C34.6384 67.9151 35.1815 67.7765 35.7311 67.7927C36.2622 67.7873 36.7813 67.9505 37.2137 68.259C37.646 68.5674 37.9693 69.0051 38.137 69.5091C38.3712 69.0733 38.6964 68.6931 39.0906 68.3942C39.6284 67.9831 40.2918 67.7706 40.9683 67.7927C42.0979 67.7927 43.7703 68.5409 43.7703 71.4895V76.5067H42.3033V71.6803C42.3033 70.0519 41.7018 69.069 40.4549 69.069C40.0334 69.0882 39.6288 69.2405 39.2993 69.5041C38.9698 69.7677 38.7324 70.129 38.6211 70.536C38.5407 70.7822 38.5011 71.0399 38.5038 71.2988V76.5654H37.0368V71.4162C37.0368 70.0665 36.4353 69.0837 35.2617 69.0837C34.8071 69.0879 34.3661 69.2386 34.004 69.5135C33.6419 69.7883 33.3782 70.1726 33.2519 70.6093C33.1632 70.8538 33.1185 71.1121 33.1199 71.3722V76.5067H31.6529L31.6235 70.3013Z" fill="black"/>
<path d="M51.032 76.5066L50.8559 75.4357C50.5501 75.836 50.1544 76.1587 49.7008 76.3779C49.2472 76.597 48.7484 76.7064 48.2447 76.6973C47.9098 76.7217 47.5736 76.6763 47.2572 76.5638C46.9409 76.4512 46.6514 76.2742 46.4072 76.0438C46.163 75.8134 45.9694 75.5347 45.8388 75.2254C45.7081 74.9162 45.6431 74.5831 45.6481 74.2474C45.6481 72.1936 47.4672 71.064 50.7679 71.0787V70.9173C50.8 70.6533 50.7723 70.3856 50.687 70.1337C50.6017 69.8819 50.4609 69.6525 50.275 69.4623C50.0891 69.2722 49.8629 69.1263 49.613 69.0353C49.3632 68.9444 49.0961 68.9107 48.8315 68.9368C48.0452 68.9441 47.2752 69.162 46.6016 69.5677L46.2496 68.5554C47.0952 68.0472 48.065 67.7831 49.0515 67.7926C51.6628 67.7926 52.2936 69.5676 52.2936 71.284V74.4674C52.2816 75.1496 52.3257 75.8316 52.4256 76.5066H51.032ZM50.7973 72.1056C49.1102 72.1056 47.1884 72.3696 47.1884 74.0127C47.1755 74.2087 47.2045 74.4052 47.2737 74.5891C47.3428 74.7729 47.4504 74.9399 47.5893 75.0788C47.7282 75.2177 47.8952 75.3253 48.0791 75.3944C48.2629 75.4636 48.4594 75.4926 48.6554 75.4797C49.1095 75.4864 49.5539 75.3477 49.9234 75.0837C50.293 74.8197 50.5684 74.4444 50.7093 74.0127C50.7673 73.8528 50.7971 73.684 50.7973 73.5139V72.1056Z" fill="black"/>
<path d="M53.7901 75.6117L57.6336 70.5946C58.0004 70.1398 58.3525 69.7291 58.7486 69.2743H54.1862V68.0127H60.6703V68.9809L56.8708 73.9247C56.5283 74.3938 56.161 74.8443 55.7706 75.2743H60.7584V76.5066H53.7901V75.6117Z" fill="black"/>
<path d="M69.9271 72.1791C69.9791 72.7631 69.9069 73.3514 69.7151 73.9055C69.5233 74.4595 69.2164 74.9667 68.8145 75.3935C68.4126 75.8204 67.9248 76.1573 67.3833 76.382C66.8418 76.6068 66.2588 76.7143 65.6728 76.6974C65.1076 76.7037 64.5474 76.5915 64.0283 76.3682C63.5091 76.1449 63.0424 75.8154 62.6582 75.4008C62.2741 74.9863 61.981 74.4959 61.7978 73.9612C61.6146 73.4266 61.5453 72.8595 61.5945 72.2964C61.5428 71.715 61.6143 71.1292 61.8043 70.5772C61.9944 70.0253 62.2987 69.5196 62.6974 69.0932C63.0961 68.6668 63.5802 68.3293 64.1182 68.1027C64.6561 67.8761 65.2359 67.7655 65.8195 67.7781C66.3877 67.7654 66.9522 67.8729 67.476 68.0936C67.9998 68.3143 68.4711 68.6432 68.8589 69.0587C69.2467 69.4742 69.5423 69.967 69.7264 70.5047C69.9105 71.0425 69.9789 71.6131 69.9271 72.1791ZM63.1642 72.2671C63.1642 74.1302 64.2498 75.5385 65.7608 75.5385C67.2718 75.5385 68.3427 74.0715 68.3427 72.2378C68.3427 70.7708 67.6239 68.9517 65.7901 68.9517C63.9564 68.9517 63.1495 70.6387 63.1495 72.2671H63.1642Z" fill="black"/>
<path d="M71.8783 70.3012C71.8783 69.421 71.8783 68.6875 71.8783 67.9833H73.2426L73.3306 69.4503C73.6068 68.953 74.014 68.541 74.5081 68.2591C75.0021 67.9772 75.564 67.8361 76.1326 67.8513C77.3209 67.8513 79.1546 68.5555 79.1546 71.4748V76.5653H77.5703V71.5922C77.5703 70.2278 77.0568 69.0836 75.6045 69.0836C75.1334 69.0899 74.6768 69.2472 74.3018 69.5324C73.9268 69.8176 73.6532 70.2156 73.5213 70.6679C73.4462 70.8999 73.4114 71.143 73.4186 71.3868V76.5066H71.8783V70.3012Z" fill="black"/>
<path d="M10.3961 93.7147C11.2234 94.217 12.1715 94.4857 13.1394 94.4922C14.6944 94.4922 15.6186 93.656 15.6186 92.4677C15.6186 91.2794 14.9878 90.722 13.3741 90.1058C11.4523 89.4164 10.2494 88.4188 10.2494 86.7464C10.2721 86.277 10.3914 85.8174 10.5998 85.3961C10.8082 84.9749 11.1012 84.6012 11.4605 84.2983C11.8199 83.9955 12.2378 83.7699 12.6882 83.6358C13.1386 83.5018 13.6118 83.462 14.0783 83.519C14.9888 83.4924 15.8916 83.6941 16.7042 84.1058L16.2788 85.3528C15.5879 84.985 14.8169 84.7935 14.0343 84.7953C12.4059 84.7953 11.8044 85.7635 11.8044 86.5704C11.8044 87.6706 12.5232 88.2281 14.1516 88.8589C16.1614 89.6364 17.1736 90.59 17.1736 92.3357C17.1736 94.0814 15.824 95.7538 13.022 95.7538C11.9656 95.7654 10.9243 95.5025 10 94.991L10.3961 93.7147Z" fill="black"/>
<path d="M23.9954 95.5778L23.878 94.5069C23.5729 94.9081 23.1774 95.2315 22.7236 95.4507C22.2698 95.67 21.7706 95.7789 21.2667 95.7685C20.9249 95.8061 20.579 95.7704 20.2521 95.6639C19.9251 95.5573 19.6246 95.3822 19.3706 95.1504C19.1166 94.9186 18.9149 94.6354 18.779 94.3195C18.643 94.0037 18.5759 93.6625 18.5821 93.3187C18.5821 91.2649 20.4159 90.1353 23.702 90.1499V89.9886C23.7369 89.7241 23.7112 89.4551 23.627 89.2019C23.5427 88.9488 23.4019 88.7181 23.2154 88.5274C23.0289 88.3366 22.8014 88.1907 22.5503 88.1008C22.2991 88.0108 22.0307 87.9791 21.7655 88.0081C20.9835 88.0129 20.2176 88.231 19.5503 88.6389L19.1983 87.6267C20.0429 87.1163 21.0134 86.8521 22.0002 86.8638C24.5968 86.8638 25.2276 88.6389 25.2276 90.3553V93.5387C25.22 94.2213 25.269 94.9034 25.3743 95.5778H23.9954ZM23.7606 91.1768C22.0736 91.1768 20.1518 91.4409 20.1518 93.0839C20.1388 93.2799 20.1679 93.4765 20.237 93.6603C20.3062 93.8442 20.4138 94.0112 20.5527 94.1501C20.6916 94.2889 20.8586 94.3966 21.0424 94.4657C21.2263 94.5348 21.4228 94.5639 21.6188 94.5509C22.074 94.5624 22.5205 94.4255 22.891 94.1609C23.2615 93.8962 23.5359 93.5182 23.6726 93.0839C23.7307 92.924 23.7604 92.7553 23.7606 92.5852V91.1768Z" fill="black"/>
<path d="M35.1005 87.0544C35.1005 87.6705 35.0271 88.36 35.0271 89.4016V94.3454C35.1159 95.0417 35.0545 95.749 34.847 96.4195C34.6395 97.0901 34.2907 97.7085 33.8242 98.233C32.9517 98.9509 31.8426 99.3171 30.7142 99.2599C29.7245 99.2821 28.7468 99.0389 27.8828 98.5557L28.2789 97.3674C29.0323 97.8176 29.8953 98.0511 30.7728 98.0423C32.3572 98.0423 33.5161 97.2061 33.5161 95.1082V94.1547C33.2349 94.6183 32.8352 94.9986 32.3582 95.2564C31.8812 95.5143 31.3441 95.6404 30.8022 95.6217C30.2871 95.6001 29.7819 95.4739 29.3171 95.2508C28.8524 95.0277 28.438 94.7123 28.099 94.3239C27.76 93.9356 27.5036 93.4823 27.3454 92.9916C27.1872 92.501 27.1305 91.9833 27.1787 91.4701C27.1202 90.9195 27.174 90.3628 27.3368 89.8337C27.4997 89.3045 27.7682 88.8139 28.1261 88.3915C28.4841 87.9691 28.924 87.6237 29.4193 87.3762C29.9145 87.1287 30.4549 86.9843 31.0076 86.9517C31.5442 86.9284 32.077 87.0528 32.5478 87.3115C33.0187 87.5702 33.4094 87.9532 33.6775 88.4187L33.7509 87.1278L35.1005 87.0544ZM33.5015 90.4872C33.512 90.2444 33.4823 90.0015 33.4134 89.7684C33.2811 89.2959 32.9967 88.8802 32.6041 88.5858C32.2116 88.2914 31.7329 88.1347 31.2423 88.14C29.7753 88.14 28.719 89.3869 28.719 91.3674C28.719 93.0251 29.5552 94.4188 31.2276 94.4188C31.707 94.418 32.1736 94.2638 32.559 93.9787C32.9444 93.6936 33.2284 93.2926 33.3694 92.8344C33.4633 92.5709 33.508 92.2925 33.5015 92.0129V90.4872Z" fill="black"/>
<path d="M38.4746 91.602C38.4411 91.9958 38.494 92.3921 38.6296 92.7632C38.7653 93.1344 38.9803 93.4715 39.2597 93.7509C39.5391 94.0303 39.8762 94.2453 40.2474 94.3809C40.6185 94.5166 41.0148 94.5695 41.4086 94.536C42.2137 94.563 43.015 94.4127 43.7558 94.0959L44.0198 95.2109C43.1247 95.5873 42.1592 95.7674 41.1885 95.739C40.6199 95.7752 40.0502 95.6879 39.5185 95.4831C38.9868 95.2782 38.5058 94.9607 38.1086 94.5523C37.7113 94.1438 37.4072 93.6542 37.2171 93.1171C37.0271 92.58 36.9556 92.008 37.0076 91.4407C37.0076 88.8734 38.4746 86.8489 40.9978 86.8489C41.5009 86.8579 41.9966 86.972 42.453 87.1839C42.9094 87.3958 43.3164 87.7008 43.648 88.0794C43.9795 88.4579 44.2283 88.9016 44.3782 89.3819C44.5281 89.8622 44.576 90.3686 44.5186 90.8685C44.5321 91.1079 44.5321 91.3479 44.5186 91.5874L38.4746 91.602ZM43.0076 90.4871C43.0513 90.1783 43.0289 89.8637 42.9417 89.5642C42.8546 89.2647 42.7048 88.9871 42.5023 88.7499C42.2998 88.5127 42.0491 88.3212 41.767 88.1882C41.4848 88.0553 41.1776 87.9838 40.8658 87.9785C40.2273 88.0226 39.6286 88.3049 39.1885 88.7695C38.7483 89.2341 38.4987 89.8472 38.4892 90.4871H43.0076Z" fill="black"/>
<path d="M56.4747 90.3698C56.3867 88.712 56.284 86.7316 56.2986 85.2499C55.9026 86.7169 55.4038 88.1839 54.8316 89.7536L52.7338 95.5043H51.5749L49.6678 89.8563C49.0957 88.1839 48.6262 86.6582 48.2888 85.2499C48.2888 86.7169 48.1568 88.7121 48.0541 90.4871L47.7313 95.5776H46.2643L47.0859 83.7242H49.037L51.0614 89.4602C51.5602 90.9272 51.9563 92.2182 52.2644 93.4505C52.5725 92.2475 52.9979 90.9419 53.526 89.4602L55.6385 83.7242H57.5896L58.3231 95.5776H56.7241L56.4747 90.3698Z" fill="black"/>
<path d="M65.394 95.5777L65.2766 94.5068C64.966 94.9202 64.559 95.2512 64.0911 95.4711C63.6231 95.691 63.1085 95.7931 62.592 95.7684C62.2565 95.7927 61.9195 95.7473 61.6025 95.6349C61.2854 95.5226 60.995 95.3457 60.7497 95.1155C60.5043 94.8854 60.3093 94.6068 60.177 94.2976C60.0447 93.9883 59.9778 93.6549 59.9807 93.3185C59.9807 91.2647 61.8145 90.1351 65.1006 90.1498V89.9884C65.1355 89.7239 65.1099 89.4549 65.0256 89.2018C64.9413 88.9487 64.8006 88.718 64.614 88.5272C64.4275 88.3365 64.2001 88.1906 63.9489 88.1006C63.6977 88.0107 63.4294 87.979 63.1641 88.008C62.3821 88.0128 61.6162 88.2309 60.949 88.6388L60.5969 87.6266C61.4425 87.1183 62.4123 86.8543 63.3989 86.8637C65.9955 86.8637 66.6409 88.6388 66.6409 90.3552V93.5386C66.6289 94.2208 66.673 94.9028 66.773 95.5777H65.394ZM65.1739 91.1767C63.4869 91.1767 61.5651 91.4408 61.5651 93.0838C61.5497 93.2804 61.577 93.478 61.6453 93.663C61.7135 93.848 61.8211 94.016 61.9605 94.1554C62.0999 94.2948 62.2679 94.4024 62.4529 94.4706C62.6379 94.5389 62.8355 94.5663 63.0321 94.5508C63.4887 94.5607 63.9363 94.4234 64.3088 94.1592C64.6814 93.895 64.959 93.518 65.1006 93.0838C65.1511 92.922 65.1807 92.7544 65.1886 92.585L65.1739 91.1767Z" fill="black"/>
<path d="M70.7046 90.9715C70.9415 90.6354 71.1962 90.3122 71.4674 90.0032L73.9613 87.0692H75.7951L72.5677 90.5607L76.3085 95.5779H74.4308L71.4968 91.4996L70.7046 92.3798V95.5779H69.1642V83.1523H70.7046V90.9715Z" fill="black"/>
<path d="M78.289 91.602C78.2555 91.9958 78.3084 92.3921 78.444 92.7632C78.5797 93.1344 78.7947 93.4715 79.0741 93.7509C79.3535 94.0303 79.6906 94.2453 80.0618 94.3809C80.4329 94.5166 80.8292 94.5695 81.223 94.536C82.0329 94.5627 82.8389 94.4126 83.5848 94.0959L83.8489 95.2109C82.9527 95.5838 81.988 95.7638 81.0176 95.739C80.4484 95.7749 79.8782 95.6876 79.3458 95.4828C78.8135 95.2781 78.3317 94.9608 77.9334 94.5527C77.535 94.1445 77.2294 93.6552 77.0376 93.1181C76.8458 92.581 76.7722 92.0088 76.822 91.4407C76.822 88.8734 78.289 86.8489 80.8122 86.8489C81.3153 86.8579 81.811 86.972 82.2674 87.1839C82.7238 87.3958 83.1308 87.7008 83.4624 88.0794C83.7939 88.4579 84.0427 88.9016 84.1926 89.3819C84.3425 89.8622 84.3904 90.3686 84.333 90.8685C84.3451 91.108 84.3451 91.3479 84.333 91.5874L78.289 91.602ZM82.822 90.4871C82.8657 90.1783 82.8433 89.8637 82.7562 89.5642C82.669 89.2647 82.5193 88.9871 82.3167 88.7499C82.1142 88.5127 81.8635 88.3212 81.5814 88.1882C81.2992 88.0553 80.9921 87.9838 80.6802 87.9785C80.0417 88.0226 79.443 88.3049 79.0029 88.7695C78.5627 89.2341 78.3132 89.8472 78.3036 90.4871H82.822Z" fill="black"/>
<path d="M86.2401 89.7098C86.2401 88.7123 86.2401 87.8467 86.1667 87.0546H87.5311V88.7269C87.6787 88.2074 87.9865 87.7477 88.4105 87.4132C88.8346 87.0787 89.3533 86.8865 89.8929 86.8638C90.0388 86.8417 90.1872 86.8417 90.333 86.8638V88.3308C90.1574 88.3145 89.9806 88.3145 89.8049 88.3308C89.277 88.3534 88.775 88.5664 88.392 88.9305C88.0091 89.2946 87.7709 89.7852 87.7218 90.3113C87.7054 90.5506 87.7054 90.7908 87.7218 91.0301V95.5778H86.2548L86.2401 89.7098Z" fill="black"/>
</svg>
