<svg xmlns="http://www.w3.org/2000/svg" width="100" height="100" fill="none"><path fill="#A166FF" d="M77.996 1H22.25v55.746h55.746z"/><path fill="#fff" d="M54.743 47.665a.65.65 0 0 1-.381-.117l-4.269-2.538-4.24 2.538a.76.76 0 0 1-.748 0l-8.802-5.325a.73.73 0 0 1-.352-.646v-5.369l-4.108-2.318a.82.82 0 0 1-.38-.645v-8.773a.72.72 0 0 1 .38-.645l4.152-2.289v-5.37a.75.75 0 0 1 .352-.645l8.802-5.325a.69.69 0 0 1 .748 0l4.196 2.538 4.269-2.538a.69.69 0 0 1 .748 0l8.802 5.325a.73.73 0 0 1 .352.646v5.37l4.108 2.317a.82.82 0 0 1 .381.645v8.802a.72.72 0 0 1-.381.646l-4.122 2.26v5.339a.75.75 0 0 1-.352.645l-8.803 5.355a.9.9 0 0 1-.352.117m-3.887-3.96 3.902 2.303 8.01-4.9v-5.355a.67.67 0 0 1 .381-.63l3.272-1.849-2.758-1.467a2.14 2.14 0 1 1 .235-3.007c.337.384.515.882.498 1.393v.147l2.846 1.57v-6.998l-4.137-2.318a.78.78 0 0 1-.381-.63v-2.01h-2.068a2.142 2.142 0 1 1-1.248-2.817 2.02 2.02 0 0 1 1.248 1.247h2.068v-1.775l-7.995-4.9-3.873 2.303v8.172l4.137 2.39a2.127 2.127 0 1 1-.426 2.935 2.1 2.1 0 0 1-.41-1.291v-.44l-4.401-2.538a.75.75 0 0 1-.352-.646v-8.552L45.5 11.724l-3.55 2.156v5.237h-1.467v-4.4L37.55 16.55v4.988l3.712 2.127 3.726-2.127v-3.814h1.467v4.24a.68.68 0 0 1-.381.63l-4.167 2.318v3.536L46 31.132a.7.7 0 0 1 .337.616v2.509l2.935-1.76v-3.154l-3.903-2.304.749-1.29 4.298 2.537a.79.79 0 0 1 .44.587v9.668h3.403a2.113 2.113 0 1 1 1.849 2.758 2.17 2.17 0 0 1-1.849-1.277h-3.403zm-8.465.41 3.096 1.893 3.902-2.303v-9.448l-8.318 4.885-.763-1.276 4.68-2.729v-2.934l-3.712-2.45-4.151 2.347-.748-1.32 4.18-2.332v-3.536l-3.784-2.083-3.712 2.083v2.7l3.125-1.864.748 1.291-3.931 2.304v3.491l3.711 2.083 3.873-2.23.763 1.291-3.83 2.23v4.93l3.346 2.068 3.873-2.289.16-.117.764 1.276zM56.298 38.6a.645.645 0 1 0 .646.646.646.646 0 0 0-.646-.616zm5.986-9.14a.646.646 0 1 0 .645.646.66.66 0 0 0-.645-.616zm-6-3.813a.645.645 0 1 0 .645.63.646.646 0 0 0-.645-.616zm2.391-7.042a.645.645 0 1 0 0 1.29.645.645 0 0 0 0-1.29"/><path fill="#000" d="m22.88 72.78-1.232 3.727h-1.599l4.034-11.854h1.834l4.034 11.854h-1.599l-1.276-3.727zm3.888-1.202-1.159-3.419c-.264-.762-.44-1.467-.616-2.156-.176.704-.367 1.467-.587 2.142l-1.174 3.433zM31.624 70.301v-2.318h1.35l.073 1.38a2.93 2.93 0 0 1 2.684-1.57 2.51 2.51 0 0 1 2.406 1.716c.234-.436.56-.816.954-1.115a2.93 2.93 0 0 1 1.877-.601c1.13 0 2.802.748 2.802 3.697v5.017h-1.467V71.68c0-1.628-.601-2.611-1.848-2.611a1.995 1.995 0 0 0-1.834 1.467c-.08.246-.12.504-.117.763v5.266h-1.467v-5.149c0-1.35-.602-2.332-1.775-2.332a2.11 2.11 0 0 0-2.01 1.525 2.2 2.2 0 0 0-.132.763v5.135h-1.467zM51.032 76.507l-.176-1.071a3.21 3.21 0 0 1-2.611 1.261 2.42 2.42 0 0 1-2.597-2.45c0-2.053 1.82-3.183 5.12-3.168v-.162a1.775 1.775 0 0 0-1.937-1.98 4.4 4.4 0 0 0-2.23.63l-.351-1.012a5.34 5.34 0 0 1 2.801-.762c2.612 0 3.243 1.775 3.243 3.491v3.183q-.018 1.026.132 2.04zm-.235-4.401c-1.687 0-3.609.264-3.609 1.907a1.38 1.38 0 0 0 1.467 1.467 2.13 2.13 0 0 0 2.054-1.467q.087-.242.088-.5zM53.79 75.612l3.844-5.017a45 45 0 0 1 1.115-1.32h-4.563v-1.262h6.484v.968l-3.8 4.944q-.513.704-1.1 1.35h4.988v1.232H53.79zM69.927 72.18a4.152 4.152 0 0 1-4.254 4.517 4.05 4.05 0 0 1-4.079-4.4 4.15 4.15 0 0 1 4.226-4.519 4.034 4.034 0 0 1 4.107 4.401m-6.763.087c0 1.863 1.086 3.272 2.597 3.272s2.582-1.468 2.582-3.301c0-1.467-.72-3.286-2.553-3.286-1.834 0-2.64 1.687-2.64 3.315zM71.878 70.301v-2.318h1.365l.088 1.467a3.11 3.11 0 0 1 2.802-1.599c1.188 0 3.022.704 3.022 3.624v5.09H77.57v-4.973c0-1.364-.513-2.508-1.965-2.508a2.2 2.2 0 0 0-2.084 1.584 2.1 2.1 0 0 0-.102.719v5.12h-1.54zM10.396 93.715a5.36 5.36 0 0 0 2.743.777c1.555 0 2.48-.836 2.48-2.024s-.631-1.746-2.245-2.362c-1.922-.69-3.125-1.687-3.125-3.36a3.42 3.42 0 0 1 3.83-3.227 5.46 5.46 0 0 1 2.625.587l-.425 1.247a4.75 4.75 0 0 0-2.245-.558c-1.628 0-2.23.968-2.23 1.775 0 1.1.72 1.658 2.348 2.289 2.01.777 3.022 1.731 3.022 3.477s-1.35 3.418-4.152 3.418A6.1 6.1 0 0 1 10 94.99zM23.995 95.578l-.117-1.071a3.2 3.2 0 0 1-2.611 1.261 2.42 2.42 0 0 1-2.685-2.45c0-2.053 1.834-3.183 5.12-3.168v-.161a1.763 1.763 0 0 0-1.937-1.98 4.3 4.3 0 0 0-2.215.63l-.352-1.012A5.3 5.3 0 0 1 22 86.864c2.597 0 3.228 1.775 3.228 3.491v3.184q-.012 1.025.146 2.039zm-.234-4.401c-1.687 0-3.61.264-3.61 1.907a1.38 1.38 0 0 0 1.468 1.467 2.1 2.1 0 0 0 2.054-1.467c.058-.16.087-.329.088-.499zM35.1 87.054c0 .617-.073 1.306-.073 2.348v4.943a4.91 4.91 0 0 1-1.203 3.888 4.53 4.53 0 0 1-3.11 1.027 5.55 5.55 0 0 1-2.831-.704l.396-1.189c.753.45 1.616.684 2.494.675 1.584 0 2.743-.836 2.743-2.934v-.953a3.05 3.05 0 0 1-2.714 1.467 3.8 3.8 0 0 1-3.623-4.152 4.094 4.094 0 0 1 3.829-4.518 2.93 2.93 0 0 1 2.67 1.467l.073-1.291zm-1.599 3.433a2.2 2.2 0 0 0-.088-.719 2.23 2.23 0 0 0-2.17-1.628c-1.468 0-2.524 1.247-2.524 3.227 0 1.658.836 3.052 2.509 3.052a2.245 2.245 0 0 0 2.141-1.585c.094-.263.139-.541.133-.821zM38.475 91.602a2.713 2.713 0 0 0 2.934 2.934 5.5 5.5 0 0 0 2.347-.44l.264 1.115a6.8 6.8 0 0 1-2.832.528 3.948 3.948 0 0 1-4.18-4.298c0-2.568 1.467-4.592 3.99-4.592a3.61 3.61 0 0 1 3.52 4.02q.021.359 0 .718zm4.533-1.115a2.2 2.2 0 0 0-2.142-2.508 2.553 2.553 0 0 0-2.377 2.508zM56.475 90.37c-.088-1.658-.191-3.638-.176-5.12-.396 1.467-.895 2.934-1.467 4.504l-2.098 5.75h-1.16l-1.906-5.648c-.572-1.672-1.042-3.198-1.38-4.606 0 1.467-.131 3.462-.234 5.237l-.323 5.09h-1.467l.822-11.853h1.951l2.024 5.736c.5 1.467.895 2.758 1.203 3.99.308-1.203.734-2.508 1.262-3.99l2.112-5.736h1.952l.733 11.854h-1.599zM65.394 95.578l-.117-1.071a3.17 3.17 0 0 1-2.685 1.261 2.435 2.435 0 0 1-2.611-2.45c0-2.053 1.834-3.183 5.12-3.168v-.162a1.76 1.76 0 0 0-1.937-1.98 4.3 4.3 0 0 0-2.215.63l-.352-1.011a5.34 5.34 0 0 1 2.802-.763c2.597 0 3.242 1.775 3.242 3.491v3.184q-.018 1.025.132 2.039zm-.22-4.401c-1.687 0-3.609.264-3.609 1.907a1.365 1.365 0 0 0 1.467 1.467 2.13 2.13 0 0 0 2.069-1.467q.076-.244.088-.499zM70.705 90.972q.355-.505.762-.969l2.494-2.934h1.834l-3.227 3.492 3.74 5.017h-1.877L71.497 91.5l-.792.88v3.198h-1.54V83.152h1.54zM78.289 91.602a2.713 2.713 0 0 0 2.934 2.934 5.6 5.6 0 0 0 2.362-.44l.264 1.115a6.9 6.9 0 0 1-2.831.528 3.962 3.962 0 0 1-4.196-4.298c0-2.568 1.467-4.592 3.99-4.592a3.61 3.61 0 0 1 3.521 4.02q.018.359 0 .718zm4.533-1.115a2.2 2.2 0 0 0-2.142-2.508 2.553 2.553 0 0 0-2.376 2.508zM86.24 89.71c0-.998 0-1.863-.073-2.655h1.364v1.672a2.57 2.57 0 0 1 2.362-1.863q.22-.033.44 0v1.467a3 3 0 0 0-.528 0 2.186 2.186 0 0 0-2.083 1.98q-.025.36 0 .72v4.547h-1.467z"/></svg>