<svg xmlns="http://www.w3.org/2000/svg" width="100" height="100" fill="none"><path fill="#465154" d="M10.583 77.901h-1.87l-.923-2.625H3.75l-.89 2.625H1l3.846-10.279h1.917zm-3.243-4.01-1.425-4.106a5 5 0 0 1-.137-.646h-.031q-.045.329-.141.646l-1.41 4.105zM17.594 71.25l-3.962 5.355h3.946V77.9H11.29v-.624l4.045-5.429h-3.667v-1.296h5.926zM25.296 77.901h-1.661v-1.16h-.027a2.4 2.4 0 0 1-2.247 1.333q-2.62 0-2.62-3.15V70.53h1.661v4.2q0 1.98 1.525 1.98a1.54 1.54 0 0 0 1.215-.525c.33-.401.5-.91.477-1.428V70.53h1.66zM31.515 72.137a1.38 1.38 0 0 0-.864-.236 1.48 1.48 0 0 0-1.232.666 3 3 0 0 0-.492 1.817V77.9H27.26v-7.35h1.66v1.512h.027c.13-.465.39-.884.749-1.207.31-.28.71-.434 1.126-.436.237-.013.473.034.687.137zM38.877 74.678h-4.999a2.1 2.1 0 0 0 .629 1.575 2.33 2.33 0 0 0 1.645.551 3.6 3.6 0 0 0 2.159-.704v1.345a4.9 4.9 0 0 1-2.651.63 3.27 3.27 0 0 1-2.547-1.003 4 4 0 0 1-.922-2.82 3.92 3.92 0 0 1 1.016-2.797 3.3 3.3 0 0 1 2.515-1.082 2.89 2.89 0 0 1 2.327.971c.589.77.881 1.726.822 2.693zm-1.604-1.176c.026-.501-.124-.995-.424-1.397a1.41 1.41 0 0 0-1.148-.525 1.6 1.6 0 0 0-1.215.525c-.346.38-.56.86-.613 1.37zM55.711 77.901H54.02V71.24q0-.82.1-2h-.027q-.103.496-.278.971l-3.065 7.696H49.57l-3.07-7.659a7 7 0 0 1-.272-1.05H46.2q.058.62.058 2.016v6.646h-1.572V67.622h2.4l2.693 6.825q.237.575.403 1.176h.037q.267-.814.43-1.208l2.745-6.793h2.316zM63.534 77.901H61.92v-1.15h-.026a2.43 2.43 0 0 1-2.227 1.323 2.34 2.34 0 0 1-1.692-.588 2.06 2.06 0 0 1-.614-1.575q0-2.1 2.395-2.425l2.18-.31q0-1.575-1.488-1.575c-.872 0-1.714.321-2.363.903v-1.459a5.15 5.15 0 0 1 2.677-.688q2.777 0 2.777 2.74zM61.93 74.29l-1.54.216a2.44 2.44 0 0 0-1.08.346 1.02 1.02 0 0 0-.36.892.98.98 0 0 0 .33.767c.248.208.566.315.89.3a1.64 1.64 0 0 0 1.257-.526c.345-.361.533-.844.524-1.344zM70.686 77.565c-.64.36-1.363.541-2.096.525a3.53 3.53 0 0 1-2.62-1.023 3.62 3.62 0 0 1-1-2.652 4 4 0 0 1 1.079-2.919 3.86 3.86 0 0 1 2.881-1.102 4.2 4.2 0 0 1 1.771.352v1.575a2.68 2.68 0 0 0-1.634-.573 2.27 2.27 0 0 0-1.724.714 2.63 2.63 0 0 0-.676 1.87 2.5 2.5 0 0 0 .634 1.8 2.25 2.25 0 0 0 1.703.661 2.65 2.65 0 0 0 1.692-.64zM78.807 77.901h-1.661V73.88q0-2.184-1.457-2.184a1.52 1.52 0 0 0-1.23.63 2.52 2.52 0 0 0-.525 1.617v3.953h-1.671V67.024h1.671v4.75h.026a2.62 2.62 0 0 1 2.379-1.39q2.442 0 2.442 2.992zM81.51 69.008a1 1 0 0 1-.696-.268.87.87 0 0 1-.289-.677.9.9 0 0 1 .289-.682.98.98 0 0 1 .697-.273c.265-.007.523.091.717.273a.9.9 0 0 1 .294.682.88.88 0 0 1-.294.662 1 1 0 0 1-.718.283m.823 8.893h-1.66v-7.35h1.66zM90.858 77.901h-1.661V73.76q0-2.058-1.457-2.058a1.57 1.57 0 0 0-1.252.572 2.1 2.1 0 0 0-.492 1.439v4.2h-1.688v-7.35h1.672v1.218h.026a2.62 2.62 0 0 1 2.379-1.391 2.21 2.21 0 0 1 1.828.777c.462.656.684 1.451.629 2.252zM98.98 74.678h-5a2.1 2.1 0 0 0 .63 1.575 2.33 2.33 0 0 0 1.644.551 3.62 3.62 0 0 0 2.16-.704v1.345a4.9 4.9 0 0 1-2.652.63 3.27 3.27 0 0 1-2.546-1.003 4 4 0 0 1-.923-2.82 3.92 3.92 0 0 1 1.012-2.797 3.32 3.32 0 0 1 2.52-1.082 2.89 2.89 0 0 1 2.326.971c.59.77.882 1.726.823 2.693zm-1.573-1.176a2.15 2.15 0 0 0-.424-1.397 1.41 1.41 0 0 0-1.148-.525 1.6 1.6 0 0 0-1.215.525c-.346.38-.56.86-.613 1.37zM28.591 95.54h-5.69V85.25h1.703v8.852h3.982zM36.026 92.296h-5.004a2.1 2.1 0 0 0 .63 1.575 2.33 2.33 0 0 0 1.644.551 3.62 3.62 0 0 0 2.16-.703v1.344a4.9 4.9 0 0 1-2.652.63 3.27 3.27 0 0 1-2.541-1.003 4 4 0 0 1-.923-2.82 3.92 3.92 0 0 1 1.001-2.771 3.32 3.32 0 0 1 2.52-1.082 2.89 2.89 0 0 1 2.327.972c.59.769.881 1.725.822 2.693zm-1.603-1.176a2.15 2.15 0 0 0-.425-1.396 1.41 1.41 0 0 0-1.147-.525 1.61 1.61 0 0 0-1.215.525c-.346.379-.561.86-.614 1.37zM43.178 95.54h-1.614v-1.144h-.026a2.43 2.43 0 0 1-2.227 1.323 2.35 2.35 0 0 1-1.692-.588 2.06 2.06 0 0 1-.613-1.575q0-2.1 2.395-2.425l2.18-.31q0-1.575-1.489-1.575c-.872 0-1.713.32-2.363.903v-1.46a5.15 5.15 0 0 1 2.678-.687q2.782 0 2.776 2.74zm-1.603-3.611-1.54.215a2.4 2.4 0 0 0-1.08.346 1.02 1.02 0 0 0-.361.893.98.98 0 0 0 .335.766c.249.209.567.316.89.3a1.65 1.65 0 0 0 1.258-.525c.335-.366.514-.849.498-1.345zM49.319 89.776a1.38 1.38 0 0 0-.865-.236 1.48 1.48 0 0 0-1.23.656 3 3 0 0 0-.493 1.817v3.517h-1.667v-7.35h1.661v1.512h.026c.132-.465.391-.884.75-1.207.309-.28.71-.435 1.126-.436.237-.013.473.034.687.136zM56.974 95.54h-1.661v-4.142q0-2.058-1.457-2.058a1.57 1.57 0 0 0-1.252.573 2.1 2.1 0 0 0-.492 1.438v4.2H50.44V88.2h1.672v1.218h.026a2.62 2.62 0 0 1 2.379-1.391 2.21 2.21 0 0 1 1.828.777c.461.656.683 1.451.629 2.252zM59.683 86.647a1 1 0 0 1-.697-.267.87.87 0 0 1-.288-.678.9.9 0 0 1 .288-.682.98.98 0 0 1 .697-.273c.265-.007.523.091.718.273a.9.9 0 0 1 .293.682.88.88 0 0 1-.294.662 1 1 0 0 1-.717.283m.822 8.893h-1.66v-7.35h1.66zM69.035 95.54h-1.66v-4.142q0-2.058-1.457-2.058a1.57 1.57 0 0 0-1.253.573 2.1 2.1 0 0 0-.492 1.438v4.2H62.5V88.2h1.672v1.218h.026a2.62 2.62 0 0 1 2.379-1.391 2.21 2.21 0 0 1 1.828.777c.461.656.683 1.451.63 2.252zM77.665 94.952q0 4.048-4.06 4.048a6 6 0 0 1-2.5-.483v-1.496a4.6 4.6 0 0 0 2.284.688q2.62 0 2.62-2.578v-.803h-.026a2.89 2.89 0 0 1-2.21 1.393 2.88 2.88 0 0 1-2.427-.968 3.96 3.96 0 0 1-.823-2.625 4.65 4.65 0 0 1 .88-2.977 2.93 2.93 0 0 1 2.421-1.107 2.33 2.33 0 0 1 2.159 1.191h.026v-1.018h1.66zm-1.646-2.777v-.929a1.87 1.87 0 0 0-.523-1.323 1.68 1.68 0 0 0-1.279-.525 1.75 1.75 0 0 0-1.477.698 3.16 3.16 0 0 0-.524 1.959c-.028.62.157 1.231.524 1.732a1.65 1.65 0 0 0 1.357.65 1.76 1.76 0 0 0 1.399-.618c.375-.462.56-1.05.518-1.644z"/><path fill="#047FDA" d="M56.932 2H43.44v20.149h13.492z"/><path fill="#5BE6FF" d="M43.44 22.149h13.497L28.581 56.204l-3.594-13.518zM60.437 26.07l-8.147 9.791 19.506 20.343 3.595-13.518z"/><path fill="#047FDA" d="M28.58 56.204h43.216L58.97 42.812H39.72z"/></svg>