<svg xmlns="http://www.w3.org/2000/svg" width="100" height="100" fill="none"><path fill="#7A7A7A" d="M34.693 67.583h3.096v4.22c-.51.156-1 .273-1.45.35-.47.079-.96.098-1.51.098-1.273 0-2.253-.37-2.94-1.133-.685-.742-1.038-1.816-1.038-3.184q0-2.02 1.176-3.164c.784-.762 1.842-1.153 3.214-1.153.882 0 1.706.176 2.49.508l-.49 1.133a4.9 4.9 0 0 0-2.059-.469c-.901 0-1.607.274-2.136.84-.53.567-.784 1.329-.784 2.305q0 1.524.706 2.345c.47.527 1.156.8 2.038.8.45 0 .921-.058 1.43-.175v-2.169h-1.743zM45.316 68.95c0 1.035-.275 1.837-.804 2.422q-.795.88-2.234.88c-.588 0-1.117-.137-1.568-.41a2.75 2.75 0 0 1-1.059-1.153c-.255-.508-.372-1.075-.372-1.739 0-1.035.274-1.836.803-2.403.53-.585 1.274-.859 2.235-.859.921 0 1.646.293 2.195.879.53.586.804 1.387.804 2.383m-4.646 0c0 1.465.55 2.208 1.627 2.208 1.078 0 1.608-.723 1.608-2.208 0-1.445-.55-2.168-1.627-2.168-.569 0-.98.195-1.235.566-.235.372-.373.918-.373 1.602M52.509 68.95c0 1.035-.275 1.837-.804 2.422q-.794.88-2.234.88c-.588 0-1.117-.137-1.568-.41a2.75 2.75 0 0 1-1.059-1.153c-.254-.508-.372-1.075-.372-1.739 0-1.035.274-1.836.804-2.403.529-.585 1.274-.859 2.234-.859.921 0 1.646.293 2.195.879s.804 1.387.804 2.383m-4.626 0c0 1.465.549 2.208 1.627 2.208s1.607-.723 1.607-2.208c0-1.445-.549-2.168-1.627-2.168-.568 0-.98.195-1.234.566-.255.372-.373.918-.373 1.602M59.447 65.786v.742l-1.097.195c.098.137.176.293.255.489.058.195.098.41.098.625 0 .644-.236 1.172-.687 1.543-.45.371-1.078.567-1.861.567a5 5 0 0 1-.55-.04c-.293.176-.43.391-.43.626 0 .136.058.254.196.332.137.078.392.117.744.117h1.117c.706 0 1.235.156 1.608.45.372.292.548.722.548 1.288 0 .723-.294 1.27-.901 1.66q-.882.587-2.587.587c-.863 0-1.53-.156-1.98-.469s-.686-.742-.686-1.309c0-.39.118-.723.372-.976.255-.254.588-.45 1.04-.547a1.03 1.03 0 0 1-.452-.372.94.94 0 0 1-.176-.527c0-.234.059-.43.196-.606.137-.156.333-.332.608-.488a1.7 1.7 0 0 1-.804-.684 2.06 2.06 0 0 1-.313-1.113c0-.684.215-1.23.646-1.602.431-.371 1.059-.567 1.862-.567.177 0 .373.02.569.04s.353.058.45.078h2.215zM54.45 73.13c0 .293.138.507.392.664q.382.234 1.117.234c.745 0 1.294-.097 1.647-.312s.549-.489.549-.84q0-.412-.294-.586c-.196-.118-.569-.176-1.098-.176h-1.02c-.391 0-.685.098-.92.273-.275.176-.373.43-.373.743m.569-5.275c0 .391.098.704.313.918.196.215.51.313.882.313.784 0 1.176-.41 1.176-1.25 0-.41-.098-.723-.294-.957-.196-.215-.49-.332-.882-.332s-.686.117-.882.332c-.215.215-.313.547-.313.976M61.976 72.134h-1.353v-8.927h1.353zM66.7 72.252c-1 0-1.765-.293-2.333-.86-.549-.566-.843-1.367-.843-2.383 0-1.035.255-1.856.784-2.442.51-.586 1.235-.898 2.136-.898q1.265 0 2 .761c.49.508.725 1.211.725 2.11v.723h-4.234c.02.625.177 1.094.51 1.426.313.332.764.488 1.333.488.372 0 .725-.039 1.058-.098a6.5 6.5 0 0 0 1.039-.351v1.094a4 4 0 0 1-1 .332c-.353.078-.745.097-1.176.097m-.256-5.548c-.43 0-.784.137-1.038.41-.255.273-.412.664-.47 1.192h2.9c0-.528-.137-.918-.372-1.192-.255-.273-.588-.41-1.02-.41M4.979 79.597c-.784 0-1.411.273-1.862.84-.451.546-.667 1.328-.667 2.305 0 1.015.216 1.797.647 2.324.431.528 1.059.781 1.882.781.353 0 .705-.039 1.039-.097.333-.078.686-.156 1.038-.274v1.172c-.646.254-1.391.371-2.234.371q-1.853 0-2.822-1.113c-.647-.742-.98-1.797-.98-3.184q0-1.29.47-2.286a3.45 3.45 0 0 1 1.392-1.504q.911-.527 2.116-.527c.863 0 1.647.176 2.372.527l-.49 1.133a6 6 0 0 0-.902-.351 4.4 4.4 0 0 0-1-.117M10.055 86.883H8.703v-8.888h1.352zM17.582 83.718c0 1.035-.275 1.836-.804 2.422-.53.587-1.274.86-2.215.86a3.16 3.16 0 0 1-1.568-.39 2.6 2.6 0 0 1-1.039-1.153 4.05 4.05 0 0 1-.372-1.739c0-1.016.255-1.817.784-2.403.53-.566 1.274-.859 2.234-.859q1.383 0 2.176.879c.549.586.804 1.387.804 2.383m-4.606 0c0 1.465.548 2.188 1.626 2.188s1.608-.723 1.608-2.188c0-1.445-.53-2.168-1.608-2.168-.568 0-.98.195-1.234.566-.255.372-.392.899-.392 1.602M23.599 86.883l-.196-.82h-.059a1.84 1.84 0 0 1-.803.683 2.6 2.6 0 0 1-1.177.254c-.764 0-1.332-.195-1.724-.567-.373-.37-.569-.957-.569-1.738v-4.122h1.353v3.888c0 .488.098.84.294 1.093.196.235.51.372.94.372.569 0 .98-.176 1.255-.508s.392-.899.392-1.7v-3.145h1.352v6.31zM28.715 87c-.785 0-1.412-.293-1.843-.86-.45-.566-.666-1.367-.666-2.402s.215-1.837.666-2.422c.45-.587 1.078-.86 1.862-.86.823 0 1.47.313 1.901.918h.079c-.06-.45-.098-.8-.098-1.074v-2.305h1.352v8.888H30.91l-.236-.82h-.078q-.646.936-1.881.937m.352-1.094c.55 0 .96-.156 1.215-.469s.373-.82.392-1.504v-.195c0-.801-.137-1.368-.392-1.7-.254-.332-.666-.508-1.215-.508-.47 0-.843.196-1.097.567-.255.39-.392.918-.392 1.64 0 .704.117 1.231.372 1.603.255.39.627.566 1.117.566M42.258 86.883l-.843-2.325H38.22l-.823 2.325h-1.45l3.136-8.38h1.49l3.135 8.38zm-1.196-3.497-.784-2.266c-.058-.156-.137-.39-.235-.723s-.176-.566-.215-.722c-.098.468-.255.976-.451 1.543l-.765 2.168zM44.826 86.883v-8.341h1.372v8.34zM56.997 81.062c0 .879-.294 1.543-.862 2.012-.569.468-1.392.703-2.45.703h-.863v3.125H51.45v-8.34h2.411q1.559 0 2.352.644c.51.39.784 1.016.784 1.855m-4.175 1.543h.726c.705 0 1.215-.117 1.548-.371.333-.235.49-.625.49-1.133 0-.489-.137-.84-.431-1.075s-.745-.351-1.372-.351h-.941v2.93zM59.859 86.883h-1.353v-8.888h1.353zM65.739 86.883l-.275-.88h-.039c-.313.391-.607.645-.92.782s-.706.215-1.196.215c-.628 0-1.118-.176-1.45-.508-.354-.332-.53-.8-.53-1.426 0-.645.235-1.133.725-1.465s1.215-.508 2.215-.547l1.097-.039v-.332c0-.41-.097-.703-.274-.899q-.294-.293-.882-.293c-.333 0-.627.04-.94.137-.295.098-.589.215-.863.332l-.431-.957a5.2 5.2 0 0 1 2.293-.547q1.205 0 1.823.527c.411.352.607.899.607 1.641v4.259zm-2-.918q.736 0 1.177-.41c.294-.274.45-.645.45-1.153v-.547l-.803.039c-.627.02-1.098.137-1.392.313-.294.195-.43.468-.43.86 0 .273.078.507.254.644.157.175.412.254.745.254M70.952 85.906c.334 0 .647-.059.98-.156v1.016a3 3 0 0 1-.568.156 4.4 4.4 0 0 1-.725.059c-1.274 0-1.92-.665-1.92-2.013V81.59h-.863v-.586l.92-.488.452-1.329h.823v1.407h1.803v1.016h-1.803v3.379c0 .332.078.567.235.723.177.117.392.195.666.195M76.382 81.589h-1.549v5.294h-1.352v-5.294h-1.039v-.625l1.039-.41v-.41c0-.743.176-1.29.529-1.661.353-.352.882-.547 1.607-.547.47 0 .941.078 1.392.234l-.353 1.016a3.4 3.4 0 0 0-.94-.156c-.314 0-.53.098-.667.273-.137.196-.216.47-.216.84v.41h1.549zM83.065 83.718c0 1.035-.274 1.836-.803 2.422-.53.587-1.274.86-2.215.86a3.16 3.16 0 0 1-1.568-.39 2.6 2.6 0 0 1-1.039-1.153 4.05 4.05 0 0 1-.372-1.739c0-1.016.255-1.817.784-2.403.529-.566 1.274-.859 2.234-.859q1.382 0 2.176.879c.529.586.803 1.387.803 2.383m-4.606 0c0 1.465.55 2.188 1.627 2.188 1.078 0 1.607-.723 1.607-2.188 0-1.445-.529-2.168-1.607-2.168-.568 0-.98.195-1.235.566-.274.372-.392.899-.392 1.602M87.828 80.456c.275 0 .49.02.666.059l-.137 1.25c-.196-.04-.392-.078-.588-.078-.529 0-.98.175-1.313.527s-.51.801-.51 1.368v3.3h-1.352v-6.309h1.059l.176 1.114h.078c.216-.371.49-.684.824-.899a2 2 0 0 1 1.097-.332M95.002 86.883h-1.353v-3.888c0-.488-.098-.84-.274-1.074s-.47-.352-.863-.352c-.51 0-.901.176-1.136.508-.236.332-.373.899-.373 1.68v3.145h-1.352v-6.31h1.058l.196.821h.079q.264-.44.764-.703a2.6 2.6 0 0 1 1.098-.254q1.47 0 1.94.996h.098c.196-.312.45-.547.784-.722.333-.176.725-.255 1.176-.255.765 0 1.313.196 1.646.567.353.371.51.957.51 1.739v4.121h-1.352v-3.887c0-.488-.098-.84-.275-1.074-.176-.235-.47-.352-.862-.352-.53 0-.902.156-1.157.488-.235.332-.372.82-.372 1.505v3.3z"/><path fill="#4683ED" d="M60.858 14H39.142a3.86 3.86 0 0 0-3.352 1.934L24.932 34.687a3.86 3.86 0 0 0 0 3.848L35.79 57.288a3.86 3.86 0 0 0 3.352 1.934h21.716a3.86 3.86 0 0 0 3.352-1.934l10.858-18.753a3.86 3.86 0 0 0 0-3.848L64.21 15.934A3.86 3.86 0 0 0 60.858 14"/><path fill="#417BDC" d="M56.664 25.174 51.548 27.4l-2.234-2.227-4.9 1.719-3.96 3.281 2.608 2.599-3.117 1.27-2.058 4.707 2.803 2.794 2.646 6.622L54.41 59.203h6.448a3.86 3.86 0 0 0 3.352-1.934l9.036-15.589z"/><path fill="#FEFFFD" d="m56.35 40.664 1.118-1.914h4.645l1.215-2.07-2.96-5.138h-4.762l-1.53-2.442h-1.273v-1.367h2.175l1.372 2.441h3.215l-2.9-5h-5.979v6.915h2.45l.862 1.367h-3.312v3.321h3.058l1.568-2.403h3.469l.862 1.368h-3.508l-1.607 2.422h-3.842v6.114h4.9l-.862 1.368h-4.038v2.52h5.978l4.665-8.029H58.33l-1.274 1.895h-4.233v-1.368zM49.314 45.646h-4.038l-.862-1.368h4.9v-6.114h-3.842l-1.607-2.422h-3.508l.862-1.368h3.47l1.568 2.403h3.057v-3.32h-3.312l.862-1.368h2.45v-6.915h-5.978l-2.9 5h3.214l1.372-2.441h2.175V29.1h-1.274l-1.529 2.442h-4.762l-2.96 5.137 1.215 2.071h4.645l1.118 1.914h3.528v1.368h-4.234l-1.274-1.895h-2.999l4.665 8.029h5.978z"/></svg>