<?xml version="1.0" encoding="UTF-8"?>
<svg version="1.1" xmlns="http://www.w3.org/2000/svg" width="365" height="242">
<path d="M0 0 C3.61640675 0.60980675 6.24655549 2.29502223 9.32885742 4.23803711 C36.22488275 21.13174296 66.26714169 25.75962947 97.42602539 21.6237793 C99.27983692 21.38139787 101.1396675 21.18581966 103 21 C104 22 104 22 104.10424805 25.18603516 C104.09955334 26.67873712 104.08896599 28.17142601 104.07421875 29.6640625 C104.06960129 30.49588043 104.06498383 31.32769836 104.06022644 32.1847229 C104.04927713 34.07225784 104.03619583 35.95978115 104.02142334 37.84729004 C103.99855264 41.21299728 103.98989022 44.57855956 103.98291016 47.94433594 C103.96766334 53.74013216 103.92802762 59.53529995 103.86789131 65.33080673 C103.83371864 68.68645024 103.80852104 72.04163476 103.80444336 75.39746094 C103.74129313 113.93224935 93.94098066 143.02582518 66.5625 170.6875 C65.4962439 171.76789551 65.4962439 171.76789551 64.40844727 172.87011719 C63.73869873 173.5355957 63.0689502 174.20107422 62.37890625 174.88671875 C61.7763501 175.48701904 61.17379395 176.08731934 60.55297852 176.70581055 C59 178 59 178 57 178 C57 178.66 57 179.32 57 180 C55.671875 181.33984375 55.671875 181.33984375 53.75 182.9375 C50.13628649 186.00851801 46.61029434 189.15968933 43.125 192.375 C39.45682306 195.75130543 35.77576435 199.11065666 32.0625 202.4375 C28.7076642 205.44658783 25.38324766 208.48549355 22.07739258 211.5480957 C19.88222343 213.58145259 17.68211997 215.60940764 15.48046875 217.63574219 C14.15089291 218.86095159 12.82519491 220.09036598 11.5 221.3203125 C10.79875 221.95710937 10.0975 222.59390625 9.375 223.25 C8.48941406 224.06210937 8.48941406 224.06210937 7.5859375 224.890625 C6 226 6 226 3 226 C3 225.34 3 224.68 3 224 C2.15115234 223.63068359 2.15115234 223.63068359 1.28515625 223.25390625 C-1.39248258 221.78463776 -3.33043612 220.02247565 -5.5625 217.9375 C-9.10168226 214.68892508 -12.69560168 211.57531784 -16.4375 208.5625 C-21.20996203 204.70291397 -25.73109109 200.62800009 -30.24609375 196.47265625 C-33.82855982 193.25605906 -37.56007592 190.24715022 -41.3046875 187.22265625 C-44.85133816 184.29795448 -48.25090907 181.2283384 -51.6484375 178.1328125 C-53.84473207 176.14082441 -56.07024685 174.18992688 -58.3125 172.25 C-61.33928513 169.61748548 -64.16315537 166.83684463 -67 164 C-68.5159375 162.7934375 -68.5159375 162.7934375 -70.0625 161.5625 C-73.09609566 158.91617187 -74.85783872 156.38599687 -77 153 C-77.78375 152.09894531 -78.5675 151.19789063 -79.375 150.26953125 C-82.1491403 146.97355815 -84.06174116 143.48792524 -85.9375 139.625 C-86.27740967 138.93092041 -86.61731934 138.23684082 -86.9675293 137.52172852 C-92.36273061 126.28689602 -96.32239155 115.20441228 -98.45703125 102.9140625 C-98.8473255 100.07550676 -98.8473255 100.07550676 -100 98 C-100.04926864 96.06312653 -100.03608222 94.12466399 -100 92.1875 C-99.89545791 82.92720877 -100.28843164 73.68434624 -100.64453125 64.43237305 C-100.87486831 58.30088273 -101.05238405 52.19092642 -100.96875 46.05493164 C-101.00828486 43.45520562 -101.40045814 40.92856702 -101.77734375 38.359375 C-102.28952252 32.93207713 -102.06883655 27.44573577 -102 22 C-101.21882813 22.0721875 -100.43765625 22.144375 -99.6328125 22.21875 C-82.70529178 23.5759677 -64.65645375 24.82028756 -48 21 C-46.75863281 20.74347656 -45.51726562 20.48695312 -44.23828125 20.22265625 C-29.72933604 17.0594766 -10.7522388 10.7522388 0 0 Z " fill="#021150" transform="translate(114,9)"/>
<path d="M0 0 C5.61 -0.061875 11.22 -0.12375 17 -0.1875 C18.75441406 -0.21481201 20.50882813 -0.24212402 22.31640625 -0.27026367 C23.73176387 -0.27903851 25.14712915 -0.28668008 26.5625 -0.29296875 C27.27728516 -0.30831665 27.99207031 -0.32366455 28.72851562 -0.33947754 C35.14331866 -0.34275486 40.27896224 1.26843052 45.75 4.75 C50.74905354 9.74905354 52.27061533 13.432268 52.5625 20.4375 C52.36540628 26.3367189 51.33967525 30.81731559 47 35 C43.6875 36.5 43.6875 36.5 41 37 C43.76266935 42.17671615 46.85912182 46.43653858 50.75 50.8125 C56 56.73711832 56 56.73711832 56 59 C39.92226317 60.93130925 39.92226317 60.93130925 35.16699219 57.78857422 C31.70049958 54.3384639 29.37641429 50.24067033 27 46 C26.4225 45.24203125 25.845 44.4840625 25.25 43.703125 C24 42 24 42 24 40 C21.69 40 19.38 40 17 40 C17 46.27 17 52.54 17 59 C11.39 59 5.78 59 0 59 C0 39.53 0 20.06 0 0 Z " fill="#F9FAFB" transform="translate(89,84)"/>
<path d="M0 0 C4.6589553 -0.09982927 9.31727078 -0.17191433 13.97705078 -0.21972656 C15.55789045 -0.23968422 17.13865783 -0.2668606 18.71923828 -0.30175781 C29.14629922 -0.52599568 38.34295486 -0.65134822 46.8125 6.3125 C47.534375 7.199375 48.25625 8.08625 49 9 C49.44085938 9.51433594 49.88171875 10.02867188 50.3359375 10.55859375 C56.18761914 17.88165198 56.50990202 25.67980907 55.60546875 34.77734375 C54.23351514 42.07967746 50.80272524 48.30255576 45 53 C35.24174834 59.44412846 25.92332524 59.26427878 14.5 59.125 C9.715 59.08375 4.93 59.0425 0 59 C0 45.47 0 31.94 0 18 C5.61 18 11.22 18 17 18 C17 26.91 17 35.82 17 45 C19.206875 44.9175 21.41375 44.835 23.6875 44.75 C24.92886719 44.70359375 26.17023438 44.6571875 27.44921875 44.609375 C31.48010224 43.91760622 33.13589779 42.86410221 36 40 C38.93349025 34.73994853 39.55892044 30.8686646 39 25 C37.60075055 21.69898869 37.60075055 21.69898869 36 19 C36 18.34 36 17.68 36 17 C31.83364718 15.01602247 28.32204372 14.69930972 23.73046875 14.5859375 C23.04946609 14.56657135 22.36846344 14.5472052 21.66682434 14.5272522 C19.50717407 14.46781868 17.34746943 14.421218 15.1875 14.375 C13.71677456 14.33678672 12.24607071 14.29773306 10.77539062 14.2578125 C7.18371068 14.16057582 3.59224033 14.0807245 0 14 C0 9.38 0 4.76 0 0 Z " fill="#F5F6F8" transform="translate(148,84)"/>
<path d="M0 0 C4.62 0 9.24 0 14 0 C19.07724472 11.13088265 23.49513414 22.52082534 27.73632812 33.99145508 C29.00918956 37.41835743 30.32158779 40.82158911 31.7109375 44.203125 C31.989375 44.88246094 32.2678125 45.56179687 32.5546875 46.26171875 C33.32984258 48.14054702 34.11386923 50.01570801 34.8984375 51.890625 C36 55 36 55 36 59 C31.38 59 26.76 59 22 59 C21.34 56.03 20.68 53.06 20 50 C12.74 50.33 5.48 50.66 -2 51 C-2.99 53.97 -3.98 56.94 -5 60 C-9.62 60 -14.24 60 -19 60 C-17.73508629 53.71904915 -16.00774435 47.96203557 -13.6875 42 C-11.0811137 35.12628168 -8.79218369 28.24240498 -6.78515625 21.17211914 C-4.75314142 14.03212703 -2.38843923 7.02883546 0 0 Z " fill="#F7F7F9" transform="translate(49,84)"/>
<path d="M0 0 C0 3.3 0 6.6 0 10 C-1.299375 9.505 -2.59875 9.01 -3.9375 8.5 C-8.80755827 6.85345649 -12.88763177 6.75655389 -18 7 C-18 8.32 -18 9.64 -18 11 C-17.35933594 11.17015625 -16.71867188 11.3403125 -16.05859375 11.515625 C-3.12987695 15.13797784 -3.12987695 15.13797784 1 20.6875 C2.3256181 25.07860995 2.19756249 28.58449748 1 33 C-1.43556019 37.08826175 -3.53897468 38.56721627 -8 40 C-16.32643929 40.85552423 -22.89309854 40.54841693 -30 36 C-30 32.7 -30 29.4 -30 26 C-25 28 -25 28 -22.75 29.125 C-18.8303209 30.37217062 -15.07950054 30.15998041 -11 30 C-10.67 28.68 -10.34 27.36 -10 26 C-10.56847656 25.82984375 -11.13695312 25.6596875 -11.72265625 25.484375 C-18.79667906 23.26414747 -26.26049154 20.88069556 -30 14 C-30.60428543 10.54531161 -30.65807567 7.44922423 -30 4 C-22.84764592 -5.80894273 -9.97230022 -4.6026001 0 0 Z " fill="#011150" transform="translate(205,187)"/>
<path d="M0 0 C3.39366345 2.31386145 4.93764821 4.18059058 6.75 7.875 C6.75 10.515 6.75 13.155 6.75 15.875 C0.48 15.875 -5.79 15.875 -12.25 15.875 C-10.75 19.875 -10.75 19.875 -8.25 20.875 C-2.71867349 21.15625389 1.50799157 20.62233614 6.75 18.875 C6.75 21.185 6.75 23.495 6.75 25.875 C0.50559772 29.28103761 -5.21087132 29.57989188 -12.25 28.875 C-16.13805248 27.62526884 -17.79615706 26.34078617 -20.625 23.4375 C-23.00053561 18.22959502 -22.99936296 13.50681029 -22.25 7.875 C-20.39078867 3.63599816 -18.99031329 2.30210382 -15 0 C-9.56130448 -1.63160866 -5.49306766 -1.9014465 0 0 Z M-11.0625 7.1875 C-12.44183114 8.80369435 -12.44183114 8.80369435 -12.25 10.875 C-9.28 10.875 -6.31 10.875 -3.25 10.875 C-3.58 9.555 -3.91 8.235 -4.25 6.875 C-7.83563992 5.68257578 -7.83563992 5.68257578 -11.0625 7.1875 Z " fill="#011150" transform="translate(353.25,198.125)"/>
<path d="M0 0 C3.39366345 2.31386145 4.93764821 4.18059058 6.75 7.875 C6.75 10.515 6.75 13.155 6.75 15.875 C0.48 15.875 -5.79 15.875 -12.25 15.875 C-10.75 19.875 -10.75 19.875 -8.25 20.875 C-1.95262989 21.21193921 -1.95262989 21.21193921 3.75 18.875 C4.74 18.875 5.73 18.875 6.75 18.875 C6.75 21.185 6.75 23.495 6.75 25.875 C0.50559772 29.28103761 -5.21087132 29.57989188 -12.25 28.875 C-16.13805248 27.62526884 -17.79615706 26.34078617 -20.625 23.4375 C-23.00053561 18.22959502 -22.99936296 13.50681029 -22.25 7.875 C-20.39078867 3.63599816 -18.99031329 2.30210382 -15 0 C-9.56130448 -1.63160866 -5.49306766 -1.9014465 0 0 Z M-11.0625 7.1875 C-12.44183114 8.80369435 -12.44183114 8.80369435 -12.25 10.875 C-9.28 10.875 -6.31 10.875 -3.25 10.875 C-3.58 9.555 -3.91 8.235 -4.25 6.875 C-7.83563992 5.68257578 -7.83563992 5.68257578 -11.0625 7.1875 Z " fill="#011150" transform="translate(232.25,198.125)"/>
<path d="M0 0 C3.3 0 6.6 0 10 0 C10.33 6.6 10.66 13.2 11 20 C14.85938975 21.34513424 14.85938975 21.34513424 18 20 C18.33 13.4 18.66 6.8 19 0 C22.3 0 25.6 0 29 0 C29 9.24 29 18.48 29 28 C25 28 21 28 17 28 C16.34 28.33 15.68 28.66 15 29 C10.40123316 29.55112923 7.02212113 29.61753151 3 27.1875 C-0.02968074 23.87378669 -0.12258365 21.20697067 -0.09765625 16.89453125 C-0.09443359 15.91162109 -0.09121094 14.92871094 -0.08789062 13.91601562 C-0.07951172 12.89185547 -0.07113281 11.86769531 -0.0625 10.8125 C-0.05798828 9.77673828 -0.05347656 8.74097656 -0.04882812 7.67382812 C-0.03704026 5.1158608 -0.01910482 2.55792314 0 0 Z " fill="#011150" transform="translate(272,198)"/>
<path d="M0 0 C88.11 0 176.22 0 267 0 C267 0.66 267 1.32 267 2 C254.43167898 3.36863893 241.8317169 3.13350335 229.20776367 3.11352539 C226.70341493 3.11324298 224.1990661 3.11340231 221.69471741 3.1139679 C216.32505354 3.11419471 210.95540478 3.11138099 205.58574486 3.10573006 C197.82234332 3.09756536 190.05894764 3.09499477 182.29554228 3.09374207 C169.69661793 3.09155932 157.09770011 3.08492039 144.4987793 3.07543945 C132.26798535 3.06624517 120.03719319 3.05917422 107.80639648 3.05493164 C107.05111501 3.05466892 106.29583354 3.05440619 105.51766475 3.05413551 C101.72822891 3.05283037 97.93879306 3.05156669 94.1493572 3.05032361 C62.7662334 3.03997521 31.38311769 3.02230323 0 3 C0 2.01 0 1.02 0 0 Z " fill="#C7CBD9" transform="translate(0,0)"/>
<path d="M0 0 C0.7528125 -0.01417969 1.505625 -0.02835938 2.28125 -0.04296875 C4.74864173 0.21332722 6.36356256 0.95904847 8.5 2.1875 C8.5 4.8275 8.5 7.4675 8.5 10.1875 C7.82453125 10.08050781 7.1490625 9.97351563 6.453125 9.86328125 C5.11507813 9.68345703 5.11507813 9.68345703 3.75 9.5 C2.42742187 9.30857422 2.42742187 9.30857422 1.078125 9.11328125 C-2.10664814 9.20496411 -3.273404 9.95066678 -5.5 12.1875 C-5.95535315 15.30992157 -5.99686954 17.25586961 -4.5 20.0625 C-0.68418272 22.20889722 3.84444805 21.51861039 8 20.6875 C8.495 20.5225 8.99 20.3575 9.5 20.1875 C9.5 22.8275 9.5 25.4675 9.5 28.1875 C4.67784591 31.00417879 -0.06221886 30.78835979 -5.5 30.1875 C-9.93082076 28.91327704 -12.69975129 27.23782643 -15.5 23.5625 C-17.13459628 18.04573755 -17.53667574 12.69734654 -15.3125 7.3125 C-10.7526503 1.96646932 -6.90717635 0.05913678 0 0 Z " fill="#011150" transform="translate(258.5,196.8125)"/>
<path d="M0 0 C1.051875 0.2475 2.10375 0.495 3.1875 0.75 C4.34587626 4.80431692 4.02441257 6.96812119 2.1875 10.75 C1.28 10.5025 0.3725 10.255 -0.5625 10 C-3.87317033 9.37731081 -3.87317033 9.37731081 -6.125 11.5625 C-8.94358919 15.21622672 -9.06051815 17.79255013 -9.375 22.375 C-9.45878906 23.56351563 -9.54257812 24.75203125 -9.62890625 25.9765625 C-9.68949219 26.89179688 -9.75007813 27.80703125 -9.8125 28.75 C-13.1125 28.75 -16.4125 28.75 -19.8125 28.75 C-19.8125 19.51 -19.8125 10.27 -19.8125 0.75 C-16.5125 0.75 -13.2125 0.75 -9.8125 0.75 C-9.4825 1.74 -9.1525 2.73 -8.8125 3.75 C-8.131875 3.069375 -7.45125 2.38875 -6.75 1.6875 C-3.8125 -0.25 -3.8125 -0.25 0 0 Z " fill="#011150" transform="translate(325.8125,197.25)"/>
<path d="M0 0 C13.19773232 -0.49337317 13.19773232 -0.49337317 16.921875 1.796875 C19 4 19 4 19.5625 7.5 C18.90163949 11.61202097 18.31601741 12.56719616 15 15 C12.2317375 15.29449601 9.98597978 15.38343363 7.25 15.25 C4.8575 15.1675 2.465 15.085 0 15 C0 10.05 0 5.1 0 0 Z " fill="#0B1855" transform="translate(106,97)"/>
<path d="M0 0 C21.45 0 42.9 0 65 0 C64.67 0.66 64.34 1.32 64 2 C49.56936386 2.87839516 35.2049335 3.12606717 20.75 3.0625 C18.72135529 3.05746574 16.69270935 3.0529063 14.6640625 3.04882812 C9.77601016 3.03799626 4.88801948 3.02084238 0 3 C0 2.01 0 1.02 0 0 Z " fill="#CCCFDC" transform="translate(0,0)"/>
<path d="M0 0 C0.66 0 1.32 0 2 0 C2.19335938 0.66386719 2.38671875 1.32773438 2.5859375 2.01171875 C4.20889054 7.53530035 4.20889054 7.53530035 6.1875 12.9375 C7 15 7 15 7 18 C3.04 18 -0.92 18 -5 18 C-1.85714286 5.14285714 -1.85714286 5.14285714 0 0 Z " fill="#101B57" transform="translate(56,102)"/>
<path d="M0 0 C-0.33 0.99 -0.66 1.98 -1 3 C-4.3 3.66 -7.6 4.32 -11 5 C-11 4.01 -11 3.02 -11 2 C-7.12315913 0.80712589 -4.08378077 0 0 0 Z " fill="#091854" transform="translate(267,144)"/>
<path d="M0 0 C0.33 0.99 0.66 1.98 1 3 C-0.98 3.33 -2.96 3.66 -5 4 C-5 3.34 -5 2.68 -5 2 C-3.35 1.34 -1.7 0.68 0 0 Z " fill="#081754" transform="translate(266,131)"/>
<path d="M0 0 C0.33 0.66 0.66 1.32 1 2 C-0.32 2.33 -1.64 2.66 -3 3 C-3 2.34 -3 1.68 -3 1 C-2.01 0.67 -1.02 0.34 0 0 Z " fill="#121F59" transform="translate(256,135)"/>
<path d="M0 0 C0.66 0 1.32 0 2 0 C1.67 0.99 1.34 1.98 1 3 C0.67 2.01 0.34 1.02 0 0 Z " fill="#132059" transform="translate(246,144)"/>
<path d="M0 0 C2 1 2 1 2 1 Z " fill="#15215A" transform="translate(262,148)"/>
</svg>
