<svg xmlns="http://www.w3.org/2000/svg" width="365" height="242"><path fill="#021150" d="M114 9c3.616.61 6.247 2.295 9.329 4.238 26.896 16.894 56.938 21.522 88.097 17.386 1.854-.243 3.714-.438 5.574-.624 1 1 1 1 1.104 4.186a665 665 0 0 1-.03 4.478l-.014 2.52q-.016 2.832-.039 5.663c-.022 3.366-.031 6.732-.038 10.097q-.024 8.694-.115 17.387c-.034 3.355-.06 6.71-.064 10.066-.063 38.535-9.863 67.629-37.241 95.29l-2.155 2.183-2.03 2.017-1.825 1.819C173 187 173 187 171 187v2c-1.328 1.34-1.328 1.34-3.25 2.938a349 349 0 0 0-10.625 9.437 1114 1114 0 0 1-11.062 10.063 840 840 0 0 0-9.986 9.11 2811 2811 0 0 1-6.597 6.088 1520 1520 0 0 0-3.98 3.684l-2.125 1.93-1.79 1.64C120 235 120 235 117 235v-2l-1.715-.746c-2.677-1.47-4.615-3.232-6.847-5.316a221 221 0 0 0-10.876-9.375c-4.772-3.86-9.293-7.935-13.808-12.09-3.583-3.217-7.314-6.226-11.059-9.25-3.546-2.925-6.946-5.995-10.343-9.09a379 379 0 0 0-6.664-5.883c-3.027-2.633-5.851-5.413-8.688-8.25l-3.062-2.437c-3.034-2.647-4.796-5.177-6.938-8.563l-2.375-2.73c-2.774-3.296-4.687-6.782-6.562-10.645l-1.03-2.103c-5.396-11.235-9.355-22.318-11.49-34.608-.39-2.838-.39-2.838-1.543-4.914-.05-1.937-.036-3.875 0-5.812.105-9.26-.288-18.504-.645-27.756-.23-6.131-.407-12.241-.324-18.377-.04-2.6-.431-5.126-.808-7.696C11.71 41.932 11.93 36.446 12 31l2.367.219C31.295 32.576 49.344 33.82 66 30l3.762-.777C84.27 26.059 103.248 19.753 114 9"/><path fill="#F9FAFB" d="m89 84 17-.187 5.316-.083q2.124-.014 4.246-.023l2.167-.046c6.414-.004 11.55 1.607 17.021 5.089 5 5 6.52 8.682 6.813 15.688-.198 5.899-1.223 10.38-5.563 14.562-3.312 1.5-3.312 1.5-6 2 2.763 5.177 5.86 9.437 9.75 13.813C145 140.737 145 140.737 145 143c-16.078 1.931-16.078 1.931-20.833-1.211-3.467-3.45-5.79-7.548-8.167-11.789l-1.75-2.297C113 126 113 126 113 124h-7v19H89z"/><path fill="#F5F6F8" d="M148 84q6.988-.149 13.977-.22 2.371-.03 4.742-.082c10.427-.224 19.624-.35 28.094 6.615L197 93l1.336 1.559c5.852 7.323 6.174 15.12 5.27 24.218-1.372 7.303-4.803 13.526-10.606 18.223-9.758 6.444-19.077 6.264-30.5 6.125L148 143v-41h17v27l6.688-.25 3.761-.14c4.031-.692 5.687-1.746 8.551-4.61 2.933-5.26 3.559-9.131 3-15-1.4-3.301-1.4-3.301-3-6v-2c-4.166-1.984-7.678-2.3-12.27-2.414l-2.063-.059c-2.16-.06-4.32-.106-6.48-.152l-4.412-.117c-3.591-.097-7.183-.177-10.775-.258z"/><path fill="#F7F7F9" d="M49 84h14c5.077 11.13 9.495 22.52 13.736 33.991a320 320 0 0 0 3.975 10.212l.844 2.059c.775 1.879 1.559 3.754 2.343 5.629C85 139 85 139 85 143H71l-2-9-22 1-3 9H30c1.265-6.281 2.992-12.038 5.313-18a255 255 0 0 0 6.902-20.828C44.247 98.032 46.612 91.03 49 84"/><path fill="#011150" d="M205 187v10l-3.937-1.5c-4.87-1.647-8.95-1.743-14.063-1.5v4l1.941.516c12.93 3.622 12.93 3.622 17.059 9.172 1.326 4.39 1.198 7.896 0 12.312-2.436 4.088-4.539 5.567-9 7-8.326.856-14.893.548-22-4v-10c5 2 5 2 7.25 3.125 3.92 1.247 7.67 1.035 11.75.875l1-4-1.723-.516c-7.074-2.22-14.537-4.603-18.277-11.484-.604-3.455-.658-6.55 0-10 7.152-9.809 20.028-8.603 30-4M353.25 198.125c3.394 2.314 4.938 4.18 6.75 7.875v8h-19c1.5 4 1.5 4 4 5 5.531.281 9.758-.253 15-2v7c-6.244 3.406-11.96 3.705-19 3-3.888-1.25-5.546-2.534-8.375-5.437-2.376-5.208-2.374-9.931-1.625-15.563 1.86-4.239 3.26-5.573 7.25-7.875 5.439-1.632 9.507-1.901 15 0m-11.062 7.188c-1.38 1.616-1.38 1.616-1.188 3.687h9l-1-4c-3.586-1.192-3.586-1.192-6.812.313M232.25 198.125c3.394 2.314 4.938 4.18 6.75 7.875v8h-19c1.5 4 1.5 4 4 5 6.297.337 6.297.337 12-2h3v7c-6.244 3.406-11.96 3.705-19 3-3.888-1.25-5.546-2.534-8.375-5.437-2.376-5.208-2.374-9.931-1.625-15.563 1.86-4.239 3.26-5.573 7.25-7.875 5.439-1.632 9.507-1.901 15 0m-11.062 7.188c-1.38 1.616-1.38 1.616-1.188 3.687h9l-1-4c-3.586-1.192-3.586-1.192-6.812.313M272 198h10l1 20c3.86 1.345 3.86 1.345 7 0l1-20h10v28h-12l-2 1c-4.599.551-7.978.618-12-1.812-3.03-3.314-3.123-5.981-3.098-10.293l.01-2.979.026-3.103.013-3.14q.02-3.836.049-7.673"/><path fill="#C7CBD9" d="M0 0h267v2c-12.568 1.369-25.168 1.134-37.792 1.114h-7.513q-8.055 0-16.11-.008-11.644-.011-23.29-.012-18.897-.004-37.796-.019-18.346-.014-36.693-.02h-2.288L94.149 3.05Q47.075 3.034 0 3z"/><path fill="#011150" d="m258.5 196.813 2.281-.043c2.468.256 4.083 1.002 6.219 2.23v8l-2.047-.324-2.703-.363-2.672-.387c-3.185.091-4.351.837-6.578 3.074-.455 3.122-.497 5.068 1 7.875 3.816 2.146 8.344 1.456 12.5.625l1.5-.5v8c-4.822 2.817-9.562 2.6-15 2-4.43-1.274-7.2-2.95-10-6.625-1.635-5.517-2.037-10.865.188-16.25 4.56-5.346 8.405-7.253 15.312-7.312M325.813 197.25 329 198c1.158 4.054.837 6.218-1 10l-2.75-.75c-3.31-.623-3.31-.623-5.562 1.563-2.82 3.653-2.936 6.23-3.25 10.812l-.254 3.602L316 226h-10v-28h10l1 3 2.063-2.062C322 197 322 197 325.813 197.25"/><path fill="#0B1855" d="M106 97c13.198-.493 13.198-.493 16.922 1.797C125 101 125 101 125.562 104.5c-.66 4.112-1.246 5.067-4.562 7.5-2.768.294-5.014.383-7.75.25L106 112z"/><path fill="#CCCFDC" d="M0 0h65l-1 2c-14.43.878-28.795 1.126-43.25 1.063q-3.043-.008-6.086-.014Q7.332 3.032 0 3z"/><path fill="#101B57" d="M56 102h2l.586 2.012c1.623 5.523 1.623 5.523 3.602 10.926C63 117 63 117 63 120H51c3.143-12.857 3.143-12.857 5-18"/><path fill="#091854" d="m267 144-1 3-10 2v-3c3.877-1.193 6.916-2 11-2"/><path fill="#081754" d="m266 131 1 3-6 1v-2z"/><path fill="#121F59" d="m256 135 1 2-4 1v-2z"/><path fill="#132059" d="M246 144h2l-1 3z"/><path fill="#15215A" d="m262 148 2 1Z"/></svg>