<svg xmlns="http://www.w3.org/2000/svg" xml:space="preserve" width="800" height="800" fill="#44093f" stroke="#44093f" stroke-width=".005" viewBox="-51.2 -51.2 614.4 614.4"><g stroke="#CCC" stroke-linecap="round" stroke-linejoin="round" stroke-width="11.264"><path d="M472.432 293.387H512l-14.531-61.69H14.531L0 293.387h39.569z" style="fill:#7e4dcb"/><path d="M454.881 293.387h36.905l-13.553-61.69H31.969l-13.552 61.69h32.744z" style="fill:#262626"/><path d="M462.727 242.536c-6.538-45.822-48.929-101.859-95.216-101.859H134.369c-46.286 0-81.533 60.991-88.071 106.814z" style="fill:#262626"/><path d="m46.298 247.491-9.04 63.36c-4.554 31.918 20.214 60.472 52.456 60.472h82.139c9.185 0 16.632-7.446 16.632-16.632h0c0-12.161 9.859-22.019 22.019-22.019h89.269c12.161 0 22.019 9.858 22.019 22.019h0c0 9.185 7.446 16.632 16.632 16.632h81.731c32.242 0 57.01-28.553 52.456-60.472l-9.04-63.36c-6.538-45.822-45.778-79.862-92.066-79.862H138.363c-46.287-.001-85.527 34.04-92.065 79.862" style="fill:#7e4dcb"/><g style="opacity:.21"><path d="M371.505 167.628H226.417L48.536 351.658c9.651 11.919 24.396 19.664 41.177 19.664h82.139c9.185 0 16.632-7.446 16.632-16.632 0-12.161 9.859-22.019 22.019-22.019h89.269c12.161 0 22.019 9.858 22.019 22.019 0 3.221.931 6.218 2.515 8.765L458.61 228.072c-13.317-35.692-47.642-60.444-87.105-60.444" style="fill:#c7c1c7"/></g><g style="opacity:.21"><path d="m472.611 310.851-9.04-63.36c-6.538-45.822-45.779-79.862-92.066-79.862h-36.122c46.286 0 85.528 34.039 92.066 79.862l9.04 63.36c4.554 31.918-20.214 60.472-52.456 60.472h36.122c32.241 0 57.01-28.554 52.456-60.472" style="fill:#262626"/></g><g style="opacity:.21"><path d="m37.258 310.851 9.04-63.36c6.538-45.822 45.778-79.862 92.066-79.862h36.122c-46.286 0-85.528 34.039-92.066 79.862l-9.04 63.36c-4.554 31.918 20.214 60.472 52.456 60.472H89.714c-32.242 0-57.01-28.554-52.456-60.472" style="fill:#262626"/></g></g><path d="M472.432 293.387H512l-14.531-61.69H14.531L0 293.387h39.569z" style="fill:#7e4dcb"/><path d="M454.881 293.387h36.905l-13.553-61.69H31.969l-13.552 61.69h32.744z" style="fill:#262626"/><path d="M462.727 242.536c-6.538-45.822-48.929-101.859-95.216-101.859H134.369c-46.286 0-81.533 60.991-88.071 106.814z" style="fill:#262626"/><path d="m46.298 247.491-9.04 63.36c-4.554 31.918 20.214 60.472 52.456 60.472h82.139c9.185 0 16.632-7.446 16.632-16.632 0-12.161 9.859-22.019 22.019-22.019h89.269c12.161 0 22.019 9.858 22.019 22.019 0 9.185 7.446 16.632 16.632 16.632h81.731c32.242 0 57.01-28.553 52.456-60.472l-9.04-63.36c-6.538-45.822-45.778-79.862-92.066-79.862H138.363c-46.287-.001-85.527 34.04-92.065 79.862z" style="fill:#7e4dcb"/><g style="opacity:.21"><path d="M371.505 167.628H226.417L48.536 351.658c9.651 11.919 24.396 19.664 41.177 19.664h82.139c9.185 0 16.632-7.446 16.632-16.632 0-12.161 9.859-22.019 22.019-22.019h89.269c12.161 0 22.019 9.858 22.019 22.019 0 3.221.931 6.218 2.515 8.765L458.61 228.072c-13.317-35.692-47.642-60.444-87.105-60.444z" style="fill:#c7c1c7"/></g><g style="opacity:.21"><path d="m472.611 310.851-9.04-63.36c-6.538-45.822-45.779-79.862-92.066-79.862h-36.122c46.286 0 85.528 34.039 92.066 79.862l9.04 63.36c4.554 31.918-20.214 60.472-52.456 60.472h36.122c32.241 0 57.01-28.554 52.456-60.472z" style="fill:#262626"/></g><g style="opacity:.21"><path d="m37.258 310.851 9.04-63.36c6.538-45.822 45.778-79.862 92.066-79.862h36.122c-46.286 0-85.528 34.039-92.066 79.862l-9.04 63.36c-4.554 31.918 20.214 60.472 52.456 60.472H89.714c-32.242 0-57.01-28.554-52.456-60.472z" style="fill:#262626"/></g></svg>