<svg xmlns="http://www.w3.org/2000/svg" width="120" height="60"><path fill="#f90" fill-rule="evenodd" d="M15.864 42.616V33.77l6.036 2.057v8.956zm13.178 0V33.77l-6.036 2.057v8.956zm-6.45-11.228 5.664 1.826-5.664 1.923-6.1-2.03zm-13.915-1.13V21.4l6.036 2.056v8.956zm13.18-.001V21.4l-6.036 2.056v8.956zm-6.45-11.23 5.664 1.827-5.664 1.923-6.1-2.03zm7.355 11.23V21.4l6.036 2.056v8.956zm13.178 0V21.4l-6.036 2.056v8.956zm-6.44-11.23 5.664 1.827-5.664 1.923-6.1-2.03zm.458-1.13V9.05l6.036 2.057v8.955zm13.17-.001V9.05l-6.036 2.057v8.955zM36.677 6.67l5.664 1.826-5.664 1.923-6.1-2.03zm7.355 11.227V9.05l6.036 2.057v8.955zm13.168 0V9.05l-6.036 2.057v8.955zM50.76 6.67l5.664 1.826-5.664 1.923-6.1-2.03z"/><path stroke="#000" stroke-width=".213" d="m46.998 39.018-2.028 7.044h-.88l-1.6-5.232-1.448 5.232h-.898l-2.107-7.044h1.1l1.535 5.25 1.46-5.25h.804l1.588 5.266 1.578-5.266h.885zm5.608 4.942 1.02.2a2.87 2.87 0 0 1-1.086 1.495q-.809.592-1.9.592-1.44 0-2.332-1.016c-.892-1.016-.9-1.565-.9-2.663 0-1.122.3-2.028.926-2.72a2.98 2.98 0 0 1 2.325-1.037q1.379 0 2.218.955c.839.955.846 1.588.86 2.856h-5.113q0 1.598.668 2.156c.668.558.916.558 1.412.558q1.343 0 1.892-1.387zm-.06-2.144q-.014-.593-.195-1.053c-.181-.46-.325-.568-.613-.784s-.633-.324-1.037-.324a1.85 1.85 0 0 0-1.381.586c-.378.4-.6.915-.637 1.575h3.862zm3.17 4.246h-.527v-9.5h1.097v3.64c.5-.913 1.2-1.37 2.073-1.37q1.21 0 2.027.957c.817.957.817 1.564.817 2.778q-.002 1.57-.804 2.635c-.802 1.065-1.234 1.065-2.092 1.065-.956 0-1.7-.454-2.2-1.36l-.4 1.165zm.57-2.76q.076 1.085.665 1.574c.589.489.807.5 1.244.5q.835 0 1.348-.726c.513-.726.512-1.147.512-1.988q0-1.36-.494-2.14c-.494-.78-.787-.778-1.372-.778q-.69 0-1.244.554c-.554.554-.6.847-.658 1.432v1.57zm7.713.934 1.046-.216q.349 1.327 2.204 1.327.683 0 1.158-.306a.97.97 0 0 0 .475-.863q0-.825-1.208-1.05l-1.483-.282q-.87-.167-1.387-.656c-.517-.489-.515-.755-.515-1.3 0-.6.234-1.084.704-1.482s1.1-.596 1.895-.596q2.291 0 2.83 1.792l-1.004.216q-.432-1.096-1.775-1.097c-.446 0-.812.1-1.097.274a.86.86 0 0 0-.428.766q0 .776 1.094.978l1.37.252q2.153.39 2.153 2.088a1.86 1.86 0 0 1-.802 1.568q-.8.598-2.134.598-2.504 0-3.096-2.02zm11.866-.276 1.02.2q-.278.903-1.086 1.495c-.808.592-1.172.592-1.9.592q-1.44 0-2.332-1.016c-.892-1.016-.9-1.565-.9-2.663q0-1.682.926-2.72a2.98 2.98 0 0 1 2.325-1.037q1.378 0 2.217.955c.839.955.846 1.588.86 2.856h-5.112q0 1.598.667 2.156c.667.558.916.558 1.413.558q1.343 0 1.892-1.387zm-.06-2.144q-.015-.593-.195-1.053c-.18-.46-.324-.568-.612-.784s-.633-.324-1.037-.324a1.85 1.85 0 0 0-1.382.586c-.378.4-.6.915-.636 1.575zm3.477 4.246h-1.097v-7.044h.96v1.642q.51-1.155 1.02-1.495c.51-.34.7-.342 1.048-.342a5 5 0 0 1 .432.026v1.046h-.222q-.904 0-1.503.672c-.599.672-.612 1.037-.64 1.766v3.73zm9.18-7.044-2.432 7.044h-1.137l-2.513-7.044h1.214l1.955 5.725 1.94-5.725zm2.05-2.468v1.217H89.34V36.55h1.174zm-.026 2.467v7.044H89.4v-7.044h1.097zm5.734 4.578.987.174q-.21 1.167-.926 1.828c-.716.661-1.075.66-1.8.66-.97 0-1.7-.36-2.22-1.075s-.763-1.6-.763-2.625q0-1.605.805-2.67c.805-1.065 1.267-1.065 2.2-1.065.766 0 1.38.23 1.843.7s.75 1.05.86 1.778l-.987.188q-.279-1.744-1.685-1.744a1.55 1.55 0 0 0-1.392.77q-.488.77-.488 1.996-.001 1.35.484 2.1a1.53 1.53 0 0 0 1.361.749q1.357 0 1.72-1.753zm7.176.365 1.02.2a2.87 2.87 0 0 1-1.086 1.495q-.809.592-1.9.592-1.442 0-2.333-1.016c-.891-1.016-.9-1.565-.9-2.663 0-1.122.3-2.028.926-2.72a2.98 2.98 0 0 1 2.325-1.037q1.38 0 2.218.955c.838.955.846 1.588.86 2.856h-5.112q0 1.598.668 2.156c.668.558.916.558 1.412.558q1.343 0 1.892-1.387zm-.06-2.144a3.1 3.1 0 0 0-.195-1.053 1.8 1.8 0 0 0-.612-.784q-.431-.324-1.037-.324a1.84 1.84 0 0 0-1.38.586c-.376.4-.6.915-.637 1.575zm1.82 2.42 1.046-.216q.348 1.327 2.204 1.327.682 0 1.158-.306a.97.97 0 0 0 .474-.863q0-.825-1.207-1.05l-1.483-.282q-.87-.168-1.387-.656c-.517-.488-.515-.755-.515-1.3 0-.6.234-1.084.704-1.482s1.1-.596 1.895-.596q2.291 0 2.83 1.792l-1.004.216q-.432-1.096-1.775-1.097c-.446 0-.8.1-1.097.274a.86.86 0 0 0-.428.766q0 .776 1.094.978l1.37.252q2.153.39 2.153 2.088a1.86 1.86 0 0 1-.802 1.568q-.8.598-2.134.598-2.502 0-3.095-2.02z"/><path fill-rule="evenodd" d="M80.42 23.964v-1.692a.42.42 0 0 1 .43-.43h7.583c.242 0 .437.176.438.427v1.45c-.002.243-.207.56-.57 1.065l-3.927 5.608c1.458-.034 3 .184 4.325.93.3.168.378.416.402.66v1.805c0 .25-.272.537-.558.387-2.334-1.223-5.43-1.357-8.012.014-.264.14-.54-.143-.54-.392V32.08c0-.275.005-.744.282-1.163l4.55-6.53H80.86a.42.42 0 0 1-.439-.425zM53.283 34.532h-2.307a.434.434 0 0 1-.412-.4l.001-11.84c0-.237.2-.426.445-.426l2.148-.001a.436.436 0 0 1 .42.398v1.546h.043c.56-1.495 1.615-2.193 3.036-2.193 1.443 0 2.347.698 2.994 2.193.56-1.495 1.83-2.193 3.187-2.193.97 0 2.024.4 2.67 1.296.732.996.582 2.442.582 3.713l-.002 7.472c0 .237-.2.426-.445.426H63.34a.434.434 0 0 1-.414-.425V27.83c0-.5.043-1.744-.065-2.218-.172-.797-.7-1.022-1.356-1.022-.56 0-1.142.374-1.38.972s-.215 1.595-.215 2.268v6.276c0 .237-.2.426-.445.426H57.16a.43.43 0 0 1-.414-.425l-.002-6.277c0-1.32.215-3.264-1.42-3.264-1.658 0-1.594 1.893-1.594 3.264v6.276c0 .237-.2.426-.445.426zm41.16-12.907c3.397 0 5.234 2.94 5.234 6.678 0 3.613-2.03 6.478-5.234 6.478-3.333 0-5.15-2.94-5.15-6.603 0-3.687 1.838-6.553 5.15-6.553m.022 2.722c-1.688 0-1.795 2.317-1.795 3.762s-.02 4.23 1.774 4.23c1.774 0 1.86-2.187 1.86-3.707 0-.996-.042-2.193-.34-3.14-.257-.822-.77-1.146-1.496-1.146zm10.128 10.185h-2.298a.434.434 0 0 1-.414-.425l-.004-11.845c.02-.217.2-.386.443-.386l2.14-.001a.44.44 0 0 1 .41.332v1.8h.044c.646-1.62 1.55-2.392 3.144-2.392 1.033 0 2.046.374 2.692 1.395.603.947.603 2.54.603 3.688v7.45a.45.45 0 0 1-.442.373h-2.313a.416.416 0 0 1-.4-.373v-6.43c0-1.295.15-3.2-1.443-3.2-.56 0-1.077.374-1.335.947-.323.723-.367 1.445-.367 2.243v6.376a.44.44 0 0 1-.45.426zm-29.955-5.655c0 .9.022 1.648-.432 2.447-.367.65-.95 1.05-1.597 1.05-.885 0-1.403-.674-1.403-1.673 0-1.964 1.763-2.322 3.43-2.322v.5zm2.326 5.625a.48.48 0 0 1-.545.054c-.766-.637-.903-.93-1.322-1.538-1.266 1.3-2.163 1.677-3.803 1.677-1.942 0-3.453-1.2-3.453-3.596 0-1.873 1.014-3.146 2.46-3.77 1.252-.55 3-.65 4.338-.8v-.3c0-.55.043-1.198-.28-1.673-.28-.425-.82-.6-1.295-.6-.88 0-1.662.45-1.855 1.386-.04.208-.192.413-.4.424l-2.236-.242c-.2-.043-.4-.194-.344-.482.514-2.713 2.964-3.532 5.16-3.532 1.122 0 2.6.3 3.474 1.15 1.123 1.05 1.014 2.447 1.014 3.97v3.594c0 1.08.45 1.555.87 2.138.147.2.18.46-.008.613l-1.77 1.532-.006-.006zm-32.307-5.625c0 .9.022 1.648-.432 2.447-.367.65-.95 1.05-1.597 1.05-.885 0-1.403-.674-1.403-1.673 0-1.964 1.762-2.322 3.43-2.322v.5zm2.326 5.625a.48.48 0 0 1-.545.054c-.766-.637-.904-.93-1.322-1.538-1.266 1.3-2.163 1.677-3.803 1.677-1.942 0-3.453-1.2-3.453-3.596 0-1.873 1.014-3.146 2.46-3.77 1.252-.55 3-.65 4.338-.8v-.3c0-.55.043-1.198-.28-1.673-.28-.425-.82-.6-1.295-.6-.88 0-1.662.45-1.855 1.386-.04.208-.2.413-.4.424l-2.236-.242c-.2-.043-.4-.194-.344-.482.513-2.713 2.963-3.532 5.16-3.532 1.122 0 2.6.3 3.475 1.15 1.122 1.05 1.014 2.447 1.014 3.97v3.594c0 1.08.45 1.555.87 2.138.147.2.18.46-.007.613L47 34.507l-.006-.006z"/></svg>