<svg width="100" height="100" viewBox="0 0 100 100" fill="none" xmlns="http://www.w3.org/2000/svg">
<path d="M28.4232 54.2167H34.2002C35.775 54.2167 36.736 55.4038 36.3926 56.9534C35.6618 60.3224 34.931 63.6767 34.2002 67.0347C34.1271 67.3676 34.0102 67.5044 33.6411 67.4933C29.7861 67.4711 25.9312 67.4933 22.0726 67.4933C21.2504 67.4933 20.4977 67.301 20.0117 66.5429C19.8463 66.2764 19.7366 65.9785 19.6894 65.6674C19.6423 65.3563 19.6587 65.0388 19.7377 64.7344C19.9167 63.8469 20.1287 62.9593 20.3296 62.0828C20.5094 61.2966 20.9466 60.595 21.5702 60.0921C22.1937 59.5892 22.967 59.3146 23.7644 59.3128C26.4574 59.3128 29.1504 59.3128 31.847 59.3128C32.1649 59.3128 32.2489 59.1945 32.3001 58.943C32.4901 57.8853 32.048 57.3491 30.97 57.3491C27.908 57.3491 24.8423 57.3491 21.7803 57.3491C21.4149 57.3491 21.3454 57.2529 21.4404 56.9016C21.6304 56.1619 21.8058 55.3927 21.9374 54.6346C21.9885 54.3239 22.1164 54.2167 22.4343 54.2167H28.4232ZM28.1601 62.4267H25.0762C24.8453 62.4235 24.6185 62.4886 24.4237 62.6141C24.229 62.7396 24.0747 62.92 23.98 63.1331C23.6621 63.7433 23.98 64.3424 24.6559 64.3424C26.7278 64.3646 28.7959 64.3424 30.8677 64.3424C30.9057 64.3483 30.9444 64.3458 30.9813 64.3351C31.0182 64.3244 31.0524 64.3058 31.0815 64.2805C31.1107 64.2552 31.1341 64.2239 31.1501 64.1886C31.1662 64.1533 31.1746 64.115 31.1747 64.0761C31.2587 63.6471 31.3537 63.2108 31.4706 62.7929C31.5547 62.5044 31.5035 62.423 31.1747 62.423C30.1662 62.4489 29.1613 62.4267 28.1601 62.4267Z" fill="#66CCFF"/>
<path d="M89.1233 67.571C87.8882 67.571 86.6422 67.571 85.4035 67.571C85.1075 67.571 85.0016 67.6561 84.9394 67.9408C84.6873 69.1797 84.4023 70.4112 84.1465 71.6391C84.0844 71.9275 83.9784 72.0089 83.6825 72.0089C82.7105 71.9867 81.7276 72.0089 80.7593 72.0089C80.4743 72.0089 80.3939 71.9571 80.4633 71.6391C81.5303 66.7968 82.5936 61.9534 83.6532 57.1087C83.8432 56.2655 84.0186 55.4186 84.2013 54.5644C84.2452 54.3499 84.3292 54.287 84.5412 54.287C88.2792 54.287 92.0099 54.287 95.7479 54.287C97.2497 54.287 98.1559 55.4741 97.8307 57.0015C97.2826 59.6198 96.7053 62.2357 96.0987 64.8491C95.8995 65.6033 95.4628 66.2711 94.8549 66.7516C94.247 67.2321 93.5009 67.4989 92.7297 67.5118C91.5203 67.571 90.3145 67.571 89.1233 67.571ZM88.5752 64.4497H91.027C91.4261 64.4512 91.8146 64.3204 92.1333 64.0773C92.452 63.8342 92.6833 63.4922 92.7919 63.1036C93.1317 61.7019 93.4459 60.304 93.72 58.8913C93.899 57.9815 93.413 57.4601 92.4959 57.4601C90.8589 57.4601 89.2073 57.4601 87.5959 57.4601C87.3438 57.4601 87.2305 57.5229 87.172 57.7818C86.7116 59.8824 86.2476 62.0237 85.7726 64.128C85.6995 64.4386 85.8054 64.4497 86.0466 64.4497H88.5752Z" fill="#66CCFF"/>
<path d="M43.0976 67.4822H37.708C36.1221 67.4822 35.1831 66.3913 35.49 64.8195C35.9321 62.5636 36.462 60.3077 36.9516 58.0629C37.0398 57.5388 37.1619 57.0212 37.317 56.5133C37.5786 55.8288 38.0425 55.2427 38.6455 54.8349C39.2484 54.4272 39.961 54.2178 40.686 54.2352C43.072 54.2352 45.4617 54.2352 47.8588 54.2352C48.1876 54.2352 48.3119 54.1391 48.3776 53.8173C48.6298 52.5784 48.9148 51.3469 49.1705 50.1191C49.2217 49.8639 49.3094 49.7751 49.5834 49.7751C50.5993 49.7973 51.6114 49.7751 52.6345 49.7751C52.8465 49.7751 52.9305 49.7973 52.8757 50.0525C51.6187 55.7502 50.3691 61.4529 49.1267 67.1605C49.0646 67.4379 48.9586 67.4933 48.7028 67.4933C46.8466 67.4748 44.9648 67.4822 43.0976 67.4822ZM47.6066 57.3565C47.5611 57.3426 47.5147 57.3315 47.4678 57.3232C45.7139 57.3232 43.96 57.3232 42.1951 57.3232C41.7878 57.3414 41.3983 57.4968 41.0884 57.7649C40.7785 58.033 40.5661 58.3982 40.485 58.8025C40.1781 60.1487 39.8821 61.5059 39.5971 62.8706C39.4071 63.7803 39.8711 64.3498 40.8029 64.3498C42.4509 64.3498 44.0915 64.3498 45.7577 64.3498C46.0098 64.3498 46.0975 64.2648 46.1231 64.0281C46.2693 63.2885 46.452 62.5488 46.6091 61.8092C46.9526 60.3299 47.2778 58.8469 47.6066 57.3602V57.3565Z" fill="#66CCFF"/>
<path d="M57.3153 67.571C55.7733 67.571 54.2313 67.571 52.6893 67.571C51.8453 67.571 51.1035 67.3047 50.6614 66.4911C50.4064 66.0615 50.3203 65.5507 50.4202 65.0599C51.0012 62.375 51.5712 59.6938 52.196 57.0199C52.3765 56.244 52.8107 55.5526 53.4282 55.0578C54.0457 54.563 54.8103 54.294 55.5979 54.2944C58.7038 54.2722 61.8097 54.2722 64.9046 54.2944C66.5745 54.2944 67.4807 55.5222 67.1226 57.1716L65.4746 64.6679C65.3075 65.4924 64.862 66.2324 64.2146 66.7608C63.5672 67.2892 62.7582 67.573 61.9266 67.5636C60.3773 67.5895 58.8463 67.571 57.3153 67.571ZM58.0242 64.4497H60.2165C60.6703 64.4859 61.1211 64.3495 61.4807 64.0669C61.8403 63.7844 62.0827 63.3762 62.1605 62.9223C62.4784 61.5873 62.7634 60.2485 63.0484 58.9023C63.2274 58.037 62.7415 57.423 61.8535 57.423H57.3262C56.906 57.3991 56.4907 57.5251 56.1528 57.7792C55.815 58.0333 55.5759 58.3994 55.4773 58.8136C55.1119 60.2263 54.8233 61.6464 54.5492 63.0702C54.5083 63.2406 54.5078 63.4184 54.5478 63.589C54.5879 63.7596 54.6673 63.9182 54.7797 64.0517C54.892 64.1853 55.034 64.2899 55.194 64.3572C55.354 64.4244 55.5275 64.4523 55.7002 64.4386L58.0242 64.4497Z" fill="#66CCFF"/>
<path d="M73.0457 67.571C71.5037 67.571 69.9617 67.571 68.4197 67.571C66.8778 67.571 65.862 66.3727 66.1799 64.9415C66.3808 64.0318 66.5818 63.1257 66.7828 62.2048C67.1482 60.5037 67.5136 58.7951 67.9118 57.0939C68.0906 56.2914 68.5369 55.5758 69.1758 55.0672C69.8146 54.5587 70.607 54.2884 71.4197 54.3017C74.4708 54.3017 77.5145 54.3017 80.5547 54.3017C82.2866 54.3017 83.2074 55.5111 82.8274 57.2307C82.2793 59.7307 81.7312 62.2344 81.1904 64.727C81.0098 65.5232 80.5716 66.2354 79.9453 66.7506C79.3191 67.2659 78.5407 67.5546 77.7338 67.571C76.1589 67.5895 74.606 67.571 73.0457 67.571ZM75.3185 57.4341H73.0676C72.6318 57.4158 72.2037 57.5544 71.8592 57.8252C71.5147 58.096 71.2761 58.4815 71.1858 58.9134C70.8679 60.2596 70.5719 61.6094 70.2869 62.9815C70.0969 63.9023 70.5939 64.4608 71.522 64.4608H76.031C76.4565 64.4618 76.8696 64.3157 77.2018 64.0467C77.5341 63.7776 77.7656 63.4018 77.858 62.9815C78.1649 61.602 78.4719 60.2226 78.7569 58.8432C78.8055 58.6718 78.8125 58.4911 78.7774 58.3164C78.7424 58.1417 78.6662 57.9781 78.5555 57.8395C78.4447 57.7009 78.3025 57.5914 78.1411 57.5202C77.9796 57.449 77.8035 57.4182 77.6278 57.4304C76.8678 57.4341 76.0858 57.4452 75.3148 57.4452L75.3185 57.4341Z" fill="#66CCFF"/>
<path d="M12.9376 57.4563C12.0935 57.4563 11.2458 57.4563 10.4017 57.4563C10.1788 57.4563 10.0948 57.5191 10.0363 57.7558C9.36766 60.8549 8.6734 63.9466 8.00472 67.0457C7.93164 67.3675 7.83664 67.5043 7.4749 67.4932C6.5139 67.4599 5.5529 67.471 4.58094 67.4932C4.274 67.4932 4.21554 67.3971 4.29593 67.1234C5.06692 63.6582 5.82695 60.2077 6.57601 56.7425C7.05103 54.5494 7.52605 52.3712 7.99011 50.1781C8.05223 49.8786 8.14723 49.7602 8.46513 49.7713C9.43709 49.7935 10.42 49.7935 11.3883 49.7713C11.7537 49.7713 11.7537 49.8786 11.6843 50.1412C11.3993 51.3912 11.1472 52.6412 10.8402 53.8838C10.7452 54.2536 10.8402 54.3312 11.2056 54.3312C13.6026 54.3312 16.0106 54.3312 18.4113 54.3312C19.5623 54.3312 20.3114 54.8453 20.6037 55.8105C20.7308 56.2764 20.7308 56.7685 20.6037 57.2344C19.8729 60.5381 19.1421 63.8419 18.4113 67.1456C18.3601 67.4008 18.2724 67.5154 18.0093 67.5154C17.0045 67.5154 16.0033 67.4932 14.9985 67.5154C14.6915 67.5154 14.6696 67.4304 14.7354 67.1456C15.3371 64.4188 15.9351 61.6858 16.5295 58.9466C16.5926 58.7694 16.6102 58.5789 16.5804 58.3929C16.5507 58.207 16.4747 58.0317 16.3595 57.8837C16.2444 57.7358 16.0939 57.6199 15.9223 57.547C15.7506 57.4742 15.5635 57.4467 15.3785 57.4673L12.9376 57.4563Z" fill="#66CCFF"/>
<path d="M28.1601 62.4267C29.1649 62.4267 30.1661 62.4267 31.171 62.4267C31.4998 62.4267 31.5364 62.5117 31.4669 62.7965C31.35 63.2255 31.255 63.6508 31.171 64.0798C31.1271 64.261 31.065 64.3461 30.864 64.3461C28.7922 64.3461 26.7241 64.3461 24.6523 64.3461C24.5078 64.3585 24.3628 64.3287 24.2346 64.2602C24.1064 64.1916 24.0004 64.0872 23.9292 63.9594C23.8579 63.8316 23.8245 63.6857 23.8329 63.5392C23.8412 63.3927 23.891 63.2517 23.9763 63.133C24.0722 62.9208 24.2267 62.7412 24.4212 62.6158C24.6157 62.4905 24.8419 62.4248 25.0725 62.4267H28.1601Z" fill="#030403"/>
<path d="M88.5715 64.446C87.7275 64.446 86.8797 64.446 86.0357 64.446C85.7945 64.446 85.6958 64.446 85.7616 64.1243C86.2476 62.0089 86.7007 59.8898 87.1574 57.7633C87.2086 57.5081 87.3146 57.4305 87.5813 57.4416C89.2183 57.4416 90.8699 57.4416 92.4813 57.4416C93.4021 57.4416 93.8771 57.9667 93.7054 58.8728C93.4313 60.2855 93.1134 61.6834 92.7773 63.0851C92.6687 63.4737 92.4374 63.8157 92.1187 64.0588C91.8 64.3019 91.4115 64.4327 91.0124 64.4312L88.5715 64.446ZM89.9783 62.2271C90.2195 61.1805 90.4533 60.1191 90.7091 59.0725C90.7822 58.7396 90.647 58.5917 90.3181 58.6028C89.675 58.6028 89.0283 58.6028 88.3742 58.6028C88.1842 58.6028 88.0892 58.6546 88.0454 58.8469C87.7384 60.2892 87.4205 61.7352 87.1172 63.1775C87.0332 63.3587 87.1172 63.4031 87.2853 63.4031C87.7275 63.4031 88.1842 63.4031 88.6263 63.4031C89.7664 63.3883 89.7664 63.3883 89.9783 62.2234V62.2271Z" fill="#030403"/>
<path d="M47.6066 57.3602C47.2778 58.8395 46.9635 60.3188 46.6347 61.7981C46.4775 62.5377 46.2693 63.2773 46.1487 64.017C46.0975 64.2611 46.0208 64.3498 45.7833 64.3387C44.1353 64.3387 42.4947 64.3387 40.8285 64.3387C39.9004 64.3387 39.4326 63.7618 39.6227 62.8594C39.9077 61.5022 40.2036 60.1449 40.5106 58.7914C40.5917 58.3871 40.8041 58.0218 41.114 57.7538C41.4239 57.4857 41.8134 57.3303 42.2206 57.3121C43.9746 57.2899 45.7285 57.3121 47.4933 57.3121C47.5263 57.3379 47.5654 57.3545 47.6066 57.3602ZM40.7298 63.0481C40.7919 63.2736 40.9819 63.2404 41.1427 63.2404C41.7127 63.2404 42.2718 63.2071 42.8418 63.2404C43.2328 63.2736 43.3899 63.1331 43.3899 62.7596C43.6859 61.4356 43.9819 60.108 44.2888 58.7914C44.34 58.5473 44.34 58.4216 44.0148 58.4216C43.4228 58.4549 42.8309 58.4216 42.2389 58.4216C41.7858 58.4216 41.636 58.551 41.53 58.9985C41.3729 59.716 41.1902 60.4223 41.066 61.1361C40.9527 61.7944 40.686 62.3935 40.7298 63.0481Z" fill="#030403"/>
<path d="M58.0242 64.457C57.2422 64.457 56.4712 64.457 55.6893 64.457C55.5166 64.4708 55.3431 64.4429 55.183 64.3756C55.023 64.3084 54.881 64.2037 54.7687 64.0702C54.6564 63.9366 54.577 63.7781 54.5369 63.6075C54.4968 63.4369 54.4973 63.2591 54.5383 63.0887C54.8233 61.6649 55.1302 60.2447 55.4664 58.832C55.565 58.4178 55.804 58.0518 56.1419 57.7977C56.4798 57.5436 56.895 57.4175 57.3153 57.4415H61.8243C62.7013 57.4415 63.1982 58.0406 63.0192 58.9208C62.7342 60.2558 62.4492 61.6057 62.1313 62.9407C62.0512 63.3913 61.8088 63.7957 61.451 64.0758C61.0933 64.3559 60.6456 64.4917 60.1947 64.457H58.0242ZM59.409 61.6131C59.4931 61.2433 59.5662 60.8956 59.6502 60.5332C59.7997 60.0255 59.9132 59.5077 59.99 58.9836C60.0339 58.7285 59.9462 58.5657 59.6612 58.5657C58.7952 58.5657 57.9292 58.5657 57.0522 58.5657C56.9316 58.554 56.8112 58.5898 56.716 58.6655C56.6207 58.7412 56.5579 58.8512 56.5407 58.9725C56.3945 59.6678 56.2447 60.3742 56.0985 61.0805C55.9759 61.4333 55.895 61.7995 55.8574 62.1715C55.8062 62.4082 55.7514 62.6301 55.6893 62.8668C55.5943 63.1996 55.7112 63.3475 56.0547 63.3475C56.8988 63.3475 57.7355 63.3475 58.5796 63.3475C58.7195 63.3643 58.8604 63.3243 58.9713 63.2363C59.0822 63.1483 59.1542 63.0194 59.1715 62.8779C59.2373 62.4489 59.3213 62.0236 59.4054 61.6131H59.409Z" fill="#030403"/>
<path d="M73.7582 64.457C72.9763 64.457 72.2053 64.457 71.4234 64.457C71.2506 64.4708 71.0771 64.4429 70.9171 64.3756C70.7571 64.3084 70.6151 64.2037 70.5028 64.0702C70.3905 63.9366 70.311 63.7781 70.271 63.6075C70.2309 63.4369 70.2314 63.2591 70.2723 63.0887C70.5574 61.6649 70.8643 60.2447 71.2005 58.832C71.299 58.4178 71.5381 58.0518 71.876 57.7977C72.2138 57.5436 72.6291 57.4175 73.0494 57.4415H77.5584C78.4354 57.4415 78.9323 58.0406 78.7533 58.9208C78.4682 60.2558 78.1832 61.6057 77.8653 62.9407C77.785 63.3954 77.5394 63.8031 77.1769 64.0837C76.8145 64.3643 76.3614 64.4975 75.9068 64.457H73.7582ZM75.1431 61.6131C75.2272 61.2433 75.3002 60.8956 75.3843 60.5332C75.5338 60.0255 75.6473 59.5077 75.7241 58.9836C75.7679 58.7285 75.6803 58.5657 75.3952 58.5657C74.5292 58.5657 73.6633 58.5657 72.7863 58.5657C72.7249 58.5569 72.6623 58.5604 72.6022 58.576C72.5421 58.5917 72.4856 58.6192 72.4361 58.657C72.3865 58.6948 72.3448 58.7421 72.3133 58.7963C72.2819 58.8504 72.2613 58.9103 72.2528 58.9725C72.1066 59.6678 71.9568 60.3742 71.8107 61.0805C71.6881 61.4333 71.6071 61.7995 71.5695 62.1715C71.5184 62.4082 71.4635 62.6301 71.4014 62.8668C71.3064 63.1996 71.4234 63.3475 71.7668 63.3475C72.6109 63.3475 73.4477 63.3475 74.2917 63.3475C74.4317 63.3643 74.5725 63.3243 74.6834 63.2363C74.7943 63.1483 74.8663 63.0194 74.8837 62.8779C74.975 62.4489 75.0591 62.0236 75.1431 61.6131Z" fill="#030403"/>
<path d="M98.989 55.9067C98.8502 54.2906 97.838 53.318 96.1791 53.2033C96.0874 53.2012 95.9959 53.1938 95.9051 53.1811H93.8442H88.2646C87.2086 53.1811 86.1635 53.2033 85.1075 53.2033L79.5608 53.1663C78.7459 53.1663 77.9238 53.1885 77.1089 53.1885C74.679 53.1885 72.2601 53.1885 69.8302 53.1885C69.0217 53.1744 68.2222 53.3624 67.5026 53.7359C67.3638 53.8098 67.2395 53.8838 67.0678 53.7691C66.3959 53.3338 65.6009 53.1349 64.806 53.2033C64.3309 53.2255 63.8559 53.2033 63.3809 53.2033C63.1288 53.2033 62.884 53.2255 62.6318 53.2255C59.6319 53.2255 56.621 53.2255 53.6211 53.2255C53.3032 53.2255 53.2192 53.1737 53.3032 52.8298C53.6211 51.5132 53.8952 50.1893 54.1911 48.8098H50.9025C49.5615 48.8098 48.2205 48.832 46.8831 48.8098C46.631 48.8098 46.5433 48.8727 46.4812 49.1427C46.3022 49.9119 46.1852 50.7033 45.9441 51.4615C45.86 51.9311 45.765 52.4008 45.67 52.8742C45.6664 52.9067 45.6564 52.9381 45.6406 52.9666C45.6248 52.9952 45.6034 53.0202 45.5779 53.0402C45.5523 53.0602 45.523 53.0748 45.4918 53.0831C45.4605 53.0914 45.428 53.0933 45.396 53.0887L43.9344 53.0665C42.9147 53.1306 41.892 53.1306 40.8723 53.0665C40.2268 53.0665 39.5825 53.0776 38.9394 53.0998C38.2181 53.1287 37.5072 53.2838 36.8383 53.5583C36.8383 53.6101 36.7945 53.6212 36.7433 53.6212C36.6948 53.682 36.6344 53.732 36.566 53.7683C36.4977 53.8046 36.4227 53.8264 36.3457 53.8323C36.2687 53.8382 36.1913 53.8281 36.1183 53.8026C36.0453 53.7771 35.9782 53.7368 35.9212 53.6841C35.7538 53.5835 35.5762 53.5017 35.3913 53.44C34.8104 53.1626 34.1855 53.2366 33.5644 53.2033H33.5205C26.4318 53.2033 19.343 53.2033 12.1922 53.2033C11.8962 53.2033 11.951 53.0628 11.9912 52.8816C12.2762 51.6316 12.5503 50.3816 12.8572 49.139C12.9522 48.7691 12.8572 48.7211 12.5283 48.7211C10.515 48.7211 7.61737 48.7211 5.60768 48.7211C5.24228 48.7211 3.71126 56.5576 3.07181 59.1796C2.53102 61.7499 1.97196 64.3165 1.39098 66.8757C1.32886 67.1419 1.35809 67.4637 1.12789 67.6893C1.17905 68.011 1 68.2884 1 68.599C3.39702 68.599 5.79769 68.5768 8.19471 68.599C8.52356 68.599 8.68069 68.5251 8.72453 68.2033L8.97666 67.0938C9.42975 65.0524 9.87554 63.0258 10.3286 60.977C10.4967 60.2373 10.694 59.4977 10.8365 58.7211C10.8877 58.4844 10.9827 58.4326 11.2019 58.4326C11.9108 58.4326 12.627 58.4326 13.3359 58.4326C13.6318 58.4326 13.7597 58.5177 13.7013 58.8283L11.9108 66.7573C11.8984 66.8081 11.8812 66.8577 11.8597 66.9052C11.7756 67.2751 11.7025 67.6634 11.6185 68.0369C11.5125 68.5805 11.5125 68.5805 12.0606 68.5805H25.5512H26.461C26.9908 68.5805 27.528 68.5805 28.0578 68.5805C28.0782 68.5757 28.0995 68.5757 28.1199 68.5805H29.8665H31.4414C31.7812 68.5805 32.1283 68.5583 32.4645 68.5583H41.8443H42.3193C42.4984 68.5583 42.6847 68.5583 42.8382 68.5583H61.5101C62.358 68.5954 63.2024 68.4268 63.9729 68.0665C64.0273 68.0308 64.0907 68.0118 64.1556 68.0118C64.2204 68.0118 64.2838 68.0308 64.3383 68.0665C64.9361 68.4409 65.6231 68.6442 66.326 68.6545H78.1686C77.8946 69.9378 77.6205 71.295 77.3136 72.6412C77.2515 72.9186 77.3136 72.974 77.5767 72.974C79.9006 72.974 82.2245 72.974 84.5485 72.974C84.8006 72.974 84.8883 72.889 84.9394 72.6523C85.1916 71.4245 85.4693 70.2041 85.7214 68.9725C85.7835 68.6952 85.8785 68.6027 86.1635 68.6027C88.1915 68.6249 90.2304 68.6249 92.2584 68.6027C93.4234 68.6287 94.5608 68.2424 95.4746 67.5106C96.3884 66.7788 97.0214 65.7473 97.2644 64.5938C97.4982 63.5768 97.6992 62.5635 97.9294 61.5465C98.1413 60.6589 98.2692 59.7492 98.5542 58.8727C98.6133 58.3598 98.7086 57.8519 98.8392 57.3527C98.9516 56.8795 99.002 56.3933 98.989 55.9067ZM18.0605 67.4822C17.0568 67.46 16.0532 67.46 15.0496 67.4822C14.7427 67.4822 14.7207 67.3971 14.7865 67.1123C15.3967 64.3941 15.9814 61.6538 16.5806 58.9208C16.6438 58.7436 16.6613 58.553 16.6316 58.3671C16.6018 58.1811 16.5258 58.0059 16.4107 57.8579C16.2955 57.7099 16.145 57.594 15.9734 57.5212C15.8018 57.4483 15.6146 57.4209 15.4296 57.4415C14.5965 57.4415 13.7707 57.4415 12.9376 57.4415C12.1045 57.4415 11.2458 57.4415 10.4127 57.4415C10.1898 57.4415 10.1057 57.5044 10.0473 57.741C9.3786 60.8549 8.67338 63.9467 8.01566 67.0458C7.95354 67.3675 7.84758 67.5044 7.48583 67.4933C6.51387 67.46 5.55287 67.4711 4.59187 67.4933C4.28494 67.4933 4.22647 67.3971 4.30686 67.1234C5.06689 63.6718 5.82692 60.2115 6.58695 56.7425C7.06197 54.5495 7.53699 52.3712 8.00104 50.1782C8.06316 49.8786 8.15816 49.7603 8.47606 49.7714C9.44802 49.7936 10.4309 49.8046 11.3993 49.7714C11.7647 49.7714 11.7647 49.8786 11.6952 50.1412C11.4175 51.3949 11.1508 52.656 10.8658 53.8875C10.7708 54.2832 10.8658 54.335 11.2312 54.335C13.6282 54.3128 16.0362 54.335 18.4368 54.335C19.5769 54.335 20.3369 54.849 20.6292 55.8143C20.7557 56.279 20.7557 56.7697 20.6292 57.2344C19.8984 60.5381 19.1676 63.8419 18.4368 67.1456C18.4076 67.386 18.3236 67.4822 18.0605 67.4822ZM33.6521 67.4822C29.7959 67.4822 25.9397 67.4822 22.0835 67.4822C21.2614 67.4822 20.5196 67.2899 20.0227 66.5317C19.8568 66.2655 19.7469 65.9675 19.6997 65.6564C19.6526 65.3452 19.6692 65.0276 19.7486 64.7233C19.9167 63.8357 20.1396 62.9592 20.3406 62.0717C20.5185 61.2845 20.9552 60.5818 21.5792 60.0786C22.2032 59.5754 22.9775 59.3015 23.7753 59.3017C26.4683 59.3017 29.1613 59.3017 31.8579 59.3017C32.1758 59.3017 32.2708 59.1833 32.311 58.906C32.501 57.8631 32.0589 57.3268 30.9627 57.3268C27.8982 57.3268 24.835 57.3268 21.7729 57.3268C21.4075 57.3268 21.3381 57.2307 21.4331 56.8794C21.6231 56.1397 21.7985 55.3705 21.9301 54.6123C21.9922 54.3017 22.1091 54.1944 22.427 54.1944C24.4221 54.2166 26.4098 54.1944 28.4049 54.1944H34.1892C35.7641 54.1944 36.747 55.3816 36.3816 56.9311C35.6508 60.2891 34.92 63.6471 34.1892 67.0125C34.149 67.3675 34.0211 67.4933 33.6521 67.4933V67.4822ZM48.7174 67.4822H43.0976C41.3035 67.4822 39.5057 67.4822 37.7007 67.4822C36.1148 67.4822 35.1648 66.4023 35.4827 64.8194C35.9358 62.5635 36.4547 60.3187 36.9443 58.0628C37.0338 57.539 37.1558 57.0215 37.3097 56.5132C37.5708 55.8284 38.0346 55.242 38.6377 54.8342C39.2408 54.4264 39.9536 54.2172 40.6787 54.2351C43.0757 54.2351 45.4654 54.2351 47.8515 54.2351C48.1803 54.2351 48.3045 54.139 48.3703 53.8172C48.6224 52.5783 48.9075 51.3468 49.1632 50.119C49.2144 49.8638 49.3094 49.7751 49.5761 49.7751C50.5993 49.7751 51.6151 49.7751 52.6272 49.7751C52.8501 49.7751 52.9342 49.7751 52.8684 50.0524C51.6114 55.7502 50.3617 61.4528 49.1194 67.1604C49.0755 67.4304 48.9586 67.4822 48.7174 67.4822ZM61.912 67.5783H57.3153H52.6784C51.8343 67.5783 51.0925 67.301 50.6504 66.4984C50.4001 66.0672 50.3143 65.5581 50.4092 65.0672C50.9902 62.3823 51.5603 59.7011 52.1851 57.0273C52.3667 56.252 52.8012 55.5613 53.4185 55.0667C54.0357 54.5722 54.7997 54.3027 55.5869 54.3017C58.6928 54.2795 61.7987 54.2795 64.8937 54.3017C66.5635 54.3017 67.4697 55.5295 67.1116 57.1789L65.4637 64.6752C65.2912 65.4984 64.8432 66.2362 64.1954 66.7638C63.5477 67.2913 62.7398 67.5765 61.9084 67.5709L61.912 67.5783ZM77.7155 67.5783C76.1626 67.5783 74.5987 67.5783 73.0457 67.5783C71.4928 67.5783 69.9617 67.5783 68.4088 67.5783C66.8559 67.5783 65.851 66.3801 66.1689 64.9489C66.3699 64.028 66.5708 63.122 66.7718 62.2122C67.1372 60.511 67.5026 58.8024 67.9009 57.1012C68.0827 56.3004 68.5299 55.5867 69.1681 55.0788C69.8062 54.5708 70.5969 54.2992 71.4087 54.3091C74.4598 54.3091 77.5036 54.3091 80.5437 54.3091C82.2757 54.3091 83.1965 55.5184 82.8165 57.2381C82.2684 59.7307 81.7203 62.2307 81.1795 64.7344C80.9982 65.5316 80.558 66.2442 79.9294 66.7584C79.3008 67.2726 78.52 67.5587 77.7119 67.5709L77.7155 67.5783ZM97.8125 57.0569C97.2534 59.6752 96.6834 62.2973 96.0805 64.9045C95.882 65.6587 95.4462 66.327 94.839 66.8081C94.2318 67.2892 93.4862 67.557 92.7151 67.5709C91.5093 67.5709 90.3181 67.5709 89.1123 67.5709C87.9065 67.5709 86.6312 67.5931 85.3925 67.5931C85.3376 67.5831 85.2812 67.5849 85.227 67.5986C85.1729 67.6123 85.1222 67.6374 85.0783 67.6724C85.0345 67.7073 84.9984 67.7513 84.9726 67.8014C84.9468 67.8515 84.9317 67.9065 84.9285 67.9629C84.6764 69.2018 84.3913 70.4333 84.1356 71.6612C84.1341 71.7182 84.1203 71.7743 84.095 71.8253C84.0698 71.8763 84.0337 71.9211 83.9894 71.9564C83.9451 71.9917 83.8936 72.0167 83.8387 72.0296C83.7837 72.0425 83.7267 72.043 83.6715 72.031C82.6995 72.0088 81.7166 72.031 80.7483 72.031C80.4633 72.031 80.3829 71.9792 80.4523 71.6612C81.5193 66.8189 82.5826 61.9755 83.6423 57.1308C83.8213 56.2765 84.0077 55.4296 84.1904 54.5865C84.2342 54.3609 84.3183 54.3091 84.5302 54.3091C88.2682 54.3091 91.9989 54.3091 95.737 54.3091C97.2461 54.3424 98.1523 55.5184 97.8307 57.0606L97.8125 57.0569Z" fill="#030403"/>
<path d="M12.1447 39.3387C11.9547 38.1331 12.2908 37.1641 13.3797 36.5317C12.7011 37.3221 12.2711 38.2995 12.1447 39.3387Z" fill="#030403"/>
<path d="M27.6486 30.1967C27.7655 29.054 28.5767 28.2848 29.8958 28.0629C28.9478 28.5235 28.1631 29.2686 27.6486 30.1967Z" fill="#030403"/>
<path d="M27.7253 28.9689C27.7667 28.7443 27.8813 28.5402 28.0509 28.3893C28.2205 28.2384 28.4353 28.1495 28.6607 28.1368C28.3319 28.394 28.0195 28.6719 27.7253 28.9689Z" fill="#030403"/>
<path d="M12.3859 36.9792C12.1466 37.3112 11.9581 37.6777 11.8268 38.0665C11.6185 37.7374 11.8378 37.2455 12.3859 36.9792Z" fill="#030403"/>
<path d="M36.8539 53.5547C36.8528 53.5656 36.8492 53.5762 36.8435 53.5856C36.8378 53.595 36.8301 53.603 36.8209 53.609C36.8117 53.6151 36.8013 53.6189 36.7904 53.6204C36.7795 53.6219 36.7684 53.6209 36.7579 53.6176C36.7922 53.6003 36.8244 53.5792 36.8539 53.5547Z" fill="#882A7A"/>
<path d="M33.9334 28.8728C35.6289 28.5436 37.0868 29.0651 38.362 30.1746C38.362 30.3669 38.5301 30.4297 38.6032 30.5444C38.8773 31.0473 39.6482 31.3765 39.1403 32.1864C39.4765 31.9534 39.8711 32.2308 40.1744 32.0052C40.2717 32.0207 40.3681 32.0417 40.4631 32.0681C40.496 32.2271 40.6531 32.2382 40.7591 32.301C41.1002 32.5207 41.3869 32.8166 41.5972 33.166C41.8075 33.5154 41.9358 33.9091 41.9722 34.3166C41.6677 34.4698 41.3496 34.5936 41.0221 34.6864C40.7993 34.6864 40.7042 34.7715 40.876 34.9638C41.0267 35.1418 41.1085 35.3691 41.1062 35.6036C41.0966 35.6625 41.1069 35.723 41.1354 35.7753C41.1639 35.8276 41.2089 35.8687 41.2633 35.892C41.6785 35.833 42.099 35.8219 42.5166 35.8587C42.882 35.9031 42.7468 36.1879 42.8016 36.3691C42.8236 36.4541 42.6847 36.443 42.6116 36.432C41.2743 36.2064 40.9052 36.432 40.3973 37.682C40.3973 37.682 40.3973 37.7041 40.4594 37.7781C40.6896 37.534 40.7846 37.179 41.0514 36.9793C41.3694 36.7632 41.7341 36.6275 42.1147 36.5836C41.2816 37.2012 41.4497 38.0629 41.3364 38.8025C41.493 38.5398 41.6008 38.2503 41.6543 37.9482C41.7064 37.7248 41.803 37.5145 41.938 37.3301C42.0731 37.1458 42.2439 36.9911 42.4399 36.8757C42.8053 36.6945 42.882 36.7574 42.9441 37.1309C43.0089 37.8341 42.9621 38.5433 42.8053 39.2315C42.7618 39.3925 42.7618 39.5624 42.8053 39.7234C43.1707 38.6361 43.4594 37.6339 43.3644 36.5429C43.3424 36.2766 43.2913 36.0215 43.2584 35.7552C43.2145 35.4149 43.2913 35.1043 43.6238 35.0155C44.5081 34.7715 45.0854 34.1391 45.5933 33.4475C45.8893 33.0777 46.0793 33.0777 46.4885 33.3846C46.4784 33.4894 46.4896 33.5951 46.5214 33.6953C46.7995 34.6758 46.9902 35.6796 47.0914 36.6945C47.2171 38.0983 47.0807 39.5134 46.6895 40.8661C46.1304 42.6783 45.0233 43.9615 43.094 44.3018C42.0175 44.469 40.9198 44.4327 39.8565 44.1945C39.7506 44.1723 39.6556 44.1206 39.5825 44.2463L39.4363 44.213C39.4144 44.1058 39.3852 44.0318 39.2792 44.1502C38.6604 44.0061 38.074 43.7451 37.5509 43.3809C37.7811 44.213 37.4887 44.9157 37.3828 45.6442C37.2257 46.6908 37.6239 47.0828 38.6471 46.9682V47.2899C38.3895 47.3765 38.114 47.3933 37.848 47.3388C37.582 47.2843 37.3347 47.1604 37.1306 46.9793C36.6264 46.5836 36.1404 46.1361 35.6691 45.7108C35.5073 45.5573 35.312 45.4445 35.099 45.3817C34.4693 45.149 33.8585 44.8671 33.272 44.5385C33.2392 44.3683 33.093 44.3573 32.9541 44.2722C32.9835 44.6758 33.1296 45.0616 33.3743 45.3817C33.4716 45.5171 33.5397 45.6716 33.5743 45.8353C33.6089 45.999 33.6093 46.1683 33.5753 46.3321C33.3574 47.3357 33.0755 48.324 32.7312 49.2907C32.5385 49.8716 32.2173 50.4003 31.7922 50.8365C31.277 51.3062 30.7691 51.787 30.2538 52.2567C30.0786 52.4255 29.8647 52.5477 29.6312 52.6123C29.3978 52.6768 29.1522 52.6817 28.9165 52.6265C28.6205 52.5747 28.5511 52.6709 28.4195 52.8928C28.0541 53.6324 27.4512 53.7692 26.7424 53.3513C26.69 53.3163 26.635 53.2853 26.5779 53.2589C26.4829 53.0999 26.366 52.9593 26.282 52.7892C25.8289 51.8609 25.891 51.6354 26.7679 51.1139C26.9677 50.9956 27.1674 50.8723 27.3672 50.7441C27.7801 50.4778 27.7801 50.4778 28.098 50.8291C28.0761 50.4593 28.0468 50.145 28.0541 49.8269C28.0366 49.4947 28.0611 49.1617 28.1272 48.8358C28.1053 48.5584 28.2953 48.3328 28.3063 48.0666C28.3392 48.0333 28.4122 48.0222 28.3392 47.9593C28.3392 47.9926 28.3172 48.0222 28.3063 48.0666C28.1674 48.0666 28.1053 48.1738 28.0432 48.27C27.8811 48.5637 27.6592 48.8192 27.3921 49.0194C27.1249 49.2196 26.8188 49.36 26.4939 49.4312C25.5294 49.6145 24.5518 49.7184 23.5707 49.7419C23.4867 49.372 23.4026 48.9726 23.3076 48.5806C23.2747 48.4327 23.2565 48.2811 23.2236 48.1331C23.1176 48.6028 23.0664 49.0614 23.0007 49.5089C22.8326 50.7663 22.3576 51.8462 21.1737 52.4416C21.0375 52.4947 20.9234 52.5934 20.8503 52.7212C20.7772 52.849 20.7495 52.9983 20.7717 53.1442C20.7937 53.7433 20.5196 54.0096 19.9167 54.0503C19.7596 54.0503 19.5513 53.9874 19.4307 54.1354C19.0255 54.0846 18.6349 53.9499 18.2834 53.7396C18.2075 53.7044 18.1394 53.6541 18.0831 53.5916C18.0269 53.5292 17.9836 53.4559 17.956 53.3762C17.9284 53.2964 17.9169 53.2119 17.9223 53.1275C17.9277 53.0432 17.9498 52.9608 17.9874 52.8854C18.241 52.1944 18.4259 51.4796 18.5392 50.7515C18.5667 50.6311 18.5686 50.5062 18.5446 50.385C18.5207 50.2638 18.4715 50.1492 18.4003 50.0488C17.7793 49.14 17.2758 48.1544 16.9022 47.1161C16.84 46.6058 16.7633 46.0917 16.7122 45.5814C16.5633 44.5311 16.5942 43.4627 16.8035 42.4231C17.5343 39.5422 19.449 37.9112 22.2004 37.142C21.9264 37.6635 21.6633 38.1886 21.3893 38.7101C21.2943 38.9024 21.2102 39.0799 21.1152 39.2759C20.9576 39.5967 20.8955 39.9569 20.9363 40.3127C20.9772 40.6685 21.1193 41.0047 21.3454 41.2803C21.2504 42.3898 21.9154 43.1997 22.4745 44.0429C22.2004 44.7456 22.4416 45.2707 23.0116 45.7182C23.3186 45.9623 23.6109 46.2212 23.9397 46.4578C24.5207 47.1975 25.321 47.2567 26.1321 47.1309C26.9277 46.962 27.7022 46.704 28.4415 46.3617C29.3696 45.9919 30.2977 45.622 31.3208 45.659C31.5108 45.659 31.5839 45.5629 31.6862 45.4149C32.2855 44.4423 32.2124 43.3772 32.0516 42.3195C31.7667 40.5578 31.3861 38.8133 30.9116 37.0939C30.8787 36.9867 30.9335 36.8055 30.7435 36.7722C30.7216 36.5281 30.6996 36.2803 30.6704 36.0325C30.4822 36.5884 30.3859 37.172 30.3854 37.7596C30.3415 38.699 30.5644 39.6087 30.6704 40.5333C30.8092 41.6428 30.8385 42.7522 30.3854 43.8284C30.3233 43.9689 30.3013 44.128 30.0894 44.1502C28.9932 44.2907 28.0249 44.8232 27.0639 45.3558C26.582 45.681 26.046 45.9153 25.4817 46.0473C24.3855 46.1953 23.6547 45.6405 23.0482 44.8195C22.8472 44.5422 23.0043 44.1686 23.1213 43.8691C23.4439 43.0831 23.8314 42.326 24.2796 41.6058C24.4075 41.3802 24.5207 41.1694 24.645 40.9438L24.74 40.8033L24.7729 40.7182C24.729 40.696 24.7107 40.7182 24.6998 40.7626C24.6582 40.7993 24.6191 40.8388 24.5828 40.8809C24.0371 41.4861 23.5364 42.1314 23.0847 42.8114C22.8688 42.307 22.5887 41.8334 22.2516 41.4024C22.304 40.7789 22.5073 40.1781 22.8435 39.6531C23.2893 38.9948 23.6547 38.3254 24.0676 37.6524C24.9409 36.1731 25.7119 34.6346 26.8593 33.3328C27.0822 33.0888 27.4074 32.9149 27.4805 32.5451C27.511 32.552 27.543 32.5485 27.5714 32.5351C27.5998 32.5217 27.6231 32.4992 27.6376 32.4712L30.1954 31.9904C30.2465 31.9904 30.3013 31.9904 30.3123 31.9164C30.6135 31.8697 30.9212 31.8934 31.212 31.9857C31.5027 32.078 31.7687 32.2365 31.9895 32.449C32.0735 32.5229 32.1466 32.6302 32.2745 32.6413C32.2766 32.6721 32.2864 32.7018 32.303 32.7277C32.3196 32.7536 32.3425 32.7748 32.3695 32.7892C32.3695 32.7892 32.3695 32.8114 32.3695 32.8225C32.3766 32.82 32.3843 32.82 32.3914 32.8225C32.379 32.8087 32.3641 32.7974 32.3476 32.7892C32.3533 32.7578 32.3505 32.7254 32.3396 32.6955C32.3287 32.6656 32.31 32.6392 32.2855 32.6191C32.1386 32.2911 32.0164 31.9524 31.9201 31.6058C31.7301 30.4445 31.8689 29.7825 32.9213 29.3129C33.3195 29.1391 33.6776 29.128 33.9334 28.8728ZM37.7262 35.304H37.6532C37.2425 35.3032 36.8378 35.4039 36.4742 35.5972C36.1106 35.7906 35.7991 36.0707 35.5667 36.4135C35.4065 36.6324 35.2345 36.8423 35.0515 37.0422C35.0296 37.1161 34.9054 37.1272 34.9236 37.2234C34.9274 37.2362 34.934 37.2481 34.9429 37.258C34.9518 37.2679 34.9629 37.2757 34.9752 37.2807C34.9875 37.2856 35.0008 37.2877 35.014 37.2868C35.0272 37.2858 35.04 37.2818 35.0515 37.2752C35.3585 37.1161 35.4644 37.3269 35.5777 37.5414C35.6243 37.6523 35.6927 37.7525 35.7787 37.8358C35.8648 37.9191 35.9667 37.9838 36.0783 38.0259C36.1295 38.1738 36.2172 38.0999 36.2902 38.0259L36.7324 37.6302C37.3652 37.0961 38.0915 36.6871 38.8736 36.4246C38.7996 36.4151 38.7247 36.4151 38.6507 36.4246L38.2853 36.4689C38.276 36.3273 38.2389 36.1889 38.1762 36.0619C38.1134 35.9349 38.0263 35.8218 37.9199 35.7293C37.792 35.622 37.6678 35.5148 37.697 35.3225C37.7455 35.3119 37.7922 35.2945 37.8359 35.2707L37.803 35.2189L37.7262 35.304ZM26.5012 36.6797C26.2271 36.9571 26.26 37.3528 26.1358 37.6709L25.405 39.3018C25.3721 39.3351 25.299 39.3462 25.3721 39.409C25.3721 39.3757 25.394 39.3462 25.405 39.3018C25.4692 39.2902 25.5302 39.265 25.584 39.2278C26.2562 38.4095 26.8132 37.501 27.2393 36.5281C27.299 36.3671 27.3762 36.2133 27.4695 36.0695C27.5198 36.0062 27.5892 35.9614 27.6671 35.942C27.7451 35.9226 27.8271 35.9298 27.9007 35.9623C28.0578 36.0067 28.0066 36.1546 28.0176 36.2618L28.1126 37.0607C28.3757 35.2115 29.4098 34.0207 31.0833 33.3144C30.7581 33.0481 30.4914 33.2182 30.2173 33.3144C29.7206 33.3121 29.2242 33.3368 28.7301 33.3883C28.4478 33.39 28.1713 33.4707 27.9314 33.6214C27.6916 33.7722 27.4975 33.9872 27.3708 34.2426C26.9894 34.9942 26.6786 35.7805 26.4427 36.591C26.4281 36.6169 26.4793 36.6612 26.5012 36.6797ZM46.2875 33.5473C45.5567 34.4867 44.8844 35.341 43.6823 35.2966C44.5556 35.818 45.8308 35.0266 46.2875 33.5473ZM35.3475 33.2774C34.2513 33.4919 33.7653 34.1834 33.9882 35.2522C34.0738 34.8482 34.2381 34.4654 34.4715 34.1263C34.7049 33.7873 35.0027 33.4986 35.3475 33.2774ZM36.7251 43.9024C36.8639 43.1627 37.4559 42.9223 38.0113 42.6339C36.8091 42.878 36.8091 42.878 36.7251 43.9024Z" fill="#FCE94F"/>
<path d="M22.2333 37.1308C19.4928 37.8964 17.5526 39.531 16.8364 42.423C16.6239 43.4624 16.5955 44.5318 16.7524 45.5813C16.8035 46.0916 16.8802 46.6057 16.9424 47.116C15.214 43.048 16.2883 38.795 19.8656 36.2137C21.2029 35.241 22.7339 34.8157 24.4294 34.5717C23.9251 35.1782 23.4794 35.7255 23.0153 36.258C22.7794 36.5708 22.5178 36.8627 22.2333 37.1308Z" fill="#F9F3B6"/>
<path d="M26.5779 53.2367C26.6397 53.2512 26.6997 53.2722 26.757 53.2995C27.4512 53.7174 28.0542 53.5658 28.4342 52.841C28.5511 52.6154 28.6351 52.5192 28.9311 52.5747C29.167 52.627 29.4118 52.6206 29.6447 52.5562C29.8776 52.4918 30.0917 52.3713 30.2685 52.2049C30.7837 51.7352 31.2916 51.2544 31.8068 50.7847C32.2433 50.3576 32.5663 49.8259 32.7459 49.2389C33.0852 48.2706 33.3671 47.2826 33.5899 46.2803C33.6199 46.1244 33.6171 45.9638 33.5818 45.809C33.5466 45.6542 33.4797 45.5086 33.3853 45.3816C33.1327 45.054 32.9883 44.6542 32.9724 44.2389C33.1186 44.324 33.2574 44.335 33.2903 44.5052C33.1844 44.5569 33.2465 44.5902 33.2903 44.6346C33.6544 45.0219 34.087 45.3367 34.5656 45.5629C34.6037 45.5717 34.6396 45.5889 34.6705 45.6131C34.7015 45.6374 34.7269 45.6682 34.745 45.7033C34.7631 45.7385 34.7734 45.7772 34.7752 45.8168C34.777 45.8564 34.7703 45.896 34.7556 45.9327C34.4107 48.0921 33.5307 50.1279 32.1978 51.8498C31.7855 52.2592 31.3379 52.6305 30.8604 52.9593C30.3014 53.4512 29.6692 53.8543 29.238 54.5052C29.1468 54.6321 29.0299 54.7379 28.8953 54.8158C28.7606 54.8936 28.6111 54.9416 28.4567 54.9566C28.3024 54.9717 28.1466 54.9534 27.9997 54.903C27.8528 54.8525 27.7182 54.7712 27.6047 54.6642C27.1725 54.2618 26.8235 53.7766 26.5779 53.2367Z" fill="#E8D348"/>
<path d="M30.791 36.7462C30.981 36.7795 30.9298 36.9607 30.9591 37.068C31.4275 38.7888 31.8081 40.533 32.0991 42.2936C32.2562 43.3512 32.3293 44.4052 31.7337 45.389C31.6387 45.5369 31.5766 45.6441 31.3683 45.6331C30.3452 45.5998 29.4171 46.0029 28.489 46.3357C27.7485 46.6748 26.9743 46.9327 26.1796 47.1049C25.3575 47.2344 24.5573 47.1678 23.9872 46.4319C24.4575 46.6233 24.9665 46.6971 25.471 46.6468C25.9754 46.5966 26.4604 46.4239 26.8849 46.1434C27.908 45.5443 28.9201 44.8527 30.1223 44.7455C30.8531 44.6826 30.9773 44.2869 31.1235 43.7433C31.4786 42.3155 31.4861 40.8218 31.1454 39.3904C30.9581 38.52 30.8396 37.6358 30.791 36.7462Z" fill="#E8D348"/>
<path d="M34.9821 47.3712C35.5814 48.4474 35.6691 49.6123 35.6581 50.7847C35.6536 51.0085 35.6972 51.2306 35.786 51.4356C36.0491 52.0975 35.7129 52.7262 35.0552 52.7262C34.2771 52.7513 33.4982 52.7229 32.724 52.6412C32.618 52.6412 32.4609 52.6412 32.417 52.5117C32.3732 52.3823 32.5339 52.3527 32.5961 52.2677C33.5702 51.0745 34.2882 49.689 34.7044 48.1996C34.7958 47.9149 34.8908 47.6375 34.9821 47.3712Z" fill="#E8D348"/>
<path d="M39.6154 44.213C39.6884 44.0836 39.7834 44.139 39.8894 44.1612C40.9514 44.41 42.0511 44.4464 43.1268 44.2685C45.0671 43.9282 46.1633 42.6487 46.7224 40.8328C47.1136 39.4801 47.25 38.065 47.1243 36.6612C47.0231 35.6463 46.8324 34.6425 46.5543 33.662C46.5224 33.5618 46.5112 33.4561 46.5214 33.3513C46.6963 33.4465 46.8274 33.6071 46.8868 33.7988C47.7089 36.2211 48.089 38.6842 47.2887 41.1953C46.7626 42.8484 45.7723 44.1095 44.033 44.5865C42.852 44.8564 41.622 44.8118 40.4631 44.4571C40.171 44.4146 39.8858 44.3325 39.6154 44.213Z" fill="#E8D348"/>
<path d="M27.5243 32.5007C27.4512 32.8706 27.1224 33.0444 26.9031 33.2885C25.7521 34.5902 24.9848 36.1361 24.1078 37.6154C23.7059 38.2885 23.3186 38.9689 22.8947 39.6198C22.5645 40.1478 22.3618 40.7471 22.3027 41.3691C22.1749 41.2211 22.0616 41.0584 21.9373 40.9105C21.7683 40.6967 21.6644 40.4377 21.6384 40.1651C21.6125 39.8926 21.6656 39.6183 21.7912 39.3757C22.3772 38.0809 23.1836 36.9005 24.1736 35.8883C25.0067 34.9601 25.774 33.98 26.662 33.1035C26.8879 32.8248 27.1867 32.6159 27.5243 32.5007Z" fill="#F9F3B6"/>
<path d="M33.9334 28.8727C33.6813 29.1279 33.3232 29.139 33.0163 29.2795C31.9639 29.7492 31.8251 30.4111 32.0151 31.5724C32.1035 31.9216 32.2259 32.261 32.3805 32.5857L32.3586 32.6079C32.2307 32.6079 32.1576 32.5006 32.0735 32.4156C31.8537 32.2017 31.5878 32.0422 31.2968 31.9498C31.0058 31.8574 30.6976 31.8346 30.3964 31.883H28.6936C29.9579 29.9267 31.9091 29.3424 33.9334 28.8727Z" fill="#F9F3B6"/>
<path d="M19.46 54.1131C19.5988 53.9651 19.7852 54.0502 19.9459 54.028C20.5452 53.9836 20.8192 53.7173 20.801 53.1219C20.778 52.9759 20.8054 52.8263 20.8786 52.6983C20.9518 52.5704 21.0663 52.4718 21.2029 52.4193C22.3832 51.8202 22.8472 50.744 23.0299 49.4866C23.092 49.028 23.1468 48.5694 23.2528 48.1108C23.2857 48.2588 23.304 48.4104 23.3368 48.5583C23.3368 49.2425 23.304 49.9119 23.3149 50.596C23.341 51.1227 23.1932 51.6431 22.8947 52.0753C22.5081 52.5498 22.2986 53.1467 22.3028 53.7617C22.3356 54.3608 22.1018 54.5421 21.5135 54.5421C20.8098 54.5186 20.1153 54.3735 19.46 54.1131Z" fill="#E8D348"/>
<path d="M15.3273 50.2078C15.1091 50.0214 14.9302 49.7925 14.8011 49.5347C14.3261 48.7137 14.3699 48.4253 15.024 47.7522L15.689 47.0791C15.8571 47.1531 15.8571 47.3343 15.9119 47.4859C16.0712 48.075 16.3322 48.6309 16.6829 49.1279C16.9679 49.4977 16.7779 49.801 16.5989 50.1006C16.4198 50.4001 16.1567 50.2818 15.8936 50.2411C15.7067 50.2085 15.5167 50.1973 15.3273 50.2078Z" fill="#FCE94F"/>
<path d="M15.3273 50.2078C15.5102 50.2045 15.6932 50.2119 15.8754 50.23C16.1385 50.2744 16.4125 50.3779 16.5806 50.0895C16.7487 49.801 16.946 49.5014 16.6646 49.1168C16.3202 48.6161 16.0597 48.0613 15.8936 47.4748C15.8498 47.3343 15.8498 47.1531 15.6707 47.068C15.8608 46.8757 15.8936 46.5983 16.0361 46.3284C16.4615 47.7196 17.0764 49.0439 17.8631 50.2633C17.8936 50.306 17.9135 50.3555 17.9211 50.4077C17.9288 50.4598 17.9239 50.513 17.907 50.5628C17.8936 50.691 17.8492 50.8139 17.7777 50.9205C17.7062 51.0272 17.6098 51.1144 17.4971 51.1744C17.3843 51.2343 17.2587 51.2652 17.1314 51.2644C17.004 51.2635 16.8789 51.2309 16.7669 51.1693C16.2154 50.9752 15.7205 50.6447 15.3273 50.2078Z" fill="#E8D348"/>
<path d="M23.5816 49.7085C24.5627 49.685 25.5403 49.5812 26.5048 49.3979C26.8266 49.3224 27.1293 49.1798 27.3935 48.9792C27.6578 48.7786 27.8778 48.5245 28.0395 48.2329C28.1016 48.1257 28.1674 48.0295 28.3026 48.0295C28.3026 48.2958 28.1016 48.5214 28.1235 48.7988C27.8276 48.9467 27.8276 49.2684 27.7581 49.5384C27.7417 49.6206 27.7006 49.6956 27.6404 49.7532C27.5802 49.8107 27.5039 49.8481 27.422 49.8602C26.2305 50.0794 25.0107 50.0907 23.8155 49.8934C23.7168 49.8676 23.5707 49.9082 23.5816 49.7085Z" fill="#E8D348"/>
<path d="M14.9071 38.1108C14.9071 38.6656 14.929 39.2203 14.4942 39.6789C14.3042 39.8823 14.5892 40.0746 14.6623 40.2669C14.7006 40.3619 14.7736 40.4384 14.8661 40.4804C14.9587 40.5224 15.0636 40.5267 15.1592 40.4925C15.5096 40.3843 15.843 40.2261 16.1494 40.0228C16.0764 40.8105 15.8535 41.0472 15.1884 41.0805C15.0915 41.1017 14.9914 41.1032 14.8938 41.0851C14.7963 41.0669 14.7033 41.0295 14.6201 40.9748C14.5369 40.9202 14.4652 40.8495 14.4091 40.7667C14.353 40.6839 14.3136 40.5907 14.2932 40.4925C14.1872 40.2262 14.1142 39.9378 14.0192 39.6604C14.0192 39.5125 14.0192 39.3719 14.0192 39.224C14.0262 38.9656 14.117 38.7168 14.2774 38.5157C14.4378 38.3145 14.659 38.1723 14.9071 38.1108Z" fill="#E8D348"/>
<path d="M38.6763 47.2308V46.909L38.8992 46.7611C38.468 46.7167 38.0149 46.835 37.7189 46.3654C38.0441 46.3876 38.3182 46.5133 38.6142 46.5059C38.898 46.5237 39.1781 46.4328 39.3988 46.2513C39.6195 46.0697 39.7646 45.8108 39.8054 45.5259C39.8382 45.3668 39.8894 45.2152 39.9333 45.0673C39.9844 44.8417 40.1342 44.9822 40.2511 44.9933C40.3681 45.0044 40.4521 45.0562 40.4192 45.1967C40.2073 46.125 39.809 46.8942 38.848 47.2234C38.7822 47.2308 38.7274 47.2308 38.6763 47.2308Z" fill="#E8D348"/>
<path d="M22.5074 44.0428C21.9483 43.1997 21.2833 42.4008 21.3783 41.2803C21.7824 41.7662 22.1489 42.2831 22.4745 42.8261C22.6006 43.0019 22.6713 43.2122 22.6772 43.4293C22.6831 43.6465 22.6239 43.8604 22.5074 44.0428Z" fill="#E8D348"/>
<path d="M41.9941 34.3129C41.9591 33.905 41.8314 33.5108 41.6209 33.1612C41.4105 32.8115 41.123 32.5159 40.781 32.2973C40.675 32.2344 40.5179 32.2234 40.485 32.0643C40.9859 32.16 41.4418 32.4199 41.7822 32.804C42.253 33.2931 42.6154 33.878 42.8455 34.52C42.5833 34.3799 42.2905 34.3087 41.9941 34.3129Z" fill="#E8D348"/>
<path d="M40.1818 32.02C39.8639 32.2455 39.4875 31.9756 39.1477 32.2012C39.6519 31.3913 38.8846 31.0695 38.6105 30.5592C38.5375 30.4297 38.3584 30.3558 38.3694 30.1893L40.3718 31.8313C40.3425 31.9127 40.0977 31.8387 40.1818 32.02Z" fill="#E8D348"/>
<path d="M14.9071 38.1109C14.6603 38.1747 14.4402 38.3168 14.279 38.5165C14.1179 38.7162 14.0243 38.9629 14.0119 39.2204C14.0119 39.3683 14.0119 39.5089 14.0119 39.6568C13.8649 39.5094 13.7729 39.3149 13.7516 39.1066C13.7303 38.8982 13.7809 38.6889 13.895 38.5141C14.1556 37.9556 14.5893 37.4985 15.13 37.2123L15.1629 37.2456C15.0642 37.5451 14.9802 37.8336 14.9071 38.1109Z" fill="#FCE94F"/>
<path d="M41.2779 35.8698C41.1391 35.8254 41.1318 35.7108 41.1208 35.5813C41.1218 35.3471 41.0401 35.1203 40.8906 34.9416C40.7335 34.7492 40.8175 34.6642 41.0368 34.6642C41.4022 34.7603 41.2487 35.0821 41.2779 35.3373C41.3498 35.2565 41.4307 35.1845 41.5191 35.1228C41.5593 35.0975 41.6048 35.082 41.652 35.0777C41.6991 35.0734 41.7466 35.0803 41.7907 35.098C41.8347 35.1156 41.8741 35.1434 41.9056 35.1792C41.9371 35.2149 41.9599 35.2577 41.9722 35.304C42.0562 35.5074 41.9722 35.6146 41.7493 35.6738C41.6615 35.6706 41.574 35.6865 41.4927 35.7203C41.4114 35.7541 41.3382 35.8051 41.2779 35.8698Z" fill="#E8D348"/>
<path d="M15.6452 38.0369C15.3931 37.963 15.2433 37.8446 15.4661 37.5673C15.5366 37.6206 15.5908 37.6929 15.6225 37.776C15.6541 37.8591 15.662 37.9495 15.6452 38.0369Z" fill="#E8D348"/>
<path d="M39.3084 44.1058C39.4144 43.9874 39.4473 44.0614 39.4655 44.1686C39.4361 44.1744 39.4057 44.1715 39.3779 44.1604C39.3501 44.1492 39.326 44.1303 39.3084 44.1058Z" fill="#E8D348"/>
<path d="M27.6742 32.4379C27.658 32.4644 27.6345 32.4856 27.6066 32.4988C27.5786 32.5119 27.5475 32.5165 27.517 32.5118C27.5463 32.4379 27.6193 32.4379 27.6742 32.4379Z" fill="#F9F3B6"/>
<path d="M15.119 37.227C15.119 37.1937 15.119 37.1641 15.1707 37.1826C15.1604 37.2063 15.153 37.2311 15.1485 37.2565L15.119 37.227Z" fill="#FCE94F"/>
<path d="M16.1495 40.0303C16.1495 40.0081 16.1828 39.997 16.1938 39.9785C16.1921 39.9895 16.1921 40.0008 16.1938 40.0118C16.1717 40.0562 16.1495 40.0562 16.1422 40.034L16.1495 40.0303Z" fill="#E8D348"/>
<path d="M25.394 39.3165L26.1248 37.6856C26.271 37.3638 26.2308 36.9459 26.4902 36.6945C26.7038 36.3316 26.8906 35.9534 27.0493 35.5628C27.3233 35.0525 27.5462 34.4977 28.0395 34.1427L28.1016 34.2167C27.9952 34.4416 27.9349 34.6859 27.9242 34.9351C27.9135 35.1842 27.9528 35.433 28.0395 35.6664C28.141 35.0942 28.3794 34.5558 28.7338 34.0983C28.8994 33.8631 29.1433 33.6963 29.4207 33.6286C29.6838 33.5547 29.9908 33.5547 30.1917 33.3069C30.4658 33.2218 30.7289 33.0517 31.0577 33.3069C29.3915 34.0096 28.3501 35.2152 28.087 37.0532L27.992 36.2544C27.992 36.1471 28.0359 35.9881 27.8751 35.9548C27.8016 35.9223 27.7195 35.9152 27.6416 35.9346C27.5636 35.9539 27.4942 35.9988 27.4439 36.0621C27.3507 36.2058 27.2734 36.3596 27.2137 36.5206C26.7916 37.4956 26.2342 38.4047 25.5585 39.2204C25.5256 39.2721 25.4525 39.2721 25.3904 39.3054L25.394 39.3165Z" fill="#E8D348"/>
<path d="M35.0406 37.0643C35.2241 36.8649 35.3961 36.655 35.5558 36.4356C35.7882 36.0929 36.0997 35.8127 36.4633 35.6194C36.8268 35.4261 37.2315 35.3254 37.6422 35.3262C37.6203 35.5074 37.3901 35.4852 37.3243 35.6664C37.4665 35.7308 37.5935 35.8251 37.6968 35.9431C37.8002 36.0611 37.8775 36.2 37.9236 36.3506C37.9857 36.6058 38.1136 36.5762 38.289 36.4985C38.4644 36.4209 38.5192 36.4652 38.6544 36.4541H38.8773C38.099 36.7253 37.3741 37.1335 36.736 37.6598L36.272 38.0592C36.2099 38.1109 36.1258 38.1997 36.06 38.0592C36.272 37.8262 36.4803 37.6006 36.6703 37.3565C36.7433 37.2603 36.9882 37.2382 36.8493 37.0348C36.8003 36.9485 36.7233 36.8821 36.6313 36.8471C36.5393 36.812 36.4381 36.8104 36.3451 36.8424C36.0491 36.9053 36.0199 37.1716 35.9431 37.4083C35.8118 37.2325 35.7252 37.0268 35.691 36.8092C35.4608 36.8314 35.3475 37.1309 35.0406 37.0643Z" fill="#030403"/>
<path d="M30.21 33.3105C30.009 33.5546 29.7058 33.5435 29.439 33.6323C29.1677 33.7006 28.9302 33.8661 28.7703 34.0983C28.4159 34.5558 28.1776 35.0941 28.0761 35.6663C27.9893 35.4329 27.9501 35.1842 27.9608 34.935C27.9714 34.6859 28.0318 34.4415 28.1382 34.2166C28.182 34.1833 28.2113 34.1426 28.1601 34.0983C28.109 34.0539 28.098 34.1205 28.0651 34.1315C27.5682 34.5014 27.3343 35.0376 27.0749 35.5517C26.9205 35.9442 26.7335 36.3228 26.5158 36.6833C26.4939 36.65 26.4427 36.6205 26.4427 36.5983C26.6787 35.7877 26.9894 35.0015 27.3709 34.2499C27.4938 33.9915 27.6869 33.7738 27.9277 33.6225C28.1684 33.4712 28.4468 33.3925 28.7301 33.3956C29.2212 33.3358 29.7154 33.3074 30.21 33.3105Z" fill="#030403"/>
<path d="M35.0405 37.0643C35.3256 37.1272 35.4608 36.8314 35.7165 36.7759C35.7459 36.9949 35.833 37.2018 35.9687 37.375C36.0417 37.1309 36.0746 36.872 36.3706 36.8092C36.4637 36.7785 36.5644 36.7808 36.6561 36.8158C36.7477 36.8507 36.8249 36.9162 36.8748 37.0015C37.0137 37.2049 36.7689 37.2345 36.6958 37.3232C36.5058 37.5673 36.2829 37.7929 36.0856 38.0259C35.9747 37.9859 35.8729 37.9236 35.7863 37.843C35.6996 37.7623 35.6299 37.6647 35.5813 37.5562C35.4644 37.3417 35.3584 37.1198 35.0552 37.2899C35.0113 37.3121 34.9382 37.3121 34.9273 37.2382C34.9163 37.1642 35.0186 37.1383 35.0405 37.0643Z" fill="#E8D348"/>
<path d="M46.2875 33.5472C45.8235 35.0265 44.5592 35.8106 43.6823 35.2965C44.8844 35.3483 45.5567 34.4829 46.2875 33.5472Z" fill="#030403"/>
<path d="M35.3475 33.2773C35.0006 33.4962 34.7012 33.7841 34.4676 34.1236C34.2339 34.463 34.0708 34.847 33.9882 35.2522C33.7653 34.1834 34.2513 33.5029 35.3475 33.2773Z" fill="#030403"/>
<path d="M36.725 43.9023C36.8091 42.8668 36.8091 42.8668 38.0112 42.6338C37.4631 42.9223 36.8529 43.1626 36.725 43.9023Z" fill="#030403"/>
<path d="M38.2707 36.48C38.1026 36.5539 37.9747 36.5983 37.9053 36.332C37.8581 36.182 37.7804 36.0436 37.6772 35.9257C37.574 35.8079 37.4476 35.7132 37.306 35.6479C37.3681 35.4666 37.602 35.4999 37.6239 35.3076H37.697C37.6641 35.4888 37.781 35.5961 37.898 35.7144C38.0087 35.8093 38.099 35.9262 38.1631 36.0579C38.2272 36.1896 38.2638 36.3333 38.2707 36.48Z" fill="#E8D348"/>
<path d="M37.7263 35.3039C37.7589 35.2655 37.7943 35.2297 37.8322 35.1967L37.8651 35.2484C37.8199 35.2686 37.7736 35.2859 37.7263 35.3002V35.3039Z" fill="#E8D348"/>
<path d="M25.3947 39.3054C25.3947 39.3387 25.3725 39.3683 25.3615 39.4127C25.2876 39.3609 25.3615 39.3387 25.3947 39.3054Z" fill="#E8D348"/>
<path d="M28.3245 48.0333C28.3245 48 28.3467 47.9704 28.3577 47.926C28.4205 47.9889 28.3577 48 28.3245 48.0333Z" fill="#E8D348"/>
<path d="M24.7948 40.7883L24.6998 40.9289L24.6376 40.8549C24.6792 40.8182 24.7183 40.7787 24.7546 40.7366C24.7709 40.7513 24.7845 40.7688 24.7948 40.7883Z" fill="#030403"/>
<path d="M32.3622 32.5857C32.3893 32.6035 32.4099 32.6297 32.4211 32.6603C32.4323 32.691 32.4334 32.7245 32.4243 32.7558C32.3622 32.7336 32.3402 32.6708 32.3293 32.6079C32.3402 32.6042 32.3622 32.5857 32.3622 32.5857Z" fill="#F9F3B6"/>
<path d="M24.7509 40.744C24.7509 40.6997 24.7841 40.6701 24.8247 40.6997L24.7915 40.7847C24.7831 40.7668 24.7688 40.7525 24.7509 40.744Z" fill="#030403"/>
<path d="M32.4243 32.7559C32.4363 32.769 32.4507 32.7798 32.4668 32.7876H32.4455C32.4455 32.7876 32.4455 32.7664 32.4243 32.7664V32.7559Z" fill="#F9F3B6"/>
<path d="M28.0396 34.1316C28.0724 34.1316 28.1236 34.0872 28.1346 34.0983C28.1455 34.1094 28.1565 34.1834 28.1126 34.2167C28.0854 34.191 28.0609 34.1625 28.0396 34.1316Z" fill="#E8D348"/>
<path d="M47.8039 34.42C47.6882 34.0422 47.5503 33.6718 47.391 33.3106C47.2935 33.0674 47.1316 32.8561 46.9232 32.6999C46.7147 32.5438 46.4677 32.4489 46.2094 32.4255C45.9511 32.4022 45.6914 32.4514 45.459 32.5678C45.2265 32.6841 45.0302 32.8631 44.8917 33.085L44.6688 33.4141C44.4568 33.7359 44.1608 33.9919 43.8138 34.1538C43.6128 34.261 43.5178 34.2499 43.4009 34.0132C43.0776 33.2375 42.5522 32.5651 41.8808 32.068C40.8592 31.3594 39.8828 30.5862 38.9576 29.7529C37.496 28.4955 35.8371 27.7484 33.8786 28.0887C31.5912 28.477 29.5011 29.2758 28.0834 31.2839C27.9997 31.4208 27.8866 31.5368 27.7525 31.6233C27.6183 31.7097 27.4666 31.7644 27.3087 31.7832C26.9942 31.8343 26.7031 31.9829 26.4756 32.2085C26.1102 32.5487 25.7046 32.9038 25.3465 33.2662C25.1605 33.468 24.9114 33.5986 24.6413 33.636C24.1495 33.7065 23.6616 33.8028 23.1797 33.9245C20.3332 34.5754 18.0641 36.014 16.5587 38.6508C16.3975 38.9446 16.1779 39.2015 15.9138 39.4052C15.6496 39.6088 15.3467 39.7549 15.024 39.8342C15.3602 39.494 15.3894 39.0243 15.4661 38.5547C15.6671 38.747 15.7402 38.98 15.9704 39.1316C16.1275 38.5658 16.2956 37.9777 16.0033 37.4896C15.9029 37.3265 15.8496 37.1381 15.8496 36.9459C15.8496 36.7537 15.9029 36.5654 16.0033 36.4023C16.0252 36.3505 16.0654 36.2839 16.0033 36.2211C14.9071 36.2839 13.3687 37.5968 13.1349 38.6545C13.0895 38.8087 13.079 38.9712 13.1044 39.13C13.1297 39.2888 13.1901 39.4398 13.281 39.5717C13.4909 39.8927 13.6477 40.2462 13.7451 40.6183C13.8241 40.9513 14.0209 41.2435 14.2983 41.4398C14.5756 41.636 14.9144 41.7226 15.2505 41.6834C15.5356 41.6612 15.5136 41.7795 15.4917 41.9718C15.3737 42.9909 15.3983 44.0218 15.5648 45.0339C15.5886 45.1756 15.5811 45.3209 15.5429 45.4592C15.3912 46.0814 15.053 46.6408 14.5746 47.0606C14.3334 47.264 14.1434 47.5192 13.8986 47.7337C13.7728 47.8405 13.6801 47.9816 13.6315 48.1404C13.5829 48.2991 13.5805 48.4686 13.6245 48.6286C13.7954 49.5374 14.2574 50.3639 14.939 50.9803C15.6207 51.5967 16.484 51.9685 17.3954 52.0384C17.3908 52.2126 17.3403 52.3824 17.2493 52.5302C16.8291 53.5768 17.0483 54.1205 18.1043 54.5162C18.9711 54.8301 19.8637 55.0653 20.7717 55.2189C21.0941 55.2821 21.4233 55.3033 21.751 55.2817C22.5293 55.2189 22.8472 54.9119 23.0153 54.1723C23.0705 53.9929 23.0952 53.8053 23.0884 53.6175C23.0695 53.3789 23.0979 53.1389 23.1719 52.9115C23.246 52.6842 23.3642 52.4741 23.5195 52.2936C23.6915 52.0993 23.8163 51.8671 23.8842 51.6155C23.9521 51.3638 23.9611 51.0996 23.9105 50.8439C23.8886 50.7588 23.8374 50.6183 24.0274 50.6294C24.5865 50.6626 25.1455 50.6922 25.8106 50.7255C25.0104 51.1323 25.0103 51.7499 25.2405 52.3675C25.6345 53.4909 26.3018 54.4957 27.1808 55.2891C27.3858 55.4561 27.6221 55.5793 27.8754 55.6513C28.1287 55.7233 28.3938 55.7426 28.6547 55.7081C28.9156 55.6735 29.1669 55.5858 29.3934 55.4502C29.6199 55.3147 29.8169 55.134 29.9725 54.9193C30.3243 54.4448 30.7317 54.0151 31.1856 53.6397C31.551 53.2699 31.9164 53.0628 32.4499 53.318C32.5985 53.3716 32.7566 53.393 32.9139 53.3808C33.674 53.3808 34.423 53.403 35.1684 53.3808C36.3085 53.3808 36.9077 52.4637 36.5058 51.3764C36.3843 51.0272 36.3237 50.6593 36.3268 50.2891C36.3657 49.5445 36.2653 48.7992 36.0308 48.0924C35.8189 47.5894 35.6288 47.0902 35.4315 46.5761C35.4096 46.5021 35.3146 46.4171 35.4644 46.332C35.8298 46.6723 36.1952 47.0273 36.5606 47.3564C36.8061 47.6056 37.1072 47.7914 37.4385 47.8983C37.7698 48.0051 38.1216 48.0298 38.4643 47.9703C39.0432 47.893 39.5842 47.6359 40.0128 47.2346C40.4414 46.8333 40.7366 46.3073 40.8577 45.7292C40.9308 45.4075 41.0587 45.3335 41.362 45.389C42.0685 45.4904 42.7857 45.4904 43.4922 45.389C44.2486 45.284 44.978 45.0329 45.6408 44.6493C45.6225 44.8195 50.3581 41.4097 47.8039 34.42ZM15.4661 37.5672C15.5366 37.6205 15.5908 37.6929 15.6225 37.776C15.6541 37.8591 15.662 37.9495 15.6452 38.0369C15.393 37.9629 15.2505 37.8446 15.4661 37.5672ZM15.1702 41.0879C15.0732 41.1091 14.9731 41.1106 14.8755 41.0925C14.778 41.0744 14.685 41.0369 14.6018 40.9823C14.5186 40.9276 14.4469 40.8569 14.3908 40.7741C14.3347 40.6913 14.2953 40.5982 14.2749 40.4999C14.169 40.2226 14.0959 39.9452 14.0009 39.6678C13.8563 39.519 13.766 39.3248 13.7447 39.1172C13.7235 38.9095 13.7726 38.7008 13.884 38.5251C14.1477 37.9688 14.5805 37.5126 15.119 37.2233C15.119 37.19 15.119 37.1604 15.1519 37.2011C15.1848 37.2418 15.1519 37.2455 15.13 37.2751C15.0459 37.5635 14.9728 37.8409 14.8888 38.1294C14.8888 38.6841 14.9107 39.2388 14.4759 39.6974C14.2859 39.9008 14.5709 40.0931 14.644 40.2854C14.7171 40.4777 14.918 40.5517 15.1409 40.511C15.4897 40.3985 15.8225 40.2406 16.1312 40.0413C16.1445 40.0262 16.1567 40.0102 16.1677 39.9933C16.17 39.9985 16.1712 40.0042 16.1712 40.0099C16.1712 40.0156 16.17 40.0213 16.1677 40.0266C16.1677 40.0672 16.1385 40.0635 16.1202 40.0266C16.0544 40.8106 15.8315 41.0547 15.1702 41.0879ZM17.9216 50.5813C17.9082 50.7095 17.8638 50.8323 17.7923 50.939C17.7208 51.0457 17.6244 51.1328 17.5117 51.1928C17.399 51.2528 17.2734 51.2837 17.146 51.2828C17.0187 51.2819 16.8935 51.2493 16.7816 51.1878C16.2183 50.9957 15.7144 50.6578 15.32 50.2078C15.0987 50.0172 14.9163 49.7848 14.7828 49.5236C14.3078 48.7026 14.3517 48.4141 15.0057 47.741L15.6708 47.068C15.8608 46.8757 15.8936 46.5983 16.0362 46.3283C16.466 47.7178 17.0806 49.0415 17.8631 50.2632C17.8991 50.3067 17.9234 50.3588 17.9336 50.4145C17.9439 50.4702 17.9397 50.5277 17.9216 50.5813ZM35.6617 50.7958C35.6623 51.0191 35.7057 51.2401 35.7896 51.4467C36.0527 52.1197 35.7056 52.7373 35.0588 52.7373C34.2807 52.7626 33.5018 52.7342 32.7276 52.6523C32.6216 52.6301 32.4535 52.6523 32.4206 52.5229C32.3878 52.3934 32.5376 52.3527 32.5997 52.2788C33.5718 51.0842 34.2896 49.6992 34.708 48.2107C34.7921 47.9223 34.8871 47.6449 34.9711 47.3786C35.5777 48.4474 35.6617 49.6123 35.6617 50.7958ZM44.0221 44.5458C42.8378 44.8272 41.6011 44.7864 40.4375 44.4274C40.1546 44.3749 39.8787 44.2893 39.6153 44.1723L39.4692 44.139C39.4398 44.1447 39.4094 44.1419 39.3816 44.1307C39.3537 44.1196 39.3296 44.1006 39.3121 44.0761C38.6926 43.9341 38.1058 43.673 37.5837 43.3069C37.8249 44.1501 37.5216 44.8416 37.4156 45.5702C37.2585 46.6168 37.6458 47.0088 38.6799 46.8942L38.9028 46.7462C38.4826 46.7018 38.0295 46.8202 37.7226 46.3505C38.0478 46.3727 38.3218 46.4984 38.6178 46.491C38.9017 46.5089 39.1818 46.418 39.4024 46.2364C39.6231 46.0548 39.7683 45.7959 39.809 45.511C39.8419 45.3631 39.893 45.2004 39.9369 45.0524C39.999 44.8268 40.1379 44.9674 40.2548 44.9785C40.3717 44.9896 40.4558 45.0302 40.4229 45.1819C40.2109 46.1101 39.8236 46.8905 38.8517 47.2085C38.8001 47.2211 38.7475 47.2285 38.6945 47.2307C38.4356 47.3147 38.1595 47.3296 37.8932 47.2738C37.6269 47.2181 37.3793 47.0937 37.1745 46.9126C36.6702 46.5169 36.1952 46.0805 35.7129 45.6442C35.55 45.4921 35.3551 45.3796 35.1429 45.315C34.515 45.0778 33.9045 44.796 33.3159 44.4718C33.2099 44.5162 33.283 44.5569 33.3159 44.6013C33.6772 44.9918 34.1104 45.3071 34.5911 45.5295C34.6293 45.5384 34.6651 45.5555 34.6961 45.5798C34.7271 45.604 34.7525 45.6348 34.7705 45.67C34.7886 45.7052 34.7989 45.7439 34.8007 45.7835C34.8026 45.8231 34.7959 45.8626 34.7811 45.8993C34.4264 48.0558 33.5475 50.0892 32.2233 51.8165C31.8579 52.2751 31.3171 52.5561 30.886 52.926C30.3269 53.4289 29.7057 53.8209 29.2636 54.4718C29.175 54.6023 29.0593 54.7116 28.9246 54.7919C28.7898 54.8723 28.6393 54.9218 28.4836 54.937C28.3279 54.9521 28.1708 54.9326 28.0234 54.8797C27.8759 54.8268 27.7418 54.7419 27.6303 54.6308C27.186 54.2437 26.8274 53.7661 26.5779 53.2292C26.4719 53.0702 26.366 52.9186 26.2819 52.7595C25.8288 51.8313 25.891 51.6057 26.7679 51.0842L27.3672 50.7144C27.7691 50.4481 27.7691 50.4481 28.098 50.7995C28.076 50.4592 28.0468 50.1264 28.0541 49.7973C28.0309 49.465 28.0555 49.1312 28.1272 48.8061C27.8203 48.9541 27.8312 49.2869 27.7618 49.5458C27.7511 49.6304 27.7117 49.7087 27.6504 49.7674C27.5892 49.826 27.5097 49.8614 27.4256 49.8675C26.2342 50.0868 25.0144 50.098 23.8191 49.9008C23.7132 49.8786 23.5561 49.9341 23.578 49.7307C23.483 49.335 23.3989 48.9504 23.3149 48.5694C23.3149 49.2536 23.282 49.9341 23.293 50.6072C23.3174 51.1336 23.1697 51.6535 22.8728 52.0865C22.4775 52.5559 22.2668 53.1562 22.2808 53.7729C22.3247 54.372 22.0799 54.5532 21.4916 54.5532C20.7953 54.545 20.106 54.411 19.4563 54.1575C19.0496 54.1133 18.6577 53.9781 18.3089 53.7618C18.233 53.7265 18.1649 53.6762 18.1087 53.6138C18.0524 53.5513 18.0092 53.478 17.9816 53.3983C17.9539 53.3185 17.9425 53.234 17.9479 53.1496C17.9533 53.0653 17.9754 52.9829 18.013 52.9075C18.26 52.2049 18.4363 51.4788 18.5391 50.7403C18.5657 50.6199 18.5671 50.4951 18.5432 50.3741C18.5193 50.2531 18.4706 50.1385 18.4003 50.0376C17.7734 49.1324 17.2695 48.146 16.9021 47.105C15.1738 43.0369 16.2481 38.7839 19.8253 36.2026C21.1627 35.241 22.6937 34.8047 24.3892 34.5606C23.8849 35.1671 23.4391 35.7144 22.9751 36.247C22.7467 36.5693 22.4885 36.869 22.2041 37.1419C21.93 37.6634 21.656 38.1885 21.3929 38.71C21.2979 38.8912 21.2139 39.0798 21.1189 39.2758C20.9613 39.5966 20.8991 39.9568 20.94 40.3126C20.9808 40.6685 21.123 41.0046 21.3491 41.2802C21.7575 41.7628 22.1243 42.28 22.4452 42.8261C22.575 42.9999 22.6488 43.2098 22.6567 43.4275C22.6645 43.6451 22.606 43.86 22.4891 44.0428C22.215 44.7455 22.4562 45.2706 23.0262 45.7181C23.3332 45.9622 23.6255 46.2211 23.9543 46.4578C24.4246 46.6492 24.9336 46.723 25.4381 46.6727C25.9425 46.6225 26.4276 46.4498 26.852 46.1693C27.8641 45.5702 28.8872 44.8786 30.0894 44.7714C30.8202 44.7085 30.9335 44.3128 31.0906 43.7692C31.5108 42.3194 31.3975 40.866 31.1125 39.4163C30.9371 38.5444 30.8248 37.6606 30.7763 36.7721C30.7435 36.5169 30.7252 36.2692 30.7033 36.0325C30.5204 36.5834 30.4242 37.1599 30.4183 37.741C30.3744 38.6804 30.5973 39.5902 30.7033 40.5147C30.8421 41.6242 30.8713 42.7337 30.4183 43.8098C30.3671 43.9393 30.3342 44.1094 30.1223 44.1316C29.0042 44.2721 28.0578 44.8047 27.0968 45.3372C26.5925 45.6146 26.1175 45.977 25.5256 46.051C24.4294 46.1989 23.6986 45.6552 23.092 44.8231C22.902 44.5569 23.0482 44.1834 23.1651 43.8727C23.4962 43.0907 23.8833 42.3342 24.3234 41.6094C24.4403 41.3838 24.5646 41.173 24.6888 40.9474L24.6267 40.8734C24.0883 41.4782 23.5914 42.1194 23.1395 42.7928C22.9172 42.2918 22.6376 41.8189 22.3064 41.3838C22.1785 41.2359 22.0543 41.0842 21.941 40.9252C21.7719 40.7114 21.6681 40.4524 21.6421 40.1799C21.6161 39.9073 21.6692 39.633 21.7948 39.3905C22.3809 38.0956 23.1873 36.9152 24.1772 35.903C25.0103 34.9748 25.7777 33.9947 26.6656 33.1183C26.8902 32.8372 27.1913 32.6289 27.5316 32.5192C27.5535 32.4341 27.6266 32.4452 27.6997 32.3786L30.2575 31.8979C30.3013 31.8979 30.3525 31.8979 30.3744 31.8239H28.6936C29.9688 29.849 31.931 29.2684 33.9517 28.8098C35.6471 28.4807 37.0941 29.0021 38.3803 30.1116L40.3827 31.7536C40.3498 31.8498 40.1196 31.7758 40.1927 31.957C40.2941 31.9778 40.3965 31.9926 40.4996 32.0014C41.0005 32.097 41.4564 32.357 41.7968 32.741C42.2676 33.2301 42.6301 33.8151 42.8601 34.457C42.5921 34.3176 42.2954 34.2441 41.9941 34.2425C41.6863 34.3881 41.3689 34.5117 41.0441 34.6123C41.4095 34.7196 41.256 35.0376 41.2852 35.2854C41.3571 35.2047 41.438 35.1327 41.5264 35.0709C41.5671 35.0479 41.6123 35.0342 41.6589 35.0311C41.7054 35.0279 41.7521 35.0353 41.7955 35.0526C41.8388 35.07 41.8779 35.0969 41.9097 35.1314C41.9415 35.1659 41.9654 35.2071 41.9795 35.2521C42.0745 35.4555 41.9795 35.5628 41.7566 35.622C41.6663 35.6241 41.5774 35.6453 41.4956 35.6841C41.4138 35.723 41.3409 35.7786 41.2816 35.8476C41.6967 35.7885 42.1172 35.7773 42.5349 35.8143C42.9003 35.8587 42.7651 36.1434 42.8199 36.3246C42.8418 36.4097 42.703 36.3986 42.6299 36.3875C41.2925 36.1619 40.9125 36.3875 40.4156 37.6375C40.4156 37.6375 40.4156 37.6597 40.4777 37.7337C40.7189 37.4896 40.8139 37.1345 41.0696 36.9348C41.3868 36.7035 41.7561 36.556 42.1439 36.5058C41.3108 37.1234 41.4789 37.9851 41.3656 38.7248C41.5177 38.4599 41.6251 38.1711 41.6835 37.8705C41.7334 37.6491 41.8276 37.4404 41.9602 37.2572C42.0928 37.0741 42.261 36.9203 42.4545 36.8054C42.8199 36.6131 42.8966 36.676 42.9587 37.0606C43.0235 37.7638 42.9767 38.473 42.8199 39.1612C42.7764 39.3222 42.7764 39.492 42.8199 39.653C43.1853 38.5658 43.474 37.5524 43.379 36.4726C43.357 36.2063 43.3059 35.9511 43.273 35.6848C43.2218 35.3557 43.3059 35.0339 43.6384 34.9452C44.5117 34.69 45.0708 34.0687 45.6079 33.3771C45.9039 33.0073 46.0939 33.0073 46.5031 33.3143C46.678 33.4094 46.8091 33.57 46.8685 33.7618C47.7016 36.1841 48.0707 38.6471 47.2705 41.1582C46.7479 42.7928 45.7577 44.065 44.0184 44.5421L44.0221 44.5458Z" fill="#030403"/>
</svg>
