<svg xmlns="http://www.w3.org/2000/svg" width="100" height="100" fill="none"><path fill="#6CF" d="M28.423 54.217H34.2c1.575 0 2.536 1.187 2.193 2.736-.731 3.37-1.462 6.724-2.193 10.082-.073.333-.19.47-.559.458-3.855-.022-7.71 0-11.568 0-.823 0-1.575-.192-2.061-.95a2.32 2.32 0 0 1-.274-1.809c.179-.887.39-1.775.592-2.651a3.58 3.58 0 0 1 1.24-1.99 3.5 3.5 0 0 1 2.194-.78h8.083c.318 0 .402-.119.453-.37.19-1.058-.252-1.594-1.33-1.594h-9.19c-.365 0-.435-.096-.34-.447.19-.74.366-1.51.497-2.267.051-.311.18-.418.497-.418zm-.263 8.21h-3.084a1.17 1.17 0 0 0-.652.187 1.2 1.2 0 0 0-.444.52c-.318.61 0 1.208.676 1.208 2.072.023 4.14 0 6.212 0a.26.26 0 0 0 .213-.061.27.27 0 0 0 .094-.205c.084-.429.179-.865.296-1.283.084-.289.032-.37-.296-.37-1.009.026-2.014.004-3.015.004M89.123 67.571h-3.72c-.296 0-.401.085-.464.37-.252 1.239-.537 2.47-.792 3.698-.063.288-.169.37-.465.37-.972-.022-1.954 0-2.923 0-.285 0-.365-.052-.296-.37q1.6-7.263 3.19-14.53c.19-.843.366-1.69.548-2.545.044-.214.128-.277.34-.277h11.207c1.502 0 2.408 1.187 2.083 2.715a370 370 0 0 1-1.732 7.847 3.6 3.6 0 0 1-1.244 1.903 3.52 3.52 0 0 1-2.125.76c-1.21.059-2.416.059-3.607.059m-.548-3.121h2.452c.4.001.788-.13 1.106-.373a1.85 1.85 0 0 0 .659-.973c.34-1.402.654-2.8.928-4.213.179-.91-.307-1.43-1.224-1.43h-4.9c-.252 0-.365.062-.424.32-.46 2.101-.924 4.243-1.4 6.347-.073.31.033.322.275.322zM43.098 67.482h-5.39c-1.586 0-2.525-1.09-2.218-2.662.442-2.256.972-4.512 1.462-6.757q.132-.787.365-1.55a3.56 3.56 0 0 1 1.328-1.678 3.5 3.5 0 0 1 2.041-.6h7.173c.329 0 .453-.096.519-.418.252-1.239.537-2.47.792-3.698.052-.255.14-.344.413-.344 1.016.022 2.028 0 3.052 0 .212 0 .296.022.24.278q-1.884 8.546-3.748 17.108c-.062.277-.168.332-.424.332-1.856-.018-3.738-.01-5.605-.01m4.509-10.126a1 1 0 0 0-.14-.033h-5.272a1.8 1.8 0 0 0-1.107.442c-.31.268-.522.633-.603 1.038a228 228 0 0 0-.888 4.068c-.19.91.274 1.479 1.206 1.479h4.955c.252 0 .34-.085.365-.322.146-.74.329-1.48.486-2.219.344-1.48.669-2.962.998-4.449zM57.315 67.571H52.69c-.844 0-1.586-.266-2.028-1.08a2.02 2.02 0 0 1-.24-1.431c.58-2.685 1.15-5.366 1.775-8.04a3.54 3.54 0 0 1 1.232-1.962 3.47 3.47 0 0 1 2.17-.764c3.106-.022 6.212-.022 9.307 0 1.67 0 2.576 1.228 2.218 2.878l-1.648 7.496a3.63 3.63 0 0 1-1.26 2.093 3.55 3.55 0 0 1-2.288.803c-1.55.026-3.08.007-4.612.007m.71-3.121h2.192c.453.036.904-.1 1.264-.383s.602-.69.68-1.145c.317-1.335.602-2.673.887-4.02.18-.865-.306-1.479-1.195-1.479h-4.527a1.78 1.78 0 0 0-1.173.356c-.338.254-.577.62-.676 1.035-.365 1.412-.654 2.832-.928 4.256a1.12 1.12 0 0 0 .23.982 1.1 1.1 0 0 0 .921.387zM73.046 67.571H68.42c-1.542 0-2.558-1.198-2.24-2.63.2-.91.402-1.815.603-2.736.365-1.701.73-3.41 1.129-5.111a3.6 3.6 0 0 1 1.264-2.027 3.5 3.5 0 0 1 2.244-.765h9.135c1.732 0 2.652 1.21 2.272 2.929-.548 2.5-1.096 5.003-1.637 7.496a3.67 3.67 0 0 1-1.245 2.024 3.6 3.6 0 0 1-2.211.82c-1.575.019-3.128 0-4.688 0m2.272-10.137h-2.25a1.83 1.83 0 0 0-1.209.391 1.87 1.87 0 0 0-.673 1.088 153 153 0 0 0-.9 4.069c-.19.92.308 1.479 1.236 1.479h4.509c.425 0 .839-.145 1.17-.414.333-.27.565-.645.657-1.065.307-1.38.614-2.76.899-4.139a1.12 1.12 0 0 0-.202-1.004 1.1 1.1 0 0 0-.927-.409c-.76.004-1.542.015-2.313.015zM12.938 57.456h-2.536c-.223 0-.307.063-.366.3-.668 3.099-1.363 6.19-2.031 9.29-.073.322-.168.458-.53.447a50 50 0 0 0-2.894 0c-.307 0-.365-.096-.285-.37.77-3.465 1.53-6.915 2.28-10.38.475-2.194.95-4.372 1.414-6.565.062-.3.157-.418.475-.407a64 64 0 0 0 2.923 0c.366 0 .366.108.296.37-.285 1.25-.537 2.5-.844 3.743-.095.37 0 .447.366.447h7.205c1.151 0 1.9.514 2.193 1.48.127.465.127.958 0 1.423l-2.193 9.912c-.05.255-.139.37-.402.37-1.005 0-2.006-.023-3.01 0-.308 0-.33-.086-.264-.37q.903-4.09 1.794-8.2a1.12 1.12 0 0 0-.17-1.062 1.1 1.1 0 0 0-.98-.417z"/><path fill="#030403" d="M28.16 62.427h3.011c.329 0 .365.085.296.37a18 18 0 0 0-.296 1.283c-.044.181-.106.266-.307.266h-6.212a.75.75 0 0 1-.723-.387.77.77 0 0 1 .047-.826c.096-.212.25-.392.445-.517.195-.126.42-.191.652-.19zM88.572 64.446h-2.536c-.242 0-.34 0-.274-.322.486-2.115.939-4.234 1.395-6.36.052-.256.158-.334.424-.322h4.9c.921 0 1.396.525 1.224 1.43a99 99 0 0 1-.928 4.213 1.85 1.85 0 0 1-.658.974 1.8 1.8 0 0 1-1.107.372zm1.406-2.219c.242-1.046.475-2.108.731-3.154.073-.333-.062-.481-.39-.47h-1.945c-.19 0-.285.052-.329.244-.307 1.442-.624 2.888-.928 4.33-.084.182 0 .226.168.226h1.341c1.14-.015 1.14-.015 1.352-1.18zM47.607 57.36c-.33 1.48-.643 2.959-.972 4.438-.157.74-.366 1.48-.486 2.219-.052.244-.128.333-.366.322h-4.955c-.928 0-1.395-.577-1.205-1.48q.427-2.036.888-4.068c.08-.404.293-.77.603-1.037.31-.268.7-.424 1.107-.442 1.754-.022 3.508 0 5.272 0a.24.24 0 0 0 .114.048m-6.877 5.688c.062.226.252.192.413.192.57 0 1.129-.033 1.699 0 .39.034.548-.107.548-.48.296-1.324.592-2.652.899-3.969.051-.244.051-.37-.274-.37-.592.034-1.184 0-1.776 0-.453 0-.603.13-.709.578-.157.717-.34 1.423-.464 2.137-.113.658-.38 1.258-.336 1.912M58.024 64.457H55.69a1.08 1.08 0 0 1-.92-.387 1.12 1.12 0 0 1-.23-.981q.425-2.137.927-4.257a1.82 1.82 0 0 1 .676-1.034c.338-.254.753-.38 1.173-.357h4.51c.876 0 1.373.6 1.194 1.48-.285 1.335-.57 2.685-.888 4.02-.08.45-.322.855-.68 1.135s-.805.416-1.256.381zm1.385-2.844c.084-.37.157-.717.241-1.08q.225-.762.34-1.55c.044-.255-.044-.417-.329-.417h-2.609a.47.47 0 0 0-.336.1.48.48 0 0 0-.175.306c-.146.696-.296 1.402-.442 2.108a4.8 4.8 0 0 0-.242 1.092c-.05.236-.106.458-.168.695-.095.333.022.48.366.48h2.525c.14.017.28-.023.391-.11a.54.54 0 0 0 .2-.36c.066-.428.15-.853.234-1.264zM73.758 64.457h-2.335a1.08 1.08 0 0 1-.92-.387 1.11 1.11 0 0 1-.23-.981q.424-2.137.928-4.257a1.82 1.82 0 0 1 .675-1.034c.338-.254.753-.38 1.173-.357h4.51c.876 0 1.373.6 1.194 1.48-.285 1.335-.57 2.685-.888 4.02-.08.454-.326.862-.688 1.143-.363.28-.816.413-1.27.373zm1.385-2.844c.084-.37.157-.717.241-1.08q.225-.762.34-1.55c.044-.255-.044-.417-.329-.417h-2.609a.47.47 0 0 0-.533.406c-.146.696-.296 1.402-.442 2.108a4.8 4.8 0 0 0-.242 1.092c-.05.236-.106.458-.168.695-.095.333.022.48.366.48h2.525c.14.017.28-.023.391-.11a.54.54 0 0 0 .2-.36c.092-.428.176-.853.26-1.264"/><path fill="#030403" d="M98.989 55.907c-.139-1.616-1.151-2.589-2.81-2.704a2 2 0 0 1-.274-.022h-7.640000000000001c-1.056 0-2.102.022-3.157.022l-5.547-.037c-.815 0-1.637.023-2.452.023H69.83a4.87 4.87 0 0 0-2.327.547c-.14.074-.263.148-.435.033a3.6 3.6 0 0 0-2.262-.566c-.475.022-.95 0-1.425 0-.252 0-.497.022-.75.022h-9.01c-.318 0-.402-.051-.318-.395.318-1.317.592-2.64.888-4.02h-3.288c-1.341 0-2.682.022-4.02 0-.252 0-.34.063-.402.333-.179.769-.296 1.56-.537 2.319-.084.47-.179.939-.274 1.412a.25.25 0 0 1-.092.166.24.24 0 0 1-.182.049l-1.462-.023q-1.531.098-3.062 0-.968 0-1.933.034a6.2 6.2 0 0 0-2.1.458c0 .052-.044.063-.096.063a.57.57 0 0 1-.625.182.6.6 0 0 1-.197-.119 2.7 2.7 0 0 0-.53-.244c-.58-.277-1.206-.203-1.827-.237H12.192c-.296 0-.241-.14-.2-.321.284-1.25.558-2.5.865-3.743.095-.37 0-.418-.329-.418h-6.92c-.366 0-1.897 7.837-2.536 10.459q-.81 3.856-1.681 7.696c-.062.266-.033.588-.263.813.051.322-.128.6-.128.91 2.397 0 4.798-.022 7.195 0 .329 0 .486-.074.53-.396l.252-1.11c.453-2.04.899-4.067 1.352-6.116.168-.74.365-1.48.507-2.256.052-.237.147-.288.366-.288h2.134c.296 0 .424.085.365.395l-1.79 7.93q-.02.076-.051.147c-.084.37-.157.758-.242 1.132-.106.543-.106.543.443.543h15.997a.14.14 0 0 1 .062 0h3.3209999999999997c.34 0 .687-.022 1.024-.022H61.51a5.3 5.3 0 0 0 2.463-.492.33.33 0 0 1 .365 0 3.85 3.85 0 0 0 1.988.588h11.843c-.274 1.284-.548 2.641-.855 3.987-.062.278 0 .333.263.333h6.972c.252 0 .34-.085.39-.322.253-1.228.53-2.448.782-3.68.063-.277.157-.37.442-.37 2.029.023 4.067.023 6.095 0a4.97 4.97 0 0 0 3.217-1.091 5.08 5.08 0 0 0 1.79-2.917c.233-1.017.434-2.03.664-3.047.212-.888.34-1.798.625-2.674q.09-.77.285-1.52a5.6 5.6 0 0 0 .15-1.446M18.061 67.482a68 68 0 0 0-3.011 0c-.307 0-.33-.085-.264-.37.61-2.718 1.195-5.458 1.795-8.191a1.12 1.12 0 0 0-.17-1.063 1.1 1.1 0 0 0-.981-.416h-5.0169999999999995c-.223 0-.307.062-.366.299-.668 3.114-1.374 6.206-2.031 9.305-.062.322-.168.458-.53.447a50 50 0 0 0-2.894 0c-.307 0-.366-.096-.285-.37q1.14-5.177 2.28-10.38c.475-2.193.95-4.372 1.414-6.565.062-.3.157-.418.475-.407.972.023 1.955.034 2.923 0 .366 0 .366.108.296.37-.277 1.254-.544 2.515-.83 3.747-.094.395 0 .447.366.447 2.397-.022 4.805 0 7.206 0 1.14 0 1.9.514 2.192 1.48.127.464.127.955 0 1.42l-2.192 9.91c-.03.241-.113.337-.377.337m15.591 0H22.084c-.823 0-1.564-.192-2.061-.95a2.3 2.3 0 0 1-.274-1.809c.168-.887.39-1.764.592-2.651a3.57 3.57 0 0 1 1.238-1.993 3.5 3.5 0 0 1 2.196-.777h8.083c.318 0 .413-.119.453-.396.19-1.043-.252-1.58-1.348-1.58h-9.19c-.366 0-.435-.095-.34-.447.19-.74.366-1.508.497-2.267.062-.31.18-.418.497-.418 1.995.023 3.983 0 5.978 0h5.784c1.575 0 2.558 1.188 2.193 2.737q-1.097 5.035-2.193 10.082c-.04.355-.168.48-.537.48zm15.065 0H37.701c-1.586 0-2.536-1.08-2.218-2.663.453-2.256.972-4.5 1.461-6.756q.135-.786.366-1.55a3.55 3.55 0 0 1 1.328-1.679 3.5 3.5 0 0 1 2.04-.599h7.174c.328 0 .453-.096.518-.418.252-1.239.538-2.47.793-3.698.051-.255.146-.344.413-.344h3.051c.223 0 .307 0 .241.277q-1.885 8.546-3.749 17.108c-.044.27-.16.322-.402.322m13.195.096h-9.234c-.844 0-1.585-.277-2.028-1.08a2.07 2.07 0 0 1-.24-1.43c.58-2.686 1.15-5.367 1.775-8.04a3.55 3.55 0 0 1 1.233-1.961 3.47 3.47 0 0 1 2.169-.765c3.106-.023 6.212-.023 9.307 0 1.67 0 2.576 1.227 2.218 2.877l-1.648 7.496a3.66 3.66 0 0 1-1.269 2.089 3.58 3.58 0 0 1-2.287.807zm15.804 0h-9.306999999999999c-1.553 0-2.558-1.198-2.24-2.63.2-.92.402-1.826.603-2.736.365-1.701.73-3.41 1.129-5.11.182-.802.629-1.515 1.267-2.023a3.53 3.53 0 0 1 2.24-.77h9.136c1.732 0 2.653 1.21 2.273 2.93q-.825 3.74-1.637 7.495a3.66 3.66 0 0 1-1.25 2.024c-.63.515-1.41.8-2.218.813zm20.097-10.521c-.56 2.618-1.13 5.24-1.733 7.847a3.6 3.6 0 0 1-1.241 1.904 3.52 3.52 0 0 1-2.124.763h-3.603c-1.206 0-2.48.022-3.72.022a.39.39 0 0 0-.42.208.4.4 0 0 0-.043.162c-.253 1.239-.538 2.47-.793 3.698a.4.4 0 0 1-.147.295.38.38 0 0 1-.318.075c-.972-.022-1.954 0-2.923 0-.285 0-.365-.052-.296-.37q1.6-7.263 3.19-14.53c.18-.855.366-1.701.548-2.544.044-.226.128-.278.34-.278h11.207c1.51.033 2.415 1.21 2.094 2.752zM12.145 39.339c-.19-1.206.146-2.175 1.235-2.807a5.3 5.3 0 0 0-1.235 2.807M27.649 30.197c.116-1.143.928-1.912 2.247-2.134a5.14 5.14 0 0 0-2.247 2.134M27.725 28.969c.042-.225.156-.429.326-.58s.384-.24.61-.252a10 10 0 0 0-.936.832M12.386 36.98c-.24.331-.428.698-.56 1.087-.208-.33.012-.822.56-1.088"/><path fill="#882A7A" d="M36.854 53.555a.074.074 0 0 1-.096.063.5.5 0 0 0 .096-.063"/><path fill="#FCE94F" d="M33.933 28.873c1.696-.33 3.154.192 4.429 1.302 0 .192.168.255.241.37.274.502 1.045.831.537 1.641.337-.233.731.045 1.034-.18q.146.023.29.062c.032.16.19.17.295.233.341.22.628.516.838.865.21.35.339.743.375 1.15a5.4 5.4 0 0 1-.95.37c-.223 0-.318.086-.146.278.15.178.233.405.23.64a.27.27 0 0 0 .157.288q.625-.088 1.254-.033c.365.044.23.329.285.51.022.085-.117.074-.19.063-1.338-.226-1.707 0-2.215 1.25 0 0 0 .022.062.096.23-.244.326-.599.592-.799a2.4 2.4 0 0 1 1.064-.395c-.833.617-.665 1.479-.779 2.218a2.5 2.5 0 0 0 .318-.854 1.7 1.7 0 0 1 .786-1.072c.365-.181.442-.119.504.255a6.7 6.7 0 0 1-.139 2.1.94.94 0 0 0 0 .492c.366-1.087.654-2.09.56-3.18-.023-.266-.074-.521-.107-.788-.044-.34.033-.65.366-.74.884-.243 1.461-.876 1.97-1.568.295-.37.485-.37.895-.062a.8.8 0 0 0 .032.31c.279.98.47 1.985.57 3a11.4 11.4 0 0 1-.401 4.171c-.56 1.812-1.667 3.096-3.596 3.436a8.7 8.7 0 0 1-3.238-.108c-.105-.022-.2-.073-.273.052l-.147-.033c-.022-.107-.05-.181-.157-.063a5 5 0 0 1-1.728-.77c.23.833-.062 1.536-.168 2.264-.157 1.047.24 1.439 1.264 1.324v.322a1.54 1.54 0 0 1-1.516-.31c-.505-.396-.99-.844-1.462-1.27a1.4 1.4 0 0 0-.57-.328q-.946-.35-1.827-.843c-.033-.17-.179-.182-.318-.267.03.404.176.79.42 1.11a1.2 1.2 0 0 1 .201.95 24 24 0 0 1-.844 2.959 4 4 0 0 1-.939 1.546c-.515.47-1.023.95-1.538 1.42a1.46 1.46 0 0 1-1.338.37c-.296-.052-.365.044-.497.266-.365.74-.968.876-1.677.458a1 1 0 0 0-.164-.092c-.095-.16-.212-.3-.296-.47-.453-.928-.391-1.154.486-1.675q.3-.178.6-.37c.412-.266.412-.266.73.085-.022-.37-.051-.684-.044-1.002a4 4 0 0 1 .073-.991c-.022-.278.168-.503.18-.77.032-.033.105-.044.032-.107 0 .034-.022.063-.033.108-.139 0-.2.107-.263.203a2.33 2.33 0 0 1-1.55 1.161 18 18 0 0 1-2.922.31c-.084-.369-.168-.768-.263-1.16-.033-.148-.052-.3-.084-.448-.106.47-.158.928-.223 1.376-.168 1.257-.643 2.337-1.827 2.933a.64.64 0 0 0-.324.28.65.65 0 0 0-.078.422c.022.6-.252.866-.855.906-.157 0-.366-.063-.486.085a2.95 2.95 0 0 1-1.148-.395.62.62 0 0 1-.327-.364.64.64 0 0 1 .031-.49q.382-1.04.552-2.135a.88.88 0 0 0-.139-.702 13 13 0 0 1-1.498-2.933c-.062-.51-.139-1.024-.19-1.535a9.4 9.4 0 0 1 .091-3.158c.731-2.88 2.646-4.512 5.397-5.281-.274.521-.537 1.047-.81 1.568-.096.192-.18.37-.275.566a1.87 1.87 0 0 0 .23 2.004c-.095 1.11.57 1.92 1.13 2.763-.275.703-.033 1.228.537 1.675.307.244.599.503.928.74.58.74 1.381.799 2.192.673.796-.169 1.57-.427 2.31-.77.928-.37 1.856-.739 2.879-.702.19 0 .263-.096.365-.244.6-.973.526-2.038.366-3.096a49 49 0 0 0-1.14-5.225c-.033-.107.021-.288-.168-.322q-.031-.367-.074-.74a5.4 5.4 0 0 0-.285 1.728c-.044.939.18 1.849.285 2.773.14 1.11.168 2.22-.285 3.295-.062.14-.084.3-.296.322-1.096.14-2.064.673-3.025 1.206a4.8 4.8 0 0 1-1.582.691c-1.096.148-1.827-.406-2.434-1.227-.2-.278-.044-.651.073-.95q.485-1.182 1.159-2.264c.127-.226.24-.437.365-.662l.095-.14.033-.086c-.044-.022-.062 0-.073.045q-.062.055-.117.118a16.6 16.6 0 0 0-1.498 1.93 6.3 6.3 0 0 0-.833-1.409 3.84 3.84 0 0 1 .591-1.749c.446-.658.812-1.328 1.225-2 .873-1.48 1.644-3.018 2.791-4.32.223-.244.548-.418.621-.788a.14.14 0 0 0 .158-.074l2.557-.48c.052 0 .106 0 .117-.075a1.97 1.97 0 0 1 1.677.533c.085.074.158.181.286.192a.18.18 0 0 0 .095.148v.033a.03.03 0 0 1 .021 0 .2.2 0 0 0-.043-.033.18.18 0 0 0-.062-.17 7 7 0 0 1-.366-1.013c-.19-1.162-.051-1.824 1.001-2.293.398-.174.757-.185 1.012-.44m3.793 6.431h-.073c-.41 0-.815.1-1.179.293a2.54 2.54 0 0 0-.907.816q-.24.33-.516.63c-.021.073-.146.084-.127.18a.1.1 0 0 0 .051.058.09.09 0 0 0 .076-.006c.307-.159.413.052.527.266a.9.9 0 0 0 .5.485c.051.148.14.074.212 0l.442-.396a6.6 6.6 0 0 1 2.142-1.205 1 1 0 0 0-.223 0l-.366.044a1.08 1.08 0 0 0-.365-.74c-.128-.107-.252-.214-.223-.407a.5.5 0 0 0 .139-.051l-.033-.052zM26.501 36.68c-.274.277-.241.673-.365.99l-.731 1.632c-.033.033-.106.044-.033.107 0-.033.022-.063.033-.107a.5.5 0 0 0 .179-.074 11.6 11.6 0 0 0 1.655-2.7q.09-.241.23-.459a.365.365 0 0 1 .432-.107c.157.045.106.193.117.3l.095.799c.263-1.85 1.297-3.04 2.97-3.747-.325-.266-.592-.096-.866 0q-.745-.003-1.487.074a1.5 1.5 0 0 0-.799.233c-.24.151-.434.366-.56.622a13.6 13.6 0 0 0-.928 2.348c-.015.026.036.07.058.089m19.787-3.133c-.731.94-1.404 1.794-2.606 1.75.874.521 2.149-.27 2.605-1.75m-10.94-.27c-1.097.215-1.583.906-1.36 1.975a3.1 3.1 0 0 1 .483-1.126 3.1 3.1 0 0 1 .877-.849m1.377 10.625c.139-.74.73-.98 1.286-1.268-1.202.244-1.202.244-1.286 1.268"/><path fill="#F9F3B6" d="M22.233 37.13c-2.74.766-4.68 2.401-5.397 5.293a9.1 9.1 0 0 0-.084 3.158c.052.51.128 1.025.19 1.535-1.728-4.068-.654-8.321 2.924-10.902 1.337-.973 2.868-1.398 4.563-1.642-.504.606-.95 1.153-1.414 1.686a7 7 0 0 1-.782.873"/><path fill="#E8D348" d="M26.578 53.237a1 1 0 0 1 .179.063c.694.417 1.297.266 1.677-.459.117-.226.201-.322.497-.266a1.48 1.48 0 0 0 1.337-.37c.516-.47 1.024-.95 1.539-1.42a3.66 3.66 0 0 0 .939-1.546q.51-1.453.844-2.959a1.15 1.15 0 0 0-.205-.898 2 2 0 0 1-.413-1.143c.147.085.285.096.318.266-.106.052-.044.085 0 .13.364.387.797.702 1.276.928a.27.27 0 0 1 .179.14.28.28 0 0 1 .01.23 13 13 0 0 1-2.557 5.917q-.62.615-1.338 1.11c-.559.491-1.19.894-1.622 1.545a1.1 1.1 0 0 1-.781.452 1.08 1.08 0 0 1-.852-.293 4.5 4.5 0 0 1-1.027-1.427M30.791 36.746c.19.033.139.215.168.322.468 1.72.85 3.465 1.14 5.226.157 1.057.23 2.111-.365 3.095-.095.148-.157.255-.366.244-1.023-.033-1.95.37-2.879.703-.74.339-1.515.597-2.31.769-.821.13-1.622.063-2.192-.673a3.12 3.12 0 0 0 2.898-.289c1.023-.599 2.035-1.29 3.237-1.398.731-.062.855-.458 1.002-1.002a9.2 9.2 0 0 0 .021-4.353 17 17 0 0 1-.354-2.644M34.982 47.371c.6 1.076.687 2.241.676 3.414-.004.224.04.446.128.65.263.662-.073 1.291-.73 1.291a17 17 0 0 1-2.332-.085c-.106 0-.263 0-.307-.13-.044-.129.117-.158.18-.243a11.2 11.2 0 0 0 2.107-4.068q.14-.428.278-.829M39.615 44.213c.073-.13.168-.074.274-.052a8.3 8.3 0 0 0 3.238.108c1.94-.34 3.036-1.62 3.595-3.436.392-1.353.528-2.768.402-4.172a17.3 17.3 0 0 0-.57-2.999.8.8 0 0 1-.033-.31.77.77 0 0 1 .366.447c.822 2.422 1.202 4.885.402 7.396-.526 1.653-1.517 2.914-3.256 3.392a6.9 6.9 0 0 1-3.57-.13 3.3 3.3 0 0 1-.848-.244"/><path fill="#F9F3B6" d="M27.524 32.5c-.073.37-.402.544-.62.788-1.152 1.302-1.92 2.848-2.796 4.327-.402.673-.79 1.354-1.213 2.005a4 4 0 0 0-.592 1.75c-.128-.149-.241-.312-.366-.46a1.42 1.42 0 0 1-.146-1.534 12.2 12.2 0 0 1 2.383-3.488c.833-.928 1.6-1.908 2.488-2.785a1.9 1.9 0 0 1 .862-.602M33.933 28.873c-.252.255-.61.266-.917.406-1.052.47-1.19 1.132-1 2.293q.132.526.364 1.014l-.021.022c-.128 0-.201-.107-.285-.192a1.97 1.97 0 0 0-1.678-.533h-1.702c1.264-1.956 3.215-2.54 5.24-3.01"/><path fill="#E8D348" d="M19.46 54.113c.139-.148.325-.063.486-.085.6-.044.873-.31.855-.906a.65.65 0 0 1 .078-.424.64.64 0 0 1 .324-.279c1.18-.599 1.644-1.675 1.827-2.932.062-.459.117-.918.223-1.376.033.148.051.3.084.447 0 .684-.033 1.354-.022 2.038a2.4 2.4 0 0 1-.42 1.48 2.64 2.64 0 0 0-.592 1.686c.033.599-.201.78-.79.78a6.1 6.1 0 0 1-2.053-.429"/><path fill="#FCE94F" d="M15.327 50.208a2.2 2.2 0 0 1-.526-.673c-.475-.821-.431-1.11.223-1.783l.665-.673c.168.074.168.255.223.407.16.589.42 1.145.77 1.642.286.37.096.673-.083.973-.18.3-.442.18-.705.14a2.5 2.5 0 0 0-.567-.033"/><path fill="#E8D348" d="M15.327 50.208q.275-.005.548.022c.264.044.538.148.706-.14s.365-.589.084-.973a5.6 5.6 0 0 1-.771-1.642c-.044-.14-.044-.322-.223-.407.19-.192.223-.47.365-.74a15.8 15.8 0 0 0 1.827 3.935.33.33 0 0 1 .044.3.79.79 0 0 1-.41.611.77.77 0 0 1-.73-.005 3.5 3.5 0 0 1-1.44-.961M23.582 49.709a18 18 0 0 0 2.923-.311 2.394 2.394 0 0 0 1.535-1.165c.062-.107.127-.203.263-.203 0 .266-.201.491-.18.769-.295.148-.295.47-.365.74a.41.41 0 0 1-.336.321c-1.192.22-2.411.23-3.607.033-.098-.025-.244.015-.233-.184M14.907 38.11c0 .556.022 1.11-.413 1.569-.19.203.095.396.168.588a.39.39 0 0 0 .497.226 3.8 3.8 0 0 0 .99-.47c-.073.787-.296 1.024-.96 1.057a.74.74 0 0 1-.78-.313.8.8 0 0 1-.116-.275c-.106-.266-.179-.554-.274-.832v-.436c.007-.258.098-.507.258-.708s.382-.344.63-.405M38.676 47.23v-.321l.223-.148c-.431-.044-.884.074-1.18-.396.325.023.6.148.895.14.284.019.564-.072.785-.254.22-.181.366-.44.406-.725.033-.16.084-.31.128-.459.051-.225.201-.085.318-.074s.201.063.168.204c-.212.928-.61 1.697-1.571 2.026-.066.008-.12.008-.172.008M22.507 44.043c-.559-.843-1.224-1.642-1.129-2.763q.607.73 1.096 1.546a1.09 1.09 0 0 1 .033 1.217M41.994 34.313a2.7 2.7 0 0 0-.373-1.152 2.64 2.64 0 0 0-.84-.864c-.106-.063-.263-.074-.296-.233.5.096.957.356 1.297.74.471.49.833 1.074 1.064 1.716a1.75 1.75 0 0 0-.852-.207M40.182 32.02c-.318.225-.695-.044-1.034.181.504-.81-.263-1.131-.538-1.642-.072-.13-.252-.203-.24-.37l2.002 1.642c-.03.082-.274.008-.19.189"/><path fill="#FCE94F" d="M14.907 38.11a1.2 1.2 0 0 0-.628.407c-.161.2-.255.446-.267.703v.437a.91.91 0 0 1-.117-1.143 2.82 2.82 0 0 1 1.235-1.302l.033.034q-.148.45-.256.865"/><path fill="#E8D348" d="M41.278 35.87c-.139-.045-.146-.16-.157-.289a1 1 0 0 0-.23-.64c-.157-.192-.073-.277.146-.277.365.096.212.418.24.673a1.4 1.4 0 0 1 .242-.214.3.3 0 0 1 .453.181c.084.203 0 .31-.223.37a.61.61 0 0 0-.471.196M15.645 38.037c-.252-.074-.402-.192-.179-.47a.47.47 0 0 1 .18.47M39.308 44.106c.106-.119.14-.045.157.063a.16.16 0 0 1-.157-.063"/><path fill="#F9F3B6" d="M27.674 32.438a.155.155 0 0 1-.157.074c.03-.074.102-.074.157-.074"/><path fill="#FCE94F" d="M15.119 37.227c0-.033 0-.063.052-.044a.3.3 0 0 0-.022.074z"/><path fill="#E8D348" d="M16.15 40.03c0-.022.033-.033.044-.052a.1.1 0 0 0 0 .034c-.022.044-.044.044-.052.022zM25.394 39.317l.73-1.631c.147-.322.107-.74.366-.992q.32-.544.56-1.131c.273-.51.496-1.065.99-1.42l.062.074a1.87 1.87 0 0 0-.062 1.45c.101-.573.34-1.111.694-1.569.165-.235.41-.402.687-.47.263-.073.57-.073.77-.321.275-.085.538-.255.867 0-1.666.703-2.708 1.908-2.971 3.746l-.095-.799c0-.107.044-.266-.117-.3a.36.36 0 0 0-.431.108q-.14.217-.23.459c-.422.975-.98 1.884-1.655 2.7-.033.051-.107.051-.169.084z"/><path fill="#030403" d="M35.04 37.064q.276-.3.516-.628c.232-.343.544-.623.907-.817a2.5 2.5 0 0 1 1.18-.293c-.023.181-.253.16-.319.34a1.1 1.1 0 0 1 .6.685c.062.255.19.225.365.148s.23-.034.365-.045h.223a7 7 0 0 0-2.141 1.206l-.464.4c-.062.05-.146.14-.212 0 .212-.234.42-.46.61-.704.073-.096.318-.118.18-.321a.425.425 0 0 0-.505-.193c-.296.063-.325.33-.402.566a1.35 1.35 0 0 1-.252-.599c-.23.022-.344.322-.65.255M30.21 33.31c-.201.245-.504.233-.771.322a1.16 1.16 0 0 0-.669.466 3.6 3.6 0 0 0-.694 1.568 1.87 1.87 0 0 1 .062-1.45c.044-.033.073-.073.022-.118-.051-.044-.062.023-.095.034-.497.37-.73.906-.99 1.42a7.5 7.5 0 0 1-.56 1.131c-.021-.033-.072-.062-.072-.085.236-.81.546-1.596.928-2.348.123-.258.316-.476.557-.627.24-.152.519-.23.802-.227q.737-.09 1.48-.086"/><path fill="#E8D348" d="M35.04 37.064c.286.063.42-.233.677-.288.029.219.116.426.252.599.073-.244.106-.503.402-.566a.426.426 0 0 1 .504.193c.139.203-.106.232-.18.321-.19.244-.412.47-.61.703a.88.88 0 0 1-.504-.47c-.117-.214-.223-.436-.526-.266-.044.022-.117.022-.128-.052s.092-.1.114-.174"/><path fill="#030403" d="M46.288 33.547c-.464 1.48-1.729 2.264-2.606 1.75 1.202.051 1.875-.814 2.605-1.75M35.348 33.277a3 3 0 0 0-.88.847c-.234.339-.397.723-.48 1.128-.223-1.069.263-1.75 1.36-1.975M36.725 43.902c.084-1.035.084-1.035 1.286-1.268-.548.288-1.158.529-1.286 1.268"/><path fill="#E8D348" d="M38.27 36.48c-.167.074-.295.118-.365-.148a1.13 1.13 0 0 0-.599-.684c.062-.181.296-.148.318-.34h.073c-.033.18.084.288.201.406a1.07 1.07 0 0 1 .373.766M37.726 35.304q.05-.057.106-.107l.033.051a1 1 0 0 1-.139.052zM25.395 39.305c0 .034-.023.063-.034.108-.073-.052 0-.074.034-.108M28.325 48.033c0-.033.022-.063.033-.107.063.063 0 .074-.034.107"/><path fill="#030403" d="m24.795 40.788-.095.14-.062-.073q.061-.055.117-.118.024.022.04.051"/><path fill="#F9F3B6" d="M32.362 32.586a.15.15 0 0 1 .062.17c-.062-.022-.084-.085-.095-.148a.2.2 0 0 0 .033-.022"/><path fill="#030403" d="M24.75 40.744c0-.044.034-.074.075-.044l-.034.085a.1.1 0 0 0-.04-.041"/><path fill="#F9F3B6" d="M32.424 32.756a.14.14 0 0 0 .043.032h-.021s0-.022-.022-.022z"/><path fill="#E8D348" d="M28.04 34.132c.032 0 .084-.045.095-.034s.021.085-.022.119a.5.5 0 0 1-.073-.085"/><path fill="#030403" d="M47.804 34.42a10 10 0 0 0-.413-1.11 1.43 1.43 0 0 0-.468-.61 1.4 1.4 0 0 0-2.031.385l-.223.33a2.1 2.1 0 0 1-.855.739c-.201.107-.296.096-.413-.14a4.64 4.64 0 0 0-1.52-1.946 29 29 0 0 1-2.923-2.315c-1.462-1.258-3.12-2.005-5.08-1.664-2.287.388-4.377 1.187-5.795 3.195a1.06 1.06 0 0 1-.774.5c-.315.05-.606.199-.833.425-.366.34-.771.695-1.13 1.057a1.18 1.18 0 0 1-.705.37q-.738.106-1.461.288c-2.847.651-5.116 2.09-6.621 4.727-.162.294-.381.55-.645.754s-.567.35-.89.43c.336-.341.365-.81.442-1.28.201.192.274.425.504.577.158-.566.326-1.154.033-1.642a1.04 1.04 0 0 1 0-1.088c.022-.052.062-.118 0-.18-1.096.062-2.634 1.375-2.868 2.432a1.08 1.08 0 0 0 .146.918c.21.32.367.674.464 1.046.08.333.276.625.553.822.278.196.616.283.953.243.285-.022.263.096.24.289-.117 1.019-.093 2.05.074 3.062a1 1 0 0 1-.022.425 3.1 3.1 0 0 1-.968 1.602c-.242.203-.432.458-.676.673a.87.87 0 0 0-.274.895c.17.908.632 1.735 1.314 2.351a4.13 4.13 0 0 0 2.456 1.058 1 1 0 0 1-.146.492c-.42 1.047-.2 1.59.855 1.986.867.314 1.76.55 2.668.703.322.063.651.084.979.063.778-.063 1.096-.37 1.264-1.11q.083-.272.073-.554a1.82 1.82 0 0 1 .431-1.324 1.69 1.69 0 0 0 .392-1.45c-.022-.085-.074-.226.116-.215.56.034 1.118.063 1.784.096-.8.407-.8 1.025-.57 1.642a7.1 7.1 0 0 0 1.94 2.922 1.94 1.94 0 0 0 1.474.42 1.93 1.93 0 0 0 1.317-.79 7.3 7.3 0 0 1 1.214-1.28c.365-.37.73-.576 1.264-.321.148.054.307.075.464.063.76 0 1.509.022 2.254 0 1.14 0 1.74-.917 1.338-2.005a3.2 3.2 0 0 1-.18-1.087 6 6 0 0 0-.295-2.197c-.212-.503-.402-1.002-.6-1.516-.021-.074-.116-.159.033-.244.366.34.731.695 1.097 1.024a2.146 2.146 0 0 0 1.904.614 2.8 2.8 0 0 0 1.548-.735c.428-.402.724-.928.845-1.506.073-.322.2-.395.504-.34a7.5 7.5 0 0 0 2.13 0 5.9 5.9 0 0 0 2.149-.74c-.018.17 4.717-3.24 2.163-10.229m-32.338 3.147a.47.47 0 0 1 .18.47c-.253-.074-.396-.192-.18-.47m-.296 3.52a.74.74 0 0 1-.78-.313.8.8 0 0 1-.115-.274c-.106-.277-.18-.555-.274-.832a.926.926 0 0 1-.117-1.143 2.87 2.87 0 0 1 1.235-1.302c0-.033 0-.063.033-.022.033.04 0 .044-.022.074-.084.288-.157.566-.241.854 0 .555.022 1.11-.413 1.568-.19.204.095.396.168.588.073.193.274.267.497.226q.525-.17.99-.47a.4.4 0 0 0 .037-.048.04.04 0 0 1 0 .034c0 .04-.03.036-.048 0-.066.784-.289 1.028-.95 1.06m2.752 9.494a.79.79 0 0 1-.41.612.77.77 0 0 1-.73-.005 3.4 3.4 0 0 1-1.462-.98 2.3 2.3 0 0 1-.537-.684c-.475-.821-.431-1.11.223-1.783l.665-.673c.19-.192.223-.47.365-.74a16.1 16.1 0 0 0 1.827 3.935.33.33 0 0 1 .059.318m17.74.215c0 .223.044.444.128.65.263.674-.084 1.291-.731 1.291a17 17 0 0 1-2.331-.085c-.106-.022-.275 0-.307-.13-.033-.129.117-.17.179-.243a11.3 11.3 0 0 0 2.108-4.068c.084-.289.18-.566.263-.832.607 1.068.69 2.233.69 3.417m8.36-6.25a6.8 6.8 0 0 1-3.584-.119 3.7 3.7 0 0 1-.823-.255l-.146-.033a.16.16 0 0 1-.157-.063 4.9 4.9 0 0 1-1.728-.77c.24.844-.062 1.536-.168 2.264-.157 1.047.23 1.439 1.264 1.324l.223-.148c-.42-.044-.873.074-1.18-.396.325.023.599.148.895.141.284.018.564-.073.784-.255.221-.181.366-.44.407-.725.033-.148.084-.31.128-.459.062-.225.2-.085.318-.074s.2.052.168.204c-.212.928-.6 1.709-1.571 2.026a1 1 0 0 1-.157.023 1.56 1.56 0 0 1-1.52-.318c-.505-.396-.98-.832-1.462-1.269a1.46 1.46 0 0 0-.57-.329 14 14 0 0 1-1.827-.843c-.106.044-.033.085 0 .13.361.39.794.705 1.275.928a.27.27 0 0 1 .18.14.28.28 0 0 1 .01.23 13.26 13.26 0 0 1-2.558 5.916c-.365.46-.906.74-1.337 1.11-.56.503-1.18.895-1.622 1.546a1.08 1.08 0 0 1-.78.465 1.06 1.06 0 0 1-.854-.306 4.2 4.2 0 0 1-1.052-1.402c-.106-.159-.212-.31-.296-.47-.453-.928-.391-1.153.486-1.675l.6-.37c.401-.266.401-.266.73.086-.022-.34-.051-.674-.044-1.003a3.5 3.5 0 0 1 .073-.99c-.307.147-.296.48-.365.739a.37.37 0 0 1-.336.322c-1.192.219-2.412.23-3.607.033-.106-.022-.263.033-.241-.17-.095-.396-.18-.78-.263-1.162 0 .685-.033 1.365-.022 2.038a2.42 2.42 0 0 1-.42 1.48 2.53 2.53 0 0 0-.592 1.686c.044.599-.201.78-.79.78a5.8 5.8 0 0 1-2.035-.395 2.7 2.7 0 0 1-1.147-.396.62.62 0 0 1-.327-.364.64.64 0 0 1 .031-.49c.247-.703.423-1.43.526-2.168a.9.9 0 0 0-.139-.702 12.4 12.4 0 0 1-1.498-2.933c-1.728-4.068-.654-8.321 2.923-10.902 1.338-.962 2.869-1.398 4.564-1.642-.504.606-.95 1.153-1.414 1.686a6.2 6.2 0 0 1-.77.895c-.275.521-.549 1.046-.812 1.568-.095.181-.18.37-.274.566a1.87 1.87 0 0 0 .23 2.004q.614.726 1.096 1.546a1.07 1.07 0 0 1 .044 1.217c-.274.703-.033 1.228.537 1.675.307.244.6.503.928.74a3.12 3.12 0 0 0 2.898-.289c1.012-.599 2.035-1.29 3.237-1.398.731-.062.845-.458 1.002-1.002.42-1.45.306-2.903.021-4.353a18.5 18.5 0 0 1-.336-2.644c-.032-.255-.05-.503-.073-.74a5.6 5.6 0 0 0-.285 1.709c-.044.94.18 1.85.285 2.774.14 1.11.168 2.219-.285 3.295-.05.13-.084.3-.296.322-1.118.14-2.064.673-3.025 1.205-.505.278-.98.64-1.571.714-1.097.148-1.827-.396-2.434-1.228-.19-.266-.044-.64.073-.95q.497-1.175 1.158-2.264c.117-.225.242-.436.366-.662l-.062-.074a18 18 0 0 0-1.487 1.92 7 7 0 0 0-.834-1.41 6 6 0 0 1-.365-.458 1.42 1.42 0 0 1-.146-1.534 12.2 12.2 0 0 1 2.382-3.488c.833-.928 1.6-1.908 2.489-2.785.224-.28.525-.49.866-.599.021-.085.095-.074.168-.14l2.558-.481c.043 0 .095 0 .116-.074h-1.68c1.275-1.975 3.237-2.556 5.258-3.014 1.695-.33 3.142.192 4.428 1.302l2.003 1.642c-.033.096-.263.022-.19.203q.152.031.307.044c.5.096.956.356 1.297.74.47.49.833 1.074 1.063 1.716a1.9 1.9 0 0 0-.866-.215 7 7 0 0 1-.95.37c.366.108.212.426.241.673q.109-.12.241-.214a.31.31 0 0 1 .453.181c.096.203 0 .31-.222.37a.64.64 0 0 0-.475.226q.624-.089 1.253-.034c.365.045.23.33.285.51.022.086-.117.075-.19.064-1.338-.226-1.718 0-2.214 1.25 0 0 0 .022.062.096.24-.244.336-.6.592-.8a2.33 2.33 0 0 1 1.074-.428c-.833.617-.665 1.48-.778 2.219.152-.265.26-.554.318-.855a1.67 1.67 0 0 1 .77-1.065c.366-.192.443-.129.505.256a6.7 6.7 0 0 1-.14 2.1.94.94 0 0 0 0 .492c.366-1.087.655-2.1.56-3.18-.022-.267-.073-.522-.106-.788-.051-.33.033-.651.365-.74.874-.255 1.433-.876 1.97-1.568.296-.37.486-.37.895-.063a.77.77 0 0 1 .365.448c.834 2.422 1.203 4.885.402 7.396-.522 1.635-1.512 2.907-3.252 3.384z"/></svg>