<svg xmlns="http://www.w3.org/2000/svg" width="100" height="100" fill="none"><path fill="#465154" d="M9.799 90.842H8.08l-.846-2.396h-3.71l-.817 2.396H1l3.531-9.395h1.76zm-2.978-3.66-1.309-3.747a4 4 0 0 1-.125-.59H5.36q-.042.3-.13.59L3.935 87.18zM16.236 84.772l-3.637 4.886h3.622v1.184h-5.773v-.57l3.714-4.954h-3.367v-1.184h5.44zM23.308 90.842h-1.526v-1.059h-.024A2.19 2.19 0 0 1 19.695 91q-2.406 0-2.406-2.875v-4.01h1.525v3.833q0 1.806 1.4 1.806a1.42 1.42 0 0 0 1.116-.479c.303-.365.459-.83.438-1.303v-3.857h1.525zM29.018 85.581a1.27 1.27 0 0 0-.794-.215 1.37 1.37 0 0 0-1.13.608 2.7 2.7 0 0 0-.453 1.658v3.21h-1.53v-6.708h1.526v1.38h.024c.12-.424.358-.806.688-1.102a1.55 1.55 0 0 1 1.034-.397c.217-.013.434.03.63.124zM35.777 87.9h-4.59a1.9 1.9 0 0 0 .578 1.438c.42.354.96.535 1.51.503a3.34 3.34 0 0 0 1.982-.642v1.226a4.54 4.54 0 0 1-2.434.575 3.02 3.02 0 0 1-2.333-.915 3.65 3.65 0 0 1-.847-2.573c-.04-.94.294-1.857.929-2.554a3.05 3.05 0 0 1 2.314-.987 2.67 2.67 0 0 1 2.136.887 3.66 3.66 0 0 1 .755 2.458zm-1.472-1.073a1.95 1.95 0 0 0-.39-1.275 1.3 1.3 0 0 0-1.053-.479 1.49 1.49 0 0 0-1.116.48 2.18 2.18 0 0 0-.563 1.25zM41.107 90.842v-9.39h2.709q5.215 0 5.215 4.58a4.5 4.5 0 0 1-1.444 3.492 5.54 5.54 0 0 1-3.882 1.318zm1.559-8.059v6.756h1.25a3.5 3.5 0 0 0 2.57-.906 3.43 3.43 0 0 0 .919-2.553q0-3.297-3.426-3.297zM55.593 90.842H54.11v-1.05h-.024A2.22 2.22 0 0 1 52.042 91a2.16 2.16 0 0 1-1.554-.537 1.88 1.88 0 0 1-.563-1.437q0-1.916 2.199-2.213l2.001-.283q0-1.437-1.366-1.437c-.8-.001-1.573.292-2.17.824v-1.332a4.75 4.75 0 0 1 2.459-.628q2.55 0 2.55 2.501zm-1.473-3.296-1.414.196a2.25 2.25 0 0 0-.991.316.93.93 0 0 0-.332.815.89.89 0 0 0 .308.7c.228.19.52.287.818.272a1.52 1.52 0 0 0 1.154-.479c.317-.33.49-.77.482-1.226zM60.85 90.77c-.37.162-.773.238-1.178.22q-1.958 0-1.958-1.873v-3.794h-1.126v-1.194h1.126v-1.552l1.525-.431v1.983h1.612v1.194h-1.612v3.353c-.028.3.049.602.217.853a.9.9 0 0 0 .721.254c.242.005.478-.072.669-.22zM67.389 90.842h-1.444v-1.05h-.024A2.22 2.22 0 0 1 63.877 91a2.16 2.16 0 0 1-1.554-.537 1.88 1.88 0 0 1-.563-1.437q0-1.916 2.198-2.213l2.002-.283q0-1.437-1.367-1.437c-.8-.001-1.573.292-2.17.824v-1.332a4.75 4.75 0 0 1 2.46-.628q2.549 0 2.549 2.501zm-1.444-3.296-1.414.196c-.35.025-.69.132-.991.311a.93.93 0 0 0-.332.815.89.89 0 0 0 .308.7c.228.19.52.287.818.273a1.52 1.52 0 0 0 1.154-.48c.317-.33.49-.77.481-1.226zM78.367 90.842H73.16v-9.39h1.564v8.077h3.656zM84.87 90.842h-1.48v-1.05h-.025A2.22 2.22 0 0 1 81.321 91a2.16 2.16 0 0 1-1.554-.537 1.88 1.88 0 0 1-.563-1.437q0-1.916 2.198-2.213l2.001-.283q0-1.437-1.366-1.437c-.8-.001-1.573.292-2.17.824v-1.332a4.75 4.75 0 0 1 2.459-.628q2.55 0 2.55 2.501zM83.4 87.546l-1.415.196c-.35.026-.69.135-.99.316a.93.93 0 0 0-.333.815.89.89 0 0 0 .308.7c.229.19.52.287.818.272a1.52 1.52 0 0 0 1.155-.479c.316-.33.49-.77.48-1.226zM92.717 90.842h-1.924l-2.617-3.224h-.024v3.224h-1.535V80.91h1.535v6.295h.024l2.472-3.07h1.833l-2.78 3.233zM99 87.9h-4.59a1.9 1.9 0 0 0 .578 1.438c.42.354.96.535 1.51.503a3.34 3.34 0 0 0 1.982-.642v1.226a4.54 4.54 0 0 1-2.434.575 3.02 3.02 0 0 1-2.333-.915 3.65 3.65 0 0 1-.847-2.573c-.04-.94.294-1.857.929-2.554a3.05 3.05 0 0 1 2.314-.987 2.67 2.67 0 0 1 2.136.887A3.66 3.66 0 0 1 99 87.316zm-1.472-1.073a1.95 1.95 0 0 0-.39-1.275 1.3 1.3 0 0 0-1.053-.479 1.49 1.49 0 0 0-1.116.48 2.18 2.18 0 0 0-.563 1.25z"/><path fill="#005BA1" d="M83.856 15.41H52.884c-.33.01-.655-.092-.919-.292L43.104 9.25a1.8 1.8 0 0 0-.92-.249h-26.04c-.436 0-.856.17-1.168.473a1.66 1.66 0 0 0-.506 1.151v54.528c.011.435.193.848.505 1.151.313.303.733.473 1.17.473h67.71c.437 0 .857-.17 1.17-.473s.494-.716.505-1.151V17.078c0-.442-.177-.866-.49-1.18a1.68 1.68 0 0 0-1.184-.487"/><path fill="#fff" d="M36.417 12.162H21.619a.667.667 0 0 0-.669.666v1.873c0 .368.3.666.669.666h14.798c.37 0 .669-.298.669-.666v-1.873c0-.368-.3-.666-.67-.666"/><path fill="#1AC3F2" d="M23.707 12.162h-2.295a.46.46 0 0 0-.462.46v2.285c0 .254.207.46.462.46h2.295a.46.46 0 0 0 .462-.46v-2.285a.46.46 0 0 0-.462-.46"/><path fill="url(#a)" d="M83.856 15.329H49.998a1.51 1.51 0 0 0-1.17.48l-5.642 5.428a1.8 1.8 0 0 1-1.17.479H16.145c-.442 0-.866.174-1.18.485-.314.31-.491.732-.494 1.172V65c.011.434.193.847.505 1.15.313.304.733.474 1.17.474h67.71c.437 0 .857-.17 1.17-.473.312-.304.494-.717.505-1.151V17.087c.02-.44-.135-.871-.432-1.198a1.68 1.68 0 0 0-1.156-.546z"/><path fill="#fff" d="M54.933 24.154a.63.63 0 0 0-.336 0 .67.67 0 0 0-.544.293L40.848 43.549a.66.66 0 0 0 0 .666.8.8 0 0 0 .625.417h7.817l-3.468 11.57a.54.54 0 0 0 .24.728h.053a.42.42 0 0 0 .294 0 .48.48 0 0 0 .543-.292l13.624-19.37v-.417a.71.71 0 0 0-.712-.666h-8.351L54.88 24.81a.54.54 0 0 0 .053-.657"/><defs><linearGradient id="a" x1="50.998" x2="49.381" y1="4.42" y2="69.191" gradientUnits="userSpaceOnUse"><stop stop-color="#32D4F5"/><stop offset=".23" stop-color="#31D0F1"/><stop offset=".46" stop-color="#2CC3E6"/><stop offset=".7" stop-color="#25AFD4"/><stop offset=".94" stop-color="#1C92BA"/><stop offset="1" stop-color="#198AB3"/></linearGradient></defs></svg>