<svg width="100" height="100" viewBox="0 0 100 100" fill="none" xmlns="http://www.w3.org/2000/svg">
<path d="M98.8897 49.3069C98.8282 49.4038 98.7407 49.4814 98.6372 49.5309C98.5336 49.5803 98.4182 49.5997 98.3041 49.5866C97.8586 49.576 97.413 49.5866 96.9654 49.5866C96.5177 49.5866 96.4456 49.4807 96.4456 49.0738C96.4456 47.2231 96.4456 45.3724 96.4456 43.5218C96.4438 43.1855 96.3894 42.8516 96.2844 42.5321C96.243 42.3595 96.1474 42.2046 96.0114 42.0902C95.8755 41.9757 95.7065 41.9078 95.5291 41.8964C95.3369 41.8744 95.1425 41.9117 94.9722 42.0034C94.8018 42.0951 94.6637 42.2367 94.5765 42.4092C94.3173 42.8811 94.1843 43.4117 94.1904 43.9498C94.1798 45.6451 94.1904 47.3404 94.1904 49.0357C94.1904 49.4383 94.0928 49.5358 93.6897 49.5358C93.1826 49.5358 92.6756 49.5358 92.1664 49.5358C91.8736 49.5358 91.7421 49.4065 91.7421 49.112C91.7421 46.1452 91.7421 43.1735 91.7421 40.1969C91.7421 39.8939 91.8715 39.7731 92.1791 39.7731C92.6558 39.7731 93.1324 39.7731 93.6091 39.7731C93.9294 39.7731 94.0461 39.896 94.0482 40.2181C94.0503 40.5402 94.0482 40.8538 94.0482 41.1992C94.1543 41.0793 94.2384 40.9415 94.2964 40.7924C94.4269 40.5191 94.6147 40.2772 94.8472 40.083C95.0797 39.8888 95.3513 39.747 95.6437 39.6671C97.186 39.2836 98.5332 40.0507 98.7603 41.6146C98.8182 41.9227 98.848 42.2355 98.8494 42.5491C98.8494 42.6084 98.8494 42.6741 98.8939 42.7207L98.8897 49.3069Z" fill="#201C1D"/>
<path d="M54.7842 40.9598C55.3103 40.0444 56.0359 39.5527 57.1179 39.5676C58.1999 39.5824 58.8491 40.2033 59.3031 41.159C59.4092 40.9831 59.4919 40.8327 59.5853 40.6886C59.7933 40.3804 60.0665 40.1214 60.3856 39.9301C60.7046 39.7387 61.0618 39.6195 61.4319 39.5809C61.8021 39.5424 62.1762 39.5853 62.5279 39.7067C62.8797 39.8282 63.2005 40.0252 63.4678 40.2838C63.8507 40.664 64.0777 41.1734 64.1043 41.7121C64.2146 42.9518 64.1361 44.1957 64.1488 45.4375C64.1615 46.6793 64.1488 47.8787 64.1488 49.0993C64.1488 49.4299 64.0533 49.5231 63.7245 49.5231H62.11C61.8448 49.5231 61.7047 49.3981 61.7026 49.1396C61.7026 47.457 61.692 45.7765 61.7026 44.094C61.7134 43.6152 61.6964 43.1362 61.6517 42.6593C61.5859 42.0406 61.0471 41.7566 60.4806 41.9049C60.2558 41.9601 60.0532 42.0823 59.8998 42.2553C59.7463 42.4283 59.6491 42.6439 59.6214 42.8734C59.5522 43.2258 59.5195 43.5844 59.5238 43.9435C59.5238 45.6388 59.5238 47.3214 59.5238 49.0103C59.5238 49.4341 59.4283 49.521 59.0103 49.521H57.5571C57.1858 49.521 57.0776 49.415 57.0776 49.0463C57.0776 47.2875 57.0776 45.5293 57.0776 43.7719C57.1064 43.3983 57.0835 43.0225 57.0097 42.6551C56.968 42.4547 56.8631 42.2729 56.7103 42.1363C56.5576 41.9998 56.3651 41.9157 56.1611 41.8965C55.9353 41.8738 55.7085 41.927 55.5164 42.0475C55.3243 42.168 55.1779 42.349 55.1003 42.5619C54.9927 42.8636 54.9333 43.1804 54.9242 43.5006C54.8287 45.3951 54.9093 47.2896 54.8817 49.1841C54.8817 49.449 54.7926 49.5401 54.5211 49.5422C53.9822 49.5422 53.4454 49.5422 52.9066 49.5422C52.5713 49.5422 52.4822 49.4553 52.4822 49.1184C52.4822 47.2988 52.4822 45.4792 52.4822 43.6596C52.4822 42.5082 52.4822 41.3561 52.4822 40.2033C52.4822 39.8388 52.5523 39.7795 52.9066 39.7795H54.3917C54.6929 39.7795 54.7948 39.8812 54.7969 40.1757C54.799 40.4703 54.7842 40.7013 54.7842 40.9598Z" fill="#201C1D"/>
<path d="M73.1931 44.4881C73.1931 45.1026 73.2058 45.6091 73.1931 46.1156C73.1811 46.7022 73.3936 47.2714 73.7871 47.707C73.8345 47.7489 73.8713 47.8014 73.8946 47.8601C73.9179 47.9189 73.927 47.9823 73.9212 48.0452C73.9155 48.1081 73.8949 48.1688 73.8613 48.2223C73.8277 48.2759 73.7819 48.3207 73.7277 48.3533C73.3798 48.6521 73.0361 48.9573 72.703 49.273C72.3148 49.6439 72.1811 49.6481 71.7928 49.273C71.5699 49.0737 71.3744 48.8457 71.2115 48.5949C71.1203 48.4381 71.046 48.4233 70.9251 48.5631C70.3291 49.2009 69.5083 49.5823 68.6359 49.6269C68.146 49.6708 67.6522 49.6145 67.1848 49.4616C66.7931 49.3214 66.4469 49.0777 66.1831 48.7563C65.9193 48.435 65.7478 48.0481 65.6869 47.6371C65.5207 46.9342 65.5786 46.197 65.8524 45.5286C66.0244 45.1219 66.285 44.7587 66.6153 44.4654C66.9457 44.1721 67.3373 43.9562 67.7618 43.8333C68.5085 43.6123 69.273 43.457 70.0468 43.3692C70.2232 43.3741 70.3996 43.3599 70.5729 43.3268C70.6578 43.2971 70.7024 43.2675 70.7066 43.1742C70.7291 42.8064 70.6889 42.4373 70.5878 42.0829C70.399 41.4938 69.7095 41.3243 69.3021 41.3942C69.0226 41.4325 68.7622 41.5574 68.5575 41.7513C68.3527 41.9451 68.214 42.1982 68.1607 42.4749C68.0886 42.7547 67.9613 42.8203 67.6749 42.7801C67.2293 42.7165 66.7817 42.6635 66.3319 42.6275C65.9861 42.6 65.8354 42.4368 65.9076 42.1062C66.0003 41.5989 66.2226 41.1242 66.5531 40.728C66.8835 40.3319 67.3109 40.0277 67.7937 39.8451C68.9046 39.3696 70.1536 39.3272 71.2943 39.7265C72.5269 40.1736 73.0785 40.8814 73.1464 42.2969C73.191 43.064 73.1804 43.829 73.1931 44.4881ZM70.7002 45.4544C70.7002 45.2849 70.7002 45.1175 70.7002 44.9479C70.7002 44.825 70.6387 44.7699 70.5305 44.7954C70.2611 44.861 69.9831 44.8208 69.7116 44.8822C69.2724 44.9818 68.8396 45.109 68.549 45.465C68.3521 45.7011 68.2247 45.9872 68.1809 46.2913C68.1371 46.5955 68.1785 46.9058 68.3007 47.1878C68.3599 47.3531 68.4625 47.4995 68.5977 47.6116C69.1578 48.0736 69.8962 47.7261 70.1932 47.3192C70.5658 46.7715 70.7443 46.1151 70.7002 45.4544Z" fill="#201C1D"/>
<path d="M50.4477 44.1279C50.4477 44.7636 50.4477 45.3993 50.4477 46.0351C50.4385 46.6466 50.6605 47.239 51.0693 47.6943C51.111 47.734 51.1439 47.7821 51.1658 47.8353C51.1877 47.8885 51.1983 47.9457 51.1967 48.0032C51.1951 48.0608 51.1814 48.1173 51.1565 48.1692C51.1316 48.2212 51.0961 48.2673 51.0523 48.3046C50.628 48.6917 50.2001 49.0731 49.7688 49.4489C49.6974 49.5134 49.6037 49.5476 49.5076 49.5445C49.4114 49.5413 49.3202 49.501 49.2532 49.432C48.9479 49.177 48.6826 48.8777 48.4661 48.5441C48.4003 48.4551 48.3706 48.3915 48.2539 48.5123C47.7184 49.1223 46.9752 49.5119 46.1684 49.6058C45.2434 49.7053 44.3333 49.6375 43.6225 48.917C43.2181 48.4837 42.9695 47.9283 42.9161 47.3383C42.8416 46.8541 42.8734 46.3595 43.0094 45.8888C43.1408 45.395 43.3999 44.9443 43.7607 44.582C44.1216 44.2197 44.5714 43.9586 45.0652 43.8248C45.8053 43.6075 46.5626 43.4537 47.3289 43.365C47.5052 43.3688 47.6814 43.3553 47.8551 43.3247C47.9527 43.2929 47.9951 43.2548 47.9951 43.1531C48.0074 42.8015 47.971 42.4499 47.8869 42.1084C47.7257 41.5277 47.0383 41.3095 46.6012 41.3921C45.9817 41.5087 45.5659 41.8562 45.4513 42.5067C45.4435 42.554 45.4262 42.5992 45.4003 42.6396C45.3745 42.68 45.3407 42.7147 45.301 42.7417C45.2613 42.7686 45.2166 42.7872 45.1695 42.7964C45.1224 42.8056 45.0739 42.8051 45.027 42.7949C44.5582 42.7314 44.0893 42.6699 43.6204 42.6212C43.2682 42.5852 43.1515 42.4326 43.2343 42.0872C43.578 40.6356 44.5497 39.86 45.9626 39.5845C46.7429 39.4047 47.5556 39.4207 48.3282 39.6311C49.0538 39.843 49.7284 40.1757 50.1167 40.8878C50.3246 41.2796 50.4352 41.7157 50.4392 42.1592C50.4604 42.8225 50.4477 43.4752 50.4477 44.1279ZM45.515 46.5458C45.488 46.8078 45.5397 47.0719 45.6635 47.3044C45.7467 47.4738 45.879 47.6143 46.0432 47.7077C46.2074 47.801 46.3959 47.8429 46.5843 47.8278C46.8213 47.8013 47.0475 47.7142 47.2411 47.575C47.4347 47.4358 47.5891 47.2492 47.6896 47.0332C47.9802 46.367 48.0878 45.6356 48.0015 44.9141C48.0015 44.806 47.923 44.7848 47.8424 44.7996C47.4861 44.8276 47.1318 44.8772 46.7816 44.948C45.9605 45.1853 45.4747 45.6494 45.515 46.5458Z" fill="#201C1D"/>
<path d="M82.6044 44.7234C82.5811 43.5027 82.7805 42.4241 83.3427 41.4324C83.9049 40.4406 84.7217 39.7922 85.8759 39.6269C86.7583 39.4679 87.6686 39.6351 88.4366 40.0973C89.1367 40.5463 89.6766 41.205 89.979 41.9791C90.3918 42.98 90.5647 44.0634 90.4839 45.1429C90.454 46.2249 90.1098 47.2747 89.4932 48.1648C89.1709 48.642 88.7365 49.033 88.228 49.3038C87.7195 49.5746 87.1523 49.7168 86.576 49.7181C86.0731 49.7424 85.571 49.6554 85.1056 49.4635C84.6402 49.2715 84.223 48.9793 83.8837 48.6077C83.2862 47.9342 82.892 47.1054 82.7465 46.2173C82.6356 45.7274 82.5878 45.2254 82.6044 44.7234ZM86.699 47.8321C86.8342 47.8148 86.9638 47.7678 87.0786 47.6945C87.1935 47.6212 87.2906 47.5235 87.3631 47.4083C87.7598 46.8679 87.8298 46.2343 87.8532 45.6028C87.8933 45.0315 87.8982 44.4582 87.868 43.8863C87.8362 43.3305 87.7408 42.7802 87.5837 42.2461C87.4034 41.693 86.9473 41.4981 86.4211 41.4917C85.9968 41.4917 85.738 41.7481 85.547 42.0999C85.3001 42.6189 85.1794 43.1889 85.1948 43.7634C85.1499 44.5358 85.1791 45.3106 85.2818 46.0775C85.3299 46.4945 85.455 46.8991 85.651 47.2705C85.8483 47.6202 86.1262 47.8406 86.699 47.8321Z" fill="#201C1D"/>
<path d="M78.4525 41.7502H75.6796C75.389 41.7502 75.2829 41.6909 75.2553 41.4133C75.2022 40.9493 75.2022 40.4808 75.2553 40.0168C75.2871 39.7922 75.425 39.7244 75.6223 39.7244H81.0896C81.4927 39.7244 81.5903 39.8218 81.5903 40.2224C81.5903 40.4343 81.5755 40.6462 81.5903 40.8433C81.6131 41.2509 81.4839 41.6526 81.2275 41.9706C80.6186 42.831 80.031 43.7062 79.4369 44.575L78.391 46.1071C78.357 46.1558 78.2892 46.2003 78.3167 46.266C78.3443 46.3317 78.4377 46.3127 78.5013 46.3105C79.5078 46.2918 80.5026 46.528 81.393 46.9971C81.5101 47.0462 81.6091 47.1301 81.6767 47.2374C81.7442 47.3447 81.7771 47.4702 81.7707 47.5968C81.7707 48.0334 81.7707 48.472 81.7707 48.9086C81.7707 49.2391 81.5585 49.3769 81.2551 49.2328C80.6136 48.9106 79.9246 48.6931 79.2142 48.5886C78.1102 48.4305 76.9839 48.5717 75.9533 48.9976C75.7411 49.0866 75.529 49.1925 75.2998 49.2752C75.259 49.2914 75.2149 49.298 75.1711 49.2945C75.1272 49.291 75.0848 49.2774 75.047 49.2549C75.0093 49.2323 74.9773 49.2014 74.9534 49.1645C74.9295 49.1276 74.9145 49.0857 74.9095 49.0421C74.9095 48.4296 74.8458 47.8151 74.9477 47.2069C75.0238 46.9096 75.1643 46.6326 75.3593 46.3953C76.3493 44.9275 77.3394 43.4611 78.3295 41.996C78.3893 41.9249 78.4315 41.8407 78.4525 41.7502Z" fill="#201C1D"/>
<path d="M23.3657 69.9915H23.8409L31.591 66.1199L31.7205 65.9377V35.0496L31.591 34.8674L23.8409 31H23.3593V69.9915" fill="#5294CF"/>
<path d="M13.2797 69.9915H12.8002L5.05646 66.1199L4.89947 65.8508L4.81885 35.2085L5.05646 34.8674L12.8002 31H13.2882V69.9915" fill="#1F5B98"/>
<path d="M12.8129 31H23.8324V69.9915H12.8129V31Z" fill="#2D72B8"/>
<path d="M35.6454 49.6227L35.3844 49.5655L31.6462 49.2243L31.5911 49.2519L23.8346 48.9425H12.813L5.05646 49.2455V43.3374V43.3205L12.813 41.5256H23.8324L31.5889 43.3205L34.4403 44.8335V43.8651L35.6454 43.7337L35.5202 43.49L31.7014 40.7649L31.5847 40.803L23.8324 38.4021H12.813L5.05646 40.803V34.8695L1 39.6142V43.7591L1.03182 43.7358L2.20506 43.863V44.8568L1 45.5011V49.627H1.03182L2.20506 49.6481V51.3794L1.19306 51.3943L1 51.3689V55.4948L2.20506 56.1411V57.1455L1.05092 57.2769L1 57.2367V61.3816L5.05646 66.1284V60.1949L12.813 62.5959H23.8324L31.6123 60.1886L31.7162 60.2331L35.482 57.5482L35.6475 57.2812L34.4425 57.1477V56.1623L34.2855 56.0987L31.7056 57.4888L31.6123 57.6838L23.8324 59.4681H12.813L5.05646 57.6753V51.7418L12.813 52.0512H23.8324L31.5889 51.7355L31.765 51.816L35.3887 51.5045L35.6454 51.3794L34.4403 51.3625V49.6481L35.6454 49.6312" fill="#1A476F"/>
<path d="M31.5889 60.1949V66.1284L35.6454 61.3816V57.2642L31.6144 60.1885H31.5911" fill="#2D72B8"/>
<path d="M31.5889 57.688H31.6122L35.6433 55.5223V51.371L31.5868 51.7439V57.6774" fill="#2D72B8"/>
<path d="M31.6123 43.329H31.5889V49.2455L35.6454 49.6248V45.482L31.6144 43.329" fill="#2D72B8"/>
<path d="M31.6122 40.8263L35.6433 43.7337V39.6142L31.5868 34.8674V40.8009H31.6101V40.8157" fill="#2D72B8"/>
<path d="M43.5886 60.979V53.0938H45.8671C48.7779 53.0938 50.2333 54.3752 50.2333 56.9379C50.2333 58.1556 49.8295 59.1333 49.0219 59.8707C48.2143 60.6082 47.1288 60.9776 45.7653 60.979H43.5886ZM44.8933 54.1979V59.8686H45.9393C46.86 59.8686 47.5764 59.6157 48.0884 59.1099C48.6004 58.6042 48.8564 57.8893 48.8564 56.9654C48.8564 55.1218 47.9003 54.2 45.9881 54.2L44.8933 54.1979Z" fill="#201C1D"/>
<path d="M56.4178 55.3485L53.8719 61.8817C53.3443 63.05 52.6032 63.6342 51.6485 63.6342C51.4222 63.6388 51.1962 63.6145 50.9759 63.5622V62.5026C51.1534 62.5646 51.3396 62.5982 51.5276 62.6022C51.7545 62.604 51.9767 62.538 52.1658 62.4126C52.3548 62.2873 52.502 62.1083 52.5883 61.8987L52.9681 60.9747L50.7362 55.3485H52.1513L53.4943 59.4405C53.5084 59.4914 53.5416 59.627 53.594 59.8474H53.6152C53.6336 59.7626 53.6668 59.6305 53.7149 59.4511L55.1236 55.3485H56.4178Z" fill="#201C1D"/>
<path d="M62.1927 60.979H60.9198V57.8003C60.9198 56.7478 60.5471 56.2216 59.8017 56.2216C59.6186 56.2175 59.437 56.2546 59.2703 56.3302C59.1035 56.4057 58.956 56.5178 58.8385 56.6581C58.5795 56.9657 58.4442 57.3584 58.4587 57.76V60.9726H57.1858V55.3485H58.4587V56.283H58.48C58.6561 55.9541 58.9205 55.6807 59.2435 55.4936C59.5666 55.3064 59.9355 55.2129 60.3088 55.2235C60.5733 55.2066 60.8382 55.2519 61.0821 55.3556C61.326 55.4594 61.5421 55.6188 61.7132 55.8211C62.0357 56.2195 62.197 56.7944 62.197 57.546L62.1927 60.979Z" fill="#201C1D"/>
<path d="M67.9295 60.979H66.6905V60.0996H66.6692C66.5084 60.4123 66.2623 60.6731 65.9593 60.852C65.6564 61.0308 65.3089 61.1204 64.9571 61.1104C64.4802 61.1382 64.0117 60.9759 63.6545 60.659C63.4967 60.5042 63.3732 60.318 63.292 60.1125C63.2109 59.907 63.1739 59.6867 63.1835 59.466C63.1835 58.4022 63.7966 57.7827 65.0229 57.6075L66.6968 57.3702C66.6968 56.5677 66.3149 56.1665 65.5512 56.1665C64.8819 56.1644 64.2353 56.4088 63.7351 56.8531V55.7363C64.3608 55.3762 65.0731 55.1937 65.7951 55.2087C67.2194 55.2087 67.9316 55.9087 67.9316 57.3087L67.9295 60.979ZM66.6968 58.2136L65.513 58.3789C65.2193 58.4016 64.9351 58.493 64.6834 58.6459C64.5841 58.7281 64.5067 58.8337 64.4582 58.9531C64.4097 59.0726 64.3916 59.2022 64.4055 59.3303C64.4026 59.4407 64.4241 59.5503 64.4684 59.6514C64.5128 59.7525 64.579 59.8426 64.6622 59.9152C64.8537 60.0749 65.0984 60.1567 65.3475 60.1441C65.5282 60.1483 65.7078 60.114 65.8743 60.0435C66.0407 59.9729 66.1902 59.8678 66.3128 59.7351C66.5706 59.4543 66.7077 59.0838 66.6947 58.7031L66.6968 58.2136Z" fill="#201C1D"/>
<path d="M77.729 60.979H76.4561V57.9126C76.4561 57.3221 76.3726 56.8983 76.2057 56.6411C76.1127 56.5053 75.9849 56.3969 75.8357 56.3272C75.6864 56.2575 75.5211 56.229 75.3571 56.2449C75.1848 56.2497 75.0166 56.2981 74.8682 56.3856C74.7198 56.4731 74.596 56.5967 74.5085 56.745C74.2691 57.0984 74.1467 57.5179 74.1584 57.9444V60.9917H72.8855V57.813C72.8855 56.7648 72.5149 56.2406 71.7738 56.2406C71.6038 56.2412 71.4368 56.2848 71.2884 56.3675C71.1399 56.4501 71.0149 56.5691 70.9251 56.7132C70.6889 57.0776 70.5725 57.5065 70.592 57.9402V60.9874H69.3191V55.3485H70.592V56.2385H70.6133C70.7854 55.92 71.0429 55.6556 71.3569 55.4749C71.6708 55.2941 72.0289 55.2041 72.3911 55.215C72.7574 55.2081 73.1158 55.3212 73.4116 55.5371C73.6996 55.7456 73.9101 56.0437 74.0099 56.3847C74.4342 55.6077 75.058 55.2192 75.8811 55.2192C77.1216 55.2192 77.7418 55.9835 77.7418 57.5121L77.729 60.979Z" fill="#201C1D"/>
<path d="M81.62 61.1103C81.2372 61.1287 80.8547 61.0682 80.4962 60.9326C80.1378 60.7969 79.8112 60.5891 79.5366 60.322C79.2726 60.0436 79.0676 59.7149 78.9339 59.3555C78.8001 58.9961 78.7403 58.6135 78.758 58.2305C78.758 57.2839 79.0288 56.5451 79.5706 56.0139C80.1123 55.4827 80.8421 55.2171 81.76 55.2171C82.6412 55.2171 83.3279 55.4756 83.8201 55.9927C84.3123 56.5098 84.5584 57.2267 84.5584 58.1436C84.5584 59.0421 84.2932 59.7619 83.7628 60.303C83.2324 60.844 82.5181 61.1132 81.62 61.1103ZM81.6815 56.2364C81.4572 56.2266 81.2336 56.2688 81.0282 56.3596C80.8229 56.4504 80.6413 56.5874 80.4977 56.7598C80.1866 57.1736 80.0325 57.6842 80.0628 58.2008C80.0342 58.7039 80.1912 59.1999 80.504 59.5952C80.6498 59.7625 80.8312 59.895 81.035 59.983C81.2387 60.071 81.4597 60.1123 81.6815 60.1038C81.9003 60.1164 82.119 60.0778 82.3201 59.991C82.5213 59.9041 82.6993 59.7715 82.8399 59.6036C83.1101 59.2702 83.2451 58.7956 83.2451 58.1796C83.2451 57.5637 83.1101 57.0854 82.8399 56.745C82.7015 56.5753 82.5252 56.4405 82.3251 56.3514C82.125 56.2624 81.9067 56.2215 81.6879 56.2322L81.6815 56.2364Z" fill="#201C1D"/>
<path d="M85.808 60.979V53.0938H88.0866C90.9974 53.0938 92.4528 54.3752 92.4528 56.9379C92.4528 58.1556 92.049 59.1333 91.2414 59.8707C90.4337 60.6082 89.3482 60.9776 87.9847 60.979H85.808ZM87.1128 54.1979V59.8686H88.1587C89.0795 59.8686 89.7959 59.6157 90.3079 59.1099C90.8199 58.6042 91.0759 57.8893 91.0759 56.9654C91.0759 55.1218 90.1197 54.2 88.2075 54.2L87.1128 54.1979Z" fill="#201C1D"/>
<path d="M93.6536 60.979V53.0938H96.1592C96.923 53.0938 97.5276 53.2605 97.9732 53.5939C98.1831 53.7397 98.3539 53.9348 98.4704 54.1621C98.587 54.3894 98.6457 54.6418 98.6415 54.8972C98.6503 55.3174 98.5164 55.7282 98.2617 56.0627C97.9919 56.4037 97.6203 56.6502 97.2009 56.7662V56.7874C97.6933 56.8258 98.1555 57.0393 98.5036 57.3892C98.6681 57.5667 98.7959 57.7748 98.8797 58.0017C98.9634 58.2287 99.0014 58.4699 98.9915 58.7116C98.9991 59.0284 98.9306 59.3424 98.7918 59.6274C98.653 59.9123 98.448 60.16 98.1938 60.3496C97.6149 60.7862 96.9033 61.0107 96.1783 60.9854L93.6536 60.979ZM94.9584 54.1428V56.3869H95.807C96.1874 56.4067 96.5628 56.2927 96.8678 56.0648C96.998 55.9532 97.1008 55.8131 97.1681 55.6555C97.2354 55.4978 97.2655 55.3268 97.2561 55.1557C97.2561 54.4818 96.8049 54.1449 95.9025 54.1449L94.9584 54.1428ZM94.9584 57.4359V59.9322H96.0765C96.4819 59.958 96.8831 59.8376 97.2073 59.5931C97.3403 59.4781 97.4453 59.3344 97.5144 59.1729C97.5835 59.0113 97.6149 58.8362 97.6061 58.6607C97.6061 57.8427 97.0404 57.4337 95.9089 57.4337L94.9584 57.4359Z" fill="#201C1D"/>
</svg>
