<svg xmlns="http://www.w3.org/2000/svg" width="100" height="100" fill="none"><path fill="#201C1D" d="M98.89 49.307a.61.61 0 0 1-.586.28c-.445-.011-.891 0-1.339 0s-.52-.106-.52-.513v-5.552a3.2 3.2 0 0 0-.16-.99.83.83 0 0 0-.756-.636.95.95 0 0 0-.953.513 3.1 3.1 0 0 0-.386 1.54c-.01 1.696 0 3.391 0 5.087 0 .402-.097.5-.5.5h-1.524c-.292 0-.424-.13-.424-.424v-8.915c0-.303.13-.424.437-.424h1.43c.32 0 .437.123.44.445.001.322 0 .636 0 .981q.16-.182.247-.407a2.1 2.1 0 0 1 1.348-1.125c1.542-.383 2.89.384 3.116 1.948q.087.462.09.934c0 .06 0 .125.044.172zM54.784 40.96c.526-.916 1.252-1.407 2.334-1.392 1.082.014 1.731.635 2.185 1.591.106-.176.189-.326.282-.47a2.54 2.54 0 0 1 2.943-.982c.352.121.672.318.94.577.383.38.61.89.636 1.428.11 1.24.032 2.484.045 3.725s0 2.442 0 3.662c0 .33-.096.424-.425.424H62.11c-.265 0-.405-.125-.407-.383 0-1.683-.011-3.364 0-5.046q.015-.719-.051-1.435c-.066-.618-.605-.902-1.171-.754a1.14 1.14 0 0 0-.86.968q-.104.53-.097 1.07v5.067c0 .424-.096.511-.514.511h-1.453c-.371 0-.48-.106-.48-.475v-5.274c.03-.374.007-.75-.067-1.117a.96.96 0 0 0-.849-.758 1.02 1.02 0 0 0-1.06.665 3 3 0 0 0-.177.939c-.095 1.894-.015 3.789-.042 5.683 0 .265-.09.356-.36.358h-1.615c-.336 0-.425-.087-.425-.424v-8.915c0-.364.07-.424.425-.424h1.485c.3 0 .403.102.405.397.002.294-.013.525-.013.784M73.193 44.488c0 .615.013 1.121 0 1.628-.012.586.2 1.155.594 1.591a.403.403 0 0 1-.06.646c-.347.3-.69.604-1.024.92-.388.37-.522.375-.91 0a3.4 3.4 0 0 1-.582-.678c-.09-.157-.165-.172-.286-.032a3.37 3.37 0 0 1-2.29 1.064 3.6 3.6 0 0 1-1.45-.165 2.3 2.3 0 0 1-1.498-1.825 3.46 3.46 0 0 1 .165-2.108 2.97 2.97 0 0 1 1.91-1.696 13.4 13.4 0 0 1 2.285-.464q.265.007.526-.042c.085-.03.13-.06.134-.153a3.3 3.3 0 0 0-.12-1.091c-.188-.59-.877-.759-1.285-.689a1.35 1.35 0 0 0-1.141 1.08c-.072.28-.2.346-.486.306a22 22 0 0 0-1.343-.153c-.346-.027-.497-.19-.424-.52a2.99 2.99 0 0 1 1.886-2.262 4.84 4.84 0 0 1 3.5-.118c1.233.447 1.785 1.154 1.852 2.57.045.767.034 1.532.047 2.191m-2.493.966v-.506c0-.123-.061-.178-.17-.153-.269.066-.547.026-.818.087-.44.1-.872.227-1.163.583a1.66 1.66 0 0 0-.248 1.723 1 1 0 0 0 .297.424c.56.462 1.298.114 1.595-.293a2.96 2.96 0 0 0 .507-1.865M50.448 44.128v1.907c-.01.612.212 1.204.621 1.66a.41.41 0 0 1-.017.61 75 75 0 0 1-1.283 1.144.37.37 0 0 1-.516-.017 4 4 0 0 1-.787-.888c-.066-.089-.095-.152-.212-.032a3.28 3.28 0 0 1-2.086 1.094c-.925.1-1.835.032-2.545-.689a2.67 2.67 0 0 1-.707-1.579 3.4 3.4 0 0 1 .093-1.45 2.91 2.91 0 0 1 2.056-2.063c.74-.218 1.498-.371 2.264-.46q.264.005.526-.04c.098-.032.14-.07.14-.172a3.8 3.8 0 0 0-.108-1.045c-.161-.58-.849-.798-1.286-.716-.62.117-1.035.464-1.15 1.115a.35.35 0 0 1-.424.288 46 46 0 0 0-1.407-.174c-.352-.036-.468-.188-.386-.534.344-1.451 1.316-2.227 2.729-2.503a4.86 4.86 0 0 1 2.365.047c.726.212 1.4.545 1.789 1.257.208.392.318.828.322 1.271.021.663.009 1.316.009 1.969m-4.933 2.418c-.027.262.025.526.148.758a.94.94 0 0 0 .921.524 1.39 1.39 0 0 0 1.106-.795c.29-.666.398-1.397.312-2.119 0-.108-.079-.13-.16-.114q-.535.042-1.06.148c-.821.237-1.307.701-1.267 1.598M82.604 44.723c-.023-1.22.177-2.299.739-3.29s1.379-1.64 2.533-1.806a3.7 3.7 0 0 1 2.56.47c.7.45 1.24 1.108 1.543 1.882a6.94 6.94 0 0 1 .505 3.164 5.6 5.6 0 0 1-.99 3.022 3.53 3.53 0 0 1-2.918 1.553 3.42 3.42 0 0 1-2.692-1.11 4.76 4.76 0 0 1-1.138-2.39 6 6 0 0 1-.142-1.495m4.095 3.11a.92.92 0 0 0 .664-.425c.397-.54.467-1.174.49-1.805q.06-.859.015-1.717a7.3 7.3 0 0 0-.284-1.64c-.18-.553-.637-.748-1.163-.754-.424 0-.683.256-.874.608a3.65 3.65 0 0 0-.352 1.663 12 12 0 0 0 .087 2.315c.048.416.173.821.369 1.192.197.35.475.57 1.048.562M78.453 41.75H75.68c-.291 0-.397-.06-.425-.337a6 6 0 0 1 0-1.396c.032-.225.17-.293.367-.293h5.468c.403 0 .5.098.5.498 0 .212-.014.424 0 .621a1.65 1.65 0 0 1-.362 1.128c-.61.86-1.197 1.735-1.791 2.604l-1.046 1.532c-.034.049-.102.093-.074.159s.12.047.184.044a5.97 5.97 0 0 1 2.892.687.62.62 0 0 1 .378.6v1.312c0 .33-.213.468-.516.324a6.7 6.7 0 0 0-2.04-.644 6.2 6.2 0 0 0-3.262.409c-.212.089-.424.195-.653.277a.287.287 0 0 1-.39-.233c0-.612-.064-1.227.038-1.835.076-.297.216-.574.411-.812l2.97-4.399a.6.6 0 0 0 .124-.246"/><path fill="#5294CF" d="M23.366 69.992h.475l7.75-3.872.13-.182V35.05l-.13-.183L23.841 31h-.482v38.992"/><path fill="#1F5B98" d="M13.28 69.992h-.48L5.056 66.12l-.157-.27-.08-30.641.237-.342L12.8 31h.488v38.992"/><path fill="#2D72B8" d="M12.813 31h11.02v38.992h-11.02z"/><path fill="#1A476F" d="m35.645 49.623-.26-.057-3.739-.342-.055.028-7.756-.31H12.813l-7.757.303V43.32l7.757-1.794h11.02l7.756 1.794 2.851 1.514v-.969l1.205-.131-.125-.244-3.819-2.725-.116.038-7.753-2.4H12.813l-7.757 2.4V34.87L1 39.614v4.145l.032-.023 1.173.127v.994L1 45.5v4.126h.032l1.173.021v1.731l-1.012.015L1 51.37v4.126l1.205.646v1.005l-1.154.13-.051-.04v4.146l4.056 4.746v-5.933l7.757 2.4h11.02l7.78-2.406.103.044 3.766-2.685.166-.267-1.206-.133v-.986l-.157-.063-2.58 1.39-.093.195-7.78 1.784H12.813l-7.757-1.793v-5.933l7.757.31h11.02l7.756-.316.176.08 3.624-.312.256-.125-1.205-.017v-1.714l1.205-.017"/><path fill="#2D72B8" d="M31.589 60.195v5.933l4.056-4.746v-4.118l-4.03 2.924h-.024M31.589 57.688h.023l4.031-2.166v-4.151l-4.056.373v5.933M31.612 43.329h-.023v5.916l4.056.38v-4.143l-4.03-2.153M31.612 40.826l4.031 2.908v-4.12l-4.056-4.747v5.934h.023v.015"/><path fill="#201C1D" d="M43.589 60.979v-7.885h2.278q4.365 0 4.366 3.844 0 1.826-1.211 2.933t-3.257 1.108zm1.304-6.781v5.67h1.046q1.381 0 2.15-.758.767-.758.767-2.145 0-2.765-2.868-2.765zM56.418 55.349l-2.546 6.533q-.792 1.752-2.224 1.752a2.7 2.7 0 0 1-.672-.072v-1.06c.177.063.364.096.552.1a1.14 1.14 0 0 0 1.06-.703l.38-.924-2.232-5.626h1.415l1.343 4.092q.021.076.1.406h.021q.028-.127.1-.396l1.409-4.102zM62.193 60.979H60.92V57.8q0-1.578-1.118-1.578a1.22 1.22 0 0 0-.963.436 1.62 1.62 0 0 0-.38 1.102v3.213h-1.273v-5.624h1.273v.934h.021a2.01 2.01 0 0 1 1.829-1.06 1.7 1.7 0 0 1 1.404.598q.484.597.484 1.725zM67.93 60.979h-1.24v-.88h-.02a1.86 1.86 0 0 1-1.713 1.011 1.8 1.8 0 0 1-1.302-.451 1.58 1.58 0 0 1-.471-1.193q0-1.596 1.839-1.858l1.674-.238q0-1.203-1.146-1.203a2.72 2.72 0 0 0-1.816.686v-1.117a3.97 3.97 0 0 1 2.06-.527q2.137 0 2.137 2.1zm-1.233-2.765-1.184.165a1.9 1.9 0 0 0-.83.267.78.78 0 0 0-.278.684.75.75 0 0 0 .257.585c.192.16.436.242.685.23a1.27 1.27 0 0 0 .966-.41c.258-.28.395-.651.382-1.032zM77.729 60.979h-1.273v-3.066q0-.886-.25-1.272a.92.92 0 0 0-.849-.396 1.02 1.02 0 0 0-.849.5c-.239.353-.361.773-.35 1.2v3.047h-1.273v-3.179q0-1.572-1.111-1.572a1 1 0 0 0-.849.472 2.1 2.1 0 0 0-.333 1.227v3.047h-1.273v-5.639h1.273v.89h.021a1.95 1.95 0 0 1 1.778-1.023c.366-.007.725.106 1.02.322.289.209.5.507.599.848q.636-1.166 1.871-1.166 1.86 0 1.86 2.293zM81.62 61.11a2.8 2.8 0 0 1-2.083-.788 2.85 2.85 0 0 1-.779-2.092q0-1.42.813-2.216t2.189-.797q1.322 0 2.06.776t.738 2.15q0 1.35-.795 2.16-.796.811-2.143.807m.061-4.874a1.46 1.46 0 0 0-1.183.524 2.2 2.2 0 0 0-.435 1.44c-.029.504.128 1 .441 1.395a1.49 1.49 0 0 0 1.177.509 1.4 1.4 0 0 0 1.159-.5q.405-.5.405-1.424t-.405-1.435a1.4 1.4 0 0 0-1.152-.513zM85.808 60.979v-7.885h2.279q4.365 0 4.366 3.844 0 1.826-1.212 2.933t-3.256 1.108zm1.305-6.781v5.67h1.046q1.38 0 2.149-.758.768-.758.768-2.145 0-2.765-2.868-2.765zM93.654 60.979v-7.885h2.505q1.146 0 1.814.5a1.56 1.56 0 0 1 .668 1.303 1.86 1.86 0 0 1-.38 1.166 2.05 2.05 0 0 1-1.06.703v.021c.492.039.955.252 1.303.602a1.84 1.84 0 0 1 .487 1.323 1.98 1.98 0 0 1-.797 1.638 3.16 3.16 0 0 1-2.016.635zm1.304-6.836v2.244h.849c.38.02.756-.094 1.06-.322a1.12 1.12 0 0 0 .39-.91q0-1.01-1.355-1.01zm0 3.293v2.496h1.118c.406.026.807-.094 1.131-.339a1.16 1.16 0 0 0 .4-.932q0-1.227-1.698-1.227z"/></svg>