<svg xmlns="http://www.w3.org/2000/svg" width="100" height="100" fill="none"><path fill="url(#a)" d="M63.452 17.332a.85.85 0 0 0 .847-.848v-6.427C64.3 4.973 55.03 1 43.183 1s-21.116 3.973-21.116 9.057v44.881c0 5.085 9.269 9.057 21.116 9.057s21.116-3.972 21.116-9.057v-1.077a.848.848 0 0 0-1.695 0v1.077c0 3.549-7.804 7.345-19.403 7.345-11.6 0-19.422-3.796-19.422-7.345V44.31c3.214 3.214 10.594 5.42 19.404 5.42 1.483 0 2.984-.07 4.432-.194.476-.035.812-.459.776-.935-.035-.477-.459-.812-.935-.777a49 49 0 0 1-4.273.194c-11.6 0-19.404-3.796-19.404-7.345V29.461c3.214 3.213 10.594 5.42 19.404 5.42 1.5 0 2.984-.07 4.432-.194.476-.035.812-.459.776-.936-.035-.476-.459-.812-.935-.777a49 49 0 0 1-4.29.195c-11.6 0-19.404-3.796-19.404-7.345v-12.13c3.213 3.214 10.593 5.42 19.403 5.42s16.208-2.206 19.404-5.42v2.79a.89.89 0 0 0 .883.847m-20.27.07c-11.599 0-19.403-3.796-19.403-7.345s7.804-7.344 19.404-7.344 19.404 3.796 19.404 7.344c0 3.55-7.804 7.345-19.404 7.345"/><path fill="url(#b)" d="M77.63 29.902c-.018-.07-.036-.141-.071-.212 0-.017-.018-.035-.036-.053a.7.7 0 0 0-.141-.176l-4.308-4.308-2.86-2.86-2.86-2.86a.84.84 0 0 0-.6-.248h-14.02a.85.85 0 0 0-.847.848v25.106c0 .477.389.847.848.847h1.995v1.996c0 .476.388.847.847.847h1.995v1.995c0 .477.389.848.848.848h18.344a.85.85 0 0 0 .848-.848V30.061c.035-.053.017-.106.017-.159M73.32 27.82l1.395 1.395h-1.395zM53.6 44.292V20.898h12.8l1.148 1.147H55.595a.85.85 0 0 0-.848.848v21.399zm2.86 2.86V23.758h12.8l1.148 1.148H58.455a.85.85 0 0 0-.847.847v21.399zm2.843 2.86V26.601h12.306v3.46c0 .477.388.848.847.848h3.46v19.085H59.304z"/><path fill="url(#c)" d="M65.8 34.051a.867.867 0 0 0 .335-1.165.867.867 0 0 0-1.165-.335c-.07.035-1.854 1.059-1.854 3.601 0 2.013-1.006 2.172-1.324 2.225a.854.854 0 0 0-.724.847c0 .424.3.777.724.848.335.053 1.324.212 1.324 2.225 0 2.542 1.766 3.566 1.854 3.601.124.071.282.106.424.106.3 0 .6-.159.741-.441a.85.85 0 0 0-.335-1.165c-.018 0-.971-.583-.971-2.101 0-1.554-.477-2.49-1.06-3.072.583-.566 1.06-1.519 1.06-3.073 0-1.5.936-2.083.97-2.1"/><path fill="url(#d)" d="M73.462 38.395c-.335-.053-1.324-.212-1.324-2.225 0-2.542-1.765-3.566-1.854-3.601a.85.85 0 0 0-1.165.335.85.85 0 0 0 .336 1.165c.017 0 .97.583.97 2.101 0 1.554.477 2.49 1.06 3.072-.583.565-1.06 1.519-1.06 3.073 0 1.483-.918 2.083-.97 2.118a.856.856 0 0 0-.318 1.166.85.85 0 0 0 .741.44.94.94 0 0 0 .424-.105c.07-.035 1.854-1.06 1.854-3.602 0-2.013 1.006-2.172 1.324-2.224a.854.854 0 0 0 .724-.848c-.035-.441-.335-.812-.742-.865"/><path fill="#000" d="m29.853 81.599-1.007-2.79h-3.83l-.99 2.79h-1.73l3.76-10.082h1.784L31.6 81.6zm-1.448-4.203-.936-2.736c-.07-.177-.159-.477-.282-.865a10 10 0 0 1-.247-.865c-.124.564-.3 1.182-.548 1.853l-.9 2.613zM39.14 81.598h-1.625V76.92c0-.582-.106-1.006-.335-1.306-.212-.283-.565-.424-1.024-.424-.618 0-1.077.194-1.377.6-.283.406-.442 1.077-.442 2.013v3.796h-1.606v-7.592H34l.23.989h.089c.212-.353.512-.636.918-.83s.847-.3 1.324-.3c1.165 0 1.942.406 2.313 1.2h.106c.23-.37.547-.67.953-.882s.865-.318 1.395-.318c.9 0 1.571.23 1.977.688.407.46.618 1.148.618 2.102v4.943h-1.606V76.92c0-.582-.106-1.006-.336-1.306-.23-.283-.565-.424-1.041-.424-.636 0-1.078.194-1.378.583-.282.388-.441.988-.441 1.8v4.026zM50.934 81.598l-.318-1.06h-.053c-.37.46-.742.778-1.113.937-.37.158-.847.247-1.43.247-.741 0-1.324-.195-1.748-.6-.423-.407-.635-.972-.635-1.713 0-.777.282-1.377.865-1.766.583-.406 1.465-.618 2.648-.653l1.307-.035v-.406c0-.477-.106-.848-.336-1.095s-.582-.353-1.059-.353c-.388 0-.76.053-1.112.176a6.5 6.5 0 0 0-1.024.406l-.53-1.147a6.2 6.2 0 0 1 1.36-.495c.494-.105.953-.176 1.394-.176.971 0 1.695.212 2.19.636.494.423.741 1.076.741 1.977v5.12zm-2.402-1.095c.583 0 1.06-.159 1.413-.494q.53-.502.53-1.377v-.653l-.971.035c-.76.035-1.307.159-1.66.388-.353.23-.512.565-.512 1.042 0 .335.106.6.3.777.194.194.494.282.9.282M59.408 81.598h-5.755v-.988l3.83-5.368h-3.6v-1.236h5.42v1.13l-3.761 5.227h3.866zM67.795 77.784c0 1.236-.318 2.207-.954 2.896-.635.688-1.518 1.042-2.648 1.042-.706 0-1.342-.16-1.89-.477a3.07 3.07 0 0 1-1.253-1.377c-.3-.6-.441-1.29-.441-2.084 0-1.236.318-2.189.953-2.877.636-.689 1.519-1.042 2.666-1.042 1.095 0 1.96.353 2.613 1.06.618.705.954 1.659.954 2.86m-5.526 0c0 1.748.653 2.631 1.942 2.631s1.924-.883 1.924-2.63c0-1.73-.653-2.596-1.942-2.596-.671 0-1.165.23-1.465.671-.318.441-.46 1.095-.46 1.924M76.322 81.598h-1.624v-4.661c0-.583-.123-1.024-.353-1.307s-.618-.441-1.13-.441c-.689 0-1.183.194-1.5.6-.319.406-.477 1.077-.477 2.03v3.78H69.63v-7.593h1.271l.23.989h.088c.23-.353.547-.636.971-.83s.883-.3 1.395-.3c1.818 0 2.736.918 2.736 2.772zM14.157 93.357c0 1.66-.46 2.93-1.377 3.796-.918.883-2.242 1.306-3.973 1.306H6V88.432h3.107c1.59 0 2.843.424 3.726 1.289s1.324 2.066 1.324 3.637m-1.73.053c0-2.401-1.13-3.602-3.373-3.602H7.642v7.274h1.165c2.42 0 3.62-1.218 3.62-3.672M22.879 94.664c0 1.236-.318 2.207-.954 2.895-.635.69-1.518 1.042-2.648 1.042-.706 0-1.342-.159-1.89-.477a3.07 3.07 0 0 1-1.253-1.377c-.3-.6-.441-1.288-.441-2.083 0-1.236.318-2.19.953-2.878.636-.689 1.519-1.042 2.666-1.042 1.095 0 1.96.353 2.613 1.06q.954 1.06.954 2.86m-5.526 0c0 1.748.653 2.63 1.942 2.63s1.924-.882 1.924-2.63c0-1.73-.653-2.595-1.942-2.595-.67 0-1.165.23-1.465.67-.318.442-.46 1.078-.46 1.925M27.787 98.601c-1.148 0-2.013-.335-2.613-1.006s-.9-1.624-.9-2.878c0-1.271.317-2.26.935-2.949.618-.688 1.519-1.024 2.702-1.024.794 0 1.518.142 2.154.442l-.495 1.289c-.688-.265-1.236-.406-1.695-.406-1.306 0-1.977.865-1.977 2.613 0 .847.159 1.483.494 1.924q.503.636 1.43.636a4.1 4.1 0 0 0 2.03-.53v1.412c-.282.177-.6.283-.917.371-.283.07-.689.106-1.148.106M37.039 98.46l-.23-.989h-.088c-.23.353-.547.636-.954.83s-.882.3-1.412.3q-1.377 0-2.066-.689c-.459-.459-.67-1.147-.67-2.083v-4.961h1.624v4.679c0 .582.123 1.023.353 1.306.23.282.618.441 1.112.441.67 0 1.183-.194 1.5-.6.319-.406.477-1.077.477-2.03v-3.779h1.625v7.592h-1.271zM46.997 98.46h-1.625v-4.68c0-.582-.106-1.005-.335-1.306-.212-.282-.565-.423-1.024-.423-.618 0-1.077.194-1.377.6-.283.406-.442 1.077-.442 2.013v3.778h-1.607V90.85h1.272l.23.989h.087c.212-.353.512-.636.919-.83.406-.194.847-.3 1.324-.3 1.165 0 1.942.406 2.313 1.2h.106c.23-.37.547-.67.953-.882s.865-.318 1.395-.318c.9 0 1.571.23 1.977.688.406.46.618 1.148.618 2.102v4.943h-1.606v-4.661c0-.583-.106-1.006-.336-1.307-.23-.282-.565-.423-1.042-.423-.635 0-1.077.194-1.377.582-.282.389-.441.99-.441 1.801v4.026zM57.36 98.601c-1.183 0-2.1-.335-2.772-1.024-.67-.688-1.006-1.642-1.006-2.842 0-1.236.3-2.207.918-2.931q.927-1.06 2.542-1.06c1.007 0 1.801.3 2.384.918.582.6.865 1.448.865 2.508v.865h-5.05c.018.741.23 1.306.6 1.695.371.388.901.6 1.59.6.441 0 .865-.035 1.253-.124.389-.088.795-.23 1.254-.423v1.306a5 5 0 0 1-1.2.406q-.61.105-1.378.106m-.3-6.638c-.512 0-.918.159-1.236.494-.3.318-.494.794-.547 1.412h3.443c-.018-.618-.16-1.094-.46-1.43-.282-.317-.688-.476-1.2-.476M68.819 98.46h-1.607v-4.661c0-.583-.123-1.024-.353-1.307s-.618-.441-1.13-.441c-.688 0-1.183.194-1.5.6-.318.406-.477 1.077-.477 2.03v3.779h-1.607v-7.592h1.271l.23.989h.088c.23-.354.547-.636.971-.83.424-.195.883-.3 1.395-.3 1.819 0 2.737.918 2.737 2.771v4.962zM73.904 97.294c.388 0 .794-.07 1.183-.194v1.218c-.177.071-.407.142-.689.195-.282.052-.565.07-.883.07-1.536 0-2.295-.812-2.295-2.419v-4.096h-1.042v-.706l1.113-.583.547-1.606h.989v1.695h2.154v1.218h-2.154v4.06c0 .39.088.672.3.866.194.194.459.282.777.282M84.92 93.357c0 1.66-.458 2.93-1.376 3.796-.918.883-2.243 1.306-3.973 1.306h-2.807V88.432h3.107c1.59 0 2.843.424 3.726 1.289.882.865 1.324 2.066 1.324 3.637m-1.73.053c0-2.401-1.13-3.602-3.372-3.602h-1.412v7.274h1.165c2.419 0 3.62-1.218 3.62-3.672M87.075 88.431h2.984c1.377 0 2.383.194 3.001.6s.918 1.042.918 1.907c0 .583-.159 1.077-.459 1.466-.3.388-.741.635-1.306.741v.07c.706.142 1.218.39 1.553.795.336.389.495.918.495 1.59 0 .9-.318 1.606-.936 2.118-.636.512-1.5.76-2.63.76h-3.62zm1.642 4.15h1.571c.689 0 1.183-.107 1.501-.319q.477-.317.477-1.112c0-.477-.177-.812-.512-1.024-.336-.212-.883-.318-1.625-.318h-1.412zm0 1.323v3.178h1.748c.688 0 1.2-.123 1.553-.388.354-.265.53-.671.53-1.254 0-.53-.176-.9-.53-1.165-.353-.265-.9-.37-1.624-.37z"/><defs><linearGradient id="a" x1="22.064" x2="64.301" y1="32.495" y2="32.495" gradientUnits="userSpaceOnUse"><stop stop-color="#D25535"/><stop offset="1" stop-color="#E08B20"/></linearGradient><linearGradient id="b" x1="51.839" x2="84.382" y1="35.451" y2="35.451" gradientUnits="userSpaceOnUse"><stop stop-color="#D25535"/><stop offset="1" stop-color="#E08B20"/></linearGradient><linearGradient id="c" x1="51.839" x2="84.382" y1="39.232" y2="39.232" gradientUnits="userSpaceOnUse"><stop stop-color="#D25535"/><stop offset="1" stop-color="#E08B20"/></linearGradient><linearGradient id="d" x1="51.839" x2="84.382" y1="39.233" y2="39.233" gradientUnits="userSpaceOnUse"><stop stop-color="#D25535"/><stop offset="1" stop-color="#E08B20"/></linearGradient></defs></svg>