<svg xmlns="http://www.w3.org/2000/svg" width="100" height="100" fill="none"><path fill="#4683ED" d="M61.535 11H38.284a4.11 4.11 0 0 0-3.582 2.075L23.077 33.214a4.14 4.14 0 0 0 0 4.149l11.625 20.139a4.18 4.18 0 0 0 3.582 2.074h23.25a4.11 4.11 0 0 0 3.582-2.074l11.626-20.14a4.14 4.14 0 0 0 0-4.148l-11.626-20.14A4.13 4.13 0 0 0 61.535 11"/><path fill="#417BDC" d="M59.519 30.102h-4.17l-.527 2.446-2.447-2.446-4.188-.118-.313 2.76-2.662-2.662-4.15 4.15 2.839 2.837-2.956.117.098 4.189 18.123 18.123h2.31a4.11 4.11 0 0 0 3.581-2.075l7.966-13.797z"/><path fill="#fff" d="M44.703 34.27h-3.62a.526.526 0 0 1-.529-.528v-3.64c0-.294.235-.529.528-.529h3.621c.294 0 .529.235.529.529v3.62a.543.543 0 0 1-.529.548M51.846 29.573h-3.62a.526.526 0 0 0-.529.529v3.62c0 .294.235.529.529.529h3.62a.526.526 0 0 0 .529-.529v-3.62a.526.526 0 0 0-.529-.529m-.391 3.758h-2.818v-2.818h2.818zM58.99 29.573h-3.62a.526.526 0 0 0-.529.529v3.62c0 .294.235.529.529.529h3.62a.526.526 0 0 0 .529-.529v-3.62a.526.526 0 0 0-.529-.529m-.391 3.758H55.78v-2.818h2.818zM44.703 36.717h-3.62a.526.526 0 0 0-.529.528v3.621c0 .294.235.529.528.529h3.621a.526.526 0 0 0 .529-.529v-3.62a.526.526 0 0 0-.529-.53m-.391 3.758h-2.819v-2.819h2.819zM51.846 41.414h-3.62a.526.526 0 0 1-.529-.529v-3.62c0-.294.235-.529.529-.529h3.62c.294 0 .529.235.529.529v3.62a.54.54 0 0 1-.529.529M58.99 41.414h-3.62a.526.526 0 0 1-.529-.529v-3.62c0-.294.235-.529.529-.529h3.62c.294 0 .529.235.529.529v3.62a.54.54 0 0 1-.529.529"/><path fill="#7A7A7A" d="M33.45 68.56h3.327v4.54c-.548.176-1.077.313-1.566.372-.509.078-1.037.117-1.624.117-1.37 0-2.427-.41-3.171-1.213S29.3 70.419 29.3 68.951c0-1.448.411-2.603 1.253-3.425q1.262-1.233 3.464-1.233c.94 0 1.84.176 2.681.548l-.528 1.233c-.744-.333-1.468-.509-2.212-.509-.959 0-1.722.313-2.29.9-.567.607-.841 1.43-.841 2.486 0 1.116.254 1.938.763 2.525.509.567 1.233.86 2.173.86.47 0 .998-.058 1.526-.175v-2.33H33.41V68.56zM44.86 70.027c0 1.116-.294 1.996-.862 2.623-.567.626-1.37.94-2.387.94-.646 0-1.214-.138-1.703-.431-.49-.294-.861-.705-1.135-1.253a4.4 4.4 0 0 1-.392-1.879c0-1.115.294-1.977.861-2.603q.851-.94 2.408-.94c.998 0 1.78.314 2.348.96s.861 1.507.861 2.583m-4.991 0c0 1.585.587 2.368 1.761 2.368 1.155 0 1.742-.783 1.742-2.368 0-1.565-.587-2.348-1.742-2.348-.607 0-1.057.195-1.33.606-.294.411-.431.999-.431 1.742M52.61 70.027c0 1.116-.294 1.996-.861 2.623-.568.626-1.37.94-2.388.94-.646 0-1.213-.138-1.703-.431-.489-.294-.86-.705-1.135-1.253a4.4 4.4 0 0 1-.391-1.879c0-1.115.293-1.977.86-2.603q.851-.94 2.408-.94c.998 0 1.781.314 2.349.96.567.646.86 1.507.86 2.583m-4.99 0c0 1.585.586 2.368 1.76 2.368 1.155 0 1.742-.783 1.742-2.368 0-1.565-.587-2.348-1.741-2.348-.607 0-1.057.195-1.331.606-.294.411-.43.999-.43 1.742M60.067 66.622v.802l-1.175.215c.098.138.196.314.274.529s.098.43.098.665c0 .705-.235 1.253-.724 1.664-.49.41-1.155.607-2.016.607q-.322 0-.587-.06c-.313.197-.47.431-.47.686a.39.39 0 0 0 .216.352c.137.079.41.118.802.118h1.194c.763 0 1.33.156 1.722.489.392.313.587.783.587 1.39 0 .782-.313 1.37-.959 1.8s-1.565.626-2.779.626c-.94 0-1.644-.156-2.133-.489s-.744-.802-.744-1.41c0-.43.137-.782.392-1.056.274-.293.645-.49 1.115-.607a1.2 1.2 0 0 1-.49-.391 1.026 1.026 0 0 1 .02-1.233q.206-.264.646-.529a2 2 0 0 1-.86-.743 2.25 2.25 0 0 1-.334-1.214c0-.743.235-1.311.705-1.722s1.135-.607 1.996-.607c.196 0 .392.02.607.04.215.019.372.058.49.078zm-5.382 7.907c0 .313.136.548.43.724.274.176.685.254 1.194.254.783 0 1.39-.117 1.761-.333.392-.234.587-.528.587-.9 0-.293-.097-.509-.313-.626-.215-.117-.606-.196-1.194-.196h-1.096q-.615 0-.998.294c-.254.196-.371.45-.371.783m.626-5.696c0 .43.117.764.333.999.215.234.528.352.959.352.841 0 1.272-.45 1.272-1.35 0-.45-.098-.784-.314-1.038-.215-.235-.528-.372-.959-.372s-.743.118-.958.352c-.235.255-.333.607-.333 1.057M62.787 73.472h-1.448v-9.63h1.448zM67.856 73.59c-1.057 0-1.898-.314-2.505-.94-.607-.627-.9-1.468-.9-2.564 0-1.116.274-1.996.841-2.642.548-.646 1.33-.96 2.29-.96.9 0 1.624.275 2.133.823.529.548.783 1.311.783 2.27v.783h-4.56c.02.665.196 1.174.548 1.526.333.353.822.529 1.429.529.41 0 .782-.04 1.135-.118a5.7 5.7 0 0 0 1.115-.371V73.1a3.7 3.7 0 0 1-1.076.352c-.352.098-.763.137-1.233.137m-.274-5.99c-.47 0-.842.137-1.116.43-.274.294-.45.725-.489 1.273h3.112q0-.85-.411-1.292c-.274-.254-.626-.41-1.096-.41M5.267 80.772c-.842 0-1.527.293-1.997.9-.489.607-.724 1.429-.724 2.486q0 1.673.705 2.524c.47.568 1.154.861 2.035.861q.587 0 1.116-.117.528-.117 1.115-.294v1.273q-1.056.41-2.407.41c-1.33 0-2.349-.41-3.053-1.213C1.352 86.8 1 85.645 1 84.158c0-.94.176-1.762.509-2.466.352-.705.841-1.253 1.487-1.625s1.41-.567 2.29-.567c.92 0 1.781.195 2.564.587l-.528 1.233a7 7 0 0 0-.979-.372 3.3 3.3 0 0 0-1.076-.176M10.747 88.679H9.298v-9.63h1.449zM18.908 85.254c0 1.115-.294 1.996-.861 2.622-.568.627-1.37.94-2.388.94-.646 0-1.213-.137-1.703-.43-.489-.294-.86-.705-1.135-1.253a4.4 4.4 0 0 1-.391-1.88c0-1.115.293-1.976.861-2.602q.851-.94 2.407-.94c.998 0 1.781.314 2.349.96.567.645.86 1.487.86 2.583m-4.99 0c0 1.585.586 2.368 1.76 2.368 1.155 0 1.742-.783 1.742-2.368 0-1.566-.587-2.349-1.741-2.349-.607 0-1.057.196-1.331.607-.294.391-.43.979-.43 1.742M25.406 88.679l-.196-.9h-.078c-.196.313-.49.567-.862.743a3 3 0 0 1-1.272.274c-.822 0-1.448-.215-1.859-.626s-.607-1.037-.607-1.879v-4.482H22v4.228c0 .528.098.92.313 1.174.216.254.548.391 1.018.391.607 0 1.057-.176 1.35-.548s.431-.978.431-1.84V81.81h1.468v6.85h-1.174zM30.944 88.816c-.86 0-1.526-.313-1.996-.92-.47-.626-.724-1.487-.724-2.603s.235-1.996.724-2.623c.49-.626 1.155-.939 2.016-.939q1.35 0 2.055.998h.078A7.3 7.3 0 0 1 33 81.575v-2.486h1.468v9.63h-1.135l-.254-.901h-.06c-.508.646-1.173.998-2.074.998m.392-1.194c.606 0 1.037-.176 1.311-.509.274-.332.411-.88.43-1.644v-.195c0-.862-.136-1.468-.43-1.84-.274-.372-.724-.548-1.311-.548-.51 0-.9.215-1.175.626-.274.411-.41.998-.41 1.781 0 .763.136 1.33.41 1.742q.353.587 1.175.587M47.326 84.08c0 1.487-.411 2.642-1.253 3.424-.822.783-2.016 1.194-3.581 1.194h-2.525v-9.042h2.799c1.448 0 2.564.392 3.366 1.155s1.194 1.86 1.194 3.268m-1.546.038c0-2.172-1.018-3.248-3.034-3.248h-1.292v6.576h1.057c2.173 0 3.269-1.116 3.269-3.328M53.412 88.679l-.293-.96h-.06c-.332.412-.664.706-.997.843a3.4 3.4 0 0 1-1.292.234c-.665 0-1.194-.176-1.566-.548-.371-.372-.567-.88-.567-1.546 0-.704.254-1.233.783-1.605.528-.352 1.33-.548 2.387-.587l1.175-.039V84.1c0-.43-.098-.763-.313-.978-.196-.216-.529-.333-.96-.333-.352 0-.684.059-1.017.157a5.3 5.3 0 0 0-.92.371l-.47-1.037a6 6 0 0 1 1.214-.45c.45-.098.86-.157 1.252-.157.861 0 1.527.196 1.977.568s.665.979.665 1.78v4.62h-.998zM51.24 87.7c.528 0 .959-.156 1.272-.45.313-.293.49-.704.49-1.233v-.587l-.882.04c-.684.019-1.174.136-1.487.352q-.47.292-.47.939c0 .313.098.548.274.705.177.137.431.234.803.234M59.03 87.622q.528 0 1.056-.176v1.096a2.2 2.2 0 0 1-.626.176c-.254.039-.509.078-.783.078-1.37 0-2.074-.724-2.074-2.172v-3.7h-.94v-.645l.998-.529.49-1.448h.9v1.527h1.957v1.096h-1.957v3.66c0 .352.078.606.254.782.216.176.43.255.724.255M65.743 88.679l-.294-.96h-.059c-.332.412-.665.706-.998.843q-.499.234-1.292.234c-.665 0-1.194-.176-1.565-.548-.372-.372-.568-.88-.568-1.546 0-.704.255-1.233.783-1.605.528-.352 1.33-.548 2.388-.587l1.174-.039V84.1c0-.43-.098-.763-.313-.978-.215-.216-.529-.333-.96-.333-.352 0-.684.059-1.017.157a5.3 5.3 0 0 0-.92.371l-.47-1.037a6 6 0 0 1 1.214-.45c.45-.098.861-.157 1.253-.157.86 0 1.526.196 1.976.568s.666.979.666 1.78v4.62h-.998zM63.57 87.7c.529 0 .96-.156 1.272-.45.313-.293.49-.704.49-1.233v-.587l-.881.04c-.685.019-1.174.136-1.488.352q-.47.292-.47.939c0 .313.099.548.275.705.176.137.45.234.802.234M73.414 86.741c0 .665-.235 1.174-.724 1.546-.49.352-1.194.529-2.094.529-.92 0-1.644-.137-2.192-.411v-1.273c.802.372 1.546.548 2.25.548.9 0 1.35-.274 1.35-.802a.65.65 0 0 0-.156-.43c-.097-.118-.254-.235-.489-.353s-.548-.254-.94-.43c-.782-.314-1.33-.607-1.604-.92s-.411-.705-.411-1.194c0-.587.235-1.037.704-1.37.47-.333 1.116-.49 1.938-.49.802 0 1.566.157 2.29.49l-.47 1.096c-.744-.313-1.35-.45-1.86-.45-.763 0-1.154.215-1.154.665 0 .215.098.392.294.548s.645.352 1.31.607c.569.215.98.41 1.234.607.254.176.45.391.567.626.098.235.157.528.157.861M77.544 87.622q.528 0 1.057-.176v1.096a2.2 2.2 0 0 1-.627.176c-.254.039-.508.078-.782.078-1.37 0-2.075-.724-2.075-2.172v-3.7h-.94v-.645l.999-.529.489-1.448h.9v1.527h1.957v1.096h-1.957v3.66c0 .352.079.606.255.782.195.176.43.255.724.255M86.038 85.254c0 1.115-.294 1.996-.862 2.622-.567.627-1.37.94-2.387.94-.646 0-1.214-.137-1.703-.43-.49-.294-.861-.705-1.135-1.253a4.4 4.4 0 0 1-.392-1.88c0-1.115.294-1.976.862-2.602q.851-.94 2.407-.94c.998 0 1.78.314 2.348.96s.862 1.487.862 2.583m-4.972 0c0 1.585.588 2.368 1.762 2.368 1.155 0 1.742-.783 1.742-2.368 0-1.566-.587-2.349-1.742-2.349-.607 0-1.057.196-1.331.607-.294.391-.43.979-.43 1.742M91.185 81.712c.294 0 .529.02.724.058l-.137 1.35a2.4 2.4 0 0 0-.646-.078c-.587 0-1.056.196-1.409.568-.352.372-.548.88-.548 1.487v3.582h-1.448v-6.85h1.135l.196 1.213h.078c.235-.41.529-.724.88-.978a2.1 2.1 0 0 1 1.175-.352M96.176 88.816c-1.057 0-1.899-.313-2.505-.94-.607-.626-.9-1.467-.9-2.563 0-1.116.273-1.997.841-2.642.548-.646 1.33-.96 2.29-.96.9 0 1.624.275 2.133.823.529.547.783 1.31.783 2.27v.783h-4.56c.02.665.196 1.174.548 1.526.332.353.822.529 1.428.529.412 0 .783-.04 1.136-.118a5.7 5.7 0 0 0 1.115-.372v1.175a3.7 3.7 0 0 1-1.076.352c-.353.098-.764.137-1.233.137m-.274-6.008c-.47 0-.842.136-1.116.43s-.45.724-.489 1.272h3.112q0-.851-.411-1.291c-.274-.255-.627-.411-1.096-.411"/></svg>