<svg width="100" height="100" viewBox="0 0 100 100" fill="none" xmlns="http://www.w3.org/2000/svg">
<path d="M61.5345 11H38.2837C36.7963 11 35.4458 11.7829 34.7021 13.0746L23.0767 33.2135C22.333 34.4857 22.333 36.071 23.0767 37.3627L34.7021 57.5017C35.4458 58.7738 36.8158 59.5762 38.2837 59.5762H61.5345C63.0219 59.5762 64.3724 58.7934 65.1161 57.5017L76.7415 37.3627C77.4852 36.0905 77.4852 34.5053 76.7415 33.2135L65.1161 13.0746C64.3724 11.7829 63.0024 11 61.5345 11Z" fill="#4683ED"/>
<path d="M59.5186 30.1017H55.3499L54.8215 32.5481L52.3751 30.1017L48.1868 29.9843L47.8737 32.7438L45.2119 30.0821L41.0628 34.2312L43.9007 37.0691L40.9454 37.1865L41.0432 41.3748L59.1663 59.4979H61.4758C62.9632 59.4979 64.3136 58.7151 65.0573 57.4234L73.0229 43.6255L59.5186 30.1017Z" fill="#417BDC"/>
<path d="M44.7032 34.2705H41.0824C40.7889 34.2705 40.554 34.0356 40.554 33.7421V30.1018C40.554 29.8082 40.7889 29.5734 41.0824 29.5734H44.7032C44.9967 29.5734 45.2316 29.8082 45.2316 30.1018V33.7225C45.2316 34.0161 44.9967 34.2705 44.7032 34.2705Z" fill="white"/>
<path d="M51.8464 29.5734H48.2257C47.9321 29.5734 47.6973 29.8082 47.6973 30.1018V33.7225C47.6973 34.0161 47.9321 34.2509 48.2257 34.2509H51.8464C52.14 34.2509 52.3748 34.0161 52.3748 33.7225V30.1018C52.3748 29.8082 52.14 29.5734 51.8464 29.5734ZM51.455 33.3311H48.6367V30.5128H51.455V33.3311Z" fill="white"/>
<path d="M58.9902 29.5734H55.3695C55.076 29.5734 54.8411 29.8082 54.8411 30.1018V33.7225C54.8411 34.0161 55.076 34.2509 55.3695 34.2509H58.9902C59.2838 34.2509 59.5187 34.0161 59.5187 33.7225V30.1018C59.5187 29.8082 59.2838 29.5734 58.9902 29.5734ZM58.5988 33.3311H55.7805V30.5128H58.5988V33.3311Z" fill="white"/>
<path d="M44.7032 36.7169H41.0824C40.7889 36.7169 40.554 36.9518 40.554 37.2453V40.8661C40.554 41.1596 40.7889 41.3945 41.0824 41.3945H44.7032C44.9967 41.3945 45.2316 41.1596 45.2316 40.8661V37.2453C45.2316 36.9518 44.9967 36.7169 44.7032 36.7169ZM44.3117 40.4746H41.4934V37.6563H44.3117V40.4746Z" fill="white"/>
<path d="M51.8464 41.4138H48.2257C47.9321 41.4138 47.6973 41.1789 47.6973 40.8853V37.2646C47.6973 36.9711 47.9321 36.7362 48.2257 36.7362H51.8464C52.14 36.7362 52.3748 36.9711 52.3748 37.2646V40.8853C52.3748 41.1593 52.14 41.4138 51.8464 41.4138Z" fill="white"/>
<path d="M58.9902 41.4138H55.3695C55.076 41.4138 54.8411 41.1789 54.8411 40.8853V37.2646C54.8411 36.9711 55.076 36.7362 55.3695 36.7362H58.9902C59.2838 36.7362 59.5187 36.9711 59.5187 37.2646V40.8853C59.5187 41.1593 59.2838 41.4138 58.9902 41.4138Z" fill="white"/>
<path d="M33.4495 68.5595H36.7766V73.1001C36.2286 73.2762 35.7002 73.4132 35.2109 73.472C34.702 73.5502 34.1736 73.5894 33.5865 73.5894C32.2165 73.5894 31.1596 73.1784 30.4159 72.376C29.6722 71.5735 29.3003 70.4188 29.3003 68.951C29.3003 67.5027 29.7113 66.348 30.5529 65.526C31.3945 64.704 32.5492 64.293 34.017 64.293C34.9565 64.293 35.8567 64.4691 36.6983 64.841L36.1699 66.074C35.4262 65.7413 34.702 65.5651 33.9583 65.5651C32.9993 65.5651 32.236 65.8783 31.6685 66.4654C31.1009 67.0721 30.8269 67.8941 30.8269 68.951C30.8269 70.0665 31.0813 70.8885 31.5902 71.4757C32.099 72.0432 32.8232 72.3368 33.7626 72.3368C34.2323 72.3368 34.7607 72.2781 35.2892 72.1607V69.8317H33.4103V68.5595H33.4495Z" fill="#7A7A7A"/>
<path d="M44.8595 70.0272C44.8595 71.1427 44.5659 72.0234 43.9984 72.6497C43.4308 73.276 42.6284 73.5892 41.6107 73.5892C40.9648 73.5892 40.3972 73.4522 39.9079 73.1586C39.4187 72.865 39.0468 72.454 38.7728 71.906C38.5184 71.358 38.3814 70.7317 38.3814 70.0272C38.3814 68.9116 38.6749 68.0505 39.2425 67.4242C39.8101 66.7979 40.6125 66.4847 41.6498 66.4847C42.6479 66.4847 43.4308 66.7979 43.9984 67.4437C44.5659 68.0896 44.8595 68.9507 44.8595 70.0272ZM39.8688 70.0272C39.8688 71.6124 40.4559 72.3953 41.6302 72.3953C42.7849 72.3953 43.3721 71.6124 43.3721 70.0272C43.3721 68.4615 42.7849 67.6786 41.6302 67.6786C41.0235 67.6786 40.5734 67.8743 40.2994 68.2853C40.0058 68.6963 39.8688 69.2835 39.8688 70.0272Z" fill="#7A7A7A"/>
<path d="M52.6098 70.0272C52.6098 71.1427 52.3163 72.0234 51.7487 72.6497C51.1811 73.276 50.3787 73.5892 49.361 73.5892C48.7151 73.5892 48.1476 73.4522 47.6583 73.1586C47.169 72.865 46.7971 72.454 46.5231 71.906C46.2687 71.358 46.1317 70.7317 46.1317 70.0272C46.1317 68.9116 46.4253 68.0505 46.9929 67.4242C47.5604 66.7979 48.3629 66.4847 49.4001 66.4847C50.3983 66.4847 51.1811 66.7979 51.7487 67.4437C52.3163 68.0896 52.6098 68.9507 52.6098 70.0272ZM47.6191 70.0272C47.6191 71.6124 48.2063 72.3953 49.3806 72.3953C50.5353 72.3953 51.1224 71.6124 51.1224 70.0272C51.1224 68.4615 50.5353 67.6786 49.3806 67.6786C48.7739 67.6786 48.3237 67.8743 48.0497 68.2853C47.7561 68.6963 47.6191 69.2835 47.6191 70.0272Z" fill="#7A7A7A"/>
<path d="M60.0666 66.6218V67.4242L58.8923 67.6395C58.9902 67.7765 59.088 67.9526 59.1663 68.1679C59.2446 68.3832 59.2642 68.5985 59.2642 68.8333C59.2642 69.5379 59.0293 70.0859 58.54 70.4969C58.0507 70.9079 57.3853 71.1036 56.5242 71.1036C56.3089 71.1036 56.1132 71.084 55.937 71.0449C55.6239 71.2406 55.4673 71.4755 55.4673 71.7299C55.4673 71.8865 55.5456 72.0039 55.6826 72.0822C55.8196 72.1605 56.0936 72.1996 56.485 72.1996H57.6789C58.4422 72.1996 59.0097 72.3562 59.4012 72.6889C59.7926 73.002 59.9883 73.4717 59.9883 74.0785C59.9883 74.8613 59.6752 75.4485 59.0293 75.879C58.3834 76.3096 57.4636 76.5053 56.2502 76.5053C55.3107 76.5053 54.6062 76.3488 54.1169 76.016C53.6276 75.6833 53.3732 75.2136 53.3732 74.6069C53.3732 74.1763 53.5102 73.824 53.7646 73.55C54.0386 73.2565 54.4105 73.0608 54.8802 72.9433C54.6845 72.865 54.5279 72.728 54.3909 72.5519C54.2735 72.3758 54.1952 72.18 54.1952 71.9648C54.1952 71.7103 54.2735 71.495 54.4105 71.3189C54.5475 71.1428 54.7627 70.9666 55.0563 70.7905C54.704 70.6339 54.4105 70.3795 54.1952 70.0468C53.9799 69.6945 53.8625 69.303 53.8625 68.8333C53.8625 68.0896 54.0973 67.522 54.567 67.111C55.0367 66.7 55.7022 66.5043 56.5633 66.5043C56.759 66.5043 56.9547 66.5239 57.17 66.5435C57.3853 66.563 57.5419 66.6022 57.6593 66.6218H60.0666ZM54.6845 74.5286C54.6845 74.8418 54.8215 75.0766 55.115 75.2527C55.389 75.4289 55.8 75.5072 56.3089 75.5072C57.0917 75.5072 57.6984 75.3897 58.0703 75.1745C58.4617 74.9396 58.6574 74.646 58.6574 74.2742C58.6574 73.9806 58.5596 73.7653 58.3443 73.6479C58.129 73.5305 57.7376 73.4522 57.1505 73.4522H56.0545C55.6435 73.4522 55.3107 73.55 55.0563 73.7458C54.8019 73.9415 54.6845 74.1959 54.6845 74.5286ZM55.3107 68.8333C55.3107 69.2639 55.4282 69.5966 55.6435 69.8315C55.8587 70.0663 56.1719 70.1838 56.6025 70.1838C57.444 70.1838 57.8746 69.7336 57.8746 68.8333C57.8746 68.3832 57.7767 68.0505 57.5614 67.796C57.3462 67.5612 57.033 67.4242 56.6025 67.4242C56.1719 67.4242 55.8587 67.5416 55.6435 67.7765C55.4086 68.0309 55.3107 68.3832 55.3107 68.8333Z" fill="#7A7A7A"/>
<path d="M62.7869 73.4717H61.3386V63.8425H62.7869V73.4717Z" fill="#7A7A7A"/>
<path d="M67.8559 73.5892C66.799 73.5892 65.9575 73.276 65.3508 72.6497C64.744 72.0234 64.4505 71.1819 64.4505 70.0859C64.4505 68.9703 64.7245 68.0896 65.292 67.4437C65.84 66.7979 66.6229 66.4847 67.5819 66.4847C68.4822 66.4847 69.2063 66.7587 69.7152 67.3067C70.2436 67.8547 70.498 68.618 70.498 69.577V70.3599H65.9379C65.9575 71.0253 66.1336 71.5342 66.4859 71.8864C66.8186 72.2387 67.3079 72.4149 67.9146 72.4149C68.3256 72.4149 68.6975 72.3757 69.0497 72.2974C69.402 72.2192 69.7739 72.1017 70.1653 71.9256V73.0999C69.813 73.276 69.4608 73.3934 69.0889 73.4522C68.7366 73.55 68.3256 73.5892 67.8559 73.5892ZM67.5819 67.6003C67.1122 67.6003 66.7403 67.7373 66.4663 68.0309C66.1923 68.3245 66.0162 68.755 65.977 69.303H69.0889C69.0889 68.7355 68.9519 68.3049 68.6779 68.0113C68.4039 67.7569 68.0516 67.6003 67.5819 67.6003Z" fill="#7A7A7A"/>
<path d="M5.26657 80.7717C4.425 80.7717 3.74 81.0653 3.27028 81.672C2.781 82.2787 2.54614 83.1007 2.54614 84.1576C2.54614 85.2731 2.781 86.1147 3.25071 86.6823C3.72042 87.2499 4.40542 87.5434 5.28614 87.5434C5.67757 87.5434 6.04942 87.5043 6.40171 87.426C6.75399 87.3477 7.12585 87.2498 7.51728 87.1324V88.4046C6.81271 88.6786 6.01028 88.8156 5.10999 88.8156C3.77914 88.8156 2.76143 88.4046 2.05686 87.6021C1.35229 86.7997 1 85.645 1 84.1576C1 83.2181 1.17614 82.3961 1.50886 81.6916C1.86114 80.987 2.35043 80.439 2.99628 80.0671C3.64214 79.6953 4.40542 79.4996 5.28614 79.4996C6.20599 79.4996 7.06713 79.6953 7.84999 80.0867L7.32156 81.3197C7.00842 81.1827 6.69528 81.0457 6.34299 80.9479C6.01028 80.8304 5.63842 80.7717 5.26657 80.7717Z" fill="#7A7A7A"/>
<path d="M10.7466 88.6789H9.29834V79.0497H10.7466V88.6789Z" fill="#7A7A7A"/>
<path d="M18.9079 85.2539C18.9079 86.3695 18.6144 87.2502 18.0468 87.8765C17.4792 88.5028 16.6768 88.8159 15.6591 88.8159C15.0132 88.8159 14.4457 88.6789 13.9564 88.3853C13.4671 88.0918 13.0952 87.6808 12.8212 87.1328C12.5668 86.5848 12.4298 85.9585 12.4298 85.2539C12.4298 84.1383 12.7234 83.2772 13.291 82.6509C13.8585 82.0246 14.6609 81.7115 15.6982 81.7115C16.6964 81.7115 17.4792 82.0246 18.0468 82.6705C18.6144 83.3163 18.9079 84.1579 18.9079 85.2539ZM13.9172 85.2539C13.9172 86.8392 14.5044 87.6221 15.6787 87.6221C16.8334 87.6221 17.4205 86.8392 17.4205 85.2539C17.4205 83.6882 16.8334 82.9053 15.6787 82.9053C15.0719 82.9053 14.6218 83.1011 14.3478 83.5121C14.0542 83.9035 13.9172 84.4906 13.9172 85.2539Z" fill="#7A7A7A"/>
<path d="M25.4056 88.6787L25.2099 87.7784H25.1316C24.9359 88.0916 24.6423 88.346 24.2705 88.5221C23.8986 88.6983 23.468 88.7961 22.9983 88.7961C22.1763 88.7961 21.55 88.5808 21.139 88.1698C20.728 87.7588 20.5323 87.1326 20.5323 86.291V81.8091H22.0002V86.0366C22.0002 86.565 22.098 86.9564 22.3133 87.2109C22.5286 87.4653 22.8613 87.6023 23.331 87.6023C23.9377 87.6023 24.3879 87.4261 24.6815 87.0543C24.975 86.6824 25.112 86.0757 25.112 85.2146V81.8091H26.5799V88.6591H25.4056V88.6787Z" fill="#7A7A7A"/>
<path d="M30.9443 88.8159C30.0832 88.8159 29.4177 88.5028 28.948 87.8961C28.4783 87.2698 28.2239 86.4086 28.2239 85.2931C28.2239 84.1775 28.4587 83.2968 28.948 82.6705C29.4373 82.0442 30.1027 81.7311 30.9639 81.7311C31.8642 81.7311 32.5492 82.0638 33.0189 82.7292H33.0972C33.0189 82.2399 32.9993 81.8485 32.9993 81.5745V79.0889H34.4672V88.7181H33.332L33.0776 87.8178H33.0189C32.51 88.4636 31.8446 88.8159 30.9443 88.8159ZM31.3357 87.6221C31.9424 87.6221 32.373 87.4459 32.647 87.1132C32.921 86.7805 33.058 86.2325 33.0776 85.4692V85.2735C33.0776 84.4124 32.9406 83.8056 32.647 83.4338C32.373 83.0619 31.9229 82.8858 31.3357 82.8858C30.8269 82.8858 30.4354 83.1011 30.1614 83.5121C29.8874 83.9231 29.7504 84.5102 29.7504 85.2931C29.7504 86.0563 29.8874 86.6239 30.1614 87.0349C30.3963 87.4263 30.7877 87.6221 31.3357 87.6221Z" fill="#7A7A7A"/>
<path d="M47.3258 84.0793C47.3258 85.5668 46.9148 86.7215 46.0733 87.5043C45.2513 88.2872 44.0574 88.6982 42.4917 88.6982H39.967V79.6562H42.7657C44.214 79.6562 45.3295 80.0476 46.132 80.8109C46.9344 81.5742 47.3258 82.6702 47.3258 84.0793ZM45.7797 84.1185C45.7797 81.946 44.762 80.8696 42.7461 80.8696H41.4544V87.4456H42.5113C44.6837 87.4456 45.7797 86.33 45.7797 84.1185Z" fill="#7A7A7A"/>
<path d="M53.4122 88.6789L53.1187 87.7199H53.0599C52.7272 88.1309 52.3945 88.4245 52.0618 88.5615C51.7291 88.6985 51.2985 88.7964 50.7701 88.7964C50.1047 88.7964 49.5762 88.6202 49.2044 88.2484C48.8325 87.8765 48.6368 87.3676 48.6368 86.7022C48.6368 85.9976 48.8912 85.4692 49.4197 85.0974C49.9481 84.7451 50.7505 84.5494 51.8074 84.5102L52.9817 84.4711V84.0992C52.9817 83.6686 52.8838 83.3359 52.6685 83.1206C52.4728 82.9054 52.1401 82.7879 51.7095 82.7879C51.3572 82.7879 51.0245 82.8466 50.6918 82.9445C50.3787 83.0424 50.0655 83.1598 49.772 83.3164L49.3022 82.2791C49.6741 82.0834 50.0851 81.9464 50.5157 81.8289C50.9658 81.7311 51.3768 81.6724 51.7682 81.6724C52.6294 81.6724 53.2948 81.8681 53.7449 82.2399C54.1951 82.6118 54.4104 83.2185 54.4104 84.0209V88.6398H53.4122V88.6789ZM51.2398 87.7004C51.7682 87.7004 52.1988 87.5438 52.5119 87.2502C52.8251 86.9566 53.0012 86.5456 53.0012 86.0172V85.4301L52.1205 85.4692C51.4355 85.4888 50.9462 85.6062 50.6331 85.8215C50.32 86.0172 50.1634 86.3304 50.1634 86.7609C50.1634 87.0741 50.2612 87.3089 50.4374 87.4655C50.6135 87.6025 50.868 87.7004 51.2398 87.7004Z" fill="#7A7A7A"/>
<path d="M59.0294 87.6218C59.3817 87.6218 59.734 87.5631 60.0863 87.4457V88.5417C59.9297 88.62 59.7144 88.6787 59.46 88.7178C59.2056 88.757 58.9511 88.7961 58.6771 88.7961C57.3071 88.7961 56.6026 88.072 56.6026 86.6237V82.9247H55.6631V82.2788L56.6613 81.7504L57.1506 80.3021H58.0509V81.8287H60.008V82.9247H58.0509V86.5845C58.0509 86.9368 58.1291 87.1913 58.3053 87.3674C58.5206 87.5435 58.7359 87.6218 59.0294 87.6218Z" fill="#7A7A7A"/>
<path d="M65.7425 88.6789L65.449 87.7199H65.3902C65.0575 88.1309 64.7248 88.4245 64.3921 88.5615C64.0594 88.7181 63.6288 88.7964 63.1004 88.7964C62.435 88.7964 61.9065 88.6202 61.5347 88.2484C61.1628 87.8765 60.9671 87.3676 60.9671 86.7022C60.9671 85.9976 61.2215 85.4692 61.75 85.0974C62.2784 84.7451 63.0808 84.5494 64.1377 84.5102L65.3119 84.4711V84.0992C65.3119 83.6686 65.2141 83.3359 64.9988 83.1206C64.7835 82.9054 64.4704 82.7879 64.0398 82.7879C63.6875 82.7879 63.3548 82.8466 63.0221 82.9445C62.709 83.0424 62.3958 83.1598 62.1022 83.3164L61.6325 82.2791C62.0044 82.0834 62.4154 81.9464 62.846 81.8289C63.2961 81.7311 63.7071 81.6724 64.0985 81.6724C64.9597 81.6724 65.6251 81.8681 66.0752 82.2399C66.5254 82.6118 66.7407 83.2185 66.7407 84.0209V88.6398H65.7425V88.6789ZM63.5701 87.7004C64.0985 87.7004 64.5291 87.5438 64.8422 87.2502C65.1554 86.9566 65.3315 86.5456 65.3315 86.0172V85.4301L64.4508 85.4692C63.7658 85.4888 63.2765 85.6062 62.9634 85.8215C62.6502 86.0172 62.4937 86.3304 62.4937 86.7609C62.4937 87.0741 62.5915 87.3089 62.7677 87.4655C62.9438 87.6025 63.2178 87.7004 63.5701 87.7004Z" fill="#7A7A7A"/>
<path d="M73.4141 86.7411C73.4141 87.4065 73.1792 87.9154 72.6899 88.2872C72.2007 88.6395 71.4961 88.8156 70.5958 88.8156C69.6759 88.8156 68.9518 88.6786 68.4038 88.4046V87.1325C69.2062 87.5044 69.9499 87.6805 70.6545 87.6805C71.5548 87.6805 72.0049 87.4065 72.0049 86.8781C72.0049 86.7019 71.9462 86.5649 71.8484 86.4475C71.7505 86.3301 71.5939 86.2126 71.3591 86.0952C71.1242 85.9778 70.8111 85.8408 70.4197 85.6646C69.6368 85.3515 69.0888 85.0579 68.8148 84.7448C68.5408 84.4316 68.4038 84.0402 68.4038 83.5509C68.4038 82.9638 68.6387 82.5136 69.1084 82.1809C69.5781 81.8482 70.2239 81.6917 71.0459 81.6917C71.8484 81.6917 72.6117 81.8482 73.3358 82.1809L72.8661 83.2769C72.1224 82.9638 71.5157 82.8268 71.0068 82.8268C70.2435 82.8268 69.8521 83.0421 69.8521 83.4922C69.8521 83.7075 69.9499 83.8836 70.1457 84.0402C70.3414 84.1968 70.7915 84.3925 71.4569 84.6469C72.0245 84.8622 72.4355 85.0579 72.6899 85.2536C72.9444 85.4298 73.1401 85.6451 73.2575 85.8799C73.3554 86.1148 73.4141 86.4084 73.4141 86.7411Z" fill="#7A7A7A"/>
<path d="M77.5437 87.6218C77.896 87.6218 78.2483 87.5631 78.6006 87.4457V88.5417C78.444 88.62 78.2287 88.6787 77.9743 88.7178C77.7199 88.757 77.4655 88.7961 77.1915 88.7961C75.8215 88.7961 75.1169 88.072 75.1169 86.6237V82.9247H74.1775V82.2788L75.1756 81.7504L75.6649 80.3021H76.5652V81.8287H78.5223V82.9247H76.5652V86.5845C76.5652 86.9368 76.6435 87.1913 76.8196 87.3674C77.0153 87.5435 77.2502 87.6218 77.5437 87.6218Z" fill="#7A7A7A"/>
<path d="M86.0376 85.2539C86.0376 86.3695 85.744 87.2502 85.1764 87.8765C84.6089 88.5028 83.8064 88.8159 82.7887 88.8159C82.1429 88.8159 81.5753 88.6789 81.086 88.3853C80.5967 88.0918 80.2249 87.6808 79.9509 87.1328C79.6964 86.5848 79.5594 85.9585 79.5594 85.2539C79.5594 84.1383 79.853 83.2772 80.4206 82.6509C80.9882 82.0246 81.7906 81.7115 82.8279 81.7115C83.826 81.7115 84.6089 82.0246 85.1764 82.6705C85.744 83.3163 86.0376 84.1579 86.0376 85.2539ZM81.0664 85.2539C81.0664 86.8392 81.6536 87.6221 82.8279 87.6221C83.9826 87.6221 84.5697 86.8392 84.5697 85.2539C84.5697 83.6882 83.9826 82.9053 82.8279 82.9053C82.2212 82.9053 81.771 83.1011 81.497 83.5121C81.2034 83.9035 81.0664 84.4906 81.0664 85.2539Z" fill="#7A7A7A"/>
<path d="M91.1851 81.7115C91.4787 81.7115 91.7136 81.7311 91.9093 81.7702L91.7723 83.1206C91.557 83.0619 91.3417 83.0423 91.1264 83.0423C90.5393 83.0423 90.0696 83.2381 89.7173 83.6099C89.365 83.9818 89.1693 84.4906 89.1693 85.0973V88.6789H87.721V81.8289H88.8562L89.0519 83.0423H89.1302C89.365 82.6313 89.6586 82.3182 90.0109 82.0638C90.3631 81.8289 90.7741 81.7115 91.1851 81.7115Z" fill="#7A7A7A"/>
<path d="M96.1758 88.8159C95.119 88.8159 94.2774 88.5028 93.6707 87.8765C93.064 87.2502 92.7704 86.4086 92.7704 85.3126C92.7704 84.1971 93.0444 83.3163 93.612 82.6705C94.16 82.0246 94.9428 81.7115 95.9018 81.7115C96.8021 81.7115 97.5262 81.9855 98.0351 82.5335C98.5635 83.0815 98.8179 83.8448 98.8179 84.8038V85.5866H94.2578C94.2774 86.2521 94.4535 86.7609 94.8058 87.1132C95.1385 87.4655 95.6278 87.6416 96.2345 87.6416C96.6455 87.6416 97.0174 87.6025 97.3697 87.5242C97.722 87.4459 98.0938 87.3285 98.4852 87.1523V88.3266C98.1329 88.5028 97.7807 88.6202 97.4088 88.6789C97.0565 88.7768 96.6455 88.8159 96.1758 88.8159ZM95.9018 82.8075C95.4321 82.8075 95.0602 82.9445 94.7862 83.2381C94.5122 83.5316 94.3361 83.9622 94.297 84.5102H97.4088C97.4088 83.9426 97.2718 83.5121 96.9978 83.2185C96.7238 82.9641 96.3715 82.8075 95.9018 82.8075Z" fill="#7A7A7A"/>
</svg>
