<svg xmlns="http://www.w3.org/2000/svg" width="100" height="100" fill="none"><path fill="#373535" d="M12.462 72.715c.835 0 1.595.19 2.012.573.076.612-.493 1.606-.835 1.606a3.5 3.5 0 0 0-1.29-.23c-1.974 0-2.999 2.065-2.999 4.13 0 1.262.418 2.027 1.442 2.027 1.063 0 2.126-.727 2.771-1.262.152.115.342.459.342.841 0 .42-.114.841-.532 1.262-.683.688-1.86 1.3-3.605 1.3-1.936 0-3.34-1.109-3.34-3.747.113-3.403 2.353-6.5 6.034-6.5M18.915 80.744c1.063 0 3.036-1.873 3.568-5.506.037-.23.037-.267.075-.497a3 3 0 0 0-.872-.153c-.798 0-1.633.23-2.354 1.262-.759 1.07-1.1 2.409-1.1 3.518-.076.84.227 1.376.683 1.376m-3.53-1.032c0-1.3.418-3.556 2.05-5.2 1.404-1.453 3.112-1.797 4.668-1.797 1.025 0 2.391.344 3.302.497-.228.956-.721 4.626-.987 6.73-.114.879-.152 2.14-.114 2.637-.72.306-2.05.383-2.429.383-.19 0-.227-.88-.19-1.759.038-.268.076-.688.076-.88-.835 1.415-2.543 2.639-4.288 2.639-1.291 0-2.088-1.07-2.088-3.25M30.833 72.715c.873 0 1.746.344 2.125.726-.038.612-.493 1.644-1.252 1.338a3.2 3.2 0 0 0-1.101-.19c-.57 0-1.1.267-1.1.802 0 .42.303.727 1.745 1.759 1.025.765 1.443 1.453 1.443 2.409 0 1.606-1.48 3.365-4.138 3.365-1.062 0-2.011-.421-2.277-.842-.38-.65-.076-1.95.342-1.72.569.267 1.48.573 2.239.573.721 0 1.177-.344 1.177-.764 0-.383-.342-.689-1.632-1.645-1.101-.84-1.443-1.605-1.443-2.447 0-1.873 1.594-3.364 3.872-3.364M38.386 72.715c.873 0 1.746.344 2.125.726-.038.612-.493 1.644-1.252 1.338a3.2 3.2 0 0 0-1.101-.19c-.57 0-1.1.267-1.1.802 0 .42.303.727 1.745 1.759 1.025.765 1.443 1.453 1.443 2.409 0 1.606-1.48 3.365-4.138 3.365-1.062 0-1.973-.421-2.277-.842-.38-.65-.076-1.95.342-1.72.569.267 1.48.573 2.24.573.72 0 1.176-.344 1.176-.764 0-.383-.342-.689-1.632-1.645-1.101-.84-1.443-1.605-1.443-2.447 0-1.873 1.556-3.364 3.872-3.364M45.218 80.744c1.062 0 3.036-1.873 3.567-5.506.038-.23.038-.267.076-.497a3 3 0 0 0-.873-.153c-.797 0-1.632.23-2.353 1.262-.759 1.07-1.1 2.409-1.1 3.518 0 .84.227 1.376.683 1.376m-3.53-1.032c0-1.3.417-3.556 2.05-5.2 1.404-1.453 3.112-1.797 4.668-1.797 1.025 0 2.391.344 3.302.497-.228.956-.721 4.626-.987 6.73-.114.879-.152 2.14-.114 2.637-.72.306-2.05.383-2.429.383-.19 0-.228-.88-.19-1.759.038-.268.076-.688.076-.88-.835 1.415-2.543 2.639-4.289 2.639-1.252 0-2.087-1.07-2.087-3.25M56.642 75.582c.987-1.605 2.277-2.867 4.137-2.867 1.556 0 2.05 1.453 1.746 3.517-.152.956-.417 2.333-.57 3.633-.151 1.07-.265 2.026-.227 2.715-.57.267-2.201.382-2.619.382-.152 0-.19-1.186.038-2.447.19-1.033.532-2.983.721-4.091.114-.65.076-1.415-.531-1.415-.797 0-2.733 1.3-3.682 6.615-.076.42-.227.688-.493.84-.342.192-1.025.383-2.43.383.266-1.338.684-4.091.988-6.117.265-1.836.38-3.06.341-3.518.38-.115 2.315-.535 2.543-.535s.266.688.076 2.294c-.038.153-.038.382-.076.535h.038zM67.725 80.706c.949 0 2.922-1.797 3.454-5.009.038-.191.076-.497.114-.688-.266-.268-.646-.42-1.253-.42-2.201 0-3.188 2.676-3.188 4.588.038.955.38 1.529.873 1.529m-1.404 2.256c-1.405 0-2.24-1.262-2.24-3.403 0-3.556 2.202-6.806 5.921-6.806.645 0 1.253.191 1.594.382.19-.994.646-4.13.684-5.047.607-.114 1.897-.306 2.543-.306.227 0 .303.23.227.803a778 778 0 0 0-1.632 11.012c-.114 1.185-.152 2.332-.114 3.02-.683.306-2.087.383-2.505.383-.152 0-.227-.994-.19-1.912.038-.267.077-.688.077-.764-1.177 1.758-2.695 2.638-4.365 2.638M79.112 75.888c1.138-2.6 2.543-3.173 3.453-3.173.266 0 .722.19.911.382.076.727-.493 2.141-.986 2.753-.266-.115-.57-.268-.95-.268-.72 0-2.2 1.148-3.15 6.156-.076.42-.19.574-.417.689-.38.229-1.822.382-2.543.42.341-1.797.873-5.468 1.1-7.647.076-.535.076-1.568.038-1.95.418-.191 2.05-.573 2.392-.573.19 0 .341 1.185.038 3.173h.076v.038zM86.778 80.744c1.063 0 3.037-1.873 3.568-5.506.038-.23.038-.267.076-.497a3 3 0 0 0-.873-.153c-.797 0-1.632.23-2.353 1.262-.76 1.07-1.1 2.409-1.1 3.518 0 .84.227 1.376.682 1.376m-3.491-1.032c0-1.3.417-3.556 2.05-5.2 1.403-1.453 3.111-1.797 4.668-1.797 1.024 0 2.39.344 3.302.497-.228.956-.721 4.626-.987 6.73-.114.879-.152 2.14-.114 2.637-.721.306-2.05.383-2.43.383-.189 0-.227-.88-.189-1.759.038-.268.076-.688.076-.88-.835 1.415-2.543 2.639-4.289 2.639-1.252 0-2.087-1.07-2.087-3.25"/><path fill="#BBE6FB" d="M79.263 35.435c.721 8.45-12.487 16.48-29.49 17.97C32.767 54.86 18.42 49.2 17.7 40.75c-.72-8.45 12.488-16.48 29.491-17.97 16.966-1.415 31.351 4.205 32.072 12.655"/><path fill="#fff" d="M47.609 23.774c-6.49-.115-14.081 2.523-19.737 4.932a16.9 16.9 0 0 0-.91 5.391c0 10.018 8.995 18.162 20.077 18.162s20.117-8.106 20.117-18.162c0-3.174-.911-6.156-2.505-8.756-4.48-.688-10.704-1.453-17.042-1.568"/><path fill="#fff" d="M47.077 23.774c-3.605-.23-9.792 1.644-14.954 3.555-.797 1.836-1.214 3.9-1.214 6.042 0 8.794 7.932 15.905 16.244 15.905 8.313 0 15.638-7.111 16.245-15.905.19-2.868-.759-5.545-2.125-7.877-5.314-.918-10.97-1.491-14.196-1.72"/><path fill="#373535" d="M37.854 32.262c.456-.994 1.101-1.453 1.746-2.256-.076-.191-.227-.841-.227-1.032 0-.995.797-1.76 1.745-1.76.228 0 .456.039.646.115 2.96-2.255 6.794-3.25 10.703-2.332.342.077.683.191 1.025.268-3.834-.536-8.198.84-11.121 3.25.076.23.342.803.342 1.07 0 .994-.646 1.224-1.595 1.224-.227 0-.417-.038-.645-.115-.645.88-1.48 2.638-1.86 3.709 1.633 1.453 3.113 1.988 5.01 2.753 0-.077.076-.191.076-.268 0-2.982 2.62-5.39 5.542-5.39a5.326 5.326 0 0 1 5.276 4.473c1.328-.842 2.618-1.492 3.567-2.753-.227-.268-.455-1.07-.455-1.453 0-.88.721-1.606 1.594-1.606.114 0 .228 0 .38.038a13.7 13.7 0 0 0 1.1-3.25c-4.63-3.48-13.588-2.982-13.588-2.982s-7.097-.383-11.918 1.988c.38 2.18 1.291 4.397 2.657 6.309"/><path fill="#373535" d="M59.982 30.924c.342.306.494.535.645.803.418.764-.417 1.49-1.328 1.49-.076 0-.19 0-.266-.038-.986 1.568-2.77 3.595-4.327 4.627 2.392.382 4.669 1.338 6.415 2.868 1.29-2.333 2.277-5.774 2.277-8.68 0-2.18-.949-3.823-2.391-5.009-.038 1.186-.683 2.83-1.025 3.939M40.55 45.874c.796-2.218 2.77-3.939 4.63-5.43-.266-.382-.684-1.3-.835-1.72a13 13 0 0 1-5.807-3.71c0 .039-.038.115-.038.154-.304 1.3-.342 2.676-.19 3.938a2.336 2.336 0 0 1 1.898 2.294c0 .688-.608 1.644-1.063 2.103.455.994.797 1.53 1.404 2.37"/><path fill="#373535" d="M40.397 47.709c-.948-.956-1.594-2.868-2.201-4.053-.114 0-.228.038-.342.038-1.29 0-2.657-1.07-2.315-2.332.152-.689.645-1.147 1.404-1.53-.19-1.453-.227-3.517.114-5.008.076-.421.304-.612.418-1.033-1.404-2.064-2.315-4.856-2.315-7.609v-.305c-2.392 1.223-4.213 3.135-4.213 6.117 0 6.653 3.833 13.23 9.488 15.753v-.038M54.365 38.494c-.721 2.065-2.733 3.633-5.048 3.633a5.25 5.25 0 0 1-3.302-1.148c-1.86 1.453-3.606 4.053-4.441 6.31.38.42.645.764 1.1 1.146 1.291.344 3.15 0 4.555 0 5.694 0 10.78-2.561 13.702-7.035-1.974-1.415-4.289-2.715-6.566-2.906"/><path fill="#1287B1" d="M37.703 33.026c.455-.994.986-1.873 1.632-2.753a1.748 1.748 0 0 1 1.632-2.37c.227 0 .455.038.645.115 2.96-2.256 6.794-3.25 10.703-2.333.342.077.683.191 1.025.268-3.833-.535-7.819.65-10.741 3.059.076.23.152.459.152.688 0 .994-.797 1.759-1.746 1.759-.228 0-.418-.038-.646-.115-.645.88-1.214 1.874-1.594 2.982 1.405 1.492 3.15 2.753 5.048 3.442V37.5c0-2.982 2.392-5.391 5.352-5.391a5.326 5.326 0 0 1 5.276 4.473 13.3 13.3 0 0 0 3.492-3.212 1.54 1.54 0 0 1-.38-.994c0-.879.721-1.605 1.594-1.605.114 0 .228 0 .38.038a13.7 13.7 0 0 0 1.1-3.25c-4.63-3.48-13.588-2.983-13.588-2.983s-7.097-.382-11.917 1.989a14.16 14.16 0 0 0 2.58 6.461"/><path fill="#1287B1" d="M60.21 31.191c.341.306.531.727.531 1.186a1.61 1.61 0 0 1-1.594 1.605c-.076 0-.19 0-.265-.038-.987 1.568-2.316 2.944-3.91 3.938a12.57 12.57 0 0 1 6.263 2.868 16.55 16.55 0 0 0 2.05-7.991c0-2.18-.95-3.824-2.392-5.009a13.2 13.2 0 0 1-.683 3.441M40.777 46.37c.797-2.217 2.163-4.205 4.061-5.696-.266-.383-.493-.765-.645-1.224a13 13 0 0 1-5.807-3.709c0 .038-.038.115-.038.153-.304 1.3-.342 2.677-.19 3.938a2.336 2.336 0 0 1 1.898 2.294c0 .689-.304 1.3-.76 1.721.38.88.912 1.759 1.48 2.524"/><path fill="#1287B1" d="M40.397 47.67a12.5 12.5 0 0 1-2.353-3.25c-.114 0-.228.039-.341.039a2.31 2.31 0 0 1-2.316-2.333c0-.917.532-1.72 1.29-2.102a12.5 12.5 0 0 1 .229-4.436c.075-.42.227-.84.341-1.261a13.1 13.1 0 0 1-2.24-7.342v-.306c-2.39 1.224-4.212 3.136-4.212 6.118a16.4 16.4 0 0 0 9.602 14.95zM54.213 39.259c-.721 2.065-2.733 3.632-5.048 3.632a5.25 5.25 0 0 1-3.302-1.147c-1.86 1.453-3.302 3.48-4.175 5.735.38.421.797.803 1.214 1.186 1.29.344 2.695.535 4.1.535 5.693 0 10.74-2.982 13.663-7.456-1.897-1.415-4.175-2.294-6.452-2.485"/><path fill="#fff" d="m54.403 37.882 4.934-1.185-4.972-.268 4.061-3.097-4.593 1.644 3.113-4.358-4.327 2.906 1.48-5.086-2.96 4.206-.076-5.315-1.936 4.742-1.594-4.78.076 5.62-2.809-5.046 1.518 5.353-4.554-3.327 3.567 4.512-5.655-2.065 4.441 3.327-5.693.19 5.845 1.492-5.845 1.262 5.769.42-4.858 3.136 5.01-1.797-3.492 4.397 4.403-3.595-1.556 5.927 3.415-4.856-.455 5.697 1.898-5.2 1.632 5.43.38-5.468 2.428 4.665-1.442-5.277 4.44 3.48-2.884-4.436 4.896 1.912-3.757-3.709 5.01.383z"/><path fill="#373535" fill-opacity=".35" d="M1.721 47.403c15.334-15.447 27.594-20.226 38.714-22.368 1.443-.267 1.746-3.556 1.746-3.556s.19 2.371 1.215 2.715c1.025.306 2.353-3.747 2.353-3.747s-1.215 3.632 0 3.862c1.215.191 3.53-3.556 3.53-3.556s-.911 3.212-.304 3.441c.608.191 3.72-4.665 3.72-4.665s-1.822 3.212-.114 3.556c1.746.306 4.327-2.18 4.327-2.18s-1.974 2.257-1.1 2.64c3.833 1.337 6.869-3.633 6.869-3.633s-.721 2.18-2.581 4.588c4.023 1.032 6.984-5.047 6.984-5.047l-2.999 6.08c1.519.764 7.705-6.386 7.705-6.386s-3.188 5.582-5.048 6.73c1.025.84 4.745-2.524 4.745-2.524s-2.999 3.747-1.822 3.938c1.67 1.3 7.742-6.997 7.742-6.997s-2.353 4.894-5.845 8.718c2.923 1.491 10.172-7.953 10.172-7.953s-.19 3.02-5.465 7.8c3.91-.497 8.957-7.991 8.957-7.991S83.4 26.45 78.96 30.427c3.833-.383 9.982-9.942 9.982-9.942s-2.353 6.615-7.174 10.477c5.352 1.185 13.095-6.844 13.095-6.844s-3.037 5.697-6.984 8.067c4.44 1.683 10.514-5.353 10.514-5.353s-6.073 9.444-15.752 9.024c-3.188-.153-12.79-9.712-33.362-8.947-27.29.994-33.021 12.618-47.558 20.494"/><path fill="#373535" d="M2.328 46.256c15.334-15.447 27.594-20.227 38.715-22.368 1.442-.267 1.745-3.556 1.745-3.556s.19 2.37 1.215 2.715c1.025.306 2.353-3.747 2.353-3.747s-1.214 3.632 0 3.862c1.215.19 3.53-3.556 3.53-3.556s-.91 3.212-.303 3.441c.607.191 3.72-4.665 3.72-4.665s-1.823 3.212-.115 3.556c1.746.306 4.327-2.18 4.327-2.18s-1.974 2.257-1.1 2.64c3.833 1.337 6.87-3.633 6.87-3.633s-.722 2.18-2.582 4.588c4.024 1.032 6.984-5.047 6.984-5.047l-2.922 6.003C66.283 25.15 72.468 18 72.468 18s-3.15 5.582-5.048 6.73c1.025.726 4.745-2.6 4.745-2.6s-2.999 3.747-1.822 3.938c1.632 1.376 7.743-6.92 7.743-6.92s-2.391 4.893-5.883 8.717c2.922 1.453 10.21-7.991 10.21-7.991s-.19 3.02-5.466 7.8c3.91-.497 8.958-7.992 8.958-7.992s-1.822 5.583-6.263 9.56c3.833-.383 9.982-9.942 9.982-9.942s-2.353 6.615-7.173 10.476c5.351 1.186 13.094-6.844 13.094-6.844S92.51 28.63 88.562 31c4.441 1.682 10.514-5.353 10.514-5.353s-6.073 9.444-15.751 9.024c-3.189-.153-12.791-9.712-33.363-8.947C22.634 26.756 16.865 38.34 2.328 46.256"/><path fill="#373535" fill-opacity=".35" d="M1.342 49.085c8.122 4.091 15.523-.611 24.86 2.027C33.3 53.1 41.953 55.624 53.72 53.903c11.728-1.682 21.748-6.844 26.568-16.02 1.48-4.092 7.591.917 7.591.917s-4.44-1.835-4.327-.994c.114.88 6.642 3.938 6.642 3.938s-5.92-1.835-5.541-.459c.342 1.377 7.401 6.997 7.401 6.997s-8.084-6.079-8.73-5.238c-.683.841 3.416 4.206 3.416 4.206s-6.718-4.206-9.109-2.982c-1.708.88 6.984 6.614 6.984 6.614s-5.655-4.358-6.984-3.211 6.377 10.476 6.377 10.476-8.806-9.559-9.679-9.1 2.391 5.047 2.391 5.047-4.25-4.741-5.427-3.938c-1.177.841 6.186 13.23 6.186 13.23S69.472 50.69 66.17 52.831c5.162 11.433 3.264 13.077 3.264 13.077s-.645-11.662-7.098-11.356c-3.264.153 1.519 8.718 1.519 8.718s-4.403-7.877-7.364-7.686c5.39 10.324 3.492 14.491 3.492 14.491s.873-8.832-6.414-13.726c2.809 2.524-1.746 13.726-1.746 13.726s3.985-16.517-2.96-13.382c-1.101.497-.077 8.259-.077 8.259s-1.366-8.87-3.491-8.412c-1.215.268-7.743 12.274-7.743 12.274s5.313-13 3.72-12.427c-1.177.383-3.417 5.736-3.417 5.736s1.063-5.277 0-5.583-7.097 5.583-7.097 5.583 4.479-5.277 3.72-6.386c-1.177-1.644-2.544-1.72-4.176-1.07-2.353.917-5.541 5.276-5.541 5.276s3.188-4.435 2.657-6.041c-.873-2.676-10.02 5.124-10.02 5.124s5.39-5.124 4.175-6.233c-1.215-1.07-7.97-.764-10.02-.764-6.187.038-8.35-1.415-10.21-2.945"/><path fill="#373535" d="M1 48.168c8.122 4.09 15.524-.612 24.86 2.026 7.098 2.027 15.752 4.512 27.518 2.791 11.728-1.682 21.748-6.844 26.569-16.02 1.48-4.092 7.59.917 7.59.917s-4.44-1.835-4.326-.994c.114.88 6.642 3.938 6.642 3.938s-5.921-1.835-5.542-.458c.342 1.376 7.402 6.997 7.402 6.997s-7.97-6.118-8.616-5.277 3.416 4.206 3.416 4.206-6.718-4.206-9.11-2.982c-1.707.88 6.984 6.614 6.984 6.614s-5.655-4.358-6.983-3.211C76.075 47.862 83.78 57.19 83.78 57.19s-8.768-9.559-9.64-9.1c-.874.497 2.39 5.085 2.39 5.085s-4.364-4.74-5.54-3.938c-1.177.841 6.148 13.23 6.148 13.23s-7.97-12.733-11.273-10.592c5.2 11.471 3.264 13.115 3.264 13.115s-.645-11.662-7.097-11.356c-3.264.153 1.518 8.718 1.518 8.718s-4.365-7.8-7.287-7.647c5.39 10.323 3.491 14.491 3.491 14.491s.873-8.832-6.414-13.726c2.809 2.523-1.746 13.726-1.746 13.726s3.985-16.518-2.96-13.382c-1.101.497-.076 8.258-.076 8.258s-1.367-8.87-3.492-8.411c-1.215.267-7.743 12.273-7.743 12.273s5.314-13 3.72-12.426c-1.177.382-3.416 5.735-3.416 5.735s1.062-5.276 0-5.582-7.098 5.582-7.098 5.582 4.479-5.276 3.72-6.385c-1.177-1.644-2.543-1.72-4.175-1.07-2.354.917-5.542 5.276-5.542 5.276s3.188-4.436 2.657-6.041c-.873-2.677-10.02 5.123-10.02 5.123s5.39-5.123 4.175-6.232c-1.215-1.07-7.97-.765-10.02-.765-6.3 0-8.464-1.491-10.324-2.982"/></svg>