<svg width="100" height="100" viewBox="0 0 100 100" fill="none" xmlns="http://www.w3.org/2000/svg">
<path d="M12.4624 72.7147C13.2974 72.7147 14.0565 72.9059 14.474 73.2883C14.5499 73.9 13.9806 74.8941 13.639 74.8941C13.2215 74.7412 12.842 74.6647 12.3485 74.6647C10.3749 74.6647 9.35009 76.7294 9.35009 78.7941C9.35009 80.0559 9.7676 80.8206 10.7924 80.8206C11.8551 80.8206 12.9179 80.0941 13.5631 79.5588C13.7149 79.6735 13.9047 80.0177 13.9047 80.4C13.9047 80.8206 13.7908 81.2412 13.3733 81.6618C12.6901 82.35 11.5135 82.9618 9.7676 82.9618C7.83189 82.9618 6.42755 81.853 6.42755 79.2147C6.54142 75.8118 8.78077 72.7147 12.4624 72.7147Z" fill="#373535"/>
<path d="M18.9148 80.7441C19.9775 80.7441 21.9512 78.8706 22.4825 75.2383C22.5205 75.0088 22.5205 74.9706 22.5585 74.7412C22.3307 74.6647 21.9891 74.5883 21.6855 74.5883C20.8884 74.5883 20.0534 74.8177 19.3323 75.85C18.5732 76.9206 18.2316 78.2588 18.2316 79.3677C18.1557 80.2088 18.4593 80.7441 18.9148 80.7441ZM15.3849 79.7118C15.3849 78.4118 15.8025 76.1559 17.4345 74.5118C18.8389 73.0588 20.5468 72.7147 22.103 72.7147C23.1278 72.7147 24.4942 73.0588 25.4051 73.2118C25.1774 74.1677 24.6839 77.8383 24.4183 79.9412C24.3044 80.8206 24.2664 82.0824 24.3044 82.5794C23.5832 82.8853 22.2548 82.9618 21.8753 82.9618C21.6855 82.9618 21.6475 82.0824 21.6855 81.203C21.7234 80.9353 21.7614 80.5147 21.7614 80.3235C20.9264 81.7383 19.2184 82.9618 17.4725 82.9618C16.182 82.9618 15.3849 81.8912 15.3849 79.7118Z" fill="#373535"/>
<path d="M30.8327 72.7147C31.7056 72.7147 32.5786 73.0588 32.9582 73.4412C32.9202 74.053 32.4647 75.0853 31.7056 74.7794C31.364 74.6647 31.0604 74.5883 30.6049 74.5883C30.0356 74.5883 29.5042 74.8559 29.5042 75.3912C29.5042 75.8118 29.8079 76.1177 31.2502 77.15C32.275 77.9147 32.6925 78.603 32.6925 79.5588C32.6925 81.1647 31.2122 82.9235 28.5554 82.9235C27.4926 82.9235 26.5438 82.503 26.2781 82.0824C25.8985 81.4324 26.2022 80.1324 26.6197 80.3618C27.189 80.6294 28.0999 80.9353 28.859 80.9353C29.5802 80.9353 30.0356 80.5912 30.0356 80.1706C30.0356 79.7883 29.694 79.4824 28.4036 78.5265C27.3029 77.6853 26.9613 76.9206 26.9613 76.0794C26.9613 74.2059 28.5554 72.7147 30.8327 72.7147Z" fill="#373535"/>
<path d="M38.3857 72.7147C39.2587 72.7147 40.1316 73.0588 40.5112 73.4412C40.4732 74.053 40.0178 75.0853 39.2587 74.7794C38.9171 74.6647 38.6134 74.5883 38.158 74.5883C37.5887 74.5883 37.0573 74.8559 37.0573 75.3912C37.0573 75.8118 37.3609 76.1177 38.8032 77.15C39.828 77.9147 40.2455 78.603 40.2455 79.5588C40.2455 81.1647 38.7653 82.9235 36.1084 82.9235C35.0457 82.9235 34.1347 82.503 33.8311 82.0824C33.4516 81.4324 33.7552 80.1324 34.1727 80.3618C34.742 80.6294 35.653 80.9353 36.4121 80.9353C37.1332 80.9353 37.5887 80.5912 37.5887 80.1706C37.5887 79.7883 37.2471 79.4824 35.9566 78.5265C34.8559 77.6853 34.5143 76.9206 34.5143 76.0794C34.5143 74.2059 36.0705 72.7147 38.3857 72.7147Z" fill="#373535"/>
<path d="M45.2176 80.7441C46.2804 80.7441 48.254 78.8706 48.7854 75.2383C48.8234 75.0088 48.8234 74.9706 48.8613 74.7412C48.6336 74.6647 48.292 74.5883 47.9883 74.5883C47.1913 74.5883 46.3563 74.8177 45.6351 75.85C44.876 76.9206 44.5344 78.2588 44.5344 79.3677C44.5344 80.2088 44.7622 80.7441 45.2176 80.7441ZM41.6878 79.7118C41.6878 78.4118 42.1053 76.1559 43.7374 74.5118C45.1417 73.0588 46.8497 72.7147 48.4059 72.7147C49.4306 72.7147 50.797 73.0588 51.7079 73.2118C51.4802 74.1677 50.9868 77.8383 50.7211 79.9412C50.6072 80.8206 50.5693 82.0824 50.6072 82.5794C49.8861 82.8853 48.5577 82.9618 48.1781 82.9618C47.9883 82.9618 47.9504 82.0824 47.9883 81.203C48.0263 80.9353 48.0643 80.5147 48.0643 80.3235C47.2292 81.7383 45.5213 82.9618 43.7753 82.9618C42.5228 82.9618 41.6878 81.8912 41.6878 79.7118Z" fill="#373535"/>
<path d="M56.6421 75.5824C57.6289 73.9765 58.9194 72.7147 60.7792 72.7147C62.3354 72.7147 62.8288 74.1677 62.5251 76.2324C62.3733 77.1883 62.1076 78.5647 61.9558 79.8647C61.804 80.9353 61.6901 81.8912 61.7281 82.5795C61.1588 82.8471 59.5267 82.9618 59.1092 82.9618C58.9574 82.9618 58.9194 81.7765 59.1471 80.5147C59.3369 79.4824 59.6785 77.5324 59.8683 76.4236C59.9821 75.7736 59.9442 75.0089 59.3369 75.0089C58.5399 75.0089 56.6041 76.3089 55.6553 81.6236C55.5794 82.0442 55.4275 82.3118 55.1618 82.4647C54.8203 82.6559 54.1371 82.8471 52.7327 82.8471C52.9984 81.5089 53.4159 78.7559 53.7196 76.7295C53.9852 74.8942 54.0991 73.6706 54.0612 73.2118C54.4407 73.0971 56.3764 72.6765 56.6041 72.6765C56.8319 72.6765 56.8698 73.3647 56.6801 74.9706C56.6421 75.1236 56.6421 75.353 56.6041 75.5059H56.6421V75.5824Z" fill="#373535"/>
<path d="M67.725 80.7059C68.6739 80.7059 70.6475 78.9088 71.1789 75.6971C71.2169 75.5059 71.2548 75.2 71.2928 75.0088C71.0271 74.7412 70.6475 74.5882 70.0402 74.5882C67.8389 74.5882 66.852 77.2647 66.852 79.1765C66.89 80.1323 67.2316 80.7059 67.725 80.7059ZM66.3207 82.9618C64.9163 82.9618 64.0813 81.7 64.0813 79.5588C64.0813 76.0029 66.2827 72.7529 70.0023 72.7529C70.6475 72.7529 71.2548 72.9441 71.5964 73.1353C71.7862 72.1412 72.2416 69.0059 72.2796 68.0882C72.8869 67.9735 74.1774 67.7823 74.8226 67.7823C75.0503 67.7823 75.1262 68.0118 75.0503 68.5853C74.5189 71.9118 73.608 78.2206 73.4183 79.5971C73.3044 80.7823 73.2664 81.9294 73.3044 82.6176C72.6212 82.9235 71.2169 83 70.7993 83C70.6475 83 70.5716 82.0059 70.6096 81.0882C70.6475 80.8206 70.6855 80.4 70.6855 80.3235C69.5089 82.0823 67.9907 82.9618 66.3207 82.9618Z" fill="#373535"/>
<path d="M79.1115 75.8883C80.2502 73.2883 81.6545 72.7147 82.5654 72.7147C82.8311 72.7147 83.2866 72.9059 83.4763 73.0971C83.5523 73.8236 82.9829 75.2383 82.4895 75.85C82.2238 75.7353 81.9202 75.5824 81.5406 75.5824C80.8195 75.5824 79.3392 76.7295 78.3904 81.7383C78.3145 82.1589 78.2006 82.3118 77.9729 82.4265C77.5933 82.6559 76.151 82.8089 75.4299 82.8471C75.7715 81.05 76.3028 77.3795 76.5306 75.2C76.6065 74.6647 76.6065 73.6324 76.5685 73.25C76.986 73.0589 78.6181 72.6765 78.9597 72.6765C79.1495 72.6765 79.3013 73.8618 78.9976 75.85H79.0736V75.8883H79.1115Z" fill="#373535"/>
<path d="M86.7784 80.7441C87.8412 80.7441 89.8148 78.8706 90.3462 75.2383C90.3842 75.0088 90.3842 74.9706 90.4221 74.7412C90.1944 74.6647 89.8528 74.5883 89.5491 74.5883C88.7521 74.5883 87.9171 74.8177 87.1959 75.85C86.4368 76.9206 86.0952 78.2588 86.0952 79.3677C86.0952 80.2088 86.323 80.7441 86.7784 80.7441ZM83.2866 79.7118C83.2866 78.4118 83.7041 76.1559 85.3361 74.5118C86.7405 73.0588 88.4484 72.7147 90.0046 72.7147C91.0294 72.7147 92.3958 73.0588 93.3067 73.2118C93.079 74.1677 92.5856 77.8383 92.3199 79.9412C92.206 80.8206 92.168 82.0824 92.206 82.5794C91.4849 82.8853 90.1564 82.9618 89.7769 82.9618C89.5871 82.9618 89.5491 82.0824 89.5871 81.203C89.6251 80.9353 89.663 80.5147 89.663 80.3235C88.828 81.7383 87.12 82.9618 85.3741 82.9618C84.1216 82.9618 83.2866 81.8912 83.2866 79.7118Z" fill="#373535"/>
<path d="M79.2634 35.4352C79.9845 43.8852 66.7761 51.9147 49.7723 53.4058C32.7684 54.8588 18.4214 49.2 17.7002 40.75C16.9791 32.3 30.1875 24.2705 47.1913 22.7794C64.1572 21.3647 78.5422 26.9852 79.2634 35.4352Z" fill="#BBE6FB"/>
<path d="M47.6088 23.7735C41.1185 23.6588 33.5275 26.297 27.8722 28.7059C27.3028 30.3882 26.9612 32.2235 26.9612 34.097C26.9612 44.1147 35.9566 52.2588 47.0395 52.2588C58.1224 52.2588 67.1557 44.1529 67.1557 34.097C67.1557 30.9235 66.2447 27.9412 64.6506 25.3412C60.1719 24.6529 53.9473 23.8882 47.6088 23.7735Z" fill="white"/>
<path d="M47.0774 23.7735C43.4717 23.5441 37.285 25.4176 32.1231 27.3294C31.3261 29.1647 30.9086 31.2294 30.9086 33.3706C30.9086 42.1647 38.8412 49.2765 47.1533 49.2765C55.4655 49.2765 62.7908 42.1647 63.3981 33.3706C63.5879 30.5029 62.639 27.8265 61.2726 25.4941C55.9589 24.5765 50.3036 24.0029 47.0774 23.7735Z" fill="white"/>
<path d="M37.8544 32.2618C38.3098 31.2677 38.9551 30.8088 39.6003 30.0059C39.5244 29.8147 39.3726 29.1647 39.3726 28.9736C39.3726 27.9794 40.1696 27.2147 41.1185 27.2147C41.3462 27.2147 41.574 27.253 41.7637 27.3294C44.7242 25.0736 48.5577 24.0794 52.4671 24.9971C52.8087 25.0736 53.1503 25.1883 53.4919 25.2647C49.6584 24.7294 45.2936 26.1059 42.371 28.5147C42.4469 28.7441 42.7126 29.3177 42.7126 29.5853C42.7126 30.5794 42.0674 30.8088 41.1185 30.8088C40.8908 30.8088 40.701 30.7706 40.4733 30.6941C39.828 31.5736 38.993 33.3324 38.6135 34.403C40.2455 35.8559 41.7258 36.3912 43.6235 37.1559C43.6235 37.0794 43.6994 36.9647 43.6994 36.8883C43.6994 33.9059 46.3183 31.4971 49.2409 31.4971C51.8977 31.4971 54.0991 33.4088 54.5166 35.9706C55.8451 35.1294 57.1355 34.4794 58.0844 33.2177C57.8567 32.95 57.629 32.1471 57.629 31.7647C57.629 30.8853 58.3501 30.1588 59.2231 30.1588C59.3369 30.1588 59.4508 30.1588 59.6026 30.1971C60.096 29.1647 60.4756 28.0941 60.7033 26.9471C56.0728 23.4677 47.1154 23.9647 47.1154 23.9647C47.1154 23.9647 40.0178 23.5824 35.1975 25.953C35.5771 28.1324 36.488 30.35 37.8544 32.2618Z" fill="#373535"/>
<path d="M59.9822 30.9236C60.3238 31.2295 60.4756 31.4589 60.6274 31.7265C61.0449 32.4912 60.2099 33.2177 59.299 33.2177C59.2231 33.2177 59.1092 33.2177 59.0333 33.1795C58.0465 34.7471 56.2626 36.7736 54.7064 37.8059C57.0976 38.1883 59.3749 39.1442 61.1208 40.6736C62.4113 38.3412 63.3981 34.9001 63.3981 31.9942C63.3981 29.8148 62.4493 28.1706 61.007 26.9854C60.969 28.1706 60.3238 29.8148 59.9822 30.9236Z" fill="#373535"/>
<path d="M40.5492 45.8735C41.3462 43.6558 43.3199 41.9352 45.1797 40.4441C44.914 40.0617 44.4965 39.1441 44.3447 38.7235C42.1053 38.0352 40.0937 36.7352 38.5376 35.0146C38.5376 35.0529 38.4996 35.1294 38.4996 35.1676C38.196 36.4676 38.158 37.8441 38.3098 39.1058C39.3726 39.297 40.2076 40.2529 40.2076 41.3999C40.2076 42.0882 39.6003 43.0441 39.1448 43.5029C39.6003 44.497 39.9419 45.0323 40.5492 45.8735Z" fill="#373535"/>
<path d="M40.3973 47.7088C39.4485 46.7529 38.8032 44.8412 38.196 43.6559C38.0821 43.6559 37.9682 43.6941 37.8544 43.6941C36.5639 43.6941 35.1975 42.6235 35.5391 41.3618C35.6909 40.6735 36.1843 40.2147 36.9434 39.8323C36.7537 38.3794 36.7157 36.3147 37.0573 34.8235C37.1332 34.4029 37.3609 34.2118 37.4748 33.7912C36.0705 31.7265 35.1595 28.9353 35.1595 26.1823V25.8765C32.7684 27.1 30.9465 29.0118 30.9465 31.9941C30.9465 38.6471 34.78 45.2235 40.4353 47.7471V47.7088" fill="#373535"/>
<path d="M54.3648 38.4941C53.6437 40.5588 51.6321 42.1265 49.3168 42.1265C48.0643 42.1265 46.9256 41.7059 46.0147 40.9794C44.1549 42.4324 42.409 45.0324 41.574 47.2883C41.9535 47.7088 42.2192 48.053 42.6747 48.4353C43.9651 48.7794 45.8249 48.4353 47.2293 48.4353C52.9225 48.4353 58.0085 45.8736 60.9311 41.4C58.9574 39.9853 56.6421 38.6853 54.3648 38.4941Z" fill="#373535"/>
<path d="M37.7025 33.0264C38.158 32.0323 38.6894 31.1529 39.3346 30.2735C39.2587 30.0823 39.2207 29.8529 39.2207 29.6617C39.2207 28.6676 40.0178 27.9029 40.9667 27.9029C41.1944 27.9029 41.4221 27.9411 41.6119 28.0176C44.5724 25.7617 48.4059 24.7676 52.3152 25.6852C52.6568 25.7617 52.9984 25.8764 53.34 25.9529C49.5066 25.4176 45.5213 26.6029 42.5987 29.0117C42.6746 29.2411 42.7506 29.4705 42.7506 29.7C42.7506 30.6941 41.9535 31.4588 41.0046 31.4588C40.7769 31.4588 40.5871 31.4205 40.3594 31.3441C39.7141 32.2235 39.1448 33.2176 38.7653 34.3264C40.1696 35.8176 41.9155 37.0794 43.8133 37.7676V37.5C43.8133 34.5176 46.2045 32.1088 49.165 32.1088C51.8218 32.1088 54.0232 34.0205 54.4407 36.5823C55.7691 35.7411 56.9457 34.6705 57.9326 33.3705C57.7049 33.1029 57.553 32.7588 57.553 32.3764C57.553 31.497 58.2742 30.7705 59.1471 30.7705C59.261 30.7705 59.3749 30.7705 59.5267 30.8088C60.0201 29.7764 60.3997 28.7058 60.6274 27.5588C55.9969 24.0794 47.0395 24.5764 47.0395 24.5764C47.0395 24.5764 39.9419 24.1941 35.1216 26.5647C35.4252 28.897 36.3361 31.1529 37.7025 33.0264Z" fill="#1287B1"/>
<path d="M60.2099 31.1912C60.5515 31.4971 60.7413 31.9176 60.7413 32.3765C60.7413 33.2559 60.0201 33.9824 59.1472 33.9824C59.0713 33.9824 58.9574 33.9824 58.8815 33.9441C57.8946 35.5118 56.5662 36.8882 54.9721 37.8824C57.2494 38.2265 59.4508 39.2206 61.2347 40.75C62.5252 38.4176 63.2843 35.6647 63.2843 32.7588C63.2843 30.5794 62.3354 28.9353 60.8931 27.75C60.8172 28.9353 60.5895 30.0824 60.2099 31.1912Z" fill="#1287B1"/>
<path d="M40.7769 46.3706C41.574 44.153 42.9404 42.1647 44.8381 40.6736C44.5724 40.2912 44.3447 39.9089 44.1929 39.45C41.9535 38.7618 39.9419 37.4618 38.3858 35.7412C38.3858 35.7794 38.3478 35.8559 38.3478 35.8942C38.0442 37.1942 38.0062 38.5706 38.158 39.8324C39.2208 40.0236 40.0558 40.9794 40.0558 42.1265C40.0558 42.8147 39.7521 43.4265 39.2967 43.8471C39.6762 44.7265 40.2076 45.6059 40.7769 46.3706Z" fill="#1287B1"/>
<path d="M40.3974 47.6706C39.4485 46.7147 38.6514 45.6441 38.0442 44.4206C37.9303 44.4206 37.8164 44.4589 37.7026 44.4589C36.4121 44.4589 35.3873 43.4265 35.3873 42.1265C35.3873 41.2089 35.9187 40.4059 36.6778 40.0236C36.488 38.5706 36.5639 37.0794 36.9055 35.5883C36.9814 35.1677 37.1332 34.7471 37.2471 34.3265C35.8428 32.2618 35.0078 29.7 35.0078 26.9853V26.6794C32.6166 27.903 30.7947 29.8147 30.7947 32.7971C30.7947 39.45 34.7421 45.1853 40.3974 47.7471C40.3974 47.7089 40.3974 47.7089 40.3974 47.6706Z" fill="#1287B1"/>
<path d="M54.213 39.2588C53.4919 41.3235 51.4803 42.8911 49.165 42.8911C47.9125 42.8911 46.7738 42.4706 45.8629 41.7441C44.0031 43.197 42.5608 45.2235 41.6879 47.4794C42.0674 47.9 42.4849 48.2823 42.9024 48.6647C44.1929 49.0088 45.5972 49.2 47.0016 49.2C52.6948 49.2 57.7429 46.2176 60.6654 41.7441C58.7676 40.3294 56.4903 39.45 54.213 39.2588Z" fill="#1287B1"/>
<path d="M54.4028 37.8823L59.337 36.697L54.3648 36.4294L58.426 33.3323L53.8335 34.9764L56.9458 30.6176L52.6189 33.5235L54.0992 28.4382L51.1387 32.6441L51.0627 27.3294L49.127 32.0705L47.5329 27.2911L47.6088 32.9117L44.8002 27.8647L46.3184 33.2176L41.7638 29.8911L45.3315 34.4029L39.6762 32.3382L44.117 35.6647L38.4237 35.8558L44.2688 37.347L38.4237 38.6088L44.1929 39.0294L39.3346 42.1647L44.3447 40.3676L40.8528 44.7647L45.2556 41.1705L43.6995 47.097L47.1154 42.2411L46.66 47.9382L48.5577 42.7382L50.1898 48.1676L50.5693 42.7L52.9985 47.3647L51.5562 42.0882L55.9969 45.5676L53.1123 41.1323L58.0085 43.0441L54.251 39.3353L59.261 39.7176L54.4028 37.8823Z" fill="white"/>
<path d="M1.72113 47.403C17.055 31.9559 29.3145 27.1765 40.4353 25.0353C41.8776 24.7677 42.1812 21.4794 42.1812 21.4794C42.1812 21.4794 42.371 23.85 43.3958 24.1942C44.4206 24.5 45.749 20.4471 45.749 20.4471C45.749 20.4471 44.5345 24.0794 45.749 24.3089C46.9636 24.5 49.2788 20.753 49.2788 20.753C49.2788 20.753 48.3679 23.9647 48.9752 24.1942C49.5825 24.3853 52.6948 19.5294 52.6948 19.5294C52.6948 19.5294 50.8729 22.7412 52.5809 23.0853C54.3269 23.3912 56.9078 20.9059 56.9078 20.9059C56.9078 20.9059 54.9341 23.1618 55.8071 23.5442C59.6406 24.8824 62.677 19.9118 62.677 19.9118C62.677 19.9118 61.9558 22.0912 60.096 24.5C64.1193 25.5324 67.0798 19.453 67.0798 19.453L64.0813 25.5324C65.5995 26.2971 71.7862 19.1471 71.7862 19.1471C71.7862 19.1471 68.598 24.7294 66.7382 25.8765C67.763 26.7177 71.4826 23.353 71.4826 23.353C71.4826 23.353 68.4841 27.1 69.6607 27.2912C71.3307 28.5912 77.4035 20.2942 77.4035 20.2942C77.4035 20.2942 75.0503 25.1883 71.5585 29.0118C74.481 30.503 81.7304 21.0589 81.7304 21.0589C81.7304 21.0589 81.5406 24.0794 76.2649 28.8589C80.1743 28.3618 85.2223 20.8677 85.2223 20.8677C85.2223 20.8677 83.4004 26.45 78.9597 30.4265C82.7932 30.0442 88.9419 20.4853 88.9419 20.4853C88.9419 20.4853 86.5887 27.1 81.7684 30.9618C87.12 32.1471 94.8629 24.1177 94.8629 24.1177C94.8629 24.1177 91.8265 29.8147 87.8791 32.1853C92.3199 33.8677 98.3927 26.8324 98.3927 26.8324C98.3927 26.8324 92.3199 36.2765 82.6413 35.8559C79.4531 35.703 69.8505 26.1442 49.2788 26.9089C21.9891 27.903 16.2579 39.5265 1.72113 47.403Z" fill="#373535" fill-opacity="0.35"/>
<path d="M2.32843 46.2559C17.6623 30.8088 29.9218 26.0294 41.0426 23.8882C42.4849 23.6206 42.7885 20.3324 42.7885 20.3324C42.7885 20.3324 42.9783 22.7029 44.0031 23.0471C45.0279 23.3529 46.3563 19.3 46.3563 19.3C46.3563 19.3 45.1418 22.9324 46.3563 23.1618C47.5709 23.3529 49.8861 19.6059 49.8861 19.6059C49.8861 19.6059 48.9752 22.8176 49.5825 23.0471C50.1898 23.2382 53.3021 18.3824 53.3021 18.3824C53.3021 18.3824 51.4802 21.5941 53.1882 21.9382C54.9342 22.2441 57.5151 19.7588 57.5151 19.7588C57.5151 19.7588 55.5414 22.0147 56.4144 22.3971C60.2479 23.7353 63.2843 18.7647 63.2843 18.7647C63.2843 18.7647 62.5631 20.9441 60.7033 23.3529C64.7266 24.3853 67.6871 18.3059 67.6871 18.3059L64.7645 24.3088C66.2827 25.15 72.4694 18 72.4694 18C72.4694 18 69.3191 23.5824 67.4214 24.7294C68.4462 25.4559 72.1658 22.1294 72.1658 22.1294C72.1658 22.1294 69.1673 25.8765 70.3439 26.0676C71.976 27.4441 78.0868 19.1471 78.0868 19.1471C78.0868 19.1471 75.6956 24.0412 72.2037 27.8647C75.1263 29.3176 82.4136 19.8735 82.4136 19.8735C82.4136 19.8735 82.2239 22.8941 76.9481 27.6735C80.8575 27.1765 85.9055 19.6824 85.9055 19.6824C85.9055 19.6824 84.0837 25.2647 79.6429 29.2412C83.4764 28.8588 89.6251 19.3 89.6251 19.3C89.6251 19.3 87.2719 25.9147 82.4516 29.7765C87.8033 30.9618 95.5461 22.9324 95.5461 22.9324C95.5461 22.9324 92.5097 28.6294 88.5624 31C93.0031 32.6824 99.0759 25.6471 99.0759 25.6471C99.0759 25.6471 93.0031 35.0912 83.3246 34.6706C80.1363 34.5176 70.5337 24.9588 49.962 25.7235C22.6344 26.7559 16.8652 38.3412 2.32843 46.2559Z" fill="#373535"/>
<path d="M1.34161 49.0853C9.464 53.1765 16.8652 48.4736 26.2022 51.1118C33.2998 53.1 41.9535 55.6236 53.7196 53.903C65.4477 52.2206 75.4679 47.0589 80.2882 37.8824C81.7684 33.7912 87.8792 38.8 87.8792 38.8C87.8792 38.8 83.4384 36.9647 83.5523 37.8059C83.6662 38.6853 90.1944 41.7442 90.1944 41.7442C90.1944 41.7442 84.2734 39.9089 84.653 41.2853C84.9946 42.6618 92.0542 48.2824 92.0542 48.2824C92.0542 48.2824 83.9698 42.203 83.3246 43.0442C82.6414 43.8853 86.7405 47.25 86.7405 47.25C86.7405 47.25 80.0225 43.0442 77.6313 44.2677C75.9233 45.1471 84.615 50.8824 84.615 50.8824C84.615 50.8824 78.9597 46.5236 77.6313 47.6706C76.3029 48.8177 84.0078 58.1471 84.0078 58.1471C84.0078 58.1471 75.2022 48.5883 74.3292 49.0471C73.4562 49.5059 76.7204 54.0942 76.7204 54.0942C76.7204 54.0942 72.4694 49.353 71.2928 50.1559C70.1162 50.9971 77.4795 63.3853 77.4795 63.3853C77.4795 63.3853 69.471 50.6912 66.1689 52.8324C71.3308 64.2647 69.433 65.9089 69.433 65.9089C69.433 65.9089 68.7878 54.2471 62.3354 54.553C59.0713 54.7059 63.8536 63.2706 63.8536 63.2706C63.8536 63.2706 59.4508 55.3942 56.4903 55.5853C61.88 65.9089 59.9822 70.0765 59.9822 70.0765C59.9822 70.0765 60.8552 61.2442 53.5678 56.35C56.3765 58.8736 51.8219 70.0765 51.8219 70.0765C51.8219 70.0765 55.8071 53.5589 48.8614 56.6942C47.7607 57.1912 48.7854 64.953 48.7854 64.953C48.7854 64.953 47.4191 56.0824 45.2936 56.5412C44.079 56.8089 37.5508 68.8148 37.5508 68.8148C37.5508 68.8148 42.8645 55.8148 41.2703 56.3883C40.0937 56.7706 37.8544 62.1236 37.8544 62.1236C37.8544 62.1236 38.9171 56.8471 37.8544 56.5412C36.7916 56.2353 30.7568 62.1236 30.7568 62.1236C30.7568 62.1236 35.2355 56.8471 34.4764 55.7383C33.2998 54.0942 31.9334 54.0177 30.3013 54.6677C27.9481 55.5853 24.7599 59.9442 24.7599 59.9442C24.7599 59.9442 27.9481 55.5089 27.4167 53.903C26.5438 51.2265 17.3966 59.0265 17.3966 59.0265C17.3966 59.0265 22.7862 53.903 21.5717 52.7942C20.3571 51.7236 13.6011 52.0295 11.5515 52.0295C5.36485 52.0677 3.20141 50.6148 1.34161 49.0853Z" fill="#373535" fill-opacity="0.35"/>
<path d="M1 48.1676C9.12239 52.2588 16.5236 47.5558 25.8606 50.1941C32.9582 52.2206 41.6119 54.7058 53.378 52.9853C65.1061 51.3029 75.1263 46.1411 79.9465 36.9647C81.4268 32.8735 87.5376 37.8823 87.5376 37.8823C87.5376 37.8823 83.0968 36.047 83.2107 36.8882C83.3245 37.7676 89.8528 40.8264 89.8528 40.8264C89.8528 40.8264 83.9318 38.9911 84.3114 40.3676C84.653 41.7441 91.7126 47.3647 91.7126 47.3647C91.7126 47.3647 83.7421 41.247 83.0968 42.0882C82.4516 42.9294 86.5128 46.2941 86.5128 46.2941C86.5128 46.2941 79.7947 42.0882 77.4036 43.3117C75.6956 44.1911 84.3873 49.9264 84.3873 49.9264C84.3873 49.9264 78.732 45.5676 77.4036 46.7147C76.0751 47.8617 83.78 57.1911 83.78 57.1911C83.78 57.1911 75.0124 47.6323 74.1394 48.0911C73.2664 48.5882 76.5306 53.1764 76.5306 53.1764C76.5306 53.1764 72.1658 48.4353 70.9891 49.2382C69.8125 50.0794 77.1379 62.4676 77.1379 62.4676C77.1379 62.4676 69.1673 49.7353 65.8652 51.8764C71.0651 63.347 69.1293 64.9911 69.1293 64.9911C69.1293 64.9911 68.4841 53.3294 62.0318 53.6353C58.7676 53.7882 63.55 62.3529 63.55 62.3529C63.55 62.3529 59.1851 54.5529 56.2626 54.7058C61.6522 65.0294 59.7544 69.197 59.7544 69.197C59.7544 69.197 60.6274 60.3647 53.34 55.4706C56.1487 57.9941 51.5941 69.197 51.5941 69.197C51.5941 69.197 55.5794 52.6794 48.6336 55.8147C47.5329 56.3117 48.5577 64.0735 48.5577 64.0735C48.5577 64.0735 47.1913 55.2029 45.0658 55.6617C43.8513 55.9294 37.323 67.9353 37.323 67.9353C37.323 67.9353 42.6367 54.9353 41.0426 55.5088C39.866 55.8911 37.6266 61.2441 37.6266 61.2441C37.6266 61.2441 38.6894 55.9676 37.6266 55.6617C36.5639 55.3558 30.529 61.2441 30.529 61.2441C30.529 61.2441 35.0077 55.9676 34.2486 54.8588C33.072 53.2147 31.7057 53.1382 30.0736 53.7882C27.7204 54.7058 24.5321 59.0647 24.5321 59.0647C24.5321 59.0647 27.7204 54.6294 27.189 53.0235C26.316 50.347 17.1689 58.147 17.1689 58.147C17.1689 58.147 22.5585 53.0235 21.3439 51.9147C20.1294 50.8441 13.3734 51.15 11.3238 51.15C5.02324 51.15 2.8598 49.6588 1 48.1676Z" fill="#373535"/>
</svg>
