<svg xmlns="http://www.w3.org/2000/svg" width="100" height="100" fill="none"><path fill="#000" d="M15.818 47.584a7.9 7.9 0 0 1 .385 2.376c.008.818-.12 1.63-.379 2.408l2.545 1.448a6.1 6.1 0 0 1 2.275-1.438 6.2 6.2 0 0 1 2.684-.331 6 6 0 0 1 3.593 1.605 5.95 5.95 0 0 1 1.86 3.525 5.9 5.9 0 0 1-.795 3.893 6.06 6.06 0 0 1-3.101 2.545 6.2 6.2 0 0 1-4.04.076 6.06 6.06 0 0 1-3.46-2.89 5.89 5.89 0 0 1-.46-4.44l-2.473-1.421a8.3 8.3 0 0 1-4.197 2.443v2.8a6.12 6.12 0 0 1 3.515 2.545 5.93 5.93 0 0 1 .896 4.2 6 6 0 0 1-2.181 3.719 6.2 6.2 0 0 1-4.148 1.343 6.1 6.1 0 0 1-3.674-1.398 5.9 5.9 0 0 1-2.01-3.33 5.6 5.6 0 0 1-.053-2.295 5.6 5.6 0 0 1 .88-2.126 6.36 6.36 0 0 1 3.753-2.672v-2.764c-2.137-.443-3.852-1.496-5.028-3.313a7.3 7.3 0 0 1-1.185-4.556c.212-3.133 2.227-6.087 6.187-6.954v-2.751l-.366-.132c-2.47-.886-3.982-2.594-4.27-5.162-.238-2.142.601-3.943 2.33-5.291a5.8 5.8 0 0 1 4.086-1.23 6.17 6.17 0 0 1 3.546 1.4 6 6 0 0 1 2.007 3.194 5.9 5.9 0 0 1-.315 3.742 6.04 6.04 0 0 1-2.514 2.827c-.45.254-.947.43-1.457.642v2.697c.732.321 1.487.6 2.202.963a7.2 7.2 0 0 1 1.937 1.55l2.444-1.412c-.885-3.962 1.578-6.462 3.825-7.255a6.2 6.2 0 0 1 4.101-.003 6.07 6.07 0 0 1 3.175 2.551 5.9 5.9 0 0 1 .811 3.951 5.96 5.96 0 0 1-1.92 3.562c-1.773 1.644-5.438 2.569-8.525-.25zm-11.66 2.392c-.123 2.33 1.994 4.334 4.32 4.37a4.46 4.46 0 0 0 3.145-1.224 4.3 4.3 0 0 0 1.345-3.051 4.3 4.3 0 0 0-1.245-3.092 4.46 4.46 0 0 0-3.105-1.321c-2.447-.042-4.564 2.038-4.46 4.318m7.224-15.979c0-.74-.3-1.448-.832-1.971a2.86 2.86 0 0 0-2.006-.817c-.752 0-1.474.294-2.006.817a2.76 2.76 0 0 0-.83 1.971c0 .74.298 1.449.83 1.972a2.86 2.86 0 0 0 2.006.817c.753 0 1.474-.294 2.006-.817a2.76 2.76 0 0 0 .832-1.972M8.549 68.796c.75 0 1.47-.292 2.002-.812s.833-1.225.837-1.962c0-.74-.3-1.45-.832-1.974a2.87 2.87 0 0 0-2.008-.817c-.754 0-1.476.294-2.009.817a2.77 2.77 0 0 0-.832 1.974c.004.738.305 1.445.838 1.965s1.253.81 2.004.809m17.01-26.805a2.7 2.7 0 0 0-.21-1.065 2.8 2.8 0 0 0-.61-.905 2.8 2.8 0 0 0-.916-.606 2.87 2.87 0 0 0-3.092.604 2.77 2.77 0 0 0-.832 1.974c0 .74.3 1.45.832 1.974a2.87 2.87 0 0 0 3.092.603 2.8 2.8 0 0 0 .916-.607 2.735 2.735 0 0 0 .82-1.972m-2.803 13.24a2.86 2.86 0 0 0-2.015.786c-.266.255-.478.56-.624.896a2.7 2.7 0 0 0-.226 1.064c-.006.74.287 1.452.814 1.98a2.86 2.86 0 0 0 2 .834 2.87 2.87 0 0 0 2.015-.8 2.77 2.77 0 0 0 .849-1.966 2.7 2.7 0 0 0-.208-1.066 2.8 2.8 0 0 0-.608-.906 2.8 2.8 0 0 0-.915-.606 2.9 2.9 0 0 0-1.082-.215M34.3 60.542c-.11-.523-.094-21.007 0-21.353h2.895v12.87c.284-.253.51-.44.718-.642a198 198 0 0 0 2.996-2.95 1.04 1.04 0 0 1 .833-.34c.98.022 1.96 0 2.94 0 .14 0 .284 0 .539.032-1.83 1.791-3.64 3.448-5.433 5.2 1.898 2.37 3.845 4.688 5.773 7.093a2 2 0 0 1-.327.08h-3.113a.78.78 0 0 1-.654-.395l-3.593-4.494c-.062-.08-.134-.151-.2-.228a.78.78 0 0 0-.36.324.76.76 0 0 0-.096.472c.02 1.255 0 2.51 0 3.766v.52c-1 .08-1.95.032-2.918.045M72.383 52.04c.46-.443.846-.809 1.229-1.184.83-.813 1.662-1.625 2.482-2.447a.85.85 0 0 1 .67-.279h3.482c-.114.276-.93 1.082-1.725 1.785-.614.543-1.186 1.13-1.78 1.695s-1.209 1.14-1.836 1.73l5.802 7.128q-.16.053-.327.074h-3.155a.61.61 0 0 1-.533-.26 817 817 0 0 0-3.593-4.495c-.102-.125-.206-.244-.31-.366a.7.7 0 0 0-.325.282.7.7 0 0 0-.094.415v4.3149999999999995c-.395.14-2.538.147-2.966.022V39.19h2.94c.059 1.072.02 2.128.026 3.188.007 1.06 0 2.128 0 3.191v3.191c.013 1.063.013 2.126.013 3.281"/><path fill="#000" d="M93.176 60.513h-2.918c-.199-.337 0-.713-.147-1.088-.1.067-.196.118-.28.186a5.55 5.55 0 0 1-3.49 1.288 5.56 5.56 0 0 1-3.524-1.198 6.2 6.2 0 0 1-1.597-1.868 6.1 6.1 0 0 1-.742-2.328 7.3 7.3 0 0 1 .379-3.834c.8-1.974 2.192-3.332 4.374-3.753a5.26 5.26 0 0 1 2.453.078 5.2 5.2 0 0 1 2.14 1.18l.327.29.029-1.285c1.013-.054 1.96-.019 2.97-.025q.042.22.058.446v11.52c0 .099-.02.214-.032.39m-2.833-6.074a4.05 4.05 0 0 0-.84-2.755 3.4 3.4 0 0 0-2.077-1.175 3.43 3.43 0 0 0-2.349.472 3.46 3.46 0 0 0-1.306 1.605 4.82 4.82 0 0 0-.072 3.378 3.43 3.43 0 0 0 1.307 1.753c1.182.85 3.492.796 4.612-.822a3.96 3.96 0 0 0 .725-2.456M58.026 48.14v12.3c-.35.13-2.456.15-2.963.022v-1.134c-.251.19-.437.321-.627.475a5.22 5.22 0 0 1-3.087 1.086 5.64 5.64 0 0 1-2.624-.53 5.53 5.53 0 0 1-2.067-1.676A6.7 6.7 0 0 1 45.28 55a7.24 7.24 0 0 1 .473-3.426c.732-1.76 1.96-3.037 3.871-3.554a5.24 5.24 0 0 1 2.585-.113c.858.18 1.655.57 2.315 1.137l.513.414v-1.306c1.016-.033 1.983-.017 2.99-.013m-2.747 6.228q-.088-.72-.261-1.425a3.3 3.3 0 0 0-1.19-1.775 3.4 3.4 0 0 0-2.043-.699 3.4 3.4 0 0 0-2.054.665 3.3 3.3 0 0 0-1.22 1.754 4.8 4.8 0 0 0-.118 2.446c.287 1.551 1.519 3.034 3.55 2.89a3.23 3.23 0 0 0 1.56-.444 3.16 3.16 0 0 0 1.136-1.142 4.7 4.7 0 0 0 .64-2.273zM67.287 39.272v2.963c-.196-.083-.327-.138-.48-.208a4 4 0 0 0-1.19-.376 1.09 1.09 0 0 0-.884.155 1.06 1.06 0 0 0-.451.763 6.3 6.3 0 0 0-.105 1.008v4.174c0 .116 0 .228.03.395h2.995c.147.379.16 2.302.026 2.76h-3.04v9.523c-.328.142-2.343.18-2.983.061-.046-1.043 0-2.103-.02-3.156s0-2.125 0-3.19v-3.211l-.954-.045a9.4 9.4 0 0 1 0-2.732h.928c0-.193.02-.347.02-.505 0-1.605 0-3.21.016-4.815q.036-.751.222-1.48c.09-.414.272-.804.532-1.141s.593-.614.974-.811c1.42-.8 2.878-.761 4.364-.132M96.782 56.195c.436 0 .86.129 1.223.367.361.238.643.576.81.972.167.395.211.83.127 1.25s-.293.806-.6 1.11a2.2 2.2 0 0 1-1.124.597c-.427.086-.87.046-1.273-.115a2.2 2.2 0 0 1-.995-.79 2.14 2.14 0 0 1-.383-1.199 2.1 2.1 0 0 1 .629-1.563 2.203 2.203 0 0 1 1.586-.63m.016.452a1.72 1.72 0 0 0-1.26.472 1.66 1.66 0 0 0-.51 1.227 1.69 1.69 0 0 0 .492 1.22 1.769 1.769 0 0 0 1.226.52 1.8 1.8 0 0 0 1.261-.486 1.73 1.73 0 0 0 .421-1.889 1.7 1.7 0 0 0-.376-.567 1.71 1.71 0 0 0-1.25-.497zM55.139 42.97h-.55v-1.605h-1.42l-.036 1.606h-.595v-3.567h.585c0 .234.023.452.026.668.003.215 0 .407 0 .661.48.032.925 0 1.424 0v-1.33h.559c.124.367.13 3.134.007 3.568M58.033 42.977H56.04a21 21 0 0 1-.036-3.547 9 9 0 0 1 2-.026v.558h-1.366v.726l1.307.048v.581h-1.242c-.11.352-.117.727-.02 1.082h1.324zM41.32 39.227l1.706 3.74h-.673l-.389-.806h-1.437c-.072.132-.15.27-.223.415-.231.475-.235.478-.839.362.568-1.252 1.16-2.478 1.748-3.705zm-.075 1.349a3.2 3.2 0 0 0-.408.963h.853c-.115-.267-.21-.495-.31-.723a3 3 0 0 0-.135-.24M46.002 42.974h-.654c.252-.69.578-1.284.87-1.927.29-.642.577-1.223.914-1.926.627 1.284 1.18 2.524 1.757 3.824l-.633.064-.419-.857h-1.43zm1.59-1.439-.45-.998-.47.998zM43.428 39.43c.469-.101.956-.086 1.417.044.213.076.396.215.524.398a1.05 1.05 0 0 1-.022 1.239 1.1 1.1 0 0 1-.538.38c-.215.06-.44.083-.722.131l-.032 1.345h-.559a3.8 3.8 0 0 1-.065-1.172v-1.152zm.653.587v.918c.29.035.558.064.751-.18a.43.43 0 0 0 .04-.497c-.157-.293-.425-.299-.778-.241zM51.793 42.085v.642c-.721.552-1.835.32-2.371-.257a1.831 1.831 0 0 1-.101-2.427c.279-.368.69-.619 1.15-.7a1.87 1.87 0 0 1 1.326.26v.603c-.193.03-.3-.118-.441-.18a1.26 1.26 0 0 0-1.432.243 1.2 1.2 0 0 0-.277.425 1.24 1.24 0 0 0 .288 1.406 1.29 1.29 0 0 0 .94.35c.173-.01.342-.057.494-.138.127-.057.264-.131.424-.227"/><path fill="#000" d="M96.472 58.78v.763h-.38V57.18q.395-.026.788 0a.66.66 0 0 1 .371.149.64.64 0 0 1 .214.333.67.67 0 0 1-.02.455.7.7 0 0 1-.307.341c-.049.032-.101.061-.167.1l.722.944c-.27.115-.447.109-.6-.094-.154-.202-.35-.436-.523-.642zm.042-.643c.196.023.382.07.493-.109a.37.37 0 0 0 0-.321c-.11-.2-.303-.18-.506-.129z"/></svg>