<svg xmlns="http://www.w3.org/2000/svg" width="100" height="100" fill="none"><path fill="#000" stroke="#FCEE21" d="M59.407 75.106c0-.155.104-.259.259-.259h4.29c.155 0 .206.052.206.207v6.678q0 .155.155.155h.517c.104 0 .207-.103.207-.155v-6.678c0-.103.052-.207.207-.207h4.29c.155 0 .258.104.258.207V93.69c0 .104-.051.26-.206.26h-4.342c-.104 0-.207-.156-.207-.26v-6.677c0-.104-.051-.207-.155-.207h-.569c-.103 0-.154.103-.154.207v6.677c0 .104-.104.26-.207.26h-4.187c-.155 0-.31-.156-.31-.363v-18.48zM71.192 94c-.155 0-.31-.155-.31-.362v-18.48c0-.104.103-.26.207-.26h4.341c.155 0 .31.104.31.26v18.531c0 .156-.103.311-.31.311zM82.563 83.13c0 .103.104.206.104.206.051 0 .103-.051.103-.207l1.086-7.92c.051-.155.155-.31.31-.31h4.393c.155 0 .258.155.207.31L85.25 93.69c0 .156-.155.311-.31.311h-4.962c-.155 0-.258-.155-.31-.31l-3.412-18.532c0-.104 0-.26.155-.26h4.549c.155 0 .258.053.31.26zM89.334 75.21c0-.156.156-.311.31-.311h9.046c.155 0 .258.103.258.259v4.607c0 .155-.103.258-.258.258H94.45q-.155 0-.155.156v1.45c0 .103.104.154.155.154h2.016q.155 0 .155.156v4.659a.22.22 0 0 1-.206.207h-2.068c-.103 0-.155.051-.155.207v1.5q0 .156.155.156h4.394c.155 0 .258.104.258.259v4.762c0 .156-.103.26-.258.26h-9.098c-.154 0-.258-.156-.258-.311V75.209z"/><path fill="#000" stroke="#FFEF00" d="m54.704 89.859 15.247-5.125s-15.092 1.812-16.85-.88c0 0-3.721-5.176-2.015 1.139-2.585-8.127-10.441 6.781 3.618 4.866Z"/><path fill="#000" d="M72.743 60.198s-4.6 3.727-8.167 4.659c-3.515.931-14.11 3.054-15.093 5.28-1.034 2.225-1.55 3.52 1.396 8.696 2.946 5.125 2.532 8.697 4.755 9.525 2.223.88-4.032 1.915-4.083 1.915S39.714 81.94 39.559 80.18s.724-19.567 3.463-20.861c2.74-1.294 11.32-9.163 16.489-9.318 5.117-.155 13.232 10.198 13.232 10.198"/><path fill="#000" d="M47.933 65.788c.93 2.692 2.894 5.953 4.083 7.092 1.189 1.19 2.946 2.588 5.117 2.278 0 0-1.189.466-2.17.31-1.035-.207-3.877-.828-4.963-2.018-1.034-1.191-3.928-4.711-3.928-4.711l-1.758 4.918s4.084 3.26 6.513 3.986c2.74.828 4.807 1.035 5.634.465 0 0-.724.622-1.706.829-.93.207-2.119.155-3.36 0-1.24-.156-5.375-.725-5.375-.725l5.324 3.727s1.964 1.087 4.497 1.035c0 0-1.964.621-2.791.57-.827 0-7.392-.932-7.392-.932l-4.6-8.645 3.722-9.473z"/><path fill="#FCEE21" stroke="#000" d="M45.038 42.96c-1.447 0-13.18 1.035-16.488 5.642-2.378 3.262-5.79 9.836-1.965 22.932 4.239 14.443 22.691 19.67 25.896 18.221s.31-3.468-.052-4.296c-.31-.777-4.445-6.264-5.324-8.541-.93-2.226 1.758-10.094 2.947-10.405 1.24-.31 3.153-.466 4.186.673 1.034 1.139 3.722 2.33 4.032-2.33.31-4.658 2.068-10.094 2.068-10.094z"/><path fill="#FCF69F" d="M30.1 47.464s-5.065 4.814-5.065 12.786c0 5.849 1.964 12.734 3.825 16.357 1.034 2.692 10.337 11.388 17.935 12.63 6.513 1.502 6.616-.62 6.616-.62-.568.155-3.514 1.449-9.148-.725-5.686-2.174-11.268-7.35-13.026-12.372-1.809-5.021-2.79-13.096-2.74-17.237.053-4.193 3.62-12.062 3.62-12.062z"/><path fill="#000" stroke="#000" d="M36.044 44.617c0 2.277 7.237 18.945 11.062 22s9.665 2.018 10.906 1.552c1.24-.465-4.807-9.68-5.376-10.767-.569-1.19-6.099-15.684-5.634-17.03s-3.67-.673-5.169-.414c-1.447.207-5.789 4.659-5.789 4.659Z"/><path fill="#000" d="M50.62 82.819s-6.616.932-11.113-.156c-4.496-1.087-8.89-3.416-8.89-3.416s5.634 5.746 7.65 6.678 12.198 1.087 13.749-.984c1.602-2.122-1.396-2.122-1.396-2.122M48.191 79.092s-4.91.207-11.578-2.019-9.872-4.918-9.872-4.918l-1.706-7.92s6.668 6.523 11.578 8.23c4.859 1.71 10.544 3.055 10.544 3.055M25.448 55.384s2.843 6.729 9.046 10.715c6.254 3.986 13.18 5.176 13.18 5.176l.62-1.812s-1.188-.103-10.182-6.366c-8.942-6.264-8.167-15.323-8.477-15.271-1.189.207-3.05 4.193-3.05 4.193z"/><path fill="#FCEE21" stroke="#000" d="M75.792 43.944c-1.085-5.436-7.081-8.024-11.216-8.8s-15.971.31-17.625 3.83c-1.603 3.572-1.396 10.043-.983 12.579.414 2.537 4.549 3.675 5.996 4.4 1.5.673 3.412-1.398 5.117.466 1.654 1.863 8.27 5.953 9.614 5.901 1.396 0 4.756-3.416 4.756-3.416z"/><path fill="#FCEE21" d="m71.812 37.007 2.481-7.765.879-2.64s-3.877-7.143-6.616-10.3c-2.74-3.21-4.91-3.003-4.91-3.003s-2.947-1.45-6.978.414c-4.032 1.864-5.583 3.934-5.583 3.934l1.706.466 6.461 13.977 6.1 7.091 7.132 1.605"/><path fill="#FCF69F" d="M62.56 13.35s4.135 3.676 5.84 6.057c1.707 2.381 4.498 4.141 3.67 10.146-.826 6.005-.154 7.868-.154 7.868l2.74-11.336s-1.448-3.727-5.015-8.23-5.737-4.97-5.737-4.97z"/><path fill="#FCF69F" d="M64.37 17.699s-1.035-2.019-2.068-2.537c-1.034-.569-2.016-.207-2.688-.362 0 0 1.809.31 2.481 1.19s2.067 3.676 2.74 4.867c.671 1.19.775.31 1.705 2.898.93 2.64 2.843 5.229 2.791 6.212l-1.034-5.228z"/><path fill="#000" d="m71.554 47.05 1.86-5.332s-.516-2.382-1.085-2.95c-.517-.57 2.274 2.328 2.274 2.328z"/><path fill="#000" d="M72.536 41.562s.258-5.745.724-7.557c.516-1.812 2.636-7.04 2.636-7.04s-5.17-13.148-11.63-14.443-9.097.622-10.958 2.537c-1.809 1.915-3.205 2.278-3.205 2.278L56.1 33.228s6.254 1.553 9.2 2.64l-2.946-2.277s-4.186-4.763-5.53-6.989-4.859-7.712-4.859-7.712l-.31-1.036s3.411-3.52 4.393-3.779c.983-.258 2.792-1.76 6.1-.465 3.308 1.242 1.24-.311 1.24-.311s2.068.259 2.843 1.19c.775.88 8.528 8.231 8.012 12.942-.31 2.898-2.998 8.334-2.792 9.576.104 1.19 1.086 4.555 1.086 4.555"/><path fill="#000" d="M67.78 22.15c1.086 2.796 1.448 6.937 1.448 6.937s-1.602-6.419-3.05-8.023-2.222-4.142-2.222-4.142 1.292 1.191 1.809 1.812 2.016 3.417 2.016 3.417"/><path fill="#FCEE21" d="M62.974 38.405 47.57 40.423l-12.974 3.935-11.475 4.14-8.89-1.086-2.584-6.73-7.082-7.35s-2.015-4.918-2.222-8.438 4.083-7.92 4.083-7.92l5.583-.362 4.186-2.588 5.583-6.989 4.91.363 2.894.155 14.783 6.988 10.183 6.316 4.238 3.054z"/><path fill="#FCF69F" d="M27.62 22.047s4.806 1.45 6.615 1.967c1.81.57 10.958 2.33 10.958 2.33s5.893.362 7.908 3.571 4.859 11.182 4.859 11.182-3.566-6.109-8.735-7.92c-5.117-1.812-9.718-1.553-9.718-1.553s1.19-.673 3.05-1.14l1.86-.465-.154-1.553s-4.032-.984-6.254-1.864c-2.223-.983-10.39-4.555-10.39-4.555"/><path fill="#FCF69F" d="M19.4 12.47s.053-.517 2.895.052 7.185 2.175 7.185 2.175 3.153.931 7.546 2.432a813 813 0 0 1 9.873 3.469s4.445 1.811 5.944 3.364c1.55 1.553 9.976 13.873 9.976 13.873-1.965-10.87-6.565-16.46-6.565-16.46S35.372 9.415 29.842 8.121 22.45 7.45 22.45 7.45s-3.05 2.175-3.36 3.417c-.362 1.19.31 1.605.31 1.605"/><path fill="#000" d="M62.974 38.405s-2.171-11.026-3.205-15.064c-3.67-3.52-5.996-4.762-5.996-4.762s-7.288-3.52-8.063-4.348c-.775-.829-6.72-3.21-7.702-4.038-1.033-.777-7.39-2.847-8.89-3.158-1.55-.362-5.944-1.19-6.926-.983s-2.326 2.122-3.205 2.795c-.878.725-5.117 5.85-6.46 6.367-1.344.518-4.446.777-4.86.466-.413-.31-2.274-.259-3.67 1.967s-3.255 6.419-2.945 9.059c.31 2.692 2.016 5.487 4.548 8.282 2.585 2.847 4.032 3.468 5.893 7.247 1.809 3.78 2.377 5.953 2.377 5.953s5.79.88 9.304.31c3.515-.569 9.872-2.69 11.992-3.83 2.119-1.139 10.13-3.106 11.474-3.882 0 0-8.735 1.915-11.526 2.847s-9.304 3.934-12.302 3.934c-4.135-.052-8.218-.31-8.218-.31s-1.55-5.643-3.153-7.662c-1.602-2.018-6.771-6.211-7.753-9.317s-1.5-5.643-.259-8.438c1.19-2.795 3.257-4.4 3.257-4.4s2.17-.104 3.928.104c1.757.207 4.497.724 6.41 1.345 1.912.622 8.786 3.935 8.786 3.935l-7.495-4.245-4.962-1.915s2.223-1.295 4.239-3.78 2.17-3.364 3.515-4.244c1.343-.88 2.119-1.087 3.67-1.035 1.55.103 4.651.828 6.564 1.553 1.912.673 6.46 2.33 8.322 3.416 1.964 1.139 3.721 1.864 5.685 3.002 1.964 1.088 6.461 3.313 8.529 4.815 2.067 1.5 3.153 2.329 4.496 4.244 1.293 1.864 4.6 13.77 4.6 13.77"/><path fill="#000" d="M56.254 36.904s-2.946-7.196-3.618-8.49-2.43-1.915-3.36-2.122c-.93-.259-10.596-.259-10.596-.259l8.115 1.19s1.24.104 2.12.415c.827.258 2.067 1.242 2.067 1.242s-1.034-.259-1.706-.259-1.912.88-2.326.984c-.516.103-1.498.724-1.498.724s2.222-.517 3.463-.103c1.24.466 2.119.052 3.05.88.93.88 1.757 1.915 1.757 1.915z"/><path fill="#FCEE21" d="m54.6 66.979-2.998-4.71s-.878-3.676 1.396-6.264l2.274-2.589 7.495-9.628 8.322-1.656 3.411.052 4.032 10.715 3.463-.26 3.308-.569.879 1.502-3.464 12.837-6.047 5.229-7.03.31-4.238-2.33-3.36 2.589-3.256.31-1.81-1.604z"/><path fill="#C0C43D" d="M61.682 65.53s8.683 8.075 14.317 4.348 7.391-9.318 7.391-9.318 1.913-5.85 1.758-7.04 1.55.466 1.55.466l-3.514 12.89s-5.17 5.227-8.477 5.486c-3.308.26-9.2-2.691-9.2-2.691l-3.567 2.847-2.998.051 1.706-2.691zM57.908 65.064s1.137-.829 1.913-1.088c.775-.258 2.532-.724 2.532-.724l-2.842-.156z"/><path fill="#C0C43D" d="M78.273 54.141c.104-.259 1.861.57 2.998.207 1.137-.362 1.5-.724 1.913-.931.413-.26.93-.518 1.24-.518.258 0 .827.052.517.259s-2.326 1.604-2.326 1.604l-2.274.31zM59.769 48.292s1.086-1.916 1.706-2.433c.62-.518 3.463-2.123 3.463-2.123l-3.515.829s-1.344 2.277-1.499 2.795c-.103.518-.155.932-.155.932M73.363 41.562s-.31-.103-.207.673c.103.777.517 1.76-.052 2.174a26 26 0 0 1-.93.57s1.654-.052 2.43.621c.775.621 1.447 1.656 1.602 2.485.155.828.361 2.484-.259 3.157s1.396 2.433 1.396 2.433l1.24-.673-1.033-5.28z"/><path fill="#C0C43D" d="M73.518 50.932c0 .466.258.724.258.724s-.155.156-.31.673c-.103.518.155 1.036.155 1.036s0 .207.827.466c.827.258 1.654.828 1.034 1.242s.362.932.362.932l1.189-1.243-.362-1.811-1.396-1.605-1.705-.621M67.367 49.275l-.207.414s.414.414.362 1.398-.103 1.139-.103 1.139l1.24.259s-2.843.362-4.135.62c-1.292.26-2.946 1.295-3.411 1.606l-.31.207s-.052-.363.362-.829c.413-.517.775-.776.775-.776l.362-.259s-.517.104-.724-.983-.155-1.14-.155-1.14-.827-.206-1.034-.31c-.207-.103 2.274-.673 2.274-.673z"/><path stroke="#000" stroke-width="3" d="M78.222 52.795s-.104-.88.051-1.967c.155-1.035-1.344-4.09-1.912-4.97-.569-.88-2.223-4.503-2.223-4.503l-.052-.362"/><path fill="#000" d="M69.331 57.04c.414-.155 1.24-1.139 1.706-1.76s.93-.828 1.447-.828 1.396.052 1.81.207c.465.155.878.103 1.085.466.206.362-.827.362-.827.362s-.724-.362-1.448-.362c-.723 0-1.447 0-1.86.414S69.33 57.04 69.33 57.04"/><path fill="#000" d="M75.947 55.746s-2.067-.725-2.79.207a16 16 0 0 0-1.448 2.174c-.414.725-1.137 1.553-1.137 1.553s1.654-1.657 1.964-2.07c.31-.363.465-.674.982-1.036s.982-.362 1.499-.362c.517.051.827.207.827.207z"/><path fill="#000" d="M72.846 61.854s1.86-2.33 2.17-3.157c.311-.829 1.19-3.158 1.293-3.728.103-.569.569-1.449.982-1.811.465-.363.569-.104 1.292-.207.724-.104 1.861-.363 2.223-.57.362-.155 1.602-.932 1.86-1.087.26-.155 1.396-.673 1.603-.621.258.103 1.189.207 1.654.725.465.517.982 1.345 1.137 1.811.155.414-1.292 11.906-5.324 15.892-4.238 4.193-5.375 4.348-9.2 4.141s-5.737-1.863-6.72-2.277-.62-.414-.62-.414-.465.672-1.24 1.449c-.724.776-2.791 1.812-3.877 1.605-1.137-.156-2.998-.156-4.083-1.812-1.086-1.657-1.913-4.09-1.913-4.09l-.62-1.604s-.568-.57-1.24-1.812-.93-2.536-.93-2.536.878 1.553 1.602 2.38c.723.829 2.015 2.071 2.015 2.071l1.396 3.106s.569 2.174 2.378 2.692c1.757.518 2.946.207 3.67-.259.723-.414 2.222-2.019 2.222-2.019l-.827-.828-.93 1.294s-.672.984-1.758.828c-1.137-.103-1.809-.62-2.222-.931l-.414-.31s.827 1.5 2.274 1.81c-.568.104-2.067-.31-2.48-.827 0 0-.672-.725-.259-1.605a6.9 6.9 0 0 1 1.137-1.864c.258-.362.62-.62.879-1.087.258-.465.672-1.863.723-1.967.052-.155.104-.103.104-.103s.93 1.605 1.809 2.277c.878.725 3.205 2.796 4.083 3.313s7.753 4.763 12.922-.776 5.79-11.958 5.79-11.958.62-1.863.413-2.847c-.207-.983-.362-1.45-1.24-1.76-.88-.31-1.138.414-2.068.828-.93.363-1.81.673-2.791.57-.983-.104-1.706-.104-1.965.414-.258.57-1.24 3.83-1.654 4.296-.413.518-.878 1.191-1.137 1.45-.413.259-2.119 1.915-2.119 1.915"/><path fill="#000" d="M81.323 55.332c1.757-.207 2.533-1.087 2.74-1.294.258-.207.775-.932.775-.932s-1.913 1.242-2.843 1.346c-.93.155-1.913.776-3.722-.363-.103-.051.93 1.191 1.758 1.243.878.103 1.292 0 1.292 0M59.614 63.459c.724-.363 2.688-.259 2.688-.259s-2.378-.414-2.843-.362-1.499 2.122-1.499 2.122zM66.902 50.776c.155.57-.155 1.191-.155 1.191s.517 0 .879.104c.361.103 1.137.414 1.137.414s-2.791-.207-3.619-.052c-.878.155-1.654.362-1.964.466-.361.103-1.602.673-1.602.673s.827-.673.982-.725.155-.155.155-.155-.155-.31-.362-.88c-.155-.621.104-1.398.104-1.398s-.465.104-.879.104c-.362.051-1.24.051-1.24.051s1.188-.466 1.705-.776 1.293-.673 1.706-.777 1.447-.155 1.964-.051c.517.155 2.068.31 2.068.31s-.62.207-.982.207-.517.104-.517.104.465.673.62 1.19M73.983 52.174c-.155.414-.103 1.035-.103 1.035h-.724s.672.156.879.311c.207.103.775.362 1.24.518.465.155 1.24.57 1.24.57l1.035-1.399-.207-.828c-.052-.155-.31-.828-.569-.983s-1.085-.415-1.344-.415c-.258 0-.568.156-.827.104-.258-.052-1.085-.259-1.085-.259l.982.518c-.052.103-.413.57-.517.828"/><path fill="#fff" d="M73.932 53.365s.413-.104.568-.052c.155 0 .62.155.62.155s.259-.414.207-.673c-.052-.31-.155-.466-.362-.57s-.568-.05-.672 0c-.103.053-.362.415-.362.415z"/><path fill="#000" d="M73.828 44.979s.672 0 1.034.155.775.518.775.518l.259.466s-.776-.673-1.086-.725c-.31-.104-.982-.414-.982-.414M65.455 43.685s-2.171.155-3.153.776-1.861 1.708-1.861 1.708.362-1.967 1.292-2.33c.879-.361 3.722-.154 3.722-.154"/><path fill="#fff" d="M63.025 51.139c.362-.156 1.086-.207 1.293.362.206.57 0 .621 0 .621s-.362 0-.672.104c-.362.103-.672.362-.672.362l-.104.052-.361-1.035s.154-.31.516-.466"/></svg>