<svg width="100" height="100" viewBox="0 0 100 100" fill="none" xmlns="http://www.w3.org/2000/svg">
<path d="M59.4072 75.1059C59.4072 74.9506 59.5106 74.847 59.6656 74.847H63.9557C64.1108 74.847 64.1625 74.8988 64.1625 75.0541V81.7318C64.1625 81.8353 64.2142 81.887 64.3175 81.887H64.8344C64.9378 81.887 65.0412 81.7835 65.0412 81.7318V75.0541C65.0412 74.9506 65.0929 74.847 65.2479 74.847H69.538C69.6931 74.847 69.7964 74.9506 69.7964 75.0541V93.6894C69.7964 93.7929 69.7447 93.9482 69.5897 93.9482H65.2479C65.1445 93.9482 65.0412 93.7929 65.0412 93.6894V87.0118C65.0412 86.9082 64.9895 86.8047 64.8861 86.8047H64.3175C64.2142 86.8047 64.1625 86.9082 64.1625 87.0118V93.6894C64.1625 93.7929 64.0591 93.9482 63.9557 93.9482H59.769C59.6139 93.9482 59.4589 93.7929 59.4589 93.5859V75.1059H59.4072Z" fill="black" stroke="#FCEE21"/>
<path d="M71.192 94C71.0369 94 70.8819 93.8447 70.8819 93.6376V75.1576C70.8819 75.0541 70.9852 74.8988 71.0886 74.8988H75.4304C75.5855 74.8988 75.7405 75.0023 75.7405 75.1576V93.6894C75.7405 93.8447 75.6371 94 75.4304 94H71.192Z" fill="black" stroke="#FCEE21"/>
<path d="M82.5633 83.1294C82.5633 83.2329 82.6667 83.3364 82.6667 83.3364C82.7184 83.3364 82.7701 83.2847 82.7701 83.1294L83.8555 75.2094C83.9072 75.0541 84.0106 74.8988 84.1656 74.8988H88.5591C88.7142 74.8988 88.8175 75.0541 88.7659 75.2094L85.2511 93.6894C85.2511 93.8447 85.096 94 84.941 94H79.9789C79.8239 94 79.7205 93.8447 79.6688 93.6894L76.2574 75.1576C76.2574 75.0541 76.2574 74.8988 76.4125 74.8988H80.961C81.1161 74.8988 81.2194 74.9506 81.2711 75.1576L82.5633 83.1294Z" fill="black" stroke="#FCEE21"/>
<path d="M89.3344 75.2094C89.3344 75.0541 89.4895 74.8988 89.6445 74.8988H98.6899C98.845 74.8988 98.9483 75.0023 98.9483 75.1576V79.7647C98.9483 79.92 98.845 80.0235 98.6899 80.0235H94.4515C94.3481 80.0235 94.2964 80.0753 94.2964 80.1788V81.6282C94.2964 81.7317 94.3998 81.7835 94.4515 81.7835H96.4673C96.5707 81.7835 96.6224 81.8353 96.6224 81.9388V86.5976C96.6224 86.7012 96.519 86.8047 96.4156 86.8047H94.3481C94.2448 86.8047 94.1931 86.8564 94.1931 87.0117V88.5129C94.1931 88.6164 94.2448 88.6682 94.3481 88.6682H98.7416C98.8967 88.6682 99 88.7717 99 88.927V93.6894C99 93.8447 98.8967 93.9482 98.7416 93.9482H89.6445C89.4895 93.9482 89.3861 93.7929 89.3861 93.6376V75.2094H89.3344Z" fill="black" stroke="#FCEE21"/>
<path d="M54.7036 89.8589L69.9515 84.7342C69.9515 84.7342 54.8587 86.546 53.1013 83.8542C53.1013 83.8542 49.3798 78.6777 51.0855 84.993C48.5011 76.866 40.6445 91.7742 54.7036 89.8589Z" fill="black" stroke="#FFEF00"/>
<path d="M72.7426 60.1978C72.7426 60.1978 68.1424 63.9248 64.576 64.8566C61.0612 65.7884 50.4652 67.9107 49.4832 70.1366C48.4494 72.3625 47.9325 73.6566 50.8787 78.8331C53.8249 83.9578 53.4114 87.5296 55.634 88.3578C57.8566 89.2378 51.6024 90.2731 51.5507 90.2731C51.499 90.2731 39.7142 81.939 39.5591 80.179C39.404 78.419 40.2827 60.6119 43.0222 59.3178C45.7616 58.0237 54.3418 50.1554 59.5106 50.0001C64.6277 49.8448 72.7426 60.1978 72.7426 60.1978Z" fill="black"/>
<path d="M47.9325 65.7884C48.8629 68.4801 50.827 71.7413 52.0158 72.8801C53.2047 74.0707 54.9621 75.4684 57.1329 75.1578C57.1329 75.1578 55.9441 75.6237 54.9621 75.4684C53.9283 75.2613 51.0855 74.6401 50 73.4496C48.9663 72.259 46.0718 68.739 46.0718 68.739L44.3144 73.6566C44.3144 73.6566 48.3977 76.9178 50.827 77.6425C53.5665 78.4707 55.634 78.6778 56.461 78.1084C56.461 78.1084 55.7374 78.7296 54.7553 78.9366C53.8249 79.1437 52.6361 79.0919 51.3956 78.9366C50.1551 78.7813 46.0201 78.2119 46.0201 78.2119L51.3439 81.939C51.3439 81.939 53.308 83.026 55.8407 82.9743C55.8407 82.9743 53.8766 83.5954 53.0496 83.5437C52.2226 83.5437 45.6583 82.6119 45.6583 82.6119L41.058 73.9672L44.7796 64.4943L47.9325 65.7884Z" fill="black"/>
<path d="M45.038 42.9601C43.5907 42.9601 31.8576 43.9954 28.5496 48.6024C26.172 51.8636 22.7606 58.4377 26.5855 71.5342C30.8239 85.9766 49.2764 91.2048 52.481 89.7554C55.6857 88.306 52.7912 86.2871 52.4293 85.4589C52.1192 84.6824 47.9842 79.1954 47.1055 76.9177C46.1751 74.6918 48.8629 66.8236 50.0517 66.513C51.2922 66.2024 53.2047 66.0471 54.2384 67.186C55.2722 68.3248 57.9599 69.5154 58.2701 64.8566C58.5802 60.1977 60.3376 54.7624 60.3376 54.7624L45.038 42.9601Z" fill="#FCEE21" stroke="black"/>
<path d="M30.1003 47.4637C30.1003 47.4637 25.0349 52.2778 25.0349 60.2496C25.0349 66.099 26.999 72.9837 28.8597 76.6072C29.8935 79.299 39.1973 87.9954 46.7954 89.2378C53.3081 90.739 53.4114 88.6166 53.4114 88.6166C52.8429 88.7719 49.8967 90.066 44.2627 87.8919C38.577 85.7178 32.9948 80.5413 31.2374 75.5201C29.4283 70.499 28.4462 62.4237 28.4979 58.2825C28.5496 54.0896 32.1161 46.2213 32.1161 46.2213L30.1003 47.4637Z" fill="#FCF69F"/>
<path d="M36.0443 44.6165C36.0443 46.8941 43.2806 63.5624 47.1055 66.6165C50.9304 69.6706 56.7711 68.6353 58.0116 68.1694C59.2521 67.7036 53.2047 58.4894 52.6361 57.4024C52.0675 56.2118 46.537 41.7177 47.0021 40.3718C47.4673 39.0259 43.3323 39.6989 41.8334 39.9577C40.3861 40.1647 36.0443 44.6165 36.0443 44.6165Z" fill="black" stroke="black"/>
<path d="M50.6203 82.8188C50.6203 82.8188 44.0043 83.7506 39.5074 82.6635C35.0106 81.5765 30.6171 79.2471 30.6171 79.2471C30.6171 79.2471 36.2511 84.9929 38.2669 85.9247C40.2827 86.8565 50.4652 87.0118 52.0159 84.9412C53.6182 82.8188 50.6203 82.8188 50.6203 82.8188Z" fill="black"/>
<path d="M48.191 79.0918C48.191 79.0918 43.2806 79.2989 36.6129 77.073C29.9452 74.8471 26.7405 72.1554 26.7405 72.1554L25.0349 64.2354C25.0349 64.2354 31.7026 70.7577 36.6129 72.4659C41.4716 74.1742 47.1572 75.5201 47.1572 75.5201" fill="black"/>
<path d="M25.4484 55.3836C25.4484 55.3836 28.2912 62.113 34.4937 66.0988C40.7479 70.0847 47.6741 71.2753 47.6741 71.2753L48.2944 69.4635C48.2944 69.4635 47.1055 69.36 38.1119 63.0965C29.1699 56.833 29.9452 47.7741 29.6351 47.8259C28.4463 48.033 26.5855 52.0188 26.5855 52.0188L25.4484 55.3836Z" fill="black"/>
<path d="M75.7922 43.9436C74.7068 38.5083 68.711 35.9201 64.576 35.1436C60.441 34.3671 48.6045 35.4542 46.9505 38.9742C45.3481 42.546 45.5549 49.0166 45.9684 51.553C46.3819 54.0895 50.5169 55.2283 51.9642 55.953C53.4631 56.626 55.3756 54.5554 57.0813 56.4189C58.7353 58.2824 65.3513 62.3718 66.6952 62.3201C68.0908 62.3201 71.4505 58.9036 71.4505 58.9036L75.7922 43.9436Z" fill="#FCEE21" stroke="black"/>
<path d="M71.8122 37.0071L74.2933 29.2424L75.1719 26.6024C75.1719 26.6024 71.2954 19.4589 68.5559 16.3012C65.8165 13.0918 63.6456 13.2989 63.6456 13.2989C63.6456 13.2989 60.6994 11.8495 56.6677 13.713C52.6361 15.5765 51.0854 17.6471 51.0854 17.6471L52.7911 18.113L59.2521 32.0895L65.3513 39.1812L72.4842 40.7859" fill="#FCEE21"/>
<path d="M62.5602 13.3506C62.5602 13.3506 66.6952 17.0259 68.4009 19.4071C70.1066 21.7883 72.8977 23.5483 72.0707 29.553C71.2437 35.5577 71.9156 37.4212 71.9156 37.4212L74.6551 26.0848C74.6551 26.0848 73.2078 22.3577 69.6414 17.8542C66.0749 13.3506 63.904 12.8848 63.904 12.8848L62.5602 13.3506Z" fill="#FCF69F"/>
<path d="M64.3692 17.6989C64.3692 17.6989 63.3355 15.68 62.3017 15.1624C61.268 14.593 60.2859 14.9553 59.614 14.8C59.614 14.8 61.423 15.1106 62.095 15.9906C62.7669 16.8706 64.1625 19.6659 64.8344 20.8565C65.5064 22.0471 65.6097 21.1671 66.5401 23.7553C67.4705 26.3953 69.3829 28.9836 69.3312 29.9671L68.2975 24.7389L64.3692 17.6989Z" fill="#FCF69F"/>
<path d="M71.5538 47.0495L73.4146 41.7177C73.4146 41.7177 72.8977 39.3365 72.3291 38.7671C71.8122 38.1977 74.6034 41.0965 74.6034 41.0965L71.5538 47.0495Z" fill="black"/>
<path d="M72.5359 41.5624C72.5359 41.5624 72.7943 35.8166 73.2595 34.0048C73.7764 32.193 75.8956 26.9648 75.8956 26.9648C75.8956 26.9648 70.7268 13.8166 64.2658 12.5224C57.8049 11.2283 55.1688 13.1436 53.308 15.0589C51.499 16.9742 50.1034 17.3366 50.1034 17.3366L56.0992 33.2283C56.0992 33.2283 62.3534 34.7813 65.2996 35.8683L62.3534 33.5907C62.3534 33.5907 58.1667 28.8283 56.8228 26.6024C55.4789 24.3766 51.9642 18.8895 51.9642 18.8895L51.654 17.8542C51.654 17.8542 55.0654 14.3342 56.0475 14.0754C57.0296 13.8166 58.8386 12.3154 62.1466 13.6095C65.4547 14.8518 63.3871 13.2989 63.3871 13.2989C63.3871 13.2989 65.4547 13.5577 66.23 14.4895C67.0053 15.3695 74.7585 22.7201 74.2416 27.4307C73.9315 30.3295 71.2437 35.7648 71.4504 37.0071C71.5538 38.1977 72.5359 41.5624 72.5359 41.5624Z" fill="black"/>
<path d="M67.7806 22.1507C68.8661 24.946 69.2279 29.0872 69.2279 29.0872C69.2279 29.0872 67.6255 22.6684 66.1783 21.0637C64.731 19.459 63.9557 16.9225 63.9557 16.9225C63.9557 16.9225 65.2479 18.1131 65.7648 18.7343C66.2817 19.3554 67.7806 22.1507 67.7806 22.1507Z" fill="black"/>
<path d="M62.9737 38.4047L47.5707 40.4235L34.5971 44.3576L23.1224 48.4988L14.2321 47.4118L11.6477 40.6823L4.56648 33.3318C4.56648 33.3318 2.55066 28.4141 2.34391 24.8941C2.13716 21.3741 6.42724 16.9741 6.42724 16.9741L12.0095 16.6117L16.1962 14.0235L21.7785 7.03528L26.6888 7.39763L29.5834 7.55293L44.3661 14.5412L54.5486 20.8565L58.787 23.9106L62.9737 38.4047Z" fill="#FCEE21"/>
<path d="M27.6192 22.0471C27.6192 22.0471 32.4262 23.4965 34.2353 24.0142C36.0443 24.5836 45.1931 26.3436 45.1931 26.3436C45.1931 26.3436 51.0855 26.7059 53.1013 29.9154C55.1171 33.1248 57.9599 41.0965 57.9599 41.0965C57.9599 41.0965 54.3935 34.9883 49.2247 33.1765C44.1076 31.3648 39.5074 31.6236 39.5074 31.6236C39.5074 31.6236 40.6962 30.9506 42.557 30.4848C44.4178 30.0189 44.4178 30.0189 44.4178 30.0189L44.2627 28.4659C44.2627 28.4659 40.231 27.4824 38.0085 26.6024C35.7859 25.6189 27.6192 22.0471 27.6192 22.0471Z" fill="#FCF69F"/>
<path d="M19.4009 12.4706C19.4009 12.4706 19.4526 11.953 22.2954 12.5224C25.1382 13.0918 29.48 14.6965 29.48 14.6965C29.48 14.6965 32.6329 15.6283 37.0264 17.1294C41.4199 18.6306 46.8988 20.5977 46.8988 20.5977C46.8988 20.5977 51.3439 22.4094 52.8429 23.9624C54.3935 25.5153 62.8186 37.8353 62.8186 37.8353C60.8545 26.9647 56.2542 21.3741 56.2542 21.3741C56.2542 21.3741 35.3724 9.41649 29.8418 8.12238C24.3112 6.82826 22.4505 7.44944 22.4505 7.44944C22.4505 7.44944 19.4009 9.62355 19.0907 10.8659C18.7289 12.0565 19.4009 12.4706 19.4009 12.4706Z" fill="#FCF69F"/>
<path d="M62.9737 38.4047C62.9737 38.4047 60.8028 27.3789 59.769 23.3412C56.0992 19.8212 53.7732 18.5789 53.7732 18.5789C53.7732 18.5789 46.4853 15.0589 45.7099 14.2306C44.9346 13.4024 38.9905 11.0212 38.0085 10.193C36.9747 9.4165 30.6171 7.34591 29.1182 7.03532C27.5675 6.67297 23.1741 5.84474 22.192 6.05179C21.2099 6.25885 19.8661 8.17415 18.9874 8.84709C18.1087 9.57179 13.8703 14.6965 12.5264 15.2141C11.1825 15.7318 8.08125 15.9906 7.66775 15.68C7.25424 15.3694 5.39349 15.4212 3.99792 17.6471C2.60235 19.873 0.741587 24.0659 1.05171 26.7059C1.36184 29.3977 3.06754 32.193 5.60024 34.9883C8.18462 37.8353 9.63188 38.4565 11.4926 42.2353C13.3017 46.0142 13.8703 48.1883 13.8703 48.1883C13.8703 48.1883 19.6593 49.0683 23.1741 48.4989C26.6888 47.9294 33.0464 45.8071 35.1656 44.6683C37.2848 43.5294 45.2964 41.5624 46.6403 40.7859C46.6403 40.7859 37.9051 42.7012 35.114 43.633C32.3228 44.5647 25.8102 47.5671 22.8123 47.5671C18.6772 47.5153 14.5939 47.2565 14.5939 47.2565C14.5939 47.2565 13.0433 41.6142 11.441 39.5953C9.83863 37.5765 4.66986 33.3836 3.68779 30.2777C2.70572 27.1718 2.18884 24.6353 3.42935 21.84C4.61817 19.0447 6.68568 17.44 6.68568 17.44C6.68568 17.44 8.85657 17.3365 10.6139 17.5436C12.3713 17.7506 15.1108 18.2683 17.0232 18.8894C18.9357 19.5106 25.8102 22.8236 25.8102 22.8236L18.3154 18.5789L13.3534 16.6636C13.3534 16.6636 15.576 15.3694 17.5918 12.8847C19.6076 10.4 19.7627 9.52003 21.1066 8.64003C22.4504 7.76003 23.2258 7.55297 24.7764 7.60474C26.327 7.70827 29.4283 8.43297 31.3407 9.15768C33.2532 9.83062 37.8017 11.4871 39.6625 12.5741C41.6266 13.713 43.384 14.4377 45.3481 15.5765C47.3123 16.6636 51.8091 18.8894 53.8766 20.3906C55.9441 21.8918 57.0296 22.72 58.3734 24.6353C59.6656 26.4989 62.9737 38.4047 62.9737 38.4047Z" fill="black"/>
<path d="M56.2543 36.9035C56.2543 36.9035 53.3081 29.7083 52.6361 28.4141C51.9642 27.12 50.2068 26.4988 49.2764 26.2918C48.346 26.033 38.6804 26.033 38.6804 26.033L46.7954 27.2235C46.7954 27.2235 48.0359 27.3271 48.9146 27.6377C49.7416 27.8965 50.9821 28.88 50.9821 28.88C50.9821 28.88 49.9484 28.6212 49.2764 28.6212C48.6045 28.6212 47.364 29.5012 46.9505 29.6047C46.4336 29.7083 45.4515 30.3294 45.4515 30.3294C45.4515 30.3294 47.6741 29.8118 48.9146 30.2259C50.1551 30.6918 51.0338 30.2777 51.9642 31.1059C52.8946 31.9859 53.7216 33.0212 53.7216 33.0212L56.2543 36.9035Z" fill="black"/>
<path d="M54.6002 66.9788L51.6024 62.2682C51.6024 62.2682 50.7237 58.5929 52.9979 56.0047C55.2722 53.4164 55.2722 53.4164 55.2722 53.4164L62.7669 43.7882L71.0886 42.1317L74.5 42.1835L78.5317 52.8988L81.9948 52.6399L85.3028 52.0705L86.1815 53.5717L82.7184 66.4094L76.6709 71.6376L69.6414 71.9482L65.403 69.6188L62.0433 72.207L58.787 72.5176L56.9779 70.9129L54.6002 66.9788Z" fill="#FCEE21"/>
<path d="M61.6815 65.5294C61.6815 65.5294 70.365 73.6047 75.999 69.8776C81.6329 66.1506 83.3903 60.56 83.3903 60.56C83.3903 60.56 85.3028 54.7106 85.1477 53.52C84.9926 52.3294 86.6983 53.9859 86.6983 53.9859L83.1836 66.8753C83.1836 66.8753 78.0148 72.1035 74.7068 72.3624C71.3988 72.6212 65.5064 69.6706 65.5064 69.6706L61.9399 72.5176L58.942 72.5694L60.6477 69.8776L61.6815 65.5294Z" fill="#C0C43D"/>
<path d="M57.9083 65.0635C57.9083 65.0635 59.0454 64.2353 59.8207 63.9764C60.596 63.7176 62.3534 63.2517 62.3534 63.2517L59.5106 63.0964L57.9083 65.0635Z" fill="#C0C43D"/>
<path d="M78.2733 54.1412C78.3766 53.8823 80.134 54.7106 81.2711 54.3482C82.4083 53.9859 82.7701 53.6235 83.1836 53.4165C83.5971 53.1576 84.114 52.8988 84.4241 52.8988C84.6825 52.8988 85.2511 52.9506 84.941 53.1576C84.6308 53.3647 82.615 54.7623 82.615 54.7623L80.3408 55.0729L78.2733 54.1412Z" fill="#C0C43D"/>
<path d="M59.769 48.2917C59.769 48.2917 60.8545 46.3764 61.4747 45.8588C62.095 45.3412 64.9378 43.7365 64.9378 43.7365L61.423 44.5647C61.423 44.5647 60.0791 46.8423 59.9241 47.36C59.8207 47.8776 59.769 48.2917 59.769 48.2917Z" fill="#C0C43D"/>
<path d="M73.3629 41.5623C73.3629 41.5623 73.0528 41.4588 73.1561 42.2353C73.2595 43.0117 73.673 43.9953 73.1045 44.4094C72.5359 44.7717 72.1741 44.9788 72.1741 44.9788C72.1741 44.9788 73.8281 44.927 74.6034 45.6C75.3787 46.2212 76.0507 47.2564 76.2057 48.0847C76.3608 48.9129 76.5675 50.5694 75.9473 51.2423C75.327 51.9153 77.3428 53.6753 77.3428 53.6753L78.5834 53.0023L77.5496 47.7223L73.3629 41.5623Z" fill="#C0C43D"/>
<path d="M73.518 50.9318C73.518 51.3977 73.7764 51.6565 73.7764 51.6565C73.7764 51.6565 73.6213 51.8118 73.4663 52.3294C73.3629 52.8471 73.6213 53.3647 73.6213 53.3647C73.6213 53.3647 73.6213 53.5718 74.4483 53.8306C75.2753 54.0894 76.1024 54.6589 75.4821 55.073C74.8618 55.4871 75.8439 56.0047 75.8439 56.0047L77.0327 54.7624L76.6709 52.9506L75.2753 51.3459L73.5696 50.7247" fill="#C0C43D"/>
<path d="M67.3671 49.2753L67.1604 49.6894C67.1604 49.6894 67.5739 50.1035 67.5222 51.087C67.4705 52.0706 67.4188 52.2259 67.4188 52.2259L68.6593 52.4847C68.6593 52.4847 65.8165 52.847 64.5243 53.1059C63.2321 53.3647 61.5781 54.4 61.1129 54.7106C60.6477 55.0212 60.8028 54.9176 60.8028 54.9176C60.8028 54.9176 60.7511 54.5553 61.1646 54.0894C61.5781 53.5717 61.9399 53.3129 61.9399 53.3129L62.3017 53.0541C62.3017 53.0541 61.7849 53.1576 61.5781 52.0706C61.3713 50.9835 61.423 50.9317 61.423 50.9317C61.423 50.9317 60.596 50.7247 60.3893 50.6212C60.1825 50.5176 62.6635 49.9482 62.6635 49.9482L67.3671 49.2753Z" fill="#C0C43D"/>
<path d="M78.2216 52.7953C78.2216 52.7953 78.1182 51.9153 78.2733 50.8282C78.4283 49.7929 76.9294 46.7388 76.3608 45.8588C75.7922 44.9788 74.1382 41.3553 74.1382 41.3553L74.0865 40.9929" stroke="black" stroke-width="3"/>
<path d="M69.3313 57.04C69.7448 56.8847 70.5718 55.9012 71.037 55.28C71.5022 54.6588 71.9673 54.4518 72.4842 54.4518C73.0011 54.4518 73.8798 54.5035 74.2933 54.6588C74.7585 54.8141 75.172 54.7624 75.3787 55.1247C75.5855 55.4871 74.5517 55.4871 74.5517 55.4871C74.5517 55.4871 73.8281 55.1247 73.1045 55.1247C72.3808 55.1247 71.6572 55.1247 71.2437 55.5388C70.8302 55.953 69.3313 57.04 69.3313 57.04Z" fill="black"/>
<path d="M75.9473 55.7458C75.9473 55.7458 73.8798 55.0211 73.1562 55.9529C72.4325 56.8846 72.1224 57.4023 71.7089 58.127C71.2954 58.8517 70.5718 59.6799 70.5718 59.6799C70.5718 59.6799 72.2258 58.0235 72.5359 57.6093C72.846 57.247 73.0011 56.9364 73.518 56.574C74.0349 56.2117 74.5 56.2117 75.0169 56.2117C75.5338 56.2635 75.8439 56.4187 75.8439 56.4187L75.9473 55.7458Z" fill="black"/>
<path d="M72.846 61.8541C72.846 61.8541 74.7068 59.5247 75.0169 58.6965C75.327 57.8682 76.2057 55.5388 76.3091 54.9694C76.4125 54.4 76.8777 53.52 77.2912 53.1576C77.7564 52.7953 77.8597 53.0541 78.5834 52.9506C79.307 52.847 80.4441 52.5882 80.8059 52.3812C81.1678 52.2259 82.4083 51.4494 82.6667 51.2941C82.9251 51.1388 84.0623 50.6212 84.269 50.6729C84.5275 50.7765 85.4578 50.88 85.923 51.3976C86.3882 51.9153 86.9051 52.7435 87.0602 53.2094C87.2152 53.6235 85.768 65.1153 81.7363 69.1012C77.4979 73.2941 76.3608 73.4494 72.5359 73.2423C68.711 73.0353 66.7986 71.3788 65.8165 70.9647C64.8344 70.5506 65.1962 70.5506 65.1962 70.5506C65.1962 70.5506 64.7311 71.2235 63.9557 72C63.2321 72.7765 61.1646 73.8118 60.0792 73.6047C58.942 73.4494 57.0813 73.4494 55.9958 71.7929C54.9104 70.1365 54.0834 67.7035 54.0834 67.7035L53.4631 66.0988C53.4631 66.0988 52.8946 65.5294 52.2226 64.287C51.5507 63.0447 51.2922 61.7506 51.2922 61.7506C51.2922 61.7506 52.1709 63.3035 52.8946 64.1318C53.6182 64.96 54.9104 66.2023 54.9104 66.2023L56.3059 69.3082C56.3059 69.3082 56.8745 71.4823 58.6836 72C60.441 72.5176 61.6298 72.207 62.3534 71.7412C63.077 71.327 64.576 69.7223 64.576 69.7223L63.749 68.8941L62.8186 70.1882C62.8186 70.1882 62.1467 71.1718 61.0612 71.0165C59.9241 70.9129 59.2522 70.3953 58.8386 70.0847C58.4251 69.7741 58.4251 69.7741 58.4251 69.7741C58.4251 69.7741 59.2522 71.2753 60.6994 71.5859C60.1308 71.6894 58.6319 71.2753 58.2184 70.7576C58.2184 70.7576 57.5465 70.0329 57.96 69.1529C58.3218 68.2729 58.787 67.6518 59.0971 67.2894C59.3555 66.927 59.7173 66.6682 59.9758 66.2023C60.2342 65.7365 60.6477 64.3388 60.6994 64.2353C60.7511 64.08 60.8028 64.1318 60.8028 64.1318C60.8028 64.1318 61.7332 65.7365 62.6119 66.4094C63.4905 67.1341 65.8165 69.2047 66.6952 69.7223C67.5739 70.24 74.4484 74.4847 79.6171 68.9459C84.7859 63.407 85.4062 56.9882 85.4062 56.9882C85.4062 56.9882 86.0264 55.1247 85.8197 54.1412C85.6129 53.1576 85.4578 52.6918 84.5792 52.3812C83.7005 52.0706 83.442 52.7953 82.5116 53.2094C81.5813 53.5718 80.7026 53.8823 79.7205 53.7788C78.7384 53.6753 78.0148 53.6753 77.7564 54.1929C77.4979 54.7623 76.5159 58.0235 76.1024 58.4894C75.6889 59.007 75.2237 59.68 74.9652 59.9388C74.5517 60.1976 72.846 61.8541 72.846 61.8541Z" fill="black"/>
<path d="M81.3228 55.3317C83.0802 55.1247 83.8555 54.2447 84.0623 54.0376C84.3207 53.8305 84.8376 53.1058 84.8376 53.1058C84.8376 53.1058 82.9252 54.3482 81.9948 54.4517C81.0644 54.607 80.0823 55.2282 78.2733 54.0894C78.1699 54.0376 79.2036 55.28 80.0306 55.3317C80.9093 55.4352 81.3228 55.3317 81.3228 55.3317Z" fill="black"/>
<path d="M59.614 63.4588C60.3376 63.0964 62.3017 63.2 62.3017 63.2C62.3017 63.2 59.9241 62.7858 59.4589 62.8376C58.9937 62.8894 57.96 64.96 57.96 64.96L59.614 63.4588Z" fill="black"/>
<path d="M66.9019 50.7764C67.057 51.3458 66.7469 51.967 66.7469 51.967C66.7469 51.967 67.2637 51.967 67.6256 52.0705C67.9874 52.174 68.7627 52.4846 68.7627 52.4846C68.7627 52.4846 65.9715 52.2776 65.1445 52.4329C64.2659 52.5882 63.4905 52.7952 63.1804 52.8988C62.8186 53.0023 61.5781 53.5717 61.5781 53.5717C61.5781 53.5717 62.4051 52.8988 62.5602 52.847C62.7152 52.7952 62.7152 52.6917 62.7152 52.6917C62.7152 52.6917 62.5602 52.3811 62.3534 51.8117C62.1983 51.1905 62.4568 50.414 62.4568 50.414C62.4568 50.414 61.9916 50.5176 61.5781 50.5176C61.2163 50.5693 60.3376 50.5693 60.3376 50.5693C60.3376 50.5693 61.5264 50.1035 62.0433 49.7929C62.5602 49.4823 63.3355 49.1199 63.749 49.0164C64.1625 48.9129 65.1962 48.8611 65.7131 48.9646C66.23 49.1199 67.7806 49.2752 67.7806 49.2752C67.7806 49.2752 67.1604 49.4823 66.7986 49.4823C66.4367 49.4823 66.2817 49.5858 66.2817 49.5858C66.2817 49.5858 66.7469 50.2588 66.9019 50.7764Z" fill="black"/>
<path d="M73.9832 52.1741C73.8281 52.5882 73.8798 53.2094 73.8798 53.2094H73.1562C73.1562 53.2094 73.8281 53.3647 74.0348 53.52C74.2416 53.6235 74.8102 53.8824 75.2754 54.0377C75.7405 54.193 76.5159 54.6071 76.5159 54.6071L77.5496 53.2094C77.5496 53.2094 77.3946 52.5882 77.3429 52.3812C77.2912 52.2259 77.0327 51.553 76.7743 51.3977C76.5159 51.2424 75.6889 50.9835 75.4304 50.9835C75.172 50.9835 74.8618 51.1388 74.6034 51.0871C74.345 51.0353 73.518 50.8282 73.518 50.8282L74.5 51.3459C74.4483 51.4494 74.0865 51.9153 73.9832 52.1741Z" fill="black"/>
<path d="M73.9315 53.3647C73.9315 53.3647 74.345 53.2612 74.5 53.313C74.6551 53.313 75.1203 53.4683 75.1203 53.4683C75.1203 53.4683 75.3787 53.0541 75.3271 52.7953C75.2754 52.4847 75.172 52.3294 74.9652 52.2259C74.7585 52.1224 74.3967 52.1741 74.2933 52.2259C74.1899 52.2777 73.9315 52.64 73.9315 52.64V53.3647Z" fill="white"/>
<path d="M73.8281 44.9788C73.8281 44.9788 74.5 44.9788 74.8618 45.1341C75.2237 45.2893 75.6372 45.6517 75.6372 45.6517L75.8956 46.1176C75.8956 46.1176 75.1203 45.4446 74.8102 45.3929C74.5 45.2893 73.8281 44.9788 73.8281 44.9788Z" fill="black"/>
<path d="M65.4547 43.6846C65.4547 43.6846 63.2838 43.8399 62.3017 44.4611C61.3197 45.0823 60.441 46.1693 60.441 46.1693C60.441 46.1693 60.8028 44.2023 61.7332 43.8399C62.6119 43.4776 65.4547 43.6846 65.4547 43.6846Z" fill="black"/>
<path d="M63.0254 51.1388C63.3872 50.9835 64.1108 50.9318 64.3176 51.5012C64.5243 52.0706 64.3176 52.1224 64.3176 52.1224C64.3176 52.1224 63.9557 52.1224 63.6456 52.2259C63.2838 52.3294 62.9737 52.5882 62.9737 52.5882L62.8703 52.64L62.5085 51.6047C62.5085 51.6047 62.6635 51.2941 63.0254 51.1388Z" fill="white"/>
</svg>
