<svg xmlns="http://www.w3.org/2000/svg" width="100" height="100" fill="none"><path fill="#BA160C" d="M19.986 85h-1.821v-9.478h1.828zm-1.803-9.478v-5.87h1.828v5.877zm0 9.478h-1.846v-5.901H4.594v5.9H1V69.647h3.594v5.87h13.57v9.478zm0-15.348h-1.846v5.877h1.859zM38.886 77.212a3.9 3.9 0 0 1 1.423 1.516c.328.625.479 1.326.436 2.03a4.1 4.1 0 0 1-1.242 3.055 4.15 4.15 0 0 1-3.096 1.175h-5.26V81.41h5.285q.78 0 .781-1.165 0-1.166-.78-1.16h-5.286v-3.539h5.019q.78 0 .78-1.165t-.78-1.16h-5.02v-3.576h5.02a4.18 4.18 0 0 1 3.253 1.313 4.2 4.2 0 0 1 1.078 2.923 3.92 3.92 0 0 1-1.61 3.33M31.146 85h-9.66v-9.453h9.66v3.546H25.08v2.324h6.067V85m0-11.771H25.08v2.435l-3.594-.086v-5.92h9.66v3.577z"/><path fill="#666" d="M42.43 65.656v-1.634h2.684v-.992q0-.53-.36-.53h-2.323v-1.635h2.323a1.83 1.83 0 0 1 1.45.617c.37.424.569.968.558 1.53V67.9h-1.648v-2.245zm21.9 2.245h-5.466a2.3 2.3 0 0 1-1.636-.617 2.1 2.1 0 0 1-.675-1.59V63.09a2.1 2.1 0 0 1 .675-1.59 2.3 2.3 0 0 1 1.636-.617h5.466v1.64h-5.466q-.657 0-.657.617v2.583q0 .617.657.617h5.466zm17.35 0h-1.66v-2.707h-4.227v2.707H74.12v-7.036h1.649v2.689h4.226v-2.689h1.66zm17.35-5.395h-5.886v1.054h5.503v1.64h-5.503v1.067h5.874V67.9h-7.547v-7.036h7.535v1.64zm-56.6-1.64v1.64h-2.342q-.34 0-.34.53v.986h2.683v1.64h-2.683v2.239h-1.649V63.03c-.01-.561.189-1.106.558-1.53a1.8 1.8 0 0 1 1.431-.616h2.343zm-18.552 4.741v-1.64h2.417q.36 0 .359-.722 0-.72-.36-.74h-2.416v-1.64h2.417a1.77 1.77 0 0 1 1.48.752 2.6 2.6 0 0 1 .521 1.628 2.54 2.54 0 0 1-.52 1.634 1.76 1.76 0 0 1-1.481.753zM9.675 67.901h-1.66v-2.245H5.338v-1.634H8.02v-.992q0-.53-.36-.53H5.338v-1.635H7.66a1.83 1.83 0 0 1 1.45.617c.376.427.578.98.564 1.548zm14.203-7.036v1.64h-2.77v1.462h2.77v1.64h-2.77v2.294H19.46v-7.036zm-18.54 4.791h-2.69v2.245H1V63.03c-.01-.561.188-1.106.558-1.53a1.8 1.8 0 0 1 1.431-.616h2.349v1.64H2.989q-.34 0-.34.53v.987h2.689z"/><path fill="#BA160C" d="M61.107 85h-3.594v-4.89h-5.85v-3.576h5.857v-2.146q0-1.16-.781-1.16h-5.075v-3.576h5.106a3.99 3.99 0 0 1 3.135 1.394 4.92 4.92 0 0 1 1.24 3.336zm-9.443-4.89h-5.856V85h-3.594V74.388a4.92 4.92 0 0 1 1.24-3.336 3.94 3.94 0 0 1 3.128-1.4h5.106v3.577h-5.13q-.75 0-.75 1.159v2.146h5.856zM81.06 80.258a4.92 4.92 0 0 1-1.17 3.311A4.04 4.04 0 0 1 76.716 85H63.419v-3.575h13.298q.75 0 .75-1.166t-.75-1.16h-9.673a4.06 4.06 0 0 1-3.173-1.43 4.74 4.74 0 0 1-1.196-3.28 4.92 4.92 0 0 1 1.24-3.336 3.98 3.98 0 0 1 3.147-1.4h13.255v3.576H67.044q-.75 0-.75 1.16t.75 1.134h9.673a4.06 4.06 0 0 1 3.172 1.43 4.92 4.92 0 0 1 1.172 3.306M82.554 85V69.646H99v3.576H86.148v2.3h12.01V79.1h-12.01v2.325h12.82V85z"/><path fill="#050505" d="M79.195 42.262a1.6 1.6 0 0 1-.229-.413 1.86 1.86 0 0 0-1.072-.925 4.2 4.2 0 0 1-.88-.5c-.49-.376-.898-.444-2.324-.4-1.561.049-2.119-.173-2.546-1.006l-.211-.413-.13.457c-.254.894-.552 1.122-1.339 1.042a1.31 1.31 0 0 0-1.134.308c-.198.172-.241.185-.433.099-.193-.087-.224-.087-.41.123a.83.83 0 0 1-.563.283c-.459.08-.62.284-.781.845-.254 1.055-.78.79-1.24-.616-.538-1.579-.092-2.726 1.723-4.459.936-.887 1.32-1.393 1.487-1.923.124-.414.143-.432.298-.321q1.212 1.066 2.274 2.282c.756.869.948 1.017 1.053.807.106-.21-.551-.999-1.61-2.084-2.634-2.688-5.695-4.218-8.955-4.464a7.9 7.9 0 0 0-3.873.56 9.9 9.9 0 0 0-2.404 1.05 30 30 0 0 0-4.022 2.959c-1.586 1.338-1.586 1.338-3.65 1.301H46.02a6.2 6.2 0 0 0-2.374.721 9.9 9.9 0 0 0-2.299 2.467 9.6 9.6 0 0 1-2.62 2.713c-.8.518-1.104.845-1.197 1.27a.8.8 0 0 0 .21.82 9 9 0 0 0 2.449.765q.343.06.669.185c.093.074-1.047 1.233-1.915 1.924a29.6 29.6 0 0 1-6.104 3.595 16.3 16.3 0 0 0-3.414 1.992c-.508.37-1.24.869-1.673 1.11-1.803 1.054-3.718 1.171-4.338.265a1.5 1.5 0 0 0-.347-.383 2.32 2.32 0 0 1-.905-1.85 10 10 0 0 0-.148-1.412 13.4 13.4 0 0 1-.1-4.852c.46-2.818 1.959-6.71 4.066-10.557 1.394-2.54 2.831-4.619 6.283-9.07 2.132-2.75 2.15-2.782 2.169-3.768 0-.222-.08-1.591-.192-3.046-.341-4.539-.186-6.352.688-8.016.508-.851 1.518-1.665 2.249-1.727.415-.03.502.148.62 1.301.093 1.59.404 3.16.923 4.668.527 1.56.83 2.127 1.45 2.732.849.826 1.24.906 3.396.616 7.553-.943 13.013-.364 17.493 1.85 4.158 2.047 8.334 6.043 12.021 11.488l.7 1.036.757.252A7.7 7.7 0 0 1 78.7 36.88a8.9 8.9 0 0 1 1.152 3.625c.075 1.203 0 1.752-.328 1.85a.3.3 0 0 1-.298-.13zm-.656-2.35a7 7 0 0 0-.36-1.097 5.78 5.78 0 0 0-2.956-3.256c-1.146-.617-3.042-1.16-3.47-1.011-.16.055-.16.086 0 .425q.351.596.8 1.123.448.523.799 1.116c.149.314.155.394.037.616s-.396.42-.83.327c-.18-.037-.335-.05-.347 0q.031.19.136.352c.329.616.787.733 2.367.678 2.312-.093 2.838.05 3.507.919.143.185.341.074.317-.185zM27.49 53.848q.771-.449 1.493-.974a28.5 28.5 0 0 1 4.127-2.417 34.6 34.6 0 0 0 4.883-2.843c.719-.53 1.338-1.104 1.301-1.233a2.6 2.6 0 0 0-.657-.197 9 9 0 0 1-1.53-.568 5.5 5.5 0 0 0-.973-.4c-.447.33-.819.75-1.09 1.233-1.376 1.954-1.928 2.466-4.636 4.038a7.6 7.6 0 0 0-2.336 1.789 5.4 5.4 0 0 1-1.475 1.412c-.363.228-.75.418-1.152.567-.837.284-.843.574 0 .444a7 7 0 0 0 2.057-.832zm39.733-13.566c.091-.164.21-.313.353-.437l.29-.266h.813c1.016-.03 2.237-.4 2.478-.746l.354-.5c.123-.172.272-.289.365-.289h.155S70 35.774 69.84 35.652l-.193-.148-.29.45c-.162.246-.75.98-1.302 1.634-1.42 1.67-1.797 2.405-1.475 2.892.093.142.167.166.347.105a.52.52 0 0 0 .291-.247zm-35.191 6.783q.204-.194.322-.45c.149-.666-1.171-.16-1.345.518-.043.179 0 .216.118.29s.558 0 .898-.358zm1.927-2.583a15 15 0 0 0 1.741-1.357 3.42 3.42 0 0 0 .855-1.905 3.4 3.4 0 0 1 .291-.95c.1-.155.158-.334.168-.518-.21-.617-2.442-.179-3.669.721-1.487 1.092-2.478 3.324-2.106 4.62.241.794.687.683 2.701-.655zm31.95-13.517a4.5 4.5 0 0 0-1.32-.894 8.3 8.3 0 0 0-3.483-.678c-.966-.037-1.382-.111-1.437-.271a.6.6 0 0 1 .08-.278c.298-.617 2.634-.77 4.468-.333a14 14 0 0 1 2.336.808c.576.259.657.277.62.123a4.9 4.9 0 0 0-1.42-1.3 10.38 10.38 0 0 0-6.506-1.592 9 9 0 0 0-4.647 1.48 12.2 12.2 0 0 0-3.179 3.854 30 30 0 0 1-2.206 3.62c-.17.176-.301.386-.384.616.19.06.39.08.588.062h.533l.998-.944a23.4 23.4 0 0 1 5.428-4.008 12.04 12.04 0 0 1 8.36-.425c.923.259 1.239.302 1.17.172zM46.564 44.981c-2.541.542-5.176.47-7.684-.21-.54-.154-.713-.24-.793-.413-.199-.425.118-.82 1.128-1.418.892-.524 1.419-1.06 2.528-2.571 1.5-2.035 2.169-2.615 3.476-2.972.62-.167 1.023-.198 3.235-.204 3.315 0 6.86.037 7.15.111.664.16.156 1.751-1.01 3.163a12.8 12.8 0 0 1-3.575 2.886 27 27 0 0 1-4.455 1.628m-22.779-6.074a4 4 0 0 1-.31-.87 8.16 8.16 0 0 1 .7-5.728c.297-.572.72-1.07 1.24-1.455.26-.086.52.13.979.833.19.31.422.594.688.844.136.093.241.185.229.204l-.62.931a38 38 0 0 0-2.367 4.316c-.384.858-.483 1.012-.57.907z"/></svg>