<svg width="100" height="100" viewBox="0 0 100 100" fill="none" xmlns="http://www.w3.org/2000/svg">
<path d="M9.05112 89.8577H7.47963L6.70489 87.6351H3.31101L2.56268 89.8577H1L4.23101 81.1229H5.84211L9.05112 89.8577ZM6.32633 86.4571L5.129 82.981C5.0795 82.8089 5.04127 82.6337 5.01455 82.4565H4.98814C4.96281 82.6416 4.92307 82.8244 4.86929 83.0032L3.68517 86.4571H6.32633Z" fill="#465154"/>
<path d="M14.9409 84.2346L11.613 88.7687H14.9277V89.8667H9.64537V89.3377L13.0437 84.7414H9.96231V83.6434H14.9409V84.2346Z" fill="#465154"/>
<path d="M21.4117 89.8578H20.0163V88.8754H19.9943C19.8226 89.2304 19.552 89.5271 19.2158 89.7292C18.8796 89.9314 18.4924 90.0301 18.1015 90.0133C16.6342 90.0133 15.9005 89.1243 15.9005 87.3462V83.6256H17.2959V87.1818C17.2959 88.299 17.7229 88.8576 18.5769 88.8576C18.7691 88.8648 18.9605 88.8286 19.1372 88.7517C19.3139 88.6749 19.4713 88.5592 19.5981 88.4131C19.8751 88.0739 20.0178 87.6432 19.9987 87.204V83.6256H21.3941L21.4117 89.8578Z" fill="#465154"/>
<path d="M26.6368 84.9769C26.4235 84.8304 26.1679 84.76 25.9105 84.7769C25.7054 84.7777 25.5036 84.8297 25.3231 84.9282C25.1427 85.0266 24.9891 85.1686 24.876 85.3414C24.5776 85.7957 24.4324 86.3352 24.4623 86.8795V89.8577H23.0624V83.6345H24.4578V84.9147H24.4799C24.59 84.5207 24.8082 84.1663 25.1093 83.8923C25.3689 83.6556 25.706 83.5242 26.0557 83.5233C26.2545 83.5121 26.4529 83.5519 26.6324 83.6389L26.6368 84.9769Z" fill="#465154"/>
<path d="M32.8215 87.1284H28.6221C28.6134 87.3755 28.6559 87.6218 28.7469 87.8514C28.8379 88.081 28.9752 88.289 29.1503 88.4619C29.5344 88.7913 30.0295 88.9584 30.5325 88.9287C31.1846 88.9313 31.8203 88.7225 32.3461 88.333V89.471C31.668 89.8566 30.8961 90.0414 30.1187 90.0044C29.7233 90.0261 29.328 89.9615 28.9596 89.815C28.5912 89.6685 28.2583 89.4435 27.9838 89.1554C27.4325 88.4892 27.1552 87.6348 27.209 86.7683C27.1725 85.8965 27.4777 85.0452 28.0586 84.399C28.3265 84.1028 28.654 83.8679 29.0192 83.7099C29.3844 83.552 29.7788 83.4747 30.1759 83.4833C30.542 83.4626 30.9081 83.5258 31.2465 83.6682C31.585 83.8107 31.8872 84.0286 32.1304 84.3057C32.6254 84.9568 32.8709 85.7667 32.8215 86.5861V87.1284ZM31.4745 86.1327C31.4961 85.7086 31.3699 85.2902 31.118 84.9503C31.0025 84.8056 30.8553 84.6902 30.6879 84.613C30.5206 84.5358 30.3378 84.4991 30.1539 84.5057C29.9623 84.5027 29.7721 84.5408 29.5961 84.6174C29.4201 84.694 29.2621 84.8075 29.1327 84.9503C28.8422 85.2712 28.6617 85.6779 28.6177 86.1104L31.4745 86.1327Z" fill="#465154"/>
<path d="M43.6986 89.4933C42.9484 89.8576 42.1229 90.0358 41.2908 90.0134C40.7339 90.0392 40.1778 89.9461 39.659 89.74C39.1401 89.534 38.6702 89.2197 38.2799 88.8176C37.8958 88.3947 37.5982 87.8994 37.4041 87.3601C37.2099 86.8208 37.1231 86.2481 37.1486 85.6749C37.1223 85.054 37.2215 84.4343 37.4402 83.8534C37.6589 83.2726 37.9926 82.7429 38.4207 82.2965C38.8413 81.8709 39.3438 81.5368 39.8973 81.3151C40.4508 81.0934 41.0434 80.9887 41.6385 81.0074C42.348 80.9853 43.0547 81.1077 43.7163 81.3675V82.8033C43.1345 82.4544 42.4692 82.273 41.7926 82.2788C41.3736 82.2595 40.9553 82.3287 40.5642 82.4817C40.1731 82.6348 39.8179 82.8684 39.5212 83.1678C39.2225 83.4915 38.9908 83.872 38.8397 84.2873C38.6885 84.7025 38.6209 85.144 38.6408 85.586C38.6203 86.0036 38.6816 86.4213 38.8214 86.8149C38.9611 87.2085 39.1765 87.5704 39.4552 87.8797C39.7321 88.1649 40.0652 88.3882 40.433 88.5353C40.8007 88.6823 41.1949 88.7497 41.5901 88.7332C42.3337 88.7516 43.0664 88.5508 43.6986 88.1553V89.4933Z" fill="#465154"/>
<path d="M47.7484 90.0133C47.3289 90.031 46.9104 89.9612 46.5188 89.8082C46.1272 89.6553 45.7711 89.4225 45.4726 89.1243C45.1844 88.8164 44.9607 88.4531 44.8147 88.0559C44.6687 87.6588 44.6036 87.236 44.623 86.8128C44.5844 86.3673 44.6425 85.9186 44.7934 85.4982C44.9443 85.0777 45.1843 84.6956 45.4966 84.3785C45.8089 84.0614 46.186 83.817 46.6016 83.6624C47.0171 83.5078 47.4611 83.4467 47.9025 83.4834C48.316 83.4594 48.7299 83.5233 49.1174 83.6711C49.5049 83.8189 49.8573 84.0472 50.1519 84.3413C50.7194 84.9963 51.0088 85.8506 50.9574 86.7195C50.9767 87.1566 50.9087 87.5932 50.7574 88.0033C50.6062 88.4134 50.3748 88.7886 50.077 89.1065C49.7714 89.4111 49.4069 89.6488 49.0062 89.8048C48.6056 89.9609 48.1774 90.0318 47.7484 90.0133ZM47.8144 84.6213C47.5692 84.6105 47.3248 84.657 47.1004 84.7572C46.8759 84.8575 46.6774 85.0087 46.5203 85.1992C46.1806 85.6563 46.0122 86.2201 46.0449 86.7906C46.0125 87.3467 46.1832 87.8955 46.5247 88.3331C46.6841 88.5184 46.8828 88.665 47.1062 88.762C47.3295 88.859 47.5716 88.9038 47.8144 88.8931C48.0537 88.9075 48.2929 88.8651 48.5131 88.7694C48.7332 88.6737 48.9281 88.5273 49.0822 88.3419C49.4031 87.8838 49.5585 87.3283 49.5224 86.7683C49.5587 86.2042 49.4034 85.6444 49.0822 85.1814C48.9304 84.9923 48.7363 84.8421 48.516 84.7432C48.2956 84.6443 48.0552 84.5995 47.8144 84.6124V84.6213Z" fill="#465154"/>
<path d="M51.917 89.6621V88.3552C52.4092 88.7452 53.017 88.9566 53.6426 88.9553C54.4848 88.9553 54.9059 88.7034 54.9059 88.1996C54.9088 88.0708 54.8702 87.9444 54.7959 87.8396C54.7164 87.7344 54.6178 87.6454 54.5054 87.5773C54.3661 87.4938 54.2186 87.4252 54.0652 87.3728L53.5105 87.1684C53.2766 87.0765 53.0487 86.9696 52.8282 86.8483C52.6406 86.7467 52.4699 86.6162 52.322 86.4616C52.1893 86.3208 52.086 86.1545 52.0183 85.9726C51.946 85.7673 51.9117 85.5503 51.917 85.3325C51.9118 85.0539 51.9851 84.7795 52.1283 84.5413C52.2726 84.3083 52.4666 84.1109 52.6962 83.9634C52.944 83.8029 53.2161 83.6843 53.5017 83.6122C53.8065 83.5322 54.1201 83.4919 54.4349 83.4922C54.9557 83.4842 55.4735 83.5731 55.9624 83.7545V84.9902C55.5223 84.6902 55.0011 84.535 54.4702 84.5457C54.3086 84.5433 54.1475 84.5612 53.9903 84.599C53.8613 84.6293 53.7379 84.6803 53.625 84.7502C53.5304 84.8097 53.4506 84.8903 53.3917 84.9858C53.3356 85.0763 53.3066 85.1813 53.308 85.288C53.3036 85.4078 53.3326 85.5264 53.3917 85.6303C53.4553 85.7304 53.5413 85.8141 53.6426 85.8748C53.7676 85.9536 53.9004 86.0192 54.0388 86.0704L54.5714 86.2615C54.8145 86.3605 55.0525 86.4718 55.2845 86.5949C55.4802 86.6984 55.6609 86.8286 55.8215 86.9817C55.968 87.1226 56.0848 87.2919 56.1649 87.4795C56.249 87.6928 56.2895 87.9212 56.2837 88.1507C56.2909 88.4414 56.2161 88.7282 56.068 88.9776C55.9222 89.2134 55.725 89.4126 55.4914 89.5599C55.2349 89.72 54.9537 89.8356 54.6594 89.9021C54.3332 89.978 53.9994 90.0153 53.6646 90.0133C53.0639 90.0239 52.4679 89.9042 51.917 89.6621Z" fill="#465154"/>
<path d="M66.7163 89.8578H65.3209V86.4572C65.3568 85.9684 65.2626 85.4788 65.048 85.0392C64.9472 84.8885 64.8084 84.7678 64.6458 84.6896C64.4833 84.6114 64.3029 84.5786 64.1236 84.5947C63.9352 84.5997 63.7512 84.6529 63.5888 84.7493C63.4263 84.8457 63.2908 84.9822 63.1948 85.1459C62.9313 85.5386 62.7973 86.0053 62.8118 86.4794V89.8444H61.4076V86.3372C61.4076 85.1785 61.0026 84.5991 60.1927 84.5991C60.0065 84.5997 59.8235 84.6481 59.661 84.7399C59.4985 84.8317 59.3618 84.9638 59.2639 85.1236C59.0096 85.5198 58.882 85.9854 58.8985 86.4572V89.8222H57.5031V83.599H58.8985V84.5813H58.9205C59.1091 84.2293 59.3909 83.9372 59.7346 83.7378C60.0782 83.5384 60.47 83.4395 60.8662 83.4523C61.2674 83.4439 61.6602 83.5688 61.9842 83.8079C62.2971 84.0382 62.5261 84.3663 62.6357 84.7414C62.8156 84.3486 63.1051 84.0174 63.4687 83.7884C63.8323 83.5594 64.2542 83.4426 64.6826 83.4523C66.0384 83.4523 66.7163 84.2968 66.7163 85.986V89.8578Z" fill="#465154"/>
<path d="M71.0698 90.0133C70.6503 90.031 70.2317 89.9612 69.8402 89.8082C69.4486 89.6553 69.0925 89.4225 68.794 89.1243C68.5058 88.8164 68.2821 88.4531 68.1361 88.0559C67.9901 87.6588 67.9249 87.236 67.9444 86.8128C67.9058 86.3673 67.9639 85.9186 68.1148 85.4982C68.2657 85.0777 68.5057 84.6956 68.818 84.3785C69.1303 84.0614 69.5074 83.817 69.923 83.6624C70.3385 83.5078 70.7825 83.4467 71.2239 83.4834C71.6374 83.4594 72.0513 83.5233 72.4388 83.6711C72.8263 83.8189 73.1787 84.0472 73.4733 84.3413C74.0408 84.9963 74.3302 85.8506 74.2788 86.7195C74.2981 87.1566 74.2301 87.5932 74.0788 88.0033C73.9276 88.4134 73.6962 88.7886 73.3984 89.1065C73.0928 89.4111 72.7283 89.6488 72.3276 89.8048C71.927 89.9609 71.4988 90.0318 71.0698 90.0133ZM71.1358 84.6213C70.8906 84.6105 70.6462 84.657 70.4217 84.7572C70.1973 84.8575 69.9987 85.0087 69.8417 85.1992C69.502 85.6563 69.3335 86.2201 69.3663 86.7906C69.3339 87.3467 69.5046 87.8955 69.8461 88.3331C70.0055 88.5184 70.2042 88.665 70.4275 88.762C70.6509 88.859 70.893 88.9038 71.1358 88.8931C71.3751 88.9075 71.6143 88.8651 71.8345 88.7694C72.0546 88.6737 72.2495 88.5273 72.4036 88.3419C72.7245 87.8838 72.8799 87.3283 72.8438 86.7683C72.8801 86.2042 72.7248 85.6444 72.4036 85.1814C72.2517 84.9923 72.0577 84.8421 71.8374 84.7432C71.617 84.6443 71.3766 84.5995 71.1358 84.6124V84.6213Z" fill="#465154"/>
<path d="M75.2428 89.6621V88.3552C75.735 88.7452 76.3428 88.9566 76.9684 88.9553C77.8106 88.9553 78.2317 88.7034 78.2317 88.1996C78.2346 88.0708 78.196 87.9444 78.1217 87.8396C78.0422 87.7343 77.9436 87.6453 77.8312 87.5773C77.6919 87.4938 77.5444 87.4252 77.391 87.3728L76.8363 87.1684C76.6024 87.0765 76.3745 86.9696 76.154 86.8483C75.9666 86.7465 75.7958 86.616 75.6478 86.4616C75.5152 86.3207 75.4119 86.1545 75.3441 85.9726C75.2718 85.7673 75.2374 85.5503 75.2428 85.3325C75.2376 85.0539 75.3109 84.7795 75.4541 84.5413C75.5985 84.3084 75.7925 84.111 76.022 83.9634C76.2699 83.803 76.5419 83.6844 76.8275 83.6122C77.1322 83.5322 77.4459 83.4919 77.7607 83.4922C78.2815 83.4842 78.7993 83.5731 79.2882 83.7545V84.9902C78.8481 84.6902 78.3268 84.535 77.7959 84.5457C77.6344 84.5433 77.4733 84.5612 77.3161 84.599C77.1871 84.6293 77.0638 84.6804 76.9508 84.7502C76.8564 84.81 76.7767 84.8905 76.7175 84.9858C76.6614 85.0763 76.6324 85.1813 76.6338 85.288C76.6294 85.4078 76.6584 85.5264 76.7175 85.6303C76.7813 85.7303 76.8671 85.814 76.9684 85.8748C77.0935 85.9535 77.2262 86.019 77.3645 86.0704L77.8972 86.2615C78.1403 86.3605 78.3783 86.4718 78.6103 86.5949C78.806 86.6984 78.9867 86.8285 79.1473 86.9817C79.2938 87.1226 79.4106 87.2919 79.4907 87.4795C79.5751 87.6928 79.6155 87.9212 79.6095 88.1507C79.6167 88.4414 79.5419 88.7282 79.3938 88.9776C79.248 89.2134 79.0508 89.4126 78.8172 89.5599C78.5607 89.72 78.2795 89.8357 77.9852 89.9021C77.659 89.978 77.3251 90.0153 76.9904 90.0133C76.3897 90.0239 75.7937 89.9042 75.2428 89.6621Z" fill="#465154"/>
<path d="M84.4869 89.8577V81.1229H86.9784C90.1595 81.1229 91.75 82.5395 91.75 85.3725C91.7748 85.9769 91.6695 86.5796 91.4416 87.139C91.2136 87.6984 90.8683 88.2013 90.4295 88.6131C89.4446 89.4659 88.1727 89.9036 86.8771 89.8355L84.4869 89.8577ZM85.9131 82.372V88.6397H87.0576C87.4852 88.6659 87.9136 88.605 88.3174 88.4607C88.7212 88.3164 89.0922 88.0916 89.4082 87.7996C89.7003 87.483 89.9254 87.1096 90.07 86.7023C90.2145 86.295 90.2754 85.8622 90.249 85.4303C90.249 83.3915 89.2043 82.372 87.1148 82.372H85.9131Z" fill="#465154"/>
<path d="M93.1543 89.8578V81.123H95.8922C96.5943 81.0845 97.2897 81.278 97.8731 81.6742C98.1026 81.8353 98.2892 82.0509 98.4166 82.3021C98.5441 82.5533 98.6084 82.8322 98.6038 83.1144C98.614 83.579 98.4681 84.0333 98.19 84.4035C97.8979 84.7787 97.4958 85.051 97.0411 85.1814V85.2036C97.5788 85.2469 98.0833 85.4835 98.463 85.8704C98.6429 86.0667 98.7826 86.2969 98.874 86.5479C98.9654 86.7989 99.0067 87.0657 98.9956 87.3329C99.0026 87.6835 98.9263 88.0308 98.7731 88.3455C98.62 88.6603 98.3944 88.9334 98.1152 89.1421C97.4818 89.6209 96.7049 89.8657 95.9143 89.8355L93.1543 89.8578ZM94.5805 82.3009V84.7814H95.5093C95.9291 84.8079 96.3445 84.6817 96.6802 84.4257C96.8253 84.3039 96.9405 84.1498 97.0169 83.9756C97.0933 83.8013 97.1287 83.6115 97.1204 83.4211C97.1204 82.6743 96.6274 82.3009 95.6413 82.3009H94.5805ZM94.5805 85.9416V88.6798H95.8042C96.2475 88.7087 96.6863 88.5762 97.0411 88.3064C97.1873 88.1796 97.3029 88.0208 97.3792 87.8421C97.4555 87.6634 97.4904 87.4695 97.4813 87.2751C97.4813 86.3861 96.8621 85.9416 95.6237 85.9416H94.5805Z" fill="#465154"/>
<path d="M25.9897 27.7185C25.9042 27.7191 25.8193 27.7027 25.7401 27.6702C25.6608 27.6376 25.5887 27.5897 25.5277 27.529C25.4668 27.4683 25.4184 27.3961 25.3851 27.3165C25.3518 27.2369 25.3344 27.1515 25.3338 27.0651C25.3338 25.0609 24.5454 23.1388 23.142 21.7216C21.7386 20.3044 19.8352 19.5083 17.8506 19.5083C17.6774 19.5083 17.5112 19.4391 17.3883 19.3158C17.2654 19.1926 17.1958 19.0253 17.1947 18.8504C17.1947 18.6747 17.2638 18.5063 17.3868 18.382C17.5098 18.2578 17.6766 18.188 17.8506 18.188C19.8352 18.188 21.7386 17.3919 23.142 15.9747C24.5454 14.5575 25.3338 12.6354 25.3338 10.6312C25.3406 10.4614 25.4123 10.3008 25.5337 10.1832C25.6552 10.0655 25.817 9.99988 25.9853 10C26.0709 9.99943 26.1557 10.0159 26.235 10.0484C26.3142 10.0809 26.3864 10.1289 26.4473 10.1896C26.5082 10.2502 26.5567 10.3224 26.5899 10.402C26.6232 10.4816 26.6406 10.5671 26.6412 10.6535C26.6412 12.6576 27.4296 14.5798 28.833 15.9969C30.2364 17.4141 32.1398 18.2103 34.1245 18.2103C34.21 18.2097 34.2948 18.2261 34.3741 18.2586C34.4534 18.2912 34.5255 18.3391 34.5864 18.3998C34.6473 18.4605 34.6958 18.5327 34.7291 18.6123C34.7624 18.6919 34.7798 18.7773 34.7803 18.8637C34.7809 18.9501 34.7647 19.0358 34.7324 19.1158C34.7002 19.1959 34.6527 19.2687 34.5927 19.3302C34.5326 19.3917 34.4611 19.4407 34.3822 19.4743C34.3034 19.5079 34.2188 19.5255 34.1333 19.526C32.1486 19.526 30.2452 20.3222 28.8418 21.7394C27.4384 23.1566 26.65 25.0787 26.65 27.0829C26.6432 27.2546 26.5704 27.417 26.4472 27.5356C26.324 27.6542 26.1599 27.7198 25.9897 27.7185Z" fill="#50E6FF"/>
<path d="M73.0155 73.4506C72.8765 73.4506 72.7433 73.3948 72.645 73.2956C72.5468 73.1964 72.4916 73.0619 72.4916 72.9216C72.4881 71.3244 71.858 69.7938 70.7392 68.6649C69.6204 67.5359 68.1042 66.9007 66.5226 66.8984C66.3844 66.8984 66.2519 66.8433 66.1538 66.745C66.0556 66.6468 65.9999 66.5134 65.9988 66.3738C65.9988 66.2335 66.054 66.099 66.1522 65.9998C66.2504 65.9006 66.3837 65.8449 66.5226 65.8449C68.1053 65.8437 69.6229 65.2082 70.7421 64.0781C71.8612 62.9479 72.4905 61.4155 72.4916 59.8172C72.4916 59.6769 72.5468 59.5423 72.645 59.4431C72.7433 59.3439 72.8765 59.2882 73.0155 59.2882C73.1544 59.2882 73.2876 59.3439 73.3859 59.4431C73.4841 59.5423 73.5393 59.6769 73.5393 59.8172C73.5404 61.4155 74.1697 62.9479 75.2888 64.0781C76.408 65.2082 77.9256 65.8437 79.5083 65.8449C79.6472 65.8449 79.7804 65.9006 79.8787 65.9998C79.9769 66.099 80.0321 66.2335 80.0321 66.3738C80.0321 66.5141 79.9769 66.6487 79.8787 66.7479C79.7804 66.8471 79.6472 66.9028 79.5083 66.9028C77.9259 66.9052 76.409 67.541 75.2901 68.6709C74.1712 69.8008 73.5416 71.3326 73.5393 72.9305C73.537 73.0692 73.4808 73.2015 73.3828 73.2988C73.2848 73.3961 73.1529 73.4506 73.0155 73.4506Z" fill="#50E6FF"/>
<path d="M70.634 36.2266C71.679 40.6562 71.3998 45.2993 69.8319 49.5688C68.264 53.8383 65.4777 57.5424 61.8253 60.213C58.1729 62.8835 53.8183 64.4005 49.3122 64.5721C44.8062 64.7438 40.3508 63.5624 36.5096 61.1773C32.6683 58.7922 29.6136 55.3106 27.7316 51.1725C25.8496 47.0344 25.2249 42.4258 25.9364 37.9292C26.6479 33.4326 28.6637 29.2501 31.729 25.9103C34.7942 22.5705 38.7712 20.2235 43.1572 19.1659C46.0707 18.4635 49.0927 18.3475 52.0506 18.8248C55.0085 19.3021 57.8442 20.3632 60.3959 21.9476C62.9475 23.5319 65.165 25.6084 66.9217 28.0585C68.6784 30.5085 69.9399 33.2841 70.634 36.2266Z" fill="url(#paint0_radial_1_7182)"/>
<mask id="mask0_1_7182" style="mask-type:luminance" maskUnits="userSpaceOnUse" x="25" y="18" width="47" height="47">
<path d="M70.634 36.2266C71.679 40.6562 71.3998 45.2993 69.8319 49.5688C68.264 53.8383 65.4777 57.5424 61.8253 60.213C58.1729 62.8835 53.8183 64.4005 49.3122 64.5721C44.8062 64.7438 40.3508 63.5624 36.5096 61.1773C32.6683 58.7922 29.6136 55.3106 27.7316 51.1725C25.8496 47.0344 25.2249 42.4258 25.9364 37.9292C26.6479 33.4326 28.6637 29.2501 31.729 25.9103C34.7942 22.5705 38.7712 20.2235 43.1572 19.1659C46.0707 18.4635 49.0927 18.3475 52.0506 18.8248C55.0085 19.3021 57.8442 20.3632 60.3959 21.9476C62.9475 23.5319 65.165 25.6084 66.9217 28.0585C68.6784 30.5085 69.9399 33.2841 70.634 36.2266Z" fill="white"/>
</mask>
<g mask="url(#mask0_1_7182)">
<path d="M36.2154 57.1633C37.8008 57.1606 39.3226 56.5335 40.4572 55.4153C41.5918 54.2971 42.2497 52.7761 42.291 51.1757C42.3323 49.5753 41.7537 48.0217 40.6783 46.8454C39.6028 45.6691 38.1154 44.9628 36.5323 44.8768H36.233C36.2511 44.7026 36.2599 44.5275 36.2594 44.3523C36.2454 42.7139 35.589 41.1478 34.4339 39.9972C33.2788 38.8466 31.7192 38.2052 30.0967 38.2135H25.5407C25.0944 41.6175 25.3937 45.079 26.4175 48.3534C27.4413 51.6278 29.1646 54.6353 31.4657 57.1633H36.2154Z" fill="#F2F2F2"/>
<path d="M70.9157 37.28C70.92 37.2239 70.9109 37.1675 70.8893 37.1155C70.1541 33.1003 68.3475 29.364 65.6642 26.3093C65.3161 26.1668 64.9569 26.0538 64.5902 25.9715C63.6114 25.6859 62.5811 25.6291 61.5773 25.8056C60.5736 25.982 59.6229 26.387 58.7972 26.9898C57.9716 27.5926 57.2928 28.3774 56.8123 29.2847C56.3318 30.1919 56.0622 31.1977 56.024 32.2258C55.777 32.197 55.5287 32.1807 55.2801 32.1769C53.7577 32.176 52.2839 32.7187 51.1194 33.709C49.9549 34.6993 49.1746 36.0735 48.9164 37.5886C48.6583 39.1038 48.9389 40.6623 49.7087 41.9887C50.4786 43.3151 51.688 44.3239 53.1232 44.8368C53.764 45.0898 54.4468 45.2165 55.1349 45.2102H62.6753C65.7122 42.8923 68.4769 40.2317 70.9157 37.28Z" fill="#F2F2F2"/>
</g>
<path d="M78.8876 22.3354C76.5502 18.4059 71.0874 16.8768 63.4501 18.0236C60.8345 18.3988 58.2496 18.9663 55.7159 19.7217C57.7266 20.4219 59.6362 21.389 61.3944 22.5977C62.2748 22.3977 63.1904 22.1532 64.0355 22.0332C65.3916 21.8201 66.7614 21.7087 68.1337 21.6998C69.475 21.505 70.8432 21.6518 72.114 22.1269C73.3848 22.602 74.5178 23.3904 75.4101 24.4202C76.8319 26.8117 75.6346 30.9058 72.1175 35.6754C67.2331 41.8147 61.2479 46.9705 54.4746 50.8735C47.8559 55.0388 40.5213 57.9113 32.8523 59.3416C27.0418 60.2306 22.8864 59.3416 21.4645 56.9545C20.0427 54.5675 21.2488 50.4824 24.7704 45.7349C25.2106 45.1437 25.3118 44.8459 25.8048 44.2635C25.5726 42.2292 25.6051 40.1728 25.9017 38.147C24.3213 39.7457 22.8672 41.4668 21.5526 43.2945C16.9482 49.5177 15.7024 55.1009 18.031 59.0304C19.2637 60.6958 20.9078 62.0051 22.7989 62.8273C24.69 63.6496 26.7618 63.9559 28.8069 63.7157C30.3605 63.7075 31.9113 63.5827 33.4466 63.3423C41.6397 61.833 49.4782 58.7793 56.5523 54.3408C63.7771 50.1663 70.157 44.6527 75.3573 38.0892C79.9705 31.8526 81.2206 26.2694 78.8876 22.3354Z" fill="#50E6FF"/>
<defs>
<radialGradient id="paint0_radial_1_7182" cx="0" cy="0" r="1" gradientUnits="userSpaceOnUse" gradientTransform="translate(48.2226 41.0781) scale(23.009 23.0117)">
<stop offset="0.18" stop-color="#5EA0EF"/>
<stop offset="1" stop-color="#0078D4"/>
</radialGradient>
</defs>
</svg>
