<svg xmlns="http://www.w3.org/2000/svg" width="100" height="100" fill="none"><path fill="#465154" d="M9.051 89.858H7.48l-.775-2.223H3.31l-.748 2.223H1l3.231-8.735h1.611zm-2.725-3.4L5.13 82.98a4 4 0 0 1-.114-.524h-.027a3.6 3.6 0 0 1-.119.546l-1.184 3.454zM14.94 84.235l-3.327 4.534h3.315v1.098H9.645v-.53l3.399-4.596H9.962v-1.098h4.979zM21.412 89.858h-1.396v-.983h-.022a2.02 2.02 0 0 1-.778.854c-.336.202-.724.301-1.114.284q-2.202 0-2.202-2.667v-3.72h1.396v3.556q0 1.676 1.28 1.676a1.28 1.28 0 0 0 1.022-.445c.277-.34.42-.77.4-1.209v-3.578h1.396zM26.637 84.977a1.15 1.15 0 0 0-.727-.2 1.24 1.24 0 0 0-1.034.564 2.55 2.55 0 0 0-.414 1.538v2.979h-1.4v-6.224h1.396v1.28h.022c.11-.393.328-.748.63-1.022a1.4 1.4 0 0 1 .946-.369c.198-.01.397.029.576.116zM32.822 87.128h-4.2a1.8 1.8 0 0 0 .528 1.334c.384.33.88.496 1.383.467a3.03 3.03 0 0 0 1.813-.596v1.138a4.1 4.1 0 0 1-2.227.533 2.73 2.73 0 0 1-2.135-.849 3.4 3.4 0 0 1-.775-2.387 3.34 3.34 0 0 1 .85-2.369 2.764 2.764 0 0 1 2.117-.916 2.41 2.41 0 0 1 1.954.823c.495.65.74 1.46.691 2.28zm-1.348-.995a1.83 1.83 0 0 0-.356-1.183 1.19 1.19 0 0 0-.964-.444 1.35 1.35 0 0 0-1.021.444c-.29.321-.471.728-.515 1.16zM43.699 89.493a5.2 5.2 0 0 1-2.408.52 3.9 3.9 0 0 1-1.632-.273 4 4 0 0 1-1.38-.922 4.398 4.398 0 0 1-1.131-3.143c-.026-.621.073-1.24.292-1.822.219-.58.553-1.11.98-1.556a4.317 4.317 0 0 1 3.218-1.29c.71-.022 1.417.1 2.078.36v1.436a3.7 3.7 0 0 0-1.923-.524 3 3 0 0 0-2.272.889 3.355 3.355 0 0 0-.88 2.418 3.2 3.2 0 0 0 .814 2.294 2.83 2.83 0 0 0 2.135.853 3.8 3.8 0 0 0 2.109-.578zM47.748 90.013a3.03 3.03 0 0 1-2.275-.889 3.16 3.16 0 0 1-.85-2.311 3.1 3.1 0 0 1 .874-2.434 3.04 3.04 0 0 1 2.406-.896 2.93 2.93 0 0 1 2.249.858c.567.655.857 1.51.805 2.379a3.3 3.3 0 0 1-.88 2.386 3.12 3.12 0 0 1-2.329.907m.066-5.392a1.58 1.58 0 0 0-1.294.578 2.44 2.44 0 0 0-.475 1.592 2.3 2.3 0 0 0 .48 1.542 1.62 1.62 0 0 0 1.29.56 1.52 1.52 0 0 0 1.267-.551c.321-.458.477-1.014.44-1.574a2.5 2.5 0 0 0-.44-1.587 1.53 1.53 0 0 0-1.268-.569zM51.917 89.662v-1.307c.492.39 1.1.602 1.726.6q1.263 0 1.263-.755a.6.6 0 0 0-.11-.36 1 1 0 0 0-.29-.263 2.3 2.3 0 0 0-.44-.204l-.556-.205a6 6 0 0 1-.682-.32 2 2 0 0 1-.506-.386 1.5 1.5 0 0 1-.304-.49 1.8 1.8 0 0 1-.101-.64 1.5 1.5 0 0 1 .211-.79c.145-.234.339-.431.568-.579.248-.16.52-.279.806-.35.304-.08.618-.121.933-.12.52-.009 1.038.08 1.527.261v1.236c-.44-.3-.96-.455-1.492-.444a2 2 0 0 0-.48.053q-.194.046-.365.151a.7.7 0 0 0-.233.236.56.56 0 0 0-.084.302.65.65 0 0 0 .084.342c.063.1.15.184.25.245q.189.118.397.195l.532.192q.366.148.714.333.294.156.537.387c.146.14.263.31.343.498.084.213.124.441.119.67.007.291-.068.578-.216.828a1.8 1.8 0 0 1-.577.582c-.256.16-.537.276-.832.342-.326.076-.66.113-.994.111a4.2 4.2 0 0 1-1.748-.35M66.716 89.858h-1.395v-3.4a2.77 2.77 0 0 0-.273-1.419 1.01 1.01 0 0 0-.924-.444 1.1 1.1 0 0 0-.93.55 2.27 2.27 0 0 0-.382 1.334v3.365h-1.404v-3.507q0-1.738-1.215-1.738a1.09 1.09 0 0 0-.93.525 2.3 2.3 0 0 0-.364 1.333v3.365h-1.396V83.6h1.395v.982h.022c.19-.352.47-.644.815-.843.343-.2.735-.299 1.131-.286.401-.008.794.117 1.118.356.313.23.542.558.652.933.18-.392.47-.724.833-.953a2.2 2.2 0 0 1 1.214-.336q2.033 0 2.033 2.534zM71.07 90.013a3.03 3.03 0 0 1-2.276-.889 3.16 3.16 0 0 1-.85-2.311 3.1 3.1 0 0 1 .874-2.434 3.04 3.04 0 0 1 2.406-.896 2.93 2.93 0 0 1 2.25.858c.567.655.856 1.51.805 2.379a3.3 3.3 0 0 1-.88 2.386 3.12 3.12 0 0 1-2.33.907m.066-5.392a1.58 1.58 0 0 0-1.294.578 2.44 2.44 0 0 0-.476 1.592 2.3 2.3 0 0 0 .48 1.542 1.62 1.62 0 0 0 1.29.56 1.52 1.52 0 0 0 1.268-.551c.32-.458.476-1.014.44-1.574a2.5 2.5 0 0 0-.44-1.587 1.53 1.53 0 0 0-1.268-.569zM75.243 89.662v-1.307c.492.39 1.1.602 1.725.6q1.264 0 1.264-.755a.6.6 0 0 0-.11-.36 1 1 0 0 0-.29-.263 2.3 2.3 0 0 0-.441-.204l-.555-.205a6 6 0 0 1-.682-.32 2 2 0 0 1-.506-.386 1.5 1.5 0 0 1-.304-.49 1.8 1.8 0 0 1-.101-.64 1.5 1.5 0 0 1 .211-.79c.145-.234.339-.431.568-.579.248-.16.52-.279.805-.35q.46-.12.934-.12c.52-.009 1.038.08 1.527.261v1.236c-.44-.3-.961-.455-1.492-.444a2 2 0 0 0-.48.053 1.2 1.2 0 0 0-.365.151.74.74 0 0 0-.233.236.56.56 0 0 0-.084.302.65.65 0 0 0 .084.342c.063.1.15.184.25.245q.189.118.397.195l.532.192q.365.148.713.333.295.156.537.387c.147.14.264.31.344.498.084.213.124.441.118.67.008.291-.067.578-.215.828a1.8 1.8 0 0 1-.577.582 2.7 2.7 0 0 1-.832.342q-.49.114-.995.111a4.2 4.2 0 0 1-1.747-.35M84.487 89.858v-8.735h2.491q4.773 0 4.772 4.25a4.2 4.2 0 0 1-.308 1.766 4.2 4.2 0 0 1-1.012 1.474 5.02 5.02 0 0 1-3.553 1.222zm1.426-7.486v6.268h1.145a3.17 3.17 0 0 0 2.35-.84 3.2 3.2 0 0 0 .841-2.37q0-3.058-3.134-3.058zM93.154 89.858v-8.735h2.738a3.2 3.2 0 0 1 1.981.551 1.732 1.732 0 0 1 .73 1.44c.011.465-.135.92-.413 1.29a2.24 2.24 0 0 1-1.149.777v.023c.538.043 1.042.28 1.422.666a2.03 2.03 0 0 1 .533 1.463 2.21 2.21 0 0 1-.88 1.81 3.43 3.43 0 0 1-2.202.692zm1.427-7.557v2.48h.928c.42.027.835-.1 1.171-.355a1.24 1.24 0 0 0 .44-1.005q0-1.12-1.479-1.12zm0 3.64v2.739h1.223c.444.029.882-.104 1.237-.374a1.28 1.28 0 0 0 .44-1.03q0-1.335-1.857-1.334z"/><path fill="#50E6FF" d="M25.99 27.719a.65.65 0 0 1-.605-.402.7.7 0 0 1-.051-.252 7.6 7.6 0 0 0-2.192-5.343 7.45 7.45 0 0 0-5.291-2.214.65.65 0 0 1-.463-.192.665.665 0 0 1-.001-.934.65.65 0 0 1 .464-.194 7.45 7.45 0 0 0 5.291-2.213 7.6 7.6 0 0 0 2.192-5.344.66.66 0 0 1 .2-.448.65.65 0 0 1 .701-.135.65.65 0 0 1 .355.354q.05.12.051.252c0 2.004.789 3.926 2.192 5.343a7.45 7.45 0 0 0 5.291 2.213.65.65 0 0 1 .605.402.66.66 0 0 1-.347.862.6.6 0 0 1-.249.052 7.45 7.45 0 0 0-5.291 2.213 7.6 7.6 0 0 0-2.192 5.344.67.67 0 0 1-.203.453.65.65 0 0 1-.457.182M73.016 73.45a.52.52 0 0 1-.371-.154.53.53 0 0 1-.153-.374 6.07 6.07 0 0 0-1.753-4.257 5.95 5.95 0 0 0-4.216-1.767.53.53 0 0 1-.37-.899.52.52 0 0 1 .37-.154 5.95 5.95 0 0 0 4.22-1.767 6.06 6.06 0 0 0 1.749-4.26c0-.141.055-.276.153-.375a.521.521 0 0 1 .894.374 6.06 6.06 0 0 0 1.75 4.261 5.95 5.95 0 0 0 4.22 1.767c.138 0 .271.056.37.155a.532.532 0 0 1-.37.903 5.95 5.95 0 0 0-4.219 1.768 6.07 6.07 0 0 0-1.75 4.26.53.53 0 0 1-.157.368.52.52 0 0 1-.367.152"/><path fill="url(#a)" d="M70.634 36.227a23.24 23.24 0 0 1-.802 13.342 23 23 0 0 1-8.007 10.644 22.66 22.66 0 0 1-12.513 4.36 22.63 22.63 0 0 1-12.802-3.396 22.95 22.95 0 0 1-8.778-10.004 23.23 23.23 0 0 1-1.796-13.244A23.1 23.1 0 0 1 31.73 25.91a22.76 22.76 0 0 1 11.428-6.744 22.6 22.6 0 0 1 8.894-.341 22.7 22.7 0 0 1 8.345 3.123 22.9 22.9 0 0 1 6.526 6.11 23.1 23.1 0 0 1 3.712 8.169"/><mask id="b" width="47" height="47" x="25" y="18" maskUnits="userSpaceOnUse" style="mask-type:luminance"><path fill="#fff" d="M70.634 36.227a23.24 23.24 0 0 1-.802 13.342 23 23 0 0 1-8.007 10.644 22.66 22.66 0 0 1-12.513 4.36 22.63 22.63 0 0 1-12.802-3.396 22.95 22.95 0 0 1-8.778-10.004 23.23 23.23 0 0 1-1.796-13.244A23.1 23.1 0 0 1 31.73 25.91a22.76 22.76 0 0 1 11.428-6.744 22.6 22.6 0 0 1 8.894-.341 22.7 22.7 0 0 1 8.345 3.123 22.9 22.9 0 0 1 6.526 6.11 23.1 23.1 0 0 1 3.712 8.169"/></mask><g fill="#F2F2F2" mask="url(#b)"><path d="M36.215 57.163a6.06 6.06 0 0 0 4.242-1.748 6.18 6.18 0 0 0 1.834-4.24 6.18 6.18 0 0 0-1.613-4.33 6.06 6.06 0 0 0-4.146-1.968h-.299q.027-.262.026-.525a6.22 6.22 0 0 0-1.825-4.355 6.1 6.1 0 0 0-4.337-1.783H25.54a23.7 23.7 0 0 0 .877 10.14 23.5 23.5 0 0 0 5.048 8.81zM70.916 37.28a.36.36 0 0 0-.027-.165 22.5 22.5 0 0 0-5.225-10.806 7 7 0 0 0-1.074-.338 6.65 6.65 0 0 0-5.793 1.019 6.76 6.76 0 0 0-1.985 2.295 6.8 6.8 0 0 0-.788 2.94 7 7 0 0 0-.744-.048 6.42 6.42 0 0 0-4.16 1.532 6.53 6.53 0 0 0-2.204 3.88 6.57 6.57 0 0 0 .793 4.4 6.47 6.47 0 0 0 3.414 2.848c.641.253 1.324.38 2.012.373h7.54a50.2 50.2 0 0 0 8.24-7.93"/></g><path fill="#50E6FF" d="M78.888 22.335c-2.338-3.93-7.8-5.458-15.438-4.311-2.616.375-5.2.942-7.734 1.698 2.01.7 3.92 1.667 5.678 2.876.88-.2 1.796-.445 2.642-.565a27.6 27.6 0 0 1 4.098-.333 8.06 8.06 0 0 1 3.98.427 8.1 8.1 0 0 1 3.296 2.293c1.422 2.392.225 6.486-3.292 11.255a62.3 62.3 0 0 1-17.643 15.199 61.9 61.9 0 0 1-21.623 8.468c-5.81.889-9.966 0-11.387-2.387s-.216-6.473 3.305-11.22c.44-.591.542-.89 1.035-1.471-.232-2.035-.2-4.091.097-6.117a43 43 0 0 0-4.35 5.148c-4.604 6.223-5.85 11.806-3.521 15.735a11.8 11.8 0 0 0 4.768 3.797 11.65 11.65 0 0 0 6.008.889 31 31 0 0 0 4.64-.374 66 66 0 0 0 23.105-9.001 66.4 66.4 0 0 0 18.805-16.252c4.614-6.236 5.864-11.82 3.53-15.754"/><defs><radialGradient id="a" cx="0" cy="0" r="1" gradientTransform="matrix(23.009 0 0 23.0117 48.223 41.078)" gradientUnits="userSpaceOnUse"><stop offset=".18" stop-color="#5EA0EF"/><stop offset="1" stop-color="#0078D4"/></radialGradient></defs></svg>