<svg xmlns="http://www.w3.org/2000/svg" width="100" height="100" fill="none"><path fill="#0078D7" d="M65.072 1H36.036L21.518 26.317l14.518 25.48h29.036l14.41-25.48z"/><path fill="#fff" d="M46.422 29.42c-1.74 0-2.936 1.579-2.936 4.41 0 2.777 1.087 4.41 2.773 4.41 1.848 0 2.936-1.579 2.936-4.41.054-2.831-1.142-4.41-2.773-4.41m-.109 7.731c-1.087 0-1.74-1.198-1.74-3.321 0-2.287.816-3.484 1.74-3.484 1.088 0 1.74 1.197 1.74 3.32 0 2.124-.816 3.485-1.74 3.485M53.762 25.555c1.85 0 2.937-1.58 2.937-4.41 0-2.668-1.088-4.247-2.773-4.247-1.74 0-2.937 1.579-2.937 4.41 0 2.613 1.197 4.247 2.773 4.247m-1.576-4.41c0-2.287.815-3.485 1.74-3.485 1.087 0 1.74 1.198 1.74 3.321s-.653 3.485-1.74 3.485c-1.088 0-1.74-1.035-1.74-3.322M47.781 16.626h-1.087l-2.773 1.47.543 1.034 1.958-1.198v6.425h-2.23v1.198h5.438v-1.198H47.78zM54.687 36.498v-7.731h-1.033l-2.828 1.306.38 1.09 2.176-1.198v6.533h-2.284v1.034h5.6v-1.034z"/><path fill="#fff" d="M58.982 12.052H39.516c-2.12 0-3.86 1.742-3.97 3.866v22.54c0 2.123 1.74 3.865 3.97 3.865h21.587c2.12 0 3.86-1.742 3.97-3.865V18.096zm4.242 26.841c0 1.09-.925 1.852-1.85 1.852h-22.13c-1.087 0-1.74-.817-1.848-1.743V15.81c0-1.089.815-1.742 1.74-1.851h19.411v5.444h4.677z"/><path fill="#606060" d="M18.908 74.01h-2.23l-1.087-3.103h-4.785L9.773 74.01h-2.23l4.568-12.196h2.284zm-3.806-4.791-1.686-4.846a6 6 0 0 1-.163-.762H13.2a6 6 0 0 1-.163.762L11.35 69.22zM26.793 66.116l-4.677 6.37h4.677v1.524h-7.45v-.762l4.785-6.425h-4.35V65.3h7.015zM36.036 74.01H34.08V72.65h-.055c-.598 1.034-1.468 1.579-2.664 1.579-2.066 0-3.1-1.252-3.1-3.702v-5.227h1.958v5.009c0 1.579.598 2.341 1.794 2.341.599 0 1.088-.218 1.414-.653.38-.436.544-.98.544-1.688v-5.009h1.958v8.711zM43.649 67.15c-.218-.163-.598-.272-1.033-.272q-.898 0-1.468.817c-.381.544-.599 1.252-.599 2.177v4.192h-1.957v-8.71h1.957v1.796h.055c.217-.599.49-1.089.87-1.416s.87-.49 1.36-.49q.57 0 .815.164zM52.294 70.199h-5.926c0 .817.271 1.416.76 1.851q.735.654 1.958.653c.925 0 1.795-.272 2.556-.816v1.579c-.816.49-1.849.762-3.154.762s-2.284-.381-2.99-1.198-1.088-1.906-1.088-3.321c0-1.361.38-2.45 1.196-3.321s1.795-1.307 2.99-1.307q1.796 0 2.774 1.144c.653.762.979 1.85.979 3.212v.762zm-1.903-1.416q0-1.061-.49-1.633c-.325-.381-.76-.599-1.359-.599-.543 0-1.033.218-1.413.6-.38.435-.653.98-.707 1.632zM59.146 74.01V61.814h3.86c1.196 0 2.12.273 2.773.763.707.49 1.033 1.198 1.033 2.014 0 .708-.217 1.307-.598 1.797-.38.49-.924.87-1.63 1.089v.054c.815.109 1.522.381 2.01.926.49.544.762 1.198.762 2.069 0 1.034-.435 1.905-1.25 2.559q-1.224.98-3.1.98h-3.86zm2.011-10.617v3.485h1.305q1.06 0 1.632-.49c.38-.327.598-.817.598-1.416 0-1.034-.707-1.579-2.066-1.579zm0 5.118v3.866h1.74c.762 0 1.36-.164 1.74-.545.435-.326.599-.816.599-1.415 0-1.252-.87-1.906-2.61-1.906zM71.434 74.01h-1.957V61.107h1.957zM77.85 74.173c-1.359 0-2.392-.38-3.208-1.197-.815-.817-1.196-1.906-1.196-3.213 0-1.47.435-2.613 1.25-3.43.816-.816 1.958-1.252 3.372-1.252 1.36 0 2.393.381 3.154 1.198s1.142 1.906 1.142 3.321-.435 2.505-1.25 3.321c-.762.871-1.904 1.252-3.263 1.252m.11-7.513c-.762 0-1.36.272-1.85.817-.434.544-.652 1.306-.652 2.232 0 .925.218 1.633.707 2.178.435.544 1.033.762 1.794.762s1.36-.272 1.795-.762.598-1.252.598-2.178c0-.98-.218-1.688-.598-2.232q-.652-.817-1.795-.817M86.388 72.758l-.055 1.252h-1.957V61.107h1.957v5.716h.055c.652-1.143 1.685-1.742 2.936-1.742 1.087 0 1.957.381 2.555 1.144s.925 1.85.925 3.157c0 1.47-.327 2.614-1.033 3.485-.707.87-1.632 1.306-2.882 1.306-1.088 0-1.903-.49-2.501-1.415m-.055-3.485v1.09c0 .653.218 1.197.598 1.633s.925.653 1.523.653c.707 0 1.305-.272 1.74-.871.435-.6.598-1.361.598-2.396 0-.87-.218-1.524-.598-2.014s-.925-.708-1.577-.708c-.707 0-1.25.272-1.686.762-.38.49-.598 1.09-.598 1.851M21.029 94.427v-2.07c.163.164.435.327.652.436q.408.245.816.327c.272.054.598.163.87.218s.544.054.816.054c.87 0 1.468-.163 1.903-.435.435-.273.598-.708.598-1.253 0-.272-.055-.544-.218-.762a3 3 0 0 0-.598-.599c-.272-.163-.544-.326-.87-.49a21 21 0 0 0-1.087-.49 11 11 0 0 1-1.142-.653c-.38-.218-.653-.49-.925-.762a2.46 2.46 0 0 1-.598-.926c-.163-.327-.217-.762-.217-1.198 0-.599.108-1.088.38-1.47a3.1 3.1 0 0 1 1.034-1.034c.434-.272.924-.49 1.413-.599.544-.109 1.088-.218 1.631-.218 1.251 0 2.23.164 2.774.436v2.014c-.707-.49-1.577-.762-2.665-.762-.326 0-.598.055-.87.109s-.543.163-.815.272a1.7 1.7 0 0 0-.599.49c-.163.218-.217.436-.217.762 0 .273.054.49.163.708s.272.381.49.545q.326.244.815.49c.326.163.653.326 1.088.49.435.217.815.435 1.196.707q.57.327.979.817c.271.272.489.599.706.98.164.381.272.762.272 1.252 0 .6-.108 1.144-.38 1.58a3.1 3.1 0 0 1-1.033 1.034c-.435.272-.925.435-1.468.598a9 9 0 0 1-1.74.164c-.218 0-.436 0-.762-.055-.272-.054-.598-.054-.924-.163-.326-.054-.598-.109-.87-.218-.163-.109-.435-.218-.598-.326M34.949 94.808c-.38.218-.87.272-1.523.272-1.685 0-2.555-.817-2.555-2.45v-4.9h-1.468v-1.524h1.468V84.19l1.957-.544v2.559h2.066v1.524h-2.066v4.356c0 .49.109.87.272 1.088s.49.327.924.327c.327 0 .599-.109.87-.272v1.579zM40.386 95.08c-1.36 0-2.392-.381-3.208-1.198-.816-.816-1.196-1.905-1.196-3.212 0-1.47.435-2.613 1.25-3.43.816-.817 1.958-1.252 3.372-1.252 1.36 0 2.392.38 3.154 1.198.76.816 1.141 1.905 1.141 3.32 0 1.416-.435 2.505-1.25 3.322-.761.87-1.849 1.252-3.263 1.252m.109-7.513c-.761 0-1.36.272-1.849.816-.435.545-.652 1.307-.652 2.233 0 .925.217 1.633.707 2.177.435.545 1.033.763 1.794.763s1.36-.273 1.794-.763c.435-.49.599-1.252.599-2.177 0-.98-.218-1.688-.599-2.233q-.653-.816-1.794-.816M51.968 88.057c-.217-.164-.598-.273-1.033-.273q-.898 0-1.468.817c-.38.545-.598 1.252-.598 2.178v4.192H46.91V86.26h1.958v1.797h.054c.218-.6.49-1.09.87-1.416.38-.327.87-.49 1.36-.49q.57 0 .815.163zM60.07 94.917h-1.958v-1.361c-.598 1.034-1.468 1.579-2.664 1.579-.87 0-1.522-.218-2.012-.708s-.707-1.09-.707-1.851c0-1.634.925-2.614 2.828-2.886l2.61-.381c0-1.252-.598-1.851-1.794-1.851-1.034 0-1.958.38-2.828 1.089v-1.742c.924-.545 1.957-.817 3.154-.817 2.175 0 3.317 1.089 3.317 3.266v5.663zm-1.903-4.301-1.849.272c-.544.054-.979.218-1.305.435-.272.218-.435.545-.435 1.035 0 .38.109.653.38.925.273.218.599.327 1.034.327q.897 0 1.468-.653c.38-.436.598-.98.598-1.58v-.761zM70.347 94.209c0 3.212-1.631 4.791-4.84 4.791-1.141 0-2.12-.163-2.99-.544v-1.797c.979.544 1.849.817 2.719.817 2.066 0 3.099-1.035 3.099-3.05v-.98h-.054c-.653 1.09-1.632 1.689-2.937 1.689-1.033 0-1.903-.382-2.555-1.144q-.98-1.143-.979-3.103c0-1.47.326-2.668 1.033-3.54.707-.87 1.631-1.306 2.882-1.306 1.142 0 2.012.49 2.556 1.416h.054V86.26h1.958v7.949zm-1.903-3.321v-1.144c0-.598-.218-1.143-.598-1.578-.381-.436-.925-.654-1.523-.654-.761 0-1.36.272-1.74.817-.435.544-.652 1.307-.652 2.341 0 .871.217 1.525.598 2.069.38.49.924.762 1.631.762s1.25-.272 1.631-.762c.435-.436.653-1.089.653-1.851M80.298 91.106H74.37c0 .816.272 1.415.76 1.85q.735.654 1.958.654c.925 0 1.795-.272 2.556-.817v1.58c-.816.49-1.849.761-3.154.761s-2.284-.38-2.99-1.197-1.088-1.906-1.088-3.321c0-1.362.38-2.45 1.196-3.322.816-.87 1.795-1.306 2.991-1.306q1.794 0 2.773 1.143c.653.762.979 1.851.979 3.212v.763zm-1.904-1.416q0-1.062-.489-1.633c-.326-.381-.761-.6-1.36-.6-.543 0-1.032.219-1.413.6-.38.435-.653.98-.707 1.633z"/></svg>