<?xml version="1.0" encoding="UTF-8"?>
<svg id="Layer_1" xmlns="http://www.w3.org/2000/svg" viewBox="0 0 120 120">
  <defs>
    <style>
      .cls-1 {
        fill: #ff3d2e;
      }

      .cls-2 {
        fill: #6a797d;
      }

      .cls-3 {
        fill: none;
        stroke-width: .11px;
      }

      .cls-3, .cls-4 {
        stroke: #17313b;
        stroke-miterlimit: 10;
      }

      .cls-5 {
        fill: #17313b;
      }

      .cls-6, .cls-4 {
        fill: #fff;
      }

      .cls-7 {
        isolation: isolate;
      }

      .cls-4 {
        stroke-width: .22px;
      }
    </style>
  </defs>
  <polygon class="cls-6" points="115.2 30.26 115.2 89.74 60.15 119.48 5.1 89.74 5.1 30.26 60.15 .52 115.2 30.26"/>
  <path class="cls-2" d="M60,120l-.21-.11L4.5,90.01V30l.24-.13L60,0l.21.11,55.29,29.89v60.03l-55.5,29.97ZM5.4,89.47l54.6,29.5,54.6-29.5V30.53L60,1.03,5.4,30.53v58.94Z"/>
  <polygon class="cls-2" points="112.5 31.88 112.5 88.12 60 116.25 7.5 88.12 7.5 31.88 60 3.75 112.5 31.88"/>
  <rect class="cls-5" x="7.5" y="43.5" width="105" height="33"/>
  <polygon class="cls-4" points="107.4 34.12 107.4 85.88 60.15 111.75 12.9 85.88 12.9 34.12 60.15 8.25 107.4 34.12"/>
  <rect class="cls-5" x="9" y="46.5" width="102" height="27"/>
  <line class="cls-3" x1="20.25" y1="76.5" x2="99.75" y2="76.5"/>
  <line class="cls-3" x1="20.25" y1="43.5" x2="99.75" y2="43.5"/>
  <rect class="cls-6" x="46.53" y="52.8" width="2.7" height="14.1"/>
  <path class="cls-6" d="M57.93,62.7c0,2.2-2.08,2.37-2.66,2.37-1.46,0-1.84-1.28-1.84-2.06v-5.41h-2.1v5.4c0,1.36.43,2.49,1.23,3.23.79.69,1.81,1.06,2.85,1.03.89-.02,1.76-.29,2.52-.76v.4h2.4v-9.3h-2.4v5.1h0Z"/>
  <polygon class="cls-6" points="65.43 54.3 62.73 54.3 62.73 57.6 61.23 57.6 61.23 59.4 62.73 59.4 62.73 66.9 65.43 66.9 65.43 59.4 67.23 59.4 67.23 57.6 65.43 57.6 65.43 54.3"/>
  <path class="cls-6" d="M75,64.31c-.57.46-1.28.71-2.01.7-1.71,0-2.96-1.17-2.96-2.78s1.2-2.73,2.96-2.73c.74-.01,1.45.23,2.03.69l.37.3,1.66-1.55-.41-.35c-1.03-.85-2.32-1.3-3.66-1.29-3.07,0-5.3,2.07-5.3,4.92s2.28,4.98,5.3,4.98c1.34.02,2.64-.44,3.67-1.3l.4-.35-1.68-1.55-.36.31h0Z"/>
  <path class="cls-6" d="M85.87,58.48c-.8-.69-1.83-1.06-2.89-1.02-.91-.01-1.8.25-2.55.76v-5.41h-2.4v14.1h2.4v-4.89c0-2.2,1.93-2.37,2.51-2.37,1.46,0,1.69,1.29,1.69,2.06v5.2h2.4v-5.19c0-1.36-.35-2.48-1.16-3.23h0Z"/>
  <ellipse class="cls-1" cx="72.89" cy="62.25" rx="1.77" ry="1.66"/>
  <path class="cls-6" d="M43.57,63.63c-.95.9-2.22,1.4-3.53,1.39-2.74,0-4.72-2.01-4.72-4.77s1.99-4.78,4.72-4.78c1.31,0,2.57.49,3.52,1.37l.37.35,1.64-1.54-.36-.35c-1.4-1.32-3.25-2.05-5.18-2.02-4.03,0-7.06,3-7.06,6.98s3.04,6.95,7.06,6.95c1.93.02,3.79-.71,5.19-2.04l.36-.35-1.63-1.56-.39.37h0Z"/>
  <g class="cls-7">
    <path class="cls-5" d="M55.26,26.01v-4.07h-1.52v-.54h3.66v.54h-1.53v4.07h-.61Z"/>
    <path class="cls-5" d="M58.36,23.76c0-.77.21-1.37.62-1.8.41-.43.94-.65,1.59-.65.43,0,.81.1,1.15.31s.6.49.78.85c.18.36.27.78.27,1.24s-.09.89-.28,1.26-.46.65-.8.84c-.35.19-.72.28-1.12.28-.43,0-.82-.1-1.16-.31-.34-.21-.6-.5-.78-.86s-.26-.75-.26-1.15ZM58.99,23.77c0,.56.15.99.45,1.31.3.32.67.48,1.12.48s.84-.16,1.13-.48c.3-.32.45-.78.45-1.38,0-.38-.06-.7-.19-.98-.13-.28-.31-.5-.56-.65-.24-.15-.52-.23-.82-.23-.43,0-.8.15-1.12.45-.31.3-.47.79-.47,1.49Z"/>
    <path class="cls-5" d="M64.21,26.01v-4.61h1.74c.31,0,.54.01.7.04.23.04.42.11.57.22.15.11.28.25.37.45.09.19.14.4.14.63,0,.39-.12.72-.37,1-.25.27-.7.41-1.35.41h-1.18v1.88h-.61ZM64.82,23.59h1.19c.39,0,.67-.07.84-.22s.25-.35.25-.62c0-.19-.05-.36-.15-.5-.1-.14-.23-.23-.39-.27-.1-.03-.29-.04-.57-.04h-1.18v1.65Z"/>
  </g>
  <g class="cls-7">
    <path class="cls-5" d="M39.57,34.53l.58-.05c.03.23.09.42.19.57.1.15.25.27.46.36.21.09.45.14.71.14.23,0,.44-.03.62-.1.18-.07.31-.16.4-.28.09-.12.13-.25.13-.39s-.04-.27-.13-.38c-.08-.11-.22-.2-.42-.27-.12-.05-.4-.12-.82-.22-.42-.1-.72-.2-.89-.29-.22-.12-.38-.26-.49-.43-.11-.17-.16-.36-.16-.57,0-.23.07-.45.2-.65.13-.2.33-.36.58-.46.25-.1.54-.16.85-.16.34,0,.64.06.9.17.26.11.46.27.6.49.14.21.22.46.23.73l-.59.04c-.03-.29-.14-.51-.32-.66-.18-.15-.45-.22-.8-.22s-.64.07-.81.2c-.17.14-.25.3-.25.49,0,.17.06.3.18.41.12.11.42.22.92.33.5.11.84.21,1.02.29.27.12.47.28.59.47.13.19.19.41.19.66s-.07.48-.21.69c-.14.22-.34.39-.61.51-.26.12-.56.18-.89.18-.42,0-.77-.06-1.05-.18-.28-.12-.5-.3-.66-.55-.16-.24-.24-.52-.25-.83Z"/>
    <path class="cls-5" d="M44.53,33.76c0-.77.21-1.37.62-1.8.41-.43.94-.65,1.59-.65.43,0,.81.1,1.15.31s.6.49.78.85c.18.36.27.78.27,1.24s-.09.89-.28,1.26-.46.65-.8.84c-.35.19-.72.28-1.12.28-.43,0-.82-.1-1.16-.31-.34-.21-.6-.5-.78-.86s-.26-.75-.26-1.15ZM45.16,33.77c0,.56.15.99.45,1.31.3.32.67.48,1.12.48s.84-.16,1.13-.48c.3-.32.45-.78.45-1.38,0-.38-.06-.7-.19-.98-.13-.28-.31-.5-.56-.65-.24-.15-.52-.23-.82-.23-.43,0-.8.15-1.12.45-.31.3-.47.79-.47,1.49Z"/>
    <path class="cls-5" d="M50.41,36.01v-4.61h3.11v.54h-2.5v1.43h2.16v.54h-2.16v2.1h-.61Z"/>
    <path class="cls-5" d="M56.13,36.01v-4.07h-1.52v-.54h3.66v.54h-1.53v4.07h-.61Z"/>
    <path class="cls-5" d="M60.35,36.01l-1.22-4.61h.63l.7,3.02c.08.32.14.63.2.94.12-.49.19-.78.21-.85l.88-3.12h.74l.66,2.33c.17.58.29,1.12.36,1.63.06-.29.14-.63.23-1l.72-2.96h.61l-1.26,4.61h-.59l-.97-3.51c-.08-.29-.13-.47-.14-.54-.05.21-.09.39-.14.54l-.98,3.51h-.62Z"/>
    <path class="cls-5" d="M65.52,36.01l1.77-4.61h.66l1.89,4.61h-.7l-.54-1.4h-1.93l-.51,1.4h-.65ZM66.85,34.12h1.56l-.48-1.28c-.15-.39-.26-.71-.33-.96-.06.3-.14.59-.25.88l-.51,1.35Z"/>
    <path class="cls-5" d="M70.98,36.01v-4.61h2.05c.41,0,.72.04.94.12.21.08.38.23.51.44s.19.44.19.7c0,.33-.11.6-.32.83s-.54.37-.98.43c.16.08.28.15.37.23.18.16.35.37.51.61l.8,1.26h-.77l-.61-.96c-.18-.28-.33-.49-.44-.64s-.22-.25-.31-.31c-.09-.06-.18-.1-.28-.12-.07-.01-.18-.02-.34-.02h-.71v2.05h-.61ZM71.59,33.43h1.31c.28,0,.5-.03.65-.09.16-.06.28-.15.36-.28.08-.13.12-.26.12-.41,0-.22-.08-.4-.24-.54-.16-.14-.41-.21-.75-.21h-1.46v1.53Z"/>
    <path class="cls-5" d="M76.28,36.01v-4.61h3.34v.54h-2.73v1.41h2.55v.54h-2.55v1.57h2.83v.54h-3.44Z"/>
  </g>
  <g class="cls-7">
    <path class="cls-5" d="M35.75,86.11v-4.61h1.59c.36,0,.63.02.82.07.26.06.49.17.68.33.24.21.43.47.55.79.12.32.18.69.18,1.1,0,.35-.04.66-.12.93s-.19.49-.31.67c-.13.18-.27.32-.42.42-.15.1-.34.18-.55.23-.22.05-.46.08-.74.08h-1.66ZM36.36,85.57h.98c.3,0,.54-.03.72-.08s.31-.14.41-.24c.14-.14.26-.34.34-.58.08-.24.12-.54.12-.89,0-.48-.08-.85-.24-1.11-.16-.26-.35-.43-.58-.52-.16-.06-.43-.09-.79-.09h-.97v3.52Z"/>
    <path class="cls-5" d="M41.06,86.11v-4.61h3.34v.54h-2.73v1.41h2.55v.54h-2.55v1.57h2.83v.54h-3.44Z"/>
    <path class="cls-5" d="M47.31,86.11l-1.79-4.61h.66l1.2,3.35c.1.27.18.52.24.76.07-.25.15-.5.25-.76l1.25-3.35h.62l-1.81,4.61h-.63Z"/>
    <path class="cls-5" d="M50.95,86.11v-4.61h3.34v.54h-2.73v1.41h2.55v.54h-2.55v1.57h2.83v.54h-3.44Z"/>
    <path class="cls-5" d="M55.85,86.11v-4.61h.61v4.07h2.27v.54h-2.88Z"/>
    <path class="cls-5" d="M59.92,83.86c0-.77.21-1.37.62-1.8.41-.43.94-.65,1.59-.65.43,0,.81.1,1.15.31.34.2.6.49.78.85.18.36.27.78.27,1.24s-.09.89-.28,1.26-.46.65-.8.84c-.35.19-.72.28-1.12.28-.43,0-.82-.1-1.16-.31-.34-.21-.6-.5-.78-.86s-.26-.75-.26-1.15ZM60.55,83.87c0,.56.15.99.45,1.31.3.32.67.48,1.13.48s.84-.16,1.13-.48.45-.78.45-1.38c0-.38-.06-.7-.19-.98-.13-.28-.31-.5-.56-.65-.24-.15-.52-.23-.82-.23-.43,0-.8.15-1.12.45-.31.3-.47.79-.47,1.49Z"/>
    <path class="cls-5" d="M65.76,86.11v-4.61h1.74c.31,0,.54.01.7.04.23.04.42.11.57.22.15.11.28.25.37.45.09.19.14.4.14.63,0,.39-.12.72-.37,1-.25.27-.7.41-1.35.41h-1.18v1.88h-.61ZM66.37,83.69h1.19c.39,0,.67-.07.84-.22.17-.15.25-.35.25-.62,0-.19-.05-.36-.15-.5-.1-.14-.23-.23-.39-.27-.1-.03-.29-.04-.57-.04h-1.18v1.65Z"/>
    <path class="cls-5" d="M70.72,86.11v-4.61h3.34v.54h-2.73v1.41h2.55v.54h-2.55v1.57h2.83v.54h-3.44Z"/>
    <path class="cls-5" d="M75.66,86.11v-4.61h2.05c.41,0,.72.04.94.12.21.08.38.23.51.44s.19.44.19.7c0,.33-.11.6-.32.83s-.54.37-.98.43c.16.08.28.15.37.23.18.16.35.37.51.61l.8,1.26h-.77l-.61-.96c-.18-.28-.33-.49-.44-.64s-.22-.25-.31-.31c-.09-.06-.18-.1-.28-.12-.07-.01-.18-.02-.34-.02h-.71v2.05h-.61ZM76.27,83.53h1.31c.28,0,.5-.03.65-.09.16-.06.28-.15.36-.28.08-.13.12-.26.12-.41,0-.22-.08-.4-.24-.54-.16-.14-.41-.21-.75-.21h-1.46v1.53Z"/>
    <path class="cls-5" d="M80.74,84.63l.58-.05c.03.23.09.42.19.57.1.15.25.27.46.36.21.09.45.14.71.14.23,0,.44-.03.62-.1s.31-.16.4-.28c.09-.12.13-.25.13-.39s-.04-.27-.13-.38c-.08-.11-.22-.2-.42-.27-.12-.05-.4-.12-.82-.22-.42-.1-.72-.2-.89-.29-.22-.12-.38-.26-.49-.43-.11-.17-.16-.36-.16-.57,0-.23.07-.45.2-.65.13-.2.33-.36.58-.46s.54-.16.85-.16c.34,0,.64.06.9.17.26.11.46.27.6.49s.22.46.23.73l-.59.04c-.03-.29-.14-.51-.32-.66-.18-.15-.45-.22-.8-.22s-.64.07-.81.2c-.17.14-.25.3-.25.49,0,.17.06.3.18.41.12.11.42.22.92.33.5.11.84.21,1.02.29.27.12.47.28.59.47.13.19.19.41.19.66s-.07.48-.21.69c-.14.22-.34.39-.61.51-.26.12-.56.18-.89.18-.42,0-.77-.06-1.05-.18-.28-.12-.5-.3-.66-.55-.16-.24-.24-.52-.25-.83Z"/>
  </g>
  <g class="cls-7">
    <path class="cls-5" d="M55.11,95.57v.54h-3.05c0-.14.02-.27.07-.39.08-.21.2-.41.37-.61.17-.2.42-.43.74-.7.5-.41.84-.74,1.02-.98.18-.24.26-.47.26-.68,0-.22-.08-.41-.24-.57-.16-.15-.37-.23-.63-.23-.27,0-.49.08-.65.25s-.25.39-.25.68l-.58-.06c.04-.43.19-.77.45-.99.26-.23.61-.34,1.05-.34s.79.12,1.05.37.39.55.39.91c0,.18-.04.37-.11.54s-.2.37-.38.56c-.18.2-.47.47-.87.81-.34.29-.56.48-.65.58-.1.1-.18.2-.24.31h2.26Z"/>
    <path class="cls-5" d="M56.36,93.84c0-.55.06-.98.17-1.32.11-.33.28-.59.5-.77.22-.18.5-.27.84-.27.25,0,.46.05.65.15.19.1.34.24.46.43.12.19.22.42.29.69.07.27.1.63.1,1.09,0,.54-.06.98-.17,1.31-.11.33-.28.59-.5.77-.22.18-.5.27-.84.27-.44,0-.79-.16-1.05-.48-.3-.38-.46-1.01-.46-1.88ZM56.94,93.84c0,.76.09,1.26.27,1.51.18.25.4.38.66.38s.48-.13.66-.38c.18-.25.27-.76.27-1.51s-.09-1.26-.27-1.51c-.18-.25-.4-.37-.66-.37s-.47.11-.62.33c-.2.28-.29.8-.29,1.56Z"/>
    <path class="cls-5" d="M63.57,95.57v.54h-3.05c0-.14.02-.27.07-.39.08-.21.2-.41.37-.61s.42-.43.74-.7c.5-.41.84-.74,1.02-.98.18-.24.26-.47.26-.68,0-.22-.08-.41-.24-.57-.16-.15-.37-.23-.63-.23-.27,0-.49.08-.65.25s-.25.39-.25.68l-.58-.06c.04-.43.19-.77.45-.99.26-.23.61-.34,1.05-.34s.79.12,1.05.37.39.55.39.91c0,.18-.04.37-.11.54s-.2.37-.38.56-.47.47-.87.81c-.34.29-.56.48-.65.58-.1.1-.18.2-.24.31h2.26Z"/>
    <path class="cls-5" d="M64.82,93.84c0-.55.06-.98.17-1.32.11-.33.28-.59.5-.77s.5-.27.84-.27c.25,0,.46.05.65.15.19.1.34.24.46.43.12.19.22.42.29.69.07.27.1.63.1,1.09,0,.54-.06.98-.17,1.31-.11.33-.28.59-.5.77-.22.18-.5.27-.84.27-.44,0-.79-.16-1.05-.48-.3-.38-.46-1.01-.46-1.88ZM65.4,93.84c0,.76.09,1.26.27,1.51.18.25.4.38.66.38s.48-.13.66-.38c.18-.25.27-.76.27-1.51s-.09-1.26-.27-1.51c-.18-.25-.4-.37-.66-.37s-.47.11-.62.33c-.2.28-.29.8-.29,1.56Z"/>
  </g>
</svg>