<?xml version="1.0" encoding="UTF-8"?>
<svg id="Layer_1" xmlns="http://www.w3.org/2000/svg" xmlns:xlink="http://www.w3.org/1999/xlink" viewBox="0 0 120 120">
  <defs>
    <style>
      .cls-1, .cls-2 {
        stroke-width: 1.42px;
      }

      .cls-1, .cls-2, .cls-3 {
        fill: #fcb824;
        stroke: #fff;
      }

      .cls-1, .cls-3 {
        stroke-linejoin: round;
      }

      .cls-4 {
        fill: #fff;
      }

      .cls-5 {
        mask: url(#mask);
      }

      .cls-6 {
        fill: rgba(255, 255, 255, .15);
      }

      .cls-3 {
        stroke-width: .71px;
      }
    </style>
    <mask id="mask" x="7.13" y="13.25" width="92.88" height="92.85" maskUnits="userSpaceOnUse">
      <g id="mask0">
        <path d="M57.01,13.25l3.55,4.07,4.67-2.72,2.77,4.64,5.08-1.84,1.9,5.06,5.33-.9.96,5.32,5.4.06v5.4s5.3,1.03,5.3,1.03l-.97,5.32,5.04,1.96-1.9,5.06,4.61,2.83-2.77,4.64,4.03,3.6-3.56,4.07,3.32,4.26-4.23,3.37,2.5,4.79-4.76,2.56,1.61,5.16-5.14,1.67.66,5.36-5.35.72-.31,5.39-5.4-.24-1.26,5.25-5.27-1.2-2.18,4.94-4.97-2.13-3.03,4.47-4.51-2.98-3.78,3.86-3.9-3.74-4.41,3.12-3.17-4.37-4.9,2.29-2.34-4.87-5.23,1.38-1.44-5.21-5.39.42-.48-5.38-5.38-.55.49-5.38-5.19-1.5,1.44-5.21-4.84-2.4,2.35-4.87-4.33-3.23,3.18-4.37-3.69-3.95,3.91-3.73-2.92-4.54,4.51-2.98-2.07-4.99,4.97-2.12-1.14-5.28,5.27-1.2-.18-5.4,5.4-.24.79-5.35,5.35.73,1.73-5.12,5.14,1.67,2.62-4.73,4.76,2.56,3.42-4.18,4.22,3.37,4.11-3.51Z"/>
      </g>
    </mask>
  </defs>
  <path class="cls-3" d="M1.4,78.13c-.15,0-.29.08-.36.21-.07.13-.05.29.04.4l5.43,7.12-5.43,7.12c-.09.12-.1.27-.04.4.07.13.21.21.36.21h117.2c.15,0,.29-.08.36-.21.07-.13.06-.28-.03-.4l-5.18-7.12,5.18-7.12c.09-.12.1-.27.03-.4-.07-.13-.21-.21-.36-.21H1.4Z"/>
  <path class="cls-3" d="M64.26,9.04c-.14-.16-.39-.18-.56-.04l-4.4,3.62-4.52-3.48c-.17-.13-.42-.11-.56.06l-3.66,4.32-5.09-2.65c-.19-.1-.43-.03-.54.15l-2.8,4.88-5.5-1.73c-.21-.07-.43.04-.5.24l-1.85,5.29-5.73-.75c-.22-.03-.42.12-.45.33l-.84,5.52-5.78.25c-.22,0-.39.19-.38.4l.19,5.58-5.64,1.24c-.21.05-.35.25-.3.46l1.22,5.46-5.32,2.19c-.2.08-.3.31-.21.5l2.21,5.16-4.83,3.07c-.18.12-.23.35-.12.53l3.13,4.69-4.18,3.86c-.16.15-.17.39-.02.54l3.95,4.08-3.4,4.52c-.13.17-.09.41.08.54l4.64,3.33-2.51,5.03c-.1.19-.01.42.18.51l5.18,2.48-1.54,5.38c-.06.2.06.42.27.47l5.56,1.55-.52,5.56c-.02.21.14.4.36.42l5.75.57.52,5.56c.02.21.21.37.43.35l5.76-.44,1.54,5.38c.06.2.28.33.49.27l5.59-1.42,2.51,5.03c.1.19.33.27.53.18l5.24-2.36,3.4,4.52c.13.17.38.21.56.09l4.72-3.23,4.18,3.86c.16.15.41.14.56,0l4.04-3.99,4.82,3.08c.18.12.43.07.55-.11l3.24-4.62,5.32,2.2c.2.08.44,0,.52-.2l2.33-5.11,5.64,1.24c.21.05.43-.08.48-.29l1.35-5.43,5.78.25c.22,0,.41-.15.42-.36l.33-5.57,5.73-.75c.22-.03.37-.22.34-.43l-.71-5.54,5.5-1.72c.21-.07.32-.28.26-.48l-1.72-5.33,5.09-2.64c.19-.1.27-.33.17-.52l-2.68-4.95,4.52-3.48c.17-.13.2-.37.07-.54l-3.55-4.41,3.81-4.2c.14-.16.13-.4-.03-.54l-4.31-3.72,2.97-4.79c.11-.18.05-.42-.13-.53l-4.93-2.92,2.03-5.23c.08-.2-.03-.42-.23-.5l-5.39-2.02,1.03-5.49c.04-.21-.1-.41-.32-.45l-5.68-1.06v-5.58c0-.21-.17-.38-.39-.39l-5.78-.06-1.03-5.49c-.04-.21-.24-.35-.46-.31l-5.7.93-2.03-5.23c-.08-.2-.3-.3-.51-.23l-5.44,1.9-2.96-4.79c-.11-.18-.36-.24-.55-.14l-5,2.81-3.8-4.21Z"/>
  <ellipse class="cls-2" cx="60" cy="59.83" rx="45.52" ry="43.95"/>
  <g class="cls-5">
    <circle class="cls-6" cx="60.68" cy="66.63" r="25.02"/>
  </g>
  <path class="cls-1" d="M103.42,98.41h0s0,0,0,0h0c.35.17.77.07,1.01-.23l-.64-.46q.64.46.64.46h0s0,0,0,0h0s.02-.04.02-.04c.02-.03.05-.06.08-.11.07-.1.18-.23.3-.41.26-.35.61-.83,1-1.4.78-1.12,1.74-2.57,2.39-3.83,1.43-2.77,2.56-5.75,2.73-6.33.06-.2.02-.37,0-.44-.03-.09-.06-.16-.09-.2-.05-.09-.12-.18-.18-.26-.13-.15-.3-.33-.52-.52-.44-.39-1.09-.89-1.99-1.47-1.8-1.16-4.59-2.64-8.61-4.09-8.03-2.91-20.95-5.72-40.51-5.72s-32.05,2.75-38.76,5.59c-3.36,1.42-5.46,2.87-6.72,4.03-.63.57-1.06,1.08-1.33,1.47-.14.19-.24.37-.31.52-.03.07-.07.15-.09.24-.01.04-.03.1-.03.17,0,.05-.02.18.03.34.08.25.46,1.17.98,2.28.52,1.13,1.2,2.51,1.9,3.68.66,1.12,1.52,2.39,2.27,3.45.74,1.04,1.41,1.92,1.7,2.23.19.2.43.27.64.28.18,0,.32-.04.4-.07.16-.06.32-.16.45-.23.1-.06.21-.13.32-.2.23-.15.51-.32.88-.54,1.08-.63,2.83-1.52,5.61-2.44,5.57-1.83,15.3-3.76,32.06-3.76,14,0,25.11,2.02,32.71,4.03,3.8,1.01,6.72,2.01,8.69,2.76.98.38,1.73.69,2.22.91.25.11.43.19.56.25.06.03.11.05.14.06,0,0,.01,0,.02,0h.01s0,.01,0,.01Z"/>
  <path class="cls-4" d="M32.19,37.71s1.34.05,2.46-1.05c1.05-1.03.99-2.3.16-3.09-1.75-1.65-4.01,1.15-5.12.09-.43-.4-.39-1.13.17-1.69.67-.66,1.62-.7,1.62-.7l-.29-.92s-1.06,0-2.04.96c-.99.98-1.04,2.31-.2,3.1,1.65,1.57,3.96-1.19,5.13-.09.51.48.37,1.16-.12,1.65-.78.77-1.93.78-1.93.78l.15.95Z"/>
  <path class="cls-4" d="M34.7,32.73c1,1.24,2.68,1.44,4.02.43,1.11-.84,1.17-1.94,1.17-1.94l-.79-.33s-.08.95-.87,1.54c-.88.67-2.03.49-2.7-.34-.68-.85-.56-1.93.3-2.58.72-.55,1.56-.42,1.56-.42l-.06-.85s-1.02-.2-2.09.6c-1.34,1.01-1.53,2.65-.54,3.87Z"/>
  <path class="cls-4" d="M40.83,31.48l.88-.52-1.15-1.82c-.17-.27-.32-.56-.4-.87-.21-.78.07-1.48.63-1.81.14-.08.27-.12.27-.12l-.53-.85s-.12.05-.24.12c-.71.42-.93,1.25-.73,2.02h-.02s-.08-.15-.19-.33l-.49-.77-.86.5,2.81,4.45Z"/>
  <path class="cls-4" d="M42.66,28.15c.59,1.26,1.43,1.57,2.54,1.08.96-.42,1.31-1.32,1.29-1.88h.02s.05.15.14.35l.3.63.91-.4-2.24-4.75-.94.41,1.05,2.22c.44.94.25,2.05-.75,2.49-.79.35-1.17-.12-1.48-.78l-1.34-2.83-.94.41,1.43,3.04Z"/>
  <path class="cls-4" d="M48.47,27.6l1.02-.17-.43-2.35c-.04-.23-.07-.47-.06-.68.07-.77.5-1.48,1.28-1.61.82-.14,1.04.46,1.16,1.13l.56,3.08,1.02-.17-.43-2.35c-.05-.26-.07-.5-.06-.72.06-.73.51-1.44,1.26-1.56.8-.14,1.05.41,1.18,1.13l.56,3.08,1.02-.17-.6-3.29c-.24-1.31-.92-1.88-2.11-1.67-.86.15-1.5.82-1.68,1.49h-.02c-.32-.74-.92-1.05-1.81-.89-.83.14-1.47.85-1.62,1.49h-.02s-.01-.17-.05-.38l-.12-.68-.99.17.93,5.14Z"/>
  <path class="cls-4" d="M64.24,26.35l1.1.04-2.42-7.38-1.11-.04-3,7.17,1.09.04.83-2.06,2.84.11.67,2.12ZM62.34,20s.13.67.25,1.04l.74,2.34-2.28-.09.94-2.28c.14-.37.34-1.02.34-1.02h.02Z"/>
  <path class="cls-4" d="M66.17,25.25c-.22,1.29.61,1.58,1.19,1.67.18.03.34.03.34.03l.15-.88s-.09,0-.18-.02c-.32-.05-.55-.2-.45-.82l.95-5.61-1.02-.16-.98,5.78Z"/>
  <path class="cls-4" d="M68.59,25.7c-.32,1.27.49,1.62,1.06,1.75.18.04.34.06.34.06l.21-.86s-.09,0-.18-.03c-.31-.07-.53-.24-.38-.85l1.37-5.52-1.01-.23-1.41,5.69Z"/>
  <path class="cls-4" d="M73.05,22.02l.99.33.35-.96-.99-.33-.35.96ZM70.94,27.93l.98.33,1.77-4.93-.98-.33-1.77,4.93Z"/>
  <path class="cls-4" d="M73.15,27.26c-.42.96.19,1.8,1.05,2.15,1.19.49,2.01-.3,2.01-.3h.02s-.09.16-.19.38l-.2.46.88.36,1.33-3.04c.53-1.21.12-2.17-1.14-2.68-1.14-.47-2.11-.19-2.11-.19l.1.83s.82-.21,1.59.1c.63.26.97.71.63,1.5l-.04.09-.22-.09c-.84-.34-3.03-1.16-3.72.42ZM74.13,27.61c.38-.86,1.7-.38,2.42-.09l.25.1-.07.15c-.31.71-1.19,1.31-2,.98-.62-.25-.77-.76-.6-1.15Z"/>
  <path class="cls-4" d="M77.48,30.63l.86.56,1.41-2.03c.15-.21.3-.4.47-.54.62-.51,1.47-.59,2.16-.15.72.46.52,1.03.1,1.64l-1.79,2.59.86.56,1.92-2.78c.77-1.1.66-1.98-.39-2.66-.98-.63-1.94-.36-2.38-.1h-.02s.12-.15.24-.32l.4-.57-.83-.54-3.01,4.34Z"/>
  <path class="cls-4" d="M83.67,31.62c-1.1,1.15-1.04,2.79.21,3.9,1.04.92,2.17.8,2.17.8l.21-.81s-.98.08-1.72-.57c-.82-.73-.83-1.85-.09-2.63.75-.79,1.88-.85,2.68-.13.68.6.68,1.42.68,1.42l.85-.19s.04-1-.96-1.89c-1.25-1.11-2.96-1.02-4.05.11Z"/>
  <path class="cls-4" d="M87.68,35.3c-1.26.95-1.51,2.57-.46,3.86.8.98,1.9,1.13,1.9,1.13l.33-.78s-.91-.14-1.48-.84c-.59-.73-.64-1.73.26-2.47l2.43,3s.26-.16.37-.24c1.1-.83,1.49-2.12.55-3.28-.95-1.17-2.54-1.39-3.89-.37ZM88.85,35.76c.79-.41,1.57-.22,2.06.38.43.53.43,1.23-.28,1.81l-1.78-2.19Z"/>
  <path class="cls-4" d="M24.59,85.24c.83,2.79,3.55,4.46,6.45,3.65,2.46-.68,3.36-2.62,3.36-2.62l-.77-.54s-.8,1.68-2.84,2.25c-2.26.63-4.49-.74-5.17-3.03-.69-2.32.51-4.45,2.71-5.06,1.14-.32,2.9-.28,3.17.62l.16.53.93-.26-.24-.79c-.43-1.44-2.91-1.39-4.32-1-2.79.78-4.27,3.47-3.44,6.24Z"/>
  <path class="cls-4" d="M80.73,87.23c-.11.6.1.9.72,1l4.39.76c.62.11.93-.1,1.04-.7l.18-.98-.94-.16-.12.66c-.04.21-.17.29-.38.25l-3.57-.62c-.2-.04-.3-.15-.26-.36l.62-3.33,3.81.66.16-.86-3.81-.66.67-3.57,3.47.6c.2.03.3.15.26.36l-.12.66.95.17.18-.98c.11-.6-.1-.9-.72-1l-5.81-1.01-.16.87.94.16-1.51,8.09Z"/>
  <path class="cls-4" d="M45.1,86.94l1.03-.07-.3-4.19,1.73-.11c.57-.04.77.02,1.08.53l1.68,2.74c.38.63.64.71,1.47.66l.45-.03-.06-.88h-.21c-.37.04-.59.02-.76-.26l-1.68-2.73c-.17-.27-.38-.37-.38-.37v-.03c.99-.28,1.91-1.25,1.8-2.79-.12-1.73-1.43-2.75-3.16-2.63l-4.37.29.06.88.95-.06.65,9.07ZM45.77,81.81l-.29-4,2.3-.15c1.22-.08,2.03.62,2.12,1.85.09,1.24-.62,2.07-1.85,2.15l-2.29.15Z"/>
  <path class="cls-4" d="M56.23,86.74h1.03v-9.09h2.54c.22,0,.32.08.32.31v.67h.95v-1.05c0-.61-.21-.81-.84-.81h-6.99c-.63,0-.84.2-.84.81v1.05h.94v-.67c0-.23.12-.31.32-.31h2.55v9.09Z"/>
  <path class="cls-4" d="M75.39,87.51l2.94.28.09-.88-.98-.09.83-8.17.98.09.09-.87-2.94-.28-.09.88.96.09-.83,8.17-.96-.09-.09.87Z"/>
  <path class="cls-4" d="M68.88,87.05l1.03.04.2-4.46,3.74.16.04-.88-3.74-.16.17-3.74,3.11.13c.21,0,.32.11.31.32l-.03.67.95.04.04-.99c.03-.61-.21-.87-.84-.9l-5.49-.23-.04.88.95.04-.41,9.08Z"/>
  <path class="cls-4" d="M62.83,86.68l2.95.11.03-.88-.98-.04.32-8.2.98.04.03-.88-2.95-.11-.03.88.97.03-.32,8.2-.97-.03-.03.88Z"/>
  <path class="cls-4" d="M36.67,87.19c.09.6.39.82,1.02.73l4.42-.62c.62-.09.85-.38.76-.98l-.15-.98-.94.13.1.66c.03.21-.07.33-.27.35l-3.59.51c-.2.03-.33-.05-.37-.26l-.51-3.35,3.84-.54-.13-.87-3.84.54-.54-3.59,3.49-.49c.2-.03.33.05.37.26l.1.66.96-.13-.15-.98c-.09-.6-.39-.82-1.02-.73l-5.84.82.13.87.94-.13,1.23,8.14Z"/>
  <path class="cls-4" d="M89.14,88.83c-.16.59.03.9.64,1.05l2.22.55c3.01.75,5.49-.51,6.31-3.58.81-3.05-.72-5.32-3.73-6.07l-4.01-1-.23.85.92.23-2.12,7.96ZM90.22,88.76l2.04-7.65,1.99.49c2.45.61,3.71,2.42,3.02,4.98-.69,2.58-2.68,3.58-5.14,2.97l-1.68-.42c-.2-.05-.29-.17-.23-.38Z"/>
  <path class="cls-4" d="M32.37,55.55c0,5.41,3.95,9.61,9.74,9.61,4.89,0,7.64-3.14,7.64-3.14l-1.84-2.42s-2.16,2.42-5.74,2.42-6.17-2.89-6.17-6.47c0-3.82,2.67-6.16,6.06-6.16,1.66,0,3.92.62,3.92,1.96v1.03h3.18v-2.04c0-3.12-4.75-4.1-7.18-4.1-5.5,0-9.61,4.02-9.61,9.31Z"/>
  <path class="cls-4" d="M66.04,64.86h3.02c1.25,0,1.71-.52,1.82-1.75l.61-8.15c.11-1.21.03-2.86.03-2.86h.05s.56,1.83,1.04,2.86l3.15,6.75h2.83l3.15-6.75c.48-1.03,1.04-2.84,1.04-2.84h.05s-.08,1.62.03,2.84l.64,8.15c.11,1.24.53,1.75,1.79,1.75h3.02v-2.86h-.83c-.37,0-.56-.21-.59-.57l-1.23-14.87h-3.63l-3.9,8.71c-.45,1.06-.93,2.45-.93,2.45h-.05s-.48-1.39-.93-2.45l-3.9-8.71h-3.63l-1.23,14.87c-.03.36-.21.57-.59.57h-.83v2.86Z"/>
  <path class="cls-4" d="M51.89,62.33s2.32,2.84,6.51,2.84,6.3-2.47,6.3-5.39c0-6.01-8.92-5.39-8.92-8.51,0-1.16,1.17-1.96,2.78-1.96,1.25,0,2.51.57,2.51,1.42v.82h3.15v-1.7c0-2.6-3.42-3.61-5.63-3.61-3.66,0-6.33,2.19-6.33,5.16,0,5.7,8.92,5.44,8.92,8.56,0,1.42-1.28,2.16-2.72,2.16-2.64,0-4.59-2.16-4.59-2.16l-1.98,2.37Z"/>
</svg>