<?xml version="1.0" encoding="UTF-8"?>
<svg id="Layer_1" xmlns="http://www.w3.org/2000/svg" viewBox="0 0 120 120">
  <defs>
    <style>
      .cls-1 {
        stroke-width: 2.96px;
      }

      .cls-1, .cls-2 {
        stroke: #4385f4;
        stroke-miterlimit: 10;
      }

      .cls-1, .cls-3 {
        fill: #fff;
      }

      .cls-2 {
        fill: none;
        stroke-dasharray: .74 1.48 .74 1.48 .74 1.48;
        stroke-linecap: round;
        stroke-width: .74px;
      }

      .cls-4 {
        fill: #4a4a4a;
      }

      .cls-5 {
        isolation: isolate;
      }

      .cls-6 {
        fill: #2354a6;
      }

      .cls-7 {
        fill: #4385f4;
      }

      .cls-8 {
        fill: #3876df;
      }
    </style>
  </defs>
  <ellipse class="cls-1" cx="60" cy="60" rx="49.04" ry="49.01"/>
  <ellipse class="cls-2" cx="60" cy="60" rx="45.73" ry="45.7"/>
  <path class="cls-7" d="M85.74,54.33c.01.48-.18.94-.54,1.27-.37.34-.85.51-1.35.49-.39,0-.77-.1-1.1-.29-.29-.16-.55-.39-.73-.67l.73-.66c.04.07.09.13.15.19.25.27.6.43.97.43.23.01.45-.06.62-.21.16-.15.24-.36.23-.58,0-.28-.18-.48-.54-.58-.71-.22-1.1-.34-1.14-.37-.27-.13-.52-.31-.71-.55-.18-.28-.26-.6-.25-.93,0-.46.18-.9.52-1.2.34-.31.79-.49,1.25-.48.35,0,.7.08,1.02.25.27.13.5.32.67.56l-.65.68c-.09-.1-.19-.18-.3-.26-.2-.16-.45-.26-.71-.27-.19,0-.38.04-.54.15-.17.12-.26.32-.25.53-.02.2.08.39.24.5.28.14.59.24.9.29.41.08.78.28,1.08.58.29.3.44.7.41,1.12ZM81,56.02l-1.04.15v-3.83c.02-.28-.06-.55-.23-.77-.19-.17-.44-.26-.69-.24-.34-.01-.66.16-.83.46-.12.2-.19.42-.19.66v3.57l-1.04.19v-3.84c.02-.28-.06-.55-.23-.77-.16-.18-.38-.28-.62-.26h-.1c-.33-.02-.65.16-.79.47-.13.28-.2.58-.19.89v3.32l-1.08.19v-5.61l.97-.17v.73c.09-.15.19-.28.32-.4.26-.26.61-.4.97-.4.62-.09,1.23.27,1.44.86.3-.56.9-.9,1.53-.89.54-.04,1.07.19,1.42.61.27.44.4.95.37,1.47v3.61ZM73.26,50.37l-.49,1.14c-.06,0-.13,0-.19,0-.1,0-.2,0-.3.02-.11.02-.22.06-.33.11-.25.14-.45.35-.56.62-.18.36-.27.75-.27,1.15v2.62l-1.04.17v-5.6l.96-.18v1.17c.12-.2.25-.4.37-.61.17-.2.38-.35.62-.45.22-.07.46-.11.69-.12.18-.03.36-.04.55-.03ZM68.58,56.02l-1.04.15v-5.57l1.04-.16v5.59ZM68.79,49.1l-.7.89-.67-.89.7-.88.66.88ZM66.45,49.68h-2.91v2.01h2.26v1.03h-2.26v3.3l-1.13.17v-7.55h3.82l.22,1.04ZM60.05,53.32c.01-.53-.19-1.05-.56-1.42-.33-.37-.8-.58-1.29-.59-.5-.02-.98.19-1.31.56-.32.36-.49.82-.48,1.29-.02.52.15,1.02.49,1.41.31.36.77.56,1.24.55.49,0,.96-.18,1.32-.51.38-.32.6-.8.6-1.3h0ZM60.97,56.02l-.98.15v-.96l-.21.24c-.18.17-.39.32-.62.43-.33.16-.7.24-1.06.23-.74.01-1.45-.3-1.94-.85-.52-.55-.8-1.28-.79-2.03-.01-.77.26-1.51.78-2.09.48-.56,1.18-.88,1.92-.87.39,0,.77.07,1.13.22.22.1.41.24.58.41.05.07.11.15.16.22v-2.5l1.04-.15v7.54ZM53.67,53.26c.01-.51-.18-1-.54-1.37-.34-.37-.82-.57-1.32-.56-.49,0-.95.21-1.26.58-.34.36-.52.83-.52,1.32,0,.5.18.98.53,1.33.34.37.81.57,1.31.56.48,0,.94-.2,1.26-.55.35-.35.55-.82.54-1.32h0ZM54.73,53.26c.01.77-.29,1.52-.84,2.06-1.08,1.12-2.87,1.16-4,.08-.03-.02-.05-.05-.08-.08-.56-.54-.87-1.3-.85-2.07,0-.77.28-1.52.81-2.09.5-.57,1.23-.9,1.99-.88.8-.03,1.57.28,2.13.85.55.56.85,1.32.82,2.11v.02ZM46.92,53.26c.01-.51-.18-1-.54-1.37-.34-.37-.82-.57-1.33-.56-.49,0-.95.21-1.26.58-.34.36-.52.83-.52,1.32,0,.5.18.98.53,1.33.34.37.81.57,1.31.56.48,0,.94-.2,1.26-.55.35-.35.54-.82.54-1.32h0ZM47.99,53.26c.01.77-.29,1.52-.84,2.06-1.08,1.12-2.86,1.16-3.98.08-.03-.03-.06-.05-.08-.08-.56-.54-.87-1.29-.85-2.07,0-.77.28-1.52.81-2.09.5-.57,1.23-.9,1.99-.88.8-.03,1.57.28,2.13.85.55.56.85,1.32.82,2.11v.02ZM41.15,55.27c-.18.12-.31.21-.4.26-.3.19-.62.36-.95.5-.36.16-.75.25-1.15.26-1.08.04-2.14-.36-2.93-1.1-.77-.7-1.2-1.71-1.17-2.75-.01-1.03.36-2.02,1.06-2.78.64-.76,1.58-1.19,2.57-1.17.45,0,.9.08,1.33.23.55.17,1.05.46,1.47.86l-.67.75c-.31-.29-.69-.51-1.1-.62-.35-.1-.71-.15-1.08-.14-.69,0-1.35.31-1.78.86-.48.58-.73,1.31-.71,2.06-.02.74.28,1.46.81,1.97.56.53,1.3.81,2.07.78.38,0,.75-.12,1.07-.33.3-.23.46-.34.47-.37v-1.65h-2.26l.33-1.03h3.01l.03,3.39Z"/>
  <path class="cls-7" d="M58.77,31.25s-.99-.1-.99.77v3.87h6.51v1.16c.01.31-.23.57-.54.58-.02,0-.04,0-.06,0h-5.91v5.03h7.1s4.3-.66,4.34-5.03v-6.39h-10.45ZM68.85,24.98h-12.66c-4.58,1.1-4.67,4.88-4.67,4.88v12.83h4.87v-11.68c0-.57.41-1.06.97-1.17h11.49v-4.86Z"/>
  <polygon class="cls-8" points="119 69.58 105.73 69.58 105.73 90.22 119 90.22 114.74 80.53 119 69.58"/>
  <polygon class="cls-8" points="1 69.58 14.27 69.58 14.27 90.22 1 90.22 5.26 80.53 1 69.58"/>
  <polygon class="cls-6" points="112.36 62.58 105.73 69.55 105.73 90.19 112.36 83.22 112.36 62.58"/>
  <polygon class="cls-6" points="7.64 62.58 14.27 69.55 14.27 90.19 7.64 83.22 7.64 62.58"/>
  <path class="cls-4" d="M74.73,92.26c.14-.17.22-.38.21-.6v-.39c0-.22-.07-.44-.21-.6-.29-.28-.75-.28-1.05,0-.14.17-.22.38-.21.6v.38c0,.22.07.44.21.6.29.28.75.28,1.05,0h0ZM73.33,92.54c-.21-.23-.33-.54-.33-.86v-.44c0-.32.12-.62.33-.85.5-.43,1.24-.43,1.74,0,.22.23.34.54.33.85v.44c0,.32-.11.62-.33.86-.24.22-.55.34-.88.32-.32.02-.63-.1-.86-.32h-.01ZM70.48,92.54c-.22-.24-.34-.55-.33-.88v-.41c-.01-.32.11-.64.33-.88.23-.22.55-.33.86-.32.22,0,.43.04.63.13.16.07.29.19.38.33.08.12.13.25.14.39,0,.03,0,.06-.03.08-.02.02-.05.04-.08.04h-.23s-.06,0-.08-.02c-.02-.03-.04-.06-.05-.09-.04-.15-.13-.28-.26-.37-.12-.08-.27-.11-.41-.11-.19,0-.38.06-.52.2-.14.17-.22.39-.21.62v.37c0,.22.07.44.21.62.14.14.32.21.52.2.15,0,.29-.03.41-.11.12-.09.21-.22.25-.37.01-.03.03-.06.05-.08.02-.02.05-.02.08-.02h.23s.06.01.08.03c.02.02.04.05.03.08-.01.14-.06.27-.14.39-.1.14-.23.26-.38.33-.2.09-.41.14-.63.13-.32.02-.63-.08-.86-.29h0ZM68.97,92.77s-.03-.05-.03-.08v-.37s.01-.06.03-.09c.02-.02.05-.04.08-.04h.37s.06.01.08.04c.02.02.03.06.03.09v.37c0,.06-.05.12-.11.12,0,0,0,0,0,0h-.37s-.06,0-.08-.03h0ZM66.66,92.73c-.14-.06-.27-.15-.37-.26-.07-.07-.11-.16-.12-.25,0-.03.01-.06.04-.08.02-.02.05-.03.08-.03h.22s.03,0,.05,0c.02.01.04.03.05.05.07.09.16.17.27.23.12.06.26.09.4.08.16,0,.31-.03.45-.11.11-.06.17-.18.17-.3,0-.08-.02-.15-.07-.21-.07-.06-.15-.11-.24-.14-.16-.06-.33-.1-.5-.14-.23-.03-.46-.13-.64-.29-.13-.13-.19-.3-.19-.48,0-.13.04-.26.11-.37.08-.13.2-.23.34-.29.17-.08.35-.12.54-.11.19,0,.38.03.56.11.13.06.25.14.35.25.06.07.1.15.12.25,0,.03-.01.06-.04.08-.02.02-.05.03-.08.03h-.19s-.08-.02-.11-.05c-.06-.07-.11-.12-.15-.15-.05-.04-.11-.07-.17-.09-.09-.03-.19-.04-.29-.04-.14,0-.27.03-.39.11-.09.07-.14.17-.14.28,0,.07.02.13.06.18.06.06.13.11.22.14.15.06.31.1.48.13.25.04.49.14.7.3.14.13.21.31.21.49,0,.14-.04.29-.12.4-.09.13-.22.23-.37.29-.19.07-.39.11-.6.1-.21.02-.42-.02-.62-.1h0ZM61.77,92.77s-.03-.05-.03-.08v-2.46s.01-.06.03-.08c.02-.02.05-.04.08-.04h.22s.06.01.08.04c.02.02.03.05.03.08v.18c.18-.23.46-.36.75-.35.34-.02.66.17.81.48.09-.15.21-.27.37-.34.16-.09.34-.13.52-.13.26,0,.51.1.69.29.19.23.29.54.27.84v1.5s-.01.06-.03.08c-.02.02-.06.03-.09.03h-.22s-.06-.01-.09-.03c-.02-.02-.03-.05-.03-.08v-1.47c.02-.21-.04-.43-.17-.59-.12-.12-.28-.19-.45-.18-.16,0-.32.07-.43.19-.14.16-.2.37-.18.59v1.47c0,.06-.05.12-.11.12,0,0,0,0,0,0h-.23s-.06-.01-.09-.03c-.02-.02-.03-.05-.03-.08v-1.47c.02-.21-.04-.42-.18-.59-.12-.12-.28-.19-.44-.18-.16,0-.32.07-.43.18-.14.16-.2.37-.18.59v1.47c0,.06-.05.12-.11.12,0,0,0,0,0,0h-.23s-.06-.01-.08-.03h-.01ZM59.83,92.77s-.03-.05-.03-.08v-2.45s.01-.06.03-.09c.02-.02.05-.04.08-.04h.22s.07.01.09.04c.02.02.03.06.03.09v.23c.16-.25.44-.39.73-.37h.2s.06.01.09.03c.02.02.03.06.03.09v.19c0,.06-.04.12-.11.12,0,0,0,0-.01,0h-.31c-.17,0-.33.05-.45.16-.11.12-.17.29-.16.45v1.53s-.01.06-.04.08c-.02.02-.06.03-.09.03h-.23s-.06,0-.08-.01h0ZM57.28,92.77s-.03-.05-.03-.08v-2.18h-.45s-.06-.01-.08-.03c-.02-.02-.03-.05-.03-.08v-.16s.01-.06.03-.08c.02-.02.05-.04.08-.04h.45v-.26c-.02-.24.06-.47.21-.65.18-.17.42-.25.67-.23h.78s.06.01.08.04c.02.02.03.05.03.08v.16s-.01.06-.03.08c-.02.02-.05.03-.08.03h-.77c-.12-.01-.25.03-.33.12-.07.12-.1.25-.09.38v.23h1.19s.06.01.08.04c.02.02.03.05.03.08v2.46s-.01.06-.03.08c-.02.02-.05.03-.08.03h-.22c-.06,0-.12-.05-.12-.11,0,0,0,0,0,0v-2.18h-.84v2.18s-.01.06-.04.08c-.02.02-.05.03-.08.03h-.22s-.07,0-.09-.03h0ZM55.53,92.2c.12-.17.19-.37.19-.57v-.4c0-.2-.07-.39-.2-.55-.13-.16-.34-.24-.54-.23-.21-.02-.41.07-.54.23-.12.18-.19.39-.19.61v.15c0,.66.25.99.73.99.21.01.41-.07.54-.23h0ZM54.07,92.5c-.19-.26-.29-.57-.29-.89v-.31c0-.32.11-.63.3-.89.19-.25.5-.39.81-.37.32-.02.63.12.84.37v-1.2s.01-.06.04-.08c.02-.02.05-.03.08-.03h.23c.06,0,.12.05.12.11,0,0,0,0,0,0v3.44c0,.06-.05.12-.11.12,0,0,0,0,0,0h-.22s-.06-.01-.08-.03c-.02-.02-.03-.05-.03-.08v-.22c-.2.26-.52.41-.85.39-.3.03-.61-.09-.81-.32h0ZM52.55,92.25c.14-.17.22-.38.21-.6v-.39c0-.22-.07-.44-.21-.6-.29-.28-.75-.28-1.05,0-.14.17-.22.38-.21.6v.39c0,.22.07.44.21.6.29.28.75.28,1.05,0h0ZM51.15,92.53c-.21-.23-.33-.54-.33-.86v-.44c0-.32.12-.62.33-.85.5-.43,1.24-.43,1.74,0,.22.23.34.54.33.85v.44c0,.32-.11.62-.33.86-.51.42-1.25.42-1.76,0ZM49.59,92.25c.14-.17.22-.38.21-.6v-.39c0-.22-.07-.44-.21-.6-.14-.14-.33-.22-.52-.21-.2,0-.39.07-.53.21-.14.17-.21.38-.21.6v.39c0,.22.07.43.21.6.14.14.33.22.53.21.2.01.39-.06.53-.2h0ZM48.19,92.53c-.21-.23-.33-.54-.33-.86v-.44c0-.32.12-.62.33-.85.5-.43,1.24-.43,1.74,0,.22.23.34.54.33.85v.44c0,.32-.12.62-.33.86-.51.43-1.25.43-1.76,0h0ZM46.52,92.19c.13-.16.2-.36.2-.57v-.36c0-.2-.08-.4-.2-.56-.13-.16-.34-.25-.55-.24-.21-.02-.41.07-.54.24-.12.18-.19.39-.19.61v.27c0,.22.07.43.19.61.13.17.33.25.54.23.21.02.42-.07.55-.23h0ZM45.3,93.79c-.15-.08-.28-.19-.37-.33-.06-.1-.1-.21-.1-.32,0-.03.01-.06.03-.08.02-.02.05-.03.08-.03h.23s.06,0,.08.03c.03.02.05.05.05.08.09.27.37.45.66.41.21.02.41-.04.58-.16.14-.16.21-.37.19-.59v-.37c-.21.25-.52.39-.84.37-.32.02-.62-.12-.82-.37-.19-.26-.29-.57-.29-.89v-.29c0-.32.1-.63.29-.89.2-.25.5-.39.82-.37.33-.02.65.13.85.4v-.22s.01-.06.03-.09c.02-.02.05-.04.08-.04h.22s.06.01.08.04c.02.02.03.06.03.09v2.57c0,.8-.4,1.19-1.21,1.19-.24.01-.47-.04-.68-.14h0Z"/>
  <rect class="cls-7" x="7.53" y="62.58" width="104.83" height="20.64"/>
  <g class="cls-5">
    <path class="cls-3" d="M37.23,70.8v-3.63h-1.27v-.76h3.49v.76h-1.29v3.63h-.93Z"/>
    <path class="cls-3" d="M43.8,68.61c0,1.4-.82,2.27-2.12,2.27s-2.11-.87-2.11-2.27.81-2.27,2.11-2.27,2.12.87,2.12,2.27ZM40.5,68.61c0,.92.46,1.5,1.18,1.5s1.18-.58,1.18-1.5-.46-1.51-1.18-1.51-1.18.58-1.18,1.51Z"/>
    <path class="cls-3" d="M46.22,66.41c.79-.05,1.47.55,1.52,1.34,0,.05,0,.11,0,.16.02.81-.62,1.48-1.43,1.51-.05,0-.09,0-.14,0h-.87v1.39h-.92v-4.4h1.83ZM45.31,68.7h.67c.43.03.8-.3.83-.73.03-.43-.3-.8-.73-.83-.04,0-.07,0-.11,0h-.67v1.56Z"/>
    <path class="cls-3" d="M54.28,70.8h-.82v-2.96h-.03l-1.19,2.93h-.58l-1.19-2.93h-.03v2.96h-.82v-4.4h1.06l1.25,3.11h.03l1.25-3.11h1.06v4.4Z"/>
    <path class="cls-3" d="M59.1,68.61c0,1.4-.82,2.27-2.12,2.27s-2.12-.87-2.12-2.27.82-2.27,2.12-2.27,2.12.87,2.12,2.27ZM55.8,68.61c0,.92.46,1.5,1.18,1.5s1.18-.58,1.18-1.5-.46-1.51-1.18-1.51-1.18.58-1.18,1.51Z"/>
    <path class="cls-3" d="M59.69,70.8v-4.4h1.92c.82,0,1.35.43,1.35,1.1,0,.48-.35.88-.82.95v.03c.57.02,1.03.48,1.03,1.06,0,.77-.58,1.26-1.52,1.26h-1.96ZM60.6,68.24h.69c.49,0,.77-.22.77-.59s-.25-.55-.67-.55h-.78v1.14ZM61.43,70.12c.53,0,.81-.22.81-.65s-.29-.63-.84-.63h-.8v1.27h.82Z"/>
    <path class="cls-3" d="M63.7,70.8v-4.4h.92v4.4h-.92Z"/>
    <path class="cls-3" d="M68.19,70.8h-2.84v-4.4h.92v3.63h1.92v.77Z"/>
    <path class="cls-3" d="M71.64,70.8h-2.91v-4.4h2.91v.76h-1.99v1.06h1.88v.7h-1.88v1.1h1.99v.78Z"/>
    <path class="cls-3" d="M76.18,69.74h-1.54l-.34,1.06h-.94l1.52-4.4h1.08l1.52,4.4h-.97l-.34-1.06ZM74.84,69.05h1.14l-.56-1.8h-.02l-.56,1.8Z"/>
    <path class="cls-3" d="M79.77,66.41c.79-.05,1.47.55,1.52,1.34,0,.05,0,.11,0,.16.02.81-.62,1.48-1.43,1.51-.05,0-.1,0-.14,0h-.86v1.39h-.92v-4.4h1.83ZM78.86,68.7h.67c.43.03.8-.3.83-.73.03-.43-.3-.8-.73-.83-.04,0-.07,0-.11,0h-.67v1.56Z"/>
    <path class="cls-3" d="M83.67,66.41c.79-.05,1.47.55,1.52,1.34,0,.05,0,.11,0,.16.02.81-.62,1.48-1.43,1.51-.05,0-.09,0-.14,0h-.87v1.39h-.92v-4.4h1.83ZM82.75,68.7h.67c.43.03.8-.3.83-.73.03-.43-.3-.8-.73-.83-.04,0-.07,0-.11,0h-.67v1.56Z"/>
    <path class="cls-3" d="M24.17,73.89c1.32,0,2.09.79,2.09,2.18s-.77,2.2-2.09,2.2h-1.69v-4.4l1.69.02ZM23.4,77.52h.66c.82,0,1.27-.5,1.27-1.45s-.46-1.43-1.27-1.43h-.66v2.87Z"/>
    <path class="cls-3" d="M29.77,78.28h-2.91v-4.4h2.91v.76h-1.99v1.06h1.88v.7h-1.88v1.1h1.99v.78Z"/>
    <path class="cls-3" d="M31.63,78.28l-1.47-4.4h1.03l.99,3.47h.02l1-3.45h1l-1.47,4.4-1.12-.02Z"/>
    <path class="cls-3" d="M37.56,78.28h-2.91v-4.4h2.91v.76h-1.97v1.06h1.88v.7h-1.88v1.1h1.99v.78Z"/>
    <path class="cls-3" d="M41.07,78.28h-2.84v-4.4h.92v3.63h1.92v.77Z"/>
    <path class="cls-3" d="M45.53,76.09c0,1.4-.82,2.27-2.12,2.27s-2.12-.87-2.12-2.27.82-2.27,2.12-2.27,2.12.87,2.12,2.27ZM42.23,76.09c0,.92.46,1.5,1.18,1.5s1.18-.58,1.18-1.5-.46-1.51-1.18-1.51-1.18.57-1.18,1.51Z"/>
    <path class="cls-3" d="M47.95,73.89c.79-.05,1.47.55,1.52,1.34,0,.05,0,.11,0,.16.02.81-.62,1.48-1.43,1.51-.05,0-.09,0-.14,0h-.87v1.39h-.92v-4.4h1.83ZM47.03,76.18h.65c.43,0,.78-.35.78-.78,0-.43-.35-.78-.78-.78h-.67l.02,1.56Z"/>
    <path class="cls-3" d="M54.65,78.28h-.82v-2.96h-.02l-1.19,2.93h-.56l-1.19-2.93h-.02v2.96h-.82v-4.4h1.07l1.25,3.12h.03l1.25-3.12h1.06v4.4Z"/>
    <path class="cls-3" d="M58.31,78.28h-2.93v-4.4h2.93v.76h-1.99v1.06h1.88v.7h-1.88v1.1h1.99v.78Z"/>
    <path class="cls-3" d="M58.96,78.28v-4.4h.77l2.05,2.86h.03v-2.86h.88v4.4h-.76l-2.05-2.87h-.03v2.87h-.88Z"/>
    <path class="cls-3" d="M64.48,78.28v-3.63h-1.28v-.76h3.49v.76h-1.29v3.63h-.92Z"/>
    <path class="cls-3" d="M68.39,76.09c0-1.41.81-2.27,2.08-2.27,1.06,0,1.86.67,1.93,1.65h-.89c-.06-.52-.51-.9-1.03-.89-.7,0-1.14.58-1.14,1.51s.44,1.51,1.14,1.51c.51.03.96-.33,1.04-.84h.89c-.11.98-.86,1.6-1.93,1.6-1.28,0-2.08-.85-2.08-2.27Z"/>
    <path class="cls-3" d="M77.06,76.09c0,1.4-.82,2.27-2.12,2.27s-2.11-.87-2.11-2.27.81-2.27,2.11-2.27,2.12.87,2.12,2.27ZM73.77,76.09c0,.92.46,1.5,1.18,1.5s1.18-.58,1.18-1.5-.46-1.51-1.18-1.51-1.18.57-1.18,1.51Z"/>
    <path class="cls-3" d="M82.31,78.28h-.82v-2.96h-.02l-1.19,2.93h-.58l-1.19-2.93h-.03v2.96h-.82v-4.4h1.07l1.25,3.12h.03l1.25-3.12h1.07v4.4Z"/>
    <path class="cls-3" d="M84.86,73.89c.79-.05,1.47.55,1.52,1.34,0,.05,0,.11,0,.16.02.81-.62,1.48-1.43,1.51-.05,0-.09,0-.14,0h-.85v1.39h-.92v-4.4h1.81ZM83.97,76.18h.67c.43,0,.78-.35.78-.78,0-.43-.35-.78-.78-.78h-.67v1.56Z"/>
    <path class="cls-3" d="M89.06,77.22h-1.54l-.33,1.06h-.94l1.52-4.4h1.08l1.53,4.4h-.97l-.34-1.06ZM87.71,76.53h1.15l-.56-1.8h-.02l-.56,1.8Z"/>
    <path class="cls-3" d="M90.82,78.28v-4.4h.77l2.05,2.86h.02v-2.86h.88v4.4h-.76l-2.06-2.87h-.03v2.87h-.88Z"/>
    <path class="cls-3" d="M96.51,78.28v-1.64l-1.53-2.75h1l.98,1.88h.02l.99-1.88h.99l-1.53,2.75v1.64h-.92Z"/>
  </g>
</svg>