<svg xmlns="http://www.w3.org/2000/svg" width="120" height="120" viewBox="0 0 120 120">
  <g id="Group_5018" data-name="Group 5018" transform="translate(-6846 -3322)">
    <rect id="Rectangle_1476" data-name="Rectangle 1476" width="120" height="120" transform="translate(6846 3322)" fill="none"/>
    <g id="Group_5007" data-name="Group 5007" transform="translate(-92.055 -218.962)">
      <g id="aws" transform="translate(6943.055 3568.073)">
        <path id="Path_5630" data-name="Path 5630" d="M38.851,23.89a11.069,11.069,0,0,0,.4,3.256,19.582,19.582,0,0,0,1.171,2.634,1.591,1.591,0,0,1,.256.841,1.448,1.448,0,0,1-.7,1.1l-2.3,1.537a1.754,1.754,0,0,1-.951.329,1.683,1.683,0,0,1-1.1-.512,11.318,11.318,0,0,1-1.317-1.719c-.366-.622-.732-1.317-1.134-2.158a13.515,13.515,0,0,1-10.756,5.049,10.024,10.024,0,0,1-7.317-2.634A9.4,9.4,0,0,1,12.4,24.585a9.418,9.418,0,0,1,3.329-7.536c2.232-1.9,5.2-2.854,8.963-2.854a28.966,28.966,0,0,1,3.878.293c1.354.183,2.744.476,4.207.8V12.622c0-2.78-.585-4.719-1.719-5.854-1.171-1.134-3.146-1.683-5.963-1.683a16.645,16.645,0,0,0-3.951.476A29.151,29.151,0,0,0,17.193,6.8a10.5,10.5,0,0,1-1.28.476,2.244,2.244,0,0,1-.585.11c-.512,0-.768-.366-.768-1.134V4.463a2.315,2.315,0,0,1,.256-1.28,2.739,2.739,0,0,1,1.024-.768A21.062,21.062,0,0,1,20.449.768a22.18,22.18,0,0,1,5.707-.7c4.354,0,7.536.988,9.585,2.963,2.012,1.976,3.037,4.976,3.037,9V23.89ZM24,29.451a11.857,11.857,0,0,0,3.768-.659,8.152,8.152,0,0,0,3.476-2.341,5.807,5.807,0,0,0,1.244-2.341,13.134,13.134,0,0,0,.366-3.183V19.39a30.554,30.554,0,0,0-3.366-.622,27.567,27.567,0,0,0-3.439-.22c-2.451,0-4.244.476-5.451,1.463A5.1,5.1,0,0,0,18.8,24.219,5.107,5.107,0,0,0,20.156,28.1,5.073,5.073,0,0,0,24,29.451ZM53.375,33.4a2.042,2.042,0,0,1-1.39-.366,2.982,2.982,0,0,1-.768-1.427l-8.6-28.28a6.409,6.409,0,0,1-.329-1.463.8.8,0,0,1,.878-.915h3.585a2.028,2.028,0,0,1,1.427.366,2.993,2.993,0,0,1,.732,1.427l6.146,24.219L60.765,2.744a2.566,2.566,0,0,1,.7-1.427A2.517,2.517,0,0,1,62.923.951H65.85a2.2,2.2,0,0,1,1.463.366,2.465,2.465,0,0,1,.7,1.427l5.78,24.512L80.118,2.744a3.137,3.137,0,0,1,.732-1.427A2.387,2.387,0,0,1,82.277.951h3.4a.813.813,0,0,1,.915.915,3.649,3.649,0,0,1-.073.585,5.206,5.206,0,0,1-.256.915l-8.817,28.28a2.805,2.805,0,0,1-.768,1.427,2.341,2.341,0,0,1-1.39.366H72.143a2.2,2.2,0,0,1-1.463-.366,2.594,2.594,0,0,1-.7-1.463l-5.671-23.6L58.68,31.573a2.855,2.855,0,0,1-.7,1.463,2.268,2.268,0,0,1-1.463.366Zm47.011.988a24.21,24.21,0,0,1-5.634-.659,16.643,16.643,0,0,1-4.207-1.463,2.636,2.636,0,0,1-1.134-1.024,2.582,2.582,0,0,1-.22-1.024V28.353c0-.768.293-1.134.841-1.134a2.072,2.072,0,0,1,.659.11c.219.073.549.22.915.366a19.9,19.9,0,0,0,4.024,1.28,21.97,21.97,0,0,0,4.354.439,9.871,9.871,0,0,0,5.341-1.207,3.94,3.94,0,0,0,1.9-3.476,3.563,3.563,0,0,0-.988-2.561,9.179,9.179,0,0,0-3.7-1.9l-5.3-1.646a11.159,11.159,0,0,1-5.854-3.732,8.716,8.716,0,0,1-1.829-5.3,8.142,8.142,0,0,1,.988-4.061,9.406,9.406,0,0,1,2.634-3,11.611,11.611,0,0,1,3.8-1.9A15.945,15.945,0,0,1,101.593,0a18.366,18.366,0,0,1,2.451.146c.841.11,1.61.256,2.378.4.732.183,1.427.366,2.085.585a7.985,7.985,0,0,1,1.537.659,3.164,3.164,0,0,1,1.1.915,1.972,1.972,0,0,1,.329,1.207V5.634c0,.768-.293,1.171-.841,1.171a3.805,3.805,0,0,1-1.39-.439,16.737,16.737,0,0,0-7.024-1.427A9.443,9.443,0,0,0,97.35,5.963,3.533,3.533,0,0,0,95.63,9.219a3.455,3.455,0,0,0,1.1,2.6,10.928,10.928,0,0,0,4.024,2.012l5.2,1.646a11.127,11.127,0,0,1,5.671,3.512,8.278,8.278,0,0,1,1.683,5.122,9.4,9.4,0,0,1-.951,4.244,9.839,9.839,0,0,1-2.671,3.219,11.793,11.793,0,0,1-4.061,2.049A17.4,17.4,0,0,1,100.386,34.39Z" transform="translate(-7.852)" fill="#252f3e"/>
        <path id="Path_5631" data-name="Path 5631" d="M99.417,123.253c-12.036,8.89-29.524,13.609-44.56,13.609a80.614,80.614,0,0,1-54.4-20.743C-.679,115.1.346,113.7,1.7,114.51a109.713,109.713,0,0,0,54.438,14.451,108.633,108.633,0,0,0,41.524-8.488C99.673,119.558,101.392,121.79,99.417,123.253Zm5.012-5.707c-1.537-1.976-10.171-.951-14.085-.476-1.171.146-1.354-.878-.293-1.646,6.878-4.829,18.183-3.439,19.5-1.829,1.317,1.646-.366,12.951-6.8,18.365-.988.841-1.939.4-1.5-.7C102.709,127.644,105.965,119.485,104.429,117.546Z" transform="translate(0.032 -71.084)" fill="#f90"/>
      </g>
    </g>
  </g>
</svg>
