<svg width="100" height="100" viewBox="0 0 100 100" fill="none" xmlns="http://www.w3.org/2000/svg">
<path d="M49.9785 52.5481V62.0334C66.0172 62.0334 78.5205 46.512 73.2605 29.6973C70.9754 22.3677 65.1118 16.5041 57.7823 14.219C40.9675 8.95903 25.4462 21.4623 25.4462 37.501H34.9314C34.9314 27.4122 44.891 19.6515 55.4972 23.4887C59.4207 24.9115 62.568 28.0589 63.9908 31.9823C67.8712 42.5455 60.0674 52.5481 49.9785 52.5481L50.0216 43.106H40.5364V52.5481H49.9785ZM40.5364 59.8345H33.2931V52.5481H40.5795L40.5364 59.8345ZM33.2931 52.5481H27.1708V46.4689H33.25V52.5481H33.2931Z" fill="#0080FF"/>
<path d="M9.45051 71.648C8.20018 70.7857 6.69116 70.3546 4.88033 70.3546H1V82.7285H4.92345C6.73427 82.7285 8.24329 82.2543 9.49362 81.3489C10.1835 80.8746 10.7008 80.1848 11.0889 79.3656C11.4769 78.5464 11.6494 77.5548 11.6494 76.4338C11.6494 75.3559 11.4769 74.3643 11.0889 73.5451C10.6577 72.769 10.1403 72.0792 9.45051 71.648ZM3.28509 72.4672H4.4923C5.87198 72.4672 6.99296 72.7259 7.81214 73.2864C8.76067 73.8469 9.23493 74.9248 9.23493 76.52C9.23493 78.1153 8.76067 79.2794 7.81214 79.883C6.99296 80.4435 5.87198 80.7021 4.4923 80.7021H3.28509V72.4672ZM13.2015 82.7285H15.4004V74.0193H13.2015V82.7285ZM14.3225 70.1821C13.9344 70.1821 13.6326 70.3115 13.374 70.5702C13.1153 70.8288 12.9859 71.1307 12.9859 71.5187C12.9859 71.9067 13.1153 72.2085 13.374 72.4672C13.6326 72.7259 13.9776 72.8552 14.3225 72.8552C14.6674 72.8552 15.0123 72.7259 15.271 72.4672C15.5297 72.2085 15.659 71.8636 15.659 71.5187C15.659 71.1307 15.5297 70.8288 15.271 70.5702C15.0123 70.3115 14.7105 70.1821 14.3225 70.1821ZM23.3766 74.7523C22.7299 74.1487 21.9538 73.8038 21.1777 73.8038C19.9705 73.8038 18.9789 74.2349 18.2028 75.0541C17.4268 75.8733 17.0387 76.908 17.0387 78.2015C17.0387 79.4518 17.4268 80.4866 18.2028 81.3489C18.9789 82.168 20.0136 82.5992 21.2209 82.5992C22.0832 82.5992 22.8161 82.3836 23.3766 81.9094V82.1249C23.3766 82.8579 23.161 83.4184 22.8161 83.8064C22.4281 84.1944 21.9107 84.41 21.2209 84.41C20.1861 84.41 19.5825 84.022 18.8064 82.9872L17.2974 84.41L17.3405 84.4531C17.6423 84.9274 18.1597 85.3585 18.8064 85.7897C19.4531 86.2208 20.2723 86.4364 21.264 86.4364C22.5574 86.4364 23.6353 86.0484 24.4114 85.2292C25.1874 84.4531 25.5755 83.3753 25.5755 82.0387V74.1056H23.4197V74.7523H23.3766ZM22.8161 79.883C22.4281 80.3141 21.9538 80.5297 21.3071 80.5297C20.6604 80.5297 20.1861 80.3141 19.7981 79.883C19.41 79.4518 19.2376 78.8913 19.2376 78.1584C19.2376 77.4685 19.41 76.8649 19.7981 76.4338C20.1861 76.0026 20.6604 75.7871 21.3071 75.7871C21.9538 75.7871 22.4281 76.0026 22.8161 76.4338C23.2041 76.8649 23.3766 77.4685 23.3766 78.1584C23.3766 78.8913 23.161 79.4518 22.8161 79.883ZM27.4294 82.7285H29.6282V74.0193H27.4294V82.7285ZM28.5504 70.1821C28.1623 70.1821 27.8605 70.3115 27.6018 70.5702C27.3432 70.8288 27.2138 71.1307 27.2138 71.5187C27.2138 71.9067 27.3432 72.2085 27.6018 72.4672C27.8605 72.7259 28.2055 72.8552 28.5504 72.8552C28.9384 72.8552 29.2402 72.7259 29.4989 72.4672C29.7576 72.2085 29.8869 71.8636 29.8869 71.5187C29.8869 71.1307 29.7576 70.8288 29.4989 70.5702C29.2402 70.3115 28.8953 70.1821 28.5504 70.1821ZM34.414 71.648H32.2582V74.0193H31.0079V76.0026H32.2582V79.6243C32.2582 80.7453 32.4738 81.5644 32.9481 82.0387C33.3792 82.513 34.1984 82.7285 35.3194 82.7285C35.6643 82.7285 36.0524 82.7285 36.3973 82.6854H36.4835V80.7021L35.7505 80.7453C35.2332 80.7453 34.8883 80.659 34.7158 80.4866C34.5433 80.3141 34.4571 79.9261 34.4571 79.3225V76.0026H36.4835V74.0193H34.4571V71.648H34.414ZM44.0286 74.6661C43.3819 74.1056 42.4333 73.8038 41.3124 73.8038C40.5794 73.8038 39.8896 73.9762 39.286 74.278C38.7255 74.5798 38.165 75.0541 37.7769 75.6577L37.8201 75.7008L39.2429 77.0374C39.8033 76.132 40.4501 75.7871 41.3124 75.7871C41.7866 75.7871 42.1315 75.9164 42.4333 76.132C42.7351 76.3907 42.8645 76.6925 42.8645 77.0805V77.5116C42.304 77.3392 41.7866 77.253 41.2692 77.253C40.1914 77.253 39.286 77.5116 38.6392 78.029C37.9494 78.5464 37.6476 79.2794 37.6476 80.2279C37.6476 81.0471 37.9494 81.6938 38.5099 82.2112C39.0704 82.6854 39.8033 82.9441 40.6225 82.9441C41.4417 82.9441 42.2609 82.5992 42.9507 82.0387V82.7717H45.1065V77.1667C45.0202 76.0889 44.6753 75.2266 44.0286 74.6661ZM40.1051 79.4087C40.3638 79.2362 40.7088 79.15 41.1399 79.15C41.6573 79.15 42.2178 79.2362 42.8214 79.4518V80.3141C42.3471 80.7453 41.7004 81.0039 40.9243 81.0039C40.5363 81.0039 40.2345 80.9177 40.062 80.7453C39.8465 80.5728 39.7602 80.3572 39.7602 80.0985C39.7602 79.7967 39.8465 79.5812 40.1051 79.4087ZM46.7879 82.7285H48.9868V70.3546H46.7879V82.7285ZM56.9199 82.9441C53.3845 82.9441 50.5389 80.0985 50.5389 76.5631C50.5389 73.0277 53.3845 70.1821 56.9199 70.1821C60.4553 70.1821 63.3009 73.0277 63.3009 76.5631C63.3009 80.0554 60.4553 82.9441 56.9199 82.9441ZM56.9199 72.4241C54.6348 72.4241 52.7809 74.278 52.7809 76.5631C52.7809 78.8482 54.6348 80.7021 56.9199 80.7021C59.205 80.7021 61.059 78.8482 61.059 76.5631C61.059 74.278 59.205 72.4241 56.9199 72.4241ZM71.1478 79.6243C70.7598 80.0554 70.3718 80.4435 70.0268 80.659C69.725 80.8746 69.337 80.9608 68.9059 80.9608C68.2591 80.9608 67.7418 80.7453 67.3106 80.2279C66.8795 79.7536 66.6639 79.1069 66.6639 78.3739C66.6639 77.641 66.8795 76.9943 67.3106 76.52C67.7418 76.0457 68.2591 75.7871 68.9059 75.7871C69.5957 75.7871 70.3717 76.2182 71.0185 76.9943L72.4844 75.6146C71.5359 74.3643 70.3286 73.8038 68.9059 73.8038C67.6986 73.8038 66.6639 74.2349 65.8016 75.0972C64.9393 75.9595 64.5081 77.0374 64.5081 78.3308C64.5081 79.6243 64.9393 80.7453 65.8016 81.6076C66.6639 82.4699 67.6986 82.901 68.9059 82.901C70.5011 82.901 71.7945 82.2112 72.6568 80.9608L71.1478 79.6243ZM80.1588 75.2266C79.857 74.7954 79.4259 74.4505 78.9085 74.1918C78.3911 73.9331 77.7875 73.8038 77.0977 73.8038C75.8904 73.8038 74.8557 74.2349 74.1227 75.1403C73.3898 76.0457 73.0018 77.1236 73.0018 78.4171C73.0018 79.7536 73.3898 80.8315 74.209 81.6507C74.985 82.4698 76.0629 82.901 77.3995 82.901C78.8654 82.901 80.1157 82.2974 81.0211 81.1333L81.0642 81.0902L79.6414 79.7105C79.5121 79.883 79.3396 80.0554 79.1672 80.2279C78.9516 80.4435 78.736 80.5728 78.5205 80.7021C78.1755 80.8746 77.8306 80.9608 77.3995 80.9608C76.7959 80.9608 76.2785 80.7884 75.8904 80.4435C75.5455 80.0985 75.33 79.6674 75.2437 79.1069H81.0642V78.2877C81.0642 77.7272 80.978 77.1667 80.8487 76.6494C80.7193 76.132 80.4606 75.6577 80.1588 75.2266ZM75.3731 77.2961C75.4593 76.8649 75.6749 76.52 75.9336 76.2613C76.2354 75.9595 76.6234 75.8302 77.0977 75.8302C77.615 75.8302 78.0462 76.0026 78.3049 76.2613C78.5636 76.52 78.6929 76.8649 78.736 77.2961H75.3731ZM88.6093 74.6661C87.9626 74.1056 87.0141 73.8038 85.8931 73.8038C85.1601 73.8038 84.4703 73.9762 83.8667 74.278C83.3062 74.5798 82.7457 75.0541 82.3577 75.6577L82.4008 75.7008L83.8236 77.0374C84.3841 76.132 85.0308 75.7871 85.8931 75.7871C86.3674 75.7871 86.7123 75.9164 87.0141 76.132C87.3159 76.3907 87.4452 76.6925 87.4452 77.0805V77.5116C86.8847 77.3392 86.3674 77.253 85.85 77.253C84.7721 77.253 83.8667 77.5116 83.22 78.029C82.5301 78.5464 82.2283 79.2794 82.2283 80.2279C82.2283 81.0471 82.5301 81.6938 83.0906 82.2112C83.6511 82.6854 84.3841 82.9441 85.2033 82.9441C86.0224 82.9441 86.8416 82.5992 87.5315 82.0387V82.7717H89.6872V77.1667C89.601 76.0889 89.2561 75.2266 88.6093 74.6661ZM84.6859 79.4087C84.9446 79.2362 85.2895 79.15 85.7206 79.15C86.238 79.15 86.7985 79.2362 87.4021 79.4518V80.3141C86.9278 80.7453 86.2811 81.0039 85.5051 81.0039C85.117 81.0039 84.8152 80.9177 84.6428 80.7453C84.4272 80.5728 84.341 80.3572 84.341 80.0985C84.341 79.7967 84.4703 79.5812 84.6859 79.4087ZM98.0515 74.8385C97.4479 74.1487 96.5856 73.8038 95.5077 73.8038C94.6454 73.8038 93.9125 74.0625 93.3951 74.5367V73.9762H91.2393V82.6854H93.4382V77.8566C93.4382 77.2098 93.6106 76.6494 93.9125 76.3044C94.2143 75.9164 94.6454 75.7439 95.2059 75.7439C95.7233 75.7439 96.0682 75.9164 96.37 76.2613C96.6287 76.6062 96.8011 77.0374 96.8011 77.641V82.6854H99V77.6841C98.9569 76.4769 98.6551 75.5284 98.0515 74.8385Z" fill="#0080FF"/>
</svg>
