<svg width="100" height="100" viewBox="0 0 100 100" fill="none" xmlns="http://www.w3.org/2000/svg">
<path d="M57.742 26.7571H59.4983L64.4997 21.7557L64.747 19.631C61.8808 17.1002 58.4167 15.342 54.682 14.5226C50.9472 13.7031 47.0652 13.8494 43.4028 14.9476C39.7403 16.0459 36.4183 18.0598 33.7507 20.799C31.0832 23.5383 29.158 26.9125 28.1573 30.6028C28.7146 30.3732 29.3327 30.3359 29.9136 30.4968L39.9215 28.8465C39.9215 28.8465 40.4262 28.0037 40.6937 28.0542C42.838 25.6989 45.8017 24.2525 48.9778 24.0114C52.1539 23.7702 55.302 24.7526 57.7773 26.7571H57.742Z" fill="#EA4335"/>
<path d="M71.6258 30.6028C70.4764 26.3686 68.1154 22.5622 64.8327 19.6511L57.8125 26.6713C59.276 27.8673 60.4488 29.38 61.2426 31.0952C62.0364 32.8105 62.4305 34.6836 62.3951 36.5733V37.8198C64.0221 37.8661 65.5669 38.5449 66.7014 39.712C67.8358 40.8792 68.4705 42.4427 68.4705 44.0704C68.4705 45.698 67.8358 47.2615 66.7014 48.4287C65.5669 49.5959 64.0221 50.2747 62.3951 50.3209H49.894L48.6474 51.5877V59.0823L49.894 60.3288H62.3951C65.8849 60.3535 69.29 59.2547 72.1073 57.1948C74.9245 55.135 77.0043 52.2235 78.0392 48.8906C79.0742 45.5576 79.0094 41.9802 77.8545 38.6869C76.6995 35.3936 74.5157 32.5593 71.6258 30.6028Z" fill="#4285F4"/>
<path d="M37.3728 60.2531H49.8739V50.2452H37.3728C36.4895 50.2405 35.6172 50.0478 34.8141 49.6799L33.0578 50.225L28.0109 55.2264L27.5718 56.9827C30.3926 59.1167 33.8359 60.2657 37.3728 60.2531Z" fill="#34A853"/>
<path d="M37.3728 27.7917C33.9865 27.8126 30.6912 28.8905 27.9472 30.8748C25.2031 32.8592 23.1473 35.651 22.0668 38.8604C20.9863 42.0697 20.935 45.5364 21.9201 48.7763C22.9052 52.0162 24.8775 54.8676 27.5617 56.9323L34.814 49.685C33.893 49.2687 33.0868 48.6353 32.4644 47.8389C31.842 47.0426 31.4221 46.1071 31.2407 45.1129C31.0593 44.1186 31.1218 43.0951 31.4229 42.1303C31.724 41.1655 32.2546 40.2881 32.9693 39.5735C33.6839 38.8588 34.5613 38.3282 35.5261 38.0271C36.4909 37.726 37.5144 37.6635 38.5087 37.8449C39.503 38.0263 40.4384 38.4462 41.2347 39.0686C42.0311 39.691 42.6645 40.4972 43.0808 41.4182L50.3281 34.1861C48.8096 32.1917 46.8495 30.5763 44.6017 29.4669C42.3538 28.3574 39.8795 27.784 37.3728 27.7917Z" fill="#FBBC05"/>
<path d="M7.82847 81.122C6.93663 81.1366 6.051 80.9712 5.22459 80.6356C4.39817 80.3 3.64795 79.8012 3.01881 79.1689C2.38032 78.5531 1.87249 77.815 1.52563 76.9986C1.17877 76.1822 1 75.3043 1 74.4173C1 73.5302 1.17877 72.6523 1.52563 71.8359C1.87249 71.0195 2.38032 70.2814 3.01881 69.6656C3.64241 69.0215 4.39014 68.5105 5.21682 68.1635C6.0435 67.8165 6.93194 67.6408 7.82847 67.6469C8.68193 67.6373 9.5288 67.7974 10.3198 68.118C11.1109 68.4385 11.8303 68.9132 12.4363 69.5142L11.1392 70.8315C10.2508 69.973 9.05867 69.5012 7.82342 69.5193C7.18315 69.5122 6.54839 69.6381 5.95937 69.8892C5.37034 70.1403 4.83989 70.511 4.40165 70.9778C3.49948 71.8953 2.99391 73.1305 2.99391 74.4173C2.99391 75.704 3.49948 76.9392 4.40165 77.8567C5.30396 78.7552 6.52114 79.2663 7.79441 79.2814C9.06768 79.2964 10.2966 78.8143 11.22 77.9374C11.7959 77.3133 12.1506 76.517 12.2293 75.6714H7.84865V73.8091H14.0311C14.0902 74.1846 14.1138 74.5648 14.1017 74.9447C14.1401 75.7319 14.0186 76.5189 13.7445 77.2579C13.4704 77.9969 13.0494 78.6728 12.5069 79.2446C11.9018 79.8673 11.1727 80.3562 10.3668 80.6796C9.56097 81.003 8.69622 81.1537 7.82847 81.122ZM22.1969 79.9057C21.3664 80.7013 20.2608 81.1453 19.1107 81.1453C17.9607 81.1453 16.8551 80.7013 16.0246 79.9057C15.216 79.0779 14.7633 77.9666 14.7633 76.8095C14.7633 75.6523 15.216 74.541 16.0246 73.7132C16.8557 72.9188 17.9611 72.4755 19.1107 72.4755C20.2604 72.4755 21.3658 72.9188 22.1969 73.7132C23.0078 74.5398 23.4622 75.6515 23.4622 76.8095C23.4622 77.9674 23.0078 79.0792 22.1969 79.9057ZM17.3872 78.6894C17.8151 79.1461 18.4068 79.4143 19.0322 79.4351C19.6577 79.456 20.2659 79.2277 20.7232 78.8005L20.8342 78.6894C21.302 78.174 21.5611 77.503 21.5611 76.8069C21.5611 76.1109 21.302 75.4399 20.8342 74.9245C20.6163 74.697 20.3556 74.5147 20.0672 74.388C19.7787 74.2613 19.4681 74.1927 19.1531 74.1862C18.8382 74.1796 18.525 74.2352 18.2315 74.3497C17.938 74.4643 17.67 74.6356 17.4427 74.8538L17.3721 74.9245C16.9022 75.4388 16.6416 76.1103 16.6416 76.8069C16.6416 77.5036 16.9022 78.1751 17.3721 78.6894H17.3872ZM31.6799 79.9057C30.8494 80.7013 29.7438 81.1453 28.5938 81.1453C27.4437 81.1453 26.3381 80.7013 25.5076 79.9057C24.6991 79.0779 24.2464 77.9666 24.2464 76.8095C24.2464 75.6523 24.6991 74.541 25.5076 73.7132C26.3381 72.9177 27.4437 72.4736 28.5938 72.4736C29.7438 72.4736 30.8494 72.9177 31.6799 73.7132C32.4885 74.541 32.9412 75.6523 32.9412 76.8095C32.9412 77.9666 32.4885 79.0779 31.6799 79.9057ZM26.8703 78.6894C27.2982 79.1461 27.8898 79.4143 28.5153 79.4351C29.1408 79.456 29.7489 79.2277 30.2063 78.8005L30.3173 78.6894C30.7851 78.174 31.0442 77.503 31.0442 76.8069C31.0442 76.1109 30.7851 75.4399 30.3173 74.9245C29.8773 74.4666 29.2736 74.2019 28.6387 74.1887C28.0038 74.1754 27.3896 74.4146 26.9308 74.8538L26.8602 74.9245C26.3903 75.4388 26.1297 76.1103 26.1297 76.8069C26.1297 77.5036 26.3903 78.1751 26.8602 78.6894H26.8703ZM37.9128 85.0333C37.0391 85.0612 36.1823 84.7887 35.4853 84.2612C34.8672 83.7962 34.3803 83.1789 34.0722 82.4695L35.7326 81.7781C35.913 82.2022 36.1956 82.575 36.5552 82.8632C36.9401 83.1739 37.4234 83.3367 37.9179 83.3224C38.231 83.3409 38.5445 83.2919 38.837 83.1787C39.1296 83.0655 39.3944 82.8908 39.6136 82.6664C40.0519 82.1372 40.2689 81.4591 40.2192 80.7738V80.148H40.1536C39.8768 80.473 39.5289 80.7299 39.1368 80.8988C38.7447 81.0677 38.319 81.1441 37.8926 81.122C37.3461 81.1234 36.8051 81.0116 36.3039 80.7936C35.8027 80.5756 35.3522 80.2561 34.9806 79.8553C34.1821 79.0354 33.7353 77.9362 33.7353 76.7918C33.7353 75.6474 34.1821 74.5482 34.9806 73.7284C35.3509 73.3252 35.801 73.0035 36.3023 72.7837C36.8037 72.5639 37.3452 72.4507 37.8926 72.4515C38.3566 72.4503 38.8151 72.552 39.2351 72.7493C39.5983 72.9072 39.9223 73.1433 40.1839 73.4407H40.2495V72.7493H42.0563V80.5164C42.1023 81.1301 42.0231 81.7467 41.8236 82.3288C41.6241 82.9109 41.3083 83.4464 40.8955 83.9028C40.5016 84.2802 40.036 84.5746 39.5263 84.7688C39.0166 84.963 38.4731 85.0529 37.928 85.0333H37.9128ZM38.044 79.4364C38.3548 79.4433 38.6632 79.3817 38.9476 79.2561C39.2319 79.1306 39.4851 78.944 39.6893 78.7096C40.1388 78.1937 40.3751 77.5261 40.3504 76.8423C40.3786 76.1473 40.1423 75.4674 39.6893 74.9396C39.4854 74.705 39.2322 74.5182 38.9478 74.3926C38.6634 74.267 38.3548 74.2056 38.044 74.2129C37.7244 74.2062 37.4071 74.2676 37.113 74.3929C36.8189 74.5182 36.5548 74.7045 36.3382 74.9396C35.8568 75.4485 35.5957 76.1268 35.6114 76.8271C35.6036 77.1709 35.6637 77.5129 35.7884 77.8333C35.9131 78.1538 36.1 78.4465 36.3382 78.6945C36.5552 78.9358 36.8218 79.1275 37.1197 79.2564C37.4175 79.3853 37.7397 79.4484 38.0642 79.4414L38.044 79.4364ZM45.2509 68.1465V80.8798H43.3685V68.1465H45.2509ZM50.4593 81.122C49.8981 81.1347 49.3402 81.033 48.8195 80.823C48.2989 80.613 47.8265 80.2992 47.4312 79.9007C47.0274 79.4961 46.7101 79.0137 46.4984 78.4828C46.2867 77.9518 46.1851 77.3834 46.1998 76.812C46.1785 76.2392 46.2725 75.6679 46.4763 75.1322C46.68 74.5964 46.9893 74.107 47.3858 73.693C47.7601 73.2991 48.2123 72.9876 48.7137 72.7782C49.2151 72.5687 49.7546 72.4661 50.2978 72.4767C50.7982 72.4708 51.2945 72.567 51.7564 72.7594C52.172 72.9265 52.5509 73.1734 52.8717 73.4861C53.1466 73.752 53.3905 74.0483 53.5985 74.3693C53.7667 74.6402 53.9103 74.9257 54.0274 75.2222L54.2243 75.7269L48.3851 78.0939C48.5612 78.4993 48.8562 78.8417 49.231 79.076C49.6059 79.3103 50.0429 79.4254 50.4846 79.4061C50.9138 79.407 51.3359 79.2969 51.71 79.0864C52.0841 78.8759 52.3974 78.5723 52.6194 78.2049L54.0779 79.1891C53.7068 79.7218 53.2312 80.1734 52.6799 80.5164C52.0159 80.9333 51.2431 81.144 50.4593 81.122ZM48.0267 76.6555L51.9027 75.0456C51.7833 74.7619 51.5693 74.5283 51.2971 74.3845C50.9898 74.2098 50.6412 74.1209 50.2877 74.1271C49.6955 74.1427 49.1334 74.3911 48.7232 74.8185C48.4801 75.0596 48.2937 75.3518 48.1776 75.674C48.0615 75.9961 48.0186 76.34 48.052 76.6808L48.0267 76.6555Z" fill="#5F6368"/>
<path d="M64.1716 81.1218C63.3832 81.1359 62.5997 80.9944 61.8659 80.7054C61.1322 80.4164 60.4626 79.9856 59.8954 79.4377C59.3283 78.8898 58.8747 78.2354 58.5606 77.5121C58.2465 76.7887 58.0781 76.0106 58.0649 75.2221C58.0649 75.1413 58.0649 75.0606 58.0649 74.9798C58.0284 73.3886 58.6249 71.8479 59.7236 70.6962C60.8223 69.5446 62.3332 68.8762 63.9243 68.8378H64.1666C64.985 68.8126 65.7985 68.9724 66.5465 69.3053C67.2945 69.6382 67.9577 70.1357 68.4867 70.7606L67.437 71.77C67.0509 71.2778 66.5537 70.8839 65.9862 70.6208C65.4186 70.3576 64.7968 70.2326 64.1716 70.256C63.5721 70.243 62.9761 70.3512 62.4193 70.5741C61.8626 70.797 61.3566 71.1299 60.9316 71.553C60.0861 72.4822 59.6176 73.6933 59.6176 74.9495C59.6176 76.2058 60.0861 77.4169 60.9316 78.3461C61.3564 78.7694 61.8624 79.1025 62.4192 79.3254C62.976 79.5483 63.5721 79.6563 64.1716 79.6431C64.8682 79.651 65.5575 79.5017 66.1884 79.2064C66.8193 78.911 67.3754 78.4773 67.8155 77.9373L68.8652 78.987C68.3131 79.6354 67.6235 80.1526 66.8465 80.5011C66.0131 80.9072 65.0987 81.1194 64.1716 81.1218Z" fill="#5F6368"/>
<path d="M71.6914 80.8848H70.1774V69.1155H71.6914V80.8848Z" fill="#5F6368"/>
<path d="M74.1796 73.799C74.9699 73.0143 76.0385 72.574 77.1522 72.574C78.2659 72.574 79.3344 73.0143 80.1248 73.799C80.8764 74.6414 81.2918 75.7309 81.2918 76.8599C81.2918 77.9889 80.8764 79.0784 80.1248 79.9208C79.3344 80.7055 78.2659 81.1458 77.1522 81.1458C76.0385 81.1458 74.9699 80.7055 74.1796 79.9208C73.428 79.0784 73.0126 77.9889 73.0126 76.8599C73.0126 75.7309 73.428 74.6414 74.1796 73.799ZM75.3 78.972C75.528 79.2168 75.8024 79.4137 76.1072 79.5515C76.412 79.6893 76.7412 79.765 77.0756 79.7744C77.4099 79.7838 77.7428 79.7266 78.0549 79.6062C78.367 79.4858 78.652 79.3045 78.8934 79.0729L78.9943 78.972C79.4976 78.3834 79.7741 77.6344 79.7741 76.8599C79.7741 76.0854 79.4976 75.3364 78.9943 74.7478C78.7663 74.503 78.4919 74.306 78.1871 74.1683C77.8823 74.0305 77.5531 73.9548 77.2187 73.9454C76.8844 73.936 76.5515 73.9932 76.2394 74.1136C75.9273 74.234 75.6423 74.4153 75.4009 74.6468L75.3 74.7478C74.7942 75.3342 74.5159 76.0829 74.5159 76.8574C74.5159 77.6318 74.7942 78.3805 75.3 78.967V78.972Z" fill="#5F6368"/>
<path d="M89.623 80.8847H88.1645V79.7693H88.119C87.8597 80.1941 87.4922 80.5424 87.0541 80.7787C86.5942 81.0447 86.0714 81.1824 85.5401 81.1774C85.1145 81.2061 84.6879 81.1384 84.292 80.9793C83.8962 80.8203 83.5413 80.574 83.2539 80.2589C82.7014 79.5608 82.4232 78.6849 82.4716 77.796V72.84H83.9856V77.5184C83.9856 79.019 84.6485 79.7693 85.9741 79.7693C86.2659 79.776 86.5551 79.7137 86.8182 79.5874C87.0814 79.4611 87.3109 79.2744 87.4882 79.0426C87.8793 78.5473 88.0878 77.9324 88.0787 77.3014V72.84H89.5927V80.8847H89.623Z" fill="#5F6368"/>
<path d="M94.7455 81.1219C94.2339 81.124 93.7279 81.015 93.2626 80.8024C92.7973 80.5898 92.3837 80.2786 92.0505 79.8905C91.321 79.0404 90.9199 77.9573 90.9199 76.8371C90.9199 75.717 91.321 74.6338 92.0505 73.7838C92.3837 73.3956 92.7973 73.0845 93.2626 72.8719C93.7279 72.6593 94.2339 72.5502 94.7455 72.5524C95.3182 72.5438 95.8839 72.6792 96.3907 72.946C96.8376 73.1697 97.2159 73.5097 97.4859 73.9301H97.5515L97.4859 72.8148V69.0902H99V80.8595H97.5414V79.7441H97.4758C97.2058 80.1646 96.8275 80.5046 96.3807 80.7283C95.8769 80.9937 95.3148 81.129 94.7455 81.1219ZM94.9928 79.7441C95.3333 79.7488 95.671 79.6811 95.9834 79.5453C96.2957 79.4096 96.5757 79.209 96.8046 78.9568C97.276 78.3508 97.532 77.6049 97.532 76.8371C97.532 76.0693 97.276 75.3235 96.8046 74.7175C96.3647 74.2353 95.7514 73.9474 95.0994 73.9171C94.4474 73.8868 93.81 74.1166 93.3273 74.556C93.2718 74.6064 93.2163 74.6619 93.1658 74.7175C92.6939 75.3204 92.4375 76.0639 92.4375 76.8296C92.4375 77.5952 92.6939 78.3388 93.1658 78.9417C93.3925 79.2034 93.6732 79.4129 93.9886 79.5558C94.304 79.6987 94.6465 79.7715 94.9928 79.7694V79.7441Z" fill="#5F6368"/>
</svg>
