<svg width="100" height="100" viewBox="0 0 100 100" fill="none" xmlns="http://www.w3.org/2000/svg">
<path d="M6.14756 43H10.7317L5.97253 57.088C5.92374 57.2329 5.83077 57.3589 5.70668 57.4482C5.5826 57.5375 5.43363 57.5857 5.28074 57.586H1.71551C1.52208 57.586 1.33658 57.5092 1.19981 57.3724C1.06304 57.2356 0.986207 57.0501 0.986207 56.8567C0.986119 56.7774 0.998783 56.6986 1.02371 56.6233L5.45369 43.4959C5.50321 43.3512 5.59672 43.2257 5.72113 43.1367C5.84555 43.0478 5.99464 43 6.14756 43Z" fill="url(#paint0_linear_1_6682)"/>
<path d="M12.8031 52.4495H5.53932C5.49455 52.4494 5.45024 52.4584 5.40898 52.4758C5.36773 52.4932 5.33037 52.5186 5.2991 52.5507C5.26784 52.5827 5.2433 52.6207 5.22694 52.6623C5.21058 52.704 5.20273 52.7485 5.20384 52.7933C5.20368 52.8397 5.21302 52.8856 5.2313 52.9283C5.24958 52.9709 5.2764 53.0094 5.31011 53.0412L9.97763 57.3962C10.1115 57.5271 10.2905 57.6017 10.4777 57.6046H14.591L12.8031 52.4495Z" fill="#0078D4"/>
<path d="M6.14748 43C5.99281 42.9988 5.84185 43.0474 5.7169 43.1386C5.59195 43.2298 5.49964 43.3587 5.4536 43.5064L1.02988 56.6108C0.997443 56.7009 0.983089 56.7964 0.987639 56.892C0.99219 56.9875 1.01556 57.0813 1.0564 57.1678C1.09724 57.2543 1.15476 57.3319 1.22566 57.3962C1.29655 57.4605 1.37943 57.5101 1.46954 57.5423C1.54896 57.5714 1.63291 57.5862 1.71751 57.586H5.37442C5.51071 57.5617 5.63809 57.5016 5.74353 57.4119C5.84897 57.3222 5.92869 57.2061 5.97453 57.0755L6.85594 54.4771L10.0065 57.4151C10.139 57.5234 10.3043 57.5836 10.4754 57.586H14.574L12.7758 52.4497H7.53732L10.7442 43H6.14748Z" fill="url(#paint1_linear_1_6682)"/>
<path d="M11.9966 43.4959C11.9479 43.3516 11.8551 43.2261 11.7314 43.1372C11.6077 43.0482 11.4593 43.0003 11.3069 43H6.19556C6.34792 43.0003 6.49637 43.0482 6.62007 43.1372C6.74377 43.2261 6.83651 43.3516 6.88527 43.4959L11.3173 56.6233C11.3547 56.7326 11.3656 56.8492 11.3489 56.9635C11.3323 57.0778 11.2887 57.1865 11.2216 57.2806C11.1546 57.3747 11.0662 57.4515 10.9636 57.5046C10.861 57.5577 10.7473 57.5856 10.6318 57.586H15.7369C15.9303 57.586 16.1158 57.5092 16.2526 57.3724C16.3893 57.2356 16.4662 57.0501 16.4662 56.8567C16.4663 56.7774 16.4536 56.6986 16.4287 56.6233L11.9966 43.4959Z" fill="url(#paint2_linear_1_6682)"/>
<path d="M27.4975 54.7187H26.1181V49.3011C26.1181 48.8579 26.1458 48.3148 26.2014 47.6716H26.1764C26.1199 47.9393 26.044 48.2026 25.9493 48.4592L23.4488 54.7229H22.4903L19.9899 48.5072C19.8955 48.2351 19.821 47.9565 19.7669 47.6737H19.7398C19.7711 48.0071 19.7877 48.5551 19.7877 49.3136V54.7312H18.5V46.3339H20.4566L22.657 51.9203C22.7864 52.2325 22.8956 52.5527 22.9841 52.8788H23.0133C23.1571 52.4391 23.2759 52.112 23.3655 51.8974L25.6096 46.3339H27.4975V54.7187Z" fill="#36BAED"/>
<path d="M29.8625 47.8466C29.6524 47.8532 29.4479 47.7786 29.2915 47.6383C29.2148 47.569 29.1541 47.484 29.1134 47.389C29.0728 47.2941 29.0532 47.1914 29.0561 47.0882C29.0538 46.9844 29.0737 46.8813 29.1143 46.7858C29.1549 46.6902 29.2153 46.6044 29.2915 46.5339C29.4451 46.3873 29.6502 46.3072 29.8625 46.3109C30.0785 46.3068 30.2877 46.3868 30.4459 46.5339C30.5234 46.6036 30.585 46.6892 30.6263 46.7848C30.6677 46.8805 30.6879 46.984 30.6855 47.0882C30.6867 47.1901 30.666 47.291 30.6246 47.3842C30.5833 47.4773 30.5223 47.5604 30.4459 47.6278C30.3679 47.701 30.2762 47.758 30.176 47.7955C30.0759 47.8331 29.9693 47.8505 29.8625 47.8466ZM30.5334 54.7229H29.179V48.7364H30.5334V54.7229Z" fill="#36BAED"/>
<path d="M36.3575 54.4438C35.838 54.7317 35.251 54.8756 34.6572 54.8605C34.2607 54.877 33.8651 54.8115 33.4951 54.6681C33.125 54.5247 32.7886 54.3065 32.5068 54.0271C32.2322 53.7408 32.0181 53.402 31.8774 53.0311C31.7367 52.6602 31.6723 52.2647 31.6879 51.8683C31.6879 50.882 31.981 50.0902 32.5672 49.4929C33.1534 48.8956 33.9376 48.5962 34.9197 48.5948C35.4162 48.5847 35.909 48.6829 36.3638 48.8824V50.143C35.9829 49.8445 35.514 49.6804 35.0302 49.6763C34.7679 49.6678 34.5068 49.7152 34.2643 49.8155C34.0218 49.9157 33.8034 50.0664 33.6237 50.2576C33.2474 50.6733 33.0505 51.2207 33.0757 51.7808C33.0487 52.3161 33.2345 52.8404 33.5924 53.2394C33.7735 53.4207 33.9905 53.5622 34.2295 53.6548C34.4685 53.7474 34.7242 53.789 34.9802 53.777C35.4866 53.7692 35.9744 53.585 36.3596 53.2561L36.3575 54.4438Z" fill="#36BAED"/>
<path d="M40.9413 50.0262C40.7337 49.8855 40.4851 49.818 40.2349 49.8345C40.0356 49.8353 39.8396 49.8854 39.6644 49.9803C39.4892 50.0751 39.3401 50.2119 39.2305 50.3783C38.9399 50.8142 38.7981 51.3325 38.8263 51.8557V54.7187H37.4698V48.7363H38.8263V49.9678H38.8492C38.9565 49.5892 39.168 49.2484 39.4597 48.9843C39.7127 48.7569 40.0406 48.6307 40.3807 48.6301C40.5739 48.6193 40.7666 48.6573 40.9413 48.7405V50.0262Z" fill="#36BAED"/>
<path d="M44.2169 54.8586C43.2931 54.8586 42.5561 54.5808 42.006 54.0251C41.4559 53.4695 41.1781 52.7283 41.1725 51.8018C41.1725 50.7974 41.4601 50.0126 42.0352 49.4472C42.6103 48.8818 43.3841 48.5991 44.3565 48.5991C45.2927 48.5991 46.0213 48.8769 46.5423 49.4326C47.0632 49.9883 47.3244 50.7523 47.3258 51.7247C47.3258 52.679 47.0479 53.4431 46.4923 54.0168C45.9366 54.5905 45.1781 54.8711 44.2169 54.8586ZM44.2814 49.6681C44.0444 49.6588 43.8083 49.7041 43.5915 49.8006C43.3747 49.8971 43.183 50.0421 43.0312 50.2244C42.7011 50.6635 42.5379 51.2056 42.5707 51.7539C42.5397 52.2882 42.7057 52.8153 43.0375 53.2354C43.1919 53.4136 43.3845 53.5549 43.6009 53.6486C43.8173 53.7424 44.052 53.7863 44.2877 53.7771C44.52 53.7904 44.7523 53.7491 44.9658 53.6565C45.1792 53.5638 45.3681 53.4225 45.5171 53.2437C45.8046 52.8895 45.9484 52.3852 45.9484 51.7309C45.9484 51.0767 45.8046 50.5682 45.5171 50.2057C45.3683 50.0248 45.1787 49.8817 44.9639 49.7883C44.7491 49.6948 44.5152 49.6536 44.2814 49.6681Z" fill="#36BAED"/>
<path d="M48.1074 54.5315V53.2812C48.5859 53.6565 49.1767 53.8598 49.7848 53.8584C50.6016 53.8584 51.0121 53.6167 51.0121 53.1333C51.0158 53.0094 50.9785 52.8878 50.9058 52.7874C50.8286 52.6852 50.7324 52.5988 50.6224 52.5332C50.4915 52.4488 50.3517 52.3789 50.2057 52.3248L49.666 52.1164C49.4379 52.0274 49.2159 51.9237 49.0013 51.806C48.8194 51.7092 48.6541 51.584 48.5116 51.4351C48.3819 51.2999 48.2812 51.1396 48.2157 50.9642C48.1461 50.7676 48.113 50.56 48.1178 50.3515C48.1131 50.0827 48.1854 49.8181 48.3262 49.5889C48.4642 49.3699 48.6484 49.1836 48.8658 49.043C49.1068 48.8879 49.3714 48.7732 49.6493 48.7033C49.9454 48.6271 50.25 48.5885 50.5557 48.5887C51.0612 48.5835 51.5634 48.6711 52.0372 48.8471V50.0327C51.6106 49.7431 51.1047 49.5924 50.5891 49.6014C50.4326 49.5993 50.2765 49.6168 50.1244 49.6535C49.9993 49.6828 49.8797 49.7321 49.7702 49.7994C49.6761 49.8554 49.5962 49.9324 49.5368 50.0244C49.4812 50.1107 49.4522 50.2114 49.4534 50.314C49.4495 50.4288 49.4784 50.5423 49.5368 50.6412C49.5978 50.7375 49.6806 50.8182 49.7785 50.8766C49.9 50.9527 50.0292 51.0155 50.164 51.0642C50.314 51.1204 50.487 51.1829 50.6807 51.2475C50.9173 51.3434 51.1489 51.4512 51.3746 51.5705C51.5653 51.6694 51.7413 51.7942 51.8976 51.9414C52.0397 52.0768 52.1525 52.2399 52.2289 52.4207C52.3119 52.6256 52.3517 52.8456 52.3456 53.0666C52.3536 53.3457 52.2813 53.6213 52.1373 53.8605C51.9956 54.0876 51.8038 54.2793 51.5767 54.421C51.3276 54.5757 51.0543 54.6877 50.7683 54.7523C50.4511 54.8245 50.1267 54.8601 49.8014 54.8586C49.2198 54.872 48.6421 54.7605 48.1074 54.5315Z" fill="#36BAED"/>
<path d="M56.0629 54.8584C55.1391 54.8584 54.4022 54.5805 53.8521 54.0249C53.302 53.4692 53.0242 52.7281 53.0186 51.8016C53.0186 50.7972 53.3055 50.0123 53.8792 49.447C54.4529 48.8816 55.228 48.5975 56.2046 48.5947C57.1409 48.5947 57.8695 48.8726 58.3904 49.4282C58.9114 49.9839 59.1725 50.7479 59.1739 51.7203C59.1739 52.6746 58.8919 53.4387 58.3279 54.0124C57.7639 54.5861 57.0089 54.8681 56.0629 54.8584ZM56.1275 49.6678C55.8904 49.6586 55.6544 49.7039 55.4376 49.8004C55.2208 49.8969 55.0291 50.0419 54.8773 50.2242C54.5465 50.6629 54.3825 51.2051 54.4147 51.7536C54.3842 52.2882 54.5511 52.8154 54.8835 53.2352C55.0377 53.4138 55.2302 53.5552 55.4467 53.649C55.6632 53.7429 55.898 53.7866 56.1338 53.7769C56.3661 53.7902 56.5983 53.7489 56.8118 53.6562C57.0253 53.5636 57.2141 53.4222 57.3632 53.2435C57.6507 52.8893 57.7924 52.385 57.7924 51.7307C57.7924 51.0764 57.6507 50.5638 57.3632 50.2054C57.2144 50.0245 57.0248 49.8815 56.81 49.788C56.5952 49.6946 56.3613 49.6534 56.1275 49.6678Z" fill="#36BAED"/>
<path d="M63.1433 46.959C62.9524 46.8524 62.7368 46.7978 62.5182 46.8006C61.8597 46.8006 61.5305 47.1729 61.5305 47.9175V48.7301H62.9204V49.7928H61.5368V54.7187H60.1803V49.7991H59.1572V48.7364H60.1803V47.7654C60.1674 47.4859 60.2168 47.2071 60.3249 46.9491C60.433 46.691 60.5971 46.4603 60.8054 46.2734C61.2344 45.9032 61.7872 45.7083 62.3536 45.7275C62.6233 45.7172 62.8928 45.7546 63.1496 45.838L63.1433 46.959Z" fill="#36BAED"/>
<path d="M66.6648 54.6541C66.338 54.8024 65.9816 54.8737 65.6229 54.8625C64.4602 54.8625 63.8796 54.3068 63.881 53.1955V49.7991H62.8724V48.7364H63.8726V47.3507L65.227 46.9652V48.7364H66.6606V49.7991H65.227V52.7934C65.2027 53.0609 65.2711 53.3287 65.4208 53.5518C65.5042 53.635 65.605 53.6987 65.716 53.7384C65.827 53.778 65.9453 53.7926 66.0626 53.781C66.2801 53.7834 66.4917 53.7097 66.6606 53.5727L66.6648 54.6541Z" fill="#36BAED"/>
<path d="M76.9605 54.7187H75.4353L74.681 52.585H71.3866L70.6615 54.7166H69.1425L72.2805 46.3339H73.8454L76.9605 54.7187ZM74.3142 51.4535L73.1515 48.1196C73.1023 47.9466 73.0647 47.7705 73.039 47.5924H73.0161C72.9913 47.771 72.9523 47.9473 72.8994 48.1196L71.7492 51.4535H74.3142Z" fill="#36BAED"/>
<path d="M82.5157 49.3033L79.2839 53.6625H82.5032V54.7189H77.3856V54.2105L80.6862 49.793H77.7003V48.7366H82.5157V49.3033Z" fill="#36BAED"/>
<path d="M88.6416 54.7189H87.2872V53.7729H87.2643C87.0967 54.1126 86.8339 54.3961 86.5079 54.5889C86.1819 54.7816 85.8069 54.8753 85.4285 54.8585C84.013 54.8585 83.3059 54.0098 83.3073 52.3122V48.7366H84.6638V52.1684C84.6638 53.2436 85.0805 53.7812 85.914 53.7812C86.1019 53.7861 86.2885 53.7485 86.4598 53.6713C86.6312 53.5941 86.7829 53.4793 86.9038 53.3353C87.1731 53.008 87.3099 52.5917 87.2872 52.1684V48.7366H88.6416V54.7189Z" fill="#36BAED"/>
<path d="M93.2801 50.0261C93.0716 49.8857 92.8224 49.8183 92.5716 49.8344C92.3724 49.8354 92.1765 49.8856 92.0013 49.9804C91.8261 50.0753 91.677 50.2119 91.5672 50.3782C91.2773 50.8144 91.1363 51.3326 91.1651 51.8556V54.7186H89.8086V48.7363H91.1651V49.9677H91.188C91.2937 49.5884 91.5055 49.2472 91.7985 48.9842C92.0515 48.7568 92.3794 48.6307 92.7195 48.63C92.9127 48.6195 93.1053 48.6575 93.2801 48.7404V50.0261Z" fill="#36BAED"/>
<path d="M98.9686 52.0955H94.8908C94.8831 52.3324 94.9244 52.5684 95.0123 52.7885C95.1001 53.0087 95.2326 53.2083 95.4013 53.3749C95.7726 53.6955 96.2533 53.8604 96.7432 53.8354C97.3775 53.8351 97.9949 53.6305 98.5039 53.2519V54.3459C97.958 54.6876 97.237 54.8585 96.341 54.8585C95.445 54.8585 94.7539 54.5869 94.2677 54.0437C93.7677 53.502 93.5176 52.7379 93.5176 51.7516C93.4855 50.9125 93.7849 50.0943 94.3511 49.4742C94.6113 49.1899 94.9292 48.9644 95.2834 48.8127C95.6377 48.6611 96.0203 48.5868 96.4056 48.5948C97.2238 48.5948 97.8573 48.8581 98.306 49.3846C98.7547 49.911 98.9783 50.6417 98.9769 51.5766L98.9686 52.0955ZM97.6704 51.137C97.6917 50.7296 97.5693 50.3277 97.3245 50.0013C97.2116 49.8646 97.0686 49.7558 96.9066 49.6835C96.7447 49.6113 96.5682 49.5774 96.391 49.5846C96.2049 49.5815 96.0202 49.618 95.8492 49.6916C95.6783 49.7653 95.5249 49.8744 95.3992 50.0117C95.117 50.3197 94.9423 50.7109 94.9012 51.1265L97.6704 51.137Z" fill="#36BAED"/>
<defs>
<linearGradient id="paint0_linear_1_6682" x1="8.34946" y1="44.0909" x2="3.60035" y2="58.1204" gradientUnits="userSpaceOnUse">
<stop stop-color="#114A8B"/>
<stop offset="1" stop-color="#0669BC"/>
</linearGradient>
<linearGradient id="paint1_linear_1_6682" x1="9.83165" y1="50.6311" x2="8.73295" y2="51.0016" gradientUnits="userSpaceOnUse">
<stop stop-opacity="0.3"/>
<stop offset="0.07" stop-opacity="0.2"/>
<stop offset="0.32" stop-opacity="0.1"/>
<stop offset="0.62" stop-opacity="0.05"/>
<stop offset="1" stop-opacity="0"/>
</linearGradient>
<linearGradient id="paint2_linear_1_6682" x1="9.26295" y1="43.6683" x2="14.4769" y2="57.5581" gradientUnits="userSpaceOnUse">
<stop stop-color="#3CCBF4"/>
<stop offset="1" stop-color="#2892DF"/>
</linearGradient>
</defs>
</svg>
