<svg width="100" height="100" viewBox="0 0 100 100" fill="none" xmlns="http://www.w3.org/2000/svg">
<path d="M11.4999 44.7222C11.0777 45.5665 11.288 46.2695 11.8514 46.2695C12.4148 46.2695 13.2582 45.6363 13.6795 44.7929C14.1008 43.9495 13.8914 43.2456 13.328 43.2456C12.7655 43.1749 11.9211 43.8787 11.4999 44.7222ZM16.3526 41.6983C16.0011 42.7536 15.4386 43.8796 14.8054 44.7222C13.5398 46.5503 11.7815 47.6763 10.8665 47.3248C9.8818 46.9026 10.1635 45.0746 11.3584 43.2447C11.6238 42.8395 11.9301 42.4625 12.2724 42.1196L11.0767 42.3316C6.92591 47.4662 5.15971 54.0772 5.45113 59.9854C2.9898 59.0006 1.23149 56.6091 1.02046 53.5854C0.668949 48.2406 4.88859 42.7545 10.5141 41.3477C12.6248 40.8559 14.6649 40.9962 16.3428 41.6993L16.3526 41.6983Z" fill="#C40022"/>
<path d="M14.8145 56.1173L13.5489 56.8909C13.4783 55.6253 13.1974 54.359 12.7047 53.3036C11.4391 50.5605 9.18806 50.3495 7.71147 52.8117C6.79742 54.359 6.37523 56.5386 6.5157 58.6404C8.06298 59.1322 9.89198 59.2029 11.7906 58.7111C17.3544 57.3043 21.6376 51.8191 21.2843 46.4735C21.0724 41.7611 17.3455 38.7372 12.7038 39.018C12.2816 39.5099 11.8595 39.9321 11.4382 40.4248C14.1813 40.0733 16.3617 40.6368 17.7677 41.7611C12.8443 48.7943 13.4774 52.7322 14.8136 56.1085C14.8136 56.0378 14.8136 56.0378 14.8136 56.1085L14.8145 56.1173ZM60.7401 48.1691C61.9359 48.1691 62.7713 48.4517 63.2014 48.661L62.7792 50.7805C62.2874 50.4978 61.5137 50.2179 60.5979 50.2179C59.8949 50.2179 59.4022 50.5005 59.4022 51.0622C59.4022 51.4137 59.7537 51.7652 60.5272 52.1175C61.512 52.6093 62.7085 53.383 62.7085 54.7201C62.7085 55.6341 62.4259 56.338 61.8643 56.9013C61.0907 57.6749 59.833 58.0971 58.3476 58.0971C57.2226 58.0971 56.0268 57.7456 55.4642 57.3235L55.8864 55.204C56.5197 55.6262 57.7145 56.0483 58.6295 56.0483C59.3325 56.0483 59.8253 55.6968 59.8253 55.204C59.8253 54.7113 59.4738 54.4305 58.6295 54.0083C57.2932 53.3052 56.5982 52.461 56.5982 51.4764C56.5982 49.4451 58.2762 48.1708 60.749 48.1708L60.7401 48.1691ZM45.0556 48.1691C45.7275 48.1708 46.3939 48.2898 47.025 48.5206L46.6028 50.7708C46.1806 50.5588 45.6887 50.4193 45.0555 50.4193C43.0243 50.4193 41.8206 52.1856 41.8206 53.8652C41.8206 55.272 42.8053 55.8345 43.6487 55.8345C44.4223 55.8345 45.1253 55.6933 45.9695 55.2013L45.5474 57.5222C44.9141 57.8048 43.8694 58.014 42.875 58.014C40.4137 58.014 38.8656 56.4667 38.8656 54.1459C38.8656 50.7696 41.538 48.167 45.0546 48.167L45.0556 48.1691ZM33.6632 50.8415C32.8896 51.615 32.3269 53.0227 32.3269 54.147C32.3269 55.1318 32.6784 55.7649 33.3117 55.7649C34.367 55.7649 35.2105 54.7096 35.5618 53.0925L35.7738 52.0372C35.8445 51.6857 35.8445 51.404 35.8445 51.2637C35.8445 50.5606 35.493 50.2084 34.8597 50.2084C34.3679 50.279 34.0155 50.491 33.6639 50.8416L33.6632 50.8415ZM34.6479 57.8747L34.7186 57.4525C34.7893 57.101 35.0701 56.5385 35.2105 56.3972C35.2811 56.3265 35.2105 56.1853 35.1398 56.1853C35.0691 56.1146 34.9278 56.1853 34.9278 56.256V56.3267C34.8571 56.5386 34.7866 57.0297 34.3653 57.3819C33.8027 57.8738 33.029 58.2262 32.184 58.2262C30.2852 58.2262 29.441 56.5483 29.441 54.9206C29.441 53.0218 30.2145 51.1232 31.4103 49.9274C32.4271 48.8862 33.823 48.3023 35.2784 48.3096C36.4035 48.3096 37.2478 48.6611 37.8103 49.2943C38.5839 50.279 38.5133 51.6859 38.3022 52.7402L37.3174 58.085L34.6451 57.873L34.6479 57.8747ZM67.3504 55.976C68.827 55.976 69.9529 53.8565 69.9529 52.0372C69.9529 51.615 69.8822 50.49 68.8279 50.49C67.7735 50.49 66.8585 51.6857 66.5777 53.5138C66.3658 54.0764 66.0858 55.9751 67.3513 55.9751L67.3504 55.976ZM69.8117 48.1691C71.7105 48.1691 72.9062 49.5759 72.9062 51.8253C72.9062 54.1461 71.7812 56.5377 69.8117 57.5922C68.2644 58.4365 66.8576 58.2254 66.1555 57.6629C66.0142 57.5216 65.9436 57.171 65.9436 57.0297C65.9436 56.959 65.8023 56.8884 65.7316 56.959C65.6609 56.959 65.5904 57.1002 65.5904 57.1709C65.7316 57.3829 65.8023 57.5931 65.8023 57.8041L65.1691 60.9693H62.3562L64.7407 48.3105H67.202L67.0608 48.7327C66.9195 49.4357 66.7092 49.7174 66.5689 49.8578C66.4982 49.9284 66.5689 50.0697 66.6396 50.0697C66.7103 50.1404 66.8515 50.1404 66.8515 49.999C66.9222 49.7871 67.0635 49.296 67.4848 48.9437C68.1878 48.4519 68.9613 48.1701 69.8056 48.1701L69.8117 48.1691ZM48.8567 45.004H51.6695L50.1929 52.599L53.9198 48.3087H56.9437L53.0756 52.6696L55.4671 57.8041H52.4423L50.1922 52.8109L49.2074 57.8748H46.384L48.8453 45.004H48.8567ZM29.9355 48.0984C30.0768 48.0984 30.287 48.0984 30.4274 48.1691L29.8648 50.9121C29.7941 50.9121 29.5822 50.8415 29.4426 50.8415C27.5438 50.8415 26.7703 52.7402 26.4886 54.2874L25.7855 57.9436H22.9807L24.8088 48.3175H27.2701L27.1289 48.9507C26.9876 49.5839 26.8463 49.9354 26.7067 50.0758C26.636 50.1465 26.7067 50.2877 26.7774 50.2877C26.8481 50.2877 26.9893 50.2877 26.9893 50.217C27.06 50.0051 27.1306 49.5838 27.5519 49.1617C28.2549 48.5285 29.0991 48.1064 29.9434 48.1064L29.9355 48.0984ZM96.3277 50.9819C96.3277 50.4901 95.9057 50.2084 95.343 50.2084C94.429 50.2084 93.725 50.7709 93.3737 51.4739C93.091 51.9658 93.0221 52.0365 92.8111 52.1769C92.7404 52.2476 92.7404 52.3889 92.8111 52.3889C92.8818 52.4596 92.9524 52.4596 93.0231 52.4596C93.235 52.2476 93.235 52.108 94.0078 52.108C95.1329 52.0374 95.8359 51.8961 96.1891 51.5455C96.2598 51.4043 96.3303 51.2629 96.3303 50.983L96.3277 50.9819ZM92.4596 53.936C92.7422 54.148 92.8818 54.4986 92.8818 54.639C92.9525 54.851 93.0231 54.9905 93.0937 55.1309C93.4453 55.6227 94.0785 55.8339 94.9218 55.8339C96.1176 55.8339 97.1031 55.5513 98.2274 54.9198L97.8052 57.2407C96.469 57.9437 94.8512 58.0143 94.2886 58.0143C91.686 58.0143 90.1379 56.5377 90.1379 54.0049C90.1379 52.5283 90.7004 51.0508 91.6144 49.9248C92.6697 48.7291 94.0758 48.026 95.6945 48.026C97.6638 48.026 99.0001 49.1511 99.0001 50.9094C99.0001 51.683 98.7175 52.386 98.2265 52.8788C97.3823 53.723 95.835 54.1443 93.5141 54.1443C92.9516 54.1443 92.8111 53.8617 92.7406 53.6525C92.6699 53.5818 92.5286 53.5818 92.5286 53.6525C92.3874 53.7232 92.3874 53.8644 92.4579 53.9351L92.4596 53.936ZM88.6622 48.1691C89.3652 48.1691 90.1388 48.3103 90.6315 48.5206L90.2093 50.7708C89.7872 50.5588 89.2953 50.4193 88.662 50.4193C86.6308 50.4193 85.4271 52.1856 85.4271 53.8652C85.4271 55.272 86.4119 55.8345 87.2552 55.8345C88.0288 55.8345 88.7318 55.6933 89.5761 55.2013L89.154 57.5222C88.5208 57.8048 87.4761 58.014 86.4817 58.014C84.0203 58.014 82.4723 56.4667 82.4723 54.1459C82.4723 50.7696 85.1446 48.167 88.6613 48.167L88.6622 48.1691ZM77.2671 50.8415C76.4936 51.615 75.9309 53.0227 75.9309 54.147C75.9309 55.1318 76.2824 55.7649 76.9156 55.7649C77.9709 55.7649 78.8144 54.7096 79.1658 53.0925L79.3777 52.0372C79.4484 51.6857 79.4484 51.404 79.4484 51.2637C79.4484 50.5606 79.0969 50.2084 78.4637 50.2084C78.0088 50.2896 77.5907 50.511 77.2679 50.8416L77.2671 50.8415ZM78.3224 57.8747L78.3931 57.4525C78.4638 57.101 78.8153 56.5385 78.885 56.3972C78.9557 56.3265 78.885 56.1853 78.8143 56.1853C78.7436 56.1146 78.6023 56.1853 78.6023 56.256V56.3267C78.5317 56.5386 78.4611 57.0297 78.0398 57.3819C77.4773 57.8738 76.7036 58.2262 75.8585 58.2262C73.9597 58.2262 73.1155 56.5483 73.1155 54.9206C73.1155 53.0218 73.889 51.1232 75.0848 49.9274C76.1016 48.8862 77.4976 48.3023 78.9529 48.3096C80.078 48.3096 80.9223 48.6611 81.4848 49.2943C82.2584 50.279 82.1878 51.6859 81.9767 52.7402L80.9919 58.085L78.3224 57.8747Z" fill="black"/>
</svg>
