<svg xmlns="http://www.w3.org/2000/svg" width="100" height="100" fill="none"><path fill="#706259" d="M39.743 48.096c.74 0 1.295.092 1.85.37.554.185 1.016.555 1.479.925.37.37.74.832.924 1.387q.278.831.278 1.664c0 .925-.185 1.757-.555 2.404s-1.017 1.202-1.942 1.572c.463.092.74.277 1.017.555.278.277.463.555.648.832.185.37.277.647.37 1.11.092.37.092.832.184 1.202v.832c0 .37 0 .647.093 1.017 0 .37.092.647.185 1.017.092.277.185.555.37.832h-3.422c-.184-.462-.277-1.11-.37-1.757 0-.647-.092-1.387-.184-1.941-.093-.833-.37-1.387-.74-1.757s-1.017-.555-1.85-.555H34.75v6.103h-3.421V48.096zm-1.294 7.027c.74 0 1.387-.185 1.756-.554.37-.37.555-.925.555-1.757q0-1.11-.555-1.665c-.37-.37-1.017-.554-1.756-.554h-3.7v4.438h3.7zM46.678 54.014c.277-.463.74-.833 1.202-1.11s1.017-.462 1.664-.647c.648-.093 1.203-.185 1.85-.185.555 0 1.11 0 1.757.092.554.093 1.11.278 1.571.463.463.277.833.554 1.203 1.017.277.462.462.925.462 1.664v5.918c0 .555 0 1.017.092 1.48.093.462.185.832.278 1.017h-3.144c-.093-.185-.093-.37-.185-.555 0-.185-.092-.37-.092-.555-.463.555-1.11.832-1.757 1.11a7.7 7.7 0 0 1-2.035.277c-.554 0-1.017-.093-1.479-.185s-.832-.37-1.202-.647a2.9 2.9 0 0 1-.832-1.017 3.8 3.8 0 0 1-.278-1.48c0-.647.093-1.202.37-1.572.185-.37.555-.74.832-1.017.37-.277.74-.462 1.203-.555l1.386-.277c.463-.093.925-.093 1.387-.185.463 0 .833-.092 1.203-.185.37-.092.647-.185.832-.37s.277-.37.277-.74-.092-.647-.185-.832a1.1 1.1 0 0 0-.462-.462c-.185-.093-.37-.185-.647-.185-.278 0-.463-.092-.74-.092-.647 0-1.11.092-1.48.37-.37.277-.554.647-.647 1.294h-3.051c.185-.74.37-1.387.647-1.85m6.103 4.438c-.185.093-.37.093-.648.185-.184 0-.462.092-.74.092s-.462.093-.739.093-.462.092-.647.185c-.185.092-.462.185-.555.277-.185.093-.277.278-.37.463a1.74 1.74 0 0 0-.185.74c0 .277.093.554.185.739.093.185.277.37.37.462.185.093.37.185.647.185.278 0 .463.093.74.093q.971 0 1.387-.278c.37-.185.555-.462.74-.74q.277-.415.277-.832c0-.277.093-.554.093-.74v-1.201zM66.28 62.243c-.37.648-.831 1.017-1.479 1.295-.554.277-1.294.37-2.034.37a5.6 5.6 0 0 1-2.22-.463c-.646-.37-1.201-.74-1.571-1.294-.462-.555-.74-1.202-.925-1.942a9.3 9.3 0 0 1-.277-2.312q0-1.11.277-2.219c.185-.74.555-1.294.925-1.85a3.6 3.6 0 0 1 1.572-1.294c.647-.37 1.387-.462 2.22-.462.646 0 1.294.185 1.94.462.648.278 1.11.74 1.388 1.295v-5.733h3.144v15.627h-2.96zm-.184-5.548a3.1 3.1 0 0 0-.462-1.11c-.185-.37-.463-.554-.833-.831-.37-.185-.74-.278-1.294-.278-.555 0-.925.093-1.295.278q-.555.276-.832.832c-.185.37-.37.74-.462 1.11-.093.462-.185.832-.185 1.386 0 .463.092.832.185 1.295.092.462.277.832.462 1.202s.555.647.832.832c.37.185.74.277 1.202.277.555 0 .925-.092 1.295-.277q.555-.277.832-.832c.185-.37.37-.74.462-1.202.093-.463.093-.925.093-1.387.185-.462.092-.925 0-1.295M71.551 54.014c.278-.463.74-.833 1.203-1.11.462-.277 1.017-.462 1.664-.647.647-.093 1.202-.185 1.85-.185.554 0 1.109 0 1.756.092.555.093 1.11.278 1.572.463.462.277.832.554 1.202 1.017.277.462.462.925.462 1.664v5.918c0 .555 0 1.017.093 1.48.092.462.185.832.277 1.017h-3.144c-.092-.185-.092-.37-.185-.555 0-.185-.092-.37-.092-.555-.462.555-1.11.832-1.757 1.11a7.7 7.7 0 0 1-2.034.277c-.555 0-1.017-.093-1.48-.185-.462-.092-.832-.37-1.202-.647a2.9 2.9 0 0 1-.832-1.017c-.185-.37-.277-.925-.277-1.48 0-.647.092-1.202.37-1.572.184-.37.554-.74.832-1.017.37-.277.74-.462 1.202-.555l1.387-.277c.462-.093.924-.093 1.387-.185.462 0 .832-.092 1.202-.185.37-.092.647-.185.832-.37s.278-.37.278-.74-.093-.647-.186-.832a1.1 1.1 0 0 0-.462-.462c-.185-.093-.37-.185-.647-.185s-.462-.092-.74-.092c-.647 0-1.11.092-1.48.37-.37.277-.554.647-.647 1.294h-3.05c.092-.74.276-1.387.646-1.85m6.103 4.438c-.185.093-.37.093-.647.185-.185 0-.462.092-.74.092s-.462.093-.74.093-.462.092-.647.185c-.185.092-.462.185-.555.277-.184.093-.277.278-.37.463a1.74 1.74 0 0 0-.184.74c0 .277.092.554.184.739.093.185.278.37.37.462.185.093.37.185.648.185.277 0 .462.093.74.093q.97 0 1.386-.278c.37-.185.555-.462.74-.74q.278-.415.278-.832c0-.277.092-.554.092-.74v-1.201zM86.068 52.442v2.126c.185-.37.37-.647.555-1.017.277-.277.555-.555.832-.74.278-.184.648-.37 1.017-.462.37-.092.74-.185 1.11-.185.185 0 .462 0 .647.093v2.866c-.185 0-.277-.092-.555-.092h-.554c-.555 0-1.017.092-1.48.277-.37.185-.74.462-.924.74-.278.37-.37.74-.555 1.11-.093.462-.185.924-.185 1.386v5.086h-3.144V52.442z"/><path fill="#C4E86B" d="M22.452 61.041c3.236-2.404 5.27-6.288 5.27-10.633C27.723 43.01 21.713 37 14.316 37 7.01 37 1 43.01 1 50.407c0 7.213 5.733 13.13 12.945 13.316h13.778V61.04zM3.866 50.408a10.536 10.536 0 0 1 10.542-10.542 10.536 10.536 0 0 1 10.54 10.542 10.536 10.536 0 0 1-10.54 10.54 10.536 10.536 0 0 1-10.542-10.54"/><path fill="#C4E86B" d="M20.695 43.935c-1.664-1.664-3.79-2.59-6.195-2.59-2.312 0-4.53.926-6.195 2.59-3.421 3.421-3.421 9.062 0 12.575l.185-.185c-.37-.37-2.127-2.496-2.127-6.102 0-3.791 2.774-6.843 7.12-7.213.277 0 .647-.092.925-.092 1.941 0 3.698.74 5.085 2.127 2.774 2.866 2.774 7.582 0 10.448l1.11 1.017c3.513-3.513 3.513-9.154.092-12.575"/><path fill="#C4E86B" d="M18.846 45.784a5.81 5.81 0 0 0-4.253-1.85c-1.665 0-3.144.648-4.254 1.85-2.311 2.404-2.311 6.288 0 8.692l.278-.277c-.925-1.017-1.387-2.404-1.387-3.791 0-2.867 2.219-5.178 5.085-5.178 3.144 0 5.27 2.404 5.086 5.178-.093.924-.555 2.034-1.387 2.958l1.017 1.018c2.127-2.22 2.127-6.196-.185-8.6"/><path fill="#C4E86B" d="M16.997 47.726c-.648-.647-1.48-1.017-2.405-1.017s-1.756.37-2.404 1.017c-1.294 1.294-1.294 3.514 0 4.808l.278-.277a2.93 2.93 0 0 1-.832-2.034c0-1.48 1.11-2.682 2.404-2.682 1.11 0 2.034.832 2.311 1.85.093.184.093.277.093.462v.277c0 .555-.093 1.017-.37 1.387l.832.832c1.387-1.11 1.387-3.236.093-4.623"/><path fill="#706259" d="M95.962 50.408v-2.405h1.017c.185 0 .37 0 .463.093.092 0 .185.092.277.185.093.092.093.185.093.37s-.093.277-.185.462a.7.7 0 0 1-.463.185c.093 0 .185.092.185.092l.278.278.37.647h-.37l-.278-.462c-.092-.185-.185-.278-.185-.37l-.184-.185c-.093 0-.093-.093-.186-.093h-.554v1.203zm.278-1.295h1.017a.2.2 0 0 0 .185-.185c0-.092.092-.092.092-.185 0-.092 0-.185-.092-.277-.093-.093-.185-.093-.37-.093h-.74v.74z"/><path fill="#706259" d="M96.795 51.61a2.29 2.29 0 0 1-2.312-2.312 2.29 2.29 0 0 1 2.312-2.312 2.29 2.29 0 0 1 2.311 2.312 2.29 2.29 0 0 1-2.311 2.311m0-4.439c-1.11 0-2.035.925-2.035 2.034 0 1.11.925 2.035 2.035 2.035s2.034-.925 2.034-2.035c.092-1.11-.925-2.034-2.034-2.034"/></svg>