<svg width="100" height="100" viewBox="0 0 100 100" fill="none" xmlns="http://www.w3.org/2000/svg">
<path d="M85.329 63.8037C85.329 62.1837 85.28 60.6128 85.28 58.9928C85.28 53.9365 85.28 48.8801 85.28 43.8237C85.28 43.431 85.182 43.0383 85.427 42.5474C86.995 42.5474 88.612 42.5474 90.229 42.5474C91.209 42.5474 92.189 42.5474 93.169 42.5474C95.962 42.5965 97.873 44.1183 98.608 46.8183C98.706 47.1619 98.657 47.6037 99 47.8492C99 49.371 99 50.8437 99 52.3655C98.657 52.611 98.706 53.0528 98.608 53.3965C97.873 55.8019 96.452 57.471 93.904 57.9619C92.532 58.2074 91.16 58.1092 89.837 58.0601C89.102 58.0601 88.906 58.3055 88.906 59.0419C88.955 60.6128 88.906 62.1837 88.906 63.7546C87.632 63.8037 86.456 63.8037 85.329 63.8037ZM88.857 50.4019C88.857 51.531 88.906 52.611 88.857 53.7401C88.857 54.3783 89.102 54.6237 89.69 54.5746C90.621 54.5255 91.503 54.5746 92.434 54.5746C94.1 54.5746 95.374 53.4455 95.472 51.7765C95.521 50.8437 95.521 49.9601 95.472 49.0274C95.374 47.6037 94.149 46.2783 92.924 46.2292C91.797 46.1801 90.719 46.2292 89.592 46.2292C88.955 46.2292 88.808 46.5237 88.857 47.0637C88.857 48.1437 88.857 49.2728 88.857 50.4019Z" fill="#6F7073"/>
<path d="M57.693 44.1673C60.094 42.2037 64.112 42.0073 66.464 43.6273C67.934 44.6583 68.816 46.0819 68.816 47.8983C68.816 51.0401 68.816 54.1819 68.816 57.3237C68.816 58.011 68.62 58.2073 67.934 58.2564C65.141 58.3055 65.141 58.3055 65.141 55.4583C65.141 53.1019 65.141 50.7455 65.141 48.3892C65.141 46.7692 64.357 45.9837 62.74 45.9837C59.604 45.9346 59.506 46.0328 59.506 49.1746C59.506 51.8746 59.457 54.5255 59.506 57.2255C59.506 58.0601 59.261 58.3055 58.428 58.2564C57.84 58.2073 57.252 58.2073 56.664 58.2564C55.929 58.3055 55.782 58.011 55.782 57.3237C55.782 54.231 55.782 51.1873 55.782 48.0946C55.782 46.5728 55.145 45.9837 53.626 45.9837C53.087 45.9837 52.597 45.9837 52.058 45.9837C50.539 45.9837 50.441 46.0819 50.441 47.5546C50.441 50.6964 50.441 53.8383 50.441 56.9801C50.441 57.3237 50.441 57.6673 50.441 58.1583C49.216 58.1583 48.089 58.1583 46.913 58.1583C46.668 57.8146 46.766 57.471 46.766 57.0783C46.766 53.0528 46.766 49.0273 46.766 45.051C46.766 43.3328 47.403 42.6946 49.118 42.6946C50.343 42.6946 51.519 42.6946 52.744 42.6946C54.606 42.5964 56.517 42.3019 57.693 44.1673Z" fill="#6F7073"/>
<path d="M71.07 46.2291C71.07 45.0019 71.07 43.8728 71.07 42.7928C71.364 42.4982 71.756 42.5964 72.099 42.5964C74.549 42.5964 76.999 42.5964 79.449 42.5964C81.507 42.5964 82.781 43.48 83.467 45.4437C83.761 46.3273 83.908 47.2109 83.908 48.1437C83.908 51.1382 83.908 54.1328 83.908 57.1273C83.908 57.8637 83.761 58.1582 82.928 58.1582C79.792 58.1091 76.607 58.1091 73.471 58.1582C72.246 58.1582 71.462 57.6182 70.972 56.5873C69.992 54.5255 69.992 52.4637 71.021 50.4509C71.609 49.2237 72.589 48.5855 74.01 48.6346C75.578 48.6837 77.146 48.6346 78.714 48.6346C79.351 48.6346 79.89 48.3891 80.135 47.8C80.331 47.3582 80.184 46.9164 79.89 46.5237C79.547 46.1309 79.106 46.1309 78.616 46.1309C76.509 46.1309 74.402 46.1309 72.246 46.1309C71.903 46.2291 71.56 46.2291 71.07 46.2291ZM80.233 54.6237C80.233 53.9364 80.233 53.3473 80.233 52.8073C80.233 52.4637 80.086 52.2673 79.743 52.2673C78.077 52.2673 76.362 52.2182 74.696 52.2673C74.059 52.2673 73.765 52.8073 73.765 53.4455C73.765 54.0346 74.01 54.5746 74.696 54.6237C76.46 54.6728 78.273 54.6237 80.233 54.6237Z" fill="#6F7073"/>
<path d="M38.191 54.4764C40.641 54.4764 43.042 54.4764 45.541 54.4764C45.541 55.7528 45.541 56.8819 45.541 58.0109C45.296 58.2564 44.953 58.1582 44.659 58.1582C41.67 58.1582 38.73 58.1582 35.741 58.1582C35.3 58.1582 34.908 58.1582 34.467 58.1091C32.36 57.8146 31.527 55.7528 32.801 54.1328C33.487 53.2982 34.271 52.5619 35.006 51.8255C36.476 50.3037 37.995 48.8309 39.514 47.3091C39.759 47.0637 40.053 46.9164 40.102 46.3273C37.652 46.18 35.153 46.3273 32.654 46.2291C32.654 45.0509 32.654 43.9219 32.654 42.7928C32.899 42.5473 33.144 42.6455 33.438 42.6455C36.574 42.6455 39.71 42.6455 42.846 42.6455C43.973 42.6455 45.051 42.7437 45.541 43.9709C45.982 45.2473 45.884 46.4255 44.806 47.4564C42.797 49.42 40.788 51.4819 38.779 53.4946C38.534 53.74 38.191 53.9364 38.191 54.4764Z" fill="#F37225"/>
<path d="M2.37201 56.7346C2.37201 51.8255 2.37201 46.8674 2.37201 41.8601C11.682 40.7801 20.845 39.7492 30.057 38.7183C30.057 45.9837 30.057 53.151 30.057 60.5146C22.168 60.0728 14.279 59.631 6.39001 59.1892C6.39001 59.0419 6.39001 58.9437 6.39001 58.7964C13.642 58.7964 20.943 58.7964 28.293 58.7964C28.293 52.7092 28.293 46.8183 28.293 40.8292C27.117 40.731 25.941 40.9764 24.814 41.1237C21.727 41.4674 18.591 41.9092 15.504 42.2037C11.976 42.4983 8.44801 43.1364 4.92001 43.3819C4.13601 43.431 4.03801 43.7746 3.94001 44.4619C3.35201 48.5364 3.25401 52.6601 2.66601 56.7346C2.51901 56.7346 2.47001 56.7346 2.37201 56.7346Z" fill="#F37225"/>
<path d="M17.611 57.1274C17.513 57.5201 17.219 57.471 16.925 57.5201C16.435 57.5692 15.798 57.3237 15.504 58.011C15.406 58.2074 15.161 58.0601 14.916 57.9128C14.181 57.471 12.613 57.6183 11.976 58.1583C10.947 57.471 9.57502 57.5201 8.84002 58.2074C8.05602 57.4219 6.78202 57.4219 6.19402 58.2074C5.60602 57.5201 5.60602 57.5201 4.33202 57.3237C3.94002 57.6183 4.47902 58.011 4.08702 58.2564C3.74402 58.1092 3.84202 57.7655 3.79302 57.5201C3.69502 57.2255 3.40102 57.1764 3.20502 56.931C3.64602 56.6364 3.74402 56.1946 3.69502 55.6546C3.45002 51.8746 4.47902 48.2419 4.77302 44.2655C5.16502 44.8055 5.41002 44.8055 5.75302 44.7074C9.37902 43.4801 13.201 43.3819 16.974 42.891C18.738 42.6455 20.502 42.4492 22.315 42.351C22.903 42.3019 23.54 42.4983 24.128 42.4492C24.569 42.4492 25.108 42.5964 25.157 41.6146C25.745 42.9401 26.921 42.1546 27.607 42.8419C26.97 43.2837 26.333 42.891 25.696 43.1364C25.5 43.8728 25.843 44.5601 25.794 45.2964C26.186 45.6401 26.627 45.4437 27.068 45.4928C27.313 45.5419 27.558 45.591 27.509 45.8855C27.509 46.131 27.264 46.131 27.068 46.1801C26.676 46.2292 26.284 46.131 25.892 46.3274C25.892 47.1619 25.892 47.9964 25.892 48.7819C26.431 49.0274 26.97 48.5855 27.509 48.9292C27.558 49.5183 27.068 49.5183 26.725 49.5183C25.941 49.4692 25.794 49.8619 25.843 50.5492C25.892 51.0892 25.843 51.6292 25.843 52.1692C26.382 52.5128 26.97 52.0219 27.46 52.2183C27.656 52.6601 27.411 52.8564 27.068 52.8564C25.598 52.7583 25.549 53.7401 25.598 54.771C25.598 55.0164 25.598 55.2619 25.598 55.5074C26.235 55.851 26.872 55.1637 27.754 55.6546C26.48 56.1455 24.912 56.1455 25.157 58.1583C24.422 57.5692 25.01 57.0783 24.716 56.5874C24.128 56.4401 23.54 56.7837 22.952 56.7837C22.119 56.7837 22.609 57.8637 22.021 58.1092C21.531 57.8146 21.923 57.3728 21.629 57.0292C21.041 56.9801 20.404 57.2746 19.767 57.0292C19.767 56.6364 19.963 56.5383 20.306 56.4892C20.796 56.4401 21.335 56.3419 21.874 56.2437C21.923 55.311 22.021 54.4274 22.07 53.4946C21.384 53.5437 20.796 53.5928 20.208 53.5928C19.522 53.5928 19.228 53.9364 19.228 54.6237C19.228 55.0655 19.326 55.5074 19.032 55.9001C18.395 55.7037 18.689 55.2619 18.64 54.9183C18.591 54.5255 18.787 54.1328 18.493 53.7401C17.66 53.8383 16.827 53.8874 16.043 53.9855C15.749 54.4274 16.043 55.0164 15.455 55.311C14.867 55.0655 15.357 54.4274 14.965 54.1328C13.838 53.9855 12.76 54.1819 11.633 54.3292C11.388 54.2801 11.143 54.1819 10.849 54.1328C10.751 53.9364 10.604 53.8874 10.408 53.9364C10.604 53.2001 11.388 53.7892 11.78 53.2983C11.78 53.0037 11.78 52.5619 11.78 52.1692C11.976 52.2183 12.123 52.1692 12.172 51.9728C12.711 52.3655 12.123 53.0528 12.613 53.5437C13.397 53.4946 14.23 53.3964 15.112 53.2983C15.21 52.1692 15.7 51.0401 14.72 50.0092C14.965 49.8128 15.259 49.6164 15.504 49.4201C16.582 49.6655 17.66 49.4201 18.836 49.3219C18.836 48.7328 18.836 48.2419 18.836 47.7019C18.836 47.5055 18.885 47.3092 19.13 47.3092C19.424 47.3092 19.522 47.4564 19.522 47.751C19.571 48.2419 19.375 48.7328 19.669 49.2728C20.306 49.2237 20.992 49.2237 21.678 49.1746C21.972 49.1255 22.266 49.0274 22.266 48.6346C22.266 47.8983 22.266 47.1619 22.266 46.4746C21.776 46.2292 21.384 46.3764 21.041 46.3274C20.796 46.3274 20.453 46.4746 20.404 46.0819C20.355 45.591 20.796 45.6892 21.041 45.7383C21.923 45.7383 22.364 45.3946 22.168 44.4619C22.07 44.0201 22.217 43.5783 22.021 43.0874C21.237 43.0383 20.453 42.9892 19.669 43.1855C19.375 43.8728 19.816 44.6092 19.277 45.2964C18.64 44.7074 19.179 43.9219 18.787 43.2837C17.954 43.2837 17.121 43.2346 16.435 43.5292C15.945 44.3146 16.435 45.2474 15.651 45.9837C15.308 45.1492 15.651 44.4128 15.406 43.6764C14.573 43.5783 13.74 43.6274 13.054 43.971C12.711 44.7564 13.103 45.6892 12.368 46.3274C11.976 45.4928 12.417 44.8055 12.27 44.1183C11.78 44.0201 11.339 44.1674 10.849 44.2164C10.114 44.2655 9.72202 44.5601 9.77102 45.3455C9.77102 45.6401 9.77102 46.0328 9.33002 46.2292C8.98702 45.6892 9.37902 45.1001 9.13402 44.6092C7.02702 44.8546 6.58602 45.4437 7.02702 47.2601C7.41902 47.2601 7.81102 47.2601 8.20302 47.2601C8.20302 47.3583 8.20302 47.4074 8.20302 47.5055C7.86002 48.0455 7.32102 48.0946 6.73302 48.0946C6.78202 48.9292 6.39002 49.7146 6.58602 50.5492C7.32102 50.5983 7.95802 50.6474 8.59502 50.3037C8.79102 49.7146 8.49702 48.9292 9.33002 48.5855C9.52602 48.8801 9.42802 49.1746 9.47702 49.4201C9.47702 49.7146 9.37902 50.0092 9.57502 50.2546C9.62402 50.2546 9.72202 50.3037 9.77102 50.3037C10.457 50.2546 11.241 50.3528 11.78 50.0092C12.368 49.6164 11.976 48.7328 12.074 48.0946C12.123 47.7019 12.27 47.5055 12.711 47.6528C12.711 48.1437 12.711 48.6346 12.613 49.1255C12.515 49.6655 12.711 49.9601 13.201 50.1564C13.103 50.2055 13.054 50.3037 12.956 50.3528C12.711 50.5492 12.466 50.7455 12.221 50.9419C11.584 50.9419 10.898 50.9419 10.261 50.9419C9.57502 50.8928 9.23202 51.1383 9.28102 51.8746C9.28102 52.1692 9.42802 52.5619 8.88902 52.7092C8.49702 52.2674 8.88902 51.6292 8.59502 51.1383C7.95802 51.1874 7.27202 51.0401 6.58602 51.3346C6.53702 51.7764 6.53702 52.2183 6.48802 52.611C6.43902 53.0037 6.29202 53.4455 6.53702 53.8383C6.83102 54.1328 7.41902 53.6419 7.56602 54.2801C7.27202 54.7219 6.78202 54.3292 6.48802 54.6728C6.29202 57.3237 6.09602 57.3728 8.54602 57.1274C8.88902 56.6364 8.39902 55.9492 8.88902 55.5564C9.13402 55.6055 9.23202 55.7528 9.23202 55.9001C9.33002 57.2746 9.33002 57.2746 10.653 57.2746C10.996 57.2746 11.29 57.3237 11.535 57.2255C11.976 56.7346 11.339 55.7528 12.417 55.7528C12.417 56.2437 12.319 56.7837 12.564 57.3728C14.181 56.9801 15.896 56.6855 17.611 57.1274ZM15.945 53.2983C16.631 53.2492 17.317 53.2001 18.003 53.2001C18.444 53.2001 18.689 53.0037 18.689 52.5619C18.738 51.7764 18.836 50.9419 18.689 50.1564C15.7 50.4019 15.7 50.4019 15.896 53.1019C15.896 53.2001 15.896 53.2001 15.945 53.2983ZM19.424 50.1564C19.424 51.1383 19.424 52.071 19.424 53.0037C20.355 53.1019 21.188 52.8564 22.07 52.7583C22.168 51.7764 22.217 50.8928 22.119 49.9601C21.188 49.8128 20.355 50.1074 19.424 50.1564ZM25.255 52.3655C25.206 51.4328 25.402 50.5983 25.206 49.6655C24.422 49.6655 23.687 49.6164 22.952 49.8128C22.952 50.7455 22.609 51.6292 22.854 52.5619C23.638 52.7583 24.373 52.5128 25.255 52.3655ZM22.609 56.1455C23.295 56.2437 23.932 55.9983 24.569 55.9001C24.863 55.851 25.01 55.6546 25.059 55.3601C25.108 54.6237 25.157 53.8874 25.206 53.1019C24.52 53.2001 23.932 53.2492 23.295 53.3474C23.001 53.3964 22.707 53.3964 22.707 53.8383C22.707 54.5746 22.413 55.311 22.609 56.1455ZM22.952 46.2292C22.952 47.2601 22.952 48.1437 22.952 49.1255C23.785 49.0274 24.569 48.9292 25.402 48.8801C25.353 47.9474 25.304 47.1128 25.255 46.2783C24.422 46.2292 23.736 46.2292 22.952 46.2292ZM22.805 43.0874C22.658 43.9219 22.854 44.7074 22.952 45.4928C23.344 45.6892 23.736 45.591 24.079 45.591C24.471 45.591 24.863 45.6892 25.206 45.4437C25.451 43.0874 25.206 42.8419 22.805 43.0874ZM5.85102 53.7401C5.85102 52.9055 5.85102 52.1201 5.85102 51.3837C4.08702 51.1874 3.94002 51.1383 4.23402 53.7401C4.72402 53.8874 5.21402 53.8874 5.85102 53.7401ZM4.18502 54.4764C3.94002 56.6364 3.89102 57.1764 5.85102 56.7837C5.85102 56.0474 5.94902 55.2619 5.75302 54.4764C5.41002 54.4764 5.11602 54.4274 4.87102 54.4274C4.62602 54.4274 4.43002 54.4764 4.18502 54.4764ZM6.19402 48.0946C4.38102 48.1437 3.94002 48.7819 4.43002 50.5983C5.99802 50.7455 5.99802 50.7455 6.09602 49.2237C6.09602 48.8801 6.14502 48.4874 6.19402 48.0946ZM4.77302 47.5546C6.34102 47.5546 6.88002 46.8183 6.48802 45.1001C4.77302 45.3946 4.52802 45.6892 4.77302 47.5546Z" fill="#9FA0A3"/>
<path d="M8.154 47.3582C8.154 47.26 8.154 47.211 8.154 47.1128C8.546 46.4746 9.036 46.0328 9.771 46.5728C10.065 46.7691 10.408 46.72 10.702 46.72C12.564 46.5237 14.377 46.3764 16.239 46.0819C17.121 45.9346 18.052 46.18 18.787 45.4437C19.032 45.1982 19.473 45.2964 19.767 45.591C20.012 45.8364 20.159 46.131 20.012 46.4746C19.865 46.8182 19.669 47.0637 19.228 47.1619C18.934 47.211 18.591 47.0637 18.297 47.3091C17.366 48.0946 16.239 48.6837 15.357 49.5182C15.112 49.7146 14.818 49.911 14.573 50.1073C13.495 50.451 12.76 51.2855 12.025 52.0219C11.78 51.9237 11.682 52.0219 11.633 52.2182C10.947 52.4637 10.457 52.9546 9.918 53.3964C9.477 53.7891 9.673 54.0346 10.261 53.9855C10.31 54.231 10.506 54.1819 10.702 54.1819C10.947 54.231 11.192 54.3291 11.486 54.3782C13.446 55.2619 15.602 55.7037 17.66 56.3419C17.758 56.391 17.954 56.391 18.052 56.2928C18.934 55.8019 19.375 56.2928 19.718 57.0291C19.081 58.2564 18.591 58.2564 17.611 57.1273C15.896 56.4891 14.132 55.9491 12.319 55.5564C11.241 55.2128 10.31 54.3782 8.987 54.9673C8.448 55.2128 7.958 54.82 7.86 54.231C7.762 53.6419 8.056 53.1019 8.644 53.1019C10.212 53.0037 11.045 51.7764 12.123 50.9419C12.368 50.7455 12.613 50.5491 12.858 50.3528C12.956 50.3037 13.152 50.4019 13.103 50.1564C14.132 49.8128 14.867 49.0764 15.7 48.4382C15.798 48.34 15.945 48.291 16.043 48.1928C16.778 47.8 17.415 47.3091 18.248 46.5728C15.455 46.8673 12.956 47.1128 10.408 47.4073C10.261 47.4073 10.114 47.4564 10.065 47.5055C8.987 48.3891 8.938 48.3891 8.154 47.3582Z" fill="#F37225"/>
<path d="M15.602 62.4783C14.132 62.4783 13.103 62.3801 12.172 61.9874C11.829 61.8401 11.486 61.6438 11.486 61.251C11.486 60.9074 11.829 60.6619 12.123 60.5638C14.23 59.7783 16.337 59.8274 18.444 60.5638C18.738 60.6619 19.081 60.8583 19.081 61.251C19.081 61.6928 18.738 61.791 18.395 61.9383C17.317 62.4292 16.288 62.4292 15.602 62.4783Z" fill="#F37225"/>
<path d="M2.372 56.7346C2.421 56.7346 2.519 56.6855 2.568 56.6855C2.715 56.931 2.617 57.1765 2.421 57.4219C2.274 57.1765 2.323 56.9801 2.372 56.7346Z" fill="#F7AA7F"/>
<path d="M15.455 49.5183C16.337 48.6838 17.415 48.0947 18.395 47.3092C18.689 47.0638 19.032 47.211 19.326 47.1619C19.718 47.1129 19.963 46.8674 20.11 46.4747C20.208 46.131 20.11 45.8365 19.865 45.591C19.571 45.2965 19.13 45.1983 18.885 45.4438C18.15 46.2292 17.17 45.9838 16.337 46.0819C14.524 46.3274 12.662 46.5238 10.8 46.7201C10.506 46.7692 10.163 46.8183 9.86901 46.5729C9.13401 46.0329 8.64401 46.4747 8.25201 47.1129C7.86001 47.1129 7.46801 47.1129 7.07601 47.1129C6.63501 45.2965 7.07601 44.7074 9.18301 44.4619C9.47701 44.9529 9.03601 45.5419 9.37901 46.0819C9.82001 45.8856 9.82001 45.5419 9.82001 45.1983C9.77101 44.4129 10.114 44.1183 10.898 44.0692C11.339 44.0201 11.78 43.8729 12.319 43.971C12.466 44.6583 12.025 45.3456 12.417 46.1801C13.201 45.4929 12.809 44.6092 13.103 43.8238C13.789 43.5292 14.622 43.4801 15.455 43.5292C15.7 44.2656 15.357 45.0019 15.7 45.8365C16.484 45.1001 15.945 44.1674 16.484 43.3819C17.17 43.1365 18.003 43.1365 18.836 43.1365C19.228 43.7747 18.738 44.5601 19.326 45.1492C19.865 44.4619 19.424 43.7256 19.718 43.0383C20.453 42.891 21.286 42.891 22.07 42.9401C22.266 43.431 22.119 43.8729 22.217 44.3147C22.364 45.2474 21.972 45.591 21.09 45.591C20.845 45.591 20.404 45.4929 20.453 45.9347C20.502 46.3274 20.845 46.1801 21.09 46.1801C21.482 46.2292 21.874 46.0819 22.315 46.3274C22.315 47.0147 22.315 47.751 22.315 48.4874C22.315 48.8801 22.021 48.9783 21.727 49.0274C21.041 49.0765 20.404 49.1256 19.718 49.1256C19.424 48.7819 19.571 48.291 19.522 47.8001C19.522 47.5547 19.424 47.3583 19.13 47.3583C18.885 47.3583 18.836 47.5547 18.836 47.751C18.836 48.291 18.836 48.7819 18.836 49.371C17.611 49.5183 16.582 49.8129 15.455 49.5183Z" fill="#FDFCFC"/>
<path d="M12.123 50.8928C11.045 51.7765 10.212 52.9546 8.64401 53.0528C8.05601 53.1019 7.76201 53.5928 7.86001 54.1819C7.95801 54.771 8.49701 55.1637 8.98701 54.9183C10.261 54.3292 11.241 55.1637 12.319 55.5074C11.241 55.5074 11.829 56.5383 11.437 56.9801C11.192 57.1274 10.849 57.0292 10.555 57.0292C9.23201 57.0292 9.23201 57.0292 9.13401 55.6546C9.13401 55.4583 9.03601 55.3601 8.79101 55.311C8.30101 55.7528 8.79101 56.4401 8.44801 56.8819C5.99801 57.1274 6.19401 57.0783 6.39001 54.4274C6.68401 54.1328 7.17401 54.4765 7.46801 54.0346C7.37001 53.3965 6.73301 53.8874 6.43901 53.5928C6.19401 53.2001 6.34101 52.8074 6.39001 52.3655C6.43901 51.9237 6.43901 51.531 6.48801 51.0892C7.17401 50.8437 7.86001 50.9419 8.49701 50.8928C8.79101 51.4328 8.39901 52.071 8.79101 52.4637C9.33001 52.2674 9.18301 51.8746 9.18301 51.6292C9.13401 50.8928 9.47701 50.6474 10.163 50.6965C10.849 50.8928 11.486 50.8928 12.123 50.8928Z" fill="#FDFCFC"/>
<path d="M15.7 48.3892C14.867 49.0274 14.132 49.7638 13.103 50.1074C12.613 49.911 12.417 49.6165 12.515 49.0765C12.564 48.5856 12.564 48.0947 12.613 47.6038C12.123 47.4074 12.025 47.6038 11.976 48.0456C11.878 48.6838 12.27 49.5674 11.682 49.9601C11.192 50.3038 10.359 50.1565 9.67301 50.2547C9.62401 50.2547 9.57501 50.2056 9.47701 50.2056C9.28101 49.9601 9.37901 49.6656 9.37901 49.371C9.37901 49.1256 9.42801 48.831 9.23201 48.5365C8.44801 48.8801 8.69301 49.6656 8.49701 50.2547C7.86001 50.5983 7.22301 50.5492 6.48801 50.5001C6.34101 49.6165 6.68401 48.8801 6.63501 48.0456C7.22301 47.9965 7.81101 47.9965 8.10501 47.4565C8.84001 48.4874 8.88901 48.4874 9.96701 47.5547C10.065 47.4565 10.212 47.4565 10.31 47.4565C12.858 47.211 15.357 46.9165 18.15 46.6219C17.317 47.3092 16.68 47.8492 15.945 48.2419C15.847 47.9474 16.043 47.6038 15.651 47.1129C15.21 47.5547 14.867 47.8492 15.553 48.4383C15.651 48.3401 15.7 48.3892 15.7 48.3892Z" fill="#FDFCFC"/>
<path d="M19.767 57.0782C19.424 56.3419 18.983 55.9 18.101 56.3419C18.003 56.391 17.856 56.391 17.709 56.391C15.651 55.7528 13.495 55.36 11.535 54.4273C12.662 54.28 13.789 54.0837 14.867 54.231C15.259 54.5255 14.769 55.2128 15.357 55.4091C15.945 55.1146 15.602 54.4764 15.945 54.0837C16.729 53.9855 17.562 53.9364 18.395 53.8382C18.689 54.231 18.493 54.6237 18.542 55.0164C18.591 55.36 18.297 55.8019 18.934 55.9982C19.277 55.6055 19.13 55.1146 19.13 54.7219C19.13 54.0346 19.424 53.691 20.11 53.691C20.698 53.691 21.286 53.6419 21.972 53.5928C21.923 54.4764 21.874 55.4091 21.776 56.3419C21.237 56.44 20.747 56.5382 20.208 56.5873C19.963 56.5873 19.767 56.6855 19.767 57.0782Z" fill="#FDFCFC"/>
<path d="M15.945 53.2983C15.896 53.2001 15.847 53.151 15.847 53.151C15.651 50.451 15.651 50.451 18.64 50.2056C18.787 50.991 18.689 51.7765 18.64 52.611C18.591 53.0528 18.395 53.2492 17.954 53.2492C17.317 53.2001 16.631 53.2983 15.945 53.2983Z" fill="#FDFCFC"/>
<path d="M19.424 50.1564C20.355 50.1073 21.188 49.8128 22.07 49.96C22.168 50.8928 22.119 51.8255 22.021 52.7582C21.139 52.8564 20.306 53.1019 19.375 53.0037C19.424 52.0219 19.424 51.1382 19.424 50.1564Z" fill="#FDFCFC"/>
<path d="M12.123 52.0218C12.907 51.2364 13.593 50.4018 14.671 50.1073C15.651 51.0891 15.161 52.2182 15.063 53.3964C14.181 53.4946 13.348 53.5437 12.564 53.6418C12.074 53.1018 12.662 52.4637 12.123 52.0218Z" fill="#FDFCFC"/>
<path d="M25.255 52.3656C24.373 52.4638 23.638 52.7092 22.854 52.611C22.609 51.6783 22.903 50.7947 22.952 49.862C23.736 49.6656 24.471 49.7147 25.206 49.7147C25.402 50.5983 25.206 51.482 25.255 52.3656Z" fill="#FDFCFC"/>
<path d="M22.609 56.1456C22.413 55.311 22.756 54.5747 22.707 53.8383C22.707 53.3965 23.05 53.3965 23.295 53.3474C23.883 53.2492 24.52 53.2001 25.206 53.1019C25.157 53.8874 25.108 54.6237 25.059 55.3601C25.059 55.6547 24.863 55.851 24.569 55.9001C23.932 55.9492 23.295 56.1947 22.609 56.1456Z" fill="#FDFCFC"/>
<path d="M22.952 46.2291C23.736 46.2291 24.422 46.2291 25.206 46.2291C25.255 47.0637 25.304 47.9473 25.353 48.8309C24.52 48.9291 23.785 49.0273 22.903 49.0764C22.952 48.1437 22.952 47.26 22.952 46.2291Z" fill="#FDFCFC"/>
<path d="M22.805 43.0874C25.206 42.8419 25.451 43.0874 25.206 45.4437C24.863 45.6892 24.471 45.5419 24.079 45.591C23.736 45.591 23.393 45.6892 22.952 45.4928C22.854 44.7074 22.609 43.8728 22.805 43.0874Z" fill="#FDFCFC"/>
<path d="M5.851 53.74C5.214 53.8382 4.724 53.8873 4.234 53.74C3.94 51.1382 4.087 51.1382 5.851 51.3837C5.851 52.12 5.851 52.9055 5.851 53.74Z" fill="#FDFCFC"/>
<path d="M4.18501 54.4765C4.38101 54.4765 4.62601 54.4274 4.82201 54.4274C5.11601 54.4274 5.41001 54.4765 5.70401 54.4765C5.85101 55.2619 5.80201 56.0474 5.80201 56.7837C3.89101 57.1765 3.94001 56.6365 4.18501 54.4765Z" fill="#FDFCFC"/>
<path d="M6.19401 48.0946C6.14501 48.4873 6.09601 48.8801 6.09601 49.2237C5.99801 50.7455 5.99801 50.7455 4.43001 50.5982C3.94001 48.7819 4.38101 48.1437 6.19401 48.0946Z" fill="#FDFCFC"/>
<path d="M12.319 55.5564C14.132 55.9491 15.896 56.4891 17.611 57.1273C15.896 56.6855 14.181 56.98 12.466 57.1764C12.221 56.5873 12.319 56.0964 12.319 55.5564Z" fill="#FDFCFC"/>
<path d="M4.77301 47.5546C4.57701 45.6892 4.77301 45.3946 6.48801 45.1001C6.83101 46.8183 6.34101 47.5546 4.77301 47.5546Z" fill="#FDFCFC"/>
<path d="M10.359 54.0346C9.77101 54.0837 9.57501 53.8382 10.016 53.4455C10.506 53.0037 11.045 52.5128 11.731 52.2673C11.731 52.7092 11.731 53.1019 11.731 53.3964C11.339 53.8873 10.555 53.2982 10.359 54.0346Z" fill="#FDFCFC"/>
<path d="M11.731 52.2674C11.78 52.071 11.927 51.9728 12.123 52.071C12.074 52.2183 11.927 52.3164 11.731 52.2674Z" fill="#FDFCFC"/>
<path d="M10.8 54.231C10.604 54.231 10.408 54.3292 10.359 54.0347C10.555 53.9856 10.702 54.0347 10.8 54.231Z" fill="#FDFCFC"/>
<path d="M13.103 50.1073C13.152 50.3528 12.956 50.2546 12.858 50.3037C12.956 50.2055 13.054 50.1564 13.103 50.1073Z" fill="#FDFCFC"/>
<path d="M16.043 48.1438C15.945 48.242 15.798 48.291 15.7 48.3892C15.7 48.3401 15.651 48.3401 15.651 48.291C15.7 48.1438 15.847 48.0947 16.043 48.1438Z" fill="#FDFCFC"/>
<path d="M16.043 48.1437C15.847 48.0946 15.7 48.1437 15.651 48.3401C15.014 47.8001 15.357 47.4565 15.749 47.0146C16.141 47.4565 15.945 47.8001 16.043 48.1437Z" fill="#9FA0A3"/>
</svg>
