<svg xmlns="http://www.w3.org/2000/svg" width="100" height="100" fill="none"><path fill="#6F7073" d="M85.329 63.804c0-1.62-.049-3.191-.049-4.811v-15.17c0-.392-.098-.785.147-1.276h7.741999999999999c2.793.05 4.704 1.571 5.439 4.271.098.344.049.786.392 1.031v4.517c-.343.245-.294.687-.392 1.03-.735 2.406-2.156 4.075-4.704 4.566-1.372.245-2.744.147-4.067.098-.735 0-.931.245-.931.982.049 1.57 0 3.142 0 4.713-1.274.049-2.45.049-3.577.049m3.528-13.402c0 1.129.049 2.209 0 3.338 0 .638.245.884.833.835.931-.05 1.813 0 2.744 0 1.666 0 2.94-1.13 3.038-2.799.049-.932.049-1.816 0-2.749-.098-1.423-1.323-2.749-2.548-2.798-1.127-.049-2.205 0-3.332 0-.637 0-.784.295-.735.835zM57.693 44.167c2.401-1.963 6.419-2.16 8.771-.54 1.47 1.031 2.352 2.455 2.352 4.271v9.426c0 .687-.196.883-.882.932-2.793.05-2.793.05-2.793-2.798V48.39c0-1.62-.784-2.405-2.401-2.405-3.136-.05-3.234.049-3.234 3.19 0 2.7-.049 5.352 0 8.051 0 .835-.245 1.08-1.078 1.031a10.6 10.6 0 0 0-1.764 0c-.735.05-.882-.245-.882-.932v-9.23c0-1.521-.637-2.11-2.156-2.11h-1.568c-1.519 0-1.617.098-1.617 1.57v10.604h-3.528c-.245-.343-.147-.687-.147-1.08V45.051c0-1.718.637-2.356 2.352-2.356h3.626c1.862-.099 3.773-.393 4.949 1.472M71.07 46.23v-3.437c.294-.295.686-.197 1.029-.197h7.35c2.058 0 3.332.884 4.018 2.848.294.883.441 1.767.441 2.7v8.983c0 .737-.147 1.031-.98 1.031-3.136-.049-6.321-.049-9.457 0-1.225 0-2.009-.54-2.499-1.57-.98-2.062-.98-4.124.049-6.137.588-1.227 1.568-1.865 2.989-1.816 1.568.049 3.136 0 4.704 0 .637 0 1.176-.246 1.421-.835.196-.442.049-.884-.245-1.276-.343-.393-.784-.393-1.274-.393h-6.37c-.343.098-.686.098-1.176.098m9.163 8.394v-1.817c0-.343-.147-.54-.49-.54-1.666 0-3.381-.049-5.047 0-.637 0-.931.54-.931 1.178 0 .59.245 1.13.931 1.179 1.764.049 3.577 0 5.537 0"/><path fill="#F37225" d="M38.191 54.476h7.35v3.535c-.245.245-.588.147-.882.147h-8.918c-.441 0-.833 0-1.274-.049-2.107-.294-2.94-2.356-1.666-3.976.686-.835 1.47-1.571 2.205-2.308 1.47-1.521 2.989-2.994 4.508-4.516.245-.245.539-.393.588-.982-2.45-.147-4.949 0-7.448-.098v-3.436c.245-.246.49-.148.784-.148h9.408c1.127 0 2.205.099 2.695 1.326.441 1.276.343 2.455-.735 3.485-2.009 1.964-4.018 4.026-6.027 6.039-.245.245-.588.441-.588.981M2.372 56.735V41.86c9.31-1.08 18.473-2.11 27.685-3.142v21.797L6.39 59.189v-.393h21.903V40.83c-1.176-.098-2.352.147-3.479.295-3.087.343-6.223.785-9.31 1.08-3.528.294-7.056.932-10.584 1.178-.784.049-.882.393-.98 1.08-.588 4.074-.686 8.198-1.274 12.273z"/><path fill="#9FA0A3" d="M17.611 57.127c-.098.393-.392.344-.686.393-.49.05-1.127-.196-1.421.491-.098.196-.343.05-.588-.098-.735-.442-2.303-.295-2.94.245-1.029-.687-2.401-.638-3.136.05-.784-.786-2.058-.786-2.646 0-.588-.688-.588-.688-1.862-.884-.392.294.147.687-.245.932-.343-.147-.245-.49-.294-.736-.098-.295-.392-.344-.588-.589.441-.295.539-.736.49-1.276-.245-3.78.784-7.413 1.078-11.39.392.54.637.54.98.442 3.626-1.227 7.448-1.325 11.221-1.816a63 63 0 0 1 5.341-.54c.588-.05 1.225.147 1.813.098.441 0 .98.147 1.029-.834.588 1.325 1.764.54 2.45 1.227-.637.442-1.274.049-1.911.294-.196.737.147 1.424.098 2.16.392.344.833.148 1.274.197.245.049.49.098.441.392 0 .246-.245.246-.441.295-.392.05-.784-.049-1.176.147v2.455c.539.245 1.078-.196 1.617.147.049.59-.441.59-.784.59-.784-.05-.931.343-.882 1.03.049.54 0 1.08 0 1.62.539.344 1.127-.147 1.617.05.196.441-.049.637-.392.637-1.47-.098-1.519.884-1.47 1.915v.736c.637.344 1.274-.343 2.156.148-1.274.49-2.842.49-2.597 2.503-.735-.589-.147-1.08-.441-1.57-.588-.148-1.176.196-1.764.196-.833 0-.343 1.08-.931 1.325-.49-.294-.098-.736-.392-1.08-.588-.049-1.225.246-1.862 0 0-.393.196-.49.539-.54.49-.049 1.029-.147 1.568-.245.049-.933.147-1.817.196-2.75-.686.05-1.274.099-1.862.099-.686 0-.98.343-.98 1.03 0 .443.098.884-.196 1.277-.637-.196-.343-.638-.392-.982-.049-.392.147-.785-.147-1.178-.833.098-1.666.147-2.45.245-.294.442 0 1.031-.588 1.326-.588-.245-.098-.884-.49-1.178-1.127-.148-2.205.049-3.332.196-.245-.049-.49-.147-.784-.196-.098-.197-.245-.246-.441-.197.196-.736.98-.147 1.372-.638V52.17c.196.05.343 0 .392-.196.539.392-.049 1.08.441 1.57.784-.048 1.617-.147 2.499-.245.098-1.129.588-2.258-.392-3.289.245-.196.539-.393.784-.589 1.078.245 2.156 0 3.332-.098v-1.62c0-.197.049-.393.294-.393.294 0 .392.147.392.442.049.49-.147.982.147 1.522.637-.05 1.323-.05 2.009-.098.294-.05.588-.148.588-.54v-2.16c-.49-.246-.882-.099-1.225-.148-.245 0-.588.148-.637-.245-.049-.491.392-.393.637-.344.882 0 1.323-.343 1.127-1.276-.098-.442.049-.884-.147-1.375-.784-.049-1.568-.098-2.352.098-.294.688.147 1.424-.392 2.111-.637-.589-.098-1.374-.49-2.012-.833 0-1.666-.05-2.352.245-.49.786 0 1.718-.784 2.455-.343-.835 0-1.571-.245-2.308-.833-.098-1.666-.049-2.352.295-.343.785.049 1.718-.686 2.356-.392-.834.049-1.521-.098-2.209-.49-.098-.931.05-1.421.098-.735.05-1.127.344-1.078 1.13 0 .294 0 .687-.441.883-.343-.54.049-1.129-.196-1.62-2.107.246-2.548.835-2.107 2.651h1.176v.245c-.343.54-.882.59-1.47.59.049.834-.343 1.62-.147 2.454.735.05 1.372.098 2.009-.245.196-.59-.098-1.375.735-1.718.196.294.098.589.147.834 0 .295-.098.59.098.835.049 0 .147.049.196.049.686-.05 1.47.049 2.009-.295.588-.393.196-1.276.294-1.914.049-.393.196-.59.637-.442 0 .49 0 .982-.098 1.473-.098.54.098.834.588 1.03-.098.05-.147.148-.245.197l-.735.589h-1.96c-.686-.05-1.029.196-.98.933 0 .294.147.687-.392.834-.392-.442 0-1.08-.294-1.57-.637.048-1.323-.099-2.009.196-.049.441-.049.883-.098 1.276s-.196.835.049 1.227c.294.295.882-.196 1.029.442-.294.442-.784.05-1.078.393-.196 2.65-.392 2.7 2.058 2.454.343-.49-.147-1.178.343-1.57.245.048.343.196.343.343.098 1.375.098 1.375 1.421 1.375.343 0 .637.049.882-.05.441-.49-.196-1.472.882-1.472 0 .49-.098 1.03.147 1.62 1.617-.393 3.332-.687 5.047-.246m-1.666-3.829c.686-.049 1.372-.098 2.058-.098.441 0 .686-.196.686-.638.049-.786.147-1.62 0-2.406-2.989.246-2.989.246-2.793 2.946 0 .098 0 .098.049.196m3.479-3.142v2.848c.931.098 1.764-.148 2.646-.246.098-.982.147-1.865.049-2.798-.931-.147-1.764.147-2.695.196m5.831 2.21c-.049-.933.147-1.768-.049-2.7-.784 0-1.519-.05-2.254.147 0 .932-.343 1.816-.098 2.749.784.196 1.519-.05 2.401-.197m-2.646 3.78c.686.098 1.323-.148 1.96-.246.294-.049.441-.245.49-.54.049-.736.098-1.473.147-2.258-.686.098-1.274.147-1.911.245-.294.05-.588.05-.588.491 0 .737-.294 1.473-.098 2.307m.343-9.917v2.897c.833-.099 1.617-.197 2.45-.246-.049-.933-.098-1.767-.147-2.602-.833-.049-1.519-.049-2.303-.049m-.147-3.142c-.147.835.049 1.62.147 2.406.392.196.784.098 1.127.098.392 0 .784.098 1.127-.147.245-2.357 0-2.602-2.401-2.357M5.851 53.74v-2.356c-1.764-.197-1.911-.246-1.617 2.356.49.147.98.147 1.617 0m-1.666.736c-.245 2.16-.294 2.7 1.666 2.308 0-.737.098-1.522-.098-2.308-.343 0-.637-.049-.882-.049s-.441.05-.686.05m2.009-6.381c-1.813.049-2.254.687-1.764 2.503 1.568.148 1.568.148 1.666-1.374 0-.344.049-.737.098-1.13m-1.421-.54c1.568 0 2.107-.737 1.715-2.455-1.715.295-1.96.59-1.715 2.455"/><path fill="#F37225" d="M8.154 47.358v-.245c.392-.638.882-1.08 1.617-.54.294.196.637.147.931.147 1.862-.196 3.675-.344 5.537-.638.882-.147 1.813.098 2.548-.638.245-.246.686-.148.98.147.245.245.392.54.245.884s-.343.589-.784.687c-.294.049-.637-.098-.931.147-.931.786-2.058 1.375-2.94 2.21-.245.196-.539.392-.784.588-1.078.344-1.813 1.178-2.548 1.915-.245-.098-.343 0-.392.196-.686.246-1.176.737-1.715 1.178-.441.393-.245.639.343.59.049.245.245.196.441.196.245.049.49.147.784.196 1.96.884 4.116 1.326 6.174 1.964.098.049.294.049.392-.05.882-.49 1.323 0 1.666.737-.637 1.227-1.127 1.227-2.107.098a39 39 0 0 0-5.292-1.57c-1.078-.344-2.009-1.179-3.332-.59-.539.246-1.029-.147-1.127-.736-.098-.59.196-1.13.784-1.13 1.568-.097 2.401-1.325 3.479-2.16l.735-.588c.098-.05.294.049.245-.197 1.029-.343 1.764-1.08 2.597-1.718.098-.098.245-.147.343-.245.735-.393 1.372-.884 2.205-1.62-2.793.294-5.292.54-7.84.834-.147 0-.294.05-.343.099-1.078.883-1.127.883-1.911-.148M15.602 62.478c-1.47 0-2.499-.098-3.43-.49-.343-.148-.686-.344-.686-.737 0-.344.343-.59.637-.687 2.107-.786 4.214-.737 6.321 0 .294.098.637.294.637.687 0 .442-.343.54-.686.687-1.078.491-2.107.491-2.793.54"/><path fill="#F7AA7F" d="M2.372 56.735c.049 0 .147-.05.196-.05.147.246.049.491-.147.737-.147-.245-.098-.442-.049-.687"/><path fill="#FDFCFC" d="M15.455 49.518c.882-.834 1.96-1.423 2.94-2.209.294-.245.637-.098.931-.147.392-.05.637-.295.784-.687.098-.344 0-.639-.245-.884-.294-.294-.735-.393-.98-.147-.735.785-1.715.54-2.548.638-1.813.245-3.675.442-5.537.638-.294.05-.637.098-.931-.147-.735-.54-1.225-.098-1.617.54H7.076c-.441-1.816 0-2.406 2.107-2.651.294.49-.147 1.08.196 1.62.441-.196.441-.54.441-.884-.049-.785.294-1.08 1.078-1.129.441-.049.882-.196 1.421-.098.147.687-.294 1.375.098 2.21.784-.688.392-1.572.686-2.357.686-.295 1.519-.344 2.352-.295.245.737-.098 1.473.245 2.307.784-.736.245-1.669.784-2.454.686-.245 1.519-.245 2.352-.245.392.638-.098 1.423.49 2.012.539-.687.098-1.423.392-2.11.735-.148 1.568-.148 2.352-.099.196.491.049.933.147 1.375.147.932-.245 1.276-1.127 1.276-.245 0-.686-.098-.637.344.049.392.392.245.637.245.392.05.784-.098 1.225.147v2.16c0 .393-.294.491-.588.54-.686.05-1.323.099-2.009.099-.294-.344-.147-.835-.196-1.326 0-.245-.098-.442-.392-.442-.245 0-.294.197-.294.393v1.62c-1.225.147-2.254.442-3.381.147M12.123 50.893c-1.078.883-1.911 2.062-3.479 2.16-.588.049-.882.54-.784 1.129s.637.982 1.127.736c1.274-.589 2.254.246 3.332.59-1.078 0-.49 1.03-.882 1.472-.245.147-.588.05-.882.05-1.323 0-1.323 0-1.421-1.375 0-.197-.098-.295-.343-.344-.49.442 0 1.13-.343 1.57-2.45.246-2.254.197-2.058-2.454.294-.294.784.05 1.078-.392-.098-.638-.735-.148-1.029-.442-.245-.393-.098-.786-.049-1.228s.049-.834.098-1.276c.686-.245 1.372-.147 2.009-.196.294.54-.098 1.178.294 1.57.539-.196.392-.588.392-.834-.049-.736.294-.982.98-.932.686.196 1.323.196 1.96.196"/><path fill="#FDFCFC" d="M15.7 48.39c-.833.637-1.568 1.374-2.597 1.717-.49-.196-.686-.49-.588-1.03.049-.491.049-.982.098-1.473-.49-.197-.588 0-.637.442-.098.638.294 1.521-.294 1.914-.49.344-1.323.197-2.009.295-.049 0-.098-.05-.196-.05-.196-.245-.098-.54-.098-.834 0-.245.049-.54-.147-.835-.784.344-.539 1.13-.735 1.719-.637.343-1.274.294-2.009.245-.147-.883.196-1.62.147-2.454.588-.05 1.176-.05 1.47-.59.735 1.031.784 1.031 1.862.099.098-.099.245-.099.343-.099 2.548-.245 5.047-.54 7.84-.834-.833.687-1.47 1.227-2.205 1.62-.098-.295.098-.638-.294-1.13-.441.443-.784.737-.098 1.326.098-.098.147-.049.147-.049M19.767 57.078c-.343-.736-.784-1.178-1.666-.736-.098.049-.245.049-.392.049-2.058-.638-4.214-1.031-6.174-1.964 1.127-.147 2.254-.343 3.332-.196.392.294-.098.982.49 1.178.588-.294.245-.933.588-1.325.784-.099 1.617-.148 2.45-.246.294.393.098.786.147 1.178.049.344-.245.786.392.982.343-.392.196-.883.196-1.276 0-.687.294-1.031.98-1.031.588 0 1.176-.05 1.862-.098-.049.883-.098 1.816-.196 2.749-.539.098-1.029.196-1.568.245-.245 0-.441.098-.441.491M15.945 53.298c-.049-.098-.098-.147-.098-.147-.196-2.7-.196-2.7 2.793-2.945.147.785.049 1.57 0 2.405-.049.442-.245.638-.686.638-.637-.049-1.323.05-2.009.05M19.424 50.156c.931-.049 1.764-.343 2.646-.196.098.933.049 1.865-.049 2.798-.882.098-1.715.344-2.646.246.049-.982.049-1.866.049-2.848M12.123 52.022c.784-.786 1.47-1.62 2.548-1.915.98.982.49 2.111.392 3.29-.882.098-1.715.147-2.499.245-.49-.54.098-1.178-.441-1.62M25.255 52.366c-.882.098-1.617.343-2.401.245-.245-.933.049-1.816.098-2.749.784-.196 1.519-.147 2.254-.147.196.883 0 1.767.049 2.65M22.609 56.146c-.196-.835.147-1.571.098-2.308 0-.441.343-.441.588-.49.588-.099 1.225-.148 1.911-.246-.049.785-.098 1.522-.147 2.258 0 .295-.196.491-.49.54-.637.05-1.274.295-1.96.246M22.952 46.23h2.254c.049.834.098 1.717.147 2.6-.833.1-1.568.197-2.45.246.049-.932.049-1.816.049-2.847M22.805 43.087c2.401-.245 2.646 0 2.401 2.357-.343.245-.735.098-1.127.147-.343 0-.686.098-1.127-.098-.098-.786-.343-1.62-.147-2.406M5.851 53.74c-.637.098-1.127.147-1.617 0-.294-2.602-.147-2.602 1.617-2.356zM4.185 54.477c.196 0 .441-.05.637-.05.294 0 .588.05.882.05.147.785.098 1.57.098 2.307-1.911.392-1.862-.148-1.617-2.307M6.194 48.095c-.049.392-.098.785-.098 1.129-.098 1.522-.098 1.522-1.666 1.374-.49-1.816-.049-2.454 1.764-2.503M12.319 55.556c1.813.393 3.577.933 5.292 1.571-1.715-.442-3.43-.147-5.145.05-.245-.59-.147-1.08-.147-1.62M4.773 47.555c-.196-1.866 0-2.16 1.715-2.455.343 1.718-.147 2.455-1.715 2.455M10.359 54.035c-.588.049-.784-.197-.343-.59.49-.441 1.029-.932 1.715-1.178v1.13c-.392.49-1.176-.099-1.372.638"/><path fill="#FDFCFC" d="M11.731 52.267c.049-.196.196-.294.392-.196-.049.147-.196.245-.392.196M10.8 54.231c-.196 0-.392.098-.441-.196.196-.05.343 0 .441.196M13.103 50.107c.049.246-.147.148-.245.197.098-.099.196-.148.245-.197M16.043 48.144c-.098.098-.245.147-.343.245 0-.049-.049-.049-.049-.098.049-.147.196-.196.392-.147"/><path fill="#9FA0A3" d="M16.043 48.144c-.196-.05-.343 0-.392.196-.637-.54-.294-.884.098-1.325.392.441.196.785.294 1.129"/></svg>