<svg xmlns="http://www.w3.org/2000/svg" width="100" height="100" fill="none"><path fill="#2D2D2D" d="m8.134 58.769-4.057-13.15h-.103q.22 4.008.22 5.357v7.793H1V42h4.866l3.988 12.81h.069L14.15 42h4.866v16.769H15.7v-9.244q0-.736.156-3.896h-.103l-4.346 13.14zM31.163 58.769l-.68-1.744h-.084a5.2 5.2 0 0 1-1.828 1.54 5.9 5.9 0 0 1-2.45.428 3.98 3.98 0 0 1-2.94-1.052 4.04 4.04 0 0 1-1.068-3c-.046-.584.061-1.17.311-1.7s.634-.987 1.115-1.325q1.436-.974 4.327-1.071l2.234-.069v-.56q0-1.948-2.004-1.948a9.2 9.2 0 0 0-3.63.925l-1.138-2.357a10.5 10.5 0 0 1 4.935-1.159q2.592 0 3.978 1.12t1.382 3.41v8.562zm-1.038-5.952-1.363.044a4.4 4.4 0 0 0-2.283.55 1.73 1.73 0 0 0-.75 1.534q0 1.462 1.706 1.462a2.72 2.72 0 0 0 1.96-.697 2.43 2.43 0 0 0 .73-1.855zM46.23 54.946a3.51 3.51 0 0 1-1.377 3q-1.377 1.032-4.12 1.032a13 13 0 0 1-2.402-.209 9 9 0 0 1-1.857-.555V55.36c.71.326 1.45.583 2.21.77.705.189 1.43.292 2.161.306q1.916 0 1.916-1.1a.9.9 0 0 0-.255-.673 3.7 3.7 0 0 0-.877-.584q-.622-.327-1.661-.76a10.5 10.5 0 0 1-2.185-1.145 3.2 3.2 0 0 1-1.015-1.198 4 4 0 0 1-.318-1.68c-.022-.516.09-1.03.323-1.491a3.05 3.05 0 0 1 1.01-1.149q1.332-.935 3.773-.935a10.8 10.8 0 0 1 4.522.989l-1.058 2.523a21 21 0 0 0-1.808-.677 5.7 5.7 0 0 0-1.72-.263q-1.558 0-1.558.837a.97.97 0 0 0 .49.814c.708.41 1.453.756 2.224 1.032.782.288 1.526.669 2.215 1.135.439.316.795.732 1.039 1.213.23.51.342 1.064.328 1.622M57.96 54.946a3.51 3.51 0 0 1-1.376 3q-1.377 1.032-4.121 1.032c-.803.011-1.605-.053-2.396-.19a9 9 0 0 1-1.857-.555V55.36c.709.325 1.447.583 2.205.77.705.189 1.43.292 2.16.306q1.916 0 1.916-1.1a.9.9 0 0 0-.254-.673 3.7 3.7 0 0 0-.877-.584 22 22 0 0 0-1.661-.76 10.5 10.5 0 0 1-2.19-1.154 3.2 3.2 0 0 1-.98-1.189 4 4 0 0 1-.32-1.68 3.03 3.03 0 0 1 1.3-2.664q1.332-.935 3.772-.935c1.576 0 3.132.346 4.557 1.013l-1.058 2.523a21 21 0 0 0-1.808-.677 5.7 5.7 0 0 0-1.72-.263q-1.558 0-1.558.837a.97.97 0 0 0 .49.814c.699.408 1.434.754 2.195 1.032.782.287 1.526.669 2.215 1.135.439.316.795.732 1.038 1.213.23.51.342 1.064.329 1.622M65.938 58.978q-6.018 0-6.018-6.565 0-3.264 1.637-4.987 1.636-1.725 4.69-1.725a9 9 0 0 1 4.017.892l-1.039 2.703a18 18 0 0 0-1.543-.546 5 5 0 0 0-1.43-.21q-2.745 0-2.745 3.897 0 3.76 2.744 3.76a6.3 6.3 0 0 0 1.882-.268 6.8 6.8 0 0 0 1.73-.842v2.99a5.7 5.7 0 0 1-1.735.692 9.7 9.7 0 0 1-2.19.21M81.03 58.769l-.682-1.744h-.093a5.2 5.2 0 0 1-1.837 1.525 5.9 5.9 0 0 1-2.45.428 3.98 3.98 0 0 1-2.94-1.052 4.04 4.04 0 0 1-1.069-3 3.36 3.36 0 0 1 .32-1.69c.252-.527.636-.98 1.116-1.315q1.436-.975 4.327-1.072l2.234-.068v-.565q0-1.948-2.004-1.948a9.2 9.2 0 0 0-3.63.925l-1.167-2.362a10.5 10.5 0 0 1 4.934-1.159q2.592 0 3.979 1.12 1.386 1.12 1.382 3.41v8.567zm-1.04-5.937-1.362.044a4.4 4.4 0 0 0-2.278.535 1.73 1.73 0 0 0-.75 1.534q0 1.462 1.705 1.462a2.72 2.72 0 0 0 1.96-.697 2.44 2.44 0 0 0 .73-1.855zM98.997 58.769h-3.518v-7.5a3.58 3.58 0 0 0-.49-2.08 1.8 1.8 0 0 0-1.578-.692 2.38 2.38 0 0 0-2.132.974q-.656.975-.656 3.249v6.049H87.11V45.94h2.685l.49 1.637h.196a3.7 3.7 0 0 1 1.622-1.403 5.5 5.5 0 0 1 2.347-.487q2.248 0 3.43 1.208t1.117 3.502z"/></svg>