<svg xmlns="http://www.w3.org/2000/svg" width="100" height="100" fill="none"><path fill="#fff" d="m92.525 44.125-5.413-1.241-.966-.383-24.838.192v11.844l31.217.096z"/><path fill="#F48120" d="M82.377 53.487a2.7 2.7 0 0 0-.29-2.484 3.014 3.014 0 0 0-2.03-1.05l-16.816-.192c-.097 0-.194-.095-.29-.095a.18.18 0 0 1-.073-.144.18.18 0 0 1 .073-.143c.096-.19.193-.286.386-.286l16.914-.192a6.1 6.1 0 0 0 2.962-1.154 6 6 0 0 0 1.967-2.475l.966-2.484c0-.095.097-.191 0-.286a10.87 10.87 0 0 0-3.632-5.926 11.1 11.1 0 0 0-6.512-2.56 11.1 11.1 0 0 0-6.757 1.842 10.9 10.9 0 0 0-4.265 5.497 5.32 5.32 0 0 0-3.479-.955 5.06 5.06 0 0 0-3.002 1.427 4.95 4.95 0 0 0-1.444 2.967 5.2 5.2 0 0 0 .097 1.72 7.1 7.1 0 0 0-4.864 2.109 6.93 6.93 0 0 0-1.998 4.864c-.016.352.017.706.097 1.05a.3.3 0 0 0 .09.198.3.3 0 0 0 .2.089H81.7c.194 0 .387-.096.387-.287z"/><path fill="#FAAD3F" d="M87.692 42.788h-.483c-.097 0-.193.096-.29.191l-.676 2.293a2.7 2.7 0 0 0 .29 2.483 3.016 3.016 0 0 0 2.03 1.05l3.575.192c.097 0 .193.096.29.096a.178.178 0 0 1 0 .286c-.097.191-.193.287-.387.287l-3.672.19a6.1 6.1 0 0 0-2.963 1.155 6 6 0 0 0-1.966 2.476l-.194.86c-.096.095 0 .286.194.286h12.757a.26.26 0 0 0 .218-.072.25.25 0 0 0 .072-.215c.23-.809.36-1.643.387-2.483a9.08 9.08 0 0 0-2.706-6.4 9.3 9.3 0 0 0-6.476-2.675"/><path fill="#404041" d="M98.13 59.982a.88.88 0 0 1-.803-.53.85.85 0 0 1 .188-.937.87.87 0 0 1 .948-.187.853.853 0 0 1 .283 1.403.87.87 0 0 1-.616.251m0-1.528a.68.68 0 0 0-.625.413.66.66 0 0 0 .147.728.68.68 0 0 0 1.108-.73.65.65 0 0 0-.368-.365.7.7 0 0 0-.262-.046m.387 1.146h-.194l-.193-.286h-.193v.286h-.194v-.86h.484a.26.26 0 0 1 .28.171.25.25 0 0 1 .01.116c0 .096-.097.191-.194.287zm-.29-.477c.096 0 .096 0 .096-.096a.1.1 0 0 0-.027-.068.1.1 0 0 0-.07-.028h-.29v.287h.29zm-86.693-.86h2.127v5.731h3.672v1.815h-5.798zm8.022 3.725c0-.53.11-1.055.32-1.543.212-.488.521-.928.91-1.294.388-.367.848-.65 1.35-.836a4 4 0 0 1 1.576-.243 3.9 3.9 0 0 1 1.559.248c.496.187.95.473 1.33.84s.68.808.882 1.294a3.8 3.8 0 0 1 .288 1.534c0 .53-.109 1.056-.32 1.544-.212.487-.52.928-.91 1.294-.388.366-.848.65-1.35.836a4 4 0 0 1-1.576.243 3.98 3.98 0 0 1-2.87-1.107 3.9 3.9 0 0 1-.884-1.285 3.9 3.9 0 0 1-.305-1.525m6.089 0a1.94 1.94 0 0 0-.512-1.46 1.99 1.99 0 0 0-1.421-.641 2.04 2.04 0 0 0-1.372.62 1.996 1.996 0 0 0 0 2.77c.36.374.85.596 1.372.622 1.16.19 1.933-.764 1.933-1.91m4.736.478v-4.203h2.126v4.203c0 1.05.58 1.624 1.45 1.624a1.37 1.37 0 0 0 1.098-.418 1.33 1.33 0 0 0 .351-1.11v-4.3h2.127v4.204c0 2.483-1.45 3.534-3.577 3.534-2.222-.095-3.575-1.146-3.575-3.534m10.34-4.203h2.997c2.706 0 4.349 1.528 4.349 3.725s-1.643 3.821-4.35 3.821H40.82v-7.546zm2.997 5.636a1.96 1.96 0 0 0 1.49-.49 1.92 1.92 0 0 0 .636-1.42 1.9 1.9 0 0 0-.636-1.42 1.95 1.95 0 0 0-1.49-.491h-.87v3.82zm7.345-5.636h6.089v1.815h-3.963v1.242h3.576v1.719H53.19v2.77h-2.126zm9.085 0h2.126v5.731h3.673v1.815h-5.8zm11.308-.096h2.126l3.286 7.642h-2.32l-.58-1.337h-2.996l-.58 1.337H68.17zm1.932 4.68-.87-2.1-.87 2.1zm6.186-4.584h3.576a3.34 3.34 0 0 1 2.513.86 2.478 2.478 0 0 1 .096 3.3c-.26.31-.591.555-.966.712l1.836 2.674h-2.416l-1.546-2.292H81.7v2.292h-2.126zm3.48 3.63c.676 0 1.159-.382 1.159-.86 0-.573-.483-.86-1.16-.86H81.7v1.815h1.353zm6.281-3.63h6.186v1.72h-4.06v1.146h3.673v1.719h-3.672v1.146h4.155v1.815h-6.282zm-82.44 4.68a1.9 1.9 0 0 1-.697.83 1.93 1.93 0 0 1-1.042.317 2.04 2.04 0 0 1-1.373-.621 1.996 1.996 0 0 1 0-2.77c.36-.374.852-.596 1.373-.621.395.007.78.129 1.106.35s.58.53.73.892h2.223a3.94 3.94 0 0 0-1.446-2.311 4.03 4.03 0 0 0-2.613-.842 4.07 4.07 0 0 0-2.909 1.097 4 4 0 0 0-.91 1.286A3.9 3.9 0 0 0 1 62.084c-.003.523.1 1.041.305 1.524.204.483.504.92.883 1.286A3.985 3.985 0 0 0 5.058 66a4.2 4.2 0 0 0 2.558-.845 4.12 4.12 0 0 0 1.502-2.213z"/></svg>