<svg xmlns="http://www.w3.org/2000/svg" width="100" height="100" fill="none"><path fill="#2D2D2D" d="M19.123 52.902c0 2.528-.889 4.478-2.68 5.944-1.793 1.466-4.317 2.2-7.558 2.2-3.008 0-5.61-.578-7.885-1.716v-5.538c1.87.81 3.49 1.466 4.8 1.794 1.308.327 2.524.483 3.584.483 1.309 0 2.275-.25 3.007-.733.732-.484 1.06-1.217 1.06-2.2 0-.577-.156-1.06-.483-1.466a5.3 5.3 0 0 0-1.387-1.217c-.655-.405-1.792-1.06-3.584-1.872-1.714-.811-3.008-1.544-3.818-2.277s-1.543-1.623-2.026-2.606-.732-2.121-.732-3.416c0-2.45.81-4.4 2.524-5.788s3.958-2.106 6.888-2.106c1.464 0 2.851.156 4.145.484s2.68.811 4.145 1.466l-1.87 4.556c-1.465-.656-2.68-1.061-3.662-1.31s-1.948-.328-2.852-.328c-1.137 0-1.948.25-2.602.81-.655.562-.888 1.218-.888 2.029 0 .483.078.983.327 1.388.25.406.654.733 1.137 1.139.484.406 1.793.983 3.74 1.95 2.603 1.217 4.395 2.527 5.36 3.744.967 1.217 1.31 2.808 1.31 4.586M23.44 33.855c0-1.872 1.059-2.855 3.178-2.855 2.12 0 3.18.983 3.18 2.855 0 .889-.25 1.622-.811 2.121-.561.5-1.31.734-2.353.734-2.135 0-3.195-.983-3.195-2.855m6.092 26.879h-5.781v-21.42h5.781zM45.24 61.046c-3.413 0-6.093-.983-8.057-2.855-1.947-1.872-2.93-4.555-2.93-8.065 0-3.588.889-6.35 2.681-8.3s4.223-2.932 7.402-2.932c3.007 0 5.36.889 6.997 2.605 1.62 1.716 2.524 4.071 2.524 7.082v2.87H40.19c.078 1.623.576 2.933 1.465 3.916.888.983 2.197 1.389 3.817 1.389 1.31 0 2.525-.156 3.662-.406s2.353-.733 3.584-1.31v4.477c-1.06.483-2.119.889-3.256 1.139-1.138.234-2.525.39-4.223.39m-.81-17.987c-1.216 0-2.198.405-2.93 1.139-.733.733-1.138 1.872-1.216 3.338h8.135c0-1.466-.406-2.527-1.138-3.338-.732-.812-1.636-1.14-2.852-1.14M77.2 39.315v2.933l-3.335.889c.655.983.888 2.028.888 3.182 0 2.278-.81 4.072-2.353 5.367-1.542 1.31-3.817 1.95-6.669 1.95l-1.06-.078-.888-.078c-.576.483-.888.982-.888 1.544q0 1.217 3.179 1.217h3.662c2.353 0 4.145.483 5.36 1.544s1.87 2.45 1.87 4.4c0 2.527-1.06 4.399-3.085 5.787S68.83 70 64.936 70c-3.007 0-5.204-.484-6.825-1.544-1.62-1.061-2.353-2.528-2.353-4.4 0-1.31.405-2.355 1.215-3.26.81-.89 1.948-1.466 3.491-1.872a3.73 3.73 0 0 1-1.543-1.217c-.405-.577-.654-1.217-.654-1.872 0-.811.25-1.466.732-2.028.483-.577 1.138-1.06 2.026-1.622-1.138-.484-2.026-1.217-2.68-2.356s-.982-2.355-.982-3.744c0-2.355.732-4.15 2.275-5.366 1.543-1.217 3.662-1.872 6.514-1.872.576 0 1.309.078 2.119.156s1.387.156 1.543.25h7.402v.062zm-16.424 24.43c0 .81.405 1.466 1.137 1.871.733.406 1.87.656 3.257.656 2.12 0 3.74-.328 4.877-.89 1.138-.577 1.792-1.388 1.792-2.355 0-.811-.327-1.389-1.06-1.623-.732-.327-1.791-.483-3.256-.483h-3.007c-1.06 0-1.948.25-2.68.733-.733.484-1.06 1.186-1.06 2.09m2.103-17.426c0 1.139.25 2.028.81 2.761.577.734 1.31.983 2.447.983 1.06 0 1.87-.327 2.447-.983.576-.655.732-1.622.732-2.76 0-2.606-1.06-3.823-3.179-3.823-2.197-.015-3.257 1.295-3.257 3.822M90.367 61.046c-3.412 0-6.093-.983-8.056-2.855-1.948-1.872-2.93-4.555-2.93-8.065 0-3.588.889-6.35 2.68-8.3 1.793-1.95 4.224-2.932 7.402-2.932 3.008 0 5.361.889 6.997 2.605S99 45.586 99 48.597v2.855H85.256c.078 1.622.577 2.932 1.465 3.915s2.197 1.389 3.818 1.389c1.309 0 2.524-.156 3.662-.406s2.353-.733 3.584-1.31v4.477c-1.06.483-2.12.889-3.257 1.139-1.138.234-2.447.39-4.16.39m-.81-17.987c-1.215 0-2.197.405-2.93 1.139-.732.733-1.137 1.872-1.215 3.338h8.134c0-1.466-.405-2.527-1.137-3.338-.733-.812-1.62-1.14-2.852-1.14"/></svg>