<svg xmlns="http://www.w3.org/2000/svg" width="100" height="100" fill="none"><path fill="#FE6633" d="M15.538 55.863H1V41.08h14.538zM8.84 53.809v-.867a.97.97 0 0 1 .265-.737c.622-.758 1.23-1.53 1.837-2.298q.363-.405.647-.867H8.84v-2.313H7.37l1.333-1.675c.068-.085.157-.16.157-.28v-1.629H7.689v.847a.98.98 0 0 1-.275.773c-.323.369-.617.763-.921 1.146L4.92 47.908h2.788v2.313h1.47L7.86 51.88c-.074.094-.176.174-.176.309v1.624z"/><path fill="#010101" d="M20.11 55.803V41.145h5.753a4.5 4.5 0 0 1 2.94.996c1.558 1.286 1.96 4.735-.55 6.066a1 1 0 0 0-.087.065c.42.178.802.44 1.121.772.32.331.57.725.736 1.157a4.05 4.05 0 0 1-.227 3.602c-.314.54-.748.998-1.268 1.335s-1.11.544-1.725.605a7 7 0 0 1-.936.055H20.11zm2.205-1.993c1.284 0 2.558.054 3.827-.035a2.04 2.04 0 0 0 1.408-.664c.366-.4.564-.928.552-1.475a2.12 2.12 0 0 0-.46-1.47 2.05 2.05 0 0 0-1.324-.753 5.7 5.7 0 0 0-1.063-.05h-2.94zm0-6.48c1.23-.025 2.45.05 3.646-.04.49-.011.958-.209 1.311-.554.354-.345.568-.812.6-1.31a2 2 0 0 0-.34-1.406 1.93 1.93 0 0 0-1.194-.787 3 3 0 0 0-.735-.095h-3.014c-.093 0-.19-.035-.279.035zM70.09 42.665l-1.392 1.415a4.17 4.17 0 0 0-2.94-1.106 2.8 2.8 0 0 0-2.214.713 2 2 0 0 0-.56.885 2.03 2.03 0 0 0 .455 1.978c.243.258.55.445.889.54.774.196 1.562.333 2.356.41a5.7 5.7 0 0 1 2.206.692c1.332.843 1.783 2.139 1.72 3.659a3.77 3.77 0 0 1-.656 2.142 3.68 3.68 0 0 1-1.746 1.372 7.4 7.4 0 0 1-6.747-.429 5 5 0 0 1-1.112-.917l1.47-1.495c.71.727 1.64 1.19 2.64 1.315a5.14 5.14 0 0 0 2.691-.199c.424-.154.784-.45 1.02-.84.238-.389.337-.848.283-1.303a1.84 1.84 0 0 0-.42-1.203 1.78 1.78 0 0 0-1.094-.626c-.813-.215-1.66-.25-2.489-.4a4.7 4.7 0 0 1-2.582-1.175 3.17 3.17 0 0 1-.897-1.58c-.568-2.542.583-4.89 3.474-5.378 1.472-.3 3-.096 4.347.578a6 6 0 0 1 1.298.952M51.47 54.762V60h-2.073V45.381h2.014v1.047a3.23 3.23 0 0 1 1.598-1.057 4.34 4.34 0 0 1 2.543.11c.51.187.96.51 1.306.935.345.426.57.938.654 1.482.4 1.772.4 3.612 0 5.383-.49 2.193-2.142 2.802-3.984 2.622a3 3 0 0 1-1.142-.36 3.05 3.05 0 0 1-.916-.781m4.258-4.182c0-.424-.034-.852-.078-1.276a4 4 0 0 0-.152-.738 2.02 2.02 0 0 0-.706-1.038 1.96 1.96 0 0 0-2.357-.027c-.344.252-.6.61-.73 1.02a7.87 7.87 0 0 0 0 4.187c.265.937.912 1.34 1.96 1.331.414.029.824-.094 1.157-.345s.568-.615.661-1.026a7.6 7.6 0 0 0 .23-2.088zM92.331 51.183c.064 1.136.28 2.173 1.377 2.641a3.13 3.13 0 0 0 2 .24 3.17 3.17 0 0 0 1.739-1.032l1.323 1.26a4.74 4.74 0 0 1-2.22 1.436 6 6 0 0 1-3.072.04 3.66 3.66 0 0 1-1.745-.895 3.75 3.75 0 0 1-1.048-1.677 7.76 7.76 0 0 1 .132-5.482c.328-.804.9-1.479 1.633-1.928a3.95 3.95 0 0 1 2.439-.565c2.4.135 3.753 1.815 4.042 4.023q.079.962.06 1.929zm4.611-1.466c-.034-1.051-.323-1.939-1.274-2.442a2.09 2.09 0 0 0-2.372.194 2.6 2.6 0 0 0-.768 1.002 2.65 2.65 0 0 0-.212 1.251zM37.794 45.376h2.053c.054.254.074 9.849 0 10.437h-1.984v-.957c-.142 0-.191.11-.265.175-1.514 1.32-3.964 1.19-5.204-.275a3.43 3.43 0 0 1-.808-2.238v-7.137h2.033c.064.1.03.224.03.339v5.926c-.005.308.031.615.108.912.093.46.352.868.725 1.145.373.276.834.401 1.293.35.453.018.897-.126 1.255-.408s.608-.682.705-1.132q.08-.354.074-.717V45.77zM77.93 45.376h2.073v10.422h-2.01v-.997c-.244.19-.44.36-.651.499-1.68 1.136-4.091.688-5.106-.952a4.4 4.4 0 0 1-.539-2.353v-6.649h2.043a.7.7 0 0 1 .035.36v5.925c-.009.318.027.635.108.942.108.463.382.869.767 1.139.386.27.856.384 1.32.322a1.9 1.9 0 0 0 1.234-.462c.346-.296.578-.706.657-1.158q.07-.34.069-.688zM85.839 46.976h-1.167v-1.605h1.157v-2.99h2.073v2.99h1.96v1.625H87.94a.6.6 0 0 0-.044.35v5.268q-.008.296.049.588c.026.219.131.42.295.566a.87.87 0 0 0 .591.221c.339.03.687 0 1.05 0v1.794q-.859.056-1.716 0a2.58 2.58 0 0 1-1.72-.924 2.67 2.67 0 0 1-.602-1.882v-5.532zM43.67 55.793h-2.054V45.376h2.014v1.072a3.74 3.74 0 0 1 1.51-1.016 3.7 3.7 0 0 1 1.802-.176 3 3 0 0 1 1.843.937l-1.568 1.595c-.27-.303-.62-.52-1.01-.623a2 2 0 0 0-1.742.398 2.1 2.1 0 0 0-.57.73c-.132.285-.2.596-.196.91-.044 1.227 0 2.458 0 3.69-.03.961-.03 1.913-.03 2.9M83.785 55.793h-2.033V45.376h2.033zM81.683 43.288V41.1h2.171v2.193z"/><path fill="#FEFEFE" d="M8.84 53.81H7.693v-1.625c0-.13.103-.214.177-.31l1.323-1.659h-1.47v-2.308H4.92l1.588-1.993c.303-.384.597-.778.92-1.147a.96.96 0 0 0 .275-.772v-.848H8.84v1.63c0 .12-.093.195-.157.28L7.35 46.731h1.47v2.313h2.74q-.285.463-.647.867c-.608.773-1.215 1.54-1.838 2.298a.96.96 0 0 0-.235.733z"/></svg>