<svg width="100" height="100" viewBox="0 0 100 100" fill="none" xmlns="http://www.w3.org/2000/svg">
<path d="M41.915 42.6805C42.503 43.27 42.797 44.1051 42.797 45.1367V53.0946H39.955V45.5296C39.955 44.8911 39.857 44.3998 39.612 44.1542C39.367 43.9086 39.024 43.7612 38.534 43.7612C38.044 43.7612 37.603 43.9086 37.211 44.2033C36.77 44.5472 36.378 44.9893 36.084 45.4314V53.0946H33.242V42.0911H35.692L35.888 43.5156C36.868 42.3367 38.044 41.7472 39.465 41.7472C40.494 41.7963 41.327 42.0911 41.915 42.6805Z" fill="#00829B"/>
<path d="M54.753 48.428H47.403C47.501 49.5087 47.795 50.2455 48.285 50.7367C48.775 51.228 49.461 51.4245 50.294 51.4245C50.784 51.4245 51.274 51.3262 51.764 51.1788C52.254 50.9824 52.744 50.7367 53.234 50.442L54.41 51.9648C53.185 52.9473 51.666 53.4385 50.098 53.4385C48.334 53.4385 46.962 52.9473 45.982 51.9157C45.002 50.8841 44.512 49.5087 44.512 47.6911C44.512 46.6595 44.708 45.628 45.149 44.6455C45.541 43.8104 46.129 43.0736 46.913 42.5332C47.697 42.042 48.628 41.7964 49.706 41.7964C51.323 41.7964 52.597 42.2876 53.479 43.2701C54.361 44.2525 54.802 45.628 54.802 47.3473C54.802 47.4946 54.802 47.8385 54.753 48.428ZM52.009 46.5613C52.009 44.6455 51.274 43.6631 49.755 43.6631C49.069 43.6631 48.53 43.9087 48.138 44.3999C47.746 44.8911 47.501 45.628 47.452 46.7087H52.058V46.5613H52.009Z" fill="#00829B"/>
<path d="M64.602 43.0735L63.475 44.6454C62.495 44.056 61.515 43.7612 60.535 43.7612C59.996 43.7612 59.555 43.8595 59.261 44.056C58.967 44.2033 58.82 44.5472 58.82 44.8419C58.82 45.0875 58.869 45.284 59.016 45.4805C59.163 45.6279 59.408 45.8244 59.751 45.9717C60.241 46.1682 60.78 46.3156 61.27 46.463C62.544 46.7577 63.475 47.1998 64.063 47.7402C64.651 48.2805 64.994 49.0174 64.994 49.9507C64.994 51.0314 64.504 51.9156 63.573 52.5051C62.642 53.0946 61.466 53.4384 60.045 53.4384C59.163 53.4384 58.281 53.291 57.448 53.0454C56.713 52.7998 56.027 52.4068 55.39 51.9156L56.811 50.4419C57.84 51.1788 58.869 51.5226 59.996 51.5226C60.633 51.5226 61.123 51.4244 61.515 51.1788C61.858 50.9823 62.103 50.5893 62.054 50.1963C62.054 49.9507 62.005 49.656 61.858 49.4595C61.711 49.263 61.466 49.1156 61.123 48.9682C60.584 48.7717 59.996 48.5753 59.457 48.4279C58.281 48.1332 57.399 47.691 56.811 47.1507C56.272 46.6103 55.929 45.8735 55.978 45.0875C55.978 44.4981 56.174 43.9086 56.517 43.4665C56.958 42.9261 57.497 42.5332 58.085 42.3367C58.82 42.0419 59.653 41.8946 60.437 41.9437C62.054 41.7963 63.426 42.2384 64.602 43.0735Z" fill="#00829B"/>
<path d="M74.745 43.0735L73.618 44.6454C72.638 44.056 71.658 43.7612 70.678 43.7612C70.139 43.7612 69.698 43.8595 69.355 44.056C69.061 44.2033 68.914 44.5472 68.914 44.8419C68.914 45.0875 68.963 45.284 69.11 45.4805C69.257 45.6279 69.502 45.8244 69.845 45.9717C70.335 46.1682 70.874 46.3156 71.364 46.463C72.638 46.7577 73.569 47.1998 74.157 47.7402C74.745 48.2805 75.088 49.0174 75.088 49.9507C75.088 51.0314 74.598 51.9156 73.667 52.5051C72.736 53.0946 71.56 53.4384 70.139 53.4384C69.257 53.4384 68.375 53.291 67.542 53.0454C66.807 52.7998 66.121 52.4068 65.484 51.9156L66.905 50.4419C67.934 51.1788 68.963 51.5226 70.09 51.5226C70.727 51.5226 71.217 51.4244 71.609 51.1788C71.952 50.9823 72.197 50.5893 72.148 50.1963C72.148 49.9507 72.099 49.656 71.952 49.4595C71.805 49.263 71.56 49.1156 71.217 48.9682C70.678 48.7717 70.09 48.5753 69.551 48.4279C68.375 48.1332 67.493 47.691 66.905 47.1507C66.366 46.6103 66.023 45.8735 66.072 45.0875C66.072 44.4981 66.268 43.9086 66.611 43.4665C67.052 42.9261 67.591 42.5332 68.179 42.3367C68.914 42.0419 69.747 41.8946 70.531 41.9437C72.148 41.7963 73.52 42.2384 74.745 43.0735Z" fill="#00829B"/>
<path d="M85.966 53.0946H83.516L83.369 51.5718C82.977 52.1612 82.487 52.6525 81.85 52.9472C81.213 53.2419 80.478 53.4384 79.792 53.3893C78.763 53.3893 77.93 53.0946 77.391 52.5051C76.803 51.9156 76.558 51.0805 76.558 49.9998V42.0911H79.4V49.656C79.4 50.2946 79.498 50.7367 79.743 50.9823C79.988 51.2279 80.331 51.3753 80.821 51.3753C81.703 51.3753 82.487 50.8349 83.173 49.8033V42.0911H86.015L85.966 53.0946Z" fill="#00829B"/>
<path d="M96.403 43.0735L95.276 44.6454C94.296 44.056 93.316 43.7612 92.336 43.7612C91.797 43.7612 91.356 43.8595 91.062 44.056C90.768 44.2033 90.621 44.5472 90.621 44.8419C90.621 45.0875 90.67 45.284 90.817 45.4805C90.964 45.6279 91.209 45.8244 91.552 45.9717C92.042 46.1682 92.581 46.3156 93.071 46.463C94.345 46.7577 95.276 47.1998 95.864 47.7402C96.452 48.2805 96.795 49.0174 96.795 49.9507C96.795 51.0314 96.305 51.9156 95.374 52.5051C94.443 53.0946 93.267 53.4384 91.846 53.4384C90.964 53.4384 90.082 53.291 89.249 53.0454C88.514 52.7998 87.828 52.4068 87.191 51.9156L88.612 50.4419C89.641 51.1788 90.67 51.5226 91.797 51.5226C92.434 51.5226 92.924 51.4244 93.316 51.1788C93.659 50.9823 93.904 50.5893 93.855 50.1963C93.855 49.9507 93.806 49.656 93.659 49.4595C93.512 49.263 93.267 49.1156 92.924 48.9682C92.385 48.7717 91.797 48.5753 91.209 48.4279C90.033 48.1332 89.151 47.691 88.563 47.1507C88.024 46.6103 87.681 45.8735 87.73 45.0875C87.73 44.4981 87.926 43.9086 88.269 43.4665C88.71 42.9261 89.249 42.5332 89.837 42.3367C90.572 42.0419 91.405 41.8946 92.189 41.9437C93.855 41.7963 95.227 42.2384 96.403 43.0735Z" fill="#00829B"/>
<path d="M98.608 39.5857C98.706 39.6349 98.804 39.7331 98.902 39.8805C98.951 39.9787 99 40.1261 99 40.2735C99 40.4208 98.951 40.5682 98.902 40.6664C98.853 40.7647 98.755 40.8629 98.608 40.9612C98.461 41.0103 98.363 41.0594 98.216 41.0594C98.069 41.0594 97.922 41.0103 97.824 40.9612C97.726 40.9121 97.628 40.8138 97.53 40.6664C97.481 40.5682 97.432 40.4208 97.432 40.2735C97.432 40.1261 97.481 39.9787 97.53 39.8805C97.579 39.7822 97.677 39.684 97.824 39.5857C98.069 39.4384 98.363 39.4384 98.608 39.5857ZM98.51 40.8138C98.608 40.7647 98.657 40.6664 98.706 40.6173C98.755 40.5191 98.804 40.4208 98.804 40.3226C98.804 40.2243 98.804 40.1261 98.706 40.0279C98.657 39.9296 98.608 39.8805 98.51 39.8314C98.412 39.7822 98.314 39.7331 98.216 39.7331C98.118 39.7331 98.02 39.7822 97.922 39.8314C97.824 39.8805 97.775 39.9787 97.726 40.0279C97.677 40.1261 97.628 40.2243 97.628 40.3226C97.628 40.4208 97.628 40.5191 97.726 40.6173C97.775 40.7156 97.824 40.7647 97.922 40.8138C98.02 40.8629 98.118 40.9121 98.216 40.9121C98.314 40.8629 98.412 40.8629 98.51 40.8138ZM98.51 40.2243C98.461 40.2735 98.412 40.2735 98.363 40.3226L98.608 40.6664H98.363L98.167 40.3717H98.118V40.6664H97.922V39.8314H98.167C98.412 39.8314 98.559 39.9296 98.559 40.077C98.559 40.1261 98.51 40.1752 98.51 40.2243ZM98.118 40.2243H98.216C98.314 40.2243 98.363 40.1752 98.363 40.1261C98.363 40.077 98.314 40.0279 98.216 40.0279H98.118V40.2243Z" fill="#00829B"/>
<path d="M36.133 57.8103C36.574 58.1542 36.819 58.5963 36.819 59.2349C36.819 59.9226 36.574 60.4138 36.133 60.7577C35.643 61.1015 35.055 61.2489 34.271 61.2489H33.438V63.5577H32.507V57.3191H34.271C35.055 57.3191 35.692 57.4665 36.133 57.8103ZM35.447 60.3156C35.741 60.1191 35.888 59.7752 35.888 59.284C35.888 58.8419 35.741 58.498 35.447 58.3015C35.153 58.1051 34.761 58.0068 34.271 58.0068H33.438V60.5612H34.222C34.761 60.5612 35.153 60.463 35.447 60.3156Z" fill="#00829B"/>
<path d="M40.445 58.7437L40.298 59.5788C40.151 59.5297 40.004 59.5297 39.857 59.5297C39.563 59.5297 39.269 59.6279 39.073 59.8735C38.877 60.07 38.73 60.4139 38.632 60.9051V63.656H37.75V58.8911H38.534L38.632 59.8735C38.73 59.5788 38.926 59.2841 39.171 59.0876C39.416 58.8911 39.71 58.7928 39.955 58.7928C40.102 58.6455 40.298 58.6946 40.445 58.7437Z" fill="#00829B"/>
<path d="M44.757 59.3332C45.149 59.7753 45.345 60.3648 45.345 61.1508C45.345 61.5929 45.247 62.035 45.051 62.4771C44.904 62.8209 44.61 63.1648 44.267 63.3613C43.924 63.5578 43.483 63.7052 43.042 63.656C42.307 63.656 41.768 63.4104 41.376 62.9683C40.984 62.5262 40.788 61.9367 40.788 61.1508C40.788 60.7087 40.886 60.2666 41.082 59.8245C41.229 59.4806 41.523 59.1367 41.866 58.9402C42.258 58.7438 42.65 58.5964 43.091 58.6455C43.826 58.6455 44.365 58.8911 44.757 59.3332ZM41.768 61.1508C41.768 62.3788 42.209 62.9683 43.091 62.9683C43.973 62.9683 44.414 62.3788 44.414 61.1508C44.414 59.9227 43.973 59.3332 43.14 59.3332C42.209 59.3332 41.768 59.9718 41.768 61.1508Z" fill="#00829B"/>
<path d="M47.746 57.6138C47.599 57.7612 47.55 57.9086 47.55 58.1051V58.7436H48.775L48.677 59.3822H47.55V63.5086H46.668V59.3822H45.786V58.7436H46.668V58.1051C46.668 57.7121 46.815 57.3682 47.109 57.1226C47.403 56.877 47.795 56.7296 48.285 56.7296C48.481 56.7296 48.677 56.7296 48.922 56.7787C49.118 56.8279 49.314 56.877 49.51 56.9752L49.216 57.6138C48.922 57.5156 48.628 57.4173 48.334 57.4173C48.04 57.4173 47.844 57.4665 47.746 57.6138Z" fill="#00829B"/>
<path d="M53.381 61.4455H50.147C50.196 61.9858 50.343 62.3788 50.588 62.6244C50.833 62.87 51.176 63.0174 51.519 63.0174C51.764 63.0174 51.96 62.9683 52.205 62.9191C52.45 62.8209 52.646 62.7227 52.842 62.6244L53.234 63.1156C52.744 63.5086 52.107 63.7051 51.47 63.7051C50.784 63.7051 50.196 63.5086 49.804 63.0665C49.412 62.6244 49.216 62.0349 49.216 61.249C49.216 60.8069 49.314 60.3648 49.461 59.9227C49.608 59.5788 49.853 59.2349 50.196 59.0384C50.539 58.7928 50.931 58.6946 51.323 58.6946C52.009 58.6946 52.499 58.8911 52.891 59.3332C53.234 59.7262 53.43 60.3156 53.43 61.0525C53.381 61.1507 53.381 61.2981 53.381 61.4455ZM52.499 60.7577C52.499 60.2665 52.401 59.9227 52.205 59.677C52.009 59.4314 51.715 59.2841 51.323 59.2841C50.588 59.2841 50.196 59.7753 50.147 60.8069H52.499V60.7577Z" fill="#00829B"/>
<path d="M56.958 58.7928C57.252 58.8911 57.497 59.0384 57.742 59.1858L57.35 59.7261C57.154 59.5788 56.909 59.4805 56.713 59.4314C56.517 59.3823 56.272 59.3332 56.076 59.3332C55.831 59.3332 55.586 59.3823 55.39 59.4805C55.243 59.5788 55.145 59.7753 55.145 59.9226C55.145 60.1191 55.243 60.2665 55.39 60.3647C55.537 60.463 55.831 60.5612 56.223 60.6595C56.811 60.8068 57.203 60.9542 57.497 61.1998C57.791 61.4454 57.938 61.7893 57.938 62.1332C57.938 62.5753 57.742 62.9682 57.35 63.2139C56.909 63.4595 56.419 63.6068 55.929 63.6068C55.145 63.6068 54.508 63.4104 54.018 62.9682L54.508 62.477C54.9 62.7718 55.439 62.9191 55.929 62.9191C56.223 62.9191 56.468 62.87 56.713 62.7226C56.909 62.6244 57.007 62.4279 57.007 62.1823C57.007 62.0349 56.958 61.8875 56.909 61.7893C56.811 61.6911 56.664 61.5928 56.566 61.5437C56.321 61.4454 56.076 61.3472 55.782 61.2981C55.243 61.1507 54.851 61.0033 54.606 60.7577C54.361 60.5612 54.214 60.2174 54.263 59.9226C54.263 59.677 54.361 59.4314 54.508 59.2349C54.655 59.0384 54.9 58.8419 55.145 58.7437C55.439 58.6454 55.782 58.5472 56.076 58.5963C56.37 58.6454 56.664 58.6946 56.958 58.7928Z" fill="#00829B"/>
<path d="M61.417 58.7928C61.711 58.8911 61.956 59.0384 62.201 59.1858L61.809 59.7261C61.613 59.5788 61.368 59.4805 61.172 59.4314C60.976 59.3823 60.731 59.3332 60.535 59.3332C60.29 59.3332 60.045 59.3823 59.849 59.4805C59.702 59.5788 59.604 59.7753 59.604 59.9226C59.604 60.1191 59.702 60.2665 59.849 60.3647C60.094 60.5121 60.388 60.6104 60.682 60.6595C61.27 60.8068 61.662 60.9542 61.956 61.1998C62.25 61.4454 62.397 61.7893 62.397 62.1332C62.397 62.5753 62.201 62.9682 61.809 63.2139C61.368 63.4595 60.878 63.6068 60.388 63.6068C59.604 63.6068 58.967 63.4104 58.477 62.9682L58.967 62.477C59.359 62.7718 59.898 62.9191 60.388 62.9191C60.682 62.9191 60.927 62.87 61.172 62.7226C61.368 62.6244 61.466 62.4279 61.466 62.1823C61.466 62.0349 61.417 61.8875 61.368 61.7893C61.27 61.6911 61.123 61.5928 61.025 61.5437C60.78 61.4454 60.535 61.3472 60.241 61.2981C59.702 61.1507 59.31 61.0033 59.065 60.7577C58.82 60.5612 58.673 60.2174 58.722 59.9226C58.722 59.677 58.82 59.4314 58.967 59.2349C59.114 59.0384 59.359 58.8419 59.604 58.7437C59.898 58.6454 60.241 58.5472 60.535 58.5963C60.78 58.6454 61.123 58.6946 61.417 58.7928Z" fill="#00829B"/>
<path d="M64.21 56.6314C64.308 56.7296 64.406 56.877 64.406 57.0244C64.406 57.1717 64.357 57.3191 64.21 57.4173C64.063 57.5156 63.916 57.5647 63.769 57.5647C63.622 57.5647 63.426 57.5156 63.328 57.4173C63.23 57.3191 63.132 57.1717 63.132 57.0244C63.132 56.877 63.181 56.7296 63.328 56.6314C63.426 56.5331 63.622 56.484 63.769 56.484C63.916 56.484 64.063 56.5331 64.21 56.6314ZM64.21 58.7928V63.5577H63.328V58.7928H64.21Z" fill="#00829B"/>
<path d="M69.257 59.3332C69.649 59.7753 69.845 60.3648 69.845 61.1508C69.845 61.5929 69.747 62.035 69.551 62.4771C69.404 62.8209 69.11 63.1648 68.767 63.3613C68.424 63.5578 67.983 63.7052 67.542 63.656C66.856 63.656 66.268 63.4104 65.876 62.9683C65.484 62.5262 65.288 61.9367 65.288 61.1508C65.288 60.7087 65.386 60.2666 65.582 59.8245C65.729 59.4806 66.023 59.1367 66.366 58.9402C66.758 58.7438 67.15 58.5964 67.591 58.6455C68.326 58.6455 68.865 58.8911 69.257 59.3332ZM66.268 61.1508C66.268 62.3788 66.709 62.9683 67.591 62.9683C68.473 62.9683 68.914 62.3788 68.914 61.1508C68.914 59.9227 68.473 59.3332 67.64 59.3332C66.709 59.3332 66.268 59.9718 66.268 61.1508Z" fill="#00829B"/>
<path d="M74.5 59.0384C74.745 59.284 74.892 59.677 74.892 60.1191V63.5577H74.01V60.2665C74.01 59.9226 73.961 59.677 73.814 59.5296C73.667 59.3823 73.422 59.284 73.226 59.3331C72.981 59.3331 72.736 59.3823 72.54 59.5296C72.295 59.677 72.099 59.9226 71.952 60.1682V63.5577H71.07V58.7928H71.854L71.952 59.4805C72.148 59.2349 72.344 59.0384 72.638 58.891C72.932 58.7437 73.226 58.6454 73.52 58.6945C73.863 58.6454 74.206 58.7928 74.5 59.0384Z" fill="#00829B"/>
<path d="M79.841 62.87C79.939 62.9683 80.037 63.0665 80.135 63.0665L79.939 63.656C79.694 63.656 79.498 63.5577 79.302 63.4595C79.155 63.3121 79.008 63.1648 78.959 62.9683C78.616 63.4595 78.126 63.656 77.44 63.656C76.95 63.656 76.558 63.5086 76.264 63.263C75.676 62.6735 75.676 61.7893 76.264 61.1998C76.313 61.1507 76.362 61.1016 76.411 61.0525C76.803 60.7577 77.342 60.6595 78.077 60.6595H78.861V60.3156C78.861 59.9718 78.763 59.7262 78.616 59.5788C78.469 59.4314 78.175 59.3823 77.832 59.3823C77.391 59.3823 76.901 59.4805 76.46 59.6279L76.215 59.0384C76.754 58.8419 77.391 58.7437 77.979 58.6946C78.567 58.6946 79.008 58.8419 79.302 59.0876C79.596 59.3823 79.743 59.7753 79.743 60.2665V62.4279C79.743 62.5753 79.792 62.7227 79.841 62.87ZM78.861 62.2805V61.1998H78.175C77.244 61.1998 76.754 61.5437 76.754 62.1823C76.754 62.4279 76.803 62.6735 76.999 62.8209C77.195 62.9683 77.391 63.0665 77.636 63.0174C78.175 63.0174 78.567 62.7718 78.861 62.2805Z" fill="#00829B"/>
<path d="M81.458 63.3613C81.262 63.1648 81.164 62.87 81.164 62.5753V56.8771L82.046 56.7788V62.6244C82.046 62.7227 82.046 62.8209 82.095 62.9192C82.144 62.9683 82.242 63.0174 82.34 63.0174C82.438 63.0174 82.585 63.0174 82.683 62.9683L82.928 63.5578C82.732 63.656 82.487 63.7051 82.242 63.7051C81.948 63.656 81.654 63.5578 81.458 63.3613Z" fill="#00829B"/>
<path d="M28.5379 52.9963C28.4399 52.7016 28.1949 51.67 27.9009 50.6876L25.7939 42.877C25.5489 41.8946 25.2549 40.863 25.1569 40.5683C25.0099 40.1262 24.6669 39.7332 24.1769 39.5858L21.9229 38.9472L14.1319 36.8349L11.7799 36.1963C11.2899 36.0981 10.7999 36.2454 10.4569 36.5402L1.39189 45.677C1.09789 46.0209 0.950886 46.4139 0.999886 46.856L1.04889 47.1016L3.74389 57.1226C3.98889 58.1051 4.28289 59.1367 4.38089 59.4314C4.52789 59.8735 4.87089 60.2665 5.36089 60.4139L7.32089 60.9542L15.4549 63.1156L17.3659 63.656L17.7579 63.7542C18.2479 63.8525 18.7379 63.7051 19.0809 63.4104L20.7959 61.6911L26.4799 55.9928C27.2149 55.256 27.9499 54.5191 28.1949 54.2735C28.4889 53.9297 28.6359 53.4384 28.5379 52.9963ZM2.02889 46.3156L11.0939 37.1788C11.2409 37.0805 11.3879 37.0314 11.5349 37.0805L23.9809 40.4209C24.1279 40.47 24.2749 40.6174 24.3239 40.7647C24.4219 41.0595 24.6669 42.0911 24.9609 43.0735L27.4109 52.3086C27.5089 52.7507 27.6069 53.0946 27.6559 53.2419C27.6559 53.3893 27.6069 53.5858 27.5089 53.684L18.4439 62.8209C18.2969 62.9191 18.1499 62.9683 18.0029 62.9191L17.6599 62.87L15.6509 62.3297L5.55689 59.5788C5.45889 59.5788 5.40989 59.5297 5.36089 59.4805C5.31189 59.4314 5.26289 59.3332 5.21389 59.284C5.16489 59.0384 4.96889 58.3507 4.77289 57.5647L2.51889 49.1156C2.27389 48.2314 2.02889 47.2981 1.93089 46.9051L1.88189 46.7577C1.88189 46.6104 1.93089 46.463 2.02889 46.3156Z" fill="#00829B"/>
</svg>
