<svg xmlns="http://www.w3.org/2000/svg" width="100" height="100" fill="none"><path fill="#00829B" d="M41.915 42.68c.588.59.882 1.425.882 2.457v7.958h-2.842V45.53c0-.639-.098-1.13-.343-1.376-.245-.245-.588-.393-1.078-.393q-.735 0-1.323.442a5.3 5.3 0 0 0-1.127 1.228v7.664h-2.842V42.09h2.45l.196 1.425c.98-1.18 2.156-1.769 3.577-1.769 1.029.05 1.862.344 2.45.934M54.753 48.428h-7.35c.098 1.08.392 1.818.882 2.309s1.176.688 2.009.688c.49 0 .98-.099 1.47-.246q.735-.295 1.47-.737l1.176 1.523c-1.225.982-2.744 1.473-4.312 1.473-1.764 0-3.136-.49-4.116-1.522s-1.47-2.407-1.47-4.225c0-1.032.196-2.063.637-3.046a5.25 5.25 0 0 1 1.764-2.112q1.176-.737 2.793-.737c1.617 0 2.891.492 3.773 1.474s1.323 2.358 1.323 4.077c0 .148 0 .492-.049 1.081m-2.744-1.867c0-1.916-.735-2.898-2.254-2.898q-1.029 0-1.617.737c-.392.491-.637 1.228-.686 2.309h4.606v-.148zM64.602 43.074l-1.127 1.571q-1.47-.884-2.94-.884c-.539 0-.98.098-1.274.295-.294.147-.441.491-.441.786a1 1 0 0 0 .196.639c.147.147.392.343.735.49.49.197 1.029.345 1.519.492 1.274.295 2.205.737 2.793 1.277s.931 1.277.931 2.21c0 1.081-.49 1.966-1.421 2.555s-2.107.933-3.528.933a9.2 9.2 0 0 1-2.597-.393c-.735-.245-1.421-.638-2.058-1.13l1.421-1.473c1.029.737 2.058 1.08 3.185 1.08.637 0 1.127-.098 1.519-.343.343-.197.588-.59.539-.983 0-.245-.049-.54-.196-.736-.147-.197-.392-.344-.735-.492a22 22 0 0 0-1.666-.54c-1.176-.295-2.058-.737-2.646-1.277-.539-.54-.882-1.278-.833-2.064 0-.589.196-1.178.539-1.62.441-.54.98-.934 1.568-1.13a5.5 5.5 0 0 1 2.352-.393c1.617-.148 2.989.294 4.165 1.13M74.745 43.074l-1.127 1.571q-1.47-.884-2.94-.884-.809 0-1.323.295c-.294.147-.441.491-.441.786a1 1 0 0 0 .196.639c.147.147.392.343.735.49.49.197 1.029.345 1.519.492 1.274.295 2.205.737 2.793 1.277s.931 1.277.931 2.21c0 1.081-.49 1.966-1.421 2.555s-2.107.933-3.528.933a9.2 9.2 0 0 1-2.597-.393c-.735-.245-1.421-.638-2.058-1.13l1.421-1.473c1.029.737 2.058 1.08 3.185 1.08.637 0 1.127-.098 1.519-.343.343-.197.588-.59.539-.983 0-.245-.049-.54-.196-.736-.147-.197-.392-.344-.735-.492a22 22 0 0 0-1.666-.54c-1.176-.295-2.058-.737-2.646-1.277-.539-.54-.882-1.278-.833-2.064 0-.589.196-1.178.539-1.62.441-.54.98-.934 1.568-1.13a5.5 5.5 0 0 1 2.352-.393c1.617-.148 2.989.294 4.214 1.13M85.966 53.095h-2.45l-.147-1.523c-.392.59-.882 1.08-1.519 1.375s-1.372.491-2.058.442c-1.029 0-1.862-.294-2.401-.884-.588-.59-.833-1.425-.833-2.505V42.09H79.4v7.565c0 .639.098 1.08.343 1.326s.588.393 1.078.393c.882 0 1.666-.54 2.352-1.572v-7.712h2.842zM96.403 43.074l-1.127 1.571q-1.47-.884-2.94-.884c-.539 0-.98.098-1.274.295-.294.147-.441.491-.441.786a1 1 0 0 0 .196.639c.147.147.392.343.735.49.49.197 1.029.345 1.519.492 1.274.295 2.205.737 2.793 1.277s.931 1.277.931 2.21c0 1.081-.49 1.966-1.421 2.555s-2.107.933-3.528.933a9.2 9.2 0 0 1-2.597-.393c-.735-.245-1.421-.638-2.058-1.13l1.421-1.473c1.029.737 2.058 1.08 3.185 1.08.637 0 1.127-.098 1.519-.343.343-.197.588-.59.539-.983 0-.245-.049-.54-.196-.736-.147-.197-.392-.344-.735-.492a18 18 0 0 0-1.715-.54c-1.176-.295-2.058-.737-2.646-1.277-.539-.54-.882-1.278-.833-2.064 0-.589.196-1.178.539-1.62.441-.54.98-.934 1.568-1.13a5.5 5.5 0 0 1 2.352-.393c1.666-.148 3.038.294 4.214 1.13M98.608 39.586q.147.073.294.294a.9.9 0 0 1 .098.393.9.9 0 0 1-.098.393q-.074.148-.294.295c-.147.05-.245.098-.392.098a.9.9 0 0 1-.392-.098q-.147-.073-.294-.295a.9.9 0 0 1-.098-.392c0-.148.049-.295.098-.394q.073-.147.294-.294a.75.75 0 0 1 .784 0m-.098 1.228c.098-.05.147-.148.196-.197.049-.098.098-.196.098-.294 0-.099 0-.197-.098-.295a.38.38 0 0 0-.196-.197c-.098-.049-.196-.098-.294-.098s-.196.05-.294.098c-.098.05-.147.148-.196.197-.049.098-.098.196-.098.295s0 .196.098.294a.38.38 0 0 0 .196.197c.098.049.196.098.294.098.098-.05.196-.05.294-.098m0-.59c-.049.05-.098.05-.147.099l.245.343h-.245l-.196-.294h-.049v.294h-.196v-.835h.245c.245 0 .392.099.392.246 0 .05-.049.098-.049.147m-.392 0h.098c.098 0 .147-.049.147-.098s-.049-.098-.147-.098h-.098zM36.133 57.81c.441.344.686.786.686 1.425 0 .688-.245 1.179-.686 1.523-.49.343-1.078.49-1.862.49h-.833v2.31h-.931v-6.239h1.764c.784 0 1.421.148 1.862.491m-.686 2.506q.441-.295.441-1.032c0-.442-.147-.786-.441-.983q-.441-.294-1.176-.294h-.833v2.554h.784c.539 0 .931-.098 1.225-.245M40.445 58.744l-.147.835c-.147-.05-.294-.05-.441-.05-.294 0-.588.099-.784.344q-.294.295-.441 1.032v2.751h-.882v-4.765h.784l.098.983c.098-.295.294-.59.539-.786s.539-.295.784-.295c.147-.148.343-.098.49-.05M44.757 59.333c.392.442.588 1.032.588 1.818q0 .663-.294 1.326a1.95 1.95 0 0 1-.784.884c-.343.197-.784.344-1.225.295-.735 0-1.274-.246-1.666-.688s-.588-1.031-.588-1.817q0-.663.294-1.327a1.95 1.95 0 0 1 .784-.884c.392-.196.784-.344 1.225-.294.735 0 1.274.245 1.666.687m-2.989 1.818c0 1.228.441 1.817 1.323 1.817s1.323-.59 1.323-1.817c0-1.228-.441-1.818-1.274-1.818-.931 0-1.372.639-1.372 1.818M47.746 57.614a.63.63 0 0 0-.196.491v.639h1.225l-.098.638H47.55v4.127h-.882v-4.127h-.882v-.638h.882v-.639c0-.393.147-.737.441-.982.294-.246.686-.393 1.176-.393.196 0 .392 0 .637.049.196.049.392.098.588.196l-.294.639c-.294-.098-.588-.197-.882-.197s-.49.05-.588.197M53.381 61.446h-3.234q.074.81.441 1.178c.245.246.588.393.931.393.245 0 .441-.049.686-.098.245-.098.441-.196.637-.295l.392.492c-.49.393-1.127.59-1.764.59-.686 0-1.274-.197-1.666-.64-.392-.442-.588-1.031-.588-1.817 0-.442.098-.884.245-1.326.147-.344.392-.688.735-.885a1.9 1.9 0 0 1 1.127-.343c.686 0 1.176.196 1.568.638.343.393.539.983.539 1.72-.049.098-.049.245-.049.393m-.882-.688c0-.492-.098-.835-.294-1.081s-.49-.393-.882-.393c-.735 0-1.127.491-1.176 1.523h2.352zM56.958 58.793c.294.098.539.245.784.393l-.392.54a1.9 1.9 0 0 0-.637-.295 3 3 0 0 0-.637-.098c-.245 0-.49.05-.686.148a.59.59 0 0 0-.245.442c0 .196.098.343.245.442s.441.196.833.294c.588.148.98.295 1.274.54s.441.59.441.934c0 .442-.196.835-.588 1.08a2.95 2.95 0 0 1-1.421.394c-.784 0-1.421-.197-1.911-.639l.49-.491c.392.295.931.442 1.421.442.294 0 .539-.049.784-.196.196-.099.294-.295.294-.54a.9.9 0 0 0-.098-.394 1.5 1.5 0 0 0-.343-.245 3.7 3.7 0 0 0-.784-.246c-.539-.147-.931-.295-1.176-.54-.245-.197-.392-.54-.343-.835 0-.246.098-.492.245-.688.147-.197.392-.393.637-.491.294-.099.637-.197.931-.148s.588.099.882.197M61.417 58.793c.294.098.539.245.784.393l-.392.54a1.9 1.9 0 0 0-.637-.295 3 3 0 0 0-.637-.098c-.245 0-.49.05-.686.148a.59.59 0 0 0-.245.442c0 .196.098.343.245.442.245.147.539.245.833.294.588.148.98.295 1.274.54s.441.59.441.934c0 .442-.196.835-.588 1.08a2.95 2.95 0 0 1-1.421.394c-.784 0-1.421-.197-1.911-.639l.49-.491c.392.295.931.442 1.421.442.294 0 .539-.049.784-.196.196-.099.294-.295.294-.54a.9.9 0 0 0-.098-.394 1.5 1.5 0 0 0-.343-.245 3.7 3.7 0 0 0-.784-.246c-.539-.147-.931-.295-1.176-.54-.245-.197-.392-.54-.343-.835 0-.246.098-.492.245-.688.147-.197.392-.393.637-.491.294-.099.637-.197.931-.148.245.05.588.099.882.197M64.21 56.631c.098.099.196.246.196.393a.45.45 0 0 1-.196.393.8.8 0 0 1-.441.148c-.147 0-.343-.05-.441-.148s-.196-.245-.196-.393c0-.147.049-.294.196-.393.098-.098.294-.147.441-.147q.22 0 .441.147m0 2.162v4.765h-.882v-4.765zM69.257 59.333c.392.442.588 1.032.588 1.818q0 .663-.294 1.326a1.95 1.95 0 0 1-.784.884c-.343.197-.784.344-1.225.295-.686 0-1.274-.246-1.666-.688s-.588-1.031-.588-1.817q0-.663.294-1.327a1.95 1.95 0 0 1 .784-.884c.392-.196.784-.344 1.225-.294.735 0 1.274.245 1.666.687m-2.989 1.818c0 1.228.441 1.817 1.323 1.817s1.323-.59 1.323-1.817c0-1.228-.441-1.818-1.274-1.818-.931 0-1.372.639-1.372 1.818M74.5 59.038c.245.246.392.639.392 1.081v3.439h-.882v-3.291c0-.344-.049-.59-.196-.737s-.392-.246-.588-.197c-.245 0-.49.05-.686.197-.245.147-.441.393-.588.638v3.39h-.882v-4.765h.784l.098.688c.196-.246.392-.443.686-.59s.588-.246.882-.197c.343-.049.686.099.98.344M79.841 62.87c.098.098.196.197.294.197l-.196.589c-.245 0-.441-.098-.637-.197-.147-.147-.294-.294-.343-.49-.343.49-.833.687-1.519.687-.49 0-.882-.147-1.176-.393-.588-.59-.588-1.474 0-2.063l.147-.148c.392-.294.931-.392 1.666-.392h.784v-.344c0-.344-.098-.59-.245-.737s-.441-.197-.784-.197a4.5 4.5 0 0 0-1.372.246l-.245-.59c.539-.196 1.176-.294 1.764-.343.588 0 1.029.147 1.323.393q.441.441.441 1.178v2.162c0 .147.049.295.098.442m-.98-.59V61.2h-.686c-.931 0-1.421.344-1.421.982 0 .246.049.491.245.639.196.147.392.245.637.196.539 0 .931-.245 1.225-.736M81.458 63.361c-.196-.196-.294-.491-.294-.786v-5.698l.882-.098v5.845c0 .099 0 .197.049.295.049.05.147.098.245.098s.245 0 .343-.049l.245.59a1.6 1.6 0 0 1-.686.147c-.294-.049-.588-.147-.784-.344M28.538 52.996c-.098-.294-.343-1.326-.637-2.308l-2.107-7.811a44 44 0 0 0-.637-2.309c-.147-.442-.49-.835-.98-.982l-2.254-.639-7.791-2.112-2.352-.639a1.57 1.57 0 0 0-1.323.344l-9.065 9.137c-.294.344-.441.737-.392 1.179l.049.246 2.695 10.02c.245.983.539 2.015.637 2.31.147.441.49.834.98.982l1.96.54 8.134 2.162 1.91.54.393.098c.49.099.98-.049 1.323-.344l1.715-1.719 5.684-5.698 1.715-1.72c.294-.343.44-.835.343-1.277m-26.51-6.68 9.066-9.137c.147-.099.294-.148.44-.099l12.447 3.34c.147.05.294.197.343.345.098.294.343 1.326.637 2.309l2.45 9.235c.098.442.196.786.245.933 0 .147-.05.344-.147.442l-9.065 9.137c-.147.098-.294.147-.441.098l-.343-.049-2.01-.54-10.093-2.751c-.098 0-.147-.05-.196-.099s-.098-.147-.147-.196c-.05-.246-.245-.933-.441-1.72l-2.254-8.448c-.245-.885-.49-1.818-.588-2.21l-.05-.148q0-.222.148-.442"/></svg>