<svg xmlns="http://www.w3.org/2000/svg" width="100" height="100" fill="none"><path fill="#000" d="M1 50.058h1.911v1.67h.049c.196-.638 1.519-1.965 3.479-1.965 1.421-.099 2.793.688 3.381 2.015a3.95 3.95 0 0 1 3.43-2.015c3.332 0 4.116 2.359 4.116 4.817v6.291h-2.058v-5.997c0-1.622-.343-3.145-2.303-3.145s-2.744 1.327-2.744 3.244v5.947H8.203V55.22c0-2.065-.294-3.54-2.254-3.54-1.47 0-2.793 1.131-2.793 3.54v5.652H1zM20.845 56.25c0 1.918 1.764 3.147 3.626 3.147 1.274 0 2.156-.64 2.99-1.622l1.518 1.18c-1.127 1.474-2.695 2.211-4.802 2.211-3.43 0-5.537-2.507-5.537-5.702-.098-3.047 2.303-5.603 5.39-5.701h.245c3.822 0 5.243 2.9 5.243 5.701v.738zm6.468-1.67c-.049-1.819-1.029-3.146-3.136-3.146a3.336 3.336 0 0 0-3.332 3.146zM36.623 51.827h-2.94v4.916c0 1.228 0 2.506 1.52 2.506.49.05 1.028-.098 1.47-.344v1.868a4.9 4.9 0 0 1-1.863.393c-3.185 0-3.234-1.966-3.234-3.686v-5.653h-2.352v-1.77h2.352V47.01h2.058v3.048h2.94zM38.142 51.385a6.5 6.5 0 0 1 4.263-1.622c3.185 0 4.508 1.77 4.508 3.637v5.554c0 .688.049 1.327.098 1.966h-1.813c-.049-.54-.049-1.13-.049-1.622H45.1c-.882 1.426-2.156 1.917-3.773 1.917-2.009 0-3.773-1.13-3.773-3.244 0-2.801 2.695-3.785 5.978-3.785H45.1v-.491c0-1.13-.784-2.261-2.597-2.261-1.568 0-2.303.688-3.087 1.229zm5.831 4.325c-1.96 0-4.312.344-4.312 2.065 0 1.228.882 1.77 2.303 1.77 2.254 0 3.087-1.672 3.087-3.147v-.688zM54.9 52.761a2.76 2.76 0 0 0-2.205-1.081c-.98 0-1.813.442-1.813 1.228 0 1.328 1.862 1.475 2.744 1.672 1.764.442 3.136 1.13 3.136 3.145 0 2.458-2.254 3.441-4.36 3.441-1.765 0-3.137-.491-4.166-1.917l1.52-1.278c.685.688 1.42 1.278 2.596 1.278 1.03 0 2.156-.442 2.156-1.376 0-1.229-1.715-1.475-2.597-1.671-1.764-.443-3.332-.983-3.332-3.097 0-2.26 2.058-3.342 4.116-3.342 1.421 0 2.891.491 3.675 1.77zM58.085 50.058h2.058v1.523h.049c.882-1.18 2.303-1.818 3.773-1.818 3.332 0 5.488 2.507 5.488 5.701 0 3.195-2.156 5.702-5.488 5.702a4.47 4.47 0 0 1-3.773-1.868h-.049V65h-2.058zm2.107 5.406c0 2.163 1.372 3.785 3.528 3.785s3.528-1.524 3.528-3.785c0-2.26-1.372-3.784-3.577-3.784s-3.479 1.622-3.479 3.784M71.07 43.619h2.058V60.92H71.07zM79.84 49.812c3.137 0 5.685 2.605 5.685 5.75 0 3.147-2.597 5.703-5.733 5.703s-5.684-2.605-5.684-5.751 2.548-5.702 5.684-5.702zm0 9.437c2.157 0 3.529-1.573 3.529-3.784 0-2.212-1.372-3.785-3.528-3.785s-3.528 1.573-3.528 3.785c0 2.211 1.323 3.784 3.528 3.784M87.583 44.65c.833 0 1.519.689 1.519 1.525 0 .835-.686 1.523-1.519 1.523a1.53 1.53 0 0 1-1.519-1.523c0-.836.686-1.524 1.519-1.524m-1.029 5.408h2.058V60.92h-2.058zM96.746 51.827h-2.94v4.916c0 1.228 0 2.506 1.519 2.506.49.05 1.029-.098 1.47-.344v1.868a4.9 4.9 0 0 1-1.862.393c-3.185 0-3.234-1.966-3.234-3.686v-5.653h-2.352v-1.77h2.352V47.01h2.058v3.048h2.94v1.77zM97.383 43.766c.882 0 1.617.737 1.617 1.622s-.735 1.622-1.617 1.622a1.634 1.634 0 0 1-1.617-1.622c0-.885.735-1.622 1.617-1.622m0 2.95c.735 0 1.372-.64 1.372-1.377s-.637-1.376-1.372-1.376-1.372.639-1.372 1.376.637 1.376 1.372 1.376m-.343-.443h-.245v-1.868h.686c.392 0 .588.148.588.492 0 .294-.196.491-.49.54l.588.787h-.245l-.539-.787h-.343zm0-1.032h.294c.245 0 .54 0 .54-.344 0-.246-.197-.295-.393-.295h-.44zM5.802 39.49H3.891l.392-1.868h1.764c.588 0 .931.295.931.787 0 .59-.49 1.081-1.078 1.081zm3.136-1.278c0-1.278-.98-2.212-2.695-2.212H2.715L1 43.815h1.96l.588-2.703h1.127l1.127 2.703h1.96l-1.225-2.801a2.81 2.81 0 0 0 2.401-2.802M12.27 40.915l1.666-2.9.637 2.9zM13.152 36l-4.508 7.815h1.96l.735-1.278h3.626l.294 1.278h1.96L15.455 36zM22.756 39.49h-1.715l.392-1.868h1.519c.588 0 .98.295.98.787-.049.639-.539 1.081-1.176 1.081m.392-3.49h-3.283l-1.715 7.815h1.96l.588-2.703h2.156c1.617.05 2.94-1.18 2.989-2.802v-.098c0-1.278-1.029-2.212-2.695-2.212M29.567 36h-1.911l-1.715 7.815h1.911z"/><path fill="#E95F26" d="M43.532 36h-6.125l.294.295c.686.885 1.078 1.917 1.029 3.047 0 1.72-.686 3.343-1.96 4.473h3.773l1.764-4.472h-2.254l.392-1.72h4.459l-2.352 6.192h.931c2.156 0 3.577-1.77 3.577-3.932S45.688 36 43.532 36"/><path fill="#000" d="M32.703 42.193h-1.078l.98-4.57h1.029c.931-.05 1.764.736 1.764 1.67v.197c.049 1.475-1.127 2.654-2.548 2.703zm3.92-4.915c-.784-.885-1.911-1.327-3.087-1.278h-2.499l-1.715 7.815h3.136c1.029 0 2.009-.196 2.891-.688a4.34 4.34 0 0 0 1.96-3.785 3.48 3.48 0 0 0-.686-2.064"/></svg>