<svg xmlns="http://www.w3.org/2000/svg" width="100" height="100" fill="none"><path fill="#020202" d="M56.272 8.146c.833.34 1.715.34 2.597.485 8.526 1.36 16.317 4.467 23.373 9.42 5.93 4.127 10.927 9.225 14.896 15.295.637.97 1.225 1.942 1.862 2.961-5.39 9.08-12.593 16.363-22 21.462q-9.777 5.317-20.875 6.554c-4.459.486-8.918.486-13.377-.097-14.014-1.845-25.676-8.108-35.182-18.402-2.205-2.38-3.87-5.098-5.83-7.672-1.128-1.456-.883-2.33 0-3.738 5.781-9.08 13.425-16.023 23.078-20.782a55.3 55.3 0 0 1 18.13-5.34c.05 0 .147-.098.196-.146zM41.23 33.686c-.049.34-.294.728-.098 1.116h2.45c.588-.097 1.323.437 1.666-.437.441-1.068 1.225-1.748 2.254-2.233.343-.097.784-.049.784-.534.05-1.166 0-2.331 0-3.642-.833.243-1.519.388-2.205.583-.343-.486-.637-1.02-.784-1.651a10.2 10.2 0 0 1 2.401-.583c.294-.049.588-.097.588-.485v-4.273c-.49 0-.882-.049-1.225 0-1.323.194-2.597.63-3.92 1.02-1.078-1.263-.98-1.603.54-2.088 1.518-.437 3.037-.68 4.556-.923v-4.03c-10.437.291-19.257 8.74-19.747 19.228h3.773a15 15 0 0 1 1.03-4.613c.587.291 1.077.534 1.616.777-.294 1.262-.784 2.476-.735 3.836h4.9c.147-.583.245-1.166.392-1.748.637.048 1.176.485 1.764.68m24.5-18.209c6.713 5.827 10.143 12.965 9.702 21.704-.392 8.692-4.508 15.392-11.515 20.49.343.05.637 0 .98-.097a49 49 0 0 0 13.426-6.263c3.675-2.428 7.056-5.244 9.898-8.643 1.568-1.894 3.185-3.739 4.557-5.778.343-.486.294-.728 0-1.165-1.813-2.574-3.773-5.05-5.978-7.332-5.145-5.39-11.22-9.371-18.179-12.042-.882-.388-1.715-.874-2.89-.874m-34.153.68c-.392.097-.539.097-.686.146C20.845 20.284 12.81 26.79 6.831 35.725c-.294.437-.245.68.05 1.068 6.173 9.225 14.503 15.78 24.891 19.713.294.097.54.291.98.049-6.37-5.196-9.898-11.75-10.143-19.86-.245-8.108 2.842-14.857 8.967-20.538m16.758 40.058v-3.933c-9.31-1.117-14.65-6.167-16.17-15.295h-3.577c.147 9.323 8.232 18.84 19.747 19.228m2.156-40.64v3.641c0 .534.343.486.735.534 6.174.826 10.535 4.127 13.28 9.614.832 1.7 1.175 3.544 1.42 5.39h3.724c-.735-11.168-9.947-18.645-19.159-19.18m0 40.543c10.34-.34 19.012-9.614 19.012-19.082h-3.626c-.196 1.845-.49 3.593-1.274 5.195-2.744 5.632-7.105 9.031-13.426 9.857-.49.048-.686.194-.686.68zm-16.268-19.13c.245 7.914 8.33 13.837 14.014 13.206V45.63c-5.194-.728-8.183-3.69-9.212-8.643zm24.892-.05c-.294.972-.392 1.943-.833 2.817-1.47 3.01-3.822 4.904-7.105 5.632-.343.097-.735.049-.686.583v4.224c6.37-.097 13.377-6.264 13.426-13.207-.196 0-.392-.048-.539-.048zM50.54 26.257c3.97.68 7.644 3.4 8.575 8.546h4.851c-.147-7.089-7.203-13.11-13.426-13.207zm-9.457 10.731c-.049 3.253 3.626 6.652 7.203 6.75v-3.788c-1.666-.34-2.695-1.457-3.234-2.962zm9.408 6.7c3.528-.63 6.321-3.447 6.615-6.7H53.43c-.343 0-.44.243-.49.486-.343.97-1.029 1.602-1.91 2.136-.246.146-.54.194-.54.583zm0-15.537v3.545c0 .242.05.437.294.534 1.176.485 1.862 1.456 2.303 2.525h4.067c-.49-3.35-3.234-6.118-6.664-6.604M29.91 91.854v-3.35h2.156c.343-4.273.735-8.497 1.078-12.819H30.89v-3.593h7.938q1.984 5.754 3.969 11.654c1.323-3.933 2.646-7.77 3.969-11.702h7.987v3.544h-2.254c.343 4.322.735 8.546 1.078 12.722.735.242 1.47-.049 2.254.242v3.254h-9.163v-3.302c.686-.194 1.323.048 1.96-.194-.098-3.01-.54-6.021-.441-9.129-.833 2.962-2.01 5.584-2.891 8.352-.245.728-.637.922-1.323.874a22 22 0 0 0-2.548 0c-.54.048-.833-.146-.98-.68-.294-.874-.588-1.748-.931-2.622-.637-1.796-1.274-3.593-2.01-5.535.05 3.059-.391 5.875-.49 8.788.638.194 1.324-.048 2.059.243v3.253zM57.252 91.854c-.196-1.068 0-2.185-.098-3.204.147-.098.196-.146.245-.146 1.176.194 1.617-.389 1.96-1.457 1.617-5 3.332-9.953 5.047-15.003h5.34c.49 0 .49.291.638.582 1.42 4.128 2.793 8.255 4.214 12.382.245.777.588 1.554.784 2.38s.588 1.213 1.47 1.067c.147-.048.294 0 .588 0v3.4h-8.38v-3.303c.589-.145 1.128.05 1.667-.194-.196-.728-.441-1.456-.637-2.185-.098-.291-.294-.388-.588-.388H65.14c-.294 0-.49.145-.54.437-.195.728-.391 1.457-.587 2.233.637.049 1.127.049 1.715.097v3.35c-2.891-.048-5.684-.048-8.477-.048m11.466-9.905c-.441-1.942-1.127-3.739-1.421-5.73-.54 1.991-1.078 3.836-1.568 5.73zM79.106 91.854v-3.35h2.205v-12.77h-2.156v-3.69h2.793c2.744 0 5.537.048 8.28.048 4.362 0 6.616 3.642 6.175 7.526-.392 3.302-2.303 5.536-4.998 5.827-1.372.146-2.793.097-4.165.146-.245 0-.49.048-.833.048v2.72c.735.242 1.42 0 2.254.194v3.301zm7.3-10.148c1.618-.145 3.43.583 4.607-1.117.686-1.02.637-2.913-.147-3.738-1.274-1.36-2.94-.68-4.46-.826zM6.537 91.854c.049-.582.049-1.214.098-1.942h2.45V74.52c-.735-.243-1.568 0-2.401-.146-.196-.63-.05-1.31-.098-2.087h5.096c.294 0 .392.242.539.436a2159 2159 0 0 0 9.212 13.256c.294.437.49.874.882 1.457V74.47h-2.303c-.245-.728-.147-1.456-.098-2.184h7.742c.147.68.049 1.359.049 2.087h-2.45v17.432h-3.136c.049-.195-.098-.292-.147-.437-2.205-3.156-4.41-6.361-6.615-9.517-1.176-1.7-2.401-3.35-3.48-5.196v13.207h2.647v1.943c-2.695.048-5.341.048-7.987.048"/><path fill="#F3F3F3" d="M65.729 15.477c1.176 0 2.009.486 2.842.826 6.958 2.67 13.083 6.652 18.179 12.041 2.156 2.282 4.116 4.759 5.978 7.332.294.437.343.68 0 1.166-1.372 2.039-2.99 3.884-4.557 5.778-2.842 3.398-6.223 6.215-9.898 8.642a49 49 0 0 1-13.426 6.264c-.343.097-.637.145-.98.097 6.958-5.098 11.074-11.75 11.515-20.49.44-8.74-2.94-15.83-9.653-21.656M31.576 16.157c-6.125 5.681-9.212 12.43-8.967 20.539.245 8.108 3.773 14.663 10.143 19.859-.392.243-.686.048-.98-.049C21.335 52.573 13.054 46.018 6.88 36.842c-.294-.389-.343-.68-.05-1.069 6.028-8.934 14.015-15.392 24.06-19.422.147-.097.294-.097.686-.194"/><path fill="#F3F3F3" d="M47.5 32.132c-.98.485-1.812 1.165-2.253 2.233-.343.826-1.078.34-1.666.437-.784-.388-1.568-.728-2.401-1.117-.588-.194-1.078-.63-1.715-.68-1.421-.922-2.99-1.456-4.508-2.087-.54-.243-1.03-.486-1.617-.777a15 15 0 0 0-1.03 4.613h-3.772c.49-10.488 9.26-18.937 19.747-19.228v4.03c-1.47.243-3.038.485-4.557.922s-1.617.826-.54 2.088c.638 1.506 1.275 2.962 2.157 4.37.147.631.44 1.166.784 1.651 0 .389.245.631.392.971.294.826.882 1.603.98 2.574M48.334 56.215c-11.466-.437-19.6-9.905-19.747-19.228h3.577c1.519 9.08 6.86 14.13 16.17 15.295v3.932M50.49 15.575c9.212.534 18.424 8.011 19.11 19.179h-3.724c-.245-1.797-.54-3.69-1.421-5.39-2.744-5.487-7.105-8.788-13.28-9.614-.342-.048-.734 0-.734-.534.049-1.214.049-2.38.049-3.642M50.49 56.118v-3.35c0-.486.196-.632.686-.68 6.32-.777 10.682-4.225 13.426-9.857.784-1.602 1.078-3.35 1.274-5.195h3.626c0 9.42-8.673 18.742-19.012 19.082"/><path fill="#99C3D4" d="M34.222 36.987h4.802c1.029 4.953 4.018 7.915 9.26 8.643v4.564c-5.732.631-13.817-5.292-14.062-13.207M59.114 36.939h4.263c.196 0 .392.048.539.048-.05 6.944-7.056 13.158-13.426 13.256v-4.225c0-.534.343-.485.686-.582 3.283-.777 5.635-2.67 7.105-5.633.44-.874.539-1.845.833-2.864M50.539 26.257v-4.662c6.174.049 13.23 6.118 13.426 13.207h-4.851c-.98-5.195-4.606-7.866-8.575-8.545"/><path fill="#99C3D4" d="M41.082 36.987h3.92c.588 1.505 1.568 2.622 3.234 2.962v3.787c-3.528-.097-7.203-3.496-7.154-6.749M50.49 43.688v-3.545c0-.388.294-.437.539-.582.833-.535 1.568-1.166 1.91-2.137.099-.243.148-.485.49-.485h3.676c-.294 3.301-3.087 6.118-6.615 6.749M50.49 28.15c3.43.486 6.174 3.253 6.615 6.604h-4.067c-.441-1.117-1.127-2.04-2.303-2.525-.245-.097-.294-.292-.294-.534.049-1.166.049-2.282.049-3.545M45.296 26.888c-.882-1.36-1.52-2.865-2.156-4.37 1.274-.389 2.548-.826 3.92-1.02.392-.048.735 0 1.225 0v4.273c0 .388-.294.437-.588.485-.784.146-1.617.34-2.401.632M34.957 30.918c1.519.63 3.136 1.165 4.508 2.088-.147.582-.245 1.165-.392 1.748h-4.9c0-1.36.44-2.574.784-3.836M47.5 32.132c-.097-.971-.685-1.748-1.028-2.622-.147-.34-.392-.583-.392-.971.686-.195 1.372-.34 2.205-.583v3.642c0 .485-.441.437-.784.534M41.229 33.685c.784.389 1.568.729 2.4 1.117h-2.45c-.244-.388 0-.777.05-1.117"/></svg>