<svg xmlns="http://www.w3.org/2000/svg" width="100" height="100" fill="none"><path fill="#2D2D2D" d="M26.67 50.19q0 7.645-4.348 11.755c-2.899 2.74-7.087 4.092-12.563 4.067H1V35h9.713c5.055 0 8.97 1.34 11.745 4.005 2.776 2.666 4.176 6.399 4.213 11.185m-6.813.174c0-6.622-2.937-9.945-8.81-9.945H7.555v20.125h2.812c6.331 0 9.503-3.398 9.49-10.18M33.089 65.963V35h6.566v30.963zM54.002 54.096v11.867h-6.567V35h9.032c4.213 0 7.322.769 9.342 2.294 2.007 1.525 3.023 3.856 3.023 6.981a8.2 8.2 0 0 1-1.5 4.861 9.85 9.85 0 0 1-4.249 3.336c4.659 6.956 7.682 11.457 9.106 13.49h-7.272l-7.421-11.866zm0-5.332h2.118a8.16 8.16 0 0 0 4.597-1.042 3.72 3.72 0 0 0 1.486-3.26 3.4 3.4 0 0 0-1.511-3.138 9.25 9.25 0 0 0-4.683-.905h-1.983v8.345zM76.055 35h9.626c4.386 0 7.57.62 9.553 1.872 1.982 1.253 2.973 3.237 2.973 5.965a7.5 7.5 0 0 1-1.3 4.513 5.26 5.26 0 0 1-3.457 2.146v.21a6.83 6.83 0 0 1 4.25 2.456 8 8 0 0 1 1.3 4.786 7.93 7.93 0 0 1-3.06 6.61c-2.044 1.586-4.807 2.38-8.313 2.38H76.055zm6.554 12.264h3.816a7.1 7.1 0 0 0 3.865-.819 3.08 3.08 0 0 0 1.19-2.715 2.73 2.73 0 0 0-1.301-2.555 8.4 8.4 0 0 0-4.114-.781h-3.444v6.87zm0 5.22v8.072h4.274a6.34 6.34 0 0 0 4.002-1.029 3.82 3.82 0 0 0 1.288-3.187c0-2.566-1.833-3.856-5.5-3.856z"/></svg>