<svg xmlns="http://www.w3.org/2000/svg" width="100" height="100" fill="none"><path fill="#000" d="M3.891 63.853 1 52.022h1.47l1.666 7.756c.147.786.294 1.62.441 2.406.294-1.277.441-2.013.49-2.21l2.058-8.001H8.84l1.568 5.989c.392 1.472.686 2.896.833 4.172.147-.736.294-1.62.539-2.552l1.715-7.61h1.421l-2.989 11.832h-1.372L8.252 54.82c-.196-.736-.294-1.227-.343-1.375-.098.54-.196.982-.294 1.375l-2.303 9.033zm12.593 0V52.022h1.421v11.83zm3.969 0V52.022h4.802q1.47 0 2.205.294c.49.197.882.59 1.225 1.13q.441.81.441 1.767c0 .834-.245 1.521-.735 2.11-.49.59-1.274.933-2.303 1.08q.588.295.882.59c.441.441.833.932 1.176 1.57l1.862 3.24h-1.813l-1.421-2.454c-.441-.687-.784-1.276-1.029-1.62-.294-.393-.49-.638-.735-.785a1.9 1.9 0 0 0-.637-.295c-.196-.049-.49-.049-.833-.049h-1.666v5.253zm1.421-6.628h3.087c.637 0 1.176-.098 1.519-.245.392-.147.637-.393.833-.687.196-.344.294-.688.294-1.08 0-.54-.196-1.031-.539-1.375-.392-.343-.98-.54-1.764-.54h-3.43zm9.506 6.628V52.022h7.84v1.374h-6.37v3.633h5.978v1.375h-6.027v4.025h6.615v1.375H31.38zm9.408-3.83 2.107-.245c.147.786.392 1.375.784 1.718.441.344.931.54 1.617.54s1.225-.147 1.568-.49c.343-.344.539-.688.539-1.13 0-.294-.098-.54-.245-.736s-.392-.344-.784-.49c-.245-.1-.833-.246-1.764-.54-1.176-.295-2.009-.688-2.45-1.18-.686-.637-.98-1.423-.98-2.355 0-.59.147-1.179.49-1.67.294-.54.784-.932 1.372-1.178.588-.294 1.274-.393 2.107-.393 1.372 0 2.401.344 3.087.982.686.639 1.029 1.522 1.078 2.602l-2.205.098q-.147-.883-.588-1.325c-.294-.246-.784-.393-1.372-.393q-.956 0-1.47.442a.88.88 0 0 0-.343.736c0 .295.098.54.343.737.294.245.931.54 2.009.785 1.078.295 1.862.54 2.352.835s.931.687 1.176 1.178c.294.49.441 1.129.441 1.865 0 .688-.196 1.326-.539 1.915a3.22 3.22 0 0 1-1.47 1.325q-.955.442-2.352.442c-1.372 0-2.401-.343-3.136-1.03-.784-.737-1.225-1.768-1.372-3.044m10.682 3.83V52.022h2.205v4.663h4.263v-4.663h2.205v11.83h-2.205v-5.154h-4.263v5.155zm20.629 0h-2.352l-.931-2.7h-4.312l-.882 2.7H61.27l4.214-11.831h2.303zm-4.018-4.664-1.47-4.369-1.47 4.37zm5.194 4.664V52.022h4.606q1.764 0 2.499.294c.539.197.931.59 1.274 1.13.294.54.49 1.178.49 1.865q0 1.325-.735 2.209c-.49.59-1.176.933-2.156 1.08.49.294.882.638 1.176.982s.735.982 1.225 1.914l1.323 2.308H80.38l-1.568-2.553c-.539-.933-.931-1.522-1.127-1.718a1.86 1.86 0 0 0-.637-.491c-.245-.098-.588-.148-1.078-.148h-.49v4.959zm2.205-6.824h1.617c1.029 0 1.715-.049 1.96-.147s.441-.246.588-.491c.147-.246.245-.54.245-.884 0-.392-.098-.736-.294-.982-.196-.245-.49-.392-.833-.441-.196-.05-.686-.05-1.617-.05H75.48zm8.771 6.824V52.022h2.205v5.253l4.41-5.253h2.94l-4.116 4.614 4.312 7.217H91.16l-2.989-5.548-1.764 1.964v3.584z"/><path fill="#000" fill-rule="evenodd" d="M52.637 37.522c.188.34.172.758-.04 1.084-1.49 2.293-1.561 4.958-1.209 7.148a16 16 0 0 0 .832 3.102H99v2.11H51.519c-.406 0-.775-.234-.95-.6l.95-.455-.95.454-.002-.003-.003-.007-.01-.02-.03-.068q-.04-.087-.107-.246a18.188 18.188 0 0 1-1.108-3.93c-.314-1.956-.361-4.437.595-6.84-3.583.626-5.665 2.91-6.907 5.246-.726 1.368-1.154 2.741-1.4 3.78a16 16 0 0 0-.288 1.577l-.01.082-.001.019-1.049-.093-1.049-.094v-.005l.002-.01.003-.032c.003-.028.75.043.013-.114.01-.097 1.445.329 1.472.157.017-.116-1.378-.81-1.352-.957.05-.288.12-.631.21-1.016.274-1.157.755-2.713 1.59-4.285 1.685-3.17 4.851-6.45 10.562-6.53.389-.005.75.204.937.546m-13.3 11.285H1.148v2.11h39.102c.545 0 1-.418 1.049-.962" clip-rule="evenodd"/><path stroke="#000" stroke-linecap="round" stroke-width=".4" d="M39.772 49.116a.04.04 0 0 0 .005.02q.025.048.053.094a.34.34 0 0 0 .142.147q.039.02.076.04.063.029.13.045c.045.011.083.034.126.048.017.007.04.003.057.003.031 0 .064-.003.095 0 .047.006.094.07.12.102q.024.03.042.063c.013.022.026.046.046.063.011.008.022.012.03.024.033.054.057.103-.019.134a.3.3 0 0 1-.116.02 1.1 1.1 0 0 1-.315-.031c-.064-.016-.134-.05-.201-.05h-.187c-.08 0-.157-.01-.236-.018q-.08-.01-.159-.02c-.062-.005-.125-.001-.188-.009-.042-.005-.085-.02-.127-.021-.014 0-.026-.005-.04-.005q-.007 0-.002-.007c.023-.03.062-.052.09-.076.103-.089.193-.194.283-.295a.32.32 0 0 0 .071-.274c-.002-.01 0-.03-.01-.035-.012-.005-.027-.002-.04-.005-.01-.002-.03-.003-.03-.013 0-.014-.004-.026-.004-.04M40.988 49.87c.015-.002 0-.043-.003-.05-.002-.006.012.004.018.007q.006.002.01.007c.011.017.053.02.053.044"/></svg>