<svg xmlns="http://www.w3.org/2000/svg" width="100" height="100" fill="none"><path fill="#F1592A" d="M49.859 98.998c-26.324 0-48.651-22.224-48.857-48.728a48.26 48.26 0 0 1 14.102-34.471C24.283 6.389 36.84 1.077 49.988 1a48.47 48.47 0 0 1 34.367 14.283A48.5 48.5 0 0 1 99 49.548c.13 27.097-21.657 49.192-48.754 49.45zm.154-95.446a46.54 46.54 0 0 0-33.052 14.052 45.66 45.66 0 0 0-13.407 32.64c.18 25.112 21.348 46.176 46.305 46.176h.335c25.679-.232 46.356-21.168 46.253-46.846-.129-12.247-5.105-23.926-13.87-32.46A45.85 45.85 0 0 0 50.012 3.552"/><path fill="#F1592A" d="M11.985 64.347V35.729h6.96v2.578H15.26v23.539h3.687v2.578zM35.627 49.728c0 5.208-3.171 8.199-7.477 8.199-4.305 0-7.167-3.352-7.167-7.915 0-4.796 2.99-8.148 7.4-8.148 4.408 0 7.244 3.507 7.244 7.864M24 49.96c0 3.171 1.599 5.672 4.332 5.672s4.305-2.578 4.305-5.8c0-2.914-1.47-5.673-4.305-5.673s-4.357 2.682-4.357 5.878zM38.05 42.38c1.367-.232 2.76-.36 4.126-.335a7.5 7.5 0 0 1 4.46.98 3.29 3.29 0 0 1 1.624 2.913c-.026 1.573-1.083 2.914-2.578 3.378a3.92 3.92 0 0 1 3.145 3.841 4.03 4.03 0 0 1-1.495 3.197c-1.109.98-2.94 1.444-5.775 1.444-1.16 0-2.32-.052-3.48-.206zm2.81 6.162h1.444c1.96 0 3.069-.928 3.069-2.243s-1.11-2.14-2.914-2.14c-.541-.026-1.083.026-1.624.103zm0 7.142c.49.052 1.006.077 1.496.052 1.83 0 3.429-.697 3.429-2.579s-1.573-2.578-3.532-2.578h-1.418v5.105zM54.422 42.174h2.836v10.133c0 4.305-2.088 5.723-5.13 5.723a7.6 7.6 0 0 1-2.398-.412l.335-2.295c.567.18 1.16.284 1.753.284 1.624 0 2.578-.748 2.578-3.43zM65.328 50.605v1.96h-5.904v-1.96zM79.122 57.283a9.74 9.74 0 0 1-4.022.696c-4.95 0-7.941-3.094-7.941-7.812-.233-4.306 3.093-7.993 7.399-8.225.31-.026.619-.026.902 0a8.9 8.9 0 0 1 3.842.696l-.619 2.27a7.3 7.3 0 0 0-3.042-.594c-3.171 0-5.44 1.985-5.44 5.724 0 3.403 2.01 5.62 5.414 5.62a7.9 7.9 0 0 0 3.094-.567zM88.016 35.625v28.696h-6.96v-2.578h3.686V38.178h-3.687V35.6h6.961z"/></svg>