<svg xmlns="http://www.w3.org/2000/svg" width="120" height="120"><g data-name="Group 5008"><path fill="none" d="M0 0h120v120H0z" data-name="Rectangle 1476"/><g data-name="Group 5009"><g data-name="Group 5002"><g fill-rule="evenodd" data-name="Group 4954"><path fill="#364548" d="M78.47 48.495v10.077h4.986a21.6 21.6 0 0 0 6.852-1.149 17.6 17.6 0 0 0 3.331-1.505 12.36 12.36 0 0 1-2.312-6.374c-.285-3.077.336-7.082 2.419-9.49l1.037-1.2 1.235.993c3.11 2.5 5.726 5.99 6.187 9.97a15.07 15.07 0 0 1 11.442 1.064l1.354.781-.712 1.391c-2.792 5.448-8.628 7.136-14.334 6.837-8.539 21.271-27.128 31.339-49.665 31.339-11.644 0-22.327-4.353-28.411-14.684l-.1-.168-.886-1.8a28.6 28.6 0 0 1-2.276-14.51l.14-1.495h8.433V48.495h9.861v-9.862h19.723v-9.861h11.834v19.723" data-name="Path 5638"/><path fill="#22a0c8" d="M100.558 52.225c.661-5.139-3.185-9.175-5.569-11.092-2.749 3.178-3.175 11.506 1.136 15.012-2.407 2.137-7.477 4.075-12.669 4.075H20.258a26.63 26.63 0 0 0 2.62 14.683l.719 1.315a24 24 0 0 0 1.49 2.236q3.9.25 7.186.176a35.2 35.2 0 0 0 10.485-1.528.76.76 0 0 1 .5 1.434c-.354.123-.724.238-1.1.347a33 33 0 0 1-7.248 1.181c.173 0-.179.026-.18.026-.1.006-.223.021-.322.026a66 66 0 0 1-3.635.078c-1.378 0-2.736-.026-4.253-.1l-.039.026c5.266 5.919 13.5 9.469 23.821 9.469 21.843 0 40.371-9.683 48.575-31.421 5.82.6 11.414-.887 13.959-5.855-4.053-2.339-9.265-1.593-12.267-.085" data-name="Path 5639"/><path fill="#37b1d9" d="M100.558 52.225c.661-5.139-3.185-9.175-5.569-11.092-2.749 3.178-3.176 11.506 1.136 15.012-2.407 2.137-7.477 4.075-12.669 4.075H23.997c-.258 8.3 2.822 14.6 8.272 18.41a35.2 35.2 0 0 0 10.486-1.528.76.76 0 0 1 .5 1.434q-.534.184-1.1.347a34.7 34.7 0 0 1-7.441 1.233l-.071-.067c7.434 3.813 18.213 3.8 30.571-.948 13.857-5.324 26.751-15.465 35.748-27.065q-.2.092-.4.188" data-name="Path 5640"/><path fill="#1b81a5" d="M20.372 66.804a25.3 25.3 0 0 0 2.5 8.1l.719 1.315a24 24 0 0 0 1.49 2.236q3.9.25 7.187.176a35.2 35.2 0 0 0 10.485-1.527.76.76 0 0 1 .5 1.434c-.354.123-.724.238-1.1.347a34.7 34.7 0 0 1-7.428 1.207c-.1.006-.273.007-.374.013-1.141.064-2.361.1-3.622.1-1.378 0-2.787-.026-4.3-.1 5.266 5.919 13.551 9.482 23.872 9.482 18.7 0 34.969-7.1 44.412-22.781H20.372" data-name="Path 5641"/><path fill="#1d91b4" d="M24.565 66.804a18.98 18.98 0 0 0 7.7 11.825 35.2 35.2 0 0 0 10.485-1.527.76.76 0 0 1 .5 1.434q-.534.184-1.1.347a35.2 35.2 0 0 1-7.48 1.207c7.433 3.812 18.181 3.758 30.538-.989a80.7 80.7 0 0 0 21.125-12.3H24.565" data-name="Path 5642"/><path fill="#23a3c2" d="M28.833 50.137h8.547v8.547h-8.547Zm.712.712h.674v7.122h-.674Zm1.268 0h.7v7.122h-.7zm1.295 0h.7v7.122h-.7Zm1.3 0h.7v7.122h-.7Zm1.3 0h.7v7.122h-.7Zm1.295 0h.675v7.122h-.685Zm2.7-10.574h8.547v8.547h-8.556v-8.546Zm.712.712h.674v7.122h-.674Zm1.268 0h.7v7.122h-.7zm1.295 0h.7v7.122h-.7Zm1.3 0h.7v7.122h-.7Zm1.3 0h.7v7.122h-.7Zm1.295 0h.675v7.122h-.675Z" data-name="Path 5643"/><path fill="#34bbde" d="M38.694 50.139h8.547v8.547h-8.547zm.712.712h.674v7.122h-.674Zm1.268 0h.7v7.122h-.7zm1.295 0h.7v7.122h-.7Zm1.3 0h.7v7.122h-.7Zm1.3 0h.7v7.122h-.7Zm1.295 0h.675v7.122h-.675Z" data-name="Path 5644"/><path fill="#23a3c2" d="M48.555 50.139h8.547v8.547h-8.547Zm.712.712h.674v7.122h-.674Zm1.268 0h.7v7.122h-.7Zm1.3 0h.7v7.122h-.7Zm1.3 0h.7v7.122h-.7Zm1.295 0h.7v7.122h-.7Zm1.3 0h.674v7.122h-.674Z" data-name="Path 5645"/><path fill="#34bbde" d="M48.555 40.276h8.547v8.547h-8.547Zm.712.712h.674v7.122h-.674Zm1.268 0h.7v7.122h-.7Zm1.3 0h.7v7.122h-.7Zm1.3 0h.7v7.122h-.7Zm1.295 0h.7v7.122h-.7Zm1.3 0h.674v7.122h-.674Zm2.7 9.149h8.532v8.547h-8.547Zm.712.712h.674v7.122h-.674Zm1.268 0h.7v7.122h-.7Zm1.295 0h.7v7.122h-.7Zm1.3 0h.7v7.122h-.7Zm1.3 0h.7v7.122h-.7Zm1.3 0h.674v7.122h-.674Z" data-name="Path 5646"/><path fill="#23a3c2" d="M58.417 40.276h8.547v8.547h-8.547Zm.712.712h.674v7.122h-.674Zm1.268 0h.7v7.122h-.7Zm1.295 0h.7v7.122h-.7Zm1.3 0h.7v7.122h-.7Zm1.3 0h.7v7.122h-.7Zm1.3 0h.674v7.122h-.674Z" data-name="Path 5647"/><path fill="#34bbde" d="M58.417 30.415h8.547v8.548h-8.547Zm.712.712h.674v7.123h-.674zm1.268 0h.7v7.123h-.7zm1.295 0h.7v7.123h-.7zm1.3 0h.7v7.123h-.7zm1.3 0h.7v7.123h-.7zm1.3 0h.674v7.123h-.674z" data-name="Path 5648"/><path fill="#23a3c2" d="M68.278 50.139h8.547v8.547h-8.547Zm.712.712h.675v7.122h-.674zm1.268 0h.7v7.122h-.7zm1.3 0h.7v7.122h-.705Zm1.295 0h.7v7.122h-.7Zm1.3 0h.7v7.122h-.7Zm1.295 0h.674v7.122h-.674Z" data-name="Path 5649"/><path fill="#d3ecec" d="M46.705 72.544a2.358 2.358 0 1 1-2.358 2.358 2.36 2.36 0 0 1 2.358-2.358" data-name="Path 5650"/><path fill="#364548" d="M46.706 73.211a1.7 1.7 0 0 1 .611.114.689.689 0 1 0 .949.927 1.688 1.688 0 1 1-1.56-1.041M5 67.655h109.684c-2.388-.606-7.556-1.424-6.7-4.554-4.343 5.025-14.816 3.526-17.459 1.048-2.943 4.269-20.077 2.646-21.273-.68-3.69 4.33-15.123 4.33-18.813 0-1.2 3.326-18.33 4.948-21.273.679-2.646 2.479-13.119 3.978-17.466-1.049.852 3.13-4.316 3.948-6.7 4.554" data-name="Path 5651"/><path fill="#bdd9d7" d="M52.974 89.534c-5.839-2.771-9.044-6.538-10.828-10.65a36.2 36.2 0 0 1-7.806 1.185q-1.712.1-3.6.1-2.179 0-4.59-.128c5.355 5.352 11.943 9.472 24.141 9.548q1.351 0 2.684-.051" data-name="Path 5652"/><path fill="#d3ecec" d="M44.315 82.678a20.5 20.5 0 0 1-2.168-3.8 36 36 0 0 1-7.807 1.186 24.9 24.9 0 0 0 9.975 2.609" data-name="Path 5653"/></g></g></g></g></svg>