<svg xmlns="http://www.w3.org/2000/svg" width="100" height="100" fill="none"><path fill="#326DE6" d="M75.2 24.277a4.55 4.55 0 0 0-2.236-2.61L51.656 11.36a3.9 3.9 0 0 0-1.746-.355 7.3 7.3 0 0 0-1.747.14l-21.297 10.38a3.7 3.7 0 0 0-1.353 1.056 3.8 3.8 0 0 0-.745 1.555l-5.245 23.227a4.5 4.5 0 0 0 .767 3.39L35.033 69.18a5.06 5.06 0 0 0 3.195 1.486h23.47a3.45 3.45 0 0 0 1.796-.305 3.5 3.5 0 0 0 1.398-1.18L79.63 50.753a4.88 4.88 0 0 0 .836-3.39l-5.324-23.087z"/><path fill="#fff" d="M71.947 46.449c-.07 0-.138 0-.138-.07s-.139-.07-.277-.07a3.4 3.4 0 0 0-.836-.07.9.9 0 0 1-.42-.07h-.06a14 14 0 0 1-2.374-.425.84.84 0 0 1-.49-.495l-.532-.14c.24-2.076.128-4.178-.33-6.216a19.2 19.2 0 0 0-2.444-5.79l.42-.425v-.07c0-.223.076-.44.213-.614a12.5 12.5 0 0 1 1.954-1.41l.42-.21c.278-.14.49-.28.768-.425.069-.07.138-.07.207-.14.07-.07 0-.07 0-.14a1.38 1.38 0 0 0 .555-.928 1.4 1.4 0 0 0-.278-1.047 1.34 1.34 0 0 0-.98-.495c-.355.01-.699.134-.98.355l-.068.07c-.07.07-.139.14-.208.14a4.6 4.6 0 0 0-.532.635c-.07.14-.208.21-.277.28a9.2 9.2 0 0 1-1.747 1.555 1 1 0 0 1-.42.14.42.42 0 0 1-.277-.07h-.07l-.532.355c-.532-.538-1.187-1.13-1.746-1.695a17.8 17.8 0 0 0-9.132-3.697l-.069-.538v.07a.97.97 0 0 1-.351-.538c-.027-.82.018-1.642.133-2.454v-.07c0-.14.07-.28.07-.425.068-.28.068-.539.138-.845v-.425a1.4 1.4 0 0 0-.295-.987 1.38 1.38 0 0 0-.882-.515 1.39 1.39 0 0 0-1.16.538 1.4 1.4 0 0 0-.422.99v.356q.013.41.118.807c.057.134.08.28.069.425v.07c.118.794.164 1.598.138 2.4a.97.97 0 0 1-.351.538v.14l-.07.538c-.766.07-1.538.21-2.374.356a16.6 16.6 0 0 0-8.588 5.005l-.42-.28h-.07c-.07 0-.138.07-.277.07a1 1 0 0 1-.42-.14 13 13 0 0 1-1.747-1.615c-.07-.14-.208-.21-.277-.28-.207-.21-.351-.425-.532-.635-.07-.07-.139-.07-.208-.14l-.069-.07a1.66 1.66 0 0 0-1.006-.37 1.06 1.06 0 0 0-.98.494 1.53 1.53 0 0 0 .277 1.975q.028.001.049.02a.07.07 0 0 1 .02.05s.139.14.208.14q.371.236.766.425l.421.21a10 10 0 0 1 1.96 1.437.71.71 0 0 1 .207.635v-.097l.42.425c-.069.14-.138.21-.207.355a16.9 16.9 0 0 0-2.45 11.598l-.532.14a.07.07 0 0 1-.069.07 1.1 1.1 0 0 1-.49.495c-.776.216-1.571.358-2.374.425a.9.9 0 0 0-.42.07c-.278 0-.533.07-.837.07-.07 0-.138.07-.277.07-.138 0-.069 0-.138.07a1.35 1.35 0 0 0-.895.569 1.38 1.38 0 0 0-.223 1.045c.075.307.258.577.514.759s.57.264.88.231a.62.62 0 0 0 .352-.07c.07 0 .07 0 .07-.07s.207 0 .276 0c.277-.07.533-.21.767-.28a1 1 0 0 1 .42-.14h.07a12.4 12.4 0 0 1 2.305-.634h.07c.197 0 .386.075.532.21q.028 0 .049.02a.07.07 0 0 1 .02.05l.628-.07a17.04 17.04 0 0 0 5.73 8.27 11 11 0 0 0 1.884 1.271l-.351.495a.069.069 0 0 0 .07.07.84.84 0 0 1 .068.705 11.6 11.6 0 0 1-1.118 2.045v.07q-.106.204-.277.355c-.138.14-.277.425-.49.705-.069.07-.069.14-.138.21a.069.069 0 0 1-.07.07 1.47 1.47 0 0 0-.104 1.058c.1.354.327.656.637.847.153.079.32.127.49.14.277-.01.546-.096.78-.246s.424-.36.551-.61a.07.07 0 0 1 .07-.07c0-.07.069-.14.138-.21.069-.28.207-.495.277-.775l.138-.425c.23-.758.536-1.492.91-2.19.127-.197.314-.346.533-.425.07 0 .07 0 .07-.07l.276-.538a16.3 16.3 0 0 0 6.075 1.13c1.273.01 2.541-.158 3.77-.495q1.135-.255 2.236-.635l.277.495c.069 0 .069 0 .069.07.219.08.406.228.532.425.375.698.68 1.431.91 2.19v.07l.14.425c.05.272.143.534.276.775.07.07.07.14.139.21a.069.069 0 0 0 .07.07c.127.246.317.454.55.602.232.149.5.233.775.243.184-.016.364-.063.532-.14a1.17 1.17 0 0 0 .628-.775 1.84 1.84 0 0 0-.069-1.076.07.07 0 0 0-.07-.07c0-.07-.068-.14-.137-.21a2.5 2.5 0 0 0-.49-.705 1.2 1.2 0 0 0-.277-.355v-.14a8.4 8.4 0 0 1-1.118-2.045.84.84 0 0 1 .069-.705.07.07 0 0 1 .07-.07l-.209-.538a17.42 17.42 0 0 0 7.545-9.6l.532.07a.07.07 0 0 0 .07-.07.8.8 0 0 1 .532-.21h.25c.765.136 1.514.349 2.237.634h.069a1 1 0 0 0 .42.14q.365.223.767.355c.07 0 .139.07.277.07.139 0 .07 0 .139.07.107.058.23.082.35.07.305-.005.6-.102.849-.278s.44-.425.547-.712a1.67 1.67 0 0 0-.39-.949 1.64 1.64 0 0 0-.867-.536zm-20.19-2.19-1.885.92-1.885-.92-.49-2.04 1.326-1.695h2.098l1.326 1.695zm11.384-4.59a13.7 13.7 0 0 1 .276 4.45l-6.628-1.9a1.14 1.14 0 0 1-.71-.529 1.17 1.17 0 0 1-.126-.881 1.14 1.14 0 0 1 .276-.495l5.24-4.8a14.5 14.5 0 0 1 1.677 4.154zm-3.77-6.776-5.73 4.095a1.176 1.176 0 0 1-1.527-.285.64.64 0 0 1-.208-.495l-.42-7.13a13.1 13.1 0 0 1 7.89 3.81zm-12.64-3.59 1.395-.28-.352 7.061a1.18 1.18 0 0 1-.365.81 1.16 1.16 0 0 1-.822.32 1.6 1.6 0 0 1-.532-.14l-5.825-4.181a13.83 13.83 0 0 1 6.5-3.59m-8.52 6.216 5.17 4.66a1.13 1.13 0 0 1 .405.778 1.15 1.15 0 0 1-.266.837.8.8 0 0 1-.532.355l-6.805 1.97a15 15 0 0 1 2.024-8.616zm-1.192 11.92 6.922-1.2c.274-.016.545.068.763.237s.368.411.424.683a.84.84 0 0 1-.069.705l-2.662 6.496a13.87 13.87 0 0 1-5.378-6.921m15.856 8.772c-.985.227-1.992.346-3.003.355a15.5 15.5 0 0 1-4.403-.705l3.45-6.307a1.055 1.055 0 0 1 1.395-.28q.292.22.533.495l3.354 6.14q-.672.111-1.326.302m8.52-6.14a13.4 13.4 0 0 1-4.191 4.235l-2.726-6.636a1.16 1.16 0 0 1 .07-.786 1.14 1.14 0 0 1 .558-.554c.2-.08.413-.127.628-.14l6.986 1.2c-.314.945-.759 1.84-1.32 2.66z"/><path fill="#000" d="M94.906 86.665a2.5 2.5 0 0 0 1.064-.156.57.57 0 0 0 .304-.538.65.65 0 0 0-.405-.538 5.5 5.5 0 0 0-1.246-.539q-.6-.23-1.166-.538a3.5 3.5 0 0 1-.889-.613 2.4 2.4 0 0 1-.532-.872 3.3 3.3 0 0 1-.203-1.205c-.01-.42.076-.835.253-1.215.176-.379.438-.711.764-.97a4.34 4.34 0 0 1 2.769-.797 7.7 7.7 0 0 1 1.704.178q.66.112 1.294.334l-.485 2.184c-.357-.129-.687-.204-1.065-.306a5.1 5.1 0 0 0-1.246-.13c-.862 0-1.293.232-1.293.722q.008.157.053.306a.7.7 0 0 0 .229.259q.21.14.431.258.353.187.735.307.764.27 1.475.667c.352.173.664.418.915.721.229.237.395.527.485.845.1.35.153.712.154 1.076.026.433-.061.864-.253 1.251-.191.388-.48.717-.838.956-.92.546-1.98.805-3.046.743a7.6 7.6 0 0 1-2.161-.232 15 15 0 0 1-1.166-.36l.458-2.26q.692.275 1.421.435c.532 0 .99.075 1.496.075m-13.998-2.825a6.2 6.2 0 0 1 .384-2.26 4.85 4.85 0 0 1 1.065-1.641 4 4 0 0 1 1.475-.974 4.5 4.5 0 0 1 1.725-.334 4.2 4.2 0 0 1 1.763.29c.56.222 1.068.561 1.49.996.788.845 1.193 2.104 1.193 3.767q.016.27 0 .538v.538H83.73a1.86 1.86 0 0 0 .788 1.362 3.26 3.26 0 0 0 1.88.538 9.5 9.5 0 0 0 1.474-.129 5 5 0 0 0 1.193-.387l.383 2.26q-.284.139-.586.231a5 5 0 0 1-.835.178c-.304.053-.608.102-.964.156-.357.054-.687.054-1.065.054a5.8 5.8 0 0 1-2.284-.388 4.1 4.1 0 0 1-1.585-1.042 4.16 4.16 0 0 1-.955-1.649 8.3 8.3 0 0 1-.277-2.055m6.427-1.077a2.2 2.2 0 0 0-.128-.694 1.6 1.6 0 0 0-.304-.592 1.7 1.7 0 0 0-.532-.436 1.82 1.82 0 0 0-1.597 0c-.202.1-.383.24-.533.41-.157.178-.278.387-.356.613a3.4 3.4 0 0 0-.155.694h3.605M73.48 76.489l2.742-.436v2.873h3.302v2.31h-3.302v3.438c-.03.482.075.964.304 1.388a1.335 1.335 0 0 0 1.246.538 5 5 0 0 0 1.752-.306l.383 2.152a8 8 0 0 1-1.118.36 7.2 7.2 0 0 1-1.496.157 4.55 4.55 0 0 1-1.853-.307 3 3 0 0 1-1.166-.845c-.301-.395-.517-.85-.634-1.334a6.6 6.6 0 0 1-.154-1.722v-8.336m-11.102 7.42a6.2 6.2 0 0 1 .384-2.26 4.85 4.85 0 0 1 1.065-1.64 4 4 0 0 1 1.475-.975 4.5 4.5 0 0 1 1.725-.334 4.2 4.2 0 0 1 1.722.293 4.3 4.3 0 0 1 1.462.967c.788.845 1.192 2.104 1.192 3.767a4 4 0 0 1 0 .538q-.018.27 0 .538h-6.245a1.86 1.86 0 0 0 .788 1.362 3.25 3.25 0 0 0 1.88.538 9.5 9.5 0 0 0 1.474-.13 5.6 5.6 0 0 0 1.22-.387l.383 2.26q-.285.14-.586.232a5 5 0 0 1-.836.177c-.303.054-.607.103-.964.157-.356.053-.686.053-1.064.053a5.8 5.8 0 0 1-2.285-.387 4.1 4.1 0 0 1-1.584-1.042 4.16 4.16 0 0 1-.955-1.649 6.5 6.5 0 0 1-.277-2.056m6.426-1.076a2.2 2.2 0 0 0-.128-.694 1.6 1.6 0 0 0-.303-.592 1.7 1.7 0 0 0-.532-.436 1.82 1.82 0 0 0-1.598 0 1.7 1.7 0 0 0-.532.409c-.157.18-.278.388-.357.613a3.4 3.4 0 0 0-.154.695h3.583m-16.809-3.59c.586-.156 1.193-.28 1.805-.387a14 14 0 0 1 2.31-.178 5.5 5.5 0 0 1 2.035.334c.504.173.952.484 1.294.898.327.414.562.895.686 1.41a7.3 7.3 0 0 1 .203 1.825v5.521H57.57v-5.16a3.84 3.84 0 0 0-.356-1.9 1.43 1.43 0 0 0-1.294-.539 6 6 0 0 0-.634 0q-.295.005-.586.054v7.534h-2.747zm-1.933 2.153c-.255-.054-.532-.13-.862-.178a5 5 0 0 0-1.065-.102 5.8 5.8 0 0 0-1.166.156v7.47H44.18v-9.337q.846-.304 1.725-.49a8.3 8.3 0 0 1 2.236-.232h.532q.322.003.634.076c.202 0 .404.054.633.102q.277.042.533.156l-.458 2.309M32.978 83.79a6.2 6.2 0 0 1 .383-2.26 4.85 4.85 0 0 1 1.065-1.641 4 4 0 0 1 1.475-.974 4.5 4.5 0 0 1 1.725-.334 4.2 4.2 0 0 1 1.752.306 4.3 4.3 0 0 1 1.475 1.002c.788.845 1.192 2.104 1.192 3.724q.018.269 0 .538t0 .538h-6.272a1.86 1.86 0 0 0 .788 1.362 3.25 3.25 0 0 0 1.88.538 9.5 9.5 0 0 0 1.475-.13 6.4 6.4 0 0 0 1.192-.36l.384 2.26q-.285.14-.586.232a5 5 0 0 1-.836.177 37 37 0 0 1-.964.156c-.356.054-.687.054-1.065.054a5.8 5.8 0 0 1-2.284-.387 4.1 4.1 0 0 1-1.584-1.042 4.16 4.16 0 0 1-.955-1.65 9.5 9.5 0 0 1-.256-2.055m6.453-1.076a2.2 2.2 0 0 0-.128-.694 1.6 1.6 0 0 0-.303-.592 1.75 1.75 0 0 0-.532-.436 1.82 1.82 0 0 0-1.598 0c-.202.1-.382.24-.532.409-.157.179-.279.387-.357.613a3.4 3.4 0 0 0-.154.694h3.604m-10.899.9c0-1.798-.66-2.692-1.954-2.692a3.1 3.1 0 0 0-.836.103c-.234.055-.457.15-.66.28v5.031c.128 0 .304.054.533.076q.343.02.686 0a1.92 1.92 0 0 0 1.704-.77 3.7 3.7 0 0 0 .533-2.077m2.795.102c.01.733-.11 1.463-.357 2.153-.2.603-.53 1.154-.964 1.614A4.6 4.6 0 0 1 28.4 88.56a6 6 0 0 1-2.13.36c-.33 0-.686 0-1.064-.053-.378-.054-.714-.075-1.065-.102-.352-.027-.66-.102-.99-.178a3.3 3.3 0 0 1-.837-.231V74.648l2.742-.436v4.876a6 6 0 0 1 .964-.307c.35-.072.708-.106 1.065-.102.63-.013 1.255.12 1.826.387.53.228 1.001.578 1.374 1.023a4.4 4.4 0 0 1 .815 1.614c.155.681.232 1.379.229 2.078M19.747 88.3q-.89.24-1.805.36c-.764.123-1.537.183-2.31.178a5.6 5.6 0 0 1-2.056-.334 3.35 3.35 0 0 1-1.294-.925 3.9 3.9 0 0 1-.687-1.464 7.5 7.5 0 0 1-.202-1.846v-5.413h2.742v5.106a3.95 3.95 0 0 0 .357 1.927 1.377 1.377 0 0 0 1.294.592q.316.018.633 0 .296-.014.586-.075v-7.534h2.742v9.45m-16-5.92c.277-.307.533-.614.836-.926.304-.312.533-.64.836-.952.304-.312.533-.614.762-.899s.457-.538.633-.743h3.237c-.66.743-1.293 1.491-1.906 2.185a49 49 0 0 1-2.034 2.153q.611.565 1.145 1.205c.383.463.761.926 1.145 1.437.383.511.713 1.001 1.017 1.49s.532.953.761 1.362H7.043c-.202-.333-.431-.667-.687-1.076-.255-.409-.532-.77-.788-1.178q-.425-.593-.915-1.13a6 6 0 0 0-.916-.9v4.306H1V74.648l2.742-.436v8.19"/></svg>