<svg width="100" height="100" viewBox="0 0 100 100" fill="none" xmlns="http://www.w3.org/2000/svg">
<path d="M75.2001 24.2769C74.8212 23.1447 74.0184 22.2077 72.9639 21.6669L51.6558 11.3612C51.1085 11.1085 50.5109 10.987 49.9095 11.006C49.3239 10.9824 48.7376 11.0293 48.1631 11.1459L26.8657 21.5269C26.3399 21.768 25.8767 22.1293 25.5126 22.5822C25.1486 23.0352 24.8936 23.5674 24.7679 24.137L19.5234 47.3637C19.4198 47.9519 19.4343 48.5552 19.566 49.1376C19.6977 49.72 19.9439 50.2698 20.2901 50.7541L35.0332 69.1804C35.8894 70.0438 37.0221 70.5704 38.2278 70.6657H61.6976C62.3126 70.727 62.9326 70.6216 63.494 70.3606C64.0554 70.0996 64.538 69.6923 64.8922 69.1804L79.63 50.7541C80.3163 49.7684 80.6143 48.5596 80.4659 47.3637L75.1416 24.2769H75.2001Z" fill="#326DE6"/>
<path d="M71.947 46.4488C71.8778 46.4488 71.8086 46.4488 71.8086 46.3789C71.8086 46.3089 71.6701 46.3089 71.5317 46.3089C71.257 46.2508 70.9762 46.2273 70.6958 46.239C70.552 46.2507 70.4076 46.2266 70.2751 46.169H70.2166C69.4145 46.096 68.62 45.9538 67.8419 45.7439C67.7302 45.7012 67.6287 45.635 67.5442 45.5496C67.4598 45.4643 67.3943 45.3617 67.3521 45.2487L66.8196 45.1088C67.0593 43.033 66.9477 40.9311 66.4895 38.8932C65.9969 36.8398 65.1711 34.8831 64.0457 33.1026L64.4663 32.6775V32.6075C64.4665 32.3845 64.5416 32.1683 64.6792 31.994C65.2844 31.4618 65.9387 30.9897 66.6333 30.5841L67.0539 30.3742C67.3308 30.2343 67.5438 30.0943 67.8206 29.949C67.8898 29.8791 67.959 29.8791 68.0283 29.8091C68.0975 29.7392 68.0283 29.7392 68.0283 29.6692C68.1778 29.5603 68.304 29.4219 68.3993 29.2625C68.4946 29.103 68.5571 28.9257 68.5829 28.7413C68.6088 28.5568 68.5975 28.369 68.5498 28.1891C68.502 28.0091 68.4188 27.8408 68.3051 27.6942C68.1857 27.5464 68.0366 27.4259 67.8678 27.3405C67.6989 27.2552 67.5141 27.207 67.3255 27.1991C66.9697 27.2087 66.6264 27.3332 66.3458 27.5543L66.2766 27.6242C66.2073 27.6942 66.1381 27.7641 66.0689 27.7641C65.8727 27.959 65.6945 28.1715 65.5365 28.3992C65.4673 28.5391 65.3288 28.609 65.2596 28.679C64.7451 29.2702 64.1582 29.7928 63.5132 30.2343C63.3853 30.3124 63.2415 30.3602 63.0926 30.3742C62.9951 30.3842 62.8971 30.3594 62.8157 30.3042H62.7465L62.2141 30.6594C61.6816 30.1212 61.0267 29.5293 60.4677 28.9642C57.8252 26.8942 54.662 25.6134 51.3364 25.2671L51.2672 24.7289V24.7989C51.0927 24.6653 50.9687 24.4754 50.9158 24.2608C50.8894 23.4404 50.934 22.6193 51.0489 21.8068V21.7368C51.0489 21.5969 51.1181 21.457 51.1181 21.3117C51.1873 21.0318 51.1873 20.7735 51.2566 20.4668V20.0416C51.2861 19.6871 51.1808 19.3344 50.9622 19.0555C50.7437 18.7766 50.4281 18.5923 50.0799 18.5402C49.8581 18.5304 49.6371 18.5742 49.4353 18.6677C49.2335 18.7613 49.0566 18.902 48.9192 19.0783C48.7875 19.2069 48.6826 19.3607 48.6104 19.5307C48.5381 19.7007 48.5001 19.8835 48.4985 20.0685V20.4237C48.5067 20.6965 48.546 20.9673 48.6157 21.2309C48.6727 21.3648 48.6965 21.5108 48.6849 21.6561V21.726C48.8026 22.5202 48.849 23.3236 48.8233 24.1262C48.7704 24.3409 48.6464 24.5308 48.4719 24.6644V24.8043L48.4027 25.3424C47.636 25.4124 46.864 25.5523 46.028 25.6976C42.7289 26.4458 39.7334 28.1915 37.4399 30.7025L37.0192 30.4226H36.95C36.8808 30.4226 36.8116 30.4926 36.6732 30.4926C36.5243 30.4786 36.3805 30.4308 36.2525 30.3527C35.6226 29.8698 35.038 29.3294 34.5062 28.7382C34.4369 28.5983 34.2985 28.5283 34.2293 28.4584C34.0216 28.2485 33.8779 28.0332 33.6969 27.8233C33.6276 27.7534 33.5584 27.7534 33.4892 27.6834L33.42 27.6135C33.1341 27.3811 32.7804 27.2506 32.4137 27.2421C32.2213 27.2272 32.0286 27.2654 31.856 27.3526C31.6835 27.4398 31.5376 27.5727 31.434 27.7372C31.2363 28.0447 31.1554 28.4141 31.2063 28.7772C31.2572 29.1402 31.4364 29.4724 31.7109 29.7123C31.7292 29.7123 31.7468 29.7196 31.7598 29.7327C31.7728 29.7459 31.7801 29.7637 31.7801 29.7822C31.7801 29.7822 31.9185 29.9221 31.9877 29.9221C32.235 30.0786 32.491 30.2205 32.7544 30.3473L33.1751 30.5572C33.8838 30.9535 34.5418 31.436 35.1344 31.994C35.218 32.0745 35.2806 32.1745 35.3168 32.2853C35.353 32.396 35.3617 32.5141 35.3421 32.629V32.5322L35.7627 32.9573C35.6935 33.0972 35.6243 33.1672 35.5551 33.3125C33.368 36.7475 32.497 40.8715 33.1058 44.9097L32.5734 45.0496C32.5734 45.0682 32.5661 45.086 32.5531 45.0991C32.5402 45.1122 32.5226 45.1196 32.5042 45.1196C32.3978 45.3335 32.226 45.5072 32.0144 45.6147C31.2376 45.8306 30.4426 45.9729 29.6397 46.0398C29.4959 46.0281 29.3515 46.0521 29.2191 46.1098C28.9422 46.1098 28.6866 46.1798 28.3832 46.1798C28.3139 46.1798 28.2447 46.2497 28.1063 46.2497C27.9679 46.2497 28.0371 46.2497 27.9679 46.3197C27.7886 46.3495 27.6171 46.4152 27.4633 46.513C27.3096 46.6108 27.1767 46.7386 27.0726 46.889C26.9684 47.0394 26.895 47.2094 26.8568 47.3888C26.8185 47.5683 26.8161 47.7537 26.8497 47.9341C26.9251 48.2414 27.1078 48.5109 27.3641 48.6928C27.6204 48.8748 27.9332 48.957 28.2447 48.9243C28.3661 48.936 28.4882 48.9117 28.5961 48.8544C28.6653 48.8544 28.6653 48.8544 28.6653 48.7844C28.6653 48.7145 28.873 48.7844 28.9422 48.7844C29.2191 48.7145 29.4746 48.5745 29.7089 48.5046C29.8369 48.4264 29.9807 48.3786 30.1295 48.3647H30.1988C30.9453 48.0788 31.7174 47.8661 32.5042 47.7296H32.5734C32.7705 47.7303 32.9603 47.8051 33.1058 47.9395C33.1242 47.9395 33.1418 47.9469 33.1548 47.96C33.1678 47.9731 33.1751 47.9909 33.1751 48.0095L33.8033 47.9395C34.8426 51.2182 36.8399 54.102 39.5323 56.2109C40.116 56.6983 40.7476 57.1238 41.4172 57.481L41.0658 57.9761C41.0658 57.9946 41.073 58.0124 41.086 58.0256C41.099 58.0387 41.1166 58.046 41.135 58.046C41.197 58.1512 41.2353 58.2689 41.2473 58.3907C41.2593 58.5126 41.2445 58.6356 41.2042 58.751C40.9006 59.469 40.526 60.1542 40.0861 60.796V60.866C40.0161 61.0005 39.9223 61.1209 39.8092 61.2211C39.6708 61.3611 39.5323 61.6463 39.3194 61.9261C39.2502 61.9961 39.2502 62.0661 39.1809 62.136C39.1809 62.1546 39.1736 62.1724 39.1607 62.1855C39.1477 62.1986 39.1301 62.206 39.1117 62.206C38.9458 62.5327 38.9085 62.9109 39.0073 63.2643C39.1061 63.6178 39.3336 63.9203 39.6442 64.111C39.7967 64.19 39.9632 64.2376 40.134 64.251C40.4109 64.2402 40.6801 64.1553 40.914 64.005C41.1478 63.8547 41.338 63.6442 41.4651 63.3953C41.4651 63.3767 41.4724 63.3589 41.4854 63.3458C41.4983 63.3327 41.5159 63.3253 41.5343 63.3253C41.5343 63.2554 41.6035 63.1854 41.6727 63.1155C41.7419 62.8356 41.8804 62.6203 41.9496 62.3405L42.088 61.9154C42.3188 61.1565 42.6238 60.4228 42.9985 59.7251C43.1254 59.5285 43.3123 59.3792 43.5309 59.2999C43.6001 59.2999 43.6001 59.2999 43.6001 59.23L43.877 58.6918C45.8132 59.4531 47.8746 59.8366 49.9521 59.8219C51.2251 59.8311 52.4933 59.6645 53.7217 59.3268C54.4782 59.1573 55.2248 58.9453 55.958 58.6918L56.2348 59.1869C56.304 59.1869 56.304 59.1869 56.304 59.2569C56.5226 59.3361 56.7096 59.4854 56.8365 59.682C57.2112 60.3797 57.5162 61.1135 57.7469 61.8723V61.9423L57.8854 62.3674C57.9351 62.6393 58.0287 62.9011 58.1622 63.1424C58.2315 63.2123 58.2315 63.2823 58.3007 63.3522C58.3007 63.3708 58.308 63.3886 58.3209 63.4017C58.3339 63.4148 58.3515 63.4222 58.3699 63.4222C58.4979 63.6684 58.6879 63.8761 58.9206 64.0244C59.1534 64.1728 59.4207 64.2565 59.6957 64.2671C59.8796 64.251 60.0596 64.2037 60.2281 64.1272C60.3825 64.0523 60.5188 63.9441 60.6273 63.8102C60.7359 63.6763 60.8141 63.52 60.8564 63.3522C60.9415 62.9946 60.9174 62.6194 60.7872 62.2759C60.7872 62.2574 60.7799 62.2396 60.7669 62.2265C60.7539 62.2133 60.7363 62.206 60.7179 62.206C60.7179 62.136 60.6487 62.0661 60.5795 61.9961C60.4572 61.7346 60.2915 61.4961 60.0897 61.2911C60.0197 61.1565 59.9259 61.0361 59.8128 60.9359V60.796C59.347 60.1707 58.9706 59.4823 58.6947 58.751C58.6543 58.6356 58.6396 58.5126 58.6516 58.3907C58.6635 58.2689 58.7019 58.1512 58.7639 58.046C58.7639 58.0275 58.7712 58.0097 58.7842 57.9966C58.7971 57.9835 58.8148 57.9761 58.8331 57.9761L58.6255 57.4379C62.2063 55.2653 64.8867 51.8544 66.1701 47.8373L66.7025 47.9072C66.7209 47.9072 66.7385 47.8999 66.7514 47.8867C66.7644 47.8736 66.7717 47.8558 66.7717 47.8373C66.9172 47.7029 67.107 47.6281 67.3042 47.6274H67.5544C68.3187 47.7639 69.0678 47.9766 69.7906 48.2624H69.8598C69.9878 48.3405 70.1316 48.3884 70.2805 48.4023C70.5219 48.5497 70.7791 48.6688 71.0472 48.7575C71.1164 48.7575 71.1856 48.8275 71.324 48.8275C71.4625 48.8275 71.3933 48.8275 71.4625 48.8974C71.5704 48.9547 71.6925 48.979 71.8139 48.9674C72.1178 48.9625 72.4132 48.8655 72.6619 48.689C72.9107 48.5124 73.1012 48.2645 73.2089 47.9772C73.1813 47.6272 73.045 47.2951 72.8192 47.0283C72.5935 46.7615 72.2901 46.5737 71.9523 46.4919L71.947 46.4488ZM51.7571 44.2585L49.8722 45.1788L47.9874 44.2585L47.4976 42.2189L48.8233 40.5238H50.9211L52.2469 42.2189L51.7571 44.2585ZM63.1405 39.6681C63.4759 41.1259 63.5695 42.6299 63.4174 44.1186L56.7886 42.2189C56.6417 42.1825 56.5035 42.117 56.3818 42.0262C56.2602 41.9354 56.1575 41.8212 56.0798 41.6901C56.0021 41.559 55.9508 41.4136 55.929 41.2624C55.9072 41.1112 55.9152 40.9571 55.9526 40.809C56.0019 40.6229 56.0972 40.4525 56.2295 40.3139L61.4687 35.5135C62.2396 36.801 62.8056 38.203 63.1458 39.6681H63.1405ZM59.3709 32.8927L53.6419 36.9881C53.3958 37.1341 53.1059 37.1856 52.8253 37.1332C52.5446 37.0809 52.2921 36.9281 52.1138 36.7029C52.0457 36.6405 51.9919 36.5639 51.9561 36.4784C51.9202 36.3929 51.9032 36.3006 51.9061 36.2078L51.4855 29.0772C54.4689 29.3999 57.2532 30.7444 59.3762 32.8874L59.3709 32.8927ZM46.7309 29.3033L48.1258 29.0234L47.7744 36.084C47.762 36.3919 47.6307 36.6825 47.4088 36.8938C47.1868 37.105 46.8919 37.22 46.5871 37.2141C46.4031 37.198 46.2231 37.1507 46.0547 37.0742L40.2298 32.8927C42.0348 31.1226 44.282 29.8819 46.7309 29.3033ZM38.2119 35.5189L43.3818 40.1793C43.497 40.2753 43.5921 40.3936 43.6615 40.5271C43.7309 40.6607 43.7733 40.8069 43.7862 40.9572C43.7991 41.1075 43.7822 41.2589 43.7365 41.4026C43.6909 41.5462 43.6174 41.6792 43.5203 41.7938C43.4609 41.8872 43.3829 41.9671 43.2912 42.0283C43.1995 42.0895 43.0962 42.1306 42.9878 42.149L36.1833 44.1186C35.976 41.1056 36.6818 38.1003 38.2066 35.5028L38.2119 35.5189ZM37.0192 47.439L43.9409 46.239C44.2151 46.2228 44.4859 46.3069 44.7039 46.4759C44.9219 46.6448 45.0725 46.8873 45.1282 47.1592C45.1686 47.2746 45.1833 47.3976 45.1714 47.5195C45.1594 47.6413 45.121 47.759 45.059 47.8642L42.3968 54.3597C39.9096 52.7029 38.0223 50.274 37.0192 47.439ZM52.8752 56.2109C51.8896 56.4375 50.8829 56.5566 49.8722 56.5661C48.3787 56.5447 46.8959 56.3073 45.469 55.8611L48.9192 49.554C49.0767 49.3418 49.3062 49.1958 49.5637 49.1442C49.8211 49.0925 50.0884 49.1388 50.3142 49.2741C50.5081 49.4201 50.6865 49.586 50.8466 49.7692L54.2009 55.9096C53.7534 55.9832 53.3107 56.0838 52.8752 56.2109ZM61.3941 50.0706C60.3293 51.7821 58.8972 53.2296 57.2039 54.3059L54.4778 47.6704C54.4085 47.4081 54.4336 47.1293 54.5487 46.8839C54.6637 46.6385 54.8613 46.4424 55.1061 46.3304C55.3068 46.2505 55.5189 46.2033 55.7343 46.1905L62.7199 47.3906C62.4055 48.3351 61.961 49.23 61.3995 50.0491L61.3941 50.0706Z" fill="white"/>
<path d="M94.9056 86.6651C95.2675 86.6907 95.6306 86.6375 95.9704 86.509C96.0669 86.4584 96.1469 86.3807 96.2007 86.2852C96.2546 86.1897 96.28 86.0806 96.2739 85.9708C96.2617 85.8523 96.2175 85.7394 96.1461 85.6445C96.0748 85.5496 95.979 85.4764 95.8693 85.4327C95.4776 85.202 95.0591 85.0212 94.6234 84.8945C94.2238 84.7403 93.8343 84.5606 93.4573 84.3564C93.1311 84.2 92.8311 83.993 92.5682 83.7429C92.3316 83.4937 92.1501 83.1965 92.0357 82.8711C91.893 82.4859 91.8243 82.0768 91.8334 81.6656C91.8228 81.2465 91.9092 80.8307 92.0858 80.4514C92.2624 80.0721 92.5242 79.7397 92.8504 79.4807C93.658 78.9073 94.6337 78.6266 95.619 78.6842C96.1917 78.6796 96.7631 78.7392 97.3228 78.8618C97.7625 78.9368 98.1952 79.0484 98.6166 79.1955L98.1321 81.3804C97.7754 81.2512 97.4453 81.1759 97.0673 81.0736C96.6587 80.9798 96.2403 80.9365 95.8214 80.9445C94.9588 80.9445 94.5275 81.1759 94.5275 81.6656C94.5329 81.7697 94.5508 81.8727 94.5808 81.9724C94.6353 82.0759 94.7139 82.1645 94.8097 82.2307C94.9491 82.3241 95.093 82.4103 95.241 82.489C95.4761 82.6139 95.722 82.7165 95.9758 82.7957C96.485 82.976 96.9783 83.1993 97.4506 83.463C97.8027 83.6356 98.1148 83.8813 98.3664 84.1842C98.5948 84.4208 98.7613 84.7112 98.8509 85.0291C98.9518 85.3788 99.0038 85.7411 99.0053 86.1054C99.0312 86.5377 98.9439 86.9692 98.7523 87.3565C98.5607 87.7439 98.2715 88.0734 97.9138 88.3118C96.9936 88.8582 95.9338 89.1166 94.8683 89.0545C94.1405 89.0808 93.4128 89.0029 92.7066 88.8231C92.302 88.7208 91.9186 88.5916 91.5406 88.4625L91.9985 86.2022C92.4599 86.3861 92.9353 86.5319 93.4201 86.6381C93.9525 86.6381 94.4104 86.7135 94.9162 86.7135M80.9185 83.8882C80.9051 83.1172 81.0351 82.3504 81.3019 81.6279C81.5423 81.0131 81.9047 80.4545 82.3667 79.9866C82.7809 79.5555 83.2847 79.2228 83.8416 79.0125C84.3896 78.7888 84.9756 78.6754 85.5667 78.6789C86.1681 78.6487 86.7689 78.7477 87.3297 78.9694C87.8904 79.1911 88.3983 79.5304 88.8198 79.965C89.6078 80.8099 90.0125 82.0692 90.0125 83.7321C90.024 83.9113 90.024 84.0911 90.0125 84.2703C90.0125 84.4748 90.0125 84.6308 90.0125 84.8084H83.7298C83.7534 85.0801 83.8364 85.3431 83.9726 85.5786C84.1089 85.814 84.2951 86.016 84.5178 86.17C85.0756 86.5381 85.7312 86.7258 86.3973 86.7081C86.8914 86.7034 87.3845 86.6602 87.8721 86.579C88.2841 86.5006 88.6847 86.3704 89.0648 86.1915L89.4481 88.4517C89.2592 88.5443 89.0634 88.6217 88.8624 88.6831C88.5894 88.7666 88.3097 88.8261 88.0265 88.8607C87.723 88.9145 87.4195 88.963 87.0628 89.0168C86.7061 89.0706 86.376 89.0706 85.9979 89.0706C85.2186 89.0964 84.4421 88.9647 83.7138 88.6831C83.1125 88.4653 82.5699 88.1086 82.129 87.6414C81.6881 87.1743 81.3611 86.6097 81.1741 85.9924C80.9965 85.3216 80.9034 84.6309 80.8972 83.9366M87.3237 82.8603C87.3183 82.6235 87.2752 82.389 87.1959 82.1661C87.1366 81.9496 87.0332 81.748 86.8924 81.5741C86.7453 81.3946 86.5643 81.2464 86.36 81.1382C86.111 81.0163 85.838 80.953 85.5613 80.953C85.2847 80.953 85.0116 81.0163 84.7627 81.1382C84.5609 81.2388 84.3802 81.3777 84.2303 81.5472C84.0732 81.7265 83.9521 81.9348 83.8735 82.1607C83.7979 82.386 83.7461 82.6187 83.7191 82.8549H87.3237M73.4804 76.4886L76.2224 76.0527V78.9264H79.5235V81.2351H76.2224V84.6739C76.1922 85.1564 76.2974 85.6376 76.5259 86.0623C76.668 86.2553 76.8582 86.4067 77.077 86.5013C77.2959 86.5958 77.5356 86.63 77.7718 86.6005C78.0698 86.602 78.3674 86.5768 78.661 86.5251C78.955 86.4753 79.2438 86.3978 79.5235 86.2937L79.9069 88.4463C79.5432 88.5934 79.1695 88.7139 78.7888 88.8069C78.2967 88.9108 77.7953 88.963 77.2926 88.963C76.6607 88.9907 76.0299 88.8863 75.4397 88.6562C74.9891 88.4741 74.589 88.1842 74.2737 87.8113C73.9728 87.4159 73.757 86.9614 73.6401 86.4767C73.5131 85.9122 73.4611 85.333 73.4857 84.7546V76.4186M62.3844 83.8398C62.371 83.0687 62.5011 82.302 62.7678 81.5795C63.0082 80.9647 63.3706 80.4061 63.8327 79.9381C64.2469 79.5071 64.7506 79.1744 65.3075 78.9641C65.8555 78.7403 66.4416 78.627 67.0326 78.6304C67.6206 78.6066 68.2071 78.7063 68.7551 78.923C69.3031 79.1397 69.8007 79.4689 70.2166 79.8897C71.0046 80.7346 71.4092 81.9939 71.4092 83.6568C71.4207 83.836 71.4207 84.0157 71.4092 84.1949C71.3966 84.3741 71.3966 84.5539 71.4092 84.7331H65.1637C65.1874 85.0048 65.2704 85.2678 65.4066 85.5032C65.5429 85.7386 65.729 85.9406 65.9518 86.0946C66.5096 86.4628 67.1652 86.6505 67.8312 86.6328C68.3254 86.6281 68.8185 86.5849 69.3061 86.5036C69.7258 86.4217 70.1348 86.2917 70.5254 86.1161L70.9087 88.3764C70.7198 88.469 70.524 88.5463 70.323 88.6078C70.05 88.6913 69.7703 88.7507 69.4871 88.7854C69.1836 88.8392 68.8801 88.8876 68.5234 88.9415C68.1667 88.9953 67.8366 88.9953 67.4585 88.9953C66.6792 89.0211 65.9027 88.8893 65.1744 88.6078C64.5731 88.3899 64.0305 88.0332 63.5896 87.5661C63.1487 87.099 62.8217 86.5343 62.6347 85.917C62.4323 85.2516 62.3387 84.5572 62.3578 83.8613M68.7843 82.785C68.779 82.5481 68.7358 82.3137 68.6565 82.0908C68.5972 81.8742 68.4938 81.6726 68.353 81.4988C68.2059 81.3193 68.0249 81.1711 67.8206 81.0629C67.5716 80.941 67.2986 80.8776 67.0219 80.8776C66.7453 80.8776 66.4723 80.941 66.2233 81.0629C66.0201 81.1612 65.839 81.3004 65.6909 81.4719C65.5338 81.6511 65.4127 81.8595 65.3341 82.0854C65.2585 82.3106 65.2068 82.5433 65.1797 82.7796H68.763M51.954 79.1901C52.5397 79.034 53.1467 78.9103 53.759 78.8026C54.5232 78.6798 55.296 78.6204 56.0698 78.625C56.7623 78.6079 57.452 78.7211 58.1037 78.9587C58.6084 79.1324 59.0561 79.4434 59.3975 79.8574C59.7255 80.2711 59.9599 80.7524 60.0843 81.2674C60.2283 81.8643 60.2963 82.4774 60.2866 83.0917V88.6132H57.5712V83.4523C57.6161 82.7986 57.4933 82.1442 57.2145 81.5526C57.0624 81.3586 56.8635 81.2072 56.637 81.113C56.4105 81.0188 56.1639 80.9848 55.9207 81.0144C55.7097 81.0022 55.4981 81.0022 55.2871 81.0144C55.0908 81.0173 54.895 81.0353 54.7014 81.0683V88.6024H51.954V79.1901ZM50.0213 81.3427C49.7657 81.2889 49.4889 81.2136 49.1587 81.1651C48.8084 81.0931 48.4514 81.0588 48.0939 81.0629C47.8819 81.0691 47.6704 81.0871 47.4603 81.1167C47.2807 81.1384 47.1028 81.1726 46.9278 81.2189V88.6885H44.1805V79.3516C44.744 79.1495 45.3204 78.9859 45.9056 78.8618C46.6373 78.6833 47.3895 78.6055 48.1418 78.6304C48.3175 78.6304 48.4985 78.6304 48.6742 78.6304C48.8875 78.6318 49.1 78.657 49.3078 78.7058C49.5102 78.7058 49.7125 78.7596 49.9414 78.808C50.1249 78.8364 50.3039 78.8888 50.4739 78.9641L50.016 81.2728M32.9781 83.7913C32.9647 83.0203 33.0947 82.2536 33.3614 81.5311C33.6018 80.9162 33.9642 80.3576 34.4263 79.8897C34.8405 79.4586 35.3442 79.126 35.9011 78.9156C36.4492 78.6919 37.0352 78.5786 37.6262 78.582C38.2248 78.5584 38.8215 78.6627 39.3775 78.888C39.9335 79.1133 40.4362 79.4547 40.8528 79.8897C41.6408 80.7346 42.0454 81.9939 42.0454 83.6137C42.0569 83.7929 42.0569 83.9727 42.0454 84.1519C42.0328 84.331 42.0328 84.5109 42.0454 84.69H35.7733C35.797 84.9617 35.8799 85.2247 36.0162 85.4602C36.1525 85.6956 36.3386 85.8976 36.5613 86.0516C37.1192 86.4197 37.7748 86.6075 38.4408 86.5897C38.935 86.585 39.4281 86.5419 39.9157 86.4606C40.3238 86.3795 40.7232 86.2587 41.1083 86.1L41.4917 88.3602C41.3028 88.4528 41.1069 88.5302 40.906 88.5917C40.633 88.6752 40.3533 88.7346 40.0701 88.7692C39.7666 88.8231 39.4631 88.8715 39.1064 88.9253C38.7496 88.9791 38.4195 88.9791 38.0415 88.9791C37.2622 89.0049 36.4856 88.8732 35.7574 88.5917C35.1561 88.3738 34.6134 88.0171 34.1725 87.55C33.7316 87.0828 33.4047 86.5182 33.2176 85.9009C33.0575 85.2273 32.9718 84.5378 32.9621 83.8451M39.4152 82.7688C39.4098 82.532 39.3667 82.2976 39.2874 82.0746C39.2281 81.8581 39.1247 81.6565 38.9839 81.4826C38.8368 81.3031 38.6558 81.155 38.4515 81.0467C38.2025 80.9248 37.9295 80.8615 37.6528 80.8615C37.3762 80.8615 37.1031 80.9248 36.8542 81.0467C36.6524 81.1474 36.4717 81.2862 36.3217 81.4557C36.1647 81.635 36.0435 81.8433 35.965 82.0692C35.8894 82.2945 35.8376 82.5272 35.8106 82.7634H39.4152M28.5162 83.6622C28.5162 81.8647 27.856 80.9714 26.5622 80.9714C26.2803 80.9676 25.9992 81.002 25.7263 81.0736C25.4922 81.1286 25.2689 81.2232 25.0661 81.3535V86.3852C25.1938 86.3852 25.3696 86.439 25.5985 86.4606C25.8272 86.4744 26.0566 86.4744 26.2853 86.4606C26.6105 86.4876 26.9371 86.4312 27.2349 86.2967C27.5327 86.1622 27.7922 85.9538 27.9891 85.691C28.3668 85.0674 28.5521 84.3442 28.5216 83.6137M31.3169 83.716C31.327 84.4494 31.2062 85.1786 30.9601 85.8686C30.7599 86.4717 30.4309 87.0228 29.9964 87.4831C29.5447 87.9512 29.0004 88.318 28.3991 88.5594C27.7162 88.8071 26.9949 88.9293 26.2694 88.9199C25.9393 88.9199 25.5825 88.9199 25.2045 88.8661C24.8265 88.8123 24.491 88.7908 24.1396 88.7639C23.7882 88.737 23.4794 88.6616 23.1493 88.5863C22.8618 88.5464 22.5808 88.4686 22.3134 88.3549V74.6481L25.0554 74.2122V79.0879C25.3677 78.9588 25.69 78.8562 26.0191 78.7811C26.3695 78.7091 26.7265 78.6748 27.084 78.6789C27.7139 78.6663 28.3385 78.7988 28.9102 79.0663C29.4409 79.294 29.9113 79.6442 30.2839 80.0888C30.6636 80.5639 30.941 81.1137 31.0986 81.7033C31.2539 82.3845 31.3308 83.0815 31.3275 83.7806M19.747 88.3011C19.1538 88.4607 18.5508 88.5811 17.9421 88.6616C17.1779 88.7845 16.4051 88.8439 15.6313 88.8392C14.9317 88.8579 14.2348 88.7447 13.5761 88.5055C13.0778 88.3061 12.6341 87.9887 12.2823 87.5799C11.9532 87.1468 11.719 86.6478 11.5955 86.1161C11.4518 85.5118 11.3838 84.8917 11.3931 84.2703V78.8565H14.1352V83.9635C14.0907 84.6259 14.2134 85.2888 14.4919 85.8901C14.635 86.0973 14.8306 86.2616 15.0583 86.3658C15.286 86.47 15.5373 86.5101 15.7857 86.4821C15.9967 86.4943 16.2083 86.4943 16.4193 86.4821C16.6162 86.4731 16.8121 86.4479 17.005 86.4067V78.8726H19.747V88.3226M3.74736 82.4029C4.02423 82.0961 4.2798 81.7894 4.58329 81.4773C4.88678 81.1651 5.11572 80.8369 5.41921 80.5247C5.7227 80.2126 5.95165 79.9112 6.18059 79.626C6.40954 79.3408 6.63849 79.0879 6.81419 78.8834H10.0514C9.39118 79.626 8.75758 80.374 8.14528 81.0683C7.53298 81.7625 6.85146 82.4782 6.11138 83.2209C6.51848 83.5971 6.90087 83.9998 7.25611 84.4263C7.63947 84.8891 8.01749 85.352 8.40085 85.8632C8.7842 86.3745 9.11431 86.8642 9.4178 87.3539C9.72129 87.8436 9.95023 88.3064 10.1792 88.7154H7.04314C6.84081 88.3818 6.61187 88.0481 6.3563 87.6391C6.10073 87.2301 5.82386 86.8696 5.56829 86.4606C5.28475 86.0664 4.97898 85.6891 4.6525 85.3304C4.37952 84.999 4.07254 84.6977 3.73672 84.4317V88.737H1V74.6481L3.74204 74.2122V82.4029" fill="black"/>
</svg>
