<svg xmlns="http://www.w3.org/2000/svg" width="100" height="100" fill="none"><path fill="#C22133" d="M89.205 21.317a35.6 35.6 0 0 0-3.075-5.195l-12.6 4.567a23.5 23.5 0 0 1 3.703 4.968zM33.503 35.198 20.9 39.766a36.4 36.4 0 0 0 .999 5.95l11.974-4.342a23.2 23.2 0 0 1-.369-6.176"/><path fill="#DB212E" d="M61.477 17.762a23.3 23.3 0 0 1 6.808 4.83l12.601-4.568a35.8 35.8 0 0 0-14.07-11.662C48.801-2.005 27.308 5.785 18.91 23.726a35.5 35.5 0 0 0-3.255 17.942l12.603-4.567c.209-2.72.874-5.446 2.096-8.06 5.459-11.655 19.42-16.713 31.123-11.279M74.917 40.697a23 23 0 0 1-2.115 8.059c-5.457 11.658-19.42 16.716-31.121 11.282a23.2 23.2 0 0 1-6.822-4.822l-12.576 4.558a35.7 35.7 0 0 0 14.06 11.665c18.015 8.365 39.504.576 47.905-17.367a35.4 35.4 0 0 0 3.245-17.933z"/><path fill="#EB2126" d="m78.016 25.374-11.974 4.34a23.3 23.3 0 0 1 2.93 13.134l12.577-4.556a36 36 0 0 0-3.533-12.918M22.683 45.429l-11.974 4.344A36.2 36.2 0 0 0 16.34 61.93l12.574-4.56a23.4 23.4 0 0 1-6.231-11.94"/><path fill="#AD213B" d="M87.38 18.011a34 34 0 0 0-1.249-1.89l-12.6 4.568a22 22 0 0 1 1.551 1.78zM33.455 37.72c-.03-.837-.017-1.677.048-2.52l-12.605 4.567c.066.805.167 1.603.288 2.4z"/><path fill="#BA2133" d="m87.492 36.139-12.576 4.558a22.8 22.8 0 0 1-1.062 5.386l13.688-4.97a36 36 0 0 0-.05-4.974M22.284 59.776a35.6 35.6 0 0 0 3.205 3.875l13.69-4.972a23.3 23.3 0 0 1-4.321-3.463z"/><path fill="#241F21" d="M86.844 86.334v1.13h3.294V97.48h1.246V87.464h3.295v-1.13zm-7.562 1.13v3.694h3.069v1.13h-3.069v5.19h-1.246V86.336h6.57v1.128zm-5.704-1.13h1.247v11.147h-1.247zM69.122 97.48v-5.254h-5.564v5.255H62.31V86.333h1.247v4.763h5.564v-4.763h1.246V97.48zm-13.298.176c-1.52 0-2.879-.654-3.757-1.544l.832-.924c.846.812 1.822 1.339 2.973 1.339 1.486 0 2.414-.734 2.414-1.912 0-1.036-.623-1.624-2.67-2.358-2.414-.86-3.23-1.638-3.23-3.247 0-1.784 1.407-2.852 3.501-2.852 1.504 0 2.463.447 3.406 1.196l-.8.97c-.815-.668-1.566-1.035-2.684-1.035-1.537 0-2.175.764-2.175 1.64 0 .925.416 1.449 2.654 2.247 2.478.89 3.245 1.72 3.245 3.376 0 1.751-1.375 3.104-3.71 3.104m-8.81-.175-4.108-6.083c-.272-.414-.64-.972-.784-1.258 0 .414.032 1.814.032 2.435v4.906h-2.207V86.333h2.142l3.966 5.892c.273.414.639.972.783 1.258 0-.414-.03-1.814-.03-2.437v-4.713h2.205V97.48zm-17.647 0V86.333h7.77v2.182h-5.531v1.927h3.214v2.165h-3.214v2.691h5.77v2.182zm-6.36-3.949h-2.462v3.949h-2.238V86.334H23.2c2.11 0 3.853 1.163 3.853 3.534 0 2.58-1.726 3.663-4.045 3.663m.114-5.031h-2.576v2.865h2.607c1.04 0 1.6-.48 1.6-1.45s-.641-1.415-1.63-1.415m-12.196 9.155C7.998 97.655 6 95.52 6 91.922s2.031-5.765 4.958-5.765c2.91 0 4.908 2.136 4.908 5.735 0 3.598-2.031 5.763-4.94 5.763m-.015-9.284c-1.567 0-2.607 1.259-2.607 3.52s1.088 3.55 2.655 3.55 2.605-1.257 2.605-3.519c0-2.261-1.086-3.55-2.653-3.55"/></svg>