<svg width="100" height="101" viewBox="0 0 100 101" fill="none" xmlns="http://www.w3.org/2000/svg">
<path d="M41.4333 72.9011C37.5431 70.6429 34.3476 68.708 34.3476 68.602C34.3476 68.3846 48.4634 60.1321 48.6468 60.2381C48.8302 60.344 48.7968 76.8267 48.6468 76.9214C48.5801 76.9661 45.3123 75.1483 41.4222 72.89L41.4333 72.9011ZM50.5919 76.9159C50.5418 76.8657 50.5029 73.1075 50.5029 68.5519C50.5029 60.9629 50.5029 60.2882 50.7419 60.2882C50.9809 60.2882 64.0796 67.8158 64.7799 68.3456C65.03 68.5296 65.0355 68.5797 64.8466 68.7693C64.6576 68.9589 52.2869 76.1687 51.1365 76.7597C50.8864 76.9047 50.6419 76.9549 50.5919 76.9159ZM33.2695 66.7118C33.0305 66.2657 33.0583 50.6919 33.2972 50.3741C33.4584 50.1566 34.2309 50.5693 40.5219 54.2327C45.3846 57.0542 47.5742 58.4035 47.5464 58.5541C47.5186 58.7047 38.4434 64.1301 33.9363 66.6951C33.3806 66.9962 33.3806 66.9962 33.2472 66.6951L33.2695 66.7118ZM58.7612 62.8755C54.871 60.6451 51.72 58.6768 51.6922 58.5541C51.6644 58.4314 53.8151 57.082 58.7168 54.2383C64.9855 50.6083 65.8024 50.1678 65.9414 50.3797C66.0803 50.5916 66.1248 52.4261 66.1248 58.5541C66.1248 64.6821 66.0859 66.5501 65.9414 66.7341C65.7969 66.9181 65.0411 66.5445 58.7612 62.8755ZM24.0609 62.7584C20.2374 60.528 17.1086 58.6266 17.1086 58.5374C17.1086 58.4482 31.002 50.2737 31.2521 50.2737C31.3244 50.2737 31.3799 53.8981 31.3799 58.5597C31.3799 65.0948 31.341 66.8456 31.1966 66.8345C31.0521 66.8233 27.8843 64.9944 24.0609 62.7584ZM67.8865 58.5541C67.8865 51.5785 67.9198 50.2459 68.0865 50.2905C68.2533 50.3351 71.421 52.1361 75.2556 54.3331C79.7459 56.9092 82.2134 58.4036 82.1912 58.5374C82.169 58.6712 68.6978 66.6393 68.1365 66.801C67.8976 66.8679 67.8809 66.4051 67.8809 58.5597L67.8865 58.5541ZM15.8748 48.4504V40.0864L16.5639 40.4432C18.7591 41.5584 30.1462 48.35 30.1462 48.5117C30.1462 48.6734 16.3972 56.8032 16.0582 56.8088C15.9137 56.8144 15.8748 55.0468 15.8748 48.4504ZM41.2999 52.7551C37.4764 50.5247 34.3476 48.6232 34.3476 48.5173C34.3476 48.2943 48.4523 40.0641 48.6357 40.1533C48.7023 40.1979 48.7579 43.9561 48.7579 48.5173C48.7579 56.3237 48.7579 56.7921 48.5023 56.7865C48.3689 56.8032 45.1289 54.9799 41.2999 52.7551ZM50.5029 48.5173C50.5029 43.9561 50.5585 40.2035 50.6308 40.1533C50.8586 40.0083 64.9188 48.2162 64.9188 48.5173C64.9188 48.8184 51.1643 56.7977 50.7586 56.8032C50.5196 56.8032 50.5029 56.3181 50.5029 48.5284V48.5173ZM76.1448 52.7495C72.0378 50.4076 69.1313 48.6455 69.1313 48.5173C69.1313 48.3891 79.7682 42.077 82.9414 40.3596C83.2193 40.2091 83.3027 40.2146 83.4083 40.3875C83.5139 40.5603 83.6028 56.201 83.4583 56.5579C83.4083 56.6861 83.3305 56.7865 83.2749 56.7865C83.2193 56.7865 80.0182 54.9687 76.1559 52.7439L76.1448 52.7495ZM24.2776 42.7796C20.4986 40.5882 17.3197 38.698 17.203 38.5864C17.0863 38.4749 17.0474 38.3523 17.342 38.1682C18.559 37.3988 31.1021 30.2169 31.2355 30.2169C31.3688 30.2169 31.4522 46.5824 31.2688 46.6995C31.2077 46.7386 28.0622 44.9765 24.2832 42.7963L24.2776 42.7796ZM33.2028 46.5545C33.0861 46.2534 33.0916 30.8191 33.2028 30.3841C33.2639 30.15 33.3639 30.0775 33.5251 30.1388C33.6863 30.2001 36.8595 32.0346 40.683 34.2483C45.2845 36.9192 47.602 38.3411 47.5742 38.4805C47.5464 38.6199 33.7974 46.7887 33.4751 46.7887C33.4143 46.7781 33.3575 46.7513 33.3105 46.711C33.2636 46.6708 33.2283 46.6187 33.2083 46.5601L33.2028 46.5545ZM58.6834 42.7406C53.9318 39.9526 51.7311 38.6199 51.7311 38.4582C51.7311 38.2965 53.9541 36.9304 58.7557 34.1424C62.6458 31.912 65.8247 30.0663 65.8747 30.0663C65.9247 30.0663 66.0081 30.2113 66.0525 30.3897C66.1692 30.8191 66.1692 46.2479 66.0525 46.5601C66.034 46.6176 66.0005 46.669 65.9556 46.7092C65.9107 46.7494 65.8559 46.7768 65.7969 46.7887C65.7024 46.7887 62.5014 44.971 58.6779 42.7461L58.6834 42.7406ZM67.8865 38.4805C67.8865 32.5309 67.9309 30.1946 68.0476 30.1946C68.4033 30.1946 82.2301 38.2686 82.1967 38.4582C82.1634 38.6478 68.3033 46.7664 68.0198 46.7664C67.942 46.7664 67.8865 43.4208 67.8865 38.4805ZM15.8748 28.3935C15.8748 20.5035 15.8748 20.0295 16.1305 20.1466C16.5473 20.3027 29.8405 28.0478 30.0684 28.2708C30.2018 28.3991 30.2296 28.5218 30.1406 28.5998C29.8739 28.8452 16.3805 36.6404 16.1305 36.6906C15.8804 36.7408 15.8748 36.2668 15.8748 28.3991V28.3935ZM41.4388 32.6815C37.6153 30.4511 34.4865 28.5496 34.4865 28.4437C34.4865 28.1984 48.3078 20.1466 48.5634 20.247C48.7246 20.3083 48.7524 21.7469 48.719 28.4883C48.719 33.7799 48.6301 36.6683 48.5356 36.6906C48.4411 36.7129 45.2623 34.9063 41.4388 32.6759V32.6815ZM50.6641 36.5847C50.4585 36.3783 50.4251 20.6763 50.6252 20.3585C50.6507 20.3096 50.6903 20.2695 50.7389 20.2436C50.7875 20.2177 50.8428 20.2072 50.8975 20.2135C50.9809 20.2414 54.1486 22.0647 57.9387 24.2673C62.2402 26.7653 64.8188 28.3377 64.7966 28.4604C64.7743 28.5831 61.6955 30.4343 57.9498 32.609L50.9975 36.6404C50.9429 36.6656 50.8817 36.6727 50.8227 36.6607C50.7638 36.6487 50.7102 36.6181 50.6697 36.5735L50.6641 36.5847ZM76.1392 32.6815C72.249 30.4511 69.098 28.5496 69.0757 28.4381C69.0535 28.3266 71.521 26.8099 75.8613 24.3119C79.6126 22.154 82.8136 20.325 82.9692 20.2526C83.1248 20.1801 83.2916 20.1745 83.386 20.325C83.4805 20.4756 83.575 36.1386 83.4361 36.4954C83.386 36.6237 83.3082 36.7241 83.2527 36.7185C83.1971 36.7129 79.996 34.8896 76.1336 32.6703L76.1392 32.6815ZM24.2776 22.7171C20.4986 20.5258 17.3197 18.6355 17.203 18.524C17.0863 18.4125 17.0474 18.2898 17.342 18.1002C18.4534 17.3809 30.902 10.2381 31.1187 10.1823C31.3355 10.1265 31.3799 10.5169 31.3799 18.3344C31.3799 22.8565 31.3299 26.5869 31.2632 26.6259C31.1966 26.665 28.0566 24.9029 24.2776 22.7227V22.7171ZM33.3584 26.6203C33.3028 26.5646 33.2639 22.8398 33.2639 18.3344C33.2639 11.5596 33.2972 10.1433 33.4584 10.1433C33.6196 10.1433 45.7291 17.1077 47.2963 18.0946C47.5853 18.2786 47.6075 18.34 47.4408 18.5128C47.2741 18.6857 33.564 26.7263 33.4806 26.7263C33.4346 26.7023 33.3931 26.6702 33.3584 26.6315V26.6203ZM58.9224 22.7171C55.1489 20.5202 51.9701 18.6355 51.8589 18.524C51.7478 18.4125 51.7033 18.2898 51.9979 18.1058C53.2872 17.2917 65.519 10.2548 65.7469 10.1934C65.9747 10.1321 66.0303 10.2436 66.0303 18.34C66.0303 22.8621 65.9747 26.598 65.908 26.6371C65.8413 26.6761 62.6681 24.9197 58.8946 22.7227L58.9224 22.7171ZM67.8865 18.4069C67.8865 10.2659 67.8865 10.1042 68.1699 10.1767C68.809 10.344 82.2301 18.2117 82.1967 18.4013C82.1634 18.5909 68.2644 26.7263 68.0198 26.7263C67.9365 26.7263 67.8865 22.9904 67.8865 18.4069ZM41.3833 12.6246C37.5264 10.3942 34.3365 8.52064 34.292 8.47604C34.2476 8.43143 34.292 8.30876 34.4254 8.19724C34.6755 7.92959 48.1633 0.100883 48.5023 0.00609144C48.7524 -0.0608206 48.7635 0.312771 48.7635 8.31433C48.7635 14.9553 48.7246 16.6783 48.5801 16.6783C48.4356 16.6783 45.2345 14.8606 41.3833 12.6246ZM50.603 16.6003C50.4307 16.4274 50.4807 0.151067 50.653 0.0451234C50.8253 -0.0608206 64.9911 8.12475 64.9911 8.35336C64.9911 8.49276 51.6089 16.3605 50.9309 16.617C50.8804 16.6439 50.8241 16.6579 50.7669 16.6579C50.7098 16.6579 50.6535 16.6439 50.603 16.617V16.6003Z" fill="#34A9D8"/>
<path d="M41.4777 72.7171C37.6765 70.4867 34.5643 68.6634 34.5643 68.602C34.5643 68.5407 48.3411 60.4499 48.5245 60.4499C48.5745 60.4499 48.619 64.1134 48.619 68.5909C48.619 73.0684 48.569 76.7319 48.5023 76.7319C48.4356 76.7319 45.279 74.9252 41.4777 72.7171ZM50.7419 76.6203C50.603 76.4809 50.6252 60.6116 50.7419 60.5224C50.8586 60.4332 64.6298 68.4013 64.6298 68.5909C64.6298 68.7805 51.0698 76.7263 50.8697 76.7263C50.821 76.704 50.7775 76.6717 50.7419 76.6315V76.6203ZM33.4084 58.5541C33.4084 54.0933 33.4473 50.3964 33.4973 50.3964C33.5473 50.3964 36.7095 52.2086 40.5274 54.4223C46.007 57.6006 47.4297 58.4872 47.2852 58.6266C47.1407 58.766 33.9975 66.4832 33.6307 66.6226C33.4362 66.7006 33.4084 65.7917 33.4084 58.5541ZM58.9057 62.7361C55.1989 60.5726 52.0868 58.7214 51.9868 58.6266C51.8867 58.5318 53.2094 57.6341 58.7501 54.4223C62.5736 52.1919 65.7358 50.3964 65.7802 50.3964C65.8247 50.3964 65.858 54.0598 65.858 58.5374C65.858 63.0149 65.808 66.6783 65.7469 66.6728C65.6857 66.6672 62.6069 64.8996 58.9002 62.7361H58.9057ZM41.5166 52.6658C37.7321 50.4689 34.6199 48.6121 34.5977 48.5452C34.5755 48.4783 48.0132 40.5157 48.43 40.4154C48.5856 40.3763 48.619 41.8596 48.619 48.5173C48.619 52.9781 48.569 56.6638 48.5078 56.6638C48.4467 56.6638 45.3012 54.8628 41.5166 52.6658ZM50.7364 56.569C50.5919 56.4241 50.6252 40.5603 50.7753 40.4711C50.9253 40.3819 64.5909 48.2775 64.6687 48.5006C64.7021 48.6009 53.7207 55.0802 50.9253 56.6136C50.8938 56.6257 50.8595 56.6278 50.8267 56.6199C50.794 56.6119 50.7644 56.5942 50.7419 56.569H50.7364ZM33.4084 38.4805C33.4084 30.9585 33.4084 30.334 33.6474 30.4176C33.7808 30.4678 36.9429 32.2856 40.683 34.449C46.1571 37.6274 47.4575 38.4303 47.2908 38.5753C47.1241 38.7203 33.564 46.6382 33.464 46.6382C33.3639 46.6382 33.4084 42.9413 33.4084 38.4805ZM58.8613 42.6458C55.1323 40.4656 52.0146 38.6199 51.9368 38.5363C51.8589 38.4526 54.0097 37.1032 58.6056 34.4435C62.3513 32.2744 65.519 30.4566 65.6413 30.412C65.7635 30.3674 65.8636 31.2261 65.8636 38.4805C65.8636 42.9413 65.8136 46.6326 65.7524 46.6215C65.6913 46.6103 62.5903 44.826 58.8613 42.6458ZM41.4166 12.4406C37.6543 10.2604 34.5977 8.4147 34.6199 8.33664C34.6755 8.1582 48.18 0.279315 48.4356 0.273739C48.5801 0.273739 48.619 1.98 48.619 8.33664C48.619 14.6933 48.569 16.4051 48.4356 16.3995C48.3022 16.394 45.179 14.6208 41.4166 12.4406ZM50.6474 8.37009C50.6474 1.99672 50.6863 0.284891 50.8308 0.290467C51.0865 0.290467 64.6021 8.18051 64.6576 8.35336C64.7132 8.52622 51.4644 16.2211 50.9309 16.3605C50.653 16.4386 50.6474 16.3326 50.6474 8.37009Z" fill="#024561"/>
<path d="M48.6579 99.8165C47.7673 99.5587 46.9298 99.1432 46.1849 98.5898C45.6291 98.1883 45.1456 97.6419 45.1456 97.4746C45.4701 97.0594 45.8433 96.6849 46.2571 96.3594C46.4414 96.4832 46.6143 96.6231 46.7739 96.7776C47.9521 97.8259 48.9358 98.2385 50.1084 98.1772C52.0146 98.0768 53.1594 96.694 52.687 95.0602C52.398 94.0565 51.5755 93.4208 49.7416 92.774C47.5186 91.999 46.6072 91.3131 46.007 90.0418C45.7486 89.557 45.6475 89.0034 45.718 88.4582C45.6631 87.5796 45.9167 86.7095 46.4349 85.9992C46.933 85.3753 47.5952 84.904 48.3467 84.6386C49.668 84.2861 51.0691 84.3882 52.3258 84.9286C52.911 85.2109 53.446 85.5876 53.9096 86.0438C53.6289 86.5212 53.2849 86.9583 52.8871 87.343C52.6893 87.2608 52.5026 87.154 52.3313 87.0252C51.6582 86.5234 50.8353 86.2659 49.9972 86.2947C49.5868 86.2441 49.1704 86.3118 48.7968 86.4899C48.4312 86.6875 48.1281 86.984 47.9218 87.3457C47.7155 87.7074 47.6144 88.1198 47.6298 88.5363C47.5922 88.8795 47.6663 89.2257 47.841 89.5232C48.1466 90.0808 48.5356 90.3039 50.0083 90.867C50.7086 91.1347 51.5088 91.4692 51.7867 91.6142C53.943 92.7015 54.9378 94.3688 54.6377 96.3928C54.547 97.2677 54.1561 98.0838 53.5317 98.7013C53.0816 99.1497 52.5431 99.4988 51.9507 99.7263C51.3584 99.9539 50.7252 100.055 50.0917 100.023C49.6077 100.006 49.127 99.9373 48.6579 99.8165Z" fill="#34A9D8"/>
<path d="M75.2945 90.2481C74.8226 88.5911 73.8522 87.1208 72.5158 86.0382C71.7174 85.392 70.7989 84.9115 69.8138 84.6246C68.8287 84.3376 67.7966 84.2499 66.7774 84.3667C65.7583 84.4834 64.7724 84.8022 63.8771 85.3045C62.9818 85.8069 62.1949 86.4827 61.5622 87.2928C60.9179 88.1508 60.4236 89.1124 60.1006 90.1366C59.8582 91.3336 59.8262 92.564 60.0061 93.7721C60.2393 94.869 60.6997 95.9044 61.3574 96.8112C62.0151 97.718 62.8555 98.4759 63.824 99.0359C64.5826 99.4319 65.3898 99.7262 66.2248 99.9113C67.1941 100.036 68.1757 100.026 69.1424 99.8834C70.5877 99.5812 71.9223 98.8861 73.0005 97.8742C74.0786 96.8623 74.8587 95.5725 75.2556 94.1457C75.5386 92.8634 75.5519 91.5359 75.2945 90.2481ZM72.9826 94.8427C72.591 95.6275 72.0362 96.3189 71.3555 96.87C70.6748 97.4212 69.8841 97.8194 69.0369 98.0378C68.109 98.2245 67.1519 98.2093 66.2304 97.9931C65.4266 97.7783 64.6763 97.3975 64.0275 96.8752C63.3787 96.3529 62.8457 95.7006 62.4625 94.9598C62.0052 94.1159 61.7789 93.1655 61.8067 92.2053C61.7802 91.4061 61.9253 90.6106 62.2321 89.8727C62.5389 89.1348 63.0003 88.4717 63.5851 87.9285C64.0991 87.3728 64.7241 86.9322 65.4193 86.6353C66.1145 86.3384 66.8643 86.192 67.6197 86.2055C68.6063 86.1638 69.5846 86.4015 70.4429 86.8913C71.5235 87.4597 72.3941 88.3606 72.927 89.4619C73.3667 90.2882 73.6013 91.2088 73.611 92.1455C73.6206 93.0822 73.4051 94.0074 72.9826 94.8427Z" fill="#34A9D8"/>
<path d="M83.5083 99.8165C82.7217 99.5921 81.9726 99.252 81.2853 98.8073C80.7296 98.4225 80.0405 97.6921 80.0405 97.5248C80.1779 97.2562 80.3668 97.0175 80.5962 96.8222L81.152 96.2646L81.4965 96.588C82.9026 97.9151 84.3419 98.3946 85.7591 98.0099C86.2706 97.9097 86.734 97.6406 87.0754 97.2455C87.4169 96.8504 87.6167 96.352 87.643 95.8297C87.683 95.4761 87.6354 95.1182 87.5045 94.7875C87.3737 94.4568 87.1635 94.1636 86.8928 93.9338C86.2741 93.3575 85.5182 92.9504 84.6976 92.7517C82.5635 92.0101 81.491 91.2685 80.9463 90.1421C80.489 89.0533 80.4652 87.83 80.8797 86.7241C81.1853 86.0377 81.6738 85.4492 82.2912 85.0234C83.0569 84.6104 83.909 84.3845 84.7781 84.3641C85.6472 84.3438 86.5088 84.5295 87.2929 84.9063C87.8626 85.1677 88.3703 85.5479 88.7823 86.0215C88.5275 86.4832 88.2032 86.9026 87.8208 87.2649C87.6149 87.2244 87.4232 87.1302 87.2651 86.9917C86.0258 86.0995 84.3697 85.9546 83.3749 86.6571C83.1042 86.8729 82.8874 87.1491 82.7418 87.4637C82.5961 87.7783 82.5256 88.1226 82.5358 88.4693C82.5331 88.7679 82.5762 89.065 82.6636 89.3504C82.8692 89.8522 83.4694 90.276 84.492 90.6607C85.5439 91.0015 86.5529 91.4637 87.4985 92.038C88.2276 92.4715 88.8105 93.1142 89.172 93.8833C89.5335 94.6524 89.657 95.5125 89.5266 96.3527C89.3962 97.1929 89.0179 97.9746 88.4404 98.597C87.863 99.2194 87.1129 99.6539 86.287 99.8444C85.369 100.032 84.4215 100.021 83.5083 99.8109V99.8165Z" fill="#34A9D8"/>
<path d="M8.55573 99.7719C8.52239 99.7384 8.48904 97.4188 8.48904 94.6197C8.48904 90.3429 8.48904 89.5344 8.61686 89.5344C8.98207 89.8648 9.30501 90.2394 9.57829 90.6496L10.4119 91.7648V95.7683V99.7719H9.53939C9.21288 99.8145 8.88225 99.8145 8.55573 99.7719Z" fill="#34A9D8"/>
<path d="M22.6771 99.7719C22.6437 99.7384 22.6104 97.3798 22.6104 94.5305C22.6104 91.6811 22.577 89.3559 22.5437 89.3559C22.2278 89.7058 21.938 90.0785 21.6767 90.4711C21.2377 91.0901 20.0484 92.6513 19.037 93.9394C16.4361 97.2571 16.575 97.0954 16.4139 96.956C16.2527 96.8166 11.3344 90.4042 9.90062 88.3745L8.50571 86.4341V85.1851C8.47321 84.7666 8.50318 84.3456 8.59463 83.9361C8.72245 83.9361 8.96697 84.2427 12.8849 89.3559C14.8411 91.9097 16.4806 93.9952 16.525 93.9952C16.5695 93.9952 18.2756 91.8149 20.3207 89.1552C22.3658 86.4954 24.1164 84.226 24.2109 84.1368C24.3054 84.0476 24.4221 83.9751 24.461 84.0197C24.4999 84.0643 24.5277 87.6274 24.511 91.9488V99.7998H23.6385C23.325 99.8256 23.0096 99.8125 22.6993 99.7607L22.6771 99.7719Z" fill="#34A9D8"/>
<path d="M30.4408 99.7161C30.4408 99.6548 30.4074 96.2088 30.4408 92.0659V84.5327H39.7883V86.278L36.0815 86.3226L32.3747 86.3672V91.1458L35.6703 91.1904L38.9658 91.235V92.9803L35.6703 93.0249L32.3747 93.0695V95.5286V97.9876H36.2204C39.9272 97.9876 40.0717 97.9876 40.1606 98.166C40.272 98.6434 40.2853 99.1386 40.1995 99.6213L40.144 99.8277H35.2868C31.53 99.8277 30.4741 99.8277 30.4408 99.7106V99.7161Z" fill="#34A9D8"/>
<path d="M49.0969 99.8165C48.2643 99.6318 47.468 99.3096 46.7406 98.863C46.0848 98.4392 45.329 97.7478 45.329 97.5415C45.5666 97.1368 45.889 96.7886 46.2738 96.5211C46.5152 96.6726 46.7422 96.8462 46.9518 97.0397C48.6746 98.5062 50.8086 98.7125 52.1424 97.5303C52.4107 97.3125 52.6197 97.03 52.75 96.7092C52.8802 96.3885 52.9273 96.0398 52.8871 95.6958C52.9466 95.2756 52.8582 94.8477 52.637 94.4859C52.1757 93.7052 51.3755 93.1866 49.6971 92.6067C47.7687 91.9376 46.735 91.2016 46.2015 90.1198C45.9745 89.6681 45.8709 89.164 45.9014 88.6589C45.8065 87.8017 46.0023 86.9374 46.4572 86.2055C47.4297 84.6721 49.7527 84.0922 51.909 84.8505C52.5837 85.1139 53.2023 85.5038 53.7318 85.9992C53.7874 86.1442 52.9704 87.2705 52.8593 87.198L52.3035 86.83C50.9753 85.9323 49.008 85.9155 48.2077 86.7965C47.9145 87.1354 47.7101 87.5424 47.613 87.9805C47.516 88.4186 47.5294 88.8741 47.652 89.3057C47.8988 89.8286 48.3138 90.2528 48.8302 90.5102C48.9913 90.5827 49.7082 90.8726 50.4251 91.1514C51.0691 91.401 51.6981 91.6877 52.3091 92.0101C53.1159 92.5056 53.7865 93.1957 54.2597 94.0175C54.5209 94.5416 54.5321 94.6197 54.5321 95.6903C54.5875 96.2572 54.5133 96.8292 54.3153 97.3631C53.9277 98.1574 53.3248 98.826 52.5759 99.2924C51.5005 99.8317 50.2814 100.011 49.0969 99.8054V99.8165Z" fill="#024561"/>
<path d="M75.1889 90.3986C74.8301 88.9622 74.0777 87.6551 73.017 86.6254C71.9564 85.5956 70.6296 84.8842 69.1869 84.5717C68.1846 84.4232 67.166 84.4232 66.1637 84.5717C64.8516 84.8686 63.631 85.481 62.6069 86.356C61.4554 87.436 60.6228 88.8135 60.2006 90.3373C59.9768 91.5631 59.9768 92.8195 60.2006 94.0453C60.5201 95.4254 61.244 96.678 62.2791 97.6419C63.3971 98.8255 64.8709 99.6089 66.4749 99.8723C67.5427 99.9839 68.6215 99.9237 69.6704 99.6938C71.0042 99.3336 72.2184 98.6237 73.1882 97.6369C74.1581 96.6501 74.8486 95.422 75.1889 94.0788C75.4427 92.8653 75.4427 91.6122 75.1889 90.3986ZM73.0604 94.9542C72.6606 95.7191 72.1093 96.3941 71.4404 96.9377C70.7715 97.4813 69.999 97.8822 69.1702 98.1158C68.1617 98.3822 67.1007 98.3749 66.0959 98.0947C65.0911 97.8145 64.1786 97.2714 63.4517 96.5211C62.742 95.82 62.2152 94.9544 61.9178 94.0007C61.6114 92.9103 61.5809 91.7604 61.8289 90.6551C62.2345 89.2437 63.0992 88.009 64.2853 87.1478C65.1533 86.5285 66.1743 86.1604 67.2367 86.0837C68.299 86.007 69.362 86.2247 70.3095 86.7129C71.4319 87.3185 72.3621 88.2286 72.9937 89.3392C73.4496 90.2022 73.6935 91.162 73.7051 92.1386C73.7167 93.1153 73.4957 94.0806 73.0604 94.9542Z" fill="#024561"/>
<path d="M83.8306 99.7831C83.0485 99.6043 82.2987 99.3052 81.6077 98.8965C81.0242 98.5519 80.5158 98.0929 80.1127 97.5471C80.3543 97.1455 80.6736 96.7966 81.0519 96.5211C81.3015 96.664 81.5344 96.8342 81.7466 97.0285C83.6139 98.5898 85.8702 98.7013 87.1095 97.3408C87.3188 97.1378 87.4814 96.8914 87.5861 96.6189C87.6907 96.3463 87.7348 96.0542 87.7153 95.7628C87.7481 95.4602 87.7155 95.1541 87.6196 94.8654C87.5237 94.5767 87.3667 94.3122 87.1595 94.09C86.6038 93.4822 86.0758 93.1699 84.5698 92.6067C82.8414 91.9599 82.2357 91.6309 81.6577 91.0232C81.3472 90.7165 81.1004 90.3512 80.9316 89.9482C80.7628 89.5453 80.6752 89.1128 80.674 88.6757C80.5295 86.1497 82.0967 84.5494 84.7309 84.5271C86.012 84.4741 87.2673 84.8992 88.2543 85.7204L88.6267 86.0438L88.3821 86.3783C88.2488 86.5624 88.032 86.8244 87.9042 86.9638L87.6763 87.2147L87.3707 86.9806C86.0036 85.9323 83.9807 85.8207 83.0637 86.7352C82.8244 86.9733 82.6374 87.259 82.5149 87.574C82.3924 87.8891 82.337 88.2263 82.3524 88.5641C82.3212 88.75 82.3293 88.9404 82.3762 89.1229C82.4231 89.3054 82.5078 89.476 82.6247 89.6236C82.9748 90.1254 83.5694 90.4879 84.7865 90.9339C87.7764 92.0491 89.0657 93.1922 89.3714 95.049C89.4662 95.6877 89.4154 96.3397 89.2229 96.9559C89.0304 97.5721 88.7011 98.1364 88.2599 98.6065C87.6707 99.1461 86.9602 99.5349 86.189 99.7397C85.4179 99.9446 84.6088 99.9594 83.8306 99.7831Z" fill="#024561"/>
<path d="M8.66134 99.6771C8.56131 99.5767 8.58353 89.7184 8.66134 89.7184C8.98378 90.0461 9.27582 90.4026 9.53385 90.7834L10.323 91.8484V95.7516V99.6548H9.53941C9.25737 99.6801 8.97321 99.6669 8.69468 99.6158L8.66134 99.6771Z" fill="#024561"/>
<path d="M22.766 99.6771C22.7271 99.6381 22.7049 97.2515 22.7049 94.3688C22.7049 91.2462 22.7049 89.1162 22.6271 89.0994C22.267 89.4619 21.9465 89.8619 21.6712 90.2927C21.1933 90.9618 20.1485 92.3447 19.3482 93.3595C18.5479 94.3743 17.6087 95.5899 17.2531 96.0416C17.0424 96.3502 16.7962 96.6328 16.5195 96.8835C16.4084 96.8835 11.8846 90.9562 10.0007 88.3411L8.64467 86.4341L8.61133 85.3189C8.61133 84.4044 8.61133 84.2037 8.70025 84.2037C8.78916 84.2037 9.31712 84.8672 13.6686 90.5548C15.3969 92.7852 16.4473 94.1123 16.5362 94.0955C16.6251 94.0788 18.3701 91.8651 20.4263 89.1608C22.4826 86.4564 24.2498 84.2316 24.3165 84.2149C24.3832 84.1981 24.4277 85.7427 24.4054 91.9265V99.6771H23.6218C23.338 99.7038 23.0518 99.6907 22.7716 99.6381L22.766 99.6771Z" fill="#024561"/>
<path d="M30.5297 99.6213C30.5297 99.56 30.4963 96.1586 30.5297 92.0603V84.6163H39.6772V86.1776H35.9537H32.2302L32.1747 86.3839C32.1024 86.6516 32.1024 90.7555 32.1747 91.0232L32.2302 91.2295H35.5647H38.8991V92.7907H35.5647H32.2302L32.1747 92.9971C32.1469 93.1086 32.1191 94.2238 32.1191 95.4728C32.1191 97.4133 32.1191 97.759 32.2636 97.8872C32.4081 98.0155 32.8749 98.0322 36.2038 98.0322H39.9995V99.5935H35.2979C31.6078 99.5935 30.5686 99.5935 30.5352 99.4764L30.5297 99.6213Z" fill="#024561"/>
<path d="M8 79.4362L9.98955 74.2338H10.7287L12.8516 79.4362H12.0736L11.4678 77.8582H9.30043L8.74469 79.4362H8ZM9.49494 77.3006H11.2566L10.7009 75.862C10.5342 75.4234 10.4119 75.0628 10.3341 74.7803C10.2673 75.1178 10.1744 75.4497 10.0562 75.7728L9.49494 77.3006Z" fill="#024561"/>
<path d="M13.3184 80.8581V75.6445H13.8742V76.1352C13.9942 75.9595 14.1518 75.8128 14.3354 75.7059C14.5289 75.6043 14.7452 75.5544 14.9634 75.5609C15.2657 75.5557 15.5624 75.6432 15.8137 75.8118C16.0648 75.9849 16.2584 76.2297 16.3694 76.5144C16.4975 76.8294 16.5618 77.1668 16.5584 77.5069C16.5645 77.8652 16.4944 78.2207 16.3528 78.5496C16.239 78.8435 16.0395 79.0962 15.7803 79.2745C15.5332 79.4336 15.2459 79.5187 14.9523 79.5199C14.759 79.521 14.5683 79.4751 14.3966 79.386C14.2355 79.303 14.0936 79.1872 13.9798 79.0459V80.8581H13.3184ZM13.8742 77.5515C13.8439 77.9338 13.9481 78.3146 14.1687 78.6277C14.2533 78.7358 14.3613 78.8232 14.4845 78.8831C14.6078 78.943 14.7431 78.9739 14.88 78.9734C15.0209 78.9728 15.1598 78.9398 15.286 78.877C15.4122 78.8141 15.5224 78.7231 15.6081 78.611C15.8339 78.2854 15.9399 77.8912 15.9082 77.4958C15.937 77.1119 15.8329 76.7299 15.6136 76.414C15.5314 76.304 15.4249 76.2145 15.3024 76.1526C15.18 76.0907 15.0449 76.058 14.9078 76.0572C14.7664 76.0602 14.6276 76.096 14.5023 76.1617C14.377 76.2275 14.2685 76.3215 14.1854 76.4363C13.9593 76.7678 13.8569 77.1686 13.8964 77.5683L13.8742 77.5515Z" fill="#024561"/>
<path d="M19.8039 78.9678C19.6017 79.1471 19.3706 79.2904 19.1204 79.3916C18.8963 79.4748 18.659 79.5164 18.4201 79.5143C18.0769 79.5375 17.7375 79.4299 17.4698 79.2132C17.3615 79.116 17.2755 78.9964 17.2179 78.8625C17.1603 78.7287 17.1325 78.5839 17.1364 78.4381C17.1348 78.2608 17.1788 78.086 17.2642 77.9307C17.3426 77.7835 17.455 77.6573 17.5921 77.5627C17.7315 77.4677 17.8854 77.3961 18.0478 77.3508C18.2309 77.3077 18.4165 77.276 18.6035 77.256C18.9802 77.2199 19.3524 77.1471 19.715 77.0385C19.715 76.9493 19.715 76.8936 19.715 76.8713C19.7267 76.771 19.7169 76.6693 19.6862 76.5732C19.6555 76.477 19.6047 76.3885 19.5372 76.3137C19.3308 76.1553 19.0739 76.078 18.8147 76.0962C18.5834 76.0777 18.3522 76.1323 18.1534 76.2523C17.9874 76.3965 17.8757 76.5932 17.8366 76.8099L17.2142 76.7263C17.2561 76.4921 17.3512 76.2708 17.492 76.0795C17.6384 75.9035 17.8309 75.7721 18.0478 75.7003C18.3214 75.6069 18.6091 75.5617 18.8981 75.5665C19.1638 75.557 19.429 75.5948 19.6817 75.678C19.852 75.7324 20.0052 75.8304 20.1262 75.9624C20.2269 76.089 20.2956 76.2382 20.3263 76.3973C20.3536 76.5931 20.3648 76.7907 20.3597 76.9884V77.8415C20.3497 78.2137 20.3627 78.5861 20.3986 78.9567C20.4263 79.1153 20.4808 79.2681 20.5597 79.4083H19.8928C19.839 79.2675 19.8089 79.1186 19.8039 78.9678ZM19.7483 77.5404C19.4122 77.6598 19.0635 77.7403 18.7091 77.7801C18.5195 77.8006 18.3329 77.8437 18.1534 77.9084C18.0515 77.9507 17.9644 78.0226 17.9033 78.1147C17.8269 78.2283 17.7949 78.3661 17.8134 78.5019C17.8318 78.6376 17.8994 78.7618 18.0033 78.8507C18.1616 78.9739 18.3591 79.0353 18.5591 79.0236C18.788 79.028 19.0141 78.9723 19.2148 78.8619C19.3983 78.7633 19.5461 78.6091 19.6372 78.4214C19.7154 78.2172 19.7495 77.9986 19.7372 77.7801L19.7483 77.5404Z" fill="#024561"/>
<path d="M23.833 78.0701L24.461 78.1537C24.4132 78.545 24.2257 78.9056 23.933 79.1686C23.6443 79.4167 23.2738 79.5479 22.8938 79.5366C22.6631 79.546 22.433 79.5056 22.2192 79.4181C22.0054 79.3305 21.8128 79.1979 21.6545 79.0292C21.3192 78.6239 21.1521 78.1049 21.1877 77.5794C21.1791 77.2124 21.2472 76.8477 21.3878 76.5088C21.5094 76.2181 21.7246 75.9766 21.9991 75.823C22.2728 75.671 22.581 75.5923 22.8938 75.5944C23.2531 75.5798 23.6065 75.6901 23.8941 75.9066C24.1631 76.1286 24.3412 76.4423 24.3943 76.7876L23.7774 76.8824C23.7351 76.6682 23.6262 76.4729 23.4662 76.3248C23.3111 76.1942 23.1128 76.1266 22.9105 76.1352C22.7624 76.1303 22.6151 76.1588 22.4795 76.2186C22.3439 76.2785 22.2234 76.3681 22.1269 76.4809C21.8981 76.8051 21.7917 77.2004 21.8268 77.5961C21.7885 77.9905 21.8909 78.3857 22.1158 78.7113C22.2072 78.8229 22.3228 78.9121 22.4538 78.972C22.5848 79.0319 22.7277 79.061 22.8716 79.0571C23.1025 79.0651 23.3275 78.9831 23.4996 78.8284C23.7009 78.6261 23.8198 78.3557 23.833 78.0701Z" fill="#024561"/>
<path d="M25.0001 79.4362V74.2338H25.6392V76.1018C25.7742 75.9377 25.9441 75.806 26.1364 75.7162C26.3287 75.6265 26.5386 75.581 26.7506 75.5832C27.0015 75.5782 27.2498 75.6356 27.4731 75.7505C27.6664 75.8492 27.821 76.0102 27.9121 76.2077C28.0142 76.478 28.0596 76.7666 28.0455 77.0553V79.4418H27.4509V77.0553C27.4732 76.8051 27.3997 76.5559 27.2452 76.3583C27.1685 76.2831 27.077 76.2249 26.9765 76.1875C26.876 76.15 26.7687 76.1341 26.6617 76.1408C26.4665 76.1355 26.2739 76.1858 26.106 76.2858C25.9464 76.3764 25.8213 76.5176 25.7503 76.6873C25.6705 76.9106 25.6347 77.1473 25.6447 77.3843V79.4474L25.0001 79.4362Z" fill="#024561"/>
<path d="M31.6023 78.2207L32.258 78.3043C32.1786 78.6577 31.9828 78.974 31.7023 79.202C31.34 79.4395 30.9094 79.5497 30.478 79.5154C30.0466 79.4811 29.6387 79.3042 29.3182 79.0124C28.9767 78.6186 28.8031 78.106 28.8347 77.585C28.8015 77.0476 28.9767 76.5181 29.3237 76.1073C29.4859 75.9349 29.6827 75.799 29.9011 75.7086C30.1196 75.6182 30.3547 75.5755 30.5908 75.5832C30.8211 75.5749 31.0505 75.6164 31.2633 75.7049C31.4762 75.7935 31.6676 75.9269 31.8246 76.0962C32.1643 76.4995 32.3356 77.0189 32.3025 77.546C32.3025 77.585 32.3025 77.6407 32.3025 77.7188H29.5238C29.5215 78.0687 29.6459 78.4075 29.8739 78.6723C29.9743 78.7791 30.0959 78.8636 30.2309 78.9203C30.3659 78.977 30.5112 79.0046 30.6575 79.0013C30.8723 79.0082 31.0834 78.9435 31.2577 78.8173C31.427 78.6556 31.5466 78.4485 31.6023 78.2207ZM29.5127 77.1891H31.6134C31.607 76.9325 31.5237 76.6838 31.3744 76.4754C31.2801 76.3571 31.1598 76.2623 31.0229 76.1985C30.886 76.1346 30.7362 76.1034 30.5853 76.1073C30.4485 76.1039 30.3126 76.1283 30.1855 76.1791C30.0585 76.2299 29.943 76.306 29.8461 76.4029C29.6398 76.6131 29.5206 76.8941 29.5127 77.1891Z" fill="#024561"/>
<path d="M89.627 81.9733V80.6128H89.1379V80.4287H90.355V80.6128H89.8493V81.9733H89.627Z" fill="#024561"/>
<path d="M90.5384 81.9733V80.4343H90.844L91.2053 81.5495L91.2775 81.7781L91.3609 81.5328L91.7277 80.4622H92V81.9733H91.8055V80.6852L91.3609 81.9733H91.1775L90.7329 80.6629V81.9733H90.5384Z" fill="#024561"/>
</svg>
