<svg xmlns="http://www.w3.org/2000/svg" width="100" height="101" fill="none"><path fill="#34A9D8" d="M41.433 72.901c-3.89-2.258-7.085-4.193-7.085-4.299 0-.217 14.115-8.47 14.299-8.364s.15 16.589 0 16.683c-.067.045-3.335-1.773-7.225-4.031zm9.159 4.015c-.05-.05-.09-3.808-.09-8.364 0-7.59 0-8.264.24-8.264.239 0 13.338 7.528 14.038 8.058.25.184.255.234.067.423-.19.19-12.56 7.4-13.71 7.99-.25.146-.495.196-.545.157M33.27 66.712c-.24-.446-.212-16.02.027-16.338.161-.217.934.195 7.225 3.859 4.863 2.821 7.052 4.17 7.024 4.321s-9.103 5.576-13.61 8.141c-.555.301-.555.301-.689 0zm25.491-3.837c-3.89-2.23-7.041-4.198-7.069-4.32-.028-.124 2.123-1.473 7.025-4.317 6.269-3.63 7.085-4.07 7.224-3.858s.184 2.046.184 8.174-.04 7.996-.184 8.18-.9-.19-7.18-3.858m-34.7-.117c-3.824-2.23-6.952-4.131-6.952-4.22 0-.09 13.893-8.264 14.143-8.264.072 0 .128 3.624.128 8.286 0 6.535-.039 8.286-.183 8.275-.145-.012-3.313-1.84-7.136-4.077m43.826-4.204c0-6.976.033-8.308.2-8.263.166.044 3.334 1.845 7.169 4.042 4.49 2.576 6.957 4.07 6.935 4.204s-13.493 8.102-14.055 8.264c-.238.067-.255-.396-.255-8.241zM15.874 48.45v-8.364l.689.357c2.195 1.115 13.582 7.907 13.582 8.069 0 .161-13.749 8.291-14.088 8.297-.144.005-.183-1.762-.183-8.359M41.3 52.755c-3.824-2.23-6.952-4.132-6.952-4.238 0-.223 14.104-8.453 14.288-8.364.066.045.122 3.803.122 8.364 0 7.807 0 8.275-.256 8.27-.133.016-3.373-1.807-7.202-4.032m9.203-4.238c0-4.56.056-8.314.128-8.364.228-.145 14.288 8.063 14.288 8.364s-13.755 8.28-14.16 8.286c-.24 0-.256-.485-.256-8.275zm25.642 4.232c-4.107-2.341-7.014-4.104-7.014-4.232s10.637-6.44 13.81-8.157c.278-.15.362-.145.467.028.106.172.195 15.813.05 16.17-.05.128-.127.228-.183.228s-3.257-1.817-7.12-4.042zm-51.867-9.97c-3.78-2.19-6.958-4.081-7.075-4.193s-.156-.234.139-.418c1.217-.77 13.76-7.951 13.894-7.951.133 0 .216 16.365.033 16.483-.061.039-3.207-1.724-6.986-3.904zm8.925 3.775c-.117-.3-.111-15.735 0-16.17.06-.234.16-.306.322-.245.161.061 3.334 1.896 7.158 4.11 4.602 2.67 6.919 4.092 6.891 4.231S33.797 46.79 33.475 46.79a.34.34 0 0 1-.267-.229zm25.48-3.813c-4.751-2.788-6.952-4.121-6.952-4.283s2.223-1.528 7.025-4.316c3.89-2.23 7.069-4.076 7.119-4.076s.133.145.177.324c.117.43.117 15.858 0 16.17a.34.34 0 0 1-.255.229c-.095 0-3.296-1.818-7.12-4.043zm9.203-4.26c0-5.95.045-8.286.162-8.286.355 0 14.182 8.074 14.149 8.263s-13.894 8.308-14.177 8.308c-.078 0-.133-3.345-.133-8.285M15.875 28.393c0-7.89 0-8.364.256-8.246.416.156 13.71 7.9 13.937 8.124.134.128.162.25.073.329-.267.245-13.76 8.04-14.01 8.09s-.256-.423-.256-8.29zm25.564 4.288c-3.824-2.23-6.953-4.131-6.953-4.237 0-.246 13.822-8.297 14.077-8.197.162.061.19 1.5.156 8.241 0 5.292-.089 8.18-.183 8.203-.095.022-3.274-1.785-7.097-4.015zm9.225 3.904c-.206-.207-.239-15.909-.039-16.227a.27.27 0 0 1 .273-.145c.083.028 3.25 1.852 7.04 4.054 4.302 2.498 6.88 4.07 6.859 4.193-.023.123-3.101 1.974-6.847 4.149l-6.953 4.031a.28.28 0 0 1-.327-.066zM76.14 32.68c-3.89-2.23-7.041-4.131-7.063-4.243-.022-.111 2.445-1.628 6.785-4.126 3.752-2.158 6.953-3.987 7.108-4.06.156-.072.323-.078.417.073.095.15.189 15.814.05 16.17-.05.129-.128.23-.183.224-.056-.006-3.257-1.83-7.12-4.049zm-51.861-9.964c-3.78-2.191-6.958-4.081-7.075-4.193s-.156-.234.139-.424c1.111-.72 13.56-7.862 13.777-7.918s.26.335.26 8.152c0 4.523-.05 8.253-.116 8.292s-3.206-1.723-6.985-3.903zm9.08 3.903c-.055-.055-.094-3.78-.094-8.286 0-6.774.033-8.19.194-8.19.162 0 12.271 6.964 13.838 7.95.29.185.312.246.145.419s-13.877 8.213-13.96 8.213a.4.4 0 0 1-.123-.095zm25.564-3.903c-3.773-2.197-6.952-4.081-7.063-4.193s-.156-.234.139-.418c1.29-.814 13.521-7.851 13.749-7.913.228-.06.283.05.283 8.147 0 4.522-.055 8.258-.122 8.297s-3.24-1.717-7.013-3.914zm8.965-4.31c0-8.141 0-8.303.283-8.23.639.167 14.06 8.035 14.027 8.224s-13.933 8.325-14.177 8.325c-.084 0-.133-3.736-.133-8.32m-26.504-5.782c-3.857-2.23-7.047-4.104-7.091-4.149s0-.167.133-.279c.25-.267 13.738-8.096 14.077-8.19.25-.068.261.306.261 8.307 0 6.641-.038 8.364-.183 8.364-.144 0-3.346-1.817-7.197-4.053m9.22 3.975c-.172-.173-.122-16.449.05-16.555s14.338 8.08 14.338 8.308c0 .14-13.382 8.007-14.06 8.264a.35.35 0 0 1-.328 0z"/><path fill="#024561" d="M41.478 72.717c-3.802-2.23-6.914-4.054-6.914-4.115s13.777-8.152 13.96-8.152c.05 0 .095 3.663.095 8.14s-.05 8.142-.117 8.142c-.066 0-3.223-1.807-7.024-4.015m9.264 3.903c-.139-.14-.117-16.008 0-16.098s13.888 7.88 13.888 8.069-13.56 8.135-13.76 8.135a.4.4 0 0 1-.128-.094zM33.408 58.554c0-4.46.04-8.158.09-8.158s3.212 1.813 7.03 4.026c5.479 3.179 6.902 4.065 6.757 4.205-.144.139-13.287 7.856-13.654 7.996-.195.078-.223-.831-.223-8.069m25.498 4.182c-3.707-2.163-6.82-4.015-6.92-4.11-.1-.094 1.223-.992 6.764-4.204 3.824-2.23 6.986-4.026 7.03-4.026s.078 3.664.078 8.141-.05 8.141-.111 8.136-3.14-1.773-6.847-3.937zm-17.39-10.07c-3.784-2.197-6.896-4.054-6.918-4.12-.023-.068 13.415-8.03 13.832-8.13.156-.04.189 1.444.189 8.101 0 4.461-.05 8.147-.111 8.147s-3.207-1.801-6.991-3.998m9.22 3.903c-.144-.145-.11-16.009.04-16.098.15-.09 13.815 7.807 13.893 8.03.033.1-10.948 6.58-13.744 8.113a.17.17 0 0 1-.183-.045zM33.408 38.48c0-7.521 0-8.146.24-8.062.133.05 3.295 1.868 7.035 4.031 5.474 3.178 6.775 3.981 6.608 4.126s-13.727 8.063-13.827 8.063-.056-3.697-.056-8.157m25.453 4.166c-3.729-2.18-6.846-4.026-6.924-4.11-.078-.083 2.073-1.433 6.669-4.093 3.745-2.169 6.913-3.986 7.035-4.031s.223.814.223 8.069c0 4.46-.05 8.152-.112 8.14-.06-.01-3.162-1.795-6.89-3.975M41.417 12.44c-3.763-2.18-6.82-4.026-6.797-4.104.056-.179 13.56-8.058 13.816-8.063.144 0 .183 1.706.183 8.063 0 6.356-.05 8.068-.183 8.063-.134-.006-3.257-1.78-7.02-3.96m9.23-4.07c0-6.374.04-8.086.184-8.08.255 0 13.771 7.89 13.827 8.062.055.173-13.194 7.868-13.727 8.007-.278.079-.284-.027-.284-7.99"/><path fill="#34A9D8" d="M48.658 99.817a7.8 7.8 0 0 1-2.473-1.227c-.556-.402-1.04-.948-1.04-1.115q.49-.626 1.112-1.116.276.186.517.419c1.178 1.048 2.162 1.46 3.334 1.4 1.907-.101 3.051-1.484 2.579-3.118-.289-1.004-1.111-1.64-2.945-2.286-2.223-.775-3.135-1.46-3.735-2.732a2.65 2.65 0 0 1-.289-1.584A3.77 3.77 0 0 1 46.435 86a4.26 4.26 0 0 1 1.912-1.36 6.1 6.1 0 0 1 3.979.29c.585.282 1.12.659 1.584 1.115-.281.477-.625.914-1.023 1.299a2.6 2.6 0 0 1-.556-.318 3.7 3.7 0 0 0-2.334-.73c-.41-.05-.827.017-1.2.195a2.23 2.23 0 0 0-1.167 2.046c-.038.343.036.69.211.987.306.558.695.78 2.167 1.344.7.268 1.5.602 1.779.747 2.156 1.087 3.15 2.755 2.85 4.779a3.8 3.8 0 0 1-1.105 2.308 4.55 4.55 0 0 1-3.44 1.322 6.7 6.7 0 0 1-1.434-.206M75.295 90.248a8.37 8.37 0 0 0-2.78-4.21 7.73 7.73 0 0 0-5.738-1.671 7.72 7.72 0 0 0-5.215 2.926 9.5 9.5 0 0 0-1.461 2.844 10.5 10.5 0 0 0-.095 3.635 8 8 0 0 0 1.351 3.04 8 8 0 0 0 2.467 2.224c.759.396 1.566.69 2.4.875.97.125 1.952.115 2.918-.028a8.04 8.04 0 0 0 3.859-2.009 8.1 8.1 0 0 0 2.255-3.728 9.5 9.5 0 0 0 .038-3.898m-2.312 4.595a6.13 6.13 0 0 1-3.946 3.195 6.6 6.6 0 0 1-2.807-.045 5.97 5.97 0 0 1-3.768-3.033 5.45 5.45 0 0 1-.655-2.755 5.6 5.6 0 0 1 1.778-4.276 5.37 5.37 0 0 1 4.035-1.724 5.25 5.25 0 0 1 2.823.686 5.7 5.7 0 0 1 2.484 2.57 5.84 5.84 0 0 1 .056 5.382M83.508 99.817a8.3 8.3 0 0 1-2.223-1.01c-.555-.385-1.245-1.115-1.245-1.282.138-.269.327-.508.556-.703l.556-.557.344.323c1.407 1.327 2.846 1.807 4.263 1.422.512-.1.975-.37 1.316-.764.342-.396.542-.894.568-1.416a2.17 2.17 0 0 0-.75-1.896 4.9 4.9 0 0 0-2.195-1.182c-2.134-.742-3.207-1.483-3.752-2.61a4.63 4.63 0 0 1-.066-3.418 4.1 4.1 0 0 1 1.411-1.7 5.51 5.51 0 0 1 5.002-.118c.57.262 1.077.642 1.49 1.115-.255.462-.58.882-.962 1.244a1.2 1.2 0 0 1-.556-.273c-1.24-.892-2.895-1.037-3.89-.335a2.23 2.23 0 0 0-.84 1.812c-.002.299.041.596.129.881.205.502.805.926 1.828 1.31 1.052.341 2.06.804 3.007 1.378a4.25 4.25 0 0 1 1.673 1.845 4.27 4.27 0 0 1-.732 4.714 4.24 4.24 0 0 1-2.153 1.247 6.55 6.55 0 0 1-2.779-.033zM8.556 99.772c-.034-.034-.067-2.353-.067-5.152 0-4.277 0-5.086.128-5.086.365.33.688.705.961 1.116l.834 1.115v8.007h-.873a3.8 3.8 0 0 1-.983 0M22.677 99.772c-.033-.034-.067-2.392-.067-5.242s-.033-5.174-.066-5.174q-.475.526-.867 1.115c-.44.62-1.629 2.18-2.64 3.468-2.6 3.318-2.462 3.156-2.623 3.017s-5.08-6.552-6.513-8.582l-1.395-1.94v-1.249a4.2 4.2 0 0 1 .089-1.249c.127 0 .372.307 4.29 5.42 1.956 2.554 3.596 4.64 3.64 4.64s1.75-2.181 3.796-4.84c2.045-2.66 3.795-4.93 3.89-5.02.094-.088.211-.16.25-.116s.067 3.607.05 7.929v7.85h-.872a3.8 3.8 0 0 1-.94-.038zM30.44 99.716c0-.061-.033-3.507 0-7.65v-7.533h9.348v1.745l-3.706.045-3.707.044v4.779l3.295.044 3.296.045v1.745l-3.296.045-3.295.044v4.9190000000000005h3.845c3.707 0 3.852 0 3.94.178.112.477.125.973.04 1.455l-.056.207h-4.857c-3.757 0-4.813 0-4.846-.117z"/><path fill="#024561" d="M49.097 99.817a7.7 7.7 0 0 1-2.356-.954c-.656-.424-1.412-1.115-1.412-1.322.238-.404.56-.752.945-1.02q.362.228.678.519c1.723 1.466 3.857 1.672 5.19.49a2.05 2.05 0 0 0 .745-1.834c.06-.42-.029-.848-.25-1.21-.461-.78-1.261-1.3-2.94-1.88-1.928-.668-2.962-1.404-3.495-2.486a2.87 2.87 0 0 1-.3-1.461c-.096-.857.1-1.722.555-2.454.973-1.533 3.296-2.113 5.452-1.355A5.7 5.7 0 0 1 53.732 86c.055.144-.762 1.27-.873 1.198l-.556-.368c-1.328-.898-3.295-.915-4.095-.034a2.7 2.7 0 0 0-.556 2.51c.247.523.662.947 1.178 1.204.161.073.878.363 1.595.641q.967.375 1.884.86a5.7 5.7 0 0 1 1.95 2.007c.262.524.273.602.273 1.672a3.76 3.76 0 0 1-.217 1.673 4.7 4.7 0 0 1-1.74 1.93 5.6 5.6 0 0 1-3.478.512zM75.189 90.399a7.94 7.94 0 0 0-2.172-3.774 7.9 7.9 0 0 0-3.83-2.053 10.3 10.3 0 0 0-3.023 0 8.3 8.3 0 0 0-3.557 1.784 8.6 8.6 0 0 0-2.406 3.981 10.3 10.3 0 0 0 0 3.708 7.1 7.1 0 0 0 2.078 3.597 7.43 7.43 0 0 0 4.196 2.23c1.068.112 2.147.052 3.195-.178a7.8 7.8 0 0 0 3.518-2.057 7.8 7.8 0 0 0 2-3.558 9 9 0 0 0 0-3.68m-2.129 4.555a6.34 6.34 0 0 1-3.89 3.162 5.87 5.87 0 0 1-5.718-1.595 6.1 6.1 0 0 1-1.534-2.52 6.84 6.84 0 0 1-.09-3.346 6.58 6.58 0 0 1 2.457-3.507 5.8 5.8 0 0 1 6.025-.435 6.8 6.8 0 0 1 2.684 2.626 6.15 6.15 0 0 1 .066 5.615M83.83 99.783a7.8 7.8 0 0 1-2.222-.886 5.1 5.1 0 0 1-1.495-1.35c.241-.401.56-.75.939-1.026q.375.215.695.507c1.867 1.562 4.123 1.673 5.362.313a2.01 2.01 0 0 0 .606-1.578 2.12 2.12 0 0 0-.556-1.673c-.555-.608-1.083-.92-2.59-1.483-1.728-.647-2.333-.976-2.911-1.584a3.3 3.3 0 0 1-.984-2.347c-.145-2.526 1.423-4.127 4.057-4.149a5.17 5.17 0 0 1 3.523 1.193l.373.324-.245.334c-.133.184-.35.446-.478.586l-.228.25-.305-.233c-1.367-1.049-3.39-1.16-4.307-.246a2.42 2.42 0 0 0-.712 1.83 1.35 1.35 0 0 0 .273 1.059c.35.501.944.864 2.162 1.31 2.99 1.115 4.279 2.258 4.584 4.115a4.29 4.29 0 0 1-1.111 3.557 4.95 4.95 0 0 1-4.43 1.177M8.661 99.677c-.1-.1-.077-9.959 0-9.959q.485.493.873 1.065l.789 1.065v7.807h-.784a3.1 3.1 0 0 1-.844-.04zM22.766 99.677c-.039-.039-.061-2.426-.061-5.308 0-3.123 0-5.253-.078-5.27q-.541.546-.956 1.194c-.478.669-1.523 2.052-2.323 3.066-.8 1.015-1.74 2.23-2.095 2.683a4.8 4.8 0 0 1-.733.841c-.112 0-4.635-5.927-6.52-8.542l-1.355-1.907-.034-1.115c0-.915 0-1.115.09-1.115.088 0 .616.663 4.968 6.35 1.728 2.231 2.778 3.558 2.867 3.541.09-.016 1.834-2.23 3.89-4.934s3.824-4.93 3.89-4.946.112 1.528.09 7.712v7.75h-.784c-.284.027-.57.014-.85-.039zM30.53 99.621c0-.061-.034-3.462 0-7.56v-7.445h9.147v1.562H32.23l-.055.206c-.073.268-.073 4.371 0 4.64l.055.206H38.9v1.56H32.23l-.055.207c-.028.112-.056 1.227-.056 2.476 0 1.94 0 2.286.145 2.414.144.129.61.145 3.94.145h3.795v1.562h-4.701c-3.69 0-4.73 0-4.763-.118zM8 79.436l1.99-5.202h.739l2.123 5.202h-.778l-.606-1.578H9.3l-.555 1.578zm1.495-2.135h1.762l-.556-1.439q-.251-.659-.367-1.082-.1.508-.278.993zM13.318 80.858v-5.214h.556v.491a1.4 1.4 0 0 1 .461-.43 1.3 1.3 0 0 1 .628-.144 1.5 1.5 0 0 1 .85.25c.252.174.445.419.556.703.128.315.193.653.19.993.005.358-.065.714-.206 1.043a1.57 1.57 0 0 1-.573.725c-.247.159-.534.244-.828.245a1.2 1.2 0 0 1-.555-.134 1.3 1.3 0 0 1-.417-.34v1.812zm.556-3.306c-.03.382.074.763.295 1.076a.9.9 0 0 0 1.117.249.9.9 0 0 0 .322-.266c.226-.326.332-.72.3-1.115a1.68 1.68 0 0 0-.294-1.082.89.89 0 0 0-.706-.357.92.92 0 0 0-.723.38 1.7 1.7 0 0 0-.289 1.131zM19.804 78.968c-.202.18-.433.322-.684.424a2 2 0 0 1-.7.122 1.36 1.36 0 0 1-.95-.3 1 1 0 0 1-.334-.776 1.03 1.03 0 0 1 .128-.507c.079-.147.191-.274.328-.368q.21-.143.456-.212.275-.065.556-.095a6 6 0 0 0 1.111-.218v-.167a.7.7 0 0 0-.178-.557 1.06 1.06 0 0 0-.722-.218 1.1 1.1 0 0 0-.662.156.97.97 0 0 0-.316.558l-.623-.084c.042-.234.137-.455.278-.647.146-.175.339-.307.556-.379.273-.093.561-.138.85-.133.266-.01.531.028.784.111.17.054.323.152.444.284.1.127.17.276.2.435q.042.295.034.591v.853q-.015.56.039 1.116c.027.158.082.311.16.451h-.666a1.4 1.4 0 0 1-.09-.44m-.056-1.428q-.505.18-1.039.24a2.4 2.4 0 0 0-.556.128.559.559 0 0 0-.15.942.83.83 0 0 0 .556.174c.229.004.455-.052.656-.162a1 1 0 0 0 .422-.44 1.55 1.55 0 0 0 .1-.642zM23.833 78.07l.628.084a1.63 1.63 0 0 1-.528 1.015c-.289.248-.66.379-1.04.368a1.6 1.6 0 0 1-1.239-.508 2.06 2.06 0 0 1-.466-1.45c-.009-.367.06-.731.2-1.07.121-.29.337-.532.611-.686.274-.152.582-.23.895-.229.36-.014.713.096 1 .313.27.222.447.535.5.88l-.617.095a1.03 1.03 0 0 0-.31-.557.8.8 0 0 0-.556-.19.99.99 0 0 0-.784.346c-.229.324-.335.72-.3 1.115-.039.394.064.79.289 1.115a.95.95 0 0 0 .756.346.9.9 0 0 0 .628-.229 1.15 1.15 0 0 0 .333-.758M25 79.436v-5.202h.64v1.868a1.42 1.42 0 0 1 1.11-.519c.252-.005.5.053.723.168.193.098.348.26.44.457.101.27.147.559.133.847v2.387h-.595v-2.387a1 1 0 0 0-.206-.697.77.77 0 0 0-.583-.217 1.03 1.03 0 0 0-.556.145.83.83 0 0 0-.356.401 1.8 1.8 0 0 0-.105.697v2.063zM31.602 78.22l.656.084c-.08.354-.275.67-.556.898a1.95 1.95 0 0 1-2.384-.19 2 2 0 0 1-.483-1.427 2.1 2.1 0 0 1 .489-1.478 1.67 1.67 0 0 1 1.267-.524 1.6 1.6 0 0 1 1.234.513c.34.403.51.923.478 1.45v.173h-2.78c-.002.35.123.689.35.953a1.05 1.05 0 0 0 .784.33.97.97 0 0 0 .6-.185c.17-.161.29-.368.345-.596m-2.09-1.03h2.101a1.3 1.3 0 0 0-.239-.715.98.98 0 0 0-.789-.368 1 1 0 0 0-.739.296c-.206.21-.325.491-.333.786M89.627 81.973v-1.36h-.49v-.184h1.218v.184h-.506v1.36zM90.538 81.973v-1.539h.306l.361 1.115.073.23.083-.246.367-1.07H92v1.51h-.195v-1.288l-.444 1.288h-.184l-.444-1.31v1.31z"/></svg>