<?xml version="1.0" encoding="UTF-8"?>
<svg id="Layer_1" data-name="Layer 1" xmlns="http://www.w3.org/2000/svg" version="1.1" viewBox="0 0 120 120">
  <defs>
    <style>
      .cls-1 {
        fill: #390091;
      }

      .cls-1, .cls-2, .cls-3, .cls-4 {
        stroke-width: 0px;
      }

      .cls-2 {
        fill: #a179dc;
      }

      .cls-3 {
        fill: #280068;
      }

      .cls-4 {
        fill: #fff;
      }
    </style>
  </defs>
  <path class="cls-2" d="M113.4,35.3c0-2-.4-3.8-1.3-5.3-.9-1.5-2.1-2.8-3.9-3.8-14.2-8.2-28.4-16.4-42.7-24.6-3.8-2.2-7.5-2.1-11.3.1-5.7,3.3-34,19.6-42.4,24.5-3.5,2-5.2,5.1-5.2,9.1,0,16.5,0,33,0,49.4,0,2,.4,3.7,1.2,5.2.9,1.6,2.2,2.8,3.9,3.9,8.4,4.9,36.8,21.1,42.4,24.5,3.8,2.2,7.5,2.3,11.4.1,14.2-8.2,28.4-16.4,42.7-24.6,1.8-1,3.1-2.3,3.9-3.9.8-1.5,1.2-3.3,1.2-5.2,0,0,0-33,0-49.4"/>
  <path class="cls-3" d="M60.2,59.8L7.9,90c.9,1.6,2.2,2.8,3.9,3.9,8.4,4.9,36.8,21.1,42.4,24.5,3.8,2.2,7.5,2.3,11.4.1,14.2-8.2,28.4-16.4,42.7-24.6,1.8-1,3.1-2.3,3.9-3.9l-52-30.1"/>
  <path class="cls-1" d="M113.4,35.3c0-2-.4-3.8-1.3-5.3l-51.9,29.9,52,30.1c.8-1.5,1.2-3.3,1.2-5.2,0,0,0-33,0-49.4"/>
  <path class="cls-4" d="M91,48.6v5.6h5.6v-5.6h2.8v5.6h5.6v2.8h-5.6v5.6h5.6v2.8h-5.6v5.6h-2.8v-5.6h-5.6v5.6h-2.8v-5.6h-5.6v-2.8h5.6v-5.6h-5.6v-2.8h5.6v-5.6h2.8ZM96.6,57h-5.6v5.6h5.6v-5.6Z"/>
  <path class="cls-4" d="M60.3,20.3c14.7,0,27.5,8,34.4,19.8h0c0-.1-17.3,9.8-17.3,9.8-3.4-5.8-9.6-9.7-16.8-9.7h-.2c-10.9,0-19.8,8.8-19.8,19.8s1,6.9,2.6,9.8c3.4,5.9,9.8,10,17.2,10s13.8-4.1,17.2-10.1h0c0,.1,17.2,10.1,17.2,10.1-6.8,11.8-19.4,19.7-33.9,19.9h-.4c-14.7,0-27.6-8-34.4-19.9-3.3-5.8-5.3-12.6-5.3-19.7,0-21.9,17.8-39.7,39.7-39.7Z"/>
</svg>