<svg xmlns="http://www.w3.org/2000/svg" id="Layer_1" data-name="Layer 1" version="1.1" viewBox="0 0 120 120"><defs><style>.cls-4{stroke-width:0;fill:#fff}</style></defs><path d="M113.4 35.3c0-2-.4-3.8-1.3-5.3s-2.1-2.8-3.9-3.8C94 18 79.8 9.8 65.5 1.6 61.7-.6 58-.5 54.2 1.7c-5.7 3.3-34 19.6-42.4 24.5-3.5 2-5.2 5.1-5.2 9.1v49.4c0 2 .4 3.7 1.2 5.2.9 1.6 2.2 2.8 3.9 3.9 8.4 4.9 36.8 21.1 42.4 24.5 3.8 2.2 7.5 2.3 11.4.1 14.2-8.2 28.4-16.4 42.7-24.6q2.7-1.5 3.9-3.9c.8-1.5 1.2-3.3 1.2-5.2V35.3" style="stroke-width:0;fill:#a179dc"/><path d="M60.2 59.8 7.9 90c.9 1.6 2.2 2.8 3.9 3.9 8.4 4.9 36.8 21.1 42.4 24.5 3.8 2.2 7.5 2.3 11.4.1 14.2-8.2 28.4-16.4 42.7-24.6q2.7-1.5 3.9-3.9l-52-30.1" style="stroke-width:0;fill:#280068"/><path d="M113.4 35.3c0-2-.4-3.8-1.3-5.3L60.2 59.9l52 30.1c.8-1.5 1.2-3.3 1.2-5.2V35.4" style="fill:#390091;stroke-width:0"/><path d="M91 48.6v5.6h5.6v-5.6h2.8v5.6h5.6V57h-5.6v5.6h5.6v2.8h-5.6V71h-2.8v-5.6H91V71h-2.8v-5.6h-5.6v-2.8h5.6V57h-5.6v-2.8h5.6v-5.6zm5.6 8.4H91v5.6h5.6z" class="cls-4"/><path d="M60.3 20.3c14.7 0 27.5 8 34.4 19.8 0-.1-17.3 9.8-17.3 9.8-3.4-5.8-9.6-9.7-16.8-9.7h-.2C49.5 40.2 40.6 49 40.6 60s1 6.9 2.6 9.8c3.4 5.9 9.8 10 17.2 10s13.8-4.1 17.2-10.1c0 .1 17.2 10.1 17.2 10.1C88 91.6 75.4 99.5 60.9 99.7h-.4c-14.7 0-27.6-8-34.4-19.9-3.3-5.8-5.3-12.6-5.3-19.7 0-21.9 17.8-39.7 39.7-39.7Z" class="cls-4"/></svg>