<svg xmlns="http://www.w3.org/2000/svg" width="100" height="100" fill="none"><path fill="#1A1918" d="M30.55 99.918a.54.54 0 0 1-.473-.236l-5.565-7.294V99.8h-1.303v-9.176c0-.353.296-.647.652-.647.177 0 .355.058.532.235l5.566 7.294v-7.412h1.243v9.118c0 .412-.296.706-.651.706M41.09 99.977c-1.244 0-2.606-.236-3.849-.706l.296-1.06c1.125.354 2.368.648 3.553.648 1.598 0 2.427-.588 2.427-1.353 0-.706-.651-1.118-2.901-2.118-2.25-1.059-3.138-1.706-3.138-3.059 0-1.647 1.243-2.294 3.67-2.294 1.007 0 2.547.177 3.435.47l-.178 1.06c-.947-.236-2.19-.412-3.197-.412-1.717 0-2.368.294-2.368 1.118 0 .764.533 1.117 2.9 2.235 2.487 1.176 3.139 1.706 3.139 2.941-.06 1.706-1.658 2.53-3.79 2.53M50.859 90.153h1.302v9.706h-1.303zM63.35 95.447h-3.255v3.294h3.256c1.125 0 1.776-.706 1.776-1.647s-.71-1.647-1.776-1.647m-.65-4.176h-2.605v3.117H62.7c1.065 0 1.835-.647 1.835-1.588 0-1-.651-1.53-1.835-1.53m.65 8.588h-3.907a.655.655 0 0 1-.65-.647V90.8c0-.353.295-.647.65-.647H62.7c2.013 0 3.197 1 3.197 2.53 0 .823-.474 1.588-1.244 2.058 1.125.353 1.836 1.236 1.836 2.353 0 1.53-1.303 2.765-3.138 2.765M72.824 99.859a.655.655 0 0 1-.651-.647v-9.06h1.302v8.53h5.21v1.177zM87.684 99.977c-2.664 0-4.322-1-4.322-3 0-.942.533-1.824 1.599-2.295-.829-.53-1.243-1.294-1.243-2.058 0-1.824 1.42-2.647 4.026-2.647.888 0 2.131.117 3.138.352l-.119 1.06c-1.125-.177-2.131-.295-3.138-.295-1.717 0-2.605.47-2.605 1.588 0 .883.83 1.589 1.954 1.589h2.25c.296 0 .592.235.592.529a.59.59 0 0 1-.592.588h-2.428c-1.243 0-2.072.647-2.072 1.588 0 1.412 1.303 1.824 2.96 1.824.889 0 2.132-.118 3.08-.353l.177 1.059c-.948.294-2.19.47-3.257.47M13.44 91.977l2.31 5.705-3.494-2.764zm4.086 7.058-3.553-8.588q-.177-.353-.533-.353a.65.65 0 0 0-.592.353L8.941 99.86h1.302l1.54-3.882L16.4 99.74c.177.177.296.236.473.236.356 0 .652-.236.652-.648.059-.117.059-.235 0-.294M91 40.647c0 22.47-18.295 40.647-40.911 40.647-22.617 0-40.911-18.176-40.911-40.647C9.178 18.177 27.472 0 50.088 0 72.647 0 91 18.177 91 40.647"/><path fill="#fff" d="m50.74 24.824 10.598 25.94-15.986-12.529zm18.827 31.94-16.281-38.94c-.474-1.118-1.421-1.706-2.546-1.706s-2.131.588-2.605 1.706l-17.82 42.705h6.097l7.105-17.588 21.136 16.941c.83.706 1.48 1 2.25 1 1.599 0 2.96-1.176 2.96-2.882 0-.294-.118-.765-.296-1.235"/></svg>