<svg xmlns="http://www.w3.org/2000/svg" id="Layer_1" data-name="Layer 1" version="1.1" viewBox="0 0 120 120"><defs><style>.cls-4{stroke-width:0;fill:#fff}</style></defs><path d="M112 90c.8-1.4 1.4-3.1 1.4-4.5V34.6c0-1.5-.5-3.1-1.4-4.5l-52 30 52 30Z" style="stroke-width:0;fill:#00599c"/><path d="m64.6 118.9 44.1-25.5c1.3-.7 2.4-2 3.3-3.4L60 60 8 90c.8 1.4 2 2.7 3.3 3.4l44.1 25.5c2.5 1.5 6.7 1.5 9.2 0" style="stroke-width:0;fill:#004482"/><path d="M112 30c-.8-1.4-2-2.7-3.3-3.4L64.6 1.1c-2.5-1.5-6.7-1.5-9.2 0L11.3 26.6c-2.5 1.5-4.6 5.1-4.6 8v50.9c0 1.5.5 3.1 1.4 4.5l52-30 52-30Z" style="fill:#659ad2;stroke-width:0"/><path d="M60 95.5c-19.6 0-35.5-15.9-35.5-35.5S40.4 24.5 60 24.5s24.4 6.8 30.8 17.8l-15.4 8.9c-3.2-5.5-9.1-8.9-15.4-8.9-9.8 0-17.8 8-17.8 17.8s8 17.8 17.8 17.8 12.2-3.4 15.4-8.9l15.4 8.9c-6.3 11-18.1 17.8-30.8 17.8Z" class="cls-4"/><path d="M95.5 58h-3.9v-3.9h-4V58h-3.9v4h3.9v3.9h4V62h3.9zM110.4 58h-4v-3.9h-3.9V58h-4v4h4v3.9h3.9V62h4z" class="cls-4"/></svg>