<svg xmlns="http://www.w3.org/2000/svg" viewBox="0 0 120 120"><defs><linearGradient id="a" x1="9832.3" x2="9839.4" y1="-30736.8" y2="-30742.9" gradientTransform="matrix(9.3 0 0 -9.3 -91013.5 -287287.4)" gradientUnits="userSpaceOnUse"><stop offset="0" stop-color="#5ca0d5"/><stop offset="1" stop-color="#316a99"/></linearGradient><linearGradient id="b" x1="9842.2" x2="9839.6" y1="-30746.6" y2="-30743" gradientTransform="matrix(9.3 0 0 -9.3 -91013.5 -287287.4)" gradientUnits="userSpaceOnUse"><stop offset="0" stop-color="#ffd43e"/><stop offset="1" stop-color="#ffe975"/></linearGradient></defs><path d="M59.3 0c-4.9 0-9.6.4-13.6 1.2-12.2 2-14.2 6.5-14.2 14.8v11h28.7v3.7H20.6c-8.1 0-15.5 5.1-17.9 14.4C0 56.2 0 62.9 2.7 74.3c2 8.5 6.9 14.4 15.3 14.4h10v-13c0-9.4 8.1-17.9 17.9-17.9h28.5c7.9 0 14.2-6.5 14.2-14.6v-27c0-7.7-6.5-13.6-14.2-14.8C69.3.6 64.2 0 59.4.2ZM43.8 8.8c2.8 0 5.3 2.4 5.3 5.5s-2.4 5.5-5.3 5.5-5.5-2.4-5.5-5.5 2.4-5.5 5.5-5.5" style="fill:url(#a)"/><path d="M92 30.5v12.6c0 10-8.3 18.1-17.9 18.1H45.6c-7.7 0-14.2 6.7-14.2 14.6V103c0 7.7 6.7 12.4 14.2 14.6 8.9 2.6 17.7 3.3 28.7 0 7.1-2 14.2-6.3 14.2-14.6V92H59.8v-3.7h42.9c8.1 0 11.4-5.7 14.2-14.4 3.1-8.9 2.8-17.5 0-29.1-2-8.1-5.9-14.4-14.2-14.4H91.9Zm-16 69c2.8 0 5.3 2.4 5.3 5.5s-2.4 5.5-5.3 5.5-5.3-2.4-5.3-5.5 2.2-5.5 5.3-5.5" style="fill:url(#b)"/></svg>