<svg xmlns="http://www.w3.org/2000/svg" width="48" height="48" fill="none"><g clip-path="url(#a)"><path fill="#0C0" d="M0 46.884V11.163L10.047 1.116h48v36.837L48 48z"/><path fill="#fff" d="M28.758 27.547q2.11 1.453 3.89 2.125l-.89 2.11q-2.47-.891-4.922-2.813-2.547 1.422-5.625 1.422-3.11 0-5.64-1.5-2.532-1.5-3.907-4.22-1.36-2.718-1.36-6.124 0-3.39 1.376-6.172 1.374-2.781 3.906-4.234 2.547-1.454 5.687-1.453 3.172 0 5.72 1.515 2.546 1.5 3.874 4.219 1.344 2.703 1.344 6.11 0 2.828-.86 5.093a10.7 10.7 0 0 1-2.593 3.922m-6.672-3.875q2.625.735 4.328 2.187 2.672-2.437 2.672-7.328 0-2.781-.953-4.86-.938-2.076-2.766-3.218-1.812-1.155-4.078-1.156-3.39 0-5.625 2.328-2.234 2.313-2.234 6.922 0 4.468 2.203 6.86 2.218 2.39 5.656 2.39a7.8 7.8 0 0 0 3.063-.61 9.8 9.8 0 0 0-3-1.312zm20 3.812.406 2.485q-1.187.25-2.125.25-1.53 0-2.375-.485-.843-.484-1.187-1.265-.345-.797-.344-3.328v-9.547h-2.063v-2.188h2.063v-4.11l2.797-1.687v5.797h2.828v2.188h-2.828v9.703q0 1.203.14 1.547.157.343.485.547.344.203.969.203.468 0 1.234-.11"/></g><defs><clipPath id="a"><path fill="#fff" d="M0 0h48v48H0z"/></clipPath></defs></svg>