<?xml version="1.0" encoding="UTF-8"?>
<svg xmlns="http://www.w3.org/2000/svg" version="1.1" xmlns:xlink="http://www.w3.org/1999/xlink" viewBox="0 0 150 150">
  <defs>
    <style>
      .cls-1 {
        fill: url(#linear-gradient);
      }
    </style>
    <linearGradient id="linear-gradient" x1="100.1" y1="141.8" x2="67" y2="10.8" gradientTransform="translate(0 152) scale(1 -1)" gradientUnits="userSpaceOnUse">
      <stop offset="0" stop-color="#faae42"/>
      <stop offset="1" stop-color="#ef3e31"/>
    </linearGradient>
  </defs>
  <!-- Generator: Adobe Illustrator 28.6.0, SVG Export Plug-In . SVG Version: 1.2.0 Build 709)  -->
  <g>
    <g id="Layer_1">
      <path class="cls-1" d="M92.5,8.1c65.9,44.9,44.6,94.2,44.6,94.2,0,0,18.7,21.1,11.2,39.7,0,0-7.8-12.9-20.7-12.9s-19.8,12.9-45,12.9C26.5,141.9,0,95.1,0,95.1c50.5,33.3,84.9,9.7,84.9,9.7C62.1,91.6,13.8,28.6,13.8,28.6c42.1,35.9,60.3,45.3,60.3,45.3-10.9-8.9-41.4-52.8-41.4-52.8,24.4,24.7,72.8,59,72.8,59,13.9-38-13.1-72-13.1-72Z"/>
    </g>
  </g>
</svg>