<svg xmlns="http://www.w3.org/2000/svg" viewBox="0 0 150 150"><defs><linearGradient id="a" x1="100.1" x2="67" y1="141.8" y2="10.8" gradientTransform="matrix(1 0 0 -1 0 152)" gradientUnits="userSpaceOnUse"><stop offset="0" stop-color="#faae42"/><stop offset="1" stop-color="#ef3e31"/></linearGradient></defs><path d="M92.5 8.1c65.9 44.9 44.6 94.2 44.6 94.2s18.7 21.1 11.2 39.7c0 0-7.8-12.9-20.7-12.9s-19.8 12.9-45 12.9C26.5 141.9 0 95.1 0 95.1c50.5 33.3 84.9 9.7 84.9 9.7-22.8-13.2-71.1-76.2-71.1-76.2 42.1 35.9 60.3 45.3 60.3 45.3C63.2 65 32.7 21.1 32.7 21.1c24.4 24.7 72.8 59 72.8 59 13.9-38-13.1-72-13.1-72Z" style="fill:url(#a)"/></svg>