<svg xmlns="http://www.w3.org/2000/svg" width="100" height="100" fill="none"><path fill="url(#a)" d="m67.396 35.164-10.822 3.52-9.415 4.135-2.64.704c-.703.616-1.407 1.32-2.111 1.936-.792.704-1.584 1.408-2.2 1.847-.704.528-1.672 1.496-2.111 2.112-.704.968-1.32 1.936-1.584 2.64-.44 1.408-.264 2.727.616 4.047 1.144 1.672 3.343 3.256 5.895 4.4 1.32.615 3.52 1.32 5.191 1.76 2.728.703 8.095 1.495 11.086 1.583h1.408c.088 0 .528-.88 1.056-2.024 1.848-3.695 3.08-7.127 3.871-10.118.44-1.76.792-4.224.968-7.04.088-.791.088-3.43 0-4.31-.088-1.496-.176-2.64-.44-3.872v-.352s.088-.088 1.496-.44zm-2.463 1.496c.088 0 .351 2.464.44 4.048v.527c-.089 0-1.408-.791-2.288-1.32l-2.64-1.76c-.088-.087-.088-.087.616-.263 1.144-.44 3.784-1.232 3.872-1.232m-5.456 1.76c.088 0 .264.088.704.352 1.672 1.056 3.96 2.287 4.928 2.727.264.088.352.088-.352.528-1.496 1.056-3.344 2.024-5.632 2.992-.44.176-.703.352-.703.352s0-.176.088-.44c.528-2.024.88-4.047.88-5.72 0-.791 0-.791.087-.791m-1.143.44c.088.088 0 1.848-.088 2.375-.176 1.232-.352 2.288-.792 3.52l-.176.528s-1.144-1.056-1.496-1.496a10.8 10.8 0 0 1-1.496-2.2c-.176-.352-.44-1.056-.44-1.144.176.089 4.488-1.583 4.488-1.583m-5.368 2.111s.088.176.176.264c.264.704.88 1.76 1.32 2.464.528.704 1.32 1.496 1.848 2.024.176.176.352.352.44.352.088.088.088 0-1.232.528-1.584.615-3.255 1.143-5.191 1.76-.44.175-.88.263-1.408.44-.088 0-.088 0 .176-.353.968-1.495 2.376-4.399 3.255-6.51.176-.353.264-.705.264-.793a.19.19 0 0 1 .176-.176zm-1.583.704s-.352.88-.792 1.672c-.792 1.584-1.672 3.08-2.816 4.927-.176.352-.352.616-.44.616 0 .088-.088 0-.176-.176-.264-.528-.528-1.231-.616-1.935-.088-.616-.088-1.76 0-2.464.088-.528.088-.528.352-.616 1.056-.528 4.4-2.112 4.488-2.024m14.077.528v.352c0 1.848-.175 4.312-.44 6.16-.087.351-.087.615-.087.615l-.528-.176c-1.232-.352-2.552-.968-3.784-1.584-.792-.44-1.936-1.143-1.936-1.143s.352-.176.792-.44c1.584-.792 3.168-1.76 4.488-2.64.528-.352 1.231-.88 1.407-1.056zm-20.236 2.464v.352c0 .176-.088.616-.088.88-.089 1.231.087 2.111.703 3.255.176.352.264.616.264.616-.088.088-5.455 1.672-7.127 2.112a9 9 0 0 1-.967.264c-.088 0-.088 0 0-.088.176-1.232 1.143-2.728 2.375-4.048.88-.88 1.496-1.407 2.728-2.023.704-.616 1.936-1.32 2.111-1.32q-.13 0 0 0m12.67 2.288s.176.087.44.264c1.76 1.055 4.223 1.935 6.247 2.463h.176l-.264.176c-1.056.616-4.664 2.112-8.271 3.432-.528.176-1.056.352-1.144.44-.088 0-.176.088-.176.088s.176-.264.352-.616c1.056-1.936 2.024-4.224 2.552-5.895.088-.265.088-.352.088-.352m-1.232.352-.176.351c-.704 1.76-1.672 3.608-2.816 5.72-.264.528-.528.968-.528.968l-.528-.352c-1.76-1.056-3.255-2.376-4.31-3.608l-.177-.176.704-.176c2.64-.704 4.927-1.496 7.127-2.463.44-.088.616-.264.704-.264m8.007 2.815c0 .176-.44 1.848-.792 3.08-.264 1.056-.528 1.847-.968 3.255a31 31 0 0 1-.352 1.144h-.088a34.3 34.3 0 0 1-6.6-1.848c-.527-.264-1.407-.616-1.407-.616s.44-.264 1.056-.528c3.695-1.583 7.567-3.431 8.887-4.223zm-18.566.704s-1.056 1.496-2.463 3.52c-.528.703-1.056 1.583-1.32 1.847-.264.352-.528.792-.704 1.056l-.352.528-.352-.352c-.44-.352-1.144-1.144-1.496-1.584q-1.055-1.32-1.32-2.64c-.087-.351-.087-.615 0-.615.089 0 2.288-.528 4.312-1.056 1.144-.264 2.464-.528 2.904-.704.352.088.791 0 .791 0m.968.352.264.264c1.144 1.32 2.376 2.288 3.872 3.167.264.176.44.264.44.264-.088 0-5.016 1.848-7.391 2.64l-2.376.792s-.088-.088-.176-.088l-.176-.088.264-.352c.792-1.144 1.76-2.288 3.871-4.84zm6.6 4.663s.351.088.791.264c1.056.44 1.936.616 2.992.968 1.407.352 3.431.704 4.575.792.176 0 .264 0 .264.088-.088 0-1.232.44-2.112.704-1.407.44-5.719 1.672-9.15 2.727l-1.232.352c-.088 0-.352-.088-.352-.088s.176-.264.44-.528c1.144-1.407 2.376-2.991 3.343-4.487.176-.44.44-.792.44-.792m-1.496.088s-.528.968-1.584 2.552c-.44.704-.88 1.408-1.056 1.672s-.44.703-.528.88l-.264.44h-.088c-.264-.089-2.376-.792-2.904-1.056-.703-.264-1.407-.616-1.935-.88-.616-.352-1.496-.88-1.408-.88 0 0 1.144-.352 2.464-.704 3.607-.968 5.543-1.496 6.863-1.936.264-.088.44-.088.44-.088m10.206 2.376c0 .088-1.32 3.783-1.76 4.927-.088.264-.176.352-.176.352-.176 0-2.023-.264-3.255-.44-2.024-.352-5.455-.88-6.335-1.144h-.176l1.231-.264c2.64-.616 3.872-.88 5.104-1.32a67 67 0 0 0 4.839-1.847q.396-.264.528-.264"/><path fill="url(#b)" d="M56.31 10c-.176 0-3.08 1.056-4.927 1.76-2.552 1.056-4.488 2.023-5.72 2.815-.44.352-1.055.88-1.143 1.144 0 .088-.088.176-.088.264l1.055 1.056 2.64.792 6.16 1.144 7.126 1.231.088-.615h-.088l-.968-.176-.176-.352a58 58 0 0 1-2.64-5.192c-.44-1.143-.967-2.375-1.231-3.255 0-.528 0-.616-.088-.616m-.176.44s.088.264.088.528c.176 1.144.352 2.287.792 3.431.264.88.264.88-.088.704-.792-.264-4.576-.88-7.303-1.232-.44-.088-.792-.088-.792-.088s1.936-1.055 2.816-1.495c1.231-.528 4.311-1.848 4.487-1.848m-7.83 3.607.351.088c1.76.616 6.071 1.408 8.447 1.584.264 0 .528.088.528.088s-.264.088-.528.264c-1.144.616-2.464 1.32-3.344 1.848a2.5 2.5 0 0 1-.528.264s-.176 0-.352-.088l-.352-.088-.791-.792c-1.408-1.408-2.552-2.464-2.992-2.904zm-.353.264 1.144 1.408c.616.792 1.232 1.584 1.408 1.76s.264.352.264.352-1.672-.264-2.552-.528a20 20 0 0 1-1.848-.44l-.44-.176v-.088c0-.528.704-1.32 1.848-2.2zm9.767 1.936s.088.088.176.264c.264.616 1.144 2.288 1.32 2.552.087.088.175.088-.968-.088-2.728-.44-3.696-.616-3.696-.616s.088-.088.176-.088a9.7 9.7 0 0 0 2.464-1.76c.352 0 .528-.176.528-.264"/><path fill="url(#c)" d="M44.607 15.631s-.175.264 0 .704c.088.264.44.616.792.88 0 0 3.608 3.52 4.048 4.047 2.023 2.288 2.903 4.576 2.991 7.743.088 2.024-.352 3.784-1.32 5.895-1.671 3.696-5.279 7.831-10.822 12.319l.792-.264c.528-.352 1.232-.792 2.904-1.76 3.871-2.112 8.182-4.048 13.462-6.071 7.654-2.904 20.237-6.247 27.363-7.303l.704-.088-.088-.176c-.616-1.056-1.144-1.672-1.671-2.288-1.584-1.935-3.432-3.52-5.808-4.84-3.167-1.759-7.302-3.167-12.582-4.222-.968-.176-3.167-.528-4.927-.88-3.695-.616-6.159-.968-8.799-1.408-.968-.176-2.375-.44-3.343-.616-.528-.088-1.408-.352-2.2-.616-.44-.176-1.32-.352-1.496-1.056m2.112 2.024s.176 0 .352.088c.352.088.704.264 1.144.352l1.056.264c.528.088.88.264.88.264.088.088.88 2.727 1.143 3.695l.176.704s-.088-.088-.176-.352a16.5 16.5 0 0 0-4.223-4.751 1.6 1.6 0 0 1-.352-.264m4.047 1.144s.265 0 .44.088c1.408.352 3.872.792 5.456 1.056.264 0 .44.088.44.088s-.088.088-.264.175c-.264.177-1.32.792-1.672 1.056-.88.616-1.76 1.232-2.288 1.848l-.44.44s-.088-.176-.088-.352c-.264-1.144-.88-2.815-1.495-3.96-.088-.263-.088-.44-.088-.44m7.04 1.32c.088 0 .088.264.263.88.264 1.143.44 2.463.352 3.695 0 .352 0 .704-.088.704v.088l-.44-.176c-.88-.264-2.287-.704-3.519-1.056-.704-.176-1.232-.352-1.232-.352 0-.088 1.056-1.056 1.408-1.408.968-.704 3.168-2.375 3.256-2.375m.527.087s3.344.529 4.928.88c1.143.264 2.815.528 2.903.616.088 0-.088.088-.704.352-2.111.968-3.783 1.848-5.367 2.904-.44.264-.792.528-.792.528v-.528c0-1.584-.352-3.08-.88-4.4 0-.175-.088-.352-.088-.352m8.711 1.76s-.088.704-.176 1.056c-.264 1.232-1.056 2.992-2.024 4.751l-.351.528s-.264-.088-.528-.264a53 53 0 0 0-3.168-1.583c-.352-.176-.616-.264-.616-.264-.088-.088 2.552-1.76 3.96-2.64 1.055-.704 2.903-1.672 2.903-1.584m.616.088c.088 0 1.584.44 2.376.616 1.935.528 4.135 1.408 5.543 2.024l.616.264-.44.088a62.5 62.5 0 0 0-9.415 2.903c-.264.088-.44.176-.44.176s.088-.176.176-.44c.88-1.847 1.408-3.783 1.584-5.455-.088-.088 0-.176 0-.176m-14.782 3.344s1.144.264 1.76.44c.968.264 2.904.88 2.904.968 0 0-.264.175-.44.44-1.056.88-2.112 1.847-3.344 2.991a7 7 0 0 1-.704.616v-.088c.176-1.408.176-3.168-.088-4.927-.088-.176-.088-.44-.088-.44m23.845.088s-.528.88-.88 1.32c-.528.703-1.232 1.671-2.816 3.695-.88 1.056-1.847 2.288-2.112 2.728-.351.44-.615.791-.615.791s-.088-.176-.264-.352c-.88-1.407-2.024-2.551-3.344-3.607-.264-.176-.528-.44-.616-.528s-.176-.088-.176-.176c0 0 1.408-.616 2.464-1.056 1.848-.791 4.4-1.671 6.247-2.2 1.056-.351 2.112-.703 2.112-.615m.616.088s.264.088.44.264a26.2 26.2 0 0 1 5.455 4.135c.44.44 1.496 1.496 1.496 1.584 0 0-.353 0-.792.088-3.432.264-7.831.968-12.055 2.024-.264.088-.527.088-.527.088s.263-.352.703-.704c2.464-2.376 3.608-3.872 4.928-6.6.176-.44.352-.791.352-.88m-18.214 1.935c.088 0 1.144.528 1.936.88.704.352 1.848.968 1.936.968l-.88.44a184 184 0 0 0-4.223 2.288c-.352.264-.704.44-.704.44l.175-.44a18.2 18.2 0 0 0 1.672-4.488zm-1.056.176s-.264 1.056-.44 1.584c-.351 1.056-.88 2.376-1.407 3.344-.088.264-.352.528-.44.792l-.176.352-.44-.44c-.528-.528-.968-.792-1.496-1.144-.264-.088-.352-.176-.352-.264s1.408-1.32 2.464-2.288c.704-.704 2.287-2.024 2.287-1.936m6.511 2.64.44.264c.88.616 2.024 1.408 2.816 2.112.44.352 1.32 1.231 1.584 1.407l.088.089-.704.175c-3.696 1.056-6.6 1.936-10.03 3.168a4 4 0 0 1-.705.264c-.088 0-.088 0 .792-.704 2.112-2.024 4.048-4.135 5.456-6.335zm-1.671.44s-1.144 1.584-1.76 2.464c-.792 1.056-2.2 2.815-3.168 3.959-.44.44-.791.88-.791.88v-.264c0-.968-.264-2.024-.704-2.904-.176-.352-.264-.44-.176-.528.176-.175 2.551-1.495 4.047-2.287.88-.528 2.464-1.32 2.552-1.32m-10.383 2.552s.176.088.44.176c.528.264.968.615 1.408.967 0 0-.176.176-.44.352a30 30 0 0 0-2.64 2.024c-.703.528-.703.616-.703.44.527-.792.791-1.32 1.055-1.848s.528-1.144.704-1.671c.088-.264.176-.44.176-.44m2.816 2.111.352.352c.44.704.792 1.584.88 2.376v.176l-1.144.44a170 170 0 0 0-5.103 2.111c-.352.176-.968.44-1.32.616-.44.176-.704.352-.704.352s.264-.176.528-.44c2.463-1.76 4.575-3.695 6.159-5.63.176-.177.264-.353.352-.353m-1.32.352s-.88 1.056-1.496 1.76c-1.584 1.584-3.167 2.904-5.103 4.047-.264.176-.44.264-.528.352-.088 0 0-.088.88-.968.528-.615.968-1.055 1.408-1.671.352-.44.352-.44.792-.792 1.32-.88 4.047-2.816 4.047-2.728"/><path fill="#231F1F" d="M18.745 69.538h-.464c-3.093.154-5.103 1.546-6.34 4.175-1.083 2.32-.928 5.412 0 7.886 1.082 2.32 2.783 3.557 5.721 4.02.619.155 1.083.465 2.165 1.856l1.392 1.701h2.629L22.3 87.321c-.927-.928-1.7-1.856-1.7-1.856s.309-.31.773-.31c1.546-.463 2.783-1.546 3.556-3.401.773-1.392.773-1.856.928-3.557.155-5.412-2.629-8.66-7.113-8.66m2.32 13.762c-1.238.619-3.093.773-4.33.31-1.237-.465-2.475-1.856-3.093-3.248-.619-1.7-.464-4.639.155-6.03 1.082-2.165 2.628-3.093 4.793-3.093 3.247 0 5.103 2.01 5.258 5.721.154 3.093-.773 5.412-2.784 6.34m45.771-9.278c-1.082 0-2.01.464-2.474 1.392l-.464.773v-1.856h-1.856v10.98h1.856v-3.557c0-3.248 0-3.557.464-4.485.619-1.237 1.7-1.855 2.629-1.546l.618.155v-1.856zm-11.288-.154c-.31 0-.773 0-1.237.154-2.63.619-4.02 3.093-3.866 5.722 0 2.165.464 3.247 1.392 4.33 2.164 1.7 4.02 1.855 6.494.927.464-.154.928-.464.928-.464v-1.7l-.928.463c-2.01.928-3.711.928-4.948-.154-.773-.774-1.083-1.856-1.237-2.939h7.731v-1.546c.155-2.938-1.7-4.793-4.33-4.793m-3.093 4.948s.31-1.856 1.392-2.629c.464-.31 1.082-.464 1.7-.464.62 0 1.083.155 1.702.619.927.773 1.082 2.628 1.082 2.628zM5.91 76.806c-2.165-1.238-3.093-2.165-2.938-3.248.31-2.938 4.02-2.629 6.03-1.392v-2.01s-1.082-.464-2.783-.464c-2.474 0-4.02.774-4.793 2.475-1.083 2.474-.155 4.33 3.402 6.34 2.01 1.082 2.783 2.164 2.783 3.247 0 2.32-2.783 3.093-5.567 1.7-.309-.618-.773-.772-.928-.772-.154.618 0 2.165 0 2.165s.928.309 2.165.618c3.248.619 6.186-.928 6.34-3.247.31-2.32-.464-3.557-3.71-5.413M84 73.867c-.309 0-.773 0-1.237.154-2.628.619-4.02 3.093-3.866 5.722 0 2.165.464 3.247 1.392 4.33 2.165 1.7 4.02 1.855 6.65.927.463-.154.927-.464.927-.464v-1.7l-.927.463c-2.01.928-3.712.928-4.949-.154-.773-.774-1.082-1.701-1.391-2.939h7.731v-1.546c0-2.938-1.7-4.793-4.33-4.793m-3.247 4.793s.31-1.856 1.392-2.629c.464-.309 1.082-.464 1.7-.464.62 0 1.083.155 1.702.619.928.773 1.082 2.629 1.082 2.629zm-35.256-1.856c-2.165-1.237-2.938-2.164-2.938-3.247.309-2.938 4.02-2.629 6.03-1.392v-2.01s-1.082-.464-2.783-.464c-2.474 0-4.02.774-4.794 2.475-1.082 2.474-.154 4.33 3.402 6.34 2.01 1.082 2.783 2.164 2.783 3.247 0 2.32-2.783 3.093-5.566 1.7-.619-.308-1.083-.463-1.083-.463-.154.618 0 2.165 0 2.165s.928.309 2.165.618c3.247.619 6.185-.927 6.34-3.247.31-2.629-.464-3.866-3.556-5.722m49.792-2.783c-1.083 0-2.01.464-2.474 1.392l-.464.773v-1.856h-1.856v10.98h1.856v-3.557c0-3.248 0-3.557.464-4.485.618-1.237 1.7-1.855 2.628-1.546l.619.155v-1.856zm-65.101 2.783v-6.958h-2.01V85.31h8.195v-1.855h-6.185zm44.844 2.165-1.547 4.176-1.546-4.176-1.546-4.639h-2.01c1.237 3.712 2.628 7.423 4.175 10.98h1.855l2.165-5.413 2.165-5.567h-1.856c-.154-.154-.927 2.165-1.855 4.64m-40.36-13.453c.31 0 .619-.154.773-.309s.31-.464.31-.773c0-.31-.155-.619-.31-.773a1.18 1.18 0 0 0-.773-.31c-.31 0-.618.155-.773.31-.31.154-.31.464-.31.773s.155.618.31.773.464.31.773.31m-.773-1.7c.155-.155.464-.31.773-.31.31 0 .464.155.619.31.154.154.309.463.309.618 0 .309-.155.464-.31.773-.154.155-.463.31-.618.31-.31 0-.464-.155-.618-.31a1.18 1.18 0 0 1-.31-.773c-.154-.31 0-.464.155-.619m.464.772c.154 0 .31.155.31.31l.154.309h.309l-.155-.31a.33.33 0 0 0-.309-.309c.155 0 .155 0 .31-.154 0 0 .154-.155.154-.31 0-.154 0-.154-.155-.309-.154 0-.154-.154-.464-.154h-.463v1.391h.154zm0-.773h.464v.155c0 .155-.155.31-.31.31h-.154zm-32.01.619v-1.083c0 .31.155.464.155.619l1.856 4.175h.31l1.855-4.175c0-.155.154-.31.154-.464v4.794h.619v-5.722h-.773l-1.701 3.866c0 .155-.155.31-.31.619 0-.155-.154-.31-.309-.619l-1.7-3.866h-.774v5.412h.619zm6.34 0h.62v3.402h-.62zm.31-1.237c.154 0 .154 0 .31-.155 0 0 .154-.155.154-.31 0-.154 0-.154-.155-.308-.155 0-.155-.155-.31-.155-.154 0-.154 0-.308.154 0 0-.155.155-.155.31 0 .154 0 .154.155.31 0 .154.154.154.309.154m4.175 4.639v-.619c-.31.155-.619.31-.928.31q-.696 0-.928-.464c-.309-.31-.309-.619-.309-1.083s.155-.773.464-1.082q.464-.465.928-.464c.31 0 .618.154.928.309v-.618H12.25c-.618 0-1.082.154-1.546.618-.31.464-.619.928-.619 1.546q0 .928.464 1.392c.31.31.773.619 1.392.619.618-.155.928-.155 1.237-.464m1.546-1.701c0-.464.155-.773.31-1.083.154-.154.463-.309.618-.309s.31 0 .464.155v-.773h-.31c-.154 0-.463 0-.618.154-.154.155-.31.31-.464.619v-.773h-.618v3.865h.618zm3.557 2.01c.618 0 1.082-.155 1.392-.618.309-.31.464-.928.464-1.547s-.155-1.082-.464-1.546q-.465-.465-1.392-.464-.928 0-1.392.464c-.31.309-.618.928-.618 1.546q0 .928.464 1.392c.463.618.927.773 1.546.773m-.928-3.093c.31-.309.619-.309.928-.309.464 0 .773.155.928.31.154.309.309.618.309 1.082s-.155.928-.31 1.082q-.231.465-.927.464-.696 0-.928-.464c-.31-.31-.31-.618-.31-1.082s.155-.928.31-1.083m5.567 2.784c.31-.155.31-.464.31-.773 0-.31-.155-.464-.31-.774-.155-.154-.464-.309-.773-.464-.31-.154-.464-.309-.619-.309-.154-.154-.154-.154-.154-.464 0-.154 0-.309.154-.464.155-.154.31-.154.464-.154.31 0 .619.154.928.309v-.618H22.3c-.463 0-.773.154-.927.309a.85.85 0 0 0-.464.773c0 .31.154.464.309.773.155.155.31.31.773.464.31.155.464.31.619.31.154.154.154.154.154.309 0 .309-.309.618-.773.618-.31 0-.773-.154-1.082-.31v.62c.309.154.618.309.927.309.464-.155.928-.31 1.083-.464m3.093-3.712q-.928 0-1.392.464c-.31.31-.619.928-.619 1.547q0 .927.464 1.392c.31.309.773.618 1.392.618s1.082-.155 1.392-.618c.309-.31.464-.928.464-1.547s-.155-1.082-.464-1.546a2.9 2.9 0 0 0-1.237-.31m1.237 2.01c0 .465-.155.929-.31 1.083q-.231.465-.927.464-.696 0-.928-.464c-.31-.31-.31-.618-.31-1.082s.155-.928.31-1.083c.31-.309.618-.309.928-.309.463 0 .773.155.927.31.155.154.31.618.31 1.082m1.546 2.011h.619v-3.402h.927v-.618h-.927v-.619c0-.619.154-.773.618-.773.155 0 .31 0 .464.154v-.618h-.464c-.31 0-.618.154-.773.31-.31.308-.464.618-.464 1.082v.464h-.619v.463h.619zm2.629-1.082c0 .773.31 1.082 1.082 1.082.31 0 .464 0 .619-.155v-.463c-.155.154-.31.154-.464.154s-.31 0-.464-.154c-.155-.155-.155-.31-.155-.62v-2.164h.928v-.618h-.928v-1.083c-.154 0-.463.155-.618.155v.928h-.619v.463h.619zm67.111 7.113a1.18 1.18 0 0 0-.773-.31c-.31 0-.619.155-.773.31-.155.154-.31.464-.31.773 0 .31.155.618.31.773.154.155.464.31.773.31.31 0 .618-.155.773-.31s.31-.464.31-.773c0-.31 0-.464-.31-.773m0 1.546c-.154.155-.464.31-.618.31-.31 0-.464-.155-.619-.31a1.18 1.18 0 0 1-.31-.773c0-.31.155-.464.31-.619s.464-.309.773-.309c.31 0 .464.155.619.31.154.154.309.463.309.618-.155.31-.31.618-.464.773m-.618-.618c.154 0 .154 0 .309-.155 0 0 .154-.155.154-.31 0-.154 0-.154-.154-.309-.155 0-.155-.154-.464-.154h-.464v1.391h.155v-.618h.154c.155 0 .155.154.31.31l.154.308h.31l-.155-.309c-.155-.154-.155-.154-.31-.154m-.155-.155h-.155v-.464h.465v.155c0 .154-.155.309-.31.309M62.816 63.97h.154v-1.39h.464v-.155h-1.082v.154h.464zm1.082-1.082v-.309zl.619 1.082h.154l.464-1.237v-.155 1.392h.155v-1.546h-.155l-.464 1.082-.464-1.082h-.309v1.546h.155z"/><defs><linearGradient id="a" x1="45.292" x2="47.514" y1="59.177" y2="57.864" gradientUnits="userSpaceOnUse"><stop stop-color="#909CA9"/><stop offset="1" stop-color="#EDEDEE"/></linearGradient><linearGradient id="b" x1="45.38" x2="47.167" y1="15.694" y2="15.694" gradientUnits="userSpaceOnUse"><stop stop-color="#939FAB"/><stop offset="1" stop-color="#DCDEE1"/></linearGradient><radialGradient id="c" cx="0" cy="0" r="1" gradientTransform="matrix(-2.27946 -.34246 .68508 -4.56004 60.464 29.047)" gradientUnits="userSpaceOnUse"><stop stop-color="#EE352C"/><stop offset="1" stop-color="#A91D22"/></radialGradient></defs></svg>