<svg width="100" height="100" viewBox="0 0 100 100" fill="none" xmlns="http://www.w3.org/2000/svg">
<path d="M67.3962 35.1643L56.5738 38.6838L47.1592 42.8192L44.5196 43.5231C43.8157 44.139 43.1118 44.8429 42.4079 45.4588C41.6161 46.1627 40.8242 46.8666 40.2083 47.3065C39.5044 47.8344 38.5365 48.8023 38.0966 49.4182C37.3927 50.386 36.7768 51.3539 36.5128 52.0578C36.0729 53.4656 36.2489 54.7854 37.1287 56.1052C38.2725 57.7769 40.4722 59.3607 43.0239 60.5045C44.3437 61.1204 46.5433 61.8243 48.2151 62.2643C50.9427 62.9682 56.3099 63.7601 59.3014 63.848C59.9173 63.848 60.7092 63.848 60.7092 63.848C60.7972 63.848 61.2371 62.9682 61.7651 61.8243C63.6128 58.1289 64.8446 54.6974 65.6365 51.7058C66.0764 49.9461 66.4284 47.4825 66.6043 44.6669C66.6923 43.875 66.6923 41.2354 66.6043 40.3555C66.5163 38.8598 66.4284 37.7159 66.1644 36.4841C66.1644 36.3081 66.1644 36.1322 66.1644 36.1322C66.1644 36.1322 66.2524 36.0442 67.6602 35.6922L67.3962 35.1643ZM64.9326 36.6601C65.0206 36.6601 65.2845 39.1237 65.3725 40.7075C65.3725 41.0594 65.3725 41.2354 65.3725 41.2354C65.2845 41.2354 63.9647 40.4435 63.0849 39.9156C62.293 39.3877 60.7092 38.3318 60.4452 38.1559C60.3573 38.0679 60.3573 38.0679 61.0612 37.8919C62.205 37.452 64.8446 36.6601 64.9326 36.6601ZM59.4774 38.4198C59.5654 38.4198 59.7414 38.5078 60.1813 38.7718C61.8531 39.8276 64.1407 41.0594 65.1086 41.4994C65.3725 41.5873 65.4605 41.5874 64.7566 42.0273C63.2608 43.0831 61.4131 44.051 59.1254 45.0188C58.6855 45.1948 58.4216 45.3708 58.4216 45.3708C58.4216 45.3708 58.4216 45.1948 58.5096 44.9309C59.0375 42.9072 59.3894 40.8835 59.3894 39.2117C59.3894 38.4198 59.3894 38.4198 59.4774 38.4198ZM58.3336 38.8598C58.4216 38.9477 58.3336 40.7075 58.2456 41.2354C58.0696 42.4672 57.8936 43.5231 57.4537 44.7549C57.3657 45.0188 57.2777 45.2828 57.2777 45.2828C57.2777 45.2828 56.1339 44.227 55.782 43.787C55.166 43.0831 54.6381 42.2912 54.2862 41.5874C54.1102 41.2354 53.8462 40.5315 53.8462 40.4435C54.0222 40.5315 58.3336 38.8598 58.3336 38.8598ZM52.9664 40.9714C52.9664 40.9714 53.0544 41.1474 53.1423 41.2354C53.4063 41.9393 54.0222 42.9951 54.4622 43.699C54.9901 44.4029 55.782 45.1948 56.3099 45.7227C56.4859 45.8987 56.6618 46.0747 56.7498 46.0747C56.8378 46.1627 56.8378 46.0747 55.518 46.6026C53.9342 47.2185 52.2625 47.7464 50.3268 48.3623C49.8868 48.5383 49.4469 48.6263 48.919 48.8023C48.831 48.8023 48.831 48.8023 49.0949 48.4503C50.0628 46.9546 51.4706 44.051 52.3505 41.9393C52.5264 41.5873 52.6144 41.2354 52.6144 41.1474C52.6144 41.0594 52.7024 40.9714 52.7904 40.9714C52.8784 40.9714 52.9664 40.9714 52.9664 40.9714ZM51.3826 41.6753C51.3826 41.6753 51.0307 42.5552 50.5907 43.3471C49.7989 44.9309 48.919 46.4266 47.7751 48.2744C47.5992 48.6263 47.4232 48.8903 47.3352 48.8903C47.3352 48.9783 47.2472 48.8903 47.1592 48.7143C46.8953 48.1864 46.6313 47.4825 46.5433 46.7786C46.4553 46.1627 46.4553 45.0188 46.5433 44.3149C46.6313 43.787 46.6313 43.787 46.8953 43.699C47.9511 43.1711 51.2946 41.5873 51.3826 41.6753ZM65.4605 42.2033V42.5552C65.4605 44.4029 65.2845 46.8666 65.0206 48.7143C64.9326 49.0662 64.9326 49.3302 64.9326 49.3302C64.9326 49.3302 64.6686 49.2422 64.4047 49.1542C63.1728 48.8023 61.8531 48.1864 60.6212 47.5705C59.8294 47.1305 58.6855 46.4266 58.6855 46.4266C58.6855 46.4266 59.0375 46.2507 59.4774 45.9867C61.0612 45.1948 62.6449 44.227 63.9647 43.3471C64.4926 42.9951 65.1965 42.4672 65.3725 42.2913L65.4605 42.2033ZM45.2235 44.6669C45.2235 44.6669 45.2235 44.7549 45.2235 45.0188C45.2235 45.1948 45.1355 45.6347 45.1355 45.8987C45.0475 47.1305 45.2235 48.0104 45.8394 49.1542C46.0154 49.5062 46.1034 49.7701 46.1034 49.7701C46.0154 49.8581 40.6482 51.4419 38.9764 51.8818C38.4485 52.0578 38.0086 52.1458 38.0086 52.1458C37.9206 52.1458 37.9206 52.1458 38.0086 52.0578C38.1846 50.826 39.1524 49.3302 40.3842 48.0104C41.2641 47.1305 41.88 46.6026 43.1118 45.9867C43.8157 45.3708 45.0476 44.6669 45.2235 44.6669C45.1355 44.6669 45.1355 44.6669 45.2235 44.6669ZM57.8936 46.9545C57.8936 46.9545 58.0696 47.0425 58.3336 47.2185C60.0933 48.2744 62.5569 49.1542 64.5806 49.6821H64.7566L64.4927 49.8581C63.4368 50.474 59.8294 51.9698 56.2219 53.2896C55.694 53.4656 55.166 53.6416 55.078 53.7295C54.9901 53.7295 54.9021 53.8175 54.9021 53.8175C54.9021 53.8175 55.0781 53.5536 55.254 53.2016C56.3099 51.2659 57.2777 48.9783 57.8056 47.3065C57.8936 47.0425 57.8936 46.9545 57.8936 46.9545ZM56.6618 47.3065C56.6618 47.3065 56.5738 47.4825 56.4858 47.6584C55.7819 49.4182 54.8141 51.2659 53.6703 53.3776C53.4063 53.9055 53.1423 54.3455 53.1423 54.3455C53.1423 54.3455 52.8784 54.1695 52.6144 53.9935C50.8547 52.9377 49.3589 51.6179 48.3031 50.386L48.1271 50.2101L48.831 50.0341C51.4706 49.3302 53.7582 48.5383 55.9579 47.5705C56.3978 47.4825 56.5738 47.3065 56.6618 47.3065ZM64.6686 50.1221C64.6686 50.2981 64.2287 51.9698 63.8767 53.2016C63.6128 54.2575 63.3488 55.0493 62.9089 56.4571C62.7329 57.073 62.5569 57.601 62.5569 57.601H62.469C60.0053 57.161 57.8936 56.5451 55.8699 55.7532C55.342 55.4893 54.4622 55.1373 54.4622 55.1373C54.4622 55.1373 54.9021 54.8734 55.518 54.6094C59.2134 53.0257 63.0849 51.1779 64.4047 50.386C64.5806 50.2101 64.6686 50.1221 64.6686 50.1221ZM46.1034 50.826C46.1034 50.826 45.0475 52.3218 43.6397 54.3455C43.1118 55.0494 42.5839 55.9292 42.3199 56.1932C42.056 56.5451 41.792 56.9851 41.6161 57.249L41.2641 57.7769L40.9122 57.425C40.4722 57.073 39.7683 56.2812 39.4164 55.8412C38.7125 54.9614 38.2726 54.0815 38.0966 53.2016C38.0086 52.8497 38.0086 52.5857 38.0966 52.5857C38.1846 52.5857 40.3842 52.0578 42.4079 51.5299C43.5518 51.2659 44.8716 51.002 45.3115 50.826C45.6635 50.914 46.1034 50.826 46.1034 50.826ZM47.0713 51.1779L47.3352 51.4419C48.479 52.7617 49.7108 53.7295 51.2066 54.6094C51.4706 54.7854 51.6466 54.8734 51.6466 54.8734C51.5586 54.8734 46.6313 56.7211 44.2557 57.513C42.9359 57.9529 41.88 58.3049 41.88 58.3049C41.88 58.3049 41.792 58.2169 41.704 58.2169L41.5281 58.1289L41.792 57.7769C42.5839 56.6331 43.5518 55.4893 45.6635 52.9377L47.0713 51.1779ZM53.6703 55.8412C53.6703 55.8412 54.0222 55.9292 54.4622 56.1052C55.518 56.5451 56.3979 56.7211 57.4537 57.073C58.8615 57.425 60.8852 57.7769 62.029 57.8649C62.205 57.8649 62.293 57.8649 62.293 57.9529C62.205 57.9529 61.0612 58.3928 60.1813 58.6568C58.7735 59.0967 54.4622 60.3286 51.0307 61.3844C50.4148 61.5604 49.7988 61.7364 49.7988 61.7364C49.7108 61.7364 49.4469 61.6484 49.4469 61.6484C49.4469 61.6484 49.6229 61.3844 49.8868 61.1204C51.0307 59.7127 52.2625 58.1289 53.2303 56.6331C53.4063 56.1932 53.6703 55.8412 53.6703 55.8412ZM52.1745 55.9292C52.1745 55.9292 51.6466 56.8971 50.5907 58.4808C50.1508 59.1847 49.7109 59.8886 49.5349 60.1526C49.3589 60.4165 49.0949 60.8565 49.007 61.0325L48.743 61.4724H48.655C48.391 61.3844 46.2794 60.6805 45.7515 60.4165C45.0476 60.1526 44.3437 59.8006 43.8157 59.5367C43.1998 59.1847 42.3199 58.6568 42.4079 58.6568C42.4079 58.6568 43.5518 58.3049 44.8716 57.9529C48.479 56.9851 50.4147 56.4571 51.7346 56.0172C51.9985 55.9292 52.1745 55.9292 52.1745 55.9292ZM62.381 58.3049C62.381 58.3929 61.0612 62.0883 60.6212 63.2321C60.5332 63.4961 60.4452 63.5841 60.4452 63.5841C60.2693 63.5841 58.4216 63.3201 57.1898 63.1441C55.1661 62.7922 51.7346 62.2643 50.8547 62.0003H50.6787L51.9105 61.7364C54.5501 61.1204 55.7819 60.8565 57.0138 60.4165C58.5975 59.8886 60.1813 59.2727 61.853 58.5688C62.117 58.3929 62.293 58.3049 62.381 58.3049Z" fill="url(#paint0_linear_1_6729)"/>
<path d="M56.3099 10C56.134 10 53.2304 11.0558 51.3827 11.7597C48.831 12.8156 46.8953 13.7834 45.6635 14.5753C45.2236 14.9273 44.6077 15.4552 44.5197 15.7191C44.5197 15.8071 44.4317 15.8951 44.4317 15.9831L45.4875 17.039L48.1271 17.8308L54.2862 18.9747L61.4132 20.2065L61.5012 19.5906C61.5012 19.5906 61.5012 19.5906 61.4132 19.5906L60.4453 19.4146L60.2693 19.0627C59.3015 17.3909 58.2456 15.2792 57.6297 13.8714C57.1898 12.7276 56.6619 11.4958 56.3979 10.6159C56.3979 10.088 56.3979 10 56.3099 10ZM56.1339 10.4399C56.1339 10.4399 56.2219 10.7039 56.2219 10.9679C56.3979 12.1117 56.5739 13.2555 57.0138 14.3993C57.2778 15.2792 57.2778 15.2792 56.9258 15.1032C56.1339 14.8393 52.3505 14.2234 49.6229 13.8714C49.183 13.7834 48.831 13.7834 48.831 13.7834C48.831 13.7834 50.7667 12.7276 51.6466 12.2877C52.8784 11.7597 55.958 10.4399 56.1339 10.4399ZM48.3031 14.0474L48.6551 14.1354C50.4148 14.7513 54.7262 15.5432 57.1018 15.7191C57.3658 15.7191 57.6297 15.8071 57.6297 15.8071C57.6297 15.8071 57.3658 15.8951 57.1018 16.0711C55.958 16.687 54.6382 17.3909 53.7583 17.9188C53.4943 18.0948 53.2304 18.1828 53.2304 18.1828C53.2304 18.1828 53.0544 18.1828 52.8784 18.0948L52.5265 18.0068L51.7346 17.2149C50.3268 15.8071 49.183 14.7513 48.7431 14.3114L48.3031 14.0474ZM47.9512 14.3114L49.095 15.7191C49.7109 16.511 50.3268 17.3029 50.5028 17.4789C50.6788 17.6549 50.7667 17.8308 50.7667 17.8308C50.7667 17.8308 49.095 17.5669 48.2151 17.3029C47.3353 17.1269 46.9833 17.039 46.3674 16.863L45.9275 16.687V16.599C45.9275 16.0711 46.6314 15.2792 47.7752 14.3993L47.9512 14.3114ZM57.7177 16.2471C57.7177 16.2471 57.8057 16.3351 57.8937 16.511C58.1576 17.1269 59.0375 18.7987 59.2135 19.0627C59.3015 19.1506 59.3895 19.1507 58.2456 18.9747C55.518 18.5347 54.5502 18.3588 54.5502 18.3588C54.5502 18.3588 54.6382 18.2708 54.7262 18.2708C55.606 17.8308 56.4859 17.2149 57.1898 16.511C57.5417 16.511 57.7177 16.3351 57.7177 16.2471Z" fill="url(#paint1_linear_1_6729)"/>
<path d="M44.6074 15.6312C44.6074 15.6312 44.4315 15.8952 44.6074 16.3351C44.6954 16.5991 45.0474 16.951 45.3993 17.215C45.3993 17.215 49.0068 20.7345 49.4467 21.2624C51.4704 23.55 52.3503 25.8377 52.4383 29.0052C52.5263 31.0289 52.0863 32.7887 51.1185 34.9004C49.4467 38.5958 45.8393 42.7312 40.2961 47.2185L41.088 46.9546C41.6159 46.6026 42.3198 46.1627 43.9915 45.1948C47.863 43.0831 52.1743 41.1474 57.4535 39.1237C65.1084 36.2202 77.6905 32.8767 84.8175 31.8208L85.5214 31.7328L85.4334 31.5568C84.8175 30.501 84.2895 29.8851 83.7616 29.2692C82.1778 27.3335 80.3301 25.7497 77.9545 24.4299C74.7869 22.6702 70.6516 21.2624 65.3724 20.2065C64.4045 20.0306 62.2048 19.6786 60.4451 19.3267C56.7496 18.7108 54.286 18.3588 51.6464 17.9189C50.6785 17.7429 49.2708 17.4789 48.3029 17.303C47.775 17.215 46.8951 16.951 46.1032 16.6871C45.6633 16.5111 44.7834 16.3351 44.6074 15.6312ZM46.7191 17.6549C46.7191 17.6549 46.8951 17.6549 47.0711 17.7429C47.423 17.8309 47.775 18.0069 48.2149 18.0949C48.5669 18.1828 48.9188 18.2708 49.2708 18.3588C49.7987 18.4468 50.1506 18.6228 50.1506 18.6228C50.2386 18.7108 51.0305 21.3504 51.2944 22.3182C51.3824 22.6702 51.4704 23.0221 51.4704 23.0221C51.4704 23.0221 51.3824 22.9341 51.2944 22.6702C50.3266 20.9984 48.8308 19.2387 47.0711 17.9189C46.8951 17.8309 46.7191 17.6549 46.7191 17.6549ZM50.7665 18.7987C50.7665 18.7987 51.0305 18.7988 51.2065 18.8867C52.6142 19.2387 55.0779 19.6786 56.6617 19.9426C56.9256 19.9426 57.1016 20.0306 57.1016 20.0306C57.1016 20.0306 57.0136 20.1186 56.8376 20.2065C56.5737 20.3825 55.5178 20.9984 55.1659 21.2624C54.286 21.8783 53.4061 22.4942 52.8782 23.1101C52.6142 23.3741 52.4383 23.55 52.4383 23.55C52.4383 23.55 52.3503 23.3741 52.3503 23.1981C52.0863 22.0543 51.4704 20.3825 50.8545 19.2387C50.7665 18.9747 50.7665 18.7987 50.7665 18.7987ZM57.8055 20.1185C57.8935 20.1185 57.8935 20.3825 58.0694 20.9984C58.3334 22.1422 58.5094 23.4621 58.4214 24.6939C58.4214 25.0458 58.4214 25.3978 58.3334 25.3978V25.4858L57.8935 25.3098C57.0136 25.0458 55.6058 24.6059 54.374 24.2539C53.6701 24.078 53.1422 23.902 53.1422 23.902C53.1422 23.814 54.198 22.8462 54.55 22.4942C55.5178 21.7903 57.7175 20.1185 57.8055 20.1185ZM58.3334 20.2065C58.3334 20.2065 61.6769 20.7345 63.2607 21.0864C64.4045 21.3504 66.0762 21.6143 66.1642 21.7023C66.2522 21.7023 66.0763 21.7903 65.4603 22.0543C63.3487 23.0221 61.6769 23.902 60.0931 24.9578C59.6532 25.2218 59.3013 25.4858 59.3013 25.4858C59.3013 25.4858 59.3013 25.2218 59.3013 24.9578C59.3013 23.3741 58.9493 21.8783 58.4214 20.5585C58.4214 20.3825 58.3334 20.2065 58.3334 20.2065ZM67.0441 21.9663C67.0441 21.9663 66.9561 22.6702 66.8681 23.0221C66.6042 24.2539 65.8123 26.0137 64.8444 27.7734C64.6685 28.0374 64.4925 28.3013 64.4925 28.3013C64.4925 28.3013 64.2285 28.2133 63.9646 28.0374C62.9967 27.5094 61.9409 26.9815 60.797 26.4536C60.4451 26.2776 60.1811 26.1897 60.1811 26.1897C60.0931 26.1017 62.7327 24.4299 64.1405 23.55C65.1964 22.8462 67.0441 21.8783 67.0441 21.9663ZM67.66 22.0543C67.748 22.0543 69.2438 22.4942 70.0356 22.6702C71.9714 23.1981 74.1711 24.078 75.5788 24.6939L76.1947 24.9578L75.7548 25.0458C72.2353 25.8377 69.2438 26.8056 66.3402 27.9494C66.0763 28.0374 65.9003 28.1254 65.9003 28.1254C65.9003 28.1254 65.9883 27.9494 66.0762 27.6854C66.9561 25.8377 67.484 23.902 67.66 22.2302C67.572 22.1423 67.66 22.0543 67.66 22.0543ZM52.8782 25.3978C52.8782 25.3978 54.022 25.6617 54.6379 25.8377C55.6058 26.1017 57.5415 26.7176 57.5415 26.8056C57.5415 26.8056 57.2776 26.9815 57.1016 27.2455C56.0457 28.1254 54.9899 29.0932 53.7581 30.237C53.4061 30.589 53.0542 30.853 53.0542 30.853V30.765C53.2302 29.3572 53.2302 27.5974 52.9662 25.8377C52.8782 25.6617 52.8782 25.3978 52.8782 25.3978ZM76.7227 25.4858C76.7227 25.4858 76.1947 26.3656 75.8428 26.8056C75.3149 27.5095 74.611 28.4773 73.0272 30.501C72.1474 31.5569 71.1795 32.7887 70.9155 33.2286C70.5636 33.6685 70.2996 34.0205 70.2996 34.0205C70.2996 34.0205 70.2116 33.8445 70.0356 33.6685C69.1558 32.2608 68.012 31.1169 66.6922 30.0611C66.4282 29.8851 66.1642 29.6211 66.0762 29.5332C65.9883 29.4452 65.9003 29.4452 65.9003 29.3572C65.9003 29.3572 67.3081 28.7413 68.3639 28.3013C70.2116 27.5095 72.7633 26.6296 74.611 26.1017C75.6668 25.7497 76.7227 25.3978 76.7227 25.4858ZM77.3386 25.5737C77.3386 25.5737 77.6025 25.6617 77.7785 25.8377C79.8022 26.9815 81.7379 28.4773 83.2337 29.9731C83.6736 30.413 84.7295 31.4689 84.7295 31.5568C84.7295 31.5568 84.3775 31.5569 83.9376 31.6448C80.5061 31.9088 76.1068 32.6127 71.8834 33.6685C71.6194 33.7565 71.3555 33.7565 71.3555 33.7565C71.3555 33.7565 71.6194 33.4046 72.0594 33.0526C74.523 30.677 75.6668 29.1812 76.9866 26.4536C77.1626 26.0137 77.3386 25.6617 77.3386 25.5737ZM59.1253 27.5095C59.2133 27.5095 60.2691 28.0374 61.061 28.3893C61.7649 28.7413 62.9087 29.3572 62.9967 29.3572C62.9967 29.3572 62.6447 29.5331 62.1168 29.7971C60.621 30.589 59.3013 31.2929 57.8935 32.0848C57.5415 32.3487 57.1896 32.5247 57.1896 32.5247C57.1896 32.5247 57.1896 32.5247 57.3655 32.0848C58.0694 30.765 58.6853 29.1812 59.0373 27.5974C59.1253 27.5094 59.1253 27.5095 59.1253 27.5095ZM58.0694 27.6854C58.0694 27.6854 57.8055 28.7413 57.6295 29.2692C57.2776 30.325 56.7496 31.6448 56.2217 32.6127C56.1337 32.8767 55.8698 33.1406 55.7818 33.4046L55.6058 33.7565L55.1659 33.3166C54.6379 32.7887 54.198 32.5247 53.6701 32.1728C53.4061 32.0848 53.3181 31.9968 53.3181 31.9088C53.3181 31.8208 54.7259 30.589 55.7818 29.6211C56.4857 28.9172 58.0694 27.5974 58.0694 27.6854ZM64.5805 30.325L65.0204 30.589C65.9003 31.2049 67.0441 31.9968 67.836 32.7007C68.2759 33.0526 69.1558 33.9325 69.4198 34.1085L69.5077 34.1965L68.8038 34.3724C65.1084 35.4283 62.2048 36.3081 58.7733 37.54C58.4214 37.7159 58.0694 37.8039 58.0694 37.8039C57.9815 37.8039 57.9815 37.8039 58.8613 37.1C60.973 35.0763 62.9087 32.9646 64.3165 30.765L64.5805 30.325ZM62.9087 30.765C62.9087 30.765 61.7649 32.3487 61.149 33.2286C60.3571 34.2845 58.9493 36.0442 57.9815 37.188C57.5415 37.628 57.1896 38.0679 57.1896 38.0679C57.1896 38.0679 57.1896 37.9799 57.1896 37.8039C57.1896 36.8361 56.9256 35.7802 56.4857 34.9004C56.3097 34.5484 56.2217 34.4604 56.3097 34.3724C56.4857 34.1965 58.8613 32.8767 60.3571 32.0848C61.237 31.5569 62.8207 30.765 62.9087 30.765ZM52.5263 33.3166C52.5263 33.3166 52.7022 33.4046 52.9662 33.4926C53.4941 33.7565 53.9341 34.1085 54.374 34.4604C54.374 34.4604 54.198 34.6364 53.9341 34.8124C53.1422 35.3403 51.9983 36.2202 51.2944 36.8361C50.5906 37.364 50.5906 37.452 50.5906 37.276C51.1185 36.4841 51.3824 35.9562 51.6464 35.4283C51.9103 34.9004 52.1743 34.2844 52.3503 33.7565C52.4383 33.4926 52.5263 33.3166 52.5263 33.3166ZM55.3418 35.4283C55.3418 35.4283 55.4298 35.5163 55.6938 35.7802C56.1337 36.4841 56.4857 37.364 56.5737 38.1559V38.3319L55.4298 38.7718C53.4061 39.5637 51.5584 40.3555 50.3266 40.8835C49.9746 41.0594 49.3587 41.3234 49.0068 41.4994C48.5668 41.6753 48.3029 41.8513 48.3029 41.8513C48.3029 41.8513 48.5669 41.6754 48.8308 41.4114C51.2945 39.6517 53.4061 37.7159 54.9899 35.7802C55.1659 35.6042 55.2539 35.4283 55.3418 35.4283ZM54.022 35.7802C54.022 35.7802 53.1422 36.8361 52.5263 37.54C50.9425 39.1237 49.3587 40.4435 47.423 41.5874C47.1591 41.7633 46.9831 41.8513 46.8951 41.9393C46.8071 41.9393 46.8951 41.8513 47.775 40.9715C48.3029 40.3556 48.7428 39.9156 49.1828 39.2997C49.5347 38.8598 49.5347 38.8598 49.9746 38.5078C51.2944 37.628 54.022 35.6922 54.022 35.7802Z" fill="url(#paint2_radial_1_6729)"/>
<path d="M18.7448 69.5377C18.5902 69.5377 18.4355 69.5377 18.2809 69.5377C15.1882 69.6923 13.178 71.0841 11.9409 73.7128C10.8585 76.0324 11.0131 79.125 11.9409 81.5992C13.0233 83.9187 14.7243 85.1558 17.6624 85.6197C18.2809 85.7743 18.7448 86.0836 19.8272 87.4753L21.219 89.1763H23.8477L22.3014 87.3207C21.3736 86.3928 20.6004 85.465 20.6004 85.465C20.6004 85.465 20.9097 85.1558 21.3736 85.1558C22.9199 84.6919 24.157 83.6094 24.9302 81.7538C25.7033 80.3621 25.7033 79.8982 25.858 78.1972C26.0126 72.785 23.2292 69.5377 18.7448 69.5377ZM21.0643 83.3002C19.8272 83.9187 17.9716 84.0733 16.7346 83.6094C15.4975 83.1455 14.2604 81.7538 13.6419 80.3621C13.0233 78.6611 13.178 75.7231 13.7965 74.3314C14.8789 72.1665 16.4253 71.2387 18.5902 71.2387C21.8375 71.2387 23.6931 73.2489 23.8477 76.9602C24.0024 80.0528 23.0746 82.3724 21.0643 83.3002ZM66.8361 74.0221C65.7536 74.0221 64.8258 74.486 64.3619 75.4138L63.898 76.187V74.3314H62.0424V85.3104H63.898V81.7538C63.898 78.5065 63.898 78.1972 64.3619 77.2694C64.9805 76.0323 66.0629 75.4138 66.9907 75.7231L67.6092 75.8777V74.0221H66.8361ZM55.5478 73.8675C55.2385 73.8675 54.7746 73.8675 54.3107 74.0221C51.6819 74.6406 50.2902 77.1148 50.4448 79.7436C50.4448 81.9085 50.9087 82.9909 51.8365 84.0733C54.0014 85.7743 55.857 85.9289 58.3312 85.0011C58.7951 84.8465 59.259 84.5372 59.259 84.5372V82.8363L58.3312 83.3002C56.3209 84.228 54.62 84.228 53.3829 83.1455C52.6097 82.3724 52.3004 81.2899 52.1458 80.2075H59.8775V78.6611C60.0322 75.7231 58.1765 73.8675 55.5478 73.8675ZM52.4551 78.8158C52.4551 78.8158 52.7643 76.9602 53.8468 76.187C54.3107 75.8777 54.9292 75.7231 55.5478 75.7231C56.1663 75.7231 56.6302 75.8777 57.2487 76.3416C58.1765 77.1148 58.3312 78.9704 58.3312 78.9704L52.4551 78.8158ZM5.91016 76.8055C3.74528 75.5684 2.81747 74.6406 2.9721 73.5582C3.28137 70.6201 6.9926 70.9294 9.00284 72.1665V70.1562C9.00284 70.1562 7.9204 69.6923 6.21942 69.6923C3.74528 69.6923 2.19893 70.4655 1.42576 72.1665C0.343322 74.6406 1.27113 76.4963 4.82772 78.5065C6.83796 79.5889 7.61113 80.6714 7.61113 81.7538C7.61113 84.0733 4.82772 84.8465 2.0443 83.4548C1.73503 82.8363 1.27113 82.6816 1.11649 82.6816C0.961859 83.3002 1.11649 84.8465 1.11649 84.8465C1.11649 84.8465 2.0443 85.1558 3.28137 85.465C6.52869 86.0836 9.46675 84.5372 9.62138 82.2177C9.93065 79.8982 9.15748 78.6611 5.91016 76.8055ZM84.0005 73.8675C83.6912 73.8675 83.2273 73.8675 82.7634 74.0221C80.1346 74.6406 78.7429 77.1148 78.8975 79.7436C78.8975 81.9085 79.3614 82.9909 80.2893 84.0733C82.4541 85.7743 84.3097 85.9289 86.9385 85.0011C87.4024 84.8465 87.8663 84.5372 87.8663 84.5372V82.8363L86.9385 83.3002C84.9283 84.228 83.2273 84.228 81.9902 83.1455C81.2171 82.3724 80.9078 81.4446 80.5985 80.2075H88.3302V78.6611C88.3302 75.7231 86.6293 73.8675 84.0005 73.8675ZM80.7532 78.6611C80.7532 78.6611 81.0624 76.8055 82.1449 76.0324C82.6088 75.7231 83.2273 75.5684 83.8458 75.5684C84.4644 75.5684 84.9283 75.7231 85.5468 76.187C86.4746 76.9602 86.6293 78.8158 86.6293 78.8158L80.7532 78.6611ZM45.4965 76.8055C43.3317 75.5684 42.5585 74.6406 42.5585 73.5582C42.8678 70.6201 46.579 70.9294 48.5892 72.1665V70.1562C48.5892 70.1562 47.5068 69.6923 45.8058 69.6923C43.3317 69.6923 41.7853 70.4655 41.0121 72.1665C39.9297 74.6406 40.8575 76.4963 44.4141 78.5065C46.4243 79.5889 47.1975 80.6714 47.1975 81.7538C47.1975 84.0733 44.4141 84.8465 41.6307 83.4548C41.0121 83.1455 40.5482 82.9909 40.5482 82.9909C40.3936 83.6094 40.5482 85.1558 40.5482 85.1558C40.5482 85.1558 41.476 85.465 42.7131 85.7743C45.9604 86.3928 48.8985 84.8465 49.0531 82.527C49.3624 79.8982 48.5892 78.6611 45.4965 76.8055ZM95.2888 74.0221C94.2063 74.0221 93.2785 74.486 92.8146 75.4138L92.3507 76.187V74.3314H90.4951V85.3104H92.3507V81.7538C92.3507 78.5065 92.3507 78.1972 92.8146 77.2694C93.4332 76.0323 94.5156 75.4138 95.4434 75.7231L96.062 75.8777V74.0221H95.2888ZM30.1877 76.8055V69.847H28.1775V85.3104H36.3731V83.4548H30.1877V76.8055ZM75.0317 78.9704L73.4853 83.1455L71.939 78.9704L70.3927 74.3314H68.3824C69.6195 78.0426 71.0112 81.7538 72.5575 85.3104C73.1761 85.3104 73.7946 85.3104 74.4131 85.3104L76.578 79.8982L78.7429 74.3314H76.8873C76.7327 74.1767 75.9595 76.4963 75.0317 78.9704ZM34.6721 65.5172C34.9814 65.5172 35.2907 65.3626 35.4453 65.208C35.5999 65.0533 35.7546 64.744 35.7546 64.4348C35.7546 64.1255 35.5999 63.8162 35.4453 63.6616C35.2907 63.507 34.9814 63.3523 34.6721 63.3523C34.3629 63.3523 34.0536 63.507 33.899 63.6616C33.5897 63.8162 33.5897 64.1255 33.5897 64.4348C33.5897 64.744 33.7443 65.0533 33.899 65.208C34.0536 65.3626 34.3629 65.5172 34.6721 65.5172ZM33.899 63.8162C34.0536 63.6616 34.3629 63.507 34.6721 63.507C34.9814 63.507 35.136 63.6616 35.2907 63.8162C35.4453 63.9709 35.5999 64.2801 35.5999 64.4348C35.5999 64.744 35.4453 64.8987 35.2907 65.208C35.136 65.3626 34.8268 65.5172 34.6721 65.5172C34.3629 65.5172 34.2082 65.3626 34.0536 65.208C33.899 65.0533 33.7443 64.744 33.7443 64.4348C33.5897 64.1255 33.7443 63.9709 33.899 63.8162ZM34.3629 64.5894C34.5175 64.5894 34.6721 64.744 34.6721 64.8987L34.8268 65.208H35.136L34.9814 64.8987C34.9814 64.744 34.8268 64.5894 34.6721 64.5894C34.8268 64.5894 34.8268 64.5894 34.9814 64.4348C34.9814 64.4348 35.136 64.2801 35.136 64.1255C35.136 63.9709 35.136 63.9709 34.9814 63.8162C34.8268 63.8162 34.8268 63.6616 34.5175 63.6616H34.0536V65.0533H34.2082L34.3629 64.5894ZM34.3629 63.8162H34.5175C34.6721 63.8162 34.6721 63.8162 34.8268 63.8162V63.9709C34.8268 64.1255 34.6721 64.2801 34.5175 64.2801H34.3629V63.8162ZM2.35357 64.4348C2.35357 63.9709 2.35357 63.507 2.35357 63.3523C2.35357 63.6616 2.5082 63.8162 2.5082 63.9709L4.36381 68.146H4.67308L6.52869 63.9709C6.52869 63.8162 6.68333 63.6616 6.68333 63.507C6.68333 63.9709 6.68333 64.2801 6.68333 64.5894V68.3006H7.30187V62.5792H6.52869L4.82772 66.445C4.82772 66.5997 4.67308 66.7543 4.51845 67.0636C4.51845 66.9089 4.36381 66.7543 4.20918 66.445L2.5082 62.5792H1.73503V67.9914H2.35357V64.4348ZM8.69357 64.4348H9.31211V67.8367H8.69357V64.4348ZM9.00284 63.1977C9.15748 63.1977 9.15748 63.1977 9.31211 63.0431C9.31211 63.0431 9.46675 62.8884 9.46675 62.7338C9.46675 62.5792 9.46675 62.5792 9.31211 62.4245C9.15748 62.4245 9.15748 62.2699 9.00284 62.2699C8.84821 62.2699 8.84821 62.2699 8.69357 62.4245C8.69357 62.4245 8.53894 62.5792 8.53894 62.7338C8.53894 62.8884 8.53894 62.8884 8.69357 63.0431C8.69357 63.1977 8.84821 63.1977 9.00284 63.1977ZM13.178 67.8367V67.2182C12.8687 67.3728 12.5594 67.5275 12.2502 67.5275C11.7863 67.5275 11.477 67.3728 11.3224 67.0636C11.0131 66.7543 11.0131 66.445 11.0131 65.9811C11.0131 65.5172 11.1677 65.208 11.477 64.8987C11.7863 64.5894 12.0955 64.4348 12.4048 64.4348C12.7141 64.4348 13.0233 64.5894 13.3326 64.744V64.1255C12.8687 64.1255 12.5594 64.1255 12.2502 64.1255C11.6316 64.1255 11.1677 64.2801 10.7038 64.744C10.3946 65.208 10.0853 65.6719 10.0853 66.2904C10.0853 66.9089 10.2399 67.3728 10.5492 67.6821C10.8585 67.9914 11.3224 68.3006 11.9409 68.3006C12.5594 68.146 12.8687 68.146 13.178 67.8367ZM14.7243 66.1358C14.7243 65.6719 14.8789 65.3626 15.0336 65.0533C15.1882 64.8987 15.4975 64.744 15.6521 64.744C15.8068 64.744 15.9614 64.744 16.116 64.8987V64.1255C15.9614 64.1255 15.9614 64.1255 15.8068 64.1255C15.6521 64.1255 15.3428 64.1255 15.1882 64.2801C15.0336 64.4348 14.8789 64.5894 14.7243 64.8987V64.1255H14.1058V67.9914H14.7243V66.1358ZM18.2809 68.146C18.8994 68.146 19.3633 67.9914 19.6726 67.5275C19.9819 67.2182 20.1365 66.5997 20.1365 65.9811C20.1365 65.3626 19.9819 64.8987 19.6726 64.4348C19.3633 64.1255 18.8994 63.9709 18.2809 63.9709C17.6624 63.9709 17.1985 64.1255 16.8892 64.4348C16.5799 64.744 16.2707 65.3626 16.2707 65.9811C16.2707 66.5997 16.4253 67.0636 16.7346 67.3728C17.1985 67.9914 17.6624 68.146 18.2809 68.146ZM17.3531 65.0533C17.6624 64.744 17.9716 64.744 18.2809 64.744C18.7448 64.744 19.0541 64.8987 19.2087 65.0533C19.3633 65.3626 19.518 65.6719 19.518 66.1358C19.518 66.5997 19.3633 67.0636 19.2087 67.2182C19.0541 67.5275 18.7448 67.6821 18.2809 67.6821C17.817 67.6821 17.5077 67.5275 17.3531 67.2182C17.0438 66.9089 17.0438 66.5997 17.0438 66.1358C17.0438 65.6719 17.1985 65.2079 17.3531 65.0533ZM22.9199 67.8367C23.2292 67.6821 23.2292 67.3728 23.2292 67.0636C23.2292 66.7543 23.0746 66.5997 22.9199 66.2904C22.7653 66.1358 22.456 65.9811 22.1468 65.8265C21.8375 65.6719 21.6829 65.5172 21.5282 65.5172C21.3736 65.3626 21.3736 65.3626 21.3736 65.0533C21.3736 64.8987 21.3736 64.744 21.5282 64.5894C21.6829 64.4348 21.8375 64.4348 21.9921 64.4348C22.3014 64.4348 22.6107 64.5894 22.9199 64.744V64.1255C22.9199 64.1255 22.6107 64.1255 22.3014 64.1255C21.8375 64.1255 21.5282 64.2801 21.3736 64.4348C21.0643 64.5894 20.9097 64.8987 20.9097 65.208C20.9097 65.5172 21.0643 65.6719 21.219 65.9811C21.3736 66.1358 21.5282 66.2904 21.9921 66.445C22.3014 66.5997 22.456 66.7543 22.6107 66.7543C22.7653 66.9089 22.7653 66.9089 22.7653 67.0636C22.7653 67.3728 22.456 67.6821 21.9921 67.6821C21.6829 67.6821 21.219 67.5275 20.9097 67.3728V67.9914C21.219 68.146 21.5282 68.3006 21.8375 68.3006C22.3014 68.146 22.7653 67.9914 22.9199 67.8367ZM26.0126 64.1255C25.3941 64.1255 24.9302 64.2801 24.6209 64.5894C24.3116 64.8987 24.0024 65.5172 24.0024 66.1358C24.0024 66.7543 24.157 67.2182 24.4663 67.5275C24.7755 67.8367 25.2394 68.146 25.858 68.146C26.4765 68.146 26.9404 67.9914 27.2497 67.5275C27.559 67.2182 27.7136 66.5997 27.7136 65.9811C27.7136 65.3626 27.559 64.8987 27.2497 64.4348C26.9404 64.2801 26.4765 64.1255 26.0126 64.1255ZM27.2497 66.1358C27.2497 66.5997 27.0951 67.0636 26.9404 67.2182C26.7858 67.5275 26.4765 67.6821 26.0126 67.6821C25.5487 67.6821 25.2394 67.5275 25.0848 67.2182C24.7755 66.9089 24.7755 66.5997 24.7755 66.1358C24.7755 65.6719 24.9302 65.2079 25.0848 65.0533C25.3941 64.744 25.7033 64.744 26.0126 64.744C26.4765 64.744 26.7858 64.8987 26.9404 65.0533C27.0951 65.2079 27.2497 65.6719 27.2497 66.1358ZM28.796 68.146H29.4146V64.744H30.3424V64.1255H29.4146V63.507C29.4146 62.8884 29.5692 62.7338 30.0331 62.7338C30.1877 62.7338 30.3424 62.7338 30.497 62.8884V62.2699C30.3424 62.2699 30.1877 62.2699 30.0331 62.2699C29.7238 62.2699 29.4146 62.4245 29.2599 62.5792C28.9507 62.8884 28.796 63.1977 28.796 63.6616V64.1255H28.1775V64.5894H28.796V68.146ZM31.4248 67.0636C31.4248 67.8367 31.7341 68.146 32.5073 68.146C32.8165 68.146 32.9712 68.146 33.1258 67.9914V67.5275C32.9712 67.6821 32.8165 67.6821 32.6619 67.6821C32.5073 67.6821 32.3526 67.6821 32.198 67.5275C32.0434 67.3728 32.0434 67.2182 32.0434 66.9089V64.744H32.9712V64.1255H32.0434V63.0431C31.8887 63.0431 31.5795 63.1977 31.4248 63.1977V64.1255H30.8063V64.5894H31.4248V67.0636ZM98.5361 74.1767C98.3815 74.0221 98.0722 73.8675 97.7629 73.8675C97.4537 73.8675 97.1444 74.0221 96.9898 74.1767C96.8351 74.3314 96.6805 74.6406 96.6805 74.9499C96.6805 75.2592 96.8351 75.5684 96.9898 75.7231C97.1444 75.8777 97.4537 76.0324 97.7629 76.0324C98.0722 76.0324 98.3815 75.8777 98.5361 75.7231C98.6907 75.5684 98.8454 75.2592 98.8454 74.9499C98.8454 74.6406 98.8454 74.486 98.5361 74.1767ZM98.5361 75.7231C98.3815 75.8777 98.0722 76.0324 97.9176 76.0324C97.6083 76.0324 97.4537 75.8777 97.299 75.7231C97.1444 75.5684 96.9898 75.2592 96.9898 74.9499C96.9898 74.6406 97.1444 74.486 97.299 74.3314C97.4537 74.1767 97.7629 74.0221 98.0722 74.0221C98.3815 74.0221 98.5361 74.1767 98.6907 74.3314C98.8454 74.486 99 74.7953 99 74.9499C98.8454 75.2592 98.6907 75.5684 98.5361 75.7231ZM97.9176 75.1045C98.0722 75.1045 98.0722 75.1045 98.2268 74.9499C98.2268 74.9499 98.3815 74.7953 98.3815 74.6406C98.3815 74.486 98.3815 74.486 98.2268 74.3314C98.0722 74.3314 98.0722 74.1767 97.7629 74.1767H97.299V75.5684H97.4537V74.9499H97.6083C97.7629 74.9499 97.7629 75.1045 97.9176 75.2592L98.0722 75.5684H98.3815L98.2268 75.2592C98.0722 75.1045 98.0722 75.1045 97.9176 75.1045ZM97.7629 74.9499H97.6083V74.486H97.7629C97.9176 74.486 97.9176 74.486 98.0722 74.486V74.6406C98.0722 74.7953 97.9176 74.9499 97.7629 74.9499ZM62.8156 63.9709H62.9702V62.5792H63.4341V62.4245H62.3517V62.5792H62.8156V63.9709ZM63.898 62.8884C63.898 62.7338 63.898 62.5792 63.898 62.5792C63.898 62.7338 63.898 62.7338 63.898 62.8884L64.5166 63.9709H64.6712L65.1351 62.7338V62.5792C65.1351 62.7338 65.1351 62.7338 65.1351 62.8884V63.9709H65.2897V62.4245H65.1351L64.6712 63.507L64.2073 62.4245H63.898V63.9709H64.0527L63.898 62.8884Z" fill="#231F1F"/>
<defs>
<linearGradient id="paint0_linear_1_6729" x1="45.2919" y1="59.1772" x2="47.5135" y2="57.8644" gradientUnits="userSpaceOnUse">
<stop stop-color="#909CA9"/>
<stop offset="1" stop-color="#EDEDEE"/>
</linearGradient>
<linearGradient id="paint1_linear_1_6729" x1="45.3797" y1="15.694" x2="47.1672" y2="15.694" gradientUnits="userSpaceOnUse">
<stop stop-color="#939FAB"/>
<stop offset="1" stop-color="#DCDEE1"/>
</linearGradient>
<radialGradient id="paint2_radial_1_6729" cx="0" cy="0" r="1" gradientUnits="userSpaceOnUse" gradientTransform="translate(60.4636 29.0468) rotate(-171.456) scale(2.30504 4.61121)">
<stop stop-color="#EE352C"/>
<stop offset="1" stop-color="#A91D22"/>
</radialGradient>
</defs>
</svg>
