<svg xmlns="http://www.w3.org/2000/svg" width="49" height="48" fill="none"><g fill="#00546B" clip-path="url(#a)"><path d="M44.94 36.952c-2.625 0-4.688.19-6.375.953-.563.19-1.313.19-1.313.761l.563 1.143c.375.572.937 1.524 1.687 2.096l2.063 1.523 3.937 1.905 2.063 1.714 1.125.762-.563-1.143-.937-.952a14.5 14.5 0 0 0-3.375-3.428c-1.125-.572-3.375-1.715-3.75-2.858h-.188l2.25-.571 3.375-.572 1.5-.38v-.381l-1.687-1.905c-1.5-1.524-3.375-2.857-5.25-4.19l-3.375-1.524c-.375-.19-1.125-.381-1.313-.762l-1.312-2.477-2.813-5.714-1.5-3.81C26.377 11.429 22.627 8 17.002 4.763c-1.125-.762-2.625-.953-4.125-1.334l-2.437-.19-1.5-1.143C7.065.952 2.19-1.715.877 1.715-.06 3.808 2.19 5.904 2.94 7.046l1.687 2.477.563 1.714c.562 1.524.937 3.238 1.687 4.571l1.125 1.905c.375.381.75.572.938 1.143-.563.762-.563 1.714-.75 2.476-1.313 3.81-.75 8.381.937 11.238.375.762 1.688 2.667 3.375 1.905 1.5-.572 1.125-2.476 1.5-4.19l.188-.762 1.5 2.666c.937 1.715 2.625 3.429 4.125 4.572.75.571 1.5 1.523 2.437 1.904l-.75-.761L19.815 36c-1.5-1.905-2.625-4-3.75-6.096l-1.313-3.238-.562-1.142c-.563.761-1.313 1.333-1.688 2.285-.562 1.334-.562 3.238-.75 4.953h-.187c-1.125-.19-1.5-1.334-1.875-2.286-.938-2.286-1.125-6.095-.188-8.762.188-.762 1.125-2.857.75-3.619-.187-.571-.75-.952-1.125-1.333l-1.312-2.286L5.94 8.762 4.252 6.285C3.69 5.333 2.94 4.762 2.377 3.62c-.187-.381-.375-.953 0-1.334l.375-.38c.375-.381 1.688 0 2.063.19 1.125.571 2.25.952 3.187 1.714l1.5 1.143h.75c1.125.19 2.25 0 3.188.381 1.687.572 3.375 1.333 4.687 2.286 4.313 2.667 7.875 6.667 10.125 11.238.563.762.563 1.524.938 2.286l2.25 4.952c.75 1.524 1.312 3.048 2.25 4.381.562.762 2.625 1.143 3.375 1.524l2.25.762 3.375 2.285c.375.381 2.062 1.334 2.25 1.905"/><path d="m11.566 8.19-1.312.19 1.125 1.334.75 1.714v-.19c.562-.19.75-.762.75-1.524l-.375-.762z"/></g><defs><clipPath id="a"><path fill="#fff" d="M.691 0h48v48h-48z"/></clipPath></defs></svg>