<svg xmlns="http://www.w3.org/2000/svg" width="100" height="100" fill="none"><path fill="#ED1C24" d="M42.373 51.89h6.19l-3.26-5.268-6 9.52h-2.741l7.3-11.41c.307-.472.85-.732 1.417-.732s1.11.26 1.418.732l7.323 11.434h-2.74l-1.276-2.126h-6.26zm28.35 2.127v-9.923h-2.316v10.891c0 .307.118.59.33.803q.355.355.851.355h10.56l1.37-2.126zm-38.319-1.772a4.063 4.063 0 1 0 0-8.127H22.27v12.048h2.316v-9.922h7.654c1.086 0 1.937.874 1.937 1.961s-.874 1.96-1.937 1.96h-6.52l6.921 6.025h3.355l-4.63-3.945zm-24.38 3.898A6.02 6.02 0 0 1 2 50.119a6.02 6.02 0 0 1 6.024-6.025h6.993a6.02 6.02 0 0 1 6.024 6.025 6.02 6.02 0 0 1-6.024 6.024zm6.851-2.126a3.9 3.9 0 0 0 3.898-3.898 3.9 3.9 0 0 0-3.898-3.898H8.19c-2.173 0-3.921 1.748-3.921 3.898a3.9 3.9 0 0 0 3.898 3.898zm43.988 2.126a6.02 6.02 0 0 1-6.024-6.024 6.02 6.02 0 0 1 6.024-6.025h8.316l-1.37 2.127h-6.804a3.9 3.9 0 0 0-3.898 3.898 3.9 3.9 0 0 0 3.898 3.898h8.339l-1.37 2.126zm28.325-2.126c-1.772 0-3.284-1.205-3.756-2.835h9.898l1.37-2.126H83.433a3.91 3.91 0 0 1 3.756-2.835h6.804l1.37-2.126h-8.316a6.02 6.02 0 0 0-6.024 6.024 6.02 6.02 0 0 0 6.024 6.024h7.158l1.37-2.126zM96.59 45.37c0-.59.473-1.063 1.063-1.063.591 0 1.063.473 1.063 1.063s-.472 1.063-1.063 1.063c-.59 0-1.063-.472-1.063-1.063m1.063 1.37a1.346 1.346 0 1 0 .002-2.691 1.346 1.346 0 0 0-.002 2.691m-.141-2.173c.212 0 .283 0 .401.047.26.095.284.331.284.426 0 .023 0 .07-.024.118-.023.047-.047.165-.189.26-.023 0-.023.023-.07.023l.354.638h-.331l-.307-.59h-.19v.614h-.306v-1.536zm.118.709c.094 0 .189 0 .26-.095.023-.047.023-.07.023-.141s-.047-.142-.118-.19c-.07-.023-.142-.023-.283-.023h-.071v.425h.189z"/></svg>