<svg xmlns="http://www.w3.org/2000/svg" width="100" height="100" fill="none"><path fill="#231F20" d="M7.13 79.161H2.372v-5.806h5.04q2.757 0 2.757 2.955T7.13 79.16m3.411-5.935a3.54 3.54 0 0 0-2.732-1.071L1 72.258v13.871h1.372v-5.884h5.04a4.1 4.1 0 0 0 3-1.07 3.87 3.87 0 0 0 1.09-2.956 4.2 4.2 0 0 0-.961-2.993m8.887 9.961a2.95 2.95 0 0 1-.654 1.187 3.46 3.46 0 0 1-2.809 1.11 3.25 3.25 0 0 1-2.564-1.058 4.22 4.22 0 0 1-.988-2.813 5.2 5.2 0 0 1 .244-1.652c.142-.45.378-.863.692-1.213a3.33 3.33 0 0 1 2.565-1.045q3.693 0 3.693 3.871a6 6 0 0 1-.205 1.639m.244-5.161a4.74 4.74 0 0 0-3.719-1.394 4.55 4.55 0 0 0-3.59 1.42 5.03 5.03 0 0 0-1.078 3.548 5.08 5.08 0 0 0 1.18 3.484c.417.467.94.826 1.526 1.045.66.229 1.354.338 2.052.322a4.82 4.82 0 0 0 3.719-1.367 5.84 5.84 0 0 0 0-6.968zm10.349 5.535q0 2.813-4.142 2.813a9.8 9.8 0 0 1-2.13-.194c-.514-.099-.997-.32-1.41-.645a2.4 2.4 0 0 1-.667-.89 4.4 4.4 0 0 1-.32-1.394h1.282a1.95 1.95 0 0 0 .667 1.626c.759.498 1.663.72 2.565.632q2.898 0 2.898-1.767a1.425 1.425 0 0 0-.975-1.42q-.192-.077-2.334-.387a12.5 12.5 0 0 1-2.628-.529 2.022 2.022 0 0 1-1.141-1.987 2.35 2.35 0 0 1 1.025-2.09c.403-.212.835-.36 1.283-.439a8.7 8.7 0 0 1 1.756-.155q3.99 0 3.989 3.032H28.43c0-1.419-.936-2.142-2.808-2.142a4.15 4.15 0 0 0-2.129.44 1.44 1.44 0 0 0-.705 1.29 1.282 1.282 0 0 0 .949 1.213c.842.215 1.7.361 2.564.438a7.6 7.6 0 0 1 2.463.542c.396.163.732.445.961.808.23.362.342.788.321 1.218zm5.04 2.58-.526.091h-.32a2.92 2.92 0 0 1-1.809-.439 1.86 1.86 0 0 1-.551-1.548v-6.297h-1.462v-.877h1.513v-3.045h1.18v3.045h2.051v.942H33.06v6.167a1.2 1.2 0 0 0 .307.942c.321.205.7.295 1.078.258q.121.02.243 0l.41-.116v.942zm8.091-2.103a3.4 3.4 0 0 1-1.09.775 3.7 3.7 0 0 1-1.397.232 3.22 3.22 0 0 1-2.768-.912 3.27 3.27 0 0 1-.926-2.778 3.7 3.7 0 0 1 .936-2.684 3.5 3.5 0 0 1 2.642-.968 3.31 3.31 0 0 1 2.565.993c.608.717.925 1.64.885 2.581a3.89 3.89 0 0 1-.91 2.761m2.192-6.967h-1.167v1.574a8.6 8.6 0 0 0-1.103-1.213 4.5 4.5 0 0 0-2.564-.658 4.17 4.17 0 0 0-3.422 1.206 4.22 4.22 0 0 0-1.208 3.44 6 6 0 0 0 .295 1.935c.176.516.456.99.82 1.393A4.57 4.57 0 0 0 40.319 86a4.07 4.07 0 0 0 2.116-.364 4.1 4.1 0 0 0 1.641-1.39v1.625a3.37 3.37 0 0 1-.756 2.4 3.52 3.52 0 0 1-2.642.852 4.06 4.06 0 0 1-2.488-.594 2.6 2.6 0 0 1-.756-1.548h-1.206c.05.852.433 1.65 1.065 2.219a5.6 5.6 0 0 0 3.398.787q4.59 0 4.59-4.142v-8.748zm6.335.916a5 5 0 0 0-.987-.103q-2.873 0-2.873 3.87v4.349h-1.154v-9.032h1.167v1.626c.153-.573.48-1.083.936-1.459a3.7 3.7 0 0 1 2.09-.503h.783v1.213zm1.09 2.955a4.44 4.44 0 0 1 1-2.413c.343-.307.745-.54 1.18-.684.46-.17.947-.253 1.437-.245a3.35 3.35 0 0 1 2.564 1.045 3.3 3.3 0 0 1 .936 2.297h-7.104m7.22-2.813a3.7 3.7 0 0 0-1.513-1.058 5.8 5.8 0 0 0-2.13-.362 4.36 4.36 0 0 0-3.502 1.26 4.42 4.42 0 0 0-1.28 3.515 5 5 0 0 0 1.205 3.483 4.706 4.706 0 0 0 3.693 1.432 5.7 5.7 0 0 0 1.744-.257c.51-.158.988-.408 1.411-.736a4.05 4.05 0 0 0 1.282-2.27h-1.282a3.06 3.06 0 0 1-1.179 1.814c-.6.44-1.34.643-2.078.572a3.5 3.5 0 0 1-2.822-1.148 3.76 3.76 0 0 1-.846-2.58h8.348a5.42 5.42 0 0 0-1.115-3.64z"/><path fill="#326690" d="M73.404 82.439q0 4.064-5.4 4.064a6.73 6.73 0 0 1-4.719-1.393 4.55 4.55 0 0 1-1.282-3.484h1.45q0 3.793 4.488 3.793a4.98 4.98 0 0 0 3.116-.774 2.66 2.66 0 0 0 .82-2.142 2.1 2.1 0 0 0-.248-1.18 2.1 2.1 0 0 0-.854-.846 15.5 15.5 0 0 0-3.001-.8 13.6 13.6 0 0 1-3.976-1.135 3.113 3.113 0 0 1-1.282-2.839 3.37 3.37 0 0 1 1.116-2.774 6.57 6.57 0 0 1 4.052-.994q5.284 0 5.284 4.271H71.53q0-3.2-3.924-3.2c-1-.079-2 .146-2.872.646a2.41 2.41 0 0 0-.86 1.987c-.031.4.057.8.254 1.15.196.35.492.632.85.811 1.119.425 2.28.732 3.462.916 1.273.157 2.507.546 3.642 1.148a3.048 3.048 0 0 1 1.282 2.787zm11.76 1.38a5.4 5.4 0 0 1-1.848 1.174c-.73.27-1.504.401-2.282.388a5.45 5.45 0 0 1-4.18-1.69 7.28 7.28 0 0 1-1.57-4.517 7.28 7.28 0 0 1 1.57-4.516 5.549 5.549 0 0 1 4.193-1.639 5.26 5.26 0 0 1 4.154 1.716c.531.555.934 1.22 1.18 1.949.271.832.401 1.705.385 2.58a6.48 6.48 0 0 1-1.603 4.62m.77.916a5.9 5.9 0 0 0 1.667-2.348c.377-1.02.56-2.1.538-3.187a7.46 7.46 0 0 0-1.77-5.162 5.8 5.8 0 0 0-2.282-1.6 8.4 8.4 0 0 0-3.065-.568 6.9 6.9 0 0 0-2.83.437 6.9 6.9 0 0 0-2.415 1.55 7.37 7.37 0 0 0-1.885 5.33 7.4 7.4 0 0 0 .434 2.845c.33.91.836 1.746 1.49 2.458a7 7 0 0 0 2.421 1.548c.905.342 1.87.492 2.836.439a10.6 10.6 0 0 0 2.27-.22 4.9 4.9 0 0 0 1.642-.657l2.141 1.754.898-.993-2.065-1.704zm13.041 1.329H89.1v-13.91h1.36v12.813H99v1.097z"/><path fill="#231F20" d="M57.246 52.258c.435-3.058.307-3.51 2.975-3.006h.68a17.9 17.9 0 0 0 6.321-.904c3.399-1.29 5.412-3.587 2.065-3.006-7.694 1.29-8.169-.865-8.169-.865 8.066-10.219 11.44-23.225 8.528-26.348-7.963-8.62-21.685-4.516-21.941-4.413h-.077c-1.695-.289-3.41-.44-5.13-.451-2.837-.14-5.651.58-8.079 2.064 0 0-24.532-8.62-23.39 10.839.23 4.142 6.963 31.316 14.965 23.11 2.962-2.994 5.783-5.497 5.783-5.497a8.4 8.4 0 0 0 4.848 1.058l.14-.104c-.06.39-.06.786 0 1.175-2.013 1.922-1.41 2.27-5.488 3.032-4.078.761-1.718 2.039-.115 2.387 1.936.413 6.412 1.006 9.464-2.58l-.116.412c.808.555.757 3.974.872 6.452-.019 2.055.28 4.101.885 6.064.577 1.29 1.283 4.8 6.694 3.871 4.527-.826 7.99-2.013 8.31-13.096"/><path stroke="#231F20" stroke-width="4.11" d="M57.246 52.258c.435-3.058.307-3.51 2.975-3.006h.68a17.9 17.9 0 0 0 6.321-.904c3.399-1.29 5.412-3.587 2.065-3.006-7.694 1.29-8.169-.865-8.169-.865 8.066-10.219 11.44-23.225 8.528-26.348-7.963-8.62-21.685-4.516-21.941-4.413h-.077c-1.695-.289-3.41-.44-5.13-.451-2.837-.14-5.651.58-8.079 2.064 0 0-24.532-8.62-23.39 10.839.23 4.142 6.963 31.316 14.965 23.11 2.962-2.994 5.783-5.497 5.783-5.497a8.4 8.4 0 0 0 4.848 1.058l.14-.104c-.06.39-.06.786 0 1.175-2.013 1.922-1.41 2.27-5.488 3.032-4.078.761-1.718 2.039-.115 2.387 1.936.413 6.412 1.006 9.464-2.58l-.116.412c.808.555.757 3.974.872 6.452-.019 2.055.28 4.101.885 6.064.577 1.29 1.283 4.8 6.694 3.871 4.527-.826 7.99-2.013 8.31-13.096"/><path fill="#326690" d="M69.274 45.38c-7.694 1.291-8.169-.864-8.169-.864 8.067-10.22 11.44-23.226 8.528-26.348-7.938-8.658-21.672-4.555-21.928-4.452h-.077a32 32 0 0 0-5.13-.451c-2.837-.14-5.651.58-8.079 2.064 0 0-24.532-8.62-23.39 10.839.23 4.142 6.95 31.316 14.965 23.11a139 139 0 0 1 5.783-5.497 8.4 8.4 0 0 0 4.848 1.058l.14-.103c-.059.389-.059.785 0 1.174-2.013 1.922-1.41 2.27-5.488 3.032-4.078.761-1.718 2.039-.115 2.387 1.936.413 6.412 1.007 9.464-2.58l-.116.412c.808.555 1.373 3.587 1.283 6.349s-.154 4.645.474 6.129c.629 1.484 1.283 4.8 6.694 3.87 4.527-.825 6.874-2.967 7.207-6.554.231-2.58.757-2.168.795-4.439l.424-1.07c.487-3.446.077-4.556 2.872-4.04h.68a17.9 17.9 0 0 0 6.322-.903c3.398-1.29 5.412-3.587 2.065-3.006z"/><path stroke="#fff" stroke-linecap="round" stroke-linejoin="round" stroke-width="1.37" d="M40.934 47.42c-.206 6.45 0 12.903.795 14.45.795 1.55 2.308 4.62 7.694 3.64 4.527-.826 6.181-2.426 6.886-5.975.513-2.58 1.54-9.832 1.668-11.316M34.432 15.161S9.874 6.632 11.028 26.103c.257 4.142 6.95 31.316 14.966 23.097a147 147 0 0 1 5.565-5.42m16.146-30.154c-.847.245 13.657-4.516 21.89 4.464 2.91 3.175-.462 16.142-8.528 26.349"/><path stroke="#fff" stroke-linecap="round" stroke-linejoin="bevel" stroke-width="1.37" d="M61.054 44.439s.513 2.206 8.169.864c3.347-.593 1.282 1.652-2.065 3.007-2.782 1.096-8.976 1.38-9.143-.142-.27-3.871 3.283-2.736 3.04-3.73Zm0 0c-.244-.994-1.82-1.755-2.872-3.871s-12.58-16.503 3.231-14.336c.577-.103-4.13-12.825-18.928-13.032-14.798-.206-14.311 15.484-14.311 15.484"/><path stroke="#fff" stroke-linejoin="round" stroke-width="1.37" d="M36.791 45.794c-2.064 1.96-1.461 2.31-5.578 3.032-4.116.722-1.718 2.038-.115 2.387 1.936.413 6.412 1.006 9.464-2.58.923-1.098 0-2.865-1.283-3.317a2.09 2.09 0 0 0-2.488.516z"/><path stroke="#fff" stroke-linecap="round" stroke-linejoin="round" stroke-width="1.37" d="M36.65 45.755a8.2 8.2 0 0 1 1.142-4.142c1.051-2.413 3.475-4.826 1.538-12.49-1.449-5.704-11.156-1.187-11.156-.413a33 33 0 0 1-.167 7.587c-.782 4.787 3.565 8.826 8.58 8.413"/><path fill="#fff" stroke="#fff" stroke-width=".46" d="M34.342 28.594a1.65 1.65 0 0 0 1.36 1.058 1.505 1.505 0 0 0 1.525-.723c0-.258-.564-.555-1.359-.645s-1.526.013-1.526.31Z"/><path fill="#fff" stroke="#fff" stroke-width=".23" d="M58.566 28.065a1.65 1.65 0 0 1-1.359 1.058 1.505 1.505 0 0 1-1.552-.723c0-.271.565-.555 1.36-.645s1.474 0 1.526.31z"/><path stroke="#fff" stroke-linecap="round" stroke-linejoin="round" stroke-width="1.37" d="M61.413 26.232c.129 2.078-.525 3.484-.602 5.69-.129 3.213 1.795 6.878-1.09 10.555"/></svg>