<svg width="100" height="100" viewBox="0 0 100 100" fill="none" xmlns="http://www.w3.org/2000/svg">
<path d="M7.12981 79.1612H2.37215V73.3548H7.41193C9.25002 73.3548 10.1691 74.3397 10.1691 76.3096C10.1691 78.2795 9.15598 79.23 7.12981 79.1612ZM10.541 73.2257C10.1881 72.8612 9.76177 72.5771 9.29059 72.3923C8.81942 72.2076 8.31438 72.1266 7.80947 72.1548L1 72.258V86.129H2.37215V80.2451H7.41193C7.95767 80.2753 8.50393 80.1962 9.01904 80.0123C9.53415 79.8285 10.0079 79.5436 10.4127 79.1741C10.7902 78.7861 11.0824 78.3224 11.2702 77.8134C11.4579 77.3043 11.5372 76.7612 11.5027 76.2193C11.5804 75.1337 11.2355 74.0602 10.541 73.2257ZM19.4279 83.187C19.3048 83.6286 19.0809 84.0351 18.7739 84.3741C18.4193 84.7603 17.9825 85.0608 17.4961 85.2529C17.0097 85.4451 16.4865 85.524 15.9655 85.4838C15.487 85.5072 15.0093 85.4246 14.5661 85.2417C14.1229 85.0589 13.7251 84.7803 13.4007 84.4257C12.7411 83.641 12.3898 82.6404 12.4132 81.6128C12.4048 81.0526 12.4871 80.4948 12.6569 79.9612C12.799 79.5118 13.0352 79.0982 13.3494 78.7483C13.6776 78.3995 14.0764 78.1257 14.5189 77.9454C14.9614 77.7651 15.4372 77.6825 15.9142 77.7032C18.3763 77.7032 19.6074 78.9935 19.6074 81.5741C19.6161 82.1274 19.547 82.679 19.4023 83.2128M19.6459 78.0515C19.1627 77.5629 18.5802 77.1853 17.9382 76.9448C17.2962 76.7042 16.6101 76.6064 15.927 76.658C15.2619 76.6174 14.596 76.7234 13.9758 76.9685C13.3556 77.2137 12.7961 77.5921 12.3363 78.0773C11.5388 79.0777 11.1533 80.3478 11.2591 81.6257C11.2036 82.8949 11.6248 84.1386 12.4389 85.1096C12.8557 85.5774 13.3795 85.9362 13.9649 86.1548C14.6245 86.3838 15.3192 86.493 16.0168 86.4773C16.6974 86.5256 17.3805 86.4287 18.0213 86.193C18.6622 85.9573 19.2464 85.5881 19.7357 85.1096C20.4829 84.1037 20.8866 82.8816 20.8866 81.6257C20.8866 80.3699 20.4829 79.1478 19.7357 78.1419L19.6459 78.0515ZM29.9948 83.587C29.9948 85.4623 28.6141 86.3999 25.8527 86.3999C25.1382 86.413 24.4244 86.3481 23.7239 86.2064C23.2094 86.1072 22.7258 85.886 22.3133 85.5612C22.0243 85.3216 21.7958 85.0165 21.6464 84.6709C21.4643 84.2272 21.356 83.7564 21.3258 83.2773H22.6082C22.5839 83.5821 22.6316 83.8883 22.7475 84.1709C22.8634 84.4535 23.0442 84.7044 23.2751 84.9031C24.0338 85.4008 24.9384 85.6238 25.8398 85.5354C27.772 85.5354 28.738 84.9462 28.738 83.7677C28.7531 83.4562 28.6658 83.1484 28.4896 82.8919C28.3135 82.6354 28.0583 82.4443 27.7634 82.3483C27.6352 82.2967 26.8572 82.1677 25.4295 81.9612C24.5369 81.8798 23.6556 81.7024 22.8006 81.4322C22.4318 81.2574 22.1249 80.9735 21.9209 80.6183C21.7169 80.2632 21.6256 79.8539 21.6593 79.4451C21.6333 79.0368 21.7144 78.6288 21.8945 78.2619C22.0745 77.8951 22.3472 77.5822 22.6852 77.3548C23.0877 77.1432 23.5202 76.9952 23.9675 76.9161C24.5465 76.8048 25.1351 76.753 25.7244 76.7612C28.3832 76.7612 29.7126 77.772 29.7126 79.7935H28.4303C28.4303 78.3741 27.4941 77.6515 25.6218 77.6515C24.8862 77.6058 24.1516 77.7572 23.4931 78.0902C23.2714 78.222 23.0889 78.4112 22.9648 78.6382C22.8407 78.8652 22.7796 79.1216 22.7878 79.3806C22.7949 79.6587 22.8911 79.927 23.0621 80.1456C23.2331 80.3641 23.4697 80.5212 23.7367 80.5935C24.5786 80.8085 25.4363 80.9552 26.3015 81.0322C27.1464 81.074 27.9785 81.2572 28.7637 81.5741C29.1596 81.7366 29.4956 82.0188 29.7253 82.3816C29.955 82.7445 30.0671 83.1702 30.0461 83.5999L29.9948 83.587ZM35.0345 86.1677L34.5088 86.258H34.1882C33.5541 86.3127 32.9196 86.1588 32.38 85.8193C32.1761 85.6211 32.0204 85.3783 31.9247 85.1098C31.8291 84.8413 31.7962 84.5543 31.8286 84.2709V77.9741H30.3667V77.0967H31.8799V74.0515H33.0597V77.0967H35.1115V78.0386H33.0597V84.2064C33.0413 84.3764 33.0593 84.5484 33.1124 84.7108C33.1654 84.8733 33.2524 85.0224 33.3674 85.1483C33.688 85.3525 34.0671 85.4433 34.4446 85.4064C34.5254 85.4192 34.6076 85.4192 34.6883 85.4064L35.0987 85.2902V86.2322L35.0345 86.1677ZM43.1264 84.0644C42.8182 84.3932 42.4475 84.6565 42.0364 84.8386C41.5899 85.0067 41.1151 85.0856 40.6386 85.0709C40.1385 85.1464 39.6279 85.1033 39.1474 84.9449C38.6668 84.7866 38.2297 84.5174 37.8709 84.1589C37.5121 83.8004 37.2416 83.3625 37.0809 82.8801C36.9202 82.3977 36.8738 81.8842 36.9453 81.3806C36.9171 80.8931 36.9854 80.4049 37.1461 79.9442C37.3068 79.4835 37.5567 79.0595 37.8814 78.6967C38.2318 78.3611 38.6474 78.1019 39.1019 77.9354C39.5565 77.7689 40.0403 77.6986 40.5232 77.729C40.9963 77.7017 41.4698 77.7761 41.912 77.9475C42.3543 78.1188 42.7552 78.383 43.0879 78.7225C43.6965 79.4393 44.0126 80.3613 43.9728 81.3031C44.0377 82.3077 43.7111 83.2981 43.0623 84.0644M45.2552 77.0967H44.0882V78.6709C43.7599 78.2321 43.3906 77.826 42.9853 77.458C42.215 76.9857 41.3216 76.7565 40.4206 76.7999C39.797 76.7307 39.1659 76.8031 38.5738 77.0118C37.9817 77.2206 37.4437 77.5604 36.9994 78.0061C36.5552 78.4519 36.216 78.9923 36.0069 79.5874C35.7978 80.1826 35.7241 80.8174 35.7912 81.4451C35.7832 82.1022 35.8829 82.7561 36.0861 83.3806C36.2624 83.8965 36.5417 84.3708 36.9068 84.7741C37.3626 85.2012 37.9003 85.5301 38.4868 85.7409C39.0733 85.9517 39.6964 86.0398 40.318 85.9999C41.0428 86.0704 41.7732 85.9449 42.4338 85.6364C43.0943 85.3279 43.661 84.8476 44.0754 84.2451V85.8709C44.1424 86.7394 43.8711 87.6001 43.3188 88.2709C42.9585 88.5852 42.5387 88.8227 42.0846 88.969C41.6306 89.1154 41.1517 89.1676 40.6771 89.1225C39.806 89.1981 38.9338 88.99 38.1892 88.529C37.7679 88.1155 37.5008 87.5688 37.4326 86.9806H36.2272C36.2775 87.8326 36.66 88.6302 37.2915 89.1999C38.313 89.8176 39.5029 90.0932 40.6899 89.987C43.7505 89.987 45.2808 88.6064 45.2808 85.8451V77.0967H45.2552ZM51.5902 78.0128C51.2651 77.9464 50.9344 77.9118 50.6027 77.9096C48.6877 77.9096 47.7302 79.1999 47.7302 81.7806V86.129H46.576V77.0967H47.743V78.7225C47.8961 78.1501 48.2234 77.6402 48.6791 77.2644C49.3115 76.8934 50.0386 76.7183 50.7694 76.7612H51.5517V77.9741L51.5902 78.0128ZM52.6802 80.9677C52.7645 80.0804 53.1132 79.2394 53.6805 78.5548C54.023 78.2479 54.4246 78.0151 54.8602 77.8709C55.3199 77.7008 55.8068 77.6177 56.2965 77.6257C56.7732 77.6075 57.2482 77.6913 57.6903 77.8715C58.1325 78.0516 58.5316 78.3241 58.8613 78.6709C59.4594 79.2841 59.7954 80.1085 59.7974 80.9677H52.693M59.9129 78.1548C59.5054 77.6791 58.9848 77.3151 58.3996 77.0967C57.7189 76.8429 56.9967 76.7203 56.2709 76.7354C55.6309 76.6744 54.9855 76.7556 54.3802 76.9734C53.775 77.1912 53.2247 77.5402 52.7683 77.9956C52.3119 78.4511 51.9607 79.002 51.7393 79.6092C51.518 80.2165 51.4321 80.8652 51.4876 81.5096C51.4301 82.7835 51.8617 84.0309 52.693 84.9935C53.1694 85.4863 53.7461 85.8696 54.3837 86.1168C55.0212 86.364 55.7044 86.4694 56.3863 86.4257C56.9774 86.4311 57.5658 86.3441 58.1303 86.1677C58.6406 86.0096 59.1184 85.7605 59.541 85.4322C60.2066 84.839 60.6577 84.0402 60.8233 83.1612H59.541C59.3814 83.8907 58.9621 84.5362 58.362 84.976C57.762 85.4158 57.0227 85.6193 56.2837 85.5483C55.758 85.5819 55.2314 85.4962 54.7431 85.2974C54.2547 85.0986 53.8171 84.7919 53.4624 84.3999C52.8689 83.6768 52.5668 82.7558 52.6161 81.8193H60.9644C61.0446 80.5102 60.6479 79.2166 59.8487 78.1806L59.9129 78.1548Z" fill="#231F20"/>
<path d="M73.4036 82.4387C73.4036 85.1483 71.604 86.5032 68.0047 86.5032C66.3135 86.6515 64.6288 86.154 63.2855 85.1096C62.8398 84.6527 62.4951 84.1061 62.2741 83.5057C62.0531 82.9053 61.9608 82.2646 62.0032 81.6258H63.4523C63.4523 84.1548 64.9484 85.4193 67.9406 85.4193C69.0357 85.5128 70.1308 85.2407 71.0568 84.6451C71.344 84.3725 71.5668 84.0386 71.7088 83.6679C71.8509 83.2972 71.9085 82.8992 71.8775 82.5032C71.9119 82.0938 71.8256 81.6834 71.6295 81.3231C71.4333 80.9628 71.136 80.6686 70.7747 80.4774C69.8033 80.1111 68.7981 79.8431 67.7739 79.6774C66.3992 79.5038 65.0588 79.1209 63.7985 78.5419C63.3543 78.2251 63.0016 77.7955 62.7763 77.2968C62.551 76.7981 62.4612 76.2482 62.5161 75.7032C62.476 75.1854 62.5559 74.6654 62.7495 74.184C62.9431 73.7026 63.2451 73.273 63.6318 72.929C64.8404 72.1661 66.2621 71.8175 67.6841 71.9354C71.2064 71.9354 72.9676 73.3591 72.9676 76.2064H71.5313C71.5313 74.0731 70.2233 73.0064 67.6072 73.0064C66.6071 72.9275 65.6065 73.1522 64.7346 73.6516C64.4474 73.8924 64.2201 74.1976 64.0709 74.5426C63.9217 74.8876 63.8548 75.263 63.8754 75.6387C63.8439 76.039 63.932 76.4396 64.1285 76.7891C64.3251 77.1387 64.621 77.421 64.9783 77.6C66.098 78.0246 67.2583 78.3317 68.4407 78.5161C69.7141 78.6727 70.9483 79.0619 72.0827 79.6645C72.5237 79.9721 72.8751 80.3926 73.1005 80.8826C73.326 81.3725 73.4173 81.9142 73.3651 82.4516L73.4036 82.4387ZM85.1631 83.8193C84.6335 84.3332 84.0051 84.7328 83.3164 84.9935C82.5857 85.2628 81.8118 85.394 81.0338 85.3806C80.2576 85.4133 79.4835 85.2795 78.7627 84.9881C78.0419 84.6967 77.391 84.2543 76.8532 83.6903C75.8378 82.4067 75.2849 80.8147 75.2849 79.1741C75.2849 77.5336 75.8378 75.9416 76.8532 74.658C77.4008 74.1069 78.0565 73.6766 78.7784 73.3945C79.5004 73.1124 80.2729 72.9846 81.0466 73.0193C81.8219 72.9807 82.5962 73.1144 83.3143 73.411C84.0325 73.7076 84.6768 74.1598 85.2015 74.7354C85.7323 75.2898 86.1351 75.955 86.3813 76.6838C86.6523 77.5163 86.7824 78.3886 86.766 79.2645C86.8552 80.9563 86.2795 82.6155 85.1631 83.8838M85.9325 84.8C86.6737 84.1689 87.2467 83.3617 87.5996 82.4516C87.977 81.4328 88.1597 80.3515 88.1382 79.2645C88.2204 77.3804 87.5878 75.5354 86.3685 74.1032C85.7473 73.3921 84.9641 72.8431 84.0859 72.5032C83.1082 72.1238 82.0688 71.9313 81.021 71.9354C80.0574 71.8814 79.0933 72.0302 78.1902 72.3724C77.2871 72.7145 76.4648 73.2425 75.776 73.9225C75.1278 74.6417 74.6275 75.4828 74.3039 76.3974C73.9804 77.312 73.84 78.2821 73.8909 79.2516C73.8472 80.2196 73.9947 81.1867 74.3248 82.097C74.655 83.0073 75.1613 83.8427 75.8145 84.5548C76.5066 85.2339 77.3312 85.7611 78.2362 86.1031C79.1412 86.4452 80.1069 86.5946 81.0722 86.5419C81.8345 86.5504 82.5954 86.4768 83.3421 86.3225C83.9241 86.2043 84.4802 85.9814 84.9835 85.6645L87.1251 87.4193L88.0228 86.4258L85.9581 84.7225L85.9325 84.8ZM98.9744 86.129H89.1V72.2193H90.4593V85.0322H99V86.129H98.9744Z" fill="#326690"/>
<path d="M57.2455 52.258C57.6815 49.1999 57.5533 48.7483 60.2206 49.2516H60.9003C63.0444 49.333 65.1857 49.0271 67.2225 48.3483C70.6208 47.058 72.6341 44.7612 69.2871 45.3419C61.5928 46.6322 61.1183 44.4774 61.1183 44.4774C69.1845 34.258 72.5572 21.2516 69.6462 18.129C61.6826 9.50962 47.961 13.6128 47.7045 13.7161H47.6276C45.9326 13.427 44.2172 13.276 42.4981 13.2645C39.6606 13.1253 36.8467 13.8443 34.419 15.329C34.419 15.329 9.88695 6.70962 11.0283 26.1677C11.2591 30.3096 17.9916 57.4838 25.9937 49.2774C28.956 46.2838 31.7773 43.7806 31.7773 43.7806C33.2518 44.6125 34.9402 44.981 36.6247 44.8386L36.7658 44.7354C36.7052 45.1245 36.7052 45.5206 36.7658 45.9096C34.7524 47.8322 35.3552 48.1806 31.2772 48.9419C27.1992 49.7032 29.5588 50.9806 31.1618 51.329C33.0982 51.7419 37.5737 52.3354 40.6258 48.7483L40.5104 49.1612C41.3183 49.7161 41.267 53.1354 41.3824 55.6128C41.3632 57.6683 41.6617 59.7142 42.2672 61.6774C42.8443 62.9677 43.5496 66.4774 48.9613 65.5483C53.4881 64.7225 56.9506 63.5354 57.2711 52.4516" fill="#231F20"/>
<path d="M57.2455 52.258C57.6815 49.1999 57.5533 48.7483 60.2206 49.2516H60.9003C63.0444 49.333 65.1857 49.0271 67.2225 48.3483C70.6208 47.058 72.6341 44.7612 69.2871 45.3419C61.5928 46.6322 61.1183 44.4774 61.1183 44.4774C69.1845 34.258 72.5572 21.2516 69.6462 18.129C61.6826 9.50962 47.961 13.6128 47.7045 13.7161H47.6276C45.9326 13.427 44.2172 13.276 42.4981 13.2645C39.6606 13.1253 36.8467 13.8443 34.419 15.329C34.419 15.329 9.88695 6.70962 11.0283 26.1677C11.2591 30.3096 17.9916 57.4838 25.9937 49.2774C28.956 46.2838 31.7773 43.7806 31.7773 43.7806C33.2518 44.6125 34.9402 44.981 36.6247 44.8387L36.7658 44.7354C36.7052 45.1245 36.7052 45.5206 36.7658 45.9096C34.7524 47.8322 35.3552 48.1806 31.2772 48.9419C27.1992 49.7032 29.5588 50.9806 31.1618 51.329C33.0982 51.7419 37.5737 52.3354 40.6258 48.7483L40.5104 49.1612C41.3183 49.7161 41.267 53.1354 41.3824 55.6128C41.3632 57.6683 41.6617 59.7142 42.2672 61.6774C42.8443 62.9677 43.5496 66.4774 48.9613 65.5483C53.4881 64.7225 56.9506 63.5354 57.2711 52.4516" stroke="#231F20" stroke-width="4.11"/>
<path d="M69.2743 45.3807C61.58 46.671 61.1055 44.5161 61.1055 44.5161C69.1717 34.2968 72.5444 21.2903 69.6334 18.1678C61.6954 9.50969 47.961 13.6129 47.7045 13.7161H47.6276C45.9326 13.4271 44.2172 13.2761 42.4981 13.2645C39.6606 13.1253 36.8467 13.8444 34.419 15.329C34.419 15.329 9.88695 6.70969 11.0283 26.1678C11.2591 30.3097 17.9788 57.4839 25.9937 49.2774C28.956 46.2839 31.7773 43.7807 31.7773 43.7807C33.2518 44.6125 34.9402 44.981 36.6247 44.8387L36.7658 44.7355C36.7064 45.1246 36.7064 45.5206 36.7658 45.9097C34.7524 47.8323 35.3552 48.1807 31.2772 48.942C27.1992 49.7032 29.5588 50.9807 31.1618 51.329C33.0982 51.742 37.5737 52.3355 40.6258 48.7484L40.5104 49.1613C41.3183 49.7161 41.8825 52.7484 41.7927 55.5097C41.703 58.271 41.6389 60.1549 42.2672 61.6387C42.8956 63.1226 43.5496 66.4387 48.9613 65.5097C53.4881 64.6839 55.8349 62.542 56.1683 58.9549C56.3991 56.3742 56.9249 56.7871 56.9634 54.5161L57.3866 53.4452C57.8739 50 57.4635 48.8903 60.2591 49.4065H60.9388C63.0829 49.4879 65.2241 49.182 67.2609 48.5032C70.6593 47.2129 72.6726 44.9161 69.3256 45.4968L69.2743 45.3807Z" fill="#326690"/>
<path d="M40.9335 47.4193C40.7284 53.8709 40.9335 60.3226 41.7286 61.8709C42.5237 63.4193 44.0369 66.4903 49.4229 65.5097C53.9498 64.6838 55.604 63.0838 56.3094 59.5355C56.8223 56.9548 57.8482 49.7032 57.9765 48.2193M34.4318 15.1613C34.4318 15.1613 9.87413 6.63223 11.0283 26.1032C11.2848 30.2451 17.9788 57.4193 25.9937 49.2C28.9176 46.1935 31.5593 43.7806 31.5593 43.7806M47.7045 13.6258C46.8582 13.8709 61.362 9.10965 69.5949 18.0903C72.5059 21.2645 69.1332 34.2322 61.067 44.4387" stroke="white" stroke-width="1.37" stroke-linecap="round" stroke-linejoin="round"/>
<path d="M61.0542 44.4387C61.0542 44.4387 61.5671 46.6452 69.223 45.3032C72.57 44.7097 70.5054 46.9549 67.1583 48.3097C64.3755 49.4065 58.1816 49.6903 58.0149 48.1678C57.7456 44.2968 61.2978 45.4323 61.0542 44.4387ZM61.0542 44.4387C60.8105 43.4452 59.2332 42.6839 58.1816 40.5678C57.1301 38.4516 45.6014 24.0645 61.4132 26.2323C61.9903 26.129 57.2839 13.4065 42.4852 13.2C27.6865 12.9936 28.1738 28.6839 28.1738 28.6839" stroke="white" stroke-width="1.37" stroke-linecap="round" stroke-linejoin="bevel"/>
<path d="M36.7914 45.7935C34.7268 47.7548 35.3295 48.1032 31.213 48.8258C27.0966 49.5484 29.4946 50.8645 31.0976 51.2129C33.034 51.6258 37.5096 52.2194 40.5616 48.6323C41.485 47.5355 40.5616 45.7677 39.2792 45.3161C38.8653 45.1175 38.3983 45.0604 37.9491 45.1536C37.5 45.2468 37.0935 45.4851 36.7914 45.8323V45.7935Z" stroke="white" stroke-width="1.37" stroke-linejoin="round"/>
<path d="M36.6503 45.7548C36.6552 44.2962 37.0494 42.8658 37.7917 41.6129C38.8432 39.2 41.2669 36.7871 39.3305 29.1226C37.8814 23.4193 28.1738 27.9355 28.1738 28.7097C28.4099 31.2367 28.354 33.7827 28.0071 36.2968C27.2248 41.0839 31.5721 45.1226 36.5862 44.7097" stroke="white" stroke-width="1.37" stroke-linecap="round" stroke-linejoin="round"/>
<path d="M34.3421 28.5935C34.4493 28.879 34.6332 29.129 34.8731 29.3158C35.1131 29.5026 35.3998 29.6188 35.7014 29.6516C35.9983 29.6971 36.302 29.6527 36.5737 29.524C36.8455 29.3953 37.0731 29.1882 37.2274 28.929C37.2274 28.6709 36.6632 28.3741 35.8681 28.2838C35.073 28.1935 34.3421 28.2967 34.3421 28.5935Z" fill="white" stroke="white" stroke-width="0.46"/>
<path d="M58.5664 28.0645C58.4591 28.3501 58.2753 28.6001 58.0353 28.7869C57.7954 28.9736 57.5086 29.0898 57.207 29.1226C56.9061 29.1736 56.5969 29.1319 56.32 29.0029C56.0431 28.874 55.8114 28.6638 55.6553 28.4C55.6553 28.129 56.2196 27.8452 57.0147 27.7548C57.8097 27.6645 58.4894 27.7548 58.5407 28.0645H58.5664Z" fill="white" stroke="white" stroke-width="0.23"/>
<path d="M61.4132 26.2322C61.5415 28.3096 60.8875 29.716 60.8105 31.9225C60.6823 35.1354 62.6059 38.7999 59.7205 42.4773" stroke="white" stroke-width="1.37" stroke-linecap="round" stroke-linejoin="round"/>
</svg>
