<svg width="100" height="100" viewBox="0 0 100 100" fill="none" xmlns="http://www.w3.org/2000/svg">
<path d="M10.8277 76.1931H8.8864L7.91576 73.4832H3.81969L2.90729 76.1931H1L4.94563 65.5543H6.91601L10.8277 76.1931ZM7.49839 72.0474L6.04244 67.8036C5.98064 67.5849 5.93362 67.3623 5.9017 67.1372H5.85317C5.82176 67.3628 5.77308 67.5856 5.70757 67.8036L4.25162 72.0474H7.49839Z" fill="#465154"/>
<path d="M17.9861 69.3179L13.924 74.8505H17.9861V76.1932H11.5556V75.566L15.7051 69.9599H11.9536V68.6172H17.9861V69.3179Z" fill="#465154"/>
<path d="M25.8919 76.1932H24.1884V74.9926H24.1593C23.9505 75.4217 23.6231 75.7806 23.2165 76.0259C22.81 76.2711 22.3418 76.3922 21.8686 76.3745C20.0924 76.3745 19.2026 75.2964 19.1994 73.1402V68.6024H20.898V72.9638C20.898 74.3294 21.4189 75.0122 22.4607 75.0122C22.6971 75.0183 22.9318 74.9709 23.1477 74.8734C23.3635 74.7758 23.555 74.6307 23.708 74.4486C24.0442 74.036 24.2171 73.5123 24.1933 72.9785V68.6073H25.8967L25.8919 76.1932Z" fill="#465154"/>
<path d="M32.2592 70.2391C31.9988 70.0592 31.686 69.9729 31.3711 69.9941C31.1241 69.9948 30.8809 70.0563 30.6627 70.1732C30.4445 70.2902 30.2579 70.4592 30.119 70.6655C29.7614 71.222 29.5912 71.8803 29.6337 72.5423V76.1784H27.8962V68.5828H29.5997V70.1754H29.6337C29.7673 69.6941 30.0331 69.2609 30.4005 68.9258C30.7173 68.637 31.1287 68.4765 31.5555 68.475C31.7982 68.4623 32.0401 68.5112 32.2592 68.6171V70.2391Z" fill="#465154"/>
<path d="M39.7962 72.8658H34.6713C34.6615 73.1668 34.7134 73.4667 34.8236 73.7467C34.9338 74.0266 35.1001 74.2806 35.3119 74.4927C35.7793 74.8998 36.3844 75.1087 37.0008 75.0758C37.7963 75.0794 38.572 74.8252 39.2138 74.3506V75.7374C38.3866 76.2082 37.4447 76.4341 36.4961 76.3891C36.0136 76.4156 35.5312 76.337 35.0815 76.1586C34.6319 75.9802 34.2255 75.7062 33.8899 75.3552C33.2193 74.542 32.8824 73.5004 32.9484 72.4443C32.9044 71.3731 33.2832 70.328 34.0015 69.5384C34.3281 69.177 34.7275 68.8904 35.1728 68.6977C35.6181 68.5049 36.0991 68.4106 36.5834 68.4211C37.0288 68.3925 37.4748 68.4658 37.8883 68.6355C38.3017 68.8052 38.6719 69.0669 38.9712 69.4012C39.5754 70.196 39.8753 71.1844 39.8156 72.1846L39.7962 72.8658ZM38.151 71.6455C38.178 71.1291 38.0252 70.6194 37.7191 70.2048C37.5756 70.0335 37.3951 69.8976 37.1915 69.8075C36.9879 69.7175 36.7666 69.6757 36.5446 69.6854C36.3104 69.6818 36.0781 69.7284 35.8631 69.8222C35.6481 69.9159 35.4553 70.0547 35.2973 70.2293C34.9423 70.6205 34.7226 71.1175 34.6713 71.6455H38.151Z" fill="#465154"/>
<path d="M45.2657 75.7717V73.9537C45.4407 74.1117 45.6347 74.2467 45.8432 74.3555C46.0705 74.4755 46.3076 74.5755 46.5518 74.6544C46.7963 74.7353 47.046 74.7992 47.2992 74.8456C47.5265 74.8886 47.7571 74.9115 47.9883 74.9142C48.5593 74.9533 49.1293 74.8239 49.6287 74.5417C49.8034 74.4247 49.945 74.2637 50.0394 74.0747C50.1339 73.8857 50.178 73.6751 50.1674 73.4636C50.173 73.2317 50.1106 73.0032 49.9879 72.807C49.8568 72.6153 49.6923 72.4493 49.5025 72.3169C49.261 72.149 49.0061 72.0015 48.7406 71.8759L47.8039 71.4349C47.448 71.2421 47.1148 71.0461 46.8042 70.8468C46.5063 70.6574 46.2325 70.4319 45.9888 70.1755C45.7641 69.9388 45.5833 69.6632 45.455 69.362C45.319 69.0264 45.2529 68.666 45.2609 68.3035C45.2497 67.8459 45.3657 67.3944 45.5957 67C45.8183 66.6328 46.1202 66.3211 46.479 66.0885C46.862 65.8409 47.2837 65.6603 47.7263 65.5544C48.1931 65.4374 48.6722 65.3782 49.1531 65.378C49.9795 65.3256 50.8072 65.4543 51.5797 65.7553V67.4998C50.8994 67.0407 50.0919 66.8124 49.2744 66.8481C49.0139 66.8479 48.7539 66.8725 48.4979 66.9216C48.2568 66.9658 48.0242 67.0485 47.8088 67.1666C47.6173 67.2743 47.4516 67.4232 47.3235 67.6027C47.1932 67.7922 47.1268 68.0191 47.1342 68.2496C47.1279 68.4648 47.1782 68.6778 47.2798 68.8671C47.3883 69.0591 47.5354 69.226 47.7117 69.3571C47.9281 69.5187 48.1588 69.6598 48.4009 69.7785C48.6726 69.9157 48.9865 70.0628 49.3424 70.2196C49.6983 70.3764 50.0445 70.5789 50.381 70.8272C50.6929 71.0288 50.9811 71.2655 51.24 71.5329C51.4823 71.7832 51.6809 72.0731 51.8272 72.3905C51.9773 72.7276 52.0518 73.0941 52.0456 73.4636C52.0671 73.9153 51.9675 74.3644 51.7574 74.7637C51.5473 75.163 51.2344 75.4977 50.8517 75.7325C50.4627 75.9691 50.0356 76.135 49.5899 76.2226C49.0954 76.329 48.591 76.3816 48.0854 76.3794C47.9107 76.3794 47.6939 76.3663 47.4351 76.3402C47.1762 76.314 46.9045 76.2716 46.6198 76.2128C46.3626 76.1627 46.1083 76.0989 45.8578 76.0217C45.6504 75.9652 45.4513 75.8811 45.2657 75.7717Z" fill="#465154"/>
<path d="M59.7233 68.5975L56.3261 77.4182C55.6208 78.9896 54.6307 79.7753 53.356 79.7753C53.0538 79.7812 52.7521 79.7483 52.4581 79.6773V78.2464C52.694 78.329 52.9413 78.3736 53.191 78.3787C53.4959 78.3838 53.7953 78.2957 54.0499 78.1261C54.3045 77.9565 54.5025 77.7132 54.6178 77.428L55.1031 76.1833L52.1136 68.6024H54.0014L55.8408 74.0957C55.8602 74.1643 55.9039 74.3473 55.9718 74.6446H56.0106C56.0365 74.5302 56.0802 74.3522 56.1417 74.1104L58.0247 68.5779L59.7233 68.5975Z" fill="#465154"/>
<path d="M67.5466 76.1932H65.8432V71.9151C65.8432 70.4972 65.3465 69.7883 64.3533 69.7883C64.1089 69.7828 63.8665 69.8327 63.6439 69.9345C63.4213 70.0363 63.2242 70.1873 63.0672 70.3764C62.7334 70.7903 62.5608 71.3131 62.5819 71.8465V76.1785H60.8687V68.5828H62.5819V69.8422H62.611C62.8432 69.3984 63.1932 69.0285 63.6217 68.7741C64.0503 68.5197 64.5405 68.3906 65.0376 68.4015C65.3902 68.3791 65.7432 68.4401 66.0684 68.5796C66.3936 68.7191 66.6821 68.9333 66.9109 69.2052C67.3841 69.8833 67.612 70.7052 67.5563 71.5329L67.5466 76.1932Z" fill="#465154"/>
<path d="M75.2971 76.1932H73.6422V75.0073H73.6131C73.3988 75.4299 73.0704 75.7826 72.6659 76.0245C72.2613 76.2665 71.7972 76.3878 71.3272 76.3745C70.6916 76.41 70.0676 76.1917 69.5898 75.7669C69.3799 75.5581 69.2158 75.3071 69.1079 75.0303C69.0001 74.7534 68.951 74.4568 68.9637 74.1595C68.9637 72.7254 69.7823 71.889 71.4195 71.6505L73.6519 71.332C73.6519 70.2506 73.1423 69.71 72.1232 69.71C71.2277 69.7091 70.3634 70.0424 69.6966 70.646V69.1415C70.531 68.6564 71.4808 68.4107 72.4435 68.431C74.3427 68.431 75.2923 69.3751 75.2923 71.2634L75.2971 76.1932ZM73.6519 72.464L72.0746 72.6845C71.6832 72.7149 71.3042 72.8374 70.9681 73.0423C70.8363 73.1533 70.7337 73.2955 70.6694 73.4562C70.605 73.6169 70.581 73.7912 70.5993 73.9635C70.5948 74.1122 70.623 74.26 70.6817 74.3964C70.7405 74.5328 70.8283 74.6544 70.939 74.7525C71.1931 74.9737 71.521 75.0893 71.8562 75.0759C72.0981 75.0824 72.3386 75.0363 72.5613 74.9408C72.7841 74.8452 72.9839 74.7025 73.1472 74.5222C73.4929 74.1392 73.6744 73.6335 73.6519 73.1158V72.464Z" fill="#465154"/>
<path d="M78.9564 75.0759H78.9273V79.6872H77.2238V68.5975H78.9273V69.9304H78.9564C79.1992 69.4613 79.5678 69.0705 80.02 68.8027C80.4723 68.535 80.99 68.4011 81.514 68.4162C81.9391 68.3952 82.363 68.4762 82.751 68.6525C83.139 68.8288 83.4802 69.0955 83.7465 69.4306C84.3153 70.2209 84.598 71.1845 84.5473 72.1601C84.6029 73.2493 84.284 74.3243 83.6446 75.2033C83.3514 75.5771 82.9747 75.8754 82.5453 76.0739C82.116 76.2723 81.6461 76.3653 81.1743 76.3451C80.7252 76.3577 80.2812 76.2461 79.8903 76.0224C79.4994 75.7987 79.1765 75.4714 78.9564 75.0759ZM78.9127 72.0768V73.0177C78.8995 73.539 79.0874 74.0451 79.4369 74.429C79.6226 74.625 79.8483 74.778 80.0983 74.8772C80.3483 74.9765 80.6167 75.0197 80.8849 75.0038C81.1531 74.988 81.4146 74.9134 81.6515 74.7854C81.8883 74.6574 82.0948 74.479 82.2566 74.2624C82.6503 73.6434 82.8389 72.9141 82.7953 72.1797C82.8368 71.5561 82.6655 70.937 82.31 70.4254C82.1481 70.219 81.9401 70.0541 81.7031 69.9443C81.4661 69.8344 81.2068 69.7827 80.9462 69.7932C80.6706 69.7844 80.3966 69.8384 80.1446 69.9512C79.8925 70.0641 79.6688 70.2328 79.4903 70.445C79.1045 70.8981 78.8988 71.4795 78.9127 72.0768Z" fill="#465154"/>
<path d="M85.7509 75.958V74.3653C86.3582 74.8369 87.1056 75.0873 87.8717 75.0759C88.9006 75.0759 89.415 74.7688 89.415 74.1546C89.4199 73.9971 89.3739 73.8423 89.284 73.7136C89.1873 73.584 89.0671 73.4742 88.9297 73.3901C88.7626 73.2868 88.5853 73.2014 88.4007 73.1353L87.7212 72.8854C87.4351 72.7726 87.1563 72.6417 86.8865 72.4934C86.6569 72.3637 86.4489 72.1983 86.2701 72.0033C86.1091 71.8308 85.9837 71.6275 85.9013 71.4055C85.813 71.1556 85.7702 70.8916 85.7751 70.6263C85.766 70.2815 85.8553 69.9413 86.0323 69.6462C86.2074 69.3623 86.4428 69.1213 86.7215 68.9406C87.0201 68.7454 87.3478 68.5998 87.6921 68.5093C88.0647 68.4131 88.448 68.3654 88.8326 68.3672C89.4679 68.3572 90.0996 68.4651 90.6962 68.6858V70.1902C90.1601 69.8222 89.5245 69.6305 88.8763 69.6413C88.6801 69.6396 88.4844 69.6626 88.2939 69.7099C88.1361 69.7472 87.9853 69.81 87.8474 69.8961C87.7319 69.9678 87.6341 70.065 87.5611 70.1804C87.4931 70.2906 87.4578 70.4181 87.4592 70.5479C87.4541 70.6936 87.4894 70.8379 87.5611 70.9644C87.6388 71.0866 87.7434 71.1889 87.8668 71.2634C88.0202 71.3583 88.1828 71.4371 88.3522 71.4986L89.0025 71.7338C89.2987 71.8544 89.5887 71.9901 89.8712 72.1405C90.1113 72.272 90.3318 72.437 90.5264 72.6306C90.7045 72.8027 90.8465 73.0094 90.9437 73.2382C91.0466 73.4983 91.0962 73.7767 91.0893 74.0566C91.0985 74.4114 91.0076 74.7615 90.8273 75.0661C90.6493 75.3539 90.4086 75.5969 90.1236 75.7766C89.8092 75.9719 89.4647 76.1127 89.1044 76.1932C88.7066 76.286 88.2994 76.3321 87.8911 76.3304C87.1595 76.3622 86.4297 76.2352 85.7509 75.958Z" fill="#465154"/>
<path d="M99 72.8657H93.875C93.865 73.1669 93.9167 73.4668 94.027 73.7468C94.1372 74.0268 94.3036 74.2807 94.5157 74.4927C94.9833 74.895 95.5863 75.1003 96.1997 75.066C96.9952 75.0692 97.7708 74.8151 98.4128 74.3408V75.7276C97.5855 76.1984 96.6436 76.4243 95.695 76.3793C95.2125 76.4061 94.73 76.3276 94.2803 76.1492C93.8305 75.9708 93.4242 75.6966 93.0888 75.3453C92.4164 74.5329 92.0778 73.4913 92.1425 72.4345C92.0979 71.3702 92.4711 70.3312 93.181 69.5433C93.5076 69.1819 93.907 68.8952 94.3523 68.7025C94.7976 68.5098 95.2785 68.4155 95.7629 68.426C96.2083 68.3974 96.6543 68.4706 97.0678 68.6403C97.4812 68.81 97.8514 69.0718 98.1507 69.406C98.7549 70.2009 99.0548 71.1893 98.9951 72.1895L99 72.8657ZM97.3548 71.6455C97.3814 71.1292 97.2286 70.6196 96.9228 70.2048C96.7788 70.0343 96.5982 69.8994 96.3946 69.8102C96.1911 69.721 95.97 69.68 95.7484 69.6903C95.5142 69.6867 95.2819 69.7333 95.0669 69.827C94.8519 69.9208 94.659 70.0596 94.5011 70.2342C94.1461 70.6254 93.9264 71.1224 93.875 71.6504L97.3548 71.6455Z" fill="#465154"/>
<path d="M29.721 94.4227H27.7798L26.8091 91.7128H22.7131L21.8007 94.4227H19.8934L23.839 83.7839H25.8094L29.721 94.4227ZM26.3918 90.2672L24.9358 86.0234C24.8695 85.8083 24.8176 85.5889 24.7805 85.3668C24.7494 85.5924 24.7007 85.8153 24.6349 86.0332L23.179 90.277L26.3918 90.2672Z" fill="#465154"/>
<path d="M37.588 94.4227H35.8846V90.1446C35.8846 88.7268 35.3879 88.0178 34.3946 88.0178C34.1503 88.0123 33.9079 88.0623 33.6853 88.164C33.4627 88.2658 33.2656 88.4168 33.1086 88.6059C32.7748 89.0199 32.6022 89.5426 32.6232 90.076V94.408H30.8907V86.8368H32.6038V88.0963H32.6329C32.8652 87.6524 33.2152 87.2826 33.6437 87.0281C34.0723 86.7737 34.5625 86.6447 35.0595 86.6555C35.4122 86.6331 35.7651 86.6941 36.0903 86.8336C36.4155 86.9731 36.704 87.1873 36.9328 87.4592C37.4073 88.1334 37.6386 88.9515 37.588 89.7771V94.4227Z" fill="#465154"/>
<path d="M45.3385 94.4227H43.7079V93.2368H43.6593C43.4451 93.6594 43.1167 94.0121 42.7121 94.254C42.3076 94.496 41.8435 94.6173 41.3735 94.604C40.7378 94.6394 40.1138 94.4212 39.6361 93.9964C39.4262 93.7876 39.262 93.5366 39.1542 93.2598C39.0463 92.9829 38.9972 92.6863 39.01 92.389C39.01 90.9549 39.8286 90.1185 41.4657 89.88L43.6982 89.5615C43.6982 88.4801 43.1886 87.9395 42.1694 87.9395C41.2739 87.9386 40.4097 88.2719 39.7428 88.8754V87.371C40.5773 86.8859 41.5271 86.6402 42.4897 86.6605C44.3889 86.6605 45.3385 87.6046 45.3385 89.4929V94.4227ZM43.7079 90.6935L42.1306 90.914C41.7392 90.9444 41.3602 91.0669 41.0241 91.2717C40.8923 91.3828 40.7897 91.525 40.7253 91.6857C40.661 91.8464 40.6369 92.0207 40.6552 92.193C40.6508 92.3417 40.679 92.4895 40.7377 92.6259C40.7964 92.7623 40.8843 92.8839 40.995 92.982C41.25 93.1967 41.5757 93.3069 41.9074 93.2907C42.1493 93.2972 42.3897 93.2511 42.6124 93.1556C42.8352 93.06 43.035 92.9173 43.1983 92.737C43.5398 92.3609 43.7226 91.8651 43.7079 91.3551V90.6935Z" fill="#465154"/>
<path d="M48.9833 94.4227H47.2701V83.1812H48.9833V94.4227Z" fill="#465154"/>
<path d="M57.6801 86.8369L54.2829 95.6577C53.5776 97.2291 52.5875 98.0148 51.3128 98.0148C51.0106 98.0207 50.7089 97.9877 50.4149 97.9167V96.4858C50.6508 96.5684 50.8981 96.6131 51.1478 96.6181C51.4528 96.6232 51.7522 96.5352 52.0068 96.3656C52.2614 96.1959 52.4593 95.9526 52.5746 95.6675L53.0599 94.4227L50.0995 86.8369H51.9874L53.7782 92.3548C53.7976 92.4234 53.8413 92.6063 53.9092 92.9036H53.948C53.9707 92.7893 54.0144 92.6112 54.0791 92.3695L55.9621 86.8369H57.6801Z" fill="#465154"/>
<path d="M63.1594 94.3442C62.7457 94.528 62.2957 94.6135 61.8442 94.5942C60.385 94.5942 59.6554 93.8869 59.6554 92.4723V88.1795H58.3984V86.8368H59.6554V85.0776L61.3588 84.5875V86.8368H63.1594V88.1844H61.3588V91.9822C61.3246 92.3275 61.4104 92.674 61.6015 92.9623C61.707 93.0681 61.8344 93.1488 61.9746 93.1988C62.1147 93.2488 62.2641 93.2668 62.412 93.2514C62.6822 93.2574 62.9461 93.1692 63.1594 93.0015V94.3442Z" fill="#465154"/>
<path d="M65.285 85.2344C65.0194 85.2404 64.7619 85.142 64.5668 84.9599C64.4704 84.8726 64.394 84.7651 64.3429 84.6449C64.2918 84.5248 64.2671 84.3948 64.2707 84.2641C64.2673 84.1319 64.292 84.0006 64.3431 83.8789C64.3941 83.7572 64.4704 83.6479 64.5668 83.5584C64.7603 83.3732 65.0185 83.2728 65.285 83.2791C65.556 83.2726 65.8188 83.3728 66.0179 83.5584C66.1154 83.6473 66.1927 83.7563 66.2446 83.8781C66.2966 83.9999 66.3219 84.1315 66.3188 84.2641C66.3197 84.3935 66.2934 84.5215 66.2415 84.6398C66.1896 84.7581 66.1134 84.8639 66.0179 84.9501C65.8201 85.1385 65.5568 85.2406 65.285 85.2344ZM66.1295 94.4226H64.426V86.8368H66.1295V94.4226Z" fill="#465154"/>
<path d="M73.5597 94.0748C72.9066 94.4378 72.1696 94.6187 71.4243 94.5992C70.9258 94.6203 70.4284 94.5373 69.9632 94.3551C69.498 94.173 69.0751 93.8957 68.7211 93.5407C68.376 93.1774 68.1071 92.7475 67.9303 92.2769C67.7535 91.8062 67.6725 91.3044 67.6922 90.8014C67.6673 90.2498 67.7524 89.6988 67.9425 89.1811C68.1326 88.6634 68.4238 88.1895 68.7987 87.7876C69.1874 87.403 69.6505 87.1035 70.1591 86.9079C70.6677 86.7123 71.2107 86.6247 71.7543 86.6507C72.3782 86.6376 72.9975 86.7614 73.5694 87.0133V88.6158C73.0916 88.2366 72.5028 88.028 71.8951 88.0228C71.5647 88.0122 71.2359 88.0727 70.9305 88.2003C70.6251 88.3279 70.35 88.5196 70.1237 88.7628C69.6512 89.2897 69.4036 89.9835 69.4345 90.6936C69.4161 91.0319 69.4641 91.3706 69.5757 91.6901C69.6873 92.0097 69.8603 92.3039 70.0848 92.5557C70.3121 92.7857 70.5845 92.9652 70.8846 93.0825C71.1846 93.1998 71.5057 93.2524 71.8271 93.2369C72.4634 93.2272 73.0763 92.9932 73.5597 92.5753V94.0748Z" fill="#465154"/>
<path d="M74.7681 94.1875V92.5949C75.3684 93.0721 76.1104 93.331 76.8744 93.3299C77.9033 93.3299 78.4177 93.0228 78.4177 92.4086C78.4226 92.2512 78.3766 92.0963 78.2867 91.9676C78.1901 91.8379 78.0699 91.7281 77.9324 91.6442C77.7654 91.5408 77.5881 91.4554 77.4034 91.3894L76.724 91.1394C76.4378 91.0267 76.159 90.8957 75.8892 90.7474C75.6598 90.6174 75.4518 90.4521 75.2729 90.2574C75.1116 90.085 74.9862 89.8817 74.904 89.6595C74.8157 89.4096 74.7729 89.1456 74.7778 88.8804C74.7687 88.5355 74.858 88.1953 75.0351 87.9003C75.21 87.6162 75.4454 87.3752 75.7242 87.1946C76.0228 86.9993 76.3505 86.8538 76.6948 86.7634C77.0675 86.6671 77.4507 86.6194 77.8353 86.6213C78.4706 86.6111 79.1024 86.7191 79.6989 86.9398V88.4442C79.1628 88.0762 78.5272 87.8845 77.879 87.8954C77.6828 87.8936 77.4872 87.9167 77.2966 87.964C77.1388 88.0012 76.988 88.0641 76.8501 88.1502C76.7347 88.2219 76.6368 88.3191 76.5638 88.4344C76.4958 88.5446 76.4605 88.6721 76.4619 88.8019C76.4568 88.9477 76.4921 89.0919 76.5638 89.2185C76.6415 89.3406 76.7462 89.4429 76.8695 89.5174C77.0229 89.6124 77.1856 89.6912 77.3549 89.7526L78.0052 89.9878C78.3014 90.1084 78.5914 90.2441 78.8739 90.3946C79.1155 90.526 79.3377 90.6909 79.5339 90.8846C79.7122 91.0567 79.8542 91.2634 79.9513 91.4923C80.0543 91.7523 80.1039 92.0307 80.0969 92.3106C80.1061 92.6654 80.0152 93.0155 79.8348 93.3201C79.6569 93.608 79.4162 93.851 79.1311 94.0307C78.8168 94.226 78.4723 94.3668 78.112 94.4472C77.7141 94.5401 77.307 94.5861 76.8987 94.5844C76.1686 94.6071 75.4421 94.4717 74.7681 94.1875Z" fill="#465154"/>
<path d="M48.6193 5L26.5714 17.7411V43.1742L48.6193 56.0525L70.6672 43.3114V17.7901L48.6193 5ZM66.576 40.6505L48.6193 51.1423L30.6432 40.773V20.2599L48.5999 9.7681L66.5566 20.2893L66.576 40.6505Z" fill="#0078D4"/>
<path d="M59.1264 34.7112C58.9097 34.3594 58.5936 34.0812 58.2188 33.9125C57.0787 31.393 55.3304 29.2027 53.1343 27.5426C50.9382 25.8825 48.3645 24.8056 45.6491 24.4106L63.8437 13.7963L59.6117 11.3461L38.8838 23.4354C38.4816 23.6695 38.1672 24.0313 37.9896 24.4645C37.812 24.8977 37.7811 25.378 37.9018 25.8307C38.0225 26.2834 38.2879 26.6832 38.6568 26.9678C39.0258 27.2525 39.4775 27.4061 39.9418 27.4047C40.0272 27.3892 40.1116 27.3679 40.1942 27.341L40.5436 28.8111C43.188 28.1837 45.9644 28.4705 48.4282 29.6256C50.892 30.7806 52.9006 32.7371 54.1325 35.1817L33.4871 47.2171L37.6996 49.6673L58.3547 37.6123C58.6302 37.4454 58.863 37.2154 59.0342 36.9409L59.2429 36.8919C59.2429 36.8086 59.1943 36.7351 59.1749 36.6518C59.3235 36.3487 59.3967 36.0136 59.3882 35.6755C59.3798 35.3373 59.2899 35.0064 59.1264 34.7112Z" fill="#50E6FF"/>
<path d="M57.2967 30.5654C56.2687 30.5654 55.2638 30.8732 54.409 31.4499C53.5543 32.0266 52.8881 32.8463 52.4947 33.8053C52.1013 34.7643 51.9983 35.8196 52.1989 36.8376C52.3994 37.8557 52.8945 38.7909 53.6214 39.5249C54.3483 40.2589 55.2745 40.7587 56.2827 40.9612C57.291 41.1637 58.3361 41.0598 59.2858 40.6626C60.2356 40.2653 61.0474 39.5926 61.6185 38.7296C62.1896 37.8665 62.4945 36.8518 62.4945 35.8137C62.4945 34.4218 61.9469 33.0868 60.9721 32.1026C59.9973 31.1183 58.6753 30.5654 57.2967 30.5654ZM39.937 19.9364C38.909 19.9364 37.904 20.2442 37.0493 20.8209C36.1945 21.3976 35.5283 22.2173 35.1349 23.1763C34.7415 24.1353 34.6385 25.1906 34.8391 26.2086C35.0397 27.2267 35.5347 28.1619 36.2616 28.8959C36.9885 29.6299 37.9147 30.1297 38.9229 30.3322C39.9312 30.5347 40.9763 30.4308 41.9261 30.0336C42.8758 29.6363 43.6876 28.9636 44.2587 28.1006C44.8299 27.2375 45.1347 26.2228 45.1347 25.1847C45.1347 23.7928 44.5871 22.4579 43.6123 21.4736C42.6376 20.4893 41.3155 19.9364 39.937 19.9364Z" fill="url(#paint0_linear_1_6767)"/>
<defs>
<linearGradient id="paint0_linear_1_6767" x1="48.6193" y1="41.0572" x2="48.6193" y2="19.9952" gradientUnits="userSpaceOnUse">
<stop stop-color="#198AB3"/>
<stop offset="0.17" stop-color="#32BEDD"/>
<stop offset="0.5" stop-color="#198AB3"/>
<stop offset="0.66" stop-color="#32BEDD"/>
<stop offset="0.97" stop-color="#50E6FF"/>
</linearGradient>
</defs>
</svg>
