<svg xmlns="http://www.w3.org/2000/svg" width="100" height="100" fill="none"><path fill="#465154" d="M10.828 76.193H8.886l-.97-2.71H3.82l-.913 2.71H1l3.946-10.639h1.97zm-3.33-4.146-1.456-4.243a5 5 0 0 1-.14-.667h-.049q-.047.34-.145.667l-1.456 4.243zM17.986 69.318l-4.062 5.532h4.062v1.343h-6.43v-.627l4.15-5.606h-3.752v-1.343h6.032zM25.892 76.193h-1.704v-1.2h-.029c-.208.429-.536.788-.942 1.033a2.43 2.43 0 0 1-1.348.349q-2.665 0-2.67-3.235v-4.538h1.699v4.362q0 2.048 1.563 2.048a1.57 1.57 0 0 0 1.247-.563c.336-.413.51-.937.485-1.47v-4.372h1.704zM32.26 70.24a1.4 1.4 0 0 0-.889-.246 1.51 1.51 0 0 0-1.252.671 3.1 3.1 0 0 0-.485 1.877v3.636h-1.738v-7.595H29.6v1.592h.034c.133-.48.4-.914.767-1.25.316-.288.728-.448 1.154-.45.243-.013.485.036.704.142zM39.796 72.866h-5.125a2.2 2.2 0 0 0 .64 1.627 2.38 2.38 0 0 0 1.69.583 3.7 3.7 0 0 0 2.213-.725v1.386c-.827.471-1.77.697-2.718.652a3.34 3.34 0 0 1-2.606-1.034 4.17 4.17 0 0 1-.942-2.91 4.07 4.07 0 0 1 1.053-2.907 3.4 3.4 0 0 1 1.172-.84 3.4 3.4 0 0 1 1.41-.277 2.94 2.94 0 0 1 2.388.98c.604.795.904 1.783.845 2.784zm-1.645-1.22a2.23 2.23 0 0 0-.432-1.441 1.46 1.46 0 0 0-1.174-.52 1.64 1.64 0 0 0-1.248.544 2.46 2.46 0 0 0-.626 1.416zM45.266 75.772v-1.818q.264.238.577.402.342.18.709.298.367.122.747.192.341.065.69.068c.57.04 1.14-.09 1.64-.372a1.22 1.22 0 0 0 .538-1.078 1.2 1.2 0 0 0-.18-.657 1.9 1.9 0 0 0-.485-.49 5.3 5.3 0 0 0-.761-.441l-.937-.441q-.535-.29-1-.588a4.3 4.3 0 0 1-.815-.671 2.7 2.7 0 0 1-.534-.814 2.7 2.7 0 0 1-.194-1.058c-.011-.458.105-.91.335-1.304a2.84 2.84 0 0 1 .883-.912 4 4 0 0 1 1.247-.534 6 6 0 0 1 1.427-.176 5.7 5.7 0 0 1 2.427.377V67.5a3.82 3.82 0 0 0-2.306-.652q-.391 0-.776.074a2.3 2.3 0 0 0-.69.245 1.5 1.5 0 0 0-.484.436c-.13.19-.197.416-.19.647a1.23 1.23 0 0 0 .146.617c.108.192.255.359.432.49q.325.244.689.421.407.207.941.442.535.234 1.039.607.47.304.859.706c.242.25.44.54.587.858.15.337.225.703.219 1.073.021.451-.078.9-.289 1.3-.21.399-.523.734-.905.969a3.9 3.9 0 0 1-1.262.49 7 7 0 0 1-1.505.156q-.261 0-.65-.039a8 8 0 0 1-.815-.127 7 7 0 0 1-.762-.191 2.4 2.4 0 0 1-.592-.25M59.723 68.598l-3.397 8.82q-1.058 2.358-2.97 2.357a3.5 3.5 0 0 1-.898-.098v-1.43q.356.124.733.132c.305.005.604-.083.859-.253s.453-.413.568-.698l.485-1.245-2.99-7.58h1.888l1.84 5.493q.03.102.13.549h.04q.039-.172.13-.535l1.884-5.532zM67.547 76.193h-1.704v-4.278q0-2.127-1.49-2.127a1.62 1.62 0 0 0-1.286.588 2.2 2.2 0 0 0-.485 1.47v4.332h-1.713v-7.595h1.713v1.26h.029a2.7 2.7 0 0 1 1.01-1.069 2.66 2.66 0 0 1 1.417-.373 2.25 2.25 0 0 1 1.873.804c.473.678.701 1.5.645 2.328zM75.297 76.193h-1.655v-1.186h-.029a2.5 2.5 0 0 1-.947 1.017 2.47 2.47 0 0 1-1.339.35 2.4 2.4 0 0 1-1.737-.607 2.13 2.13 0 0 1-.626-1.608q0-2.15 2.456-2.509l2.232-.318q0-1.622-1.529-1.622a3.6 3.6 0 0 0-2.426.936v-1.505a5.24 5.24 0 0 1 2.746-.71q2.85 0 2.85 2.832zm-1.645-3.729-1.577.22c-.392.03-.77.153-1.107.358a1.05 1.05 0 0 0-.369.921 1.02 1.02 0 0 0 .34.79c.254.22.582.336.917.323a1.68 1.68 0 0 0 1.291-.554c.346-.383.527-.889.505-1.406zM78.956 75.076h-.029v4.611h-1.703v-11.09h1.703v1.333h.03c.242-.469.61-.86 1.063-1.127.452-.268.97-.402 1.494-.387.425-.02.849.06 1.237.237.388.176.73.442.995.778.57.79.852 1.754.801 2.73a4.76 4.76 0 0 1-.902 3.042c-.294.374-.67.672-1.1.87-.429.2-.899.292-1.37.272a2.45 2.45 0 0 1-1.285-.323 2.5 2.5 0 0 1-.934-.946m-.043-3v.942a2.02 2.02 0 0 0 .524 1.411 1.85 1.85 0 0 0 1.448.575 1.84 1.84 0 0 0 1.372-.742 3.5 3.5 0 0 0 .538-2.082 2.76 2.76 0 0 0-.485-1.755 1.66 1.66 0 0 0-1.364-.632 1.82 1.82 0 0 0-1.456.652 2.43 2.43 0 0 0-.577 1.632M85.75 75.958v-1.593a3.38 3.38 0 0 0 2.122.71q1.543 0 1.543-.92a.73.73 0 0 0-.131-.441 1.3 1.3 0 0 0-.354-.324 2.8 2.8 0 0 0-.53-.255l-.679-.25a7 7 0 0 1-.835-.392 2.5 2.5 0 0 1-.616-.49 1.8 1.8 0 0 1-.369-.597 2.2 2.2 0 0 1-.126-.78c-.009-.345.08-.685.257-.98.175-.284.41-.525.69-.705.298-.196.626-.341.97-.432a4.5 4.5 0 0 1 1.14-.142 5.1 5.1 0 0 1 1.864.319v1.504a3.12 3.12 0 0 0-1.82-.549 2.3 2.3 0 0 0-.582.069 1.5 1.5 0 0 0-.447.186.9.9 0 0 0-.286.284.7.7 0 0 0-.102.368c-.005.146.03.29.102.416a.9.9 0 0 0 .306.3q.23.142.485.235l.65.235q.446.18.87.407.362.198.654.49c.178.172.32.378.418.607.103.26.152.539.145.819.01.354-.081.704-.262 1.01a2.2 2.2 0 0 1-.703.71 3.3 3.3 0 0 1-1.02.416 5.3 5.3 0 0 1-1.213.137 5.1 5.1 0 0 1-2.14-.372M99 72.866h-5.125a2.2 2.2 0 0 0 .64 1.627c.468.402 1.071.607 1.685.573a3.7 3.7 0 0 0 2.213-.725v1.387c-.828.47-1.77.696-2.718.651a3.33 3.33 0 0 1-2.606-1.034 4.17 4.17 0 0 1-.947-2.91 4.07 4.07 0 0 1 1.039-2.892 3.4 3.4 0 0 1 1.171-.84 3.4 3.4 0 0 1 1.41-.277 2.94 2.94 0 0 1 2.389.98c.604.795.904 1.783.844 2.783zm-1.645-1.22a2.24 2.24 0 0 0-.432-1.441 1.46 1.46 0 0 0-1.175-.515 1.64 1.64 0 0 0-1.247.544 2.46 2.46 0 0 0-.626 1.416zM29.721 94.423H27.78l-.97-2.71h-4.097l-.912 2.71h-1.908l3.946-10.64h1.97zm-3.33-4.156-1.455-4.244a5 5 0 0 1-.155-.656 4.4 4.4 0 0 1-.146.666l-1.456 4.244zM37.588 94.423h-1.703v-4.278q0-2.127-1.49-2.127a1.62 1.62 0 0 0-1.286.588 2.2 2.2 0 0 0-.486 1.47v4.332h-1.732v-7.571h1.713v1.26h.029a2.7 2.7 0 0 1 1.01-1.069 2.66 2.66 0 0 1 1.416-.373 2.25 2.25 0 0 1 1.874.804c.474.674.706 1.492.655 2.318zM45.339 94.423h-1.631v-1.186h-.049a2.5 2.5 0 0 1-.947 1.017 2.47 2.47 0 0 1-1.339.35 2.4 2.4 0 0 1-1.737-.608 2.13 2.13 0 0 1-.626-1.607q0-2.15 2.456-2.509l2.232-.319q0-1.621-1.529-1.622a3.6 3.6 0 0 0-2.426.936v-1.504a5.25 5.25 0 0 1 2.747-.71q2.849 0 2.849 2.832zm-1.631-3.73-1.577.221c-.392.03-.77.153-1.107.358a1.05 1.05 0 0 0-.369.921 1.02 1.02 0 0 0 .34.789c.255.215.58.325.912.309a1.67 1.67 0 0 0 1.291-.554c.342-.376.525-.872.51-1.382zM48.983 94.423H47.27V83.18h1.713zM57.68 86.837l-3.397 8.82q-1.058 2.358-2.97 2.358a3.5 3.5 0 0 1-.898-.098v-1.431c.236.082.483.127.733.132.305.005.604-.083.859-.252.254-.17.452-.413.568-.698l.485-1.245-2.96-7.586h1.887l1.791 5.518q.03.102.131.549h.039q.034-.172.131-.534l1.883-5.533zM63.16 94.344a2.9 2.9 0 0 1-1.316.25q-2.189 0-2.189-2.122V88.18h-1.257v-1.343h1.257v-1.76l1.704-.49v2.25h1.8v1.347h-1.8v3.798c-.034.346.051.692.242.98a1 1 0 0 0 .811.29c.27.005.534-.083.747-.25zM65.285 85.234a1.02 1.02 0 0 1-.718-.274.9.9 0 0 1-.296-.696.93.93 0 0 1 .296-.706c.193-.185.452-.285.718-.279.271-.006.534.094.733.28a.92.92 0 0 1 .3.705.92.92 0 0 1-.3.686c-.198.188-.461.29-.733.284m.844 9.189h-1.703v-7.586h1.703zM73.56 94.075a4.17 4.17 0 0 1-2.136.524 3.6 3.6 0 0 1-2.703-1.058 3.75 3.75 0 0 1-1.029-2.74 4.16 4.16 0 0 1 1.107-3.013 3.921 3.921 0 0 1 2.956-1.137 4.3 4.3 0 0 1 1.814.362v1.603a2.73 2.73 0 0 0-1.674-.593 2.3 2.3 0 0 0-1.771.74 2.72 2.72 0 0 0-.69 1.93 2.6 2.6 0 0 0 .65 1.863 2.3 2.3 0 0 0 1.743.68 2.7 2.7 0 0 0 1.733-.66zM74.768 94.188v-1.593c.6.477 1.342.736 2.106.735q1.544 0 1.544-.921a.73.73 0 0 0-.131-.441 1.3 1.3 0 0 0-.355-.324 2.8 2.8 0 0 0-.529-.255l-.679-.25a7 7 0 0 1-.835-.392 2.5 2.5 0 0 1-.616-.49 1.8 1.8 0 0 1-.369-.598 2.2 2.2 0 0 1-.126-.779c-.01-.344.08-.685.257-.98.175-.284.41-.525.69-.705.298-.196.626-.341.97-.432a4.5 4.5 0 0 1 1.14-.142 5.1 5.1 0 0 1 1.864.319v1.504a3.12 3.12 0 0 0-1.82-.549 2.3 2.3 0 0 0-.582.069q-.239.056-.447.186a.9.9 0 0 0-.286.284.7.7 0 0 0-.102.368.8.8 0 0 0 .102.416.94.94 0 0 0 .306.3q.23.141.485.235l.65.235q.444.18.869.407.365.198.66.49c.178.172.32.378.417.607.103.26.153.539.146.819.01.354-.082.704-.262 1.01-.178.287-.419.53-.704.71a3.3 3.3 0 0 1-1.019.416 5.2 5.2 0 0 1-1.213.137 5.1 5.1 0 0 1-2.13-.397"/><path fill="#0078D4" d="M48.62 5 26.57 17.741v25.433L48.62 56.053 70.667 43.31v-25.52zm17.956 35.65L48.619 51.143 30.643 40.773V20.26L48.6 9.768 66.557 20.29z"/><path fill="#50E6FF" d="M59.126 34.711a2.06 2.06 0 0 0-.907-.798 16.5 16.5 0 0 0-5.085-6.37 16.3 16.3 0 0 0-7.485-3.132l18.195-10.615-4.232-2.45-20.728 12.09a2.12 2.12 0 0 0-.894 1.029 2.15 2.15 0 0 0-.088 1.366c.12.452.386.852.755 1.137s.82.438 1.285.437q.128-.024.252-.064l.35 1.47c2.644-.627 5.42-.34 7.884.815a12.2 12.2 0 0 1 5.705 5.556L33.487 47.217l4.213 2.45 20.655-12.055c.275-.167.508-.397.68-.671l.208-.05c0-.082-.049-.156-.068-.24a2.1 2.1 0 0 0-.049-1.94"/><path fill="url(#a)" d="M57.297 30.565a5.16 5.16 0 0 0-2.888.885 5.24 5.24 0 0 0-1.914 2.355 5.3 5.3 0 0 0-.296 3.033 5.26 5.26 0 0 0 1.422 2.687 5.2 5.2 0 0 0 2.662 1.436 5.15 5.15 0 0 0 3.003-.298 5.2 5.2 0 0 0 2.332-1.933 5.285 5.285 0 0 0-.646-6.627 5.17 5.17 0 0 0-3.675-1.538m-17.36-10.629a5.16 5.16 0 0 0-2.888.885 5.24 5.24 0 0 0-1.914 2.355 5.3 5.3 0 0 0-.296 3.033 5.27 5.27 0 0 0 1.423 2.687 5.2 5.2 0 0 0 2.66 1.436 5.15 5.15 0 0 0 3.004-.298A5.2 5.2 0 0 0 44.26 28.1a5.284 5.284 0 0 0-.647-6.627 5.17 5.17 0 0 0-3.675-1.538"/><defs><linearGradient id="a" x1="48.619" x2="48.619" y1="41.057" y2="19.995" gradientUnits="userSpaceOnUse"><stop stop-color="#198AB3"/><stop offset=".17" stop-color="#32BEDD"/><stop offset=".5" stop-color="#198AB3"/><stop offset=".66" stop-color="#32BEDD"/><stop offset=".97" stop-color="#50E6FF"/></linearGradient></defs></svg>