<svg width="100" height="100" viewBox="0 0 100 100" fill="none" xmlns="http://www.w3.org/2000/svg">
<path d="M20.6979 77.4774H18.3872L17.2318 74.3095H12.3563L11.276 77.4774H9L13.6965 65.0463H16.0418L20.6979 77.4774ZM16.7408 72.6081L15.0078 67.6471C14.9328 67.3953 14.8749 67.1389 14.8345 66.8794H14.7767C14.7396 67.1432 14.6816 67.4037 14.6034 67.6585L12.8704 72.6195L16.7408 72.6081Z" fill="#465154"/>
<path d="M29.2185 69.4401L24.3834 75.9078H29.2185V77.4774H21.5644V76.7212L26.5035 70.1677H22.0381V68.598H29.2185V69.4401Z" fill="#465154"/>
<path d="M38.6288 77.4774H36.6012V76.0739H36.5665C36.318 76.5756 35.9283 76.9952 35.4444 77.2819C34.9605 77.5686 34.4032 77.7101 33.8399 77.6894C31.7256 77.6894 30.6685 76.4291 30.6685 73.9085V68.598H32.6846V73.6965C32.6846 75.2929 33.3046 76.0911 34.5447 76.0911C34.8261 76.0983 35.1055 76.0428 35.3624 75.9288C35.6193 75.8148 35.8472 75.6452 36.0293 75.4323C36.4295 74.9499 36.6353 74.3377 36.607 73.7137V68.598H38.6346L38.6288 77.4774Z" fill="#465154"/>
<path d="M46.2079 70.5171C45.8977 70.3072 45.5255 70.2064 45.1508 70.2307C44.8527 70.2321 44.5595 70.3066 44.2975 70.4475C44.0355 70.5884 43.8126 70.7914 43.6488 71.0384C43.2232 71.689 43.0206 72.4585 43.0711 73.2325V77.4831H41.0146V68.598H43.0422V70.4254H43.0827C43.2417 69.8628 43.5582 69.3563 43.9954 68.9646C44.3726 68.627 44.8622 68.4393 45.3703 68.4376C45.6591 68.4228 45.947 68.4799 46.2079 68.6037V70.5171Z" fill="#465154"/>
<path d="M55.1791 73.5877H49.0789C49.0697 73.9368 49.1326 74.2841 49.2637 74.6082C49.3949 74.9323 49.5915 75.2264 49.8414 75.4724C50.3981 75.9428 51.1158 76.1828 51.846 76.1427C52.7929 76.1468 53.7162 75.8497 54.4802 75.2948V76.916C53.4955 77.4665 52.3743 77.7305 51.2452 77.6779C50.671 77.7089 50.0967 77.617 49.5615 77.4084C49.0262 77.1999 48.5425 76.8795 48.1431 76.4692C47.3448 75.5186 46.9438 74.301 47.0224 73.0664C46.97 71.8223 47.4142 70.6079 48.2586 69.6865C48.6473 69.264 49.1227 68.9289 49.6527 68.7037C50.1828 68.4784 50.7553 68.3682 51.3318 68.3803C51.862 68.3469 52.3929 68.4326 52.885 68.631C53.3771 68.8293 53.8177 69.1353 54.174 69.5261C54.8932 70.4553 55.2502 71.6107 55.1791 72.78V73.5877ZM53.2208 72.167C53.2525 71.5633 53.0707 70.9677 52.7067 70.4828C52.5353 70.2835 52.3203 70.1257 52.078 70.0215C51.8357 69.9172 51.5726 69.8692 51.3087 69.8813C51.03 69.877 50.7535 69.9315 50.4976 70.0411C50.2417 70.1508 50.0121 70.313 49.8241 70.5171C49.4015 70.9744 49.14 71.5554 49.0789 72.1727L53.2208 72.167Z" fill="#465154"/>
<path d="M61.6895 76.9848V74.8594C61.8977 75.0442 62.1287 75.202 62.3769 75.3292C62.6475 75.4693 62.9297 75.5862 63.2203 75.6786C63.5114 75.7732 63.8086 75.8479 64.11 75.9021C64.3805 75.9523 64.655 75.9791 64.9303 75.9823C65.6099 76.028 66.2883 75.8767 66.8828 75.5469C67.0907 75.41 67.2592 75.2219 67.3716 75.0009C67.4841 74.7799 67.5366 74.5338 67.524 74.2866C67.5307 74.0154 67.4563 73.7483 67.3103 73.5189C67.1545 73.2947 66.9588 73.1005 66.7326 72.9461C66.4451 72.7498 66.1417 72.5774 65.8257 72.4305L64.7107 71.9149C64.2833 71.6896 63.8866 71.4604 63.5207 71.2275C63.1712 71.0106 62.8493 70.7529 62.5618 70.4598C62.2945 70.183 62.0793 69.8609 61.9264 69.5089C61.7645 69.1165 61.6858 68.6953 61.6953 68.2715C61.682 67.7366 61.8201 67.2087 62.0939 66.7477C62.3591 66.3186 62.7184 65.9544 63.1453 65.6822C63.6012 65.3928 64.1031 65.1817 64.6299 65.0577C65.1855 64.921 65.7558 64.8517 66.3282 64.8515C67.3118 64.7905 68.2971 64.9409 69.2166 65.2926V67.332C68.4069 66.7952 67.4457 66.5283 66.4726 66.5701C66.1625 66.5699 65.8531 66.5987 65.5484 66.656C65.2613 66.7077 64.9845 66.8044 64.7281 66.9425C64.5004 67.0687 64.3032 67.2427 64.1504 67.4523C63.9953 67.6738 63.9163 67.939 63.9251 68.2085C63.9177 68.46 63.9774 68.7091 64.0984 68.9303C64.2277 69.1547 64.4028 69.3498 64.6125 69.5032C64.8701 69.6921 65.1447 69.857 65.4328 69.9958C65.7563 70.1562 66.1318 70.3281 66.5593 70.5114C66.9868 70.6947 67.3988 70.9315 67.7955 71.2218C68.167 71.4571 68.51 71.7339 68.818 72.0467C69.1067 72.3391 69.3431 72.6781 69.517 73.0492C69.6956 73.4433 69.7843 73.8717 69.7769 74.3038C69.7948 74.8613 69.6611 75.4134 69.3899 75.9021C69.137 76.3332 68.7821 76.697 68.3559 76.9619C67.8928 77.2385 67.3845 77.4324 66.8539 77.5347C66.2653 77.6591 65.6649 77.7206 65.0631 77.718C64.8552 77.718 64.5971 77.7028 64.289 77.6722C63.9809 77.6417 63.6517 77.5844 63.3012 77.5004C62.9952 77.4418 62.6924 77.3672 62.3943 77.2769C62.1473 77.2109 61.9104 77.1127 61.6895 76.9848Z" fill="#465154"/>
<path d="M76.9401 77.6894C76.099 77.7014 75.2641 77.5455 74.485 77.2311C73.7735 76.9393 73.1333 76.4998 72.6075 75.9421C72.0752 75.3684 71.6646 74.6943 71.4002 73.96C71.1065 73.1421 70.9618 72.2789 70.9727 71.4108C70.9607 70.4916 71.1072 69.5771 71.406 68.7069C71.6683 67.9392 72.0871 67.2333 72.6364 66.6331C73.1788 66.0534 73.8436 65.5996 74.5832 65.304C75.3986 64.9815 76.2702 64.8219 77.1481 64.8343C77.9703 64.8237 78.7861 64.9796 79.5454 65.2926C80.2491 65.5862 80.8813 66.0257 81.3997 66.5815C81.9275 67.1567 82.334 67.8306 82.5955 68.5636C82.8859 69.3803 83.0287 70.2413 83.0172 71.1072C83.0305 72.2139 82.808 73.311 82.3644 74.3267C81.9887 75.2028 81.3919 75.9683 80.6314 76.5494L84.2708 79.1502H81.1051L78.8695 77.4316C78.5656 77.5133 78.2569 77.5765 77.9452 77.6206C77.6123 77.6676 77.2764 77.6905 76.9401 77.6894ZM77.0383 66.6503C76.4961 66.6436 75.9593 66.7571 75.467 66.9825C74.9919 67.2042 74.5718 67.5269 74.2366 67.9278C73.8779 68.3598 73.6054 68.8555 73.4336 69.3886C73.238 69.9997 73.1424 70.6379 73.1506 71.279C73.1438 71.9158 73.2374 72.5498 73.4278 73.158C73.5905 73.6873 73.8532 74.1811 74.2019 74.6131C74.5258 75.0084 74.9343 75.3273 75.3977 75.5469C75.8816 75.7727 76.4111 75.8863 76.9459 75.8791C77.5009 75.8888 78.0518 75.7835 78.5633 75.5698C79.0337 75.3665 79.4507 75.0588 79.7822 74.6704C80.1353 74.2477 80.3986 73.7586 80.5563 73.2325C80.7456 72.6065 80.8372 71.9554 80.8278 71.3019C80.8384 70.6341 80.7509 69.9683 80.5679 69.3255C80.4172 68.7942 80.162 68.2978 79.8169 67.8647C79.4959 67.4737 79.0861 67.1636 78.6211 66.9596C78.1215 66.7467 77.582 66.6413 77.0383 66.6503Z" fill="#465154"/>
<path d="M92 77.4774H85.0679V65.0463H87.1476V75.7359H92.0116L92 77.4774Z" fill="#465154"/>
<path d="M14.8345 98.7881V86.3569H18.4565C23.0779 86.3569 25.3886 88.3772 25.3886 92.4178C25.4209 93.2822 25.2635 94.1433 24.9274 94.9415C24.5913 95.7396 24.0844 96.4559 23.4418 97.0409C22.0077 98.2479 20.1612 98.863 18.2832 98.7595L14.8345 98.7881ZM16.9083 88.1042V97.0466H18.572C19.1931 97.0852 19.8156 96.9991 20.4022 96.7934C20.9889 96.5876 21.5276 96.2665 21.9861 95.8493C22.4098 95.3974 22.7364 94.8647 22.9459 94.2836C23.1555 93.7026 23.2436 93.0853 23.205 92.4694C23.205 89.5631 21.6857 88.1099 18.6471 88.1099L16.9083 88.1042Z" fill="#465154"/>
<path d="M34.0768 98.7881H32.1069V97.4017H32.0722C31.8172 97.8957 31.4263 98.308 30.9448 98.5909C30.4633 98.8737 29.9108 99.0156 29.3514 99C28.5948 99.0414 27.852 98.7863 27.2833 98.2897C27.0335 98.0456 26.8381 97.7522 26.7097 97.4286C26.5814 97.1049 26.5229 96.7581 26.5381 96.4107C26.5381 94.7341 27.5125 93.7564 29.4612 93.4776L32.1185 93.1052C32.1185 91.8411 31.5119 91.2091 30.2988 91.2091C29.2329 91.208 28.2042 91.5977 27.4104 92.3032V90.5445C28.4037 89.9775 29.5342 89.6902 30.6801 89.7139C32.9407 89.7139 34.071 90.8176 34.071 93.025L34.0768 98.7881ZM32.1069 94.4285L30.2295 94.6863C29.7635 94.7218 29.3125 94.8651 28.9124 95.1045C28.7555 95.2344 28.6334 95.4006 28.5568 95.5885C28.4802 95.7763 28.4515 95.98 28.4733 96.1815C28.4681 96.3553 28.5016 96.5281 28.5715 96.6875C28.6414 96.847 28.746 96.9891 28.8777 97.1038C29.1813 97.3549 29.5689 97.4837 29.9637 97.4647C30.256 97.4772 30.5476 97.4262 30.818 97.3154C31.0884 97.2046 31.3311 97.0366 31.5292 96.8231C31.9267 96.3776 32.1339 95.7962 32.1069 95.2019V94.4285Z" fill="#465154"/>
<path d="M41.0551 98.6964C40.5626 98.9112 40.0271 99.0111 39.4896 98.9885C37.7527 98.9885 36.8843 98.1617 36.8843 96.508V91.5126H35.3881V89.9086H36.8843V87.852L38.9119 87.2792V89.9086H41.0551V91.5126H38.9119V95.9523C38.8712 96.3559 38.9733 96.761 39.2007 97.0981C39.3263 97.2217 39.478 97.3161 39.6448 97.3746C39.8116 97.433 39.9894 97.454 40.1654 97.4361C40.487 97.4431 40.8013 97.3399 41.0551 97.1439V98.6964Z" fill="#465154"/>
<path d="M49.7606 98.7881H47.7907V97.4017H47.7561C47.501 97.8957 47.1101 98.308 46.6286 98.5909C46.1471 98.8737 45.5946 99.0156 45.0352 99C44.2786 99.0414 43.5359 98.7863 42.9672 98.2897C42.7173 98.0456 42.5219 97.7522 42.3935 97.4286C42.2652 97.1049 42.2067 96.7581 42.222 96.4107C42.222 94.7341 43.1963 93.7564 45.145 93.4776L47.8023 93.1052C47.8023 91.8411 47.1957 91.2091 45.9826 91.2091C44.9167 91.208 43.888 91.5977 43.0942 92.3032V90.5445C44.0875 89.9775 45.218 89.6902 46.3639 89.7139C48.6245 89.7139 49.7548 90.8176 49.7548 93.025L49.7606 98.7881ZM47.8023 94.4285L45.9248 94.6863C45.4589 94.7218 45.0078 94.8651 44.6077 95.1045C44.4509 95.2344 44.3287 95.4006 44.2521 95.5885C44.1756 95.7763 44.1469 95.98 44.1687 96.1815C44.1634 96.3553 44.197 96.5281 44.2669 96.6875C44.3368 96.847 44.4413 96.9891 44.5731 97.1038C44.8767 97.3549 45.2643 97.4837 45.6591 97.4647C45.947 97.4723 46.2333 97.4184 46.4984 97.3067C46.7635 97.1951 47.0013 97.0282 47.1957 96.8174C47.6051 96.3749 47.8229 95.7906 47.8023 95.1905V94.4285Z" fill="#465154"/>
<path d="M54.1162 97.5048H54.0585V98.788H52.0482V85.6465H54.0585V91.4725H54.0931C54.3816 90.9236 54.8202 90.4664 55.3586 90.1533C55.8971 89.8403 56.5136 89.684 57.1375 89.7024C57.6505 89.672 58.1634 89.7644 58.6329 89.9718C59.1024 90.1791 59.5148 90.4954 59.8352 90.8939C60.5151 91.8188 60.8537 92.9475 60.7941 94.0905C60.8602 95.3673 60.4807 96.6276 59.7197 97.6595C59.3716 98.0978 58.9235 98.448 58.4123 98.681C57.9011 98.9141 57.3414 99.0234 56.7793 99C56.2387 99.0231 55.7025 98.8952 55.2317 98.6309C54.7608 98.3665 54.3743 97.9764 54.1162 97.5048ZM54.0585 93.9759V95.0758C54.0426 95.6852 54.2664 96.2769 54.6823 96.7257C54.9034 96.9548 55.172 97.1336 55.4696 97.2496C55.7672 97.3657 56.0867 97.4162 56.4059 97.3976C56.7251 97.3791 57.0365 97.292 57.3184 97.1423C57.6003 96.9927 57.846 96.7841 58.0386 96.5309C58.5072 95.8073 58.7318 94.9547 58.6798 94.0962C58.7293 93.3672 58.5254 92.6434 58.1022 92.0454C57.9094 91.8041 57.6619 91.6114 57.3799 91.483C57.0978 91.3545 56.7891 91.294 56.4789 91.3064C56.1509 91.2961 55.8247 91.3592 55.5247 91.4911C55.2246 91.623 54.9584 91.8203 54.7459 92.0683C54.2868 92.598 54.0418 93.2776 54.0585 93.9759Z" fill="#465154"/>
<path d="M69.5632 98.788H67.5933V97.4016H67.5587C67.3036 97.8956 66.9127 98.3079 66.4312 98.5908C65.9497 98.8736 65.3973 99.0155 64.8378 98.9999C64.0812 99.0414 63.3385 98.7862 62.7698 98.2896C62.5199 98.0455 62.3245 97.7521 62.1962 97.4285C62.0678 97.1048 62.0093 96.7581 62.0246 96.4106C62.0246 94.734 62.9989 93.7563 64.9476 93.4775L67.6049 93.1052C67.6049 91.841 66.9983 91.209 65.7852 91.209C64.7193 91.2079 63.6906 91.5976 62.8969 92.3032V90.5445C63.8957 89.9693 65.0349 89.678 66.1896 89.7023C68.4502 89.7023 69.5805 90.8061 69.5805 93.0135L69.5632 98.788ZM67.6049 94.4285L65.7274 94.6863C65.2615 94.7218 64.8104 94.865 64.4104 95.1045C64.2535 95.2343 64.1313 95.4005 64.0548 95.5884C63.9782 95.7763 63.9495 95.98 63.9713 96.1814C63.9661 96.3552 63.9996 96.528 64.0695 96.6875C64.1394 96.8469 64.2439 96.9891 64.3757 97.1038C64.6793 97.3548 65.0669 97.4836 65.4617 97.4647C65.7497 97.4722 66.0359 97.4183 66.301 97.3067C66.5661 97.195 66.8039 97.0281 66.9983 96.8173C67.4077 96.3748 67.6255 95.7906 67.6049 95.1904V94.4285Z" fill="#465154"/>
<path d="M71.4406 98.5131V96.6684C72.1551 97.2263 73.0384 97.529 73.9477 97.5277C75.1724 97.5277 75.7847 97.1687 75.7847 96.4507C75.7906 96.2666 75.7358 96.0857 75.6288 95.9352C75.5137 95.7837 75.3706 95.6553 75.2071 95.5571C75.0082 95.4362 74.7972 95.3364 74.5774 95.2592L73.7687 94.967C73.428 94.8352 73.0962 94.6821 72.7751 94.5087C72.5017 94.3571 72.2542 94.1638 72.0414 93.9359C71.8497 93.7341 71.7004 93.4965 71.6024 93.237C71.4972 92.9448 71.4463 92.6362 71.4522 92.3261C71.4413 91.923 71.5476 91.5253 71.7583 91.1804C71.9667 90.8485 72.2469 90.5667 72.5786 90.3555C72.9341 90.1273 73.3242 89.9571 73.734 89.8513C74.1775 89.7389 74.6337 89.6831 75.0915 89.6852C75.8477 89.6734 76.5996 89.7997 77.3098 90.0576V91.8163C76.6716 91.3861 75.915 91.162 75.1435 91.1747C74.91 91.1726 74.6771 91.1996 74.4503 91.2549C74.2624 91.2984 74.0829 91.3719 73.9188 91.4725C73.7814 91.5564 73.6649 91.6699 73.578 91.8048C73.4971 91.9336 73.455 92.0827 73.4567 92.2344C73.4507 92.4048 73.4927 92.5734 73.578 92.7214C73.6705 92.8641 73.7951 92.9838 73.942 93.0708C74.1245 93.1818 74.3181 93.274 74.5196 93.3458L75.2937 93.6208C75.6463 93.7617 75.9914 93.9204 76.3277 94.0963C76.6135 94.25 76.876 94.4428 77.1076 94.6691C77.3197 94.8704 77.4886 95.112 77.6044 95.3795C77.7269 95.6834 77.7858 96.0089 77.7777 96.3362C77.7886 96.7509 77.6804 97.1602 77.4658 97.5163C77.2539 97.8527 76.9674 98.1368 76.6281 98.3469C76.254 98.5752 75.8439 98.7397 75.415 98.8339C74.9415 98.9424 74.4569 98.9962 73.9708 98.9943C73.1025 99.0145 72.2398 98.8504 71.4406 98.5131Z" fill="#465154"/>
<path d="M87.2169 94.8983H81.1109C81.0989 95.2503 81.1605 95.6009 81.2917 95.9282C81.4229 96.2555 81.621 96.5524 81.8734 96.8002C82.43 97.2705 83.1478 97.5105 83.8779 97.4704C84.8248 97.4742 85.748 97.1771 86.5121 96.6226V98.2438C85.5274 98.7942 84.4062 99.0583 83.2771 99.0057C82.7029 99.037 82.1285 98.9453 81.5932 98.7367C81.0579 98.5281 80.5742 98.2076 80.175 97.797C79.3747 96.8472 78.9716 95.6295 79.0486 94.3941C78.9956 93.15 79.4398 91.9354 80.2848 91.0142C80.6735 90.5918 81.1489 90.2567 81.6789 90.0314C82.209 89.8062 82.7815 89.6959 83.358 89.7081C83.8882 89.6747 84.4191 89.7603 84.9112 89.9587C85.4033 90.1571 85.8439 90.4631 86.2002 90.8538C86.9194 91.783 87.2763 92.9384 87.2053 94.1077L87.2169 94.8983ZM85.2528 93.4718C85.2844 92.8682 85.1026 92.2725 84.7387 91.7876C84.5673 91.5883 84.3522 91.4305 84.1099 91.3263C83.8676 91.222 83.6045 91.1741 83.3407 91.1861C83.0619 91.1819 82.7855 91.2364 82.5295 91.346C82.2736 91.4556 82.0441 91.6178 81.8561 91.822C81.4335 92.2793 81.172 92.8602 81.1109 93.4775L85.2528 93.4718Z" fill="#465154"/>
<path d="M50.5578 15.7513C39.2123 15.7513 30.0099 12.5719 30.0099 8.37853V47.6656C30.0099 51.6757 39.0505 54.9754 50.2689 55.0384H50.5578C61.9033 55.0384 71.1056 51.859 71.1056 47.6656V8.3728C71.1056 12.4573 61.9033 15.7513 50.5578 15.7513Z" fill="url(#paint0_linear_1_6794)"/>
<path d="M71.1056 8.37277C71.1056 12.4745 61.909 15.7455 50.5578 15.7455C39.2065 15.7455 30.0099 12.5719 30.0099 8.37277C30.0099 4.17367 39.2123 1 50.5578 1C61.9033 1 71.1056 4.1794 71.1056 8.37277Z" fill="#E8E8E8"/>
<path d="M66.3282 7.77126C66.3282 10.3778 59.2575 12.4573 50.5578 12.4573C41.858 12.4573 34.7873 10.3606 34.7873 7.75407C34.7873 5.14754 41.8696 3.09668 50.5578 3.09668C59.246 3.09668 66.3282 5.19337 66.3282 7.77126Z" fill="#50E6FF"/>
<path d="M50.5578 8.94567C46.3277 8.83214 42.1093 9.43861 38.0858 10.7387C42.11 12.021 46.3277 12.6025 50.552 12.4573C54.7848 12.5797 59.0058 11.9551 63.0182 10.6127C58.9871 9.37388 54.7758 8.81047 50.5578 8.94567Z" fill="#198AB3"/>
<path d="M63.0586 35.6469V24.8426H60.1702V37.967H68.0555V35.6469H63.0586ZM40.1943 30.3364C39.5987 30.0989 39.0464 29.7661 38.5595 29.3511C38.4294 29.2155 38.3282 29.0553 38.2617 28.8802C38.1952 28.705 38.1649 28.5184 38.1725 28.3314C38.1632 28.1454 38.2024 27.9601 38.2864 27.7935C38.3704 27.6269 38.4963 27.4847 38.6519 27.3804C39.0457 27.109 39.5189 26.9741 39.9979 26.9966C41.1346 26.9517 42.2548 27.2777 43.1867 27.9247V25.1921C42.1624 24.8138 41.0727 24.6405 39.9806 24.6822C38.7322 24.6231 37.5034 25.0069 36.5145 25.765C36.0804 26.0974 35.732 26.5273 35.498 27.0192C35.264 27.5112 35.1511 28.0512 35.1686 28.5949C35.1686 30.2161 36.1968 31.4592 38.3746 32.4388C39.0825 32.7373 39.7501 33.1221 40.3618 33.5846C40.5118 33.7097 40.6324 33.8657 40.7152 34.0419C40.798 34.218 40.8411 34.4099 40.8413 34.6043C40.8412 34.7973 40.7944 34.9874 40.705 35.1589C40.6155 35.3303 40.486 35.478 40.3272 35.5896C39.8905 35.8433 39.3885 35.9648 38.883 35.939C37.6034 35.922 36.3728 35.4481 35.417 34.6043V37.5602C36.4757 38.1025 37.6575 38.3649 38.8483 38.3222C40.1923 38.4017 41.5244 38.0327 42.6321 37.2738C43.0187 36.9093 43.3152 36.4611 43.4986 35.9643C43.682 35.4675 43.7472 34.9354 43.6892 34.4095C43.7034 33.5963 43.4179 32.806 42.8863 32.1868C42.132 31.387 41.2142 30.7562 40.1943 30.3364ZM56.9468 35.3719C57.6423 34.266 58.011 32.9888 58.011 31.6855C58.011 30.3822 57.6423 29.105 56.9468 27.9991C56.45 27.015 55.6779 26.1936 54.7228 25.6332C53.7454 25.0845 52.6398 24.8001 51.5167 24.8083C50.3046 24.7815 49.1075 25.0783 48.0507 25.6676C47.0609 26.2158 46.2493 27.0326 45.7111 28.022C45.1438 29.1469 44.8584 30.3908 44.8792 31.6483C44.8917 32.7433 45.1565 33.821 45.6533 34.799C46.1425 35.7817 46.9118 36.6004 47.8658 37.1535C48.8344 37.7383 49.9386 38.0658 51.0719 38.1045L53.8274 41.2839H57.7036L53.7638 37.7894C55.0835 37.3894 56.2136 36.5312 56.9468 35.3719ZM53.7407 34.5756C53.4485 34.9349 53.0763 35.2222 52.6534 35.415C52.2304 35.6078 51.7682 35.7009 51.303 35.687C50.834 35.7023 50.3681 35.6064 49.9441 35.4071C49.52 35.2078 49.1502 34.9109 48.8652 34.5412C48.1953 33.6202 47.8742 32.4944 47.9582 31.3618C47.8838 30.2268 48.2129 29.1018 48.8883 28.1824C49.1903 27.8139 49.5717 27.5171 50.0046 27.3138C50.4374 27.1106 50.9107 27.0061 51.3896 27.0081C51.8574 26.9882 52.3226 27.0853 52.7426 27.2905C53.1626 27.4957 53.5237 27.8025 53.7927 28.1824C54.4162 29.1226 54.7124 30.2392 54.6361 31.3618C54.762 32.5108 54.4509 33.665 53.7638 34.5985L53.7407 34.5756Z" fill="url(#paint1_radial_1_6794)"/>
<defs>
<linearGradient id="paint0_linear_1_6794" x1="30.0099" y1="31.7056" x2="71.1056" y2="31.7056" gradientUnits="userSpaceOnUse">
<stop stop-color="#005BA1"/>
<stop offset="0.07" stop-color="#0060A9"/>
<stop offset="0.36" stop-color="#0071C8"/>
<stop offset="0.52" stop-color="#0078D4"/>
<stop offset="0.64" stop-color="#0074CD"/>
<stop offset="0.82" stop-color="#006ABB"/>
<stop offset="1" stop-color="#005BA1"/>
</linearGradient>
<radialGradient id="paint1_radial_1_6794" cx="0" cy="0" r="1" gradientUnits="userSpaceOnUse" gradientTransform="translate(51.7131 33.006) scale(22.6621 22.4735)">
<stop stop-color="#F2F2F2"/>
<stop offset="0.58" stop-color="#EEEEEE"/>
<stop offset="1" stop-color="#E6E6E6"/>
</radialGradient>
</defs>
</svg>
