<svg xmlns="http://www.w3.org/2000/svg" width="100" height="100" fill="none"><path fill="#465154" d="M20.698 77.477h-2.31l-1.156-3.168h-4.876l-1.08 3.168H9l4.697-12.43h2.345zm-3.957-4.869-1.733-4.96a6 6 0 0 1-.173-.769h-.058a5 5 0 0 1-.174.78l-1.733 4.96zM29.219 69.44l-4.836 6.468h4.836v1.57h-7.655v-.757l4.94-6.553h-4.466v-1.57h7.18zM38.629 77.477H36.6v-1.403h-.035a2.9 2.9 0 0 1-1.122 1.208 2.94 2.94 0 0 1-1.604.407q-3.172 0-3.172-3.78v-5.311h2.017v5.099q0 2.394 1.86 2.394a1.9 1.9 0 0 0 1.484-.659c.4-.482.606-1.094.578-1.718v-5.116h2.028zM46.208 70.517c-.31-.21-.682-.31-1.057-.286a1.82 1.82 0 0 0-1.502.807 3.58 3.58 0 0 0-.578 2.195v4.25h-2.056v-8.885h2.027v1.827h.04a3.1 3.1 0 0 1 .913-1.46 2.07 2.07 0 0 1 1.375-.527c.29-.015.577.042.838.166zM55.18 73.588h-6.101a2.54 2.54 0 0 0 .762 1.884c.557.47 1.275.71 2.005.67a4.45 4.45 0 0 0 2.634-.847v1.621a6.05 6.05 0 0 1-3.235.762 4.04 4.04 0 0 1-3.102-1.209 4.81 4.81 0 0 1-1.12-3.403 4.7 4.7 0 0 1 1.236-3.38 4 4 0 0 1 1.394-.982 4.1 4.1 0 0 1 1.679-.324 3.56 3.56 0 0 1 2.842 1.146 4.84 4.84 0 0 1 1.005 3.254zm-1.96-1.421a2.58 2.58 0 0 0-.513-1.684 1.73 1.73 0 0 0-1.398-.602 1.98 1.98 0 0 0-1.485.636 2.85 2.85 0 0 0-.745 1.656zM61.69 76.985v-2.126q.313.279.687.47.406.21.843.35.437.141.89.223.406.075.82.08a3.54 3.54 0 0 0 1.953-.435 1.43 1.43 0 0 0 .641-1.26 1.37 1.37 0 0 0-.214-.768 2.2 2.2 0 0 0-.577-.573 6.4 6.4 0 0 0-.907-.516l-1.115-.515a17 17 0 0 1-1.19-.687 5.1 5.1 0 0 1-.96-.768 3.2 3.2 0 0 1-.635-.951 3.1 3.1 0 0 1-.23-1.237 2.85 2.85 0 0 1 .398-1.524c.265-.43.624-.794 1.051-1.066.456-.29.958-.5 1.485-.624a7 7 0 0 1 1.698-.207 6.9 6.9 0 0 1 2.889.442v2.039a4.6 4.6 0 0 0-2.744-.762q-.466 0-.925.086a2.8 2.8 0 0 0-.82.286c-.228.127-.425.3-.578.51a1.25 1.25 0 0 0-.225.757c-.007.251.052.5.173.721.13.225.305.42.514.573q.388.285.82.493.486.24 1.127.515.642.276 1.237.71.558.355 1.022.826c.289.292.525.631.699 1.002.179.394.267.823.26 1.255a3.1 3.1 0 0 1-.387 1.598 3.1 3.1 0 0 1-1.034 1.06c-.463.276-.971.47-1.502.573a8.5 8.5 0 0 1-1.79.183q-.313 0-.775-.046a7 7 0 0 1-.988-.172 9 9 0 0 1-.907-.223 3 3 0 0 1-.704-.292M76.94 77.69a6.3 6.3 0 0 1-2.455-.459 5.4 5.4 0 0 1-1.877-1.289A5.8 5.8 0 0 1 71.4 73.96a7.3 7.3 0 0 1-.427-2.55 8 8 0 0 1 .433-2.703 5.9 5.9 0 0 1 1.23-2.074 5.4 5.4 0 0 1 1.947-1.329 6.7 6.7 0 0 1 2.565-.47 6.1 6.1 0 0 1 2.397.459A5.36 5.36 0 0 1 81.4 66.58c.527.576.934 1.25 1.195 1.983.29.816.434 1.677.422 2.543a7.8 7.8 0 0 1-.653 3.22 5.55 5.55 0 0 1-1.733 2.222l3.64 2.601h-3.166l-2.236-1.718a8 8 0 0 1-.924.189q-.5.07-1.005.068m.098-11.04a3.7 3.7 0 0 0-1.571.332 3.6 3.6 0 0 0-1.23.946 4.4 4.4 0 0 0-.803 1.46 6 6 0 0 0-.283 1.891c-.007.637.086 1.27.277 1.879.163.53.425 1.023.774 1.455a3.46 3.46 0 0 0 2.744 1.266 4 4 0 0 0 1.617-.31c.47-.203.888-.51 1.22-.899.352-.422.616-.911.773-1.437.19-.627.281-1.278.272-1.931a6.8 6.8 0 0 0-.26-1.977 4.2 4.2 0 0 0-.751-1.46 3.2 3.2 0 0 0-1.196-.905 3.9 3.9 0 0 0-1.583-.31M92 77.477h-6.932v-12.43h2.08v10.689h4.864zM14.835 98.788V86.357h3.621q6.933 0 6.933 6.06a5.9 5.9 0 0 1-.462 2.525 6 6 0 0 1-1.485 2.099 7.38 7.38 0 0 1-5.159 1.719zm2.073-10.684v8.943h1.664a4.66 4.66 0 0 0 3.414-1.198 4.54 4.54 0 0 0 1.219-3.38q0-4.36-4.558-4.36zM34.077 98.788h-1.97v-1.386h-.035a2.95 2.95 0 0 1-1.127 1.189A3 3 0 0 1 29.35 99a2.9 2.9 0 0 1-2.068-.71 2.49 2.49 0 0 1-.745-1.88q0-2.514 2.923-2.932l2.657-.373q0-1.896-1.82-1.896a4.34 4.34 0 0 0-2.888 1.094v-1.758a6.33 6.33 0 0 1 3.27-.831q3.39 0 3.391 3.311zm-1.97-4.36-1.877.258a3 3 0 0 0-1.318.418 1.23 1.23 0 0 0-.439 1.078 1.17 1.17 0 0 0 .405.922c.303.25.69.38 1.086.36a2.03 2.03 0 0 0 1.565-.64 2.28 2.28 0 0 0 .578-1.622zM41.055 98.696a3.54 3.54 0 0 1-1.565.293q-2.606 0-2.606-2.481v-4.995h-1.496v-1.604h1.496v-2.057l2.028-.573v2.63h2.143v1.604h-2.143v4.44c-.04.403.061.808.289 1.145a1.2 1.2 0 0 0 .964.338c.322.007.636-.096.89-.292zM49.76 98.788h-1.97v-1.386h-.034a2.95 2.95 0 0 1-1.127 1.189 3 3 0 0 1-1.594.409 2.9 2.9 0 0 1-2.068-.71 2.49 2.49 0 0 1-.745-1.88q0-2.514 2.923-2.932l2.657-.373q0-1.896-1.82-1.896a4.34 4.34 0 0 0-2.888 1.094v-1.758a6.33 6.33 0 0 1 3.27-.831q3.39 0 3.39 3.311zm-1.958-4.36-1.877.258a3 3 0 0 0-1.317.418 1.23 1.23 0 0 0-.44 1.078 1.17 1.17 0 0 0 .405.922c.304.25.691.38 1.086.36a2.03 2.03 0 0 0 1.537-.647 2.28 2.28 0 0 0 .606-1.626zM54.116 97.505h-.057v1.283h-2.01V85.647h2.01v5.825h.034a3.3 3.3 0 0 1 1.266-1.319 3.34 3.34 0 0 1 1.779-.45 3.23 3.23 0 0 1 2.697 1.19 4.96 4.96 0 0 1 .96 3.198 5.53 5.53 0 0 1-1.075 3.569 3.55 3.55 0 0 1-1.308 1.021A3.6 3.6 0 0 1 56.78 99a2.9 2.9 0 0 1-1.547-.37 2.9 2.9 0 0 1-1.116-1.125m-.057-3.53v1.1c-.016.61.207 1.202.623 1.65a2.2 2.2 0 0 0 1.724.673 2.22 2.22 0 0 0 1.633-.867 4.03 4.03 0 0 0 .64-2.435 3.18 3.18 0 0 0-.577-2.05 1.97 1.97 0 0 0-1.623-.74 2.2 2.2 0 0 0-1.733.762 2.8 2.8 0 0 0-.687 1.908M69.563 98.788h-1.97v-1.386h-.034a2.95 2.95 0 0 1-1.128 1.189 3 3 0 0 1-1.593.409 2.9 2.9 0 0 1-2.068-.71 2.48 2.48 0 0 1-.745-1.88q0-2.514 2.923-2.932l2.657-.373q0-1.896-1.82-1.896a4.34 4.34 0 0 0-2.888 1.094v-1.758a6.33 6.33 0 0 1 3.293-.843q3.39 0 3.39 3.311zm-1.958-4.36-1.878.258a3 3 0 0 0-1.317.418 1.23 1.23 0 0 0-.439 1.077 1.17 1.17 0 0 0 .405.923c.303.25.69.38 1.086.36a2.03 2.03 0 0 0 1.536-.647 2.28 2.28 0 0 0 .607-1.627zM71.44 98.513v-1.845c.715.558 1.598.861 2.508.86q1.837 0 1.837-1.077a.84.84 0 0 0-.156-.516 1.5 1.5 0 0 0-.422-.378q-.3-.18-.63-.298l-.808-.292a9 9 0 0 1-.994-.458 3 3 0 0 1-.734-.573 2.1 2.1 0 0 1-.439-.699 2.6 2.6 0 0 1-.15-.91c-.01-.404.096-.802.306-1.147.209-.332.489-.613.82-.825a4 4 0 0 1 1.156-.504c.444-.112.9-.168 1.358-.166a6.2 6.2 0 0 1 2.218.373v1.758a3.77 3.77 0 0 0-2.166-.641 2.8 2.8 0 0 0-.694.08 1.8 1.8 0 0 0-.531.218 1.1 1.1 0 0 0-.341.332.8.8 0 0 0-.121.43.9.9 0 0 0 .121.486c.093.143.217.263.364.35q.275.166.578.275l.774.275q.528.211 1.034.475c.285.154.548.347.78.573.212.201.38.443.496.71a2.4 2.4 0 0 1 .174.957c.01.415-.098.824-.312 1.18a2.6 2.6 0 0 1-.838.83 4 4 0 0 1-1.213.488 6.4 6.4 0 0 1-1.444.16 6.1 6.1 0 0 1-2.53-.48M87.217 94.898H81.11a2.54 2.54 0 0 0 .762 1.902c.557.47 1.275.71 2.005.67a4.46 4.46 0 0 0 2.634-.847v1.62a6.05 6.05 0 0 1-3.235.763 4.03 4.03 0 0 1-3.102-1.209 4.82 4.82 0 0 1-1.126-3.403 4.7 4.7 0 0 1 1.236-3.38 4.05 4.05 0 0 1 1.394-.983 4.1 4.1 0 0 1 1.679-.323 3.56 3.56 0 0 1 2.842 1.146 4.84 4.84 0 0 1 1.005 3.254zm-1.964-1.426a2.58 2.58 0 0 0-.514-1.684 1.73 1.73 0 0 0-1.398-.602 1.99 1.99 0 0 0-1.485.636 2.85 2.85 0 0 0-.745 1.656z"/><path fill="url(#a)" d="M50.558 15.751c-11.346 0-20.548-3.18-20.548-7.372v39.287c0 4.01 9.04 7.31 20.259 7.372h.289c11.345 0 20.548-3.179 20.548-7.372V8.373c0 4.084-9.203 7.378-20.548 7.378"/><path fill="#E8E8E8" d="M71.106 8.373c0 4.102-9.197 7.373-20.548 7.373-11.352 0-20.548-3.174-20.548-7.373C30.01 4.173 39.212 1 50.558 1s20.548 3.18 20.548 7.373"/><path fill="#50E6FF" d="M66.328 7.771c0 2.607-7.07 4.686-15.77 4.686s-15.77-2.096-15.77-4.703c0-2.606 7.082-4.657 15.77-4.657s15.77 2.096 15.77 4.674"/><path fill="#198AB3" d="M50.558 8.946a37.3 37.3 0 0 0-12.472 1.793 36.9 36.9 0 0 0 12.466 1.718 36 36 0 0 0 12.466-1.844 38.3 38.3 0 0 0-12.46-1.667"/><path fill="url(#b)" d="M63.059 35.647V24.843H60.17v13.124h7.885v-2.32zm-22.865-5.31a5.9 5.9 0 0 1-1.635-.986 1.4 1.4 0 0 1-.386-1.02 1.08 1.08 0 0 1 .479-.95 2.2 2.2 0 0 1 1.346-.384 5.23 5.23 0 0 1 3.189.928v-2.733a8.3 8.3 0 0 0-3.206-.51 5.3 5.3 0 0 0-3.467 1.083 3.44 3.44 0 0 0-1.016 1.254 3.4 3.4 0 0 0-.33 1.576c0 1.621 1.029 2.864 3.207 3.844a9.3 9.3 0 0 1 1.987 1.146 1.34 1.34 0 0 1 .48 1.02 1.2 1.2 0 0 1-.515.985 2.6 2.6 0 0 1-1.444.349 5.35 5.35 0 0 1-3.466-1.335v2.956a7 7 0 0 0 3.431.762 6.06 6.06 0 0 0 3.784-1.048 3.41 3.41 0 0 0 1.057-2.864 3.32 3.32 0 0 0-.803-2.223 7.8 7.8 0 0 0-2.692-1.85m16.753 5.035a6.92 6.92 0 0 0 0-7.373 5.75 5.75 0 0 0-2.224-2.366 6.45 6.45 0 0 0-3.206-.825 6.8 6.8 0 0 0-3.466.86 5.94 5.94 0 0 0-2.34 2.354 7.8 7.8 0 0 0-.832 3.626 7.1 7.1 0 0 0 .774 3.151 5.6 5.6 0 0 0 2.213 2.355 6.64 6.64 0 0 0 3.206.95l2.755 3.18h3.877l-3.94-3.495a5.73 5.73 0 0 0 3.183-2.417m-3.206-.796a3.038 3.038 0 0 1-2.438 1.111 3 3 0 0 1-1.359-.28 2.94 2.94 0 0 1-1.079-.866 4.8 4.8 0 0 1-.907-3.18 4.84 4.84 0 0 1 .93-3.179 3.2 3.2 0 0 1 2.502-1.174 2.8 2.8 0 0 1 1.353.283c.42.205.78.511 1.05.891.623.94.92 2.057.843 3.18a4.6 4.6 0 0 1-.872 3.237z"/><defs><radialGradient id="b" cx="0" cy="0" r="1" gradientTransform="matrix(22.6621 0 0 22.4735 51.713 33.006)" gradientUnits="userSpaceOnUse"><stop stop-color="#F2F2F2"/><stop offset=".58" stop-color="#EEE"/><stop offset="1" stop-color="#E6E6E6"/></radialGradient><linearGradient id="a" x1="30.01" x2="71.106" y1="31.706" y2="31.706" gradientUnits="userSpaceOnUse"><stop stop-color="#005BA1"/><stop offset=".07" stop-color="#0060A9"/><stop offset=".36" stop-color="#0071C8"/><stop offset=".52" stop-color="#0078D4"/><stop offset=".64" stop-color="#0074CD"/><stop offset=".82" stop-color="#006ABB"/><stop offset="1" stop-color="#005BA1"/></linearGradient></defs></svg>