<svg xmlns="http://www.w3.org/2000/svg" width="100" height="100" fill="none"><path fill="#8C3123" d="M3.749 37.124 1 38.48v23.986l2.749 1.359.015-.02v-26.68z"/><path fill="#E05243" d="m18.462 60.344-14.713 3.48v-26.7l14.713 3.395v19.823"/><path fill="#8C3123" d="m11.822 54.894 6.24.789.039-.09.036-10.177-.075-.078-6.24.78z"/><path fill="#8C3123" d="m18.062 60.382 14.311 3.458.023-.036V37.137l-.023-.023-14.31 3.445z"/><path fill="#E05243" d="m24.293 54.894-6.243.789V45.34l6.243.778z"/><path fill="#5E1F18" d="m24.293 41.877-6.23 1.13-6.24-1.13 6.232-1.623z"/><path fill="#F2B0A9" d="m24.293 59.125-6.23-1.137-6.24 1.137 6.232 1.73z"/><path fill="#8C3123" d="m11.822 41.877 6.24-1.527.052-.015V30.041L18.062 30l-6.24 3.102z"/><path fill="#E05243" d="M24.293 41.877 18.05 40.35V30l6.243 3.102z"/><path fill="#8C3123" d="M18.062 71 11.82 67.91v-8.786l6.24 1.527.093.104-.026 10.058-.066.178"/><path fill="#E05243" d="m18.062 71 6.23-3.089v-8.786l-6.242 1.527v10.34m14.323-33.868 2.752 1.367v23.975l-2.752 1.374z"/><path fill="#201C1D" d="M75.032 41.56v-1.273a.31.31 0 0 1 .2-.304.3.3 0 0 1 .127-.022h5.78a.325.325 0 0 1 .309.2.3.3 0 0 1 .024.126v1.086c0 .184-.159.425-.435.807l-2.993 4.252a6.4 6.4 0 0 1 3.297.702.59.59 0 0 1 .307.509v1.369c0 .185-.207.404-.424.292a6.69 6.69 0 0 0-6.105 0c-.2.11-.41-.11-.41-.295v-1.3c-.019-.309.055-.616.213-.883l3.468-4.946h-3.025a.32.32 0 0 1-.31-.197.3.3 0 0 1-.023-.127M53.95 49.564h-1.758a.33.33 0 0 1-.315-.298v-8.969a.327.327 0 0 1 .338-.323h1.638a.33.33 0 0 1 .32.3v1.176h.034c.427-1.133 1.23-1.662 2.303-1.662s1.792.53 2.284 1.662c.163-.427.437-.803.794-1.09a2.603 2.603 0 0 1 3.67.408c.555.763.442 1.85.442 2.811v5.661a.33.33 0 0 1-.338.326h-1.755a.336.336 0 0 1-.318-.326v-4.755q.039-.843-.048-1.682c-.131-.603-.512-.763-1.024-.763a1.17 1.17 0 0 0-1.052.735c-.182.453-.164 1.209-.164 1.718v4.747a.33.33 0 0 1-.21.303.3.3 0 0 1-.128.023h-1.756a.334.334 0 0 1-.317-.326v-4.755c0-1 .166-2.473-1.083-2.473-1.25 0-1.213 1.435-1.213 2.473v4.755a.33.33 0 0 1-.338.326M86.445 39.786c2.608 0 4.021 2.226 4.021 5.058 0 2.735-1.561 4.905-4.02 4.905-2.56 0-3.958-2.226-3.958-5.002s1.413-4.961 3.957-4.961m.015 1.832c-1.295 0-1.377 1.755-1.377 2.85 0 1.093-.017 3.434 1.362 3.434s1.426-1.888 1.426-3.038a8.2 8.2 0 0 0-.256-2.379 1.1 1.1 0 0 0-.412-.647 1.1 1.1 0 0 0-.737-.22M93.848 49.564h-1.751a.336.336 0 0 1-.318-.326v-8.969a.33.33 0 0 1 .343-.292h1.63a.34.34 0 0 1 .316.254v1.371h.033c.491-1.226 1.182-1.811 2.396-1.811a2.32 2.32 0 0 1 2.047 1.056c.461.717.461 1.923.461 2.798v5.636a.336.336 0 0 1-.338.283h-1.763a.334.334 0 0 1-.313-.283V44.41c0-.98.113-2.417-1.1-2.417a1.15 1.15 0 0 0-1.024.717 3.95 3.95 0 0 0-.28 1.7v4.834a.335.335 0 0 1-.342.326M50.508 47.92c-.322-.443-.663-.802-.663-1.62v-2.723c0-1.153.082-2.211-.768-3.005-.675-.644-1.791-.87-2.649-.87-1.671 0-3.537.618-3.931 2.674a.31.31 0 0 0 .14.322.3.3 0 0 0 .115.044l1.708.18a.37.37 0 0 0 .31-.32c.145-.707.744-1.048 1.415-1.048a1.18 1.18 0 0 1 .985.455c.256.36.213.85.213 1.273v.226c-1.024.114-2.352.188-3.307.608a3 3 0 0 0-1.39 1.135 2.96 2.96 0 0 0-.484 1.723c0 1.816 1.152 2.722 2.631 2.722 1.252 0 1.933-.293 2.898-1.272a4.3 4.3 0 0 0 1.003 1.168.37.37 0 0 0 .415-.041c.35-.31.988-.863 1.346-1.16a.33.33 0 0 0 .084-.361.3.3 0 0 0-.07-.11m-3.46-.786a1.42 1.42 0 0 1-1.216.794c-.676 0-1.068-.51-1.068-1.273 0-1.488 1.344-1.76 2.614-1.76v.379c0 .687.015 1.264-.33 1.86M73.555 47.92c-.323-.443-.663-.802-.663-1.62v-2.723c0-1.153.082-2.211-.768-3.005-.676-.644-1.792-.87-2.65-.87-1.67 0-3.54.618-3.93 2.674a.306.306 0 0 0 .255.366l1.705.18a.37.37 0 0 0 .307-.32c.146-.707.742-1.048 1.413-1.048a1.18 1.18 0 0 1 .985.455c.256.36.215.85.215 1.273v.226c-1.023.114-2.352.188-3.307.608a3 3 0 0 0-1.386 1.13 2.96 2.96 0 0 0-.485 1.717c0 1.817 1.15 2.723 2.632 2.723 1.249 0 1.932-.293 2.897-1.272.26.45.601.85 1.006 1.178a.37.37 0 0 0 .415-.041c.35-.31.988-.863 1.346-1.16a.33.33 0 0 0 .013-.471m-3.458-.786a1.42 1.42 0 0 1-1.216.794c-.676 0-1.07-.51-1.07-1.273 0-1.488 1.344-1.76 2.616-1.76v.379c-.003.687.015 1.264-.333 1.86z"/><path fill="#000" d="M48.194 59.159a2.7 2.7 0 0 0-.824-.962 8 8 0 0 0-1.472-.764c-.55-.2-1.068-.479-1.536-.829a1.25 1.25 0 0 1-.399-.964 1.47 1.47 0 0 1 .35-.967 1.24 1.24 0 0 1 1.004-.428 1.47 1.47 0 0 1 1.098.415c.297.343.508.75.617 1.188l1.221-.468c-.422-1.61-1.39-2.425-2.872-2.425a2.67 2.67 0 0 0-2.047.83 3.14 3.14 0 0 0-.425 3.488c.195.38.482.705.834.95q.782.467 1.63.798c.735.31 1.186.596 1.375.873.184.265.282.579.282.9.01.41-.136.807-.41 1.113a1.54 1.54 0 0 1-1.195.452c-1.042 0-1.703-.643-1.963-1.913l-1.28.397c.417 1.87 1.482 2.82 3.171 2.82.988 0 1.769-.306 2.304-.907a3.17 3.17 0 0 0 .826-2.2 3 3 0 0 0-.289-1.398M53.784 58.103l-.16-.049.153-.071c.449-.186.829-.507 1.087-.917s.382-.89.354-1.373a2.76 2.76 0 0 0-.722-2.002 2.66 2.66 0 0 0-1.989-.736c-1.454 0-2.411.82-2.841 2.435l1.193.306c.256-1.018.768-1.542 1.535-1.542a1.22 1.22 0 0 1 1.024.47 2.3 2.3 0 0 1 .115 2.273c-.129.239-.338.426-.59.529a3 3 0 0 1-.956.12h-.532v1.144h.532c.748 0 1.28.17 1.554.51.293.366.444.824.425 1.292 0 .664-.159 1.155-.468 1.465a1.54 1.54 0 0 1-1.114.466c-.916 0-1.502-.596-1.748-1.781l-1.223.32c.153.937.512 1.624 1.046 2.036.58.44 1.295.669 2.025.649a3 3 0 0 0 2.168-.817c.558-.542.842-1.295.842-2.244-.015-1.326-.568-2.142-1.71-2.483"/></svg>