<svg xmlns="http://www.w3.org/2000/svg" width="100" height="100" fill="none"><path fill="#4683ED" d="M64.795 1h-28.59a5.11 5.11 0 0 0-4.41 2.548l-14.31 24.748a5.07 5.07 0 0 0 0 5.096L31.78 58.139a5.11 5.11 0 0 0 4.41 2.548h28.605a5.11 5.11 0 0 0 4.41-2.548L83.5 33.392a5.07 5.07 0 0 0 0-5.097L69.22 3.549A5.12 5.12 0 0 0 64.795 1"/><path fill="#417BDC" d="m61.975 23.559-2.91 5.606-4.56-4.557-4.005.9-3.12 1.334-3.285-3.283-6.735 2.353-.285 6.416 2.88 2.877-4.74 3.058 22.44 22.424h7.14a5.11 5.11 0 0 0 4.41-2.548l10.02-17.342z"/><path fill="#FEFFFD" d="M44.11 23.559h-6.3a2.595 2.595 0 0 0-2.595 2.593v3.672a2.595 2.595 0 0 0 2.595 2.593h3.33v2.788h-5.085l-.84 3.058h6.3a2.595 2.595 0 0 0 2.595-2.593v-3.597a2.595 2.595 0 0 0-2.595-2.593H38.32v-2.923h4.98zM55.24 35.296v-8.694a3.046 3.046 0 0 0-3.045-3.043H49.33a3.046 3.046 0 0 0-3.045 3.043v8.604a3.046 3.046 0 0 0 3.045 3.042h7.29v-2.953zm-2.955 0h-3.03v-8.784h3.03zM67.87 35.296h-5.895V23.558H59.05v14.704h2.925v-.045h5.895z"/><path fill="#7A7A7A" d="M30.19 71.735h4.08v5.56a12 12 0 0 1-1.92.465 14 14 0 0 1-1.995.135c-1.68 0-2.97-.495-3.885-1.484-.915-.99-1.365-2.398-1.365-4.197 0-1.784.51-3.178 1.545-4.182 1.02-1.004 2.445-1.514 4.23-1.514 1.155 0 2.25.225 3.285.66l-.63 1.514c-.9-.42-1.8-.615-2.7-.615-1.185 0-2.115.375-2.805 1.11-.69.749-1.035 1.753-1.035 3.042 0 1.35.315 2.383.93 3.088.615.704 1.515 1.05 2.67 1.05.585 0 1.215-.076 1.875-.226v-2.848h-2.295v-1.559zM44.17 73.548c0 1.364-.345 2.444-1.05 3.208s-1.68 1.154-2.94 1.154c-.78 0-1.47-.18-2.07-.525a3.43 3.43 0 0 1-1.38-1.528c-.33-.66-.48-1.424-.48-2.309 0-1.364.345-2.413 1.05-3.177.69-.765 1.68-1.14 2.955-1.14q1.822 0 2.88 1.17 1.035 1.146 1.035 3.147m-6.09 0c0 1.934.72 2.908 2.145 2.908 1.41 0 2.115-.96 2.115-2.908 0-1.918-.705-2.863-2.13-2.863-.75 0-1.29.255-1.62.75-.345.48-.51 1.184-.51 2.113M53.65 73.548c0 1.364-.345 2.444-1.05 3.208s-1.68 1.154-2.94 1.154c-.78 0-1.47-.18-2.07-.525a3.43 3.43 0 0 1-1.38-1.528c-.33-.66-.48-1.424-.48-2.309 0-1.364.345-2.413 1.05-3.177.69-.765 1.68-1.14 2.955-1.14q1.823 0 2.88 1.17 1.035 1.146 1.035 3.147m-6.09 0c0 1.934.72 2.908 2.145 2.908 1.41 0 2.115-.96 2.115-2.908 0-1.918-.705-2.863-2.13-2.863-.75 0-1.29.255-1.62.75-.345.48-.51 1.184-.51 2.113M62.785 69.366v.974l-1.425.27c.135.18.24.39.33.645s.135.524.135.824c0 .87-.3 1.544-.9 2.039-.6.494-1.41.75-2.46.75-.27 0-.51-.016-.735-.06-.39.24-.57.509-.57.839 0 .194.09.33.27.434.18.09.51.15.99.15h1.47c.93 0 1.62.195 2.1.585q.72.585.72 1.709 0 1.416-1.17 2.203c-.78.51-1.92.78-3.39.78-1.14 0-2.01-.195-2.61-.6s-.9-.974-.9-1.724q0-.764.495-1.304c.33-.345.78-.6 1.365-.734a1.34 1.34 0 0 1-.585-.495 1.26 1.26 0 0 1-.225-.705c0-.314.09-.584.27-.794s.435-.435.795-.645c-.435-.18-.78-.494-1.05-.914q-.405-.63-.405-1.484 0-1.371.855-2.113c.57-.495 1.395-.75 2.445-.75.24 0 .48.015.75.045.255.03.45.06.585.105h2.85zM56.2 79.05c0 .39.18.675.525.885s.84.314 1.455.314c.975 0 1.695-.135 2.175-.42.48-.284.705-.644.705-1.109 0-.36-.135-.63-.39-.779s-.75-.225-1.455-.225h-1.35q-.765 0-1.215.36c-.3.24-.45.57-.45.974m.765-6.97q0 .788.405 1.214c.27.285.66.42 1.17.42 1.035 0 1.545-.555 1.545-1.649 0-.54-.135-.96-.39-1.259q-.383-.45-1.17-.45c-.51 0-.9.15-1.17.435s-.39.735-.39 1.29M66.115 77.745H64.33V65.964h1.785zM72.325 77.895c-1.305 0-2.325-.375-3.06-1.14-.735-.763-1.11-1.798-1.11-3.132 0-1.364.345-2.443 1.02-3.223s1.62-1.169 2.805-1.169c1.11 0 1.98.33 2.625 1.005s.96 1.588.96 2.773v.959H70c.03.81.24 1.439.66 1.874.42.434 1.005.66 1.755.66.495 0 .96-.046 1.38-.136s.885-.255 1.38-.464v1.454c-.435.21-.87.36-1.32.434-.45.06-.96.105-1.53.105m-.33-7.33c-.57 0-1.02.18-1.365.54s-.54.884-.615 1.574h3.81q-.022-1.034-.495-1.574c-.315-.36-.765-.54-1.335-.54M18.265 86.679c-1.035 0-1.86.375-2.46 1.11q-.9 1.101-.9 3.057c0 1.364.285 2.383.855 3.088.57.69 1.41 1.049 2.49 1.049.465 0 .93-.045 1.365-.135s.9-.21 1.365-.36v1.56c-.87.329-1.86.494-2.955.494-1.62 0-2.865-.495-3.735-1.47-.855-1.018-1.29-2.427-1.29-4.256 0-1.154.21-2.159.63-3.028s1.035-1.529 1.83-1.978 1.74-.69 2.805-.69a7.1 7.1 0 0 1 3.135.704l-.645 1.514a9 9 0 0 0-1.185-.464 4.7 4.7 0 0 0-1.305-.195M24.97 96.362H23.2V84.58h1.785v11.782zM34.96 92.15c0 1.364-.345 2.443-1.05 3.208-.705.764-1.68 1.154-2.94 1.154-.78 0-1.47-.18-2.07-.525a3.43 3.43 0 0 1-1.38-1.529c-.33-.66-.48-1.424-.48-2.308 0-1.364.345-2.413 1.05-3.178.69-.764 1.68-1.139 2.955-1.139q1.822 0 2.88 1.17c.675.779 1.035 1.828 1.035 3.147m-6.105 0c0 1.933.72 2.908 2.145 2.908 1.41 0 2.115-.96 2.115-2.908 0-1.919-.705-2.863-2.13-2.863-.75 0-1.29.255-1.62.75-.345.48-.51 1.199-.51 2.113M42.91 96.362l-.255-1.094h-.09c-.255.39-.6.69-1.05.914s-.975.33-1.56.33c-1.02 0-1.77-.255-2.28-.765-.495-.51-.75-1.274-.75-2.293v-5.471h1.8v5.171c0 .645.135 1.124.39 1.44.27.314.675.479 1.23.479.75 0 1.29-.225 1.65-.675.345-.45.525-1.199.525-2.248v-4.167h1.785v8.379zM49.675 96.512c-1.05 0-1.86-.375-2.445-1.14s-.885-1.813-.885-3.192.3-2.443.885-3.208c.6-.764 1.41-1.154 2.46-1.154q1.642 0 2.52 1.214h.09c-.09-.6-.135-1.08-.135-1.424V84.55h1.785v11.782h-1.395l-.315-1.094h-.09c-.525.854-1.365 1.274-2.475 1.274m.48-1.44c.735 0 1.26-.21 1.605-.614.33-.404.51-1.079.51-2.008v-.255c0-1.05-.165-1.799-.51-2.249s-.885-.66-1.62-.66c-.63 0-1.11.256-1.455.765-.345.51-.51 1.23-.51 2.174 0 .93.165 1.634.495 2.128.345.48.825.72 1.485.72M67.135 93.349c0 .99-.36 1.754-1.065 2.323-.72.555-1.695.84-2.955.84s-2.28-.195-3.075-.585v-1.709c.51.24 1.035.42 1.605.555a7 7 0 0 0 1.59.21c.72 0 1.245-.135 1.59-.405s.51-.644.51-1.094c0-.42-.15-.764-.465-1.05-.315-.284-.96-.629-1.935-1.019-1.005-.404-1.725-.869-2.13-1.394-.42-.524-.615-1.154-.615-1.888 0-.93.33-1.65.99-2.189.66-.524 1.545-.794 2.64-.794 1.065 0 2.115.225 3.165.69l-.57 1.483c-.99-.42-1.86-.614-2.64-.614-.585 0-1.035.135-1.335.39-.3.254-.45.584-.45 1.004 0 .285.06.54.18.734.12.21.315.405.6.585s.78.42 1.5.72c.81.344 1.41.659 1.785.944.375.3.66.63.84.989.15.345.24.78.24 1.274M79.12 90.8c0 1.35-.255 2.474-.765 3.389a4.22 4.22 0 0 1-2.235 1.933l2.655 2.848H76.33l-2.085-2.488h-.3c-1.665 0-2.955-.495-3.855-1.484q-1.35-1.484-1.35-4.227c0-1.829.45-3.238 1.35-4.212s2.19-1.469 3.855-1.469c1.65 0 2.925.495 3.825 1.499s1.35 2.413 1.35 4.212m-8.46 0c0 1.365.27 2.4.825 3.104s1.365 1.049 2.445 1.049 1.89-.345 2.43-1.05c.555-.689.825-1.738.825-3.117 0-1.364-.27-2.383-.81-3.088-.54-.704-1.35-1.05-2.43-1.05s-1.905.346-2.46 1.05c-.555.72-.825 1.754-.825 3.103M81.49 96.362V85.285h1.815v9.518H88v1.559z"/></svg>