<?xml version="1.0" encoding="UTF-8" standalone="no"?>
<!-- Created with Inkscape (http://www.inkscape.org/) -->

<svg
   version="1.1"
   id="svg2"
   width="1706.6667"
   height="1066.6667"
   viewBox="0 0 1706.6667 1066.6667"
   sodipodi:docname="reshot-illustration-social-media-content-TVNWMBA6G3.eps"
   xmlns:inkscape="http://www.inkscape.org/namespaces/inkscape"
   xmlns:sodipodi="http://sodipodi.sourceforge.net/DTD/sodipodi-0.dtd"
   xmlns="http://www.w3.org/2000/svg"
   xmlns:svg="http://www.w3.org/2000/svg">
  <defs
     id="defs6" />
  <sodipodi:namedview
     id="namedview4"
     pagecolor="#ffffff"
     bordercolor="#000000"
     borderopacity="0.25"
     inkscape:showpageshadow="2"
     inkscape:pageopacity="0.0"
     inkscape:pagecheckerboard="0"
     inkscape:deskcolor="#d1d1d1" />
  <g
     id="g8"
     inkscape:groupmode="layer"
     inkscape:label="ink_ext_XXXXXX"
     transform="matrix(1.3333333,0,0,-1.3333333,0,1066.6667)">
    <g
       id="g10"
       transform="scale(0.1)">
      <path
         d="M 0,0 H 12800 V 8000 H 0 Z"
         style="fill:#ffffff;fill-opacity:1;fill-rule:nonzero;stroke:none"
         id="path12" />
      <path
         d="M 0,0 H 12800 V 8000 H 0 Z"
         style="fill:#ffffff;fill-opacity:1;fill-rule:nonzero;stroke:none"
         id="path14" />
      <path
         d="m 8075.1,5830 c 164.9,630 -69.11,1298.4 -599.3,1675.4 -42.2,30 -82.7,55.9 -120,78.3 -1477.5,876.9 -4399.1,-338.3 -4654.4,-2284.6 -120,-916.3 348.5,-2011.2 1161.4,-2507.8 492.18,-300.67 918.44,-264.71 1348.43,-228.75 438.94,36.71 881.76,73.43 1402.57,-247.95 923.9,-570 746.39,-1435.698 1781.2,-1862.1 144.6,-60 901.9,-371.5977 1486.1,6.699 371.4,240.5 633.2,734.501 605.7,1210.001 -70,1207.7 -1956.4,1409.4 -2410,2858.4 -142.5,453.4 -105.4,906 -1.7,1302.4"
         style="fill:#e8f0fa;fill-opacity:1;fill-rule:nonzero;stroke:none"
         id="path16" />
      <path
         d="m 9006.4,1958.7 c 0,0 -192.7,352.2 88,710 280.7,357.8 485.7,564.7 434.1,903.6 -51.61,338.9 -17.3,562.9 138,723 155.3,160.1 119,230 239,352.7 120,122.7 361.4,245.7 361.4,245.7 0,0 -310.01,-454.3 -229.3,-774.9 80.7,-320.6 55.1,-559.2 -83.4,-783.1 -138.5,-223.9 -78,-668.3 -443.2,-902.3 -365.2,-234.01 -504.6,-474.7 -504.6,-474.7"
         style="fill:#b1d0ef;fill-opacity:1;fill-rule:nonzero;stroke:none"
         id="path18" />
      <path
         d="m 9014.9,1901.5 c -7.07,70.82 -6.03,142.22 3.1,212.8 9.33,70.48 28.46,139.3 56.8,204.5 7.6,16 14.8,32.3 23.2,47.9 8.4,15.6 17.2,31 26.8,45.9 19.5,29.63 40.6,58.17 63.2,85.51 L 9322.3,2664 c 44.7,55.3 89.3,110.7 133.2,166.8 22,27.87 43.74,56.04 65.2,84.5 21.4,28.5 42.5,57.2 62.1,87.1 38.21,60.4 70.39,124.41 96.1,191.1 3.4,8.2 6.1,16.8 9.2,25.2 l 8.9,25.2 7.9,25.6 c 2.7,8.5 5.4,17 7.6,25.6 4.8,17.2 10,34.4 13.5,51.9 2,8.61 4.3,17.3 6.1,26 l 5.4,26.2 c 14.2,70 22.8,140.8 30,211.6 7.2,70.8 14.6,141.7 14.79,213.2 0,35.7 -1.49,71.4 -4.59,106.9 -3.1,35.5 -7.8,70.8 -10,106.2 -4.62,70.75 1.92,141.79 19.4,210.5 17.01,68.91 42.71,135.38 76.5,197.8 33.89,62.4 73.64,121.43 118.69,176.3 l 16.71,20.8 17.5,20 17.7,20 c 5.9,6.6 11.6,13.5 17.9,20 l 37.1,38.3 9.3,10 10,9.1 19.3,18.3 19.4,18.3 c 3.3,3.1 6.4,6.2 10,9.2 l 10,8.7 40,35 c 13.2,11.9 27.4,22.6 41.2,33.8 l 41.6,33.4 -42,-32.9 c -13.9,-11.1 -28.2,-21.7 -41.5,-33.5 l -40.7,-34.6 -10,-8.6 c -3.4,-3 -6.6,-6.1 -10,-9.1 l -20,-18.1 -20,-18.1 -10,-9.1 -9.4,-9.5 -37.6,-37.9 c -6.4,-6.3 -12.1,-13 -18.1,-20 l -17.9,-20 -17.8,-20 -16.9,-20.7 c -45.55,-54.83 -85.74,-113.9 -120,-176.4 -34.33,-62.7 -60.57,-129.5 -78.1,-198.8 -17.97,-69.38 -24.73,-141.18 -20,-212.7 2.4,-35.6 7.1,-70.9 10,-106.3 2.9,-35.4 4.8,-70.7 4.4,-106.2 0,-70.9 -8.1,-141.6 -15.2,-212.4 -7.1,-70.8 -16.3,-141.2 -30.5,-210.7 l -5.4,-26 c -1.8,-8.7 -4,-17.3 -6,-25.9 -3.8,-17.4 -8.6,-34.4 -13.2,-51.5 -2.2,-8.6 -5,-17.1 -7.6,-25.5 l -7.8,-25.4 -8.8,-25.1 c -3,-8.3 -5.7,-16.8 -9.1,-25 -25.3,-66.31 -57.09,-129.95 -94.9,-190 -19.4,-30 -40,-58.4 -61.6,-86.8 -21.59,-28.4 -43,-56.6 -65,-84.6 -43.8,-55.86 -87.96,-111.6 -132.5,-167.2 l -133.4,-166.6 c -22.6,-27.6 -43.63,-56.44 -63,-86.4 -10,-15 -18.5,-30 -26.8,-46.3 -8.3,-16.3 -15.49,-32.2 -22.9,-48.4 -27.85,-65.73 -46.36,-135.04 -55,-205.9 -8.4,-70.7 -8.67,-142.13 -0.8,-212.9"
         style="fill:#ffffff;fill-opacity:1;fill-rule:nonzero;stroke:none"
         id="path20" />
      <path
         d="m 9686.9,2420 c 19.4,158.5 133.1,348.1 384.3,441 251.2,92.9 323.5,313.1 338.8,485.7 15.3,172.6 145.1,427.1 145.1,427.1 l -6.9,-4.2 c -0.9,-0.66 -1.9,-1.27 -2.9,-1.8 -61.2,-35.56 -124.7,-67.1 -190,-94.4 -140,-60.6 -171.8,-248.1 -295.1,-306.9 C 9936.9,3307.7 9846.6,3230 9765.5,3117 9684.4,3004 9616.3,2938.8 9393.1,2865 9169.9,2791.2 9076,2326.6 9076,2326.6 c 5.1,-12.8 10.6,-24.8 16.3,-36.1 v -1 c 165.9,-323.8 575.3,-27.4 594.6,130.5"
         style="fill:#8284ca;fill-opacity:1;fill-rule:nonzero;stroke:none"
         id="path22" />
      <path
         d="m 9092.8,2289.5 c 57.13,35.47 112.5,73.57 166.1,114.3 73.93,56.41 143.65,118.14 208.6,184.7 32.5,33.2 63.5,67.9 93.7,103.1 30.2,35.2 60,70 92.7,103.5 32.7,33.5 66.1,64.9 101.5,94.9 35.16,30.21 71.88,58.54 110,84.9 19.2,13 38.7,25.2 58.7,36.8 20,11.6 40,23.3 60,36.7 19.2,13.41 37.4,28.1 54.6,44 8.7,7.8 17,16 25.4,24.1 l 24.3,25 c 31.9,34.06 60.6,70.86 86,110 25.4,39 47.8,80 71.5,120 46.9,79.54 99.1,155.87 156.1,228.5 45.9,58.73 94.6,115.14 146.3,169.2 l -3,-1.8 c -51.5,-52.4 -100.3,-107.3 -146.6,-164.7 -58.2,-72.48 -111.5,-148.82 -159.4,-228.5 l -35.7,-60 -17.9,-30 c -6.2,-10 -12.2,-20 -18.6,-29.3 -25.2,-38.7 -53.8,-75.11 -85.4,-108.8 l -24.2,-24.8 c -8.4,-8 -16.6,-16.1 -25.2,-23.7 -16.9,-15.63 -34.91,-30.1 -53.8,-43.3 -18.9,-13 -39,-24.4 -59.11,-36.1 -20.09,-11.7 -40,-23.9 -59.29,-37 -38.16,-26.64 -74.87,-55.28 -110,-85.8 -35.4,-30 -70,-61.9 -101.8,-95.5 -31.8,-33.6 -62.6,-68.9 -92.7,-104.1 -30.1,-35.19 -60.81,-70 -92.9,-103.4 -64.19,-66.88 -133.14,-129.05 -206.3,-186 -52.67,-41.54 -107.3,-80.4 -163.9,-116.6 l 0.3,-0.3"
         style="fill:#ffffff;fill-opacity:1;fill-rule:nonzero;stroke:none"
         id="path24" />
      <path
         d="m 4713.6,1785.6 c 0,0 -110.9,1159 -342.7,1461.4 -231.8,302.4 -554.3,-100.8 -211.6,-1007.9 0,0 -745.8,1985.5 -1138.9,1481.6 -393.1,-503.9 332.6,-1159 564.4,-1390.7 0,0 -1048.2,776 -1098.6,211.6 -50.4,-564.4 1159.1,-766 1159.1,-766 l 1068.3,10"
         style="fill:#aecfef;fill-opacity:1;fill-rule:nonzero;stroke:none"
         id="path26" />
      <path
         d="M 7102.2,829.301 V 1943.8 H 5987.8 V 829.301 L 5423,603.402 h 2244 l -564.8,225.899"
         style="fill:#3d4287;fill-opacity:1;fill-rule:nonzero;stroke:none"
         id="path28" />
      <path
         d="m 3832.4,6047.6 h 5568.3 c 73.84,0 133.7,-59.86 133.7,-133.7 V 1859.1 c 0,-73.8 -59.8,-133.64 -133.6,-133.7 H 3832.4 c -73.79,-0.06 -133.65,59.72 -133.7,133.5 v 0.2 4054.8 c -0.06,73.79 59.71,133.64 133.5,133.7 h 0.2"
         style="fill:#3d4287;fill-opacity:1;fill-rule:nonzero;stroke:none"
         id="path30" />
      <path
         d="M 9446.1,5740 V 2153.6 c 0.05,-103.34 -83.67,-187.14 -187,-187.2 H 9259 3974.1 c -103.39,0 -187.2,83.81 -187.2,187.2 V 5740 c 0,103.39 83.81,187.2 187.2,187.2 h 5284.8 c 103.39,0 187.2,-83.81 187.2,-187.2"
         style="fill:#ffffff;fill-opacity:1;fill-rule:nonzero;stroke:none"
         id="path32" />
      <path
         d="M 9090,5235.5 V 2058.4 c 0.1,-68.46 -20.58,-135.34 -59.3,-191.8 H 4198.1 c -38.8,56.43 -59.52,123.32 -59.4,191.8 V 5235.5 H 9090"
         style="fill:#cde8f6;fill-opacity:1;fill-rule:nonzero;stroke:none"
         id="path34" />
      <path
         d="M 8755.4,5608.8 H 4473.7 c -185,0 -335,-135.8 -335,-303.3 v -70 H 9090 v 70 c 0,167.6 -150,303.3 -334.6,303.3"
         style="fill:#aecfef;fill-opacity:1;fill-rule:nonzero;stroke:none"
         id="path36" />
      <path
         d="m 4465.9,5326.8 c -19.43,0.04 -37.98,8.07 -51.3,22.2 -28.38,30.06 -28.38,77.04 0,107.1 26.17,28.45 70.46,30.3 98.91,4.12 l 1.09,-1.02 3.1,-3.1 c 28.28,-30.1 28.28,-77 0,-107.1 -13.44,-14.26 -32.2,-22.3 -51.8,-22.2"
         style="fill:#ffffff;fill-opacity:1;fill-rule:nonzero;stroke:none"
         id="path38" />
      <path
         d="m 4666.9,5326.8 c -19.45,0.04 -38.04,8.06 -51.4,22.2 -28.28,30.1 -28.28,77 0,107.1 26.64,28.47 71.32,29.94 99.79,3.3 l 0.21,-0.2 c 1,-1 2.1,-2 3.1,-3.1 28.28,-30.1 28.28,-77 0,-107.1 -13.43,-14.22 -32.14,-22.26 -51.7,-22.2"
         style="fill:#ffffff;fill-opacity:1;fill-rule:nonzero;stroke:none"
         id="path40" />
      <path
         d="m 4867.8,5326.8 c -19.42,0.04 -37.98,8.07 -51.3,22.2 -28.28,30.1 -28.28,77 0,107.1 26.18,28.45 70.46,30.3 98.91,4.12 l 1.09,-1.02 3.1,-3.1 c 28.38,-30.06 28.38,-77.04 0,-107.1 -13.43,-14.28 -32.2,-22.33 -51.8,-22.2"
         style="fill:#ffffff;fill-opacity:1;fill-rule:nonzero;stroke:none"
         id="path42" />
      <path
         d="m 4409.5,4883.4 h 2067.4 v -1065 H 4409.5 v 1065"
         style="fill:#b1d0ef;fill-opacity:1;fill-rule:nonzero;stroke:none"
         id="path44" />
      <path
         d="M 6750.6,4883.4 H 8818 v -1065 H 6750.6 v 1065"
         style="fill:#b1d0ef;fill-opacity:1;fill-rule:nonzero;stroke:none"
         id="path46" />
      <path
         d="m 4409.5,3267.6 h 2067.4 v -1065 H 4409.5 v 1065"
         style="fill:#b1d0ef;fill-opacity:1;fill-rule:nonzero;stroke:none"
         id="path48" />
      <path
         d="M 6750.6,3267.6 H 8818 v -1065 H 6750.6 v 1065"
         style="fill:#b1d0ef;fill-opacity:1;fill-rule:nonzero;stroke:none"
         id="path50" />
      <path
         d="m 3134.4,913.602 -213.3,5.398 0.8,-143.301 c 1.8,-150 -69,-160 -83.7,-145.097 l -24.9,100.8 -43.3,220.899 c -7.94,41.66 19.28,81.879 60.9,89.999 l 6.6,1 321,33.9 -24.1,-163.598"
         style="fill:#31376e;fill-opacity:1;fill-rule:nonzero;stroke:none"
         id="path52" />
      <path
         d="m 4372.1,1620 c 0,0 171.9,-677.102 -170,-734.801 -341.9,-57.699 -870.9,30 -1132.4,4.903 l -12.3,204.998 c 0,0 296.9,23.3 456.3,56.5 159.4,33.2 405.7,86.1 556.3,72.4 0,0 -430.6,1211.61 184.2,893.3 L 4372.1,1620"
         style="fill:#f24eaf;fill-opacity:1;fill-rule:nonzero;stroke:none"
         id="path54" />
      <path
         d="m 4709.1,2260 c 0,0 122.7,145.9 124.1,230 l -137.7,31.3 c 0,0 -16.4,-172.7 13.6,-261.3"
         style="fill:#252c52;fill-opacity:1;fill-rule:nonzero;stroke:none"
         id="path56" />
      <path
         d="m 4619.1,2880 c 58.1,-27.3 186.6,-323 227.4,-420 2.68,-6.48 10.1,-9.57 16.59,-6.89 l 0.21,0.09 c 3.24,1.42 5.76,4.09 7,7.4 31.5,86.1 142.3,296.4 185.2,412.3 44.8,120.7 250,269.4 98.3,-88.6 -46.6,-110 -156.7,-560 -263.3,-563.3 -102.3,-2.8 -225,145.9 -365.5,370 -140.5,224.1 94.1,289 94.1,289"
         style="fill:#fbceba;fill-opacity:1;fill-rule:nonzero;stroke:none"
         id="path58" />
      <path
         d="m 4638.2,2943.3 c 0,0 45,18.4 85.9,-114.6 40.9,-133 114.6,-337.6 114.6,-337.6 0,0 -120.8,-90 -129.5,-236.6 0,0 -177.3,232.5 -214.2,328.7 -36.9,96.2 -55,388.7 143.2,360.1"
         style="fill:#3d4287;fill-opacity:1;fill-rule:nonzero;stroke:none"
         id="path60" />
      <path
         d="m 5063.7,2894.8 c 17.7,51.2 -6.2,111.6 25.9,151.4 28.7,35.5 36.1,22.6 71.6,10 35.5,-12.6 120,0.7 111.8,-17.1 -8.2,-17.8 -88.3,-242.7 -151,-211.4 -62.7,31.3 -58.3,67.1 -58.3,67.1"
         style="fill:#fbceba;fill-opacity:1;fill-rule:nonzero;stroke:none"
         id="path62" />
      <path
         d="m 5143,3306.1 h 874.2 V 2877.4 H 5143 v 428.7"
         style="fill:#ffffff;fill-opacity:1;fill-rule:nonzero;stroke:none"
         id="path64" />
      <path
         d="m 5153.9,2883.3 h 855 v 414.5 h -855 z m 871.6,-16.5 h -888.2 v 447.6 h 888.2 v -447.6"
         style="fill:#9471bf;fill-opacity:1;fill-rule:nonzero;stroke:none"
         id="path66" />
      <path
         d="m 5210.7,3203.1 h 717.7 v -35.5 h -717.7 v 35.5"
         style="fill:#9471bf;fill-opacity:1;fill-rule:nonzero;stroke:none"
         id="path68" />
      <path
         d="m 5211.9,3100.1 h 717.7 v -35.5 h -717.7 v 35.5"
         style="fill:#9471bf;fill-opacity:1;fill-rule:nonzero;stroke:none"
         id="path70" />
      <path
         d="m 5213.1,2997 h 717.7 v -35.5 h -717.7 v 35.5"
         style="fill:#9471bf;fill-opacity:1;fill-rule:nonzero;stroke:none"
         id="path72" />
      <path
         d="m 5082.8,3028.1 c 9.3,21.3 22.8,50 46,36.1 23.2,-13.9 58.1,-4.1 63.7,-8.9 5.6,-4.8 -2.8,-48 -58.2,-37.9 -29.2,5.3 -31.1,-40 -57.6,-42.1 -12,0 6.1,52.8 6.1,52.8"
         style="fill:#fbceba;fill-opacity:1;fill-rule:nonzero;stroke:none"
         id="path74" />
      <path
         d="M 4826.9,854.699 4793.6,681.801 4910,663 c 122.4,-18.801 120.6,-77.801 106.8,-87.801 l -85.4,-6.597 -185.7,-5.102 c -35.11,-0.891 -64.32,26.789 -65.3,61.898 -0.1,1.832 -0.1,3.672 0,5.504 l 15.8,265.989 130.7,-42.192"
         style="fill:#31376e;fill-opacity:1;fill-rule:nonzero;stroke:none"
         id="path76" />
      <path
         d="m 4019,3142.4 c -94.2,-4.1 -50,-188.9 -82.5,-463 -32.5,-274.1 -16.5,-648.6 -16.5,-648.6 0,0 495.1,12.3 576.9,10 0,0 65.8,586.3 185.6,867 2.86,6.47 1.11,14.05 -4.3,18.6 -25.2,21.3 -145.1,85.1 -268.2,153.6 -162.7,91 -296.9,66.5 -391,62.4"
         style="fill:#31376e;fill-opacity:1;fill-rule:nonzero;stroke:none"
         id="path78" />
      <path
         d="m 4040.8,2397.7 c 0,0 92.7,319.2 266,144.6 0,0 -135.1,-144.6 -266,-144.6"
         style="fill:#252c52;fill-opacity:1;fill-rule:nonzero;stroke:none"
         id="path80" />
      <path
         d="m 4292.4,2601.6 c 0,0 20.5,-130.9 67.5,-170 47,-39.1 423.5,-278.2 523.8,-321.2 100.3,-43 253.7,-26.6 245.5,-160 -8.2,-133.4 -229.2,14.4 -282.4,36.9 -53.2,22.5 -538,178 -652.6,296.6 -114.6,118.6 -180,304.9 -239.3,714 0,0.6 186.1,268.6 337.5,-396.3"
         style="fill:#fbceba;fill-opacity:1;fill-rule:nonzero;stroke:none"
         id="path82" />
      <path
         d="m 3975.2,3137.2 c 11.6,6.4 56.4,9.2 70,10.7 43.3,4.7 87.8,-43.7 113.2,-79.1 38.2,-53.2 75,-139.1 148.7,-526.5 0,0 -210,-70 -266,-144.5 0,0 -105,280.9 -109.1,491 -1.3,66.7 -8.8,135.2 10,200 3.09,12.9 9,24.95 17.3,35.3 4.46,5.29 9.86,9.73 15.9,13.1"
         style="fill:#3d4287;fill-opacity:1;fill-rule:nonzero;stroke:none"
         id="path84" />
      <path
         d="m 4559.1,3413 c 0,0 36.6,62 32.7,84.7 -3.9,22.7 -1.8,52.3 -43.7,72.3 -41.9,20 -95.8,13.3 -144.6,-10 -48.8,-23.3 -155,-16.6 -147.3,-142.3 7.7,-125.7 107.4,-135.7 98,-175.6 l 79.2,68.1 125.7,102.8"
         style="fill:#3b3063;fill-opacity:1;fill-rule:nonzero;stroke:none"
         id="path86" />
      <path
         d="m 4562.5,3435.7 c 0,0 78.1,-241 -67.6,-227.6 -51.25,3.14 -97.47,31.85 -123,76.4 0,0 -31.5,-10 -35.4,54.3 -2.3,38.2 45.4,58.7 47.6,-1.1 0,0 34.4,-10 41,40 6.6,50 33.2,48.8 62,40 28.8,-8.8 70.9,2.3 75.4,18"
         style="fill:#fbceba;fill-opacity:1;fill-rule:nonzero;stroke:none"
         id="path88" />
      <path
         d="m 4361.4,3292.3 c 0,0 -15.5,-104.7 -47.1,-151.8 0,0 -52.4,4.6 -83,5 -30.6,0.4 139.5,-342.3 196,-253.7 56.5,88.6 32.1,161.8 32.1,161.8 0,0 -25.4,32.1 -23.2,40.9 2.2,8.8 44.3,127.4 44.3,127.4 0,0 1.1,115.2 -119.1,70.4"
         style="fill:#fbceba;fill-opacity:1;fill-rule:nonzero;stroke:none"
         id="path90" />
      <path
         d="m 3929,2084 c 0,0 -73.7,-404 101,-422.8 174.7,-18.8 654.6,35.5 722.8,-32.7 68.2,-68.2 270,387.3 84.6,398.2 -185.4,10.9 -903,27.3 -908.4,57.3"
         style="fill:#f573c0;fill-opacity:1;fill-rule:nonzero;stroke:none"
         id="path92" />
      <path
         d="m 4747.1,2031 c 0,0 327.3,14.4 298.6,-186.6 C 5017,1643.4 4839,822.301 4839,822.301 l -203.9,-31.602 c 0,0 -14.3,898.701 100.5,910.001 114.8,11.3 11.5,330.3 11.5,330.3"
         style="fill:#f573c0;fill-opacity:1;fill-rule:nonzero;stroke:none"
         id="path94" />
      <path
         d="m 7959.7,4744.5 c 192.86,0 349.2,-156.34 349.2,-349.2 0,-192.86 -156.34,-349.2 -349.2,-349.2 -192.85,0 -349.2,156.34 -349.2,349.2 0,192.86 156.35,349.2 349.2,349.2"
         style="fill:#f573c0;fill-opacity:1;fill-rule:nonzero;stroke:none"
         id="path96" />
      <path
         d="m 7865.1,4521.8 v -246.9 l 228.7,110 z M 7832.5,4223 v 356.5 l 330,-198.1 -330,-158.4"
         style="fill:#f4f4f5;fill-opacity:1;fill-rule:nonzero;stroke:none"
         id="path98" />
      <path
         d="m 8766.6,4464.8 c 0,0 -114.9,3.8 -178,-185.7 -63.1,-189.5 166.5,-190 132,-298.6 -34.5,-108.6 -91.8,-379 252.7,-298.6 344.5,80.4 45.9,560.8 -206.7,782.9"
         style="fill:#f573c0;fill-opacity:1;fill-rule:nonzero;stroke:none"
         id="path100" />
      <path
         d="m 9303.9,3454.6 1.7,-0.8 -1.3,-0.8 -222,-466.9 77.7,-46.1 264.8,336.3 c 20.8,26.4 63,113.4 51.8,145.1 -10,29.5 -83.5,80.8 -142.7,127.3 -57.4,45.1 -30,-94.1 -30,-94.1"
         style="fill:#fbceba;fill-opacity:1;fill-rule:nonzero;stroke:none"
         id="path102" />
      <path
         d="m 9263,3387.3 c 0,0 144,-117 161.4,85 0,0 -243.4,240.7 -420.5,356.8 -90,59.1 -269.2,-42.4 -220.6,-82.3 302.5,-249.1 479.7,-359.5 479.7,-359.5"
         style="fill:#fbceba;fill-opacity:1;fill-rule:nonzero;stroke:none"
         id="path104" />
      <path
         d="m 9003,851 c 0,0 -275.6,-97.598 -287.1,-166.5 -11.51,-68.898 430.6,5.801 430.6,5.801 0,0 28.7,275.601 -143.5,160.699"
         style="fill:#444a9a;fill-opacity:1;fill-rule:nonzero;stroke:none"
         id="path106" />
      <path
         d="m 9991.1,1129.2 c 0,0 -153.3,-249.001 -118.9,-310.001 34.4,-61 331.5,274.901 331.5,274.901 0,0 -150.7,232.6 -212.6,35.1"
         style="fill:#444a9a;fill-opacity:1;fill-rule:nonzero;stroke:none"
         id="path108" />
      <path
         d="m 9008.7,3073.2 c 0,0 178,-981.9 327.3,-1200 149.3,-218.1 620,-810 620,-810 l 149.3,143.5 c 0,0 -356,689.1 -534,758 0,0 -109.1,230 -114.8,568.4 -5.7,338.4 -17.2,580 -270,597.2 -252.8,17.2 -177.8,-57.1 -177.8,-57.1"
         style="fill:#f254b2;fill-opacity:1;fill-rule:nonzero;stroke:none"
         id="path110" />
      <path
         d="m 8870.9,3033 c 0,0 -34.5,-895.7 -5.8,-1050.8 C 8893.8,1827.1 8980,840 8980,840 l 178,-5.801 c 0,0 63.2,884.301 0,1010.601 -63.2,126.3 17.2,545.5 74.6,677.6 57.4,132.1 132.1,522.5 5.8,568.5 -126.3,46 -367.5,-57.9 -367.5,-57.9"
         style="fill:#f573c0;fill-opacity:1;fill-rule:nonzero;stroke:none"
         id="path112" />
      <path
         d="m 8761.8,3908.7 c 70,50.5 315.8,37.3 379,-152.2 63.2,-189.5 -23,-350 40,-476.6 63,-126.6 178,-223.9 178,-223.9 0,0 -223.7,-126 -505.1,-86 0,0 -367.5,740.6 -91.9,938.7"
         style="fill:#31376e;fill-opacity:1;fill-rule:nonzero;stroke:none"
         id="path114" />
      <path
         d="m 8612.5,4342.2 c 0,0 -126.3,-304.3 -5.7,-298.5 120.6,5.8 149.3,-103.4 149.3,-149.3 0,0 166.5,51.6 230,-5.8 0,0 46,608.7 -356,482.4 l -17.6,-28.8"
         style="fill:#fbceba;fill-opacity:1;fill-rule:nonzero;stroke:none"
         id="path116" />
      <path
         d="m 8618.2,4353.7 c 0,0 137.8,-17.2 143.6,-155 0,0 57.4,74.6 74.6,11.5 17.2,-63.1 -45.9,-97.7 -45.9,-97.7 0,0 -46,-195.2 68.9,-246.9 114.9,-51.7 201,-97.6 241.2,-200.9 40.2,-103.3 212.4,-68.9 258.4,-132.1 46,-63.2 189.4,-149.3 350,-45.9 160.6,103.4 40,212.4 114.9,327.3 74.9,114.9 74.6,160.7 -57.5,235.4 -132.1,74.7 -109.1,201 -223.9,264.1 -114.8,63.1 -264.1,-120.6 -453.6,0 -189.5,120.6 -344.3,281.4 -470.7,40.2"
         style="fill:#f573c0;fill-opacity:1;fill-rule:nonzero;stroke:none"
         id="path118" />
      <path
         d="m 8282.3,3525.1 -1.4,-1.1 v 1.6 l -302.1,419.5 -77.9,-46 167,-394.1 c 13.1,-31 69,-110 102.2,-115.3 30.8,-5.1 111,34.1 180,63.6 67.4,28.7 -67.8,71.8 -67.8,71.8"
         style="fill:#fbceba;fill-opacity:1;fill-rule:nonzero;stroke:none"
         id="path120" />
      <path
         d="m 8238.6,3591.1 c 0,0 -161.6,-91.1 20,-181.3 0,0 313.1,138.3 486.1,260.6 88,62.3 59.1,266 4.2,235.4 -342.7,-190.2 -510.3,-314.7 -510.3,-314.7"
         style="fill:#fbceba;fill-opacity:1;fill-rule:nonzero;stroke:none"
         id="path122" />
      <path
         d="m 7981.6,3923.5 c 0,0 -7.8,78.2 5.2,120 6.76,19.26 11.52,39.17 14.2,59.4 0,0 -35.7,4.6 -50,-54.8 0,0 0,-1.5 -64.8,6.1 -12.83,-51.18 -8.44,-105.17 12.5,-153.6 0,0 76.7,-95.1 82.9,22.9"
         style="fill:#fbceba;fill-opacity:1;fill-rule:nonzero;stroke:none"
         id="path124" />
      <path
         d="m 8750,3905.8 c 0,0 80,46.3 68.9,-281.3 -5.7,-172.3 -126.3,-40 -126.3,68.9 0,108.9 57.4,212.4 57.4,212.4"
         style="fill:#fbceba;fill-opacity:1;fill-rule:nonzero;stroke:none"
         id="path126" />
      <path
         d="m 9919.3,5500 -96.8,62.2 134.8,20"
         style="fill:#9471bf;fill-opacity:1;fill-rule:nonzero;stroke:none"
         id="path128" />
      <path
         d="m 10220,5307.2 c -97.5,-57.6 -226,-20.5 -287,82.8 -61,103.3 -31.5,233.8 66,291.5 97.5,57.7 226.1,20 287.1,-82.8 61,-102.8 31.9,-233.9 -66.1,-291.5"
         style="fill:#9471bf;fill-opacity:1;fill-rule:nonzero;stroke:none"
         id="path130" />
      <path
         d="m 10195,5482.8 -126.2,-74.6 c -7.3,-4.28 -16.7,-1.87 -21.1,5.4 -1.3,2.35 -2.1,5 -2.1,7.7 l -1.5,146.6 c -0.1,8.48 6.7,15.43 15.2,15.6 2.7,-0.01 5.4,-0.7 7.8,-2 l 127.7,-72.1 c 7.4,-4.14 10,-13.47 5.8,-20.84 v -0.06 c -1.3,-2.38 -3.2,-4.36 -5.6,-5.7"
         style="fill:#ffffff;fill-opacity:1;fill-rule:nonzero;stroke:none"
         id="path132" />
      <path
         d="m 8861.2,6187 -117.2,-59 58.6,143.8"
         style="fill:#9471bf;fill-opacity:1;fill-rule:nonzero;stroke:none"
         id="path134" />
      <path
         d="m 9224.9,6370.8 c 0,-129.1 -110.9,-233.7 -247.7,-233.7 -136.8,0 -247.81,104.6 -247.81,233.7 0,129.1 110.91,233.8 247.71,233.8 136.8,0 247.8,-104.6 247.8,-233.8"
         style="fill:#9471bf;fill-opacity:1;fill-rule:nonzero;stroke:none"
         id="path136" />
      <path
         d="m 8932.9,6258.9 c 54,-0.9 108.6,-1.6 158.3,1.6 15.7,1 29.3,24.6 10,32 8.49,2.66 15.64,8.45 20,16.2 3.08,7.79 -0.55,16.61 -8.2,20 l -1.3,0.5 c 18.7,-4.4 26.1,23.7 11.4,32.8 7.98,5.79 13.6,14.28 15.8,23.9 1.87,9.82 -2.71,19.75 -11.4,24.7 -6.14,2.52 -12.78,3.58 -19.4,3.1 l -67.4,0.5 c 6.1,33.2 7.9,69.3 -10,98.4 -5.4,8.8 -20,19.3 -31.3,12.6 -11.3,-6.7 -7.8,-22.1 -7.2,-32 1.11,-43.07 -22.78,-82.9 -61.3,-102.2 0,0 2.5,-87.3 2,-132.1"
         style="fill:#ffffff;fill-opacity:1;fill-rule:nonzero;stroke:none"
         id="path138" />
      <path
         d="m 8831.7,6391.5 h 81.6 V 6259 h -81.6 v 132.5"
         style="fill:#ffffff;fill-opacity:1;fill-rule:nonzero;stroke:none"
         id="path140" />
      <path
         d="m 3099.2,4916 c 99.37,124.97 78.63,306.84 -46.34,406.22 -124.97,99.37 -306.84,78.62 -406.21,-46.35 -99.38,-124.97 -78.63,-306.84 46.34,-406.21 98.29,-78.17 235.82,-83.93 340.31,-14.26 l 112.2,-60 -46.3,120.6"
         style="fill:#f573c0;fill-opacity:1;fill-rule:nonzero;stroke:none"
         id="path142" />
      <path
         d="m 2750.5,5175.8 c 27.8,27.34 72.5,26.96 99.84,-0.84 l 0.16,-0.16 18,-18.4 18.5,18.2 c 27.81,27.61 72.74,27.46 100.35,-0.35 27.62,-27.81 27.46,-72.74 -0.35,-100.35 l -68.8,-67.8 v -0.5 c -27.94,-27.27 -72.67,-26.77 -100,1.1 l -67.7,69.1 c -27.57,27.63 -27.57,72.36 0,100"
         style="fill:#ffffff;fill-opacity:1;fill-rule:nonzero;stroke:none"
         id="path144" />
      <path
         d="m 2971.3,6200 h 1560 l -186.8,138.2 v 853 c 0,56.28 -45.62,101.9 -101.9,101.9 H 2971.3 c -56.27,0 -101.9,-45.62 -101.9,-101.9 v -890 c 0.38,-56.01 45.89,-101.2 101.9,-101.2"
         style="fill:#b1d0ef;fill-opacity:1;fill-rule:nonzero;stroke:none"
         id="path146" />
      <path
         d="m 3004.9,7066.7 h 712.902 v 68.2031 H 3004.9 Z"
         style="fill:#d5e8f8;fill-opacity:1;fill-rule:nonzero;stroke:none"
         id="path148" />
      <path
         d="m 3004.9,6964.8 h 712.902 v 68.1992 H 3004.9 Z"
         style="fill:#d5e8f8;fill-opacity:1;fill-rule:nonzero;stroke:none"
         id="path150" />
      <path
         d="m 3004.9,6862.9 h 712.902 v 68.2031 H 3004.9 Z"
         style="fill:#d5e8f8;fill-opacity:1;fill-rule:nonzero;stroke:none"
         id="path152" />
      <path
         d="m 3004.9,6763.6 h 712.902 v 68.1992 H 3004.9 Z"
         style="fill:#d5e8f8;fill-opacity:1;fill-rule:nonzero;stroke:none"
         id="path154" />
      <path
         d="m 3004.9,6664.3 h 712.902 v 68.1992 H 3004.9 Z"
         style="fill:#d5e8f8;fill-opacity:1;fill-rule:nonzero;stroke:none"
         id="path156" />
      <path
         d="m 3004.9,6483.9 h 712.902 v 68.2031 H 3004.9 Z"
         style="fill:#d5e8f8;fill-opacity:1;fill-rule:nonzero;stroke:none"
         id="path158" />
      <path
         d="m 3004.9,6376.4 h 1216.7 v 68.2031 H 3004.9 Z"
         style="fill:#d5e8f8;fill-opacity:1;fill-rule:nonzero;stroke:none"
         id="path160" />
      <path
         d="m 4074.3,6611.3 h -153.1 c -81.35,-0.05 -147.34,65.85 -147.4,147.2 v 0.1 228.9 c 0,81.41 65.99,147.4 147.4,147.4 h 153.1 c 81.37,-0.06 147.3,-66.03 147.3,-147.4 v -228.9 c 0,-81.35 -65.95,-147.3 -147.3,-147.3"
         style="fill:#8284ca;fill-opacity:1;fill-rule:nonzero;stroke:none"
         id="path162" />
      <path
         d="m 3773.8,6489.9 h 447.801 v 56.2031 H 3773.8 Z"
         style="fill:#d5e8f8;fill-opacity:1;fill-rule:nonzero;stroke:none"
         id="path164" />
      <path
         d="M 3953.5,6795.1 H 4116 c 9.33,-0.31 17.62,5.88 20,14.9 l 31.2,115.5 c 3.01,10.63 -3.17,21.68 -13.8,24.69 l -0.4,0.11 c -1.73,0.48 -3.51,0.72 -5.3,0.7 h -225 c -11.04,0 -20,-8.95 -20,-20 -0.02,-1.79 0.22,-3.57 0.7,-5.3 L 3934,6810 c 2.33,-8.84 10.36,-14.98 19.5,-14.9"
         style="fill:#ffffff;fill-opacity:1;fill-rule:nonzero;stroke:none"
         id="path166" />
      <path
         d="m 3924.9,6769.1 h 195.7 c 2.24,-0.35 4.34,1.17 4.69,3.41 0.35,2.24 -1.18,4.34 -3.41,4.69 h -1.28 -192.7 l -67.9,237.5 c -0.53,1.72 -2.1,2.89 -3.9,2.9 h -42.6 c -2.21,0 -4,-1.79 -4,-4 0,-2.23 1.77,-4.05 4,-4.1 h 40 l 68.1,-237.5 c 0.45,-1.53 1.73,-2.65 3.3,-2.9"
         style="fill:#ffffff;fill-opacity:1;fill-rule:nonzero;stroke:none"
         id="path168" />
      <path
         d="m 4090.6,6737.3 c -0.05,-13.09 10.51,-23.75 23.6,-23.8 13.09,-0.05 23.74,10.51 23.8,23.6 0.06,13.09 -10.51,23.74 -23.6,23.8 h -0.1 c -13.04,0.06 -23.65,-10.47 -23.7,-23.5 v -0.1"
         style="fill:#ffffff;fill-opacity:1;fill-rule:nonzero;stroke:none"
         id="path170" />
      <path
         d="m 3918.6,6737.3 c -0.06,-13.09 10.51,-23.75 23.6,-23.8 13.09,-0.05 23.74,10.51 23.8,23.6 0.05,13.09 -10.51,23.74 -23.6,23.8 h -0.2 c -13.03,0 -23.6,-10.57 -23.6,-23.6"
         style="fill:#ffffff;fill-opacity:1;fill-rule:nonzero;stroke:none"
         id="path172" />
      <path
         d="m 8382.6,7498.5 h 591.6 V 7081 h -591.6 v 417.5"
         style="fill:#e8f0fa;fill-opacity:1;fill-rule:nonzero;stroke:none"
         id="path174" />
      <path
         d="M 8974.2,7498.5 8680,7205.7 8382.6,7498.5"
         style="fill:#b1d0ef;fill-opacity:1;fill-rule:nonzero;stroke:none"
         id="path176" />
      <path
         d="m 8679.4,7264.7 -296.8,233.8 h 591.6 z"
         style="fill:#e8f0fa;fill-opacity:1;fill-rule:nonzero;stroke:none"
         id="path178" />
      <path
         d="m 5715.5,6949 c -110.84,-0.05 -200.74,89.75 -200.8,200.6 -0.06,110.85 89.76,200.75 200.6,200.8 110.76,0.05 200.63,-89.63 200.8,-200.4 0.22,-110.79 -89.41,-200.78 -200.2,-201 z m 352.2,144.4 v 112.5 H 6000 c -7.41,37.65 -22.23,73.44 -43.6,105.3 l 47.7,47.7 -79.5,80 -47.8,-47.8 c -31.81,21.42 -67.58,36.28 -105.2,43.7 v 67 h -112.4 v -67.4 c -37.62,-7.42 -73.39,-22.28 -105.2,-43.7 l -47.8,47.8 -80,-80 47.7,-47.7 c -21.37,-31.86 -36.19,-67.66 -43.6,-105.3 h -67.5 v -112.1 h 67.5 c 7.37,-37.66 22.19,-73.46 43.6,-105.3 l -47.2,-48.1 80,-80 47.8,47.7 c 31.84,-21.34 67.59,-36.16 105.2,-43.6 v -67.5 h 112.5 v 67.5 c 37.64,7.42 73.43,22.24 105.3,43.6 l 47.7,-47.7 80,80 -47.7,47.7 c 21.07,32.05 35.52,67.99 42.5,105.7 h 67.7"
         style="fill:#b1d0ef;fill-opacity:1;fill-rule:nonzero;stroke:none"
         id="path180" />
      <path
         d="m 5715.5,7304.8 c 85.72,0 155.2,-69.49 155.2,-155.2 0,-85.71 -69.48,-155.2 -155.2,-155.2 -85.71,0 -155.2,69.49 -155.2,155.2 0,85.71 69.49,155.2 155.2,155.2"
         style="fill:#b1d0ef;fill-opacity:1;fill-rule:nonzero;stroke:none"
         id="path182" />
      <path
         d="m 6546.2,6820 v 82 h -49.3 c -5.38,27.46 -16.19,53.58 -31.8,76.8 l 34.9,35.3 -58,58 -34.8,-34.8 c -23.34,15.66 -49.6,26.47 -77.2,31.8 v 49.2 h -82 v -49.2 c -27.46,-5.38 -53.58,-16.19 -76.8,-31.8 l -34.8,34.8 -58,-58 34.8,-34.8 c -15.65,-23.21 -26.47,-49.32 -31.8,-76.8 h -49.3 V 6820 h 49.3 c 5.33,-27.48 16.15,-53.59 31.8,-76.8 l -34.8,-34.8 58,-58.1 34.8,34.8 c 23.22,-15.61 49.34,-26.42 76.8,-31.8 v -49.2 h 82 v 49.2 c 27.46,5.38 53.57,16.19 76.8,31.8 l 34.8,-34.8 58,58.1 -34.8,34.8 c 15.61,23.23 26.42,49.34 31.8,76.8 h 49.6"
         style="fill:#b1d0ef;fill-opacity:1;fill-rule:nonzero;stroke:none"
         id="path184" />
    </g>
  </g>
</svg>
