<?xml version="1.0" encoding="UTF-8"?>
<svg version="1.1" xmlns="http://www.w3.org/2000/svg" width="190" height="190">
<path d="M0 0 C0.75216293 -0.0066568 1.50432587 -0.0133136 2.27928162 -0.02017212 C3.86332788 -0.03023216 5.44741596 -0.03499122 7.03149414 -0.03466797 C9.40390665 -0.03900819 11.77440383 -0.07530429 14.14648438 -0.11328125 C27.49146517 -0.21346239 39.4638869 2.08603596 51.55859375 8.0234375 C52.265 8.36375 52.97140625 8.7040625 53.69921875 9.0546875 C60.39296196 12.39548493 66.12854963 16.53060384 71.87109375 21.3359375 C72.65742188 21.95984375 73.44375 22.58375 74.25390625 23.2265625 C89.51791594 35.88452176 103.05520425 58.43034877 105.08111572 78.40686035 C105.18138107 80.56215262 105.22654594 82.70962115 105.2421875 84.8671875 C105.25121597 85.66137085 105.26024445 86.4555542 105.26954651 87.27380371 C105.28396936 88.9477975 105.29291577 90.62184664 105.29663086 92.29589844 C105.30843605 94.80245432 105.3576186 97.30646855 105.40820312 99.8125 C105.55151082 113.95647146 102.6291982 126.21683714 95.93359375 138.7734375 C95.41502808 139.77068848 95.41502808 139.77068848 94.88598633 140.78808594 C82.46266379 164.32822454 62.08489151 180.06777655 36.87109375 188.3359375 C31.23750705 189.93407228 26.18258626 190.66467351 20.33984375 190.70703125 C19.5456604 190.71605972 18.75147705 190.7250882 17.93322754 190.73439026 C16.25923375 190.74881311 14.58518461 190.75775952 12.91113281 190.76147461 C10.40457693 190.7732798 7.9005627 190.82246235 5.39453125 190.87304688 C-8.66796604 191.01535366 -20.92517415 188.1179929 -33.44140625 181.5234375 C-34.09890869 181.18505859 -34.75641113 180.84667969 -35.43383789 180.49804688 C-41.4265263 177.33160133 -46.86091684 173.602504 -52.12890625 169.3359375 C-53.27746094 168.43294922 -53.27746094 168.43294922 -54.44921875 167.51171875 C-70.48306364 154.18742605 -81.06072817 133.61471399 -85.12890625 113.3359375 C-85.3295377 110.59099584 -85.4561145 107.94902356 -85.46484375 105.20703125 C-85.47150055 104.45486832 -85.47815735 103.70270538 -85.48501587 102.92774963 C-85.49507591 101.34370337 -85.49983497 99.75961529 -85.49951172 98.17553711 C-85.50385194 95.8031246 -85.54014804 93.43262742 -85.578125 91.06054688 C-85.67791278 77.75631986 -83.39124484 65.78320292 -77.50390625 53.7109375 C-77.16762207 53.00855957 -76.83133789 52.30618164 -76.48486328 51.58251953 C-72.91706373 44.4355735 -68.25245622 38.421246 -63.12890625 32.3359375 C-62.39800781 31.36140625 -62.39800781 31.36140625 -61.65234375 30.3671875 C-48.36512993 13.08565787 -21.5891953 0.06873014 0 0 Z " fill="#25211E" transform="translate(85.12890625,-0.3359375)"/>
<path d="M0 0 C0.89203125 0.01804687 1.7840625 0.03609375 2.703125 0.0546875 C3.71632812 0.08949219 3.71632812 0.08949219 4.75 0.125 C1.14190497 4.88112527 -3.72436423 5.73304595 -9.25 7.125 C-6.775 7.62 -6.775 7.62 -4.25 8.125 C-6.14781825 10.62356648 -7.22697619 11.11983849 -10.3515625 11.8203125 C-11.51429687 11.96210938 -12.67703125 12.10390625 -13.875 12.25 C-17.88456136 12.42287657 -17.88456136 12.42287657 -21.25 14.125 C-19.93 14.455 -18.61 14.785 -17.25 15.125 C-17.25 15.785 -17.25 16.445 -17.25 17.125 C-21.04972957 18.90854653 -23.86756777 20.07484495 -28.0625 20.625 C-29.114375 20.79 -30.16625 20.955 -31.25 21.125 C-31.91 22.115 -32.57 23.105 -33.25 24.125 C-31.27 24.125 -29.29 24.125 -27.25 24.125 C-33.775 31.0125 -33.775 31.0125 -39 31.25 C-39.7425 31.20875 -40.485 31.1675 -41.25 31.125 C-42.24 33.6 -42.24 33.6 -43.25 36.125 C-42.46625 35.63 -41.6825 35.135 -40.875 34.625 C-38.25 33.125 -38.25 33.125 -36.25 33.125 C-39.01207858 39.33967681 -43.11244697 42.96278354 -48.640625 46.6953125 C-49.17171875 47.16710938 -49.7028125 47.63890625 -50.25 48.125 C-50.25 49.115 -50.25 50.105 -50.25 51.125 C-49.79625 50.63 -49.3425 50.135 -48.875 49.625 C-47.25 48.125 -47.25 48.125 -45.25 48.125 C-45.82860373 52.06938397 -47.0267682 54.8104951 -49.125 58.1875 C-49.63804688 59.02410156 -50.15109375 59.86070313 -50.6796875 60.72265625 C-52.25 63.125 -52.25 63.125 -53.93359375 65.26171875 C-55.62589983 67.65705999 -55.48894763 69.25762849 -55.25 72.125 C-54.8375 71.196875 -54.425 70.26875 -54 69.3125 C-52.31558214 66.24445319 -51.16545917 64.93459535 -48.25 63.125 C-48.83532066 69.91471966 -50.42765919 74.39148878 -54.25 80.125 C-54.41713569 82.75031524 -54.41713569 82.75031524 -54.25 85.125 C-53.26 83.475 -52.27 81.825 -51.25 80.125 C-49.25 82.125 -49.25 82.125 -49.01953125 84.875 C-49.04080078 86.48375 -49.04080078 86.48375 -49.0625 88.125 C-49.06894531 89.1975 -49.07539062 90.27 -49.08203125 91.375 C-49.25 94.125 -49.25 94.125 -50.25 96.125 C-50.289992 98.12460012 -50.29346799 100.12547242 -50.25 102.125 C-49.92 100.475 -49.59 98.825 -49.25 97.125 C-48.59 97.125 -47.93 97.125 -47.25 97.125 C-42.61635819 103.61209853 -42.07264048 110.32073968 -41.25 118.125 C-40.92 116.475 -40.59 114.825 -40.25 113.125 C-35.28293316 117.38248586 -33.0246725 122.27802577 -30.25 128.125 C-28.40229514 131.82513998 -28.40229514 131.82513998 -25.25 134.125 C-25.765625 133.196875 -26.28125 132.26875 -26.8125 131.3125 C-28.25 128.125 -28.25 128.125 -27.25 125.125 C-21.63137434 129.83809958 -16.92446955 134.09483684 -13.34375 140.52734375 C-11.75569248 142.84704205 -9.93159502 143.512064 -7.25 144.125 C-9.56 141.485 -11.87 138.845 -14.25 136.125 C-13.92 135.465 -13.59 134.805 -13.25 134.125 C-6.01124161 137.46294465 -1.14838544 140.60474021 3.21484375 147.3671875 C3.72144531 147.94726562 4.22804688 148.52734375 4.75 149.125 C6.07 149.125 7.39 149.125 8.75 149.125 C6.44 146.485 4.13 143.845 1.75 141.125 C2.08 140.465 2.41 139.805 2.75 139.125 C8.58327725 141.95585514 13.52644001 144.55386917 17.8125 149.5 C20.01388033 151.87839854 21.13941818 152.98787388 24.32421875 153.703125 C28.65711111 153.77902968 32.01041001 153.42871367 35.75 151.125 C36.97652238 149.64026238 38.20153073 148.15404404 39.40234375 146.6484375 C43.0390251 142.53740641 47.57747738 140.60286361 52.75 139.125 C51.3562718 143.55958973 49.14417765 145.99878374 45.75 149.125 C48.53260303 148.7665424 49.5664825 148.33156194 51.4609375 146.19921875 C52.01007813 145.41160156 52.55921875 144.62398437 53.125 143.8125 C56.71099645 138.99285947 59.6507144 135.93350929 65.625 134.375 C66.32625 134.2925 67.0275 134.21 67.75 134.125 C66.27670958 139.13418744 63.47484762 141.64307722 59.75 145.125 C66.86031488 142.50541031 69.19163434 139.30103729 72.94140625 132.83203125 C75.54327141 128.93766288 78.80041392 126.55630364 82.75 124.125 C82.16196203 127.14919525 81.52321882 130.14258453 80.75 133.125 C83.60256554 128.5371943 85.86658514 123.75566325 88.15234375 118.8671875 C89.75584738 116.11496367 91.07954214 114.79764099 93.75 113.125 C93.75 115.435 93.75 117.745 93.75 120.125 C96.00314384 116.74528424 95.96531537 115.45899485 96.0625 111.5 C96.45251452 105.33477044 98.29323987 101.17620668 101.75 96.125 C102.08 96.125 102.41 96.125 102.75 96.125 C103.08 98.105 103.41 100.085 103.75 102.125 C103.60691406 100.24554688 103.60691406 100.24554688 103.4609375 98.328125 C103.34836921 96.6771234 103.23642253 95.02607933 103.125 93.375 C103.02832031 92.1375 103.02832031 92.1375 102.9296875 90.875 C102.878125 90.07578125 102.8265625 89.2765625 102.7734375 88.453125 C102.72106934 87.7199707 102.66870117 86.98681641 102.61474609 86.23144531 C102.77232915 83.77724559 103.52735161 82.23646787 104.75 80.125 C105.41 82.105 106.07 84.085 106.75 86.125 C107.41 86.125 108.07 86.125 108.75 86.125 C108.48088588 81.72946936 108.02245133 79.1550616 105.25 75.6875 C102.27508078 71.91526814 101.99962433 68.8678623 101.75 64.125 C106.625 67.875 106.625 67.875 107.75 70.125 C106.99553132 65.26962897 103.99078276 61.27561621 101.45703125 57.16992188 C100.48055711 55.53021529 99.60762045 53.82988316 98.75 52.125 C99.08 51.135 99.41 50.145 99.75 49.125 C101.07 50.115 102.39 51.105 103.75 52.125 C103.3903222 49.33902108 102.93956152 48.29687424 100.82421875 46.37890625 C100.03660156 45.82074219 99.24898437 45.26257812 98.4375 44.6875 C94.9831593 42.12424719 92.14114174 39.76369394 89.75 36.125 C89.75 35.465 89.75 34.805 89.75 34.125 C92.7219385 35.24951727 95.08440687 36.34793791 97.75 38.125 C96.85356857 35.61917159 96.85356857 35.61917159 94.75 33.125 C92.52732533 32.22136926 90.28866277 31.60063403 87.98046875 30.94921875 C84.63640087 29.71349489 83.01412817 27.82734653 80.75 25.125 C83.06 25.125 85.37 25.125 87.75 25.125 C85.32788531 22.19463829 83.52894642 21.68488907 79.8125 21.1875 C75.61963215 20.47134593 73.36201875 19.68684375 70.75 16.125 C72.4 15.795 74.05 15.465 75.75 15.125 C74.0632325 13.4382325 71.80975646 13.87969221 69.5 13.75 C65.23743365 13.39524805 62.05198238 13.08539799 58.75 10.125 C58.75 9.135 58.75 8.145 58.75 7.125 C56.97969379 5.69157393 56.97969379 5.69157393 54.75 4.5 C53.40452253 3.72915353 52.06758498 2.94260854 50.75 2.125 C50.75 1.795 50.75 1.465 50.75 1.125 C55.62665542 0.92993378 59.16360334 1.56145568 63.75 3.125 C64.74 2.795 65.73 2.465 66.75 2.125 C72.0122268 4.6607832 76.16974036 7.81270074 78.75 13.125 C79.74 13.62 79.74 13.62 80.75 14.125 C80.42 12.805 80.09 11.485 79.75 10.125 C85.78025142 12.67626022 89.50130901 16.02023946 92.125 21.9375 C92.68262713 23.32703426 93.22998406 24.72095695 93.75 26.125 C94.41 24.805 95.07 23.485 95.75 22.125 C100.77193351 27.0363878 102.83404986 31.16062051 103.75 38.125 C104.74 38.125 105.73 38.125 106.75 38.125 C109.78910346 44.071072 110.40226572 49.49406706 110.75 56.125 C111.74 55.135 111.74 55.135 112.75 54.125 C115.35038441 59.00072077 114.91345673 63.76725149 114.75 69.125 C114.75 70.115 114.75 71.105 114.75 72.125 C115.41 71.795 116.07 71.465 116.75 71.125 C117.43894389 84.02356069 117.43894389 84.02356069 114.875 87.8125 C113.52903748 89.27722392 112.15659718 90.71840282 110.75 92.125 C110.75 93.115 110.75 94.105 110.75 95.125 C111.678125 93.8875 111.678125 93.8875 112.625 92.625 C113.32625 91.8 114.0275 90.975 114.75 90.125 C115.41 90.125 116.07 90.125 116.75 90.125 C116.4270722 94.62515521 115.80431651 98.00209413 112.6484375 101.36328125 C111.04581932 102.71405943 109.41223425 104.02918282 107.74609375 105.30078125 C105.59550117 107.2661956 105.10753593 108.28353022 104.75 111.125 C106.73 109.64 106.73 109.64 108.75 108.125 C109.41 108.455 110.07 108.785 110.75 109.125 C107.31416274 115.87819738 103.63023628 118.91309946 97.078125 122.6796875 C94.63762209 123.91306725 94.63762209 123.91306725 93.75 126.125 C94.69875 125.63 95.6475 125.135 96.625 124.625 C99.75 123.125 99.75 123.125 101.75 123.125 C100.22931063 127.2308613 97.43000076 129.89605645 93.75 132.125 C91.16160146 133.05396512 88.59110274 133.79000038 85.921875 134.44921875 C83.56794331 134.99699291 83.56794331 134.99699291 81.75 137.125 C85.05 136.795 88.35 136.465 91.75 136.125 C91.75 136.785 91.75 137.445 91.75 138.125 C85.53295694 142.68416491 80.87682566 143.33950571 73.3671875 143.84375 C70.82586139 143.83996985 70.82586139 143.83996985 69.75 145.125 C73.05 145.455 76.35 145.785 79.75 146.125 C79.75 146.785 79.75 147.445 79.75 148.125 C72.29467453 152.24843927 65.43228922 153.34849869 57.046875 151.54296875 C54.73136415 150.88426804 54.73136415 150.88426804 52.75 152.125 C55.72 152.785 58.69 153.445 61.75 154.125 C61.75 154.785 61.75 155.445 61.75 156.125 C53.15157727 158.93674699 45.81079035 160.61477245 36.75 160.125 C43.68 162.105 50.61 164.085 57.75 166.125 C57.75 166.785 57.75 167.445 57.75 168.125 C49.15537145 168.78612527 41.65378152 166.0072136 33.9375 162.375 C29.659176 160.69722588 26.1854089 160.1732871 21.80078125 161.88671875 C20.33617862 162.57164382 18.87547307 163.26494064 17.41796875 163.96484375 C10.75758832 166.86108531 2.96694614 170.22768168 -4.25 168.125 C-4.58 167.135 -4.91 166.145 -5.25 165.125 C-4.15300781 164.93164062 -3.05601563 164.73828125 -1.92578125 164.5390625 C-0.47130418 164.27631825 0.98312017 164.01328199 2.4375 163.75 C3.15873047 163.62367188 3.87996094 163.49734375 4.62304688 163.3671875 C8.549252 162.65007241 12.08928805 161.785678 15.75 160.125 C14.85539062 160.17140625 13.96078125 160.2178125 13.0390625 160.265625 C4.99304099 160.50580475 -1.066047 159.83284671 -8.25 156.125 C-5.82869669 153.70369669 -4.44888623 153.59659496 -1.125 153 C-0.21492188 152.83242187 0.69515625 152.66484375 1.6328125 152.4921875 C2.33148438 152.37101563 3.03015625 152.24984375 3.75 152.125 C-1.82606673 151.16360918 -4.8733352 151.1802489 -10.25 153.125 C-16.83865185 153.9951993 -20.8625965 151.54557365 -26.25 148.125 C-26.25 147.795 -26.25 147.465 -26.25 147.125 C-21.96 146.795 -17.67 146.465 -13.25 146.125 C-16.11352308 144.69323846 -18.74627496 144.93119594 -21.9375 144.8125 C-27.90672392 144.4267963 -31.52204083 143.77842299 -36.25 140.125 C-36.91 139.135 -37.57 138.145 -38.25 137.125 C-34.29 137.455 -30.33 137.785 -26.25 138.125 C-29.42929925 136.00546717 -31.88814667 135.34126593 -35.5625 134.375 C-41.42566756 132.63437213 -44.55319907 130.98365265 -48.25 126.125 C-48.25 125.465 -48.25 124.805 -48.25 124.125 C-45.61 124.785 -42.97 125.445 -40.25 126.125 C-42.47301167 123.66204422 -44.58353711 122.36266878 -47.5625 120.9375 C-52.44545696 118.32049039 -55.53760223 114.94349485 -58.25 110.125 C-58.25 109.465 -58.25 108.805 -58.25 108.125 C-54.79074837 109.3741742 -52.10306797 110.80027795 -49.25 113.125 C-51.40984056 109.41007424 -53.21744838 106.95412332 -56.8125 104.5625 C-59.95319546 102.44404374 -61.72240814 100.68938102 -63.25 97.125 C-63.9375 93.3125 -63.9375 93.3125 -64.25 90.125 C-61.94 92.105 -59.63 94.085 -57.25 96.125 C-58.15897479 92.48910082 -58.44066204 91.56443925 -60.75 89 C-64.37618744 84.82988444 -64.36603843 82.96092008 -64.3125 77.5 C-64.30347656 76.31148438 -64.29445313 75.12296875 -64.28515625 73.8984375 C-64.27355469 72.98320313 -64.26195313 72.06796875 -64.25 71.125 C-62.54159719 72.75912443 -61.31546953 73.99406094 -60.25 76.125 C-60.70316633 73.48152976 -61.21354451 71.20648874 -62.3125 68.75 C-64.28272808 63.23336139 -63.33173643 58.4594496 -61.25 53.125 C-60.59 53.125 -59.93 53.125 -59.25 53.125 C-58.92 54.775 -58.59 56.425 -58.25 58.125 C-57.59 58.125 -56.93 58.125 -56.25 58.125 C-56.415 57.50625 -56.58 56.8875 -56.75 56.25 C-58.01753293 48.32791919 -57.90128986 42.81122917 -53.25 36.125 C-52.59 36.125 -51.93 36.125 -51.25 36.125 C-50.92 37.445 -50.59 38.765 -50.25 40.125 C-50.24742188 39.33996094 -50.24484375 38.55492187 -50.2421875 37.74609375 C-49.99675694 31.07856351 -49.39014261 27.04533629 -44.625 22.234375 C-43.25 21.125 -43.25 21.125 -42.25 21.125 C-42.25 23.435 -42.25 25.745 -42.25 28.125 C-39.58767674 24.97861797 -38.47219455 22.03602256 -37.25 18.125 C-35.69021024 13.83557815 -32.85590925 11.77423945 -29.25 9.125 C-28.26 9.125 -27.27 9.125 -26.25 9.125 C-26.91 10.775 -27.57 12.425 -28.25 14.125 C-27.528125 13.403125 -26.80625 12.68125 -26.0625 11.9375 C-24.6703125 10.5453125 -24.6703125 10.5453125 -23.25 9.125 C-22.425 8.25875 -21.6 7.3925 -20.75 6.5 C-18.34349804 4.21382314 -16.24734208 2.54479362 -13.25 1.125 C-12.26 1.455 -11.27 1.785 -10.25 2.125 C-9.06164669 2.20775999 -9.06164669 2.20775999 -7.515625 1.1328125 C-4.83054091 -0.06158697 -2.92368993 -0.07693921 0 0 Z " fill="#D2BE84" transform="translate(69.25,12.875)"/>
<path d="M0 0 C4.87665542 -0.19506622 8.41360334 0.43645568 13 2 C13.99 1.67 14.98 1.34 16 1 C21.2622268 3.5357832 25.41974036 6.68770074 28 12 C28.66 12.33 29.32 12.66 30 13 C29.67 11.68 29.34 10.36 29 9 C35.03025142 11.55126022 38.75130901 14.89523946 41.375 20.8125 C41.93262713 22.20203426 42.47998406 23.59595695 43 25 C43.66 23.68 44.32 22.36 45 21 C50.02193351 25.9113878 52.08404986 30.03562051 53 37 C53.99 37 54.98 37 56 37 C59.03910346 42.946072 59.65226572 48.36906706 60 55 C60.66 54.34 61.32 53.68 62 53 C64.60038441 57.87572077 64.16345673 62.64225149 64 68 C64 68.99 64 69.98 64 71 C64.66 70.67 65.32 70.34 66 70 C66.68894389 82.89856069 66.68894389 82.89856069 64.125 86.6875 C62.77903748 88.15222392 61.40659718 89.59340282 60 91 C60 91.99 60 92.98 60 94 C60.61875 93.175 61.2375 92.35 61.875 91.5 C62.57625 90.675 63.2775 89.85 64 89 C64.66 89 65.32 89 66 89 C65.6770722 93.50015521 65.05431651 96.87709413 61.8984375 100.23828125 C60.29581932 101.58905943 58.66223425 102.90418282 56.99609375 104.17578125 C54.84550117 106.1411956 54.35753593 107.15853022 54 110 C55.32 109.01 56.64 108.02 58 107 C58.99 107.495 58.99 107.495 60 108 C56.56416274 114.75319738 52.88023628 117.78809946 46.328125 121.5546875 C43.88762209 122.78806725 43.88762209 122.78806725 43 125 C43.94875 124.505 44.8975 124.01 45.875 123.5 C49 122 49 122 51 122 C49.47699008 126.11212678 46.55736564 128.60870671 43 131 C39.19707277 132.62982595 36.12588355 133.24269903 32 133 C32.31453125 132.42765625 32.6290625 131.8553125 32.953125 131.265625 C33.99545131 129.00984418 34.38099206 127.19248114 34.75 124.75 C35.81085123 119.54924151 38.40549399 115.84601664 42 112 C42.33 112 42.66 112 43 112 C43 114.31 43 116.62 43 119 C45.25314384 115.62028424 45.21531537 114.33399485 45.3125 110.375 C45.70251452 104.20977044 47.54323987 100.05120668 51 95 C51.33 95 51.66 95 52 95 C52.33 96.98 52.66 98.96 53 101 C52.90460938 99.74703125 52.80921875 98.4940625 52.7109375 97.203125 C52.59836921 95.5521234 52.48642253 93.90107933 52.375 92.25 C52.27832031 91.0125 52.27832031 91.0125 52.1796875 89.75 C52.128125 88.95078125 52.0765625 88.1515625 52.0234375 87.328125 C51.97106934 86.5949707 51.91870117 85.86181641 51.86474609 85.10644531 C52.02232915 82.65224559 52.77735161 81.11146787 54 79 C54.66 80.98 55.32 82.96 56 85 C56.66 85 57.32 85 58 85 C57.73088588 80.60446936 57.27245133 78.0300616 54.5 74.5625 C51.52508078 70.79026814 51.24962433 67.7428623 51 63 C55.875 66.75 55.875 66.75 57 69 C56.24553132 64.14462897 53.24078276 60.15061621 50.70703125 56.04492188 C49.73055711 54.40521529 48.85762045 52.70488316 48 51 C48.33 50.01 48.66 49.02 49 48 C50.32 48.99 51.64 49.98 53 51 C52.6403222 48.21402108 52.18956152 47.17187424 50.07421875 45.25390625 C49.28660156 44.69574219 48.49898437 44.13757812 47.6875 43.5625 C44.2331593 40.99924719 41.39114174 38.63869394 39 35 C39 34.34 39 33.68 39 33 C41.9719385 34.12451727 44.33440687 35.22293791 47 37 C46.10356857 34.49417159 46.10356857 34.49417159 44 32 C41.77732533 31.09636926 39.53866277 30.47563403 37.23046875 29.82421875 C33.88640087 28.58849489 32.26412817 26.70234653 30 24 C32.31 24 34.62 24 37 24 C34.57788531 21.06963829 32.77894642 20.55988907 29.0625 20.0625 C24.86963215 19.34634593 22.61201875 18.56184375 20 15 C21.65 14.67 23.3 14.34 25 14 C23.3132325 12.3132325 21.05975646 12.75469221 18.75 12.625 C14.48743365 12.27024805 11.30198238 11.96039799 8 9 C8 8.01 8 7.02 8 6 C6.22969379 4.56657393 6.22969379 4.56657393 4 3.375 C2.65452253 2.60415353 1.31758498 1.81760854 0 1 C0 0.67 0 0.34 0 0 Z " fill="#ECE1A6" transform="translate(120,14)"/>
<path d="M0 0 C0.89203125 0.01804687 1.7840625 0.03609375 2.703125 0.0546875 C3.71632812 0.08949219 3.71632812 0.08949219 4.75 0.125 C1.14190497 4.88112527 -3.72436423 5.73304595 -9.25 7.125 C-6.775 7.62 -6.775 7.62 -4.25 8.125 C-6.14781825 10.62356648 -7.22697619 11.11983849 -10.3515625 11.8203125 C-11.51429687 11.96210938 -12.67703125 12.10390625 -13.875 12.25 C-17.88456136 12.42287657 -17.88456136 12.42287657 -21.25 14.125 C-19.93 14.455 -18.61 14.785 -17.25 15.125 C-17.25 15.785 -17.25 16.445 -17.25 17.125 C-21.04972957 18.90854653 -23.86756777 20.07484495 -28.0625 20.625 C-29.114375 20.79 -30.16625 20.955 -31.25 21.125 C-31.91 22.115 -32.57 23.105 -33.25 24.125 C-31.27 24.125 -29.29 24.125 -27.25 24.125 C-33.775 31.0125 -33.775 31.0125 -39 31.25 C-39.7425 31.20875 -40.485 31.1675 -41.25 31.125 C-42.24 33.6 -42.24 33.6 -43.25 36.125 C-42.46625 35.63 -41.6825 35.135 -40.875 34.625 C-38.25 33.125 -38.25 33.125 -36.25 33.125 C-39.01207858 39.33967681 -43.11244697 42.96278354 -48.640625 46.6953125 C-49.17171875 47.16710938 -49.7028125 47.63890625 -50.25 48.125 C-50.25 49.115 -50.25 50.105 -50.25 51.125 C-49.79625 50.63 -49.3425 50.135 -48.875 49.625 C-47.25 48.125 -47.25 48.125 -45.25 48.125 C-45.82860373 52.06938397 -47.0267682 54.8104951 -49.125 58.1875 C-49.63804688 59.02410156 -50.15109375 59.86070313 -50.6796875 60.72265625 C-52.25 63.125 -52.25 63.125 -53.91015625 65.078125 C-55.64035207 67.72133961 -55.68278504 69.67841927 -55.8125 72.8125 C-55.94140625 75.76171875 -55.94140625 75.76171875 -56.25 78.125 C-57.24 78.62 -57.24 78.62 -58.25 79.125 C-58.518125 78.09375 -58.78625 77.0625 -59.0625 76 C-59.78580334 73.40859667 -60.56912744 71.53584166 -61.875 69.125 C-64.05145534 64.37637016 -63.68862983 60.63279004 -62.25 55.6875 C-61.92 54.841875 -61.59 53.99625 -61.25 53.125 C-60.59 53.125 -59.93 53.125 -59.25 53.125 C-58.92 54.775 -58.59 56.425 -58.25 58.125 C-57.59 58.125 -56.93 58.125 -56.25 58.125 C-56.415 57.50625 -56.58 56.8875 -56.75 56.25 C-58.01753293 48.32791919 -57.90128986 42.81122917 -53.25 36.125 C-52.59 36.125 -51.93 36.125 -51.25 36.125 C-50.92 37.445 -50.59 38.765 -50.25 40.125 C-50.24742188 39.33996094 -50.24484375 38.55492187 -50.2421875 37.74609375 C-49.99675694 31.07856351 -49.39014261 27.04533629 -44.625 22.234375 C-43.25 21.125 -43.25 21.125 -42.25 21.125 C-42.25 23.435 -42.25 25.745 -42.25 28.125 C-39.58767674 24.97861797 -38.47219455 22.03602256 -37.25 18.125 C-35.69021024 13.83557815 -32.85590925 11.77423945 -29.25 9.125 C-28.26 9.125 -27.27 9.125 -26.25 9.125 C-26.91 10.775 -27.57 12.425 -28.25 14.125 C-27.528125 13.403125 -26.80625 12.68125 -26.0625 11.9375 C-24.6703125 10.5453125 -24.6703125 10.5453125 -23.25 9.125 C-22.425 8.25875 -21.6 7.3925 -20.75 6.5 C-18.34349804 4.21382314 -16.24734208 2.54479362 -13.25 1.125 C-12.26 1.455 -11.27 1.785 -10.25 2.125 C-9.06164669 2.20775999 -9.06164669 2.20775999 -7.515625 1.1328125 C-4.83054091 -0.06158697 -2.92368993 -0.07693921 0 0 Z " fill="#E7DDA4" transform="translate(69.25,12.875)"/>
<path d="M0 0 C1 3 1 3 -0.4375 6.1875 C-1.2109375 7.5796875 -1.2109375 7.5796875 -2 9 C1.60654039 6.59563974 1.85452932 5.05320393 3 1 C3.33 1 3.66 1 4 1 C3.5317879 5.77576339 2.75668002 9.04476345 0 13 C3.3 12.67 6.6 12.34 10 12 C10 12.66 10 13.32 10 14 C3.78295694 18.55916491 -0.87317434 19.21450571 -8.3828125 19.71875 C-10.92413861 19.71496985 -10.92413861 19.71496985 -12 21 C-8.7 21.33 -5.4 21.66 -2 22 C-2 22.66 -2 23.32 -2 24 C-9.45532547 28.12343927 -16.31771078 29.22349869 -24.703125 27.41796875 C-27.01863585 26.75926804 -27.01863585 26.75926804 -29 28 C-24.545 28.99 -24.545 28.99 -20 30 C-20 30.66 -20 31.32 -20 32 C-28.59842273 34.81174699 -35.93920965 36.48977245 -45 36 C-38.07 37.98 -31.14 39.96 -24 42 C-24 42.66 -24 43.32 -24 44 C-31.37727727 44.56748287 -37.12758019 42.5459778 -44 40 C-45.59134766 39.42765625 -45.59134766 39.42765625 -47.21484375 38.84375 C-49.81420441 37.90704346 -52.40878268 36.95895444 -55 36 C-54.67 34.68 -54.34 33.36 -54 32 C-54.99 31.34 -55.98 30.68 -57 30 C-56.40832031 29.91363281 -55.81664063 29.82726562 -55.20703125 29.73828125 C-49.50609357 28.72457455 -46.92474978 27.42792283 -43 23 C-38.62911544 19.27834725 -34.65711763 16.41427941 -29 15 C-30.3937282 19.43458973 -32.60582235 21.87378374 -36 25 C-33.21739697 24.6415424 -32.1835175 24.20656194 -30.2890625 22.07421875 C-29.73992187 21.28660156 -29.19078125 20.49898437 -28.625 19.6875 C-25.03900355 14.86785947 -22.0992856 11.80850929 -16.125 10.25 C-15.073125 10.12625 -15.073125 10.12625 -14 10 C-15.47329042 15.00918744 -18.27515238 17.51807722 -22 21 C-14.9091611 18.38758567 -12.4932783 15.16340182 -8.7421875 8.70703125 C-6.32612035 4.95291795 -3.54365509 2.67582119 0 0 Z " fill="#C5B178" transform="translate(151,137)"/>
<path d="M0 0 C1.6183795 4.81139852 -0.07259266 8.49437244 -2 13 C-3 14.33333333 -4 15.66666667 -5 17 C-5.25124826 19.66761764 -5.25124826 19.66761764 -5 22 C-4.01 20.35 -3.02 18.7 -2 17 C0 19 0 19 0.23046875 21.75 C0.20919922 23.35875 0.20919922 23.35875 0.1875 25 C0.17783203 26.60875 0.17783203 26.60875 0.16796875 28.25 C0 31 0 31 -1 33 C-1.039992 34.99960012 -1.04346799 37.00047242 -1 39 C-0.67 37.35 -0.34 35.7 0 34 C0.66 34 1.32 34 2 34 C6.63364181 40.48709853 7.17735952 47.19573968 8 55 C8.33 53.35 8.66 51.7 9 50 C13.3018506 53.68730051 15.45460126 57.51890235 17.86328125 62.625 C19.02526793 65.15132016 19.02526793 65.15132016 20.8125 68 C22 70 22 70 22 72 C15.2828678 72.57167083 9.69158669 70.86933072 4.31640625 66.69140625 C2.9375 65.375 2.9375 65.375 1 63 C1 62.34 1 61.68 1 61 C3.64 61.66 6.28 62.32 9 63 C6.77698833 60.53704422 4.66646289 59.23766878 1.6875 57.8125 C-3.19545696 55.19549039 -6.28760223 51.81849485 -9 47 C-9 46.34 -9 45.68 -9 45 C-5.54074837 46.2491742 -2.85306797 47.67527795 0 50 C-2.15984056 46.28507424 -3.96744838 43.82912332 -7.5625 41.4375 C-10.70319546 39.31904374 -12.47240814 37.56438102 -14 34 C-14.6875 30.1875 -14.6875 30.1875 -15 27 C-12.69 28.98 -10.38 30.96 -8 33 C-8.90897479 29.36410082 -9.19066204 28.43943925 -11.5 25.875 C-15.12618744 21.70488444 -15.11603843 19.83592008 -15.0625 14.375 C-15.05347656 13.18648437 -15.04445313 11.99796875 -15.03515625 10.7734375 C-15.02355469 9.85820313 -15.01195312 8.94296875 -15 8 C-13.29159719 9.63412443 -12.06546953 10.86906094 -11 13 C-10.34 12.01 -9.68 11.02 -9 10 C-8.67 11.65 -8.34 13.3 -8 15 C-7.84144531 14.41992188 -7.68289062 13.83984375 -7.51953125 13.2421875 C-5.87148313 7.72441313 -3.96418234 4.17846247 0 0 Z " fill="#D8C78E" transform="translate(20,76)"/>
<path d="M0 0 C3.57410797 2.68058098 6.31941902 5.42589203 9 9 C9.66 8.67 10.32 8.34 11 8 C11.33 8.66 11.66 9.32 12 10 C12.99 9.01 13.98 8.02 15 7 C15.68894389 19.89856069 15.68894389 19.89856069 13.125 23.6875 C11.77903748 25.15222392 10.40659718 26.59340282 9 28 C9 28.99 9 29.98 9 31 C9.61875 30.175 10.2375 29.35 10.875 28.5 C11.57625 27.675 12.2775 26.85 13 26 C13.66 26 14.32 26 15 26 C14.6770722 30.50015521 14.05431651 33.87709413 10.8984375 37.23828125 C9.29581932 38.58905943 7.66223425 39.90418282 5.99609375 41.17578125 C3.84550117 43.1411956 3.35753593 44.15853022 3 47 C4.32 46.01 5.64 45.02 7 44 C7.66 44.33 8.32 44.66 9 45 C5.56416274 51.75319738 1.88023628 54.78809946 -4.671875 58.5546875 C-7.11237791 59.78806725 -7.11237791 59.78806725 -8 62 C-7.05125 61.505 -6.1025 61.01 -5.125 60.5 C-2 59 -2 59 0 59 C-1.52300992 63.11212678 -4.44263436 65.60870671 -8 68 C-11.80292723 69.62982595 -14.87411645 70.24269903 -19 70 C-18.68546875 69.42765625 -18.3709375 68.8553125 -18.046875 68.265625 C-17.00454869 66.00984418 -16.61900794 64.19248114 -16.25 61.75 C-15.18914877 56.54924151 -12.59450601 52.84601664 -9 49 C-8.67 49 -8.34 49 -8 49 C-8 51.31 -8 53.62 -8 56 C-5.74685616 52.62028424 -5.78468463 51.33399485 -5.6875 47.375 C-5.29748548 41.20977044 -3.45676013 37.05120668 0 32 C0.33 32 0.66 32 1 32 C1.33 33.98 1.66 35.96 2 38 C1.90460938 36.74703125 1.80921875 35.4940625 1.7109375 34.203125 C1.59836921 32.5521234 1.48642253 30.90107933 1.375 29.25 C1.27832031 28.0125 1.27832031 28.0125 1.1796875 26.75 C1.10234375 25.55117187 1.10234375 25.55117187 1.0234375 24.328125 C0.97106934 23.5949707 0.91870117 22.86181641 0.86474609 22.10644531 C1.02232915 19.65224559 1.77735161 18.11146787 3 16 C3.66 17.98 4.32 19.96 5 22 C5.66 22 6.32 22 7 22 C6.73088588 17.60446936 6.27245133 15.0300616 3.5 11.5625 C0.52508078 7.79026814 0.24962433 4.7428623 0 0 Z " fill="#D7C487" transform="translate(171,77)"/>
<path d="M0 0 C11 0 11 0 14.1875 1.375 C16.92162612 5.33476886 16.74151192 9.32457219 16 14 C15.01 15.485 15.01 15.485 14 17 C14 17.99 14 18.98 14 20 C14.66 19.34 15.32 18.68 16 18 C16.99 18 17.98 18 19 18 C18.625 19.9375 18.625 19.9375 18 22 C17.34 22.33 16.68 22.66 16 23 C16 23.66 16 24.32 16 25 C18.33524782 22.74259377 20.18705073 20.7194239 22 18 C24.625 17.8125 24.625 17.8125 27 18 C25.97918309 20.74835321 24.9593938 23.06015733 23.3125 25.5 C21.66663157 28.63498748 22.05901349 29.6471165 23 33 C24.16064568 35.47243227 24.16064568 35.47243227 25.5625 37.8125 C26.01753906 38.60269531 26.47257812 39.39289063 26.94140625 40.20703125 C27.29074219 40.79871094 27.64007813 41.39039063 28 42 C25.25 42.375 25.25 42.375 22 42 C19.75 39.0625 19.75 39.0625 18 36 C17.34 35.67 16.68 35.34 16 35 C15.71125 35.78375 15.4225 36.5675 15.125 37.375 C14 40 14 40 12 42 C9.375 42.125 9.375 42.125 7 42 C8.10245945 38.87636489 9.24111274 36.67851634 11.25 34 C13.34442863 31.18770128 13.34442863 31.18770128 12.4375 28.4375 C11.42655831 26.72329453 10.40471694 25.01549339 9.375 23.3125 C8 21 8 21 8 19 C7.34 19 6.68 19 6 19 C6 23.62 6 28.24 6 33 C4.02 33 2.04 33 0 33 C0 22.11 0 11.22 0 0 Z " fill="#DBCC93" transform="translate(136,63)"/>
<path d="M0 0 C2.31 0 4.62 0 7 0 C7.50904657 1.87256417 8.00682455 3.74819341 8.5 5.625 C8.7784375 6.66914062 9.056875 7.71328125 9.34375 8.7890625 C9.99118596 11.95687418 10.1161292 14.77741467 10 18 C10.66 18 11.32 18 12 18 C12.07347656 16.80503906 12.07347656 16.80503906 12.1484375 15.5859375 C12.89103691 5.06151142 12.89103691 5.06151142 15 0 C17.31 0 19.62 0 22 0 C22 10.89 22 21.78 22 33 C20.35 33 18.7 33 17 33 C16.67 27.39 16.34 21.78 16 16 C15.01 21.61 14.02 27.22 13 33 C12.01 33 11.02 33 10 33 C9.51779737 31.12577848 9.03938167 29.25058246 8.5625 27.375 C8.29566406 26.33085938 8.02882813 25.28671875 7.75390625 24.2109375 C7.039493 21.16820335 6.51382554 18.08295325 6 15 C5.67 20.94 5.34 26.88 5 33 C3.35 33 1.7 33 0 33 C0 22.11 0 11.22 0 0 Z " fill="#DBCC95" transform="translate(34,63)"/>
<path d="M0 0 C0.66 -0.0103125 1.32 -0.020625 2 -0.03125 C4.91677626 0.74351869 6.09296356 2.19306173 8 4.5 C8.51757812 7.07788086 8.51757812 7.07788086 8.53125 9.96484375 C8.53640625 11.01220703 8.5415625 12.05957031 8.546875 13.13867188 C8.53140625 14.22728516 8.5159375 15.31589844 8.5 16.4375 C8.51546875 17.52224609 8.5309375 18.60699219 8.546875 19.72460938 C8.52405429 24.36577131 8.49361847 27.59116778 6.25390625 31.71484375 C3.74324196 33.70335949 2.60918033 34.17866633 -0.5625 34.125 C-1.70912109 34.14433594 -1.70912109 34.14433594 -2.87890625 34.1640625 C-5 33.5 -5 33.5 -6.60546875 31.30834961 C-8.97865535 26.52915398 -8.47177695 21.6818734 -8.4375 16.4375 C-8.45748047 15.34888672 -8.47746094 14.26027344 -8.49804688 13.13867188 C-8.49740234 12.09130859 -8.49675781 11.04394531 -8.49609375 9.96484375 C-8.49794678 9.012146 -8.4997998 8.05944824 -8.50170898 7.07788086 C-7.61042493 2.49828557 -4.65892274 -0.07279567 0 0 Z " fill="#E1D197" transform="translate(124,62.5)"/>
<path d="M0 0 C1.65 0 3.3 0 5 0 C6.65 4.62 8.3 9.24 10 14 C10.33 9.38 10.66 4.76 11 0 C12.98 0 14.96 0 17 0 C17 10.89 17 21.78 17 33 C15.02 33 13.04 33 11 33 C9.35 27.72 7.7 22.44 6 17 C5.67 22.28 5.34 27.56 5 33 C3.35 33 1.7 33 0 33 C0 22.11 0 11.22 0 0 Z " fill="#D4C590" transform="translate(79,63)"/>
<path d="M0 0 C3.57410797 2.68058098 6.31941902 5.42589203 9 9 C9.66 8.67 10.32 8.34 11 8 C11.33 8.66 11.66 9.32 12 10 C12.99 9.01 13.98 8.02 15 7 C15.68894389 19.89856069 15.68894389 19.89856069 13.125 23.6875 C11.77903748 25.15222392 10.40659718 26.59340282 9 28 C9 28.99 9 29.98 9 31 C9.928125 29.7625 9.928125 29.7625 10.875 28.5 C11.926875 27.2625 11.926875 27.2625 13 26 C13.66 26 14.32 26 15 26 C14.24366648 31.8681049 13.09895756 35.96579461 8.59765625 39.98046875 C6.33794644 41.42248406 4.60150527 41.45908916 2 41 C2.01160156 40.39671875 2.02320313 39.7934375 2.03515625 39.171875 C2.04417969 38.37265625 2.05320313 37.5734375 2.0625 36.75 C2.07410156 35.96109375 2.08570313 35.1721875 2.09765625 34.359375 C2.00326813 32.07895799 1.57173288 30.19897263 1 28 C0.63154543 23.61281995 0.47400937 19.78898594 3 16 C3.66 17.98 4.32 19.96 5 22 C5.66 22 6.32 22 7 22 C6.73088588 17.60446936 6.27245133 15.0300616 3.5 11.5625 C0.52508078 7.79026814 0.24962433 4.7428623 0 0 Z " fill="#DECC90" transform="translate(171,77)"/>
<path d="M0 0 C0.33 0 0.66 0 1 0 C1.33 2.31 1.66 4.62 2 7 C2.99 7 3.98 7 5 7 C8.03910346 12.946072 8.65226572 18.36906706 9 25 C9.66 24.34 10.32 23.68 11 23 C13.56204902 27.80384192 13.56823939 32.69643239 13 38 C12.21888607 40.5465217 11.23927323 42.62472631 10 45 C8.38154714 42.57232071 7.34792807 40.59082618 6.25 37.9375 C4.3172579 33.46666639 1.9078274 29.44706423 -0.73046875 25.359375 C-2.06359731 22.88180685 -2.59235312 20.77003424 -3 18 C-1.35 18.99 0.3 19.98 2 21 C1.6403222 18.21402108 1.18956152 17.17187424 -0.92578125 15.25390625 C-1.71339844 14.69574219 -2.50101563 14.13757812 -3.3125 13.5625 C-6.7668407 10.99924719 -9.60885826 8.63869394 -12 5 C-12 4.34 -12 3.68 -12 3 C-11.2575 3.309375 -10.515 3.61875 -9.75 3.9375 C-7.12132038 5.03185708 -7.12132038 5.03185708 -4.75 5.5 C-4.1725 5.665 -3.595 5.83 -3 6 C-2.67 6.66 -2.34 7.32 -2 8 C-0.03177114 6.03177114 -0.33751619 2.65191291 0 0 Z " fill="#E4D499" transform="translate(171,44)"/>
<path d="M0 0 C1 3 1 3 -0.4375 6.1875 C-1.2109375 7.5796875 -1.2109375 7.5796875 -2 9 C1.60654039 6.59563974 1.85452932 5.05320393 3 1 C3.33 1 3.66 1 4 1 C3.5317879 5.77576339 2.75668002 9.04476345 0 13 C3.3 12.67 6.6 12.34 10 12 C10 12.66 10 13.32 10 14 C3.78295694 18.55916491 -0.87317434 19.21450571 -8.3828125 19.71875 C-10.92413861 19.71496985 -10.92413861 19.71496985 -12 21 C-8.7 21.33 -5.4 21.66 -2 22 C-2 22.66 -2 23.32 -2 24 C-8.47215892 27.57966321 -14.58144124 29.29678744 -22 28 C-24.32421875 26.66015625 -24.32421875 26.66015625 -26 25 C-26 24.01 -26 23.02 -26 22 C-25.40832031 21.84144531 -24.81664063 21.68289062 -24.20703125 21.51953125 C-15.64544869 18.99155989 -12.25847437 14.47243804 -7.55859375 7.16015625 C-5.390952 4.15588084 -2.96993859 2.19209753 0 0 Z " fill="#BDA970" transform="translate(151,137)"/>
<path d="M0 0 C4.62 0 9.24 0 14 0 C14 1.65 14 3.3 14 5 C11.36 5 8.72 5 6 5 C6 7.64 6 10.28 6 13 C7.98 13 9.96 13 12 13 C12 14.65 12 16.3 12 18 C10.02 18 8.04 18 6 18 C6 21.3 6 24.6 6 28 C8.64 28 11.28 28 14 28 C14 29.65 14 31.3 14 33 C9.38 33 4.76 33 0 33 C0 22.11 0 11.22 0 0 Z " fill="#D5C792" transform="translate(61,63)"/>
<path d="M0 0 C5.28 0 10.56 0 16 0 C16 1.32 16 2.64 16 4 C14.35 4 12.7 4 11 4 C11 13.24 11 22.48 11 32 C9.02 32 7.04 32 5 32 C5 22.76 5 13.52 5 4 C3.35 4 1.7 4 0 4 C0 2.68 0 1.36 0 0 Z " fill="#D5C790" transform="translate(98,64)"/>
<path d="M0 0 C1.11375 0.2475 1.11375 0.2475 2.25 0.5 C5.2057826 1.03741502 7.11002554 0.70296676 10 0 C10.66 0 11.32 0 12 0 C12.33 0.66 12.66 1.32 13 2 C13.66 2 14.32 2 15 2 C15.33 1.34 15.66 0.68 16 0 C19.63 0 23.26 0 27 0 C27 0.66 27 1.32 27 2 C26.34 2 25.68 2 25 2 C24.67 3.65 24.34 5.3 24 7 C23.34 6.01 22.68 5.02 22 4 C21.01 4.495 21.01 4.495 20 5 C20.33 5.66 20.66 6.32 21 7 C19.906875 6.814375 18.81375 6.62875 17.6875 6.4375 C11.47858526 5.65029831 4.94771724 6.01742759 -1 8 C-1.04241723 5.66705225 -1.04092937 3.33297433 -1 1 C-0.67 0.67 -0.34 0.34 0 0 Z " fill="#919191" transform="translate(93,112)"/>
<path d="M0 0 C0.33 0.99 0.66 1.98 1 3 C0.67 3.33 0.34 3.66 0 4 C3.3 4.33 6.6 4.66 10 5 C10 5.66 10 6.32 10 7 C3.52784108 10.57966321 -2.58144124 12.29678744 -10 11 C-12.32421875 9.66015625 -12.32421875 9.66015625 -14 8 C-14 7.01 -14 6.02 -14 5 C-13.24074219 4.80664062 -12.48148437 4.61328125 -11.69921875 4.4140625 C-10.70535156 4.15367187 -9.71148437 3.89328125 -8.6875 3.625 C-7.70136719 3.36976563 -6.71523437 3.11453125 -5.69921875 2.8515625 C-2.8194184 2.08086826 -2.8194184 2.08086826 0 0 Z " fill="#AF9B65" transform="translate(139,154)"/>
<path d="M0 0 C1.98 0.495 1.98 0.495 4 1 C4 8.92 4 16.84 4 25 C2.35 24.67 0.7 24.34 -1 24 C-1.02887236 20.18751574 -1.04675492 16.3750593 -1.0625 12.5625 C-1.07087891 11.47388672 -1.07925781 10.38527344 -1.08789062 9.26367188 C-1.09111328 8.22919922 -1.09433594 7.19472656 -1.09765625 6.12890625 C-1.10289307 5.17056885 -1.10812988 4.21223145 -1.11352539 3.22485352 C-1 1 -1 1 0 0 Z " fill="#211E19" transform="translate(122,67)"/>
<path d="M0 0 C1.98 0 3.96 0 6 0 C6 2.31 6 4.62 6 7 C5.01 6.67 4.02 6.34 3 6 C3 14.25 3 22.5 3 31 C2.01 31 1.02 31 0 31 C0 20.77 0 10.54 0 0 Z " fill="#EEE0A3" transform="translate(35,64)"/>
<path d="M0 0 C1.65 0 3.3 0 5 0 C4.01 0.495 4.01 0.495 3 1 C3 1.66 3 2.32 3 3 C3.66 3.33 4.32 3.66 5 4 C-0.42464982 6.03166543 -5.86598769 8.02041166 -11.375 9.8125 C-12.14585938 10.06644531 -12.91671875 10.32039062 -13.7109375 10.58203125 C-16.40407801 11.07378216 -18.36928147 10.68324315 -21 10 C-21.33 9.01 -21.66 8.02 -22 7 C-20.37191406 6.72736328 -20.37191406 6.72736328 -18.7109375 6.44921875 C-17.26553863 6.19580466 -15.82023082 5.94187075 -14.375 5.6875 C-13.30572266 5.51057617 -13.30572266 5.51057617 -12.21484375 5.33007812 C-7.69232667 4.52100397 -4.05127699 3.28123957 0 1 C0 0.67 0 0.34 0 0 Z " fill="#CAB77E" transform="translate(86,171)"/>
<path d="M0 0 C-1.34128135 5.53278558 -5.55165 8.78421365 -10 12 C-10.66 12 -11.32 12 -12 12 C-11.67 12.99 -11.34 13.98 -11 15 C-11.99 15.66 -12.98 16.32 -14 17 C-14.33 16.01 -14.66 15.02 -15 14 C-15.66 13.67 -16.32 13.34 -17 13 C-8.10194175 0 -8.10194175 0 0 0 Z " fill="#BFAC72" transform="translate(137,147)"/>
<path d="M0 0 C2.375 -0.125 2.375 -0.125 5 0 C7 2 7 2 7.265625 4.96875 C7.26046875 6.1340625 7.2553125 7.299375 7.25 8.5 C7.25515625 9.6653125 7.2603125 10.830625 7.265625 12.03125 C7 15 7 15 5 17 C0.59225513 5.47835991 0.59225513 5.47835991 0 0 Z " fill="#070503" transform="translate(1,115)"/>
<path d="M0 0 C4.87665542 -0.19506622 8.41360334 0.43645568 13 2 C13.99 1.67 14.98 1.34 16 1 C16.66 1.66 17.32 2.32 18 3 C17.34 3 16.68 3 16 3 C15.67 4.65 15.34 6.3 15 8 C12.69 8.33 10.38 8.66 8 9 C8 8.01 8 7.02 8 6 C6.22969379 4.56657393 6.22969379 4.56657393 4 3.375 C2.65452253 2.60415353 1.31758498 1.81760854 0 1 C0 0.67 0 0.34 0 0 Z " fill="#E2D89F" transform="translate(120,14)"/>
<path d="M0 0 C3.63 0 7.26 0 11 0 C11 0.66 11 1.32 11 2 C10.34 2 9.68 2 9 2 C8.67 3.65 8.34 5.3 8 7 C7.34 6.01 6.68 5.02 6 4 C5.01 4.495 5.01 4.495 4 5 C4.33 5.66 4.66 6.32 5 7 C1.7 6.67 -1.6 6.34 -5 6 C-5 4.35 -5 2.7 -5 1 C-3.68 1.33 -2.36 1.66 -1 2 C-0.67 1.34 -0.34 0.68 0 0 Z " fill="#9A9A9A" transform="translate(109,112)"/>
<path d="M0 0 C3 1 3 1 4 3 C4.12005453 4.49649362 4.17531451 5.99874793 4.1875 7.5 C4.20167969 8.2940625 4.21585938 9.088125 4.23046875 9.90625 C4 12 4 12 2 14 C-0.0625 11.9375 -0.0625 11.9375 -2 9 C-1.82788085 5.61498997 -1.51858769 3.03717538 0 0 Z " fill="#EFE3A4" transform="translate(167,39)"/>
<path d="M0 0 C1.98 0.495 1.98 0.495 4 1 C4 8.92 4 16.84 4 25 C2.35 24.67 0.7 24.34 -1 24 C-1.02887236 20.18751574 -1.04675492 16.3750593 -1.0625 12.5625 C-1.07087891 11.47388672 -1.07925781 10.38527344 -1.08789062 9.26367188 C-1.09111328 8.22919922 -1.09433594 7.19472656 -1.09765625 6.12890625 C-1.10289307 5.17056885 -1.10812988 4.21223145 -1.11352539 3.22485352 C-1 1 -1 1 0 0 Z M1 2 C-0.22784809 3.00559794 -0.22784809 3.00559794 -0.11352539 5.04125977 C-0.10828857 5.91580811 -0.10305176 6.79035645 -0.09765625 7.69140625 C-0.09443359 8.63564453 -0.09121094 9.57988281 -0.08789062 10.55273438 C-0.07951172 11.54595703 -0.07113281 12.53917969 -0.0625 13.5625 C-0.05798828 14.55958984 -0.05347656 15.55667969 -0.04882812 16.58398438 C-0.03700007 19.05604849 -0.02051849 21.52799518 0 24 C0.99 24 1.98 24 3 24 C3 16.74 3 9.48 3 2 C2.34 2 1.68 2 1 2 Z " fill="#4C422D" transform="translate(122,67)"/>
<path d="M0 0 C5.28 1.32 10.56 2.64 16 4 C16 4.66 16 5.32 16 6 C9.42684522 6.36517527 4.20514474 5.13619737 -2 3 C-1.34 2.01 -0.68 1.02 0 0 Z " fill="#A89869" transform="translate(111,175)"/>
<path d="M0 0 C2.31 0 4.62 0 7 0 C6.67 2.31 6.34 4.62 6 7 C4.68 7 3.36 7 2 7 C1.67 6.01 1.34 5.02 1 4 C0.67 4.66 0.34 5.32 0 6 C-0.99 6 -1.98 6 -3 6 C-3 4.35 -3 2.7 -3 1 C-2.67 1.66 -2.34 2.32 -2 3 C-1.34 3 -0.68 3 0 3 C0 2.01 0 1.02 0 0 Z " fill="#8E8E8E" transform="translate(145,112)"/>
<path d="M0 0 C1.18771723 3.42943519 0.80226223 5.37784675 -0.4375 8.75 C-0.72496094 9.54921875 -1.01242188 10.3484375 -1.30859375 11.171875 C-1.53675781 11.77515625 -1.76492187 12.3784375 -2 13 C-3.32 13 -4.64 13 -6 13 C-5.63118644 6.85310727 -4.09949571 4.30972626 0 0 Z " fill="#E1D59E" transform="translate(20,76)"/>
<path d="M0 0 C5.61 0 11.22 0 17 0 C17 0.66 17 1.32 17 2 C17.66 2 18.32 2 19 2 C18.67 10.25 18.34 18.5 18 27 C17.67 27 17.34 27 17 27 C16.505 14.13 16.505 14.13 16 1 C10.72 1 5.44 1 0 1 C0 0.67 0 0.34 0 0 Z " fill="#695E44" transform="translate(98,63)"/>
<path d="M0 0 C1.98 0.495 1.98 0.495 4 1 C3.01 1 2.02 1 1 1 C1 1.66 1 2.32 1 3 C1.99 3 2.98 3 4 3 C4.99 2.01 5.98 1.02 7 0 C6.67 2.97 6.34 5.94 6 9 C5.34 9 4.68 9 4 9 C4 7.68 4 6.36 4 5 C3.01 5 2.02 5 1 5 C1 5.66 1 6.32 1 7 C1.66 7 2.32 7 3 7 C3 7.66 3 8.32 3 9 C1.68 9 0.36 9 -1 9 C-1.125 2.25 -1.125 2.25 0 0 Z " fill="#A7A6A6" transform="translate(129,110)"/>
<path d="M0 0 C2.33944736 0.28730055 4.6739143 0.61936779 7 1 C7 2.32 7 3.64 7 5 C6.01 5.495 6.01 5.495 5 6 C5.33 6.66 5.66 7.32 6 8 C5.01 8 4.02 8 3 8 C2.67 7.34 2.34 6.68 2 6 C1.67 6.66 1.34 7.32 1 8 C0.34 8 -0.32 8 -1 8 C-1.04241723 5.66705225 -1.04092937 3.33297433 -1 1 C-0.67 0.67 -0.34 0.34 0 0 Z " fill="#9F9F9F" transform="translate(62,111)"/>
<path d="M0 0 C2.475 0.495 2.475 0.495 5 1 C5 3.31 5 5.62 5 8 C3.35 8.33 1.7 8.66 0 9 C0 6.03 0 3.06 0 0 Z " fill="#443B2E" transform="translate(142,68)"/>
<path d="M0 0 C2.33944736 0.28730055 4.6739143 0.61936779 7 1 C7 2.32 7 3.64 7 5 C6.01 5.495 6.01 5.495 5 6 C5.33 6.66 5.66 7.32 6 8 C5.01 8 4.02 8 3 8 C3 6.35 3 4.7 3 3 C2.34 3 1.68 3 1 3 C1 4.65 1 6.3 1 8 C0.34 8 -0.32 8 -1 8 C-1.04241723 5.66705225 -1.04092937 3.33297433 -1 1 C-0.67 0.67 -0.34 0.34 0 0 Z " fill="#A6A5A5" transform="translate(154,111)"/>
<path d="M0 0 C0.33 0 0.66 0 1 0 C1 6.6 1 13.2 1 20 C0.67 20 0.34 20 0 20 C-0.33 18.35 -0.66 16.7 -1 15 C-1.66 15.66 -2.32 16.32 -3 17 C-2.48517081 11.147205 -1.54642808 5.6702363 0 0 Z " fill="#4F4431" transform="translate(50,76)"/>
<path d="M0 0 C2.38285549 3.57428324 2.95891388 6.77634729 3 11 C2.0625 14 2.0625 14 1 16 C0.67 16 0.34 16 0 16 C-0.33 12.04 -0.66 8.08 -1 4 C-1.66 4 -2.32 4 -3 4 C-3 3.34 -3 2.68 -3 2 C-2.34 2 -1.68 2 -1 2 C-0.67 1.34 -0.34 0.68 0 0 Z " fill="#DBCE97" transform="translate(41,68)"/>
<path d="M0 0 C3.01840125 4.52760188 4.24339186 6.52368308 4 12 C2.49440461 10.03617993 1.10868317 8.21736634 0 6 C-0.33 9.63 -0.66 13.26 -1 17 C-1.33 17 -1.66 17 -2 17 C-2.05398987 14.72942623 -2.09278742 12.45848712 -2.125 10.1875 C-2.14820313 8.92292969 -2.17140625 7.65835938 -2.1953125 6.35546875 C-2 3 -2 3 0 0 Z " fill="#5E513E" transform="translate(6,79)"/>
<path d="M0 0 C0.33 0.66 0.66 1.32 1 2 C1.66 2 2.32 2 3 2 C2.67 2.99 2.34 3.98 2 5 C1.84929203 7.13661258 1.7514034 9.27712124 1.68359375 11.41796875 C1.64169922 12.67158203 1.59980469 13.92519531 1.55664062 15.21679688 C1.51732422 16.52712891 1.47800781 17.83746094 1.4375 19.1875 C1.39429008 20.52279978 1.350675 21.85808652 1.30664062 23.19335938 C1.20043498 26.46213297 1.09839003 29.73098333 1 33 C0.67 33 0.34 33 0 33 C0 22.11 0 11.22 0 0 Z " fill="#383126" transform="translate(56,63)"/>
<path d="M0 0 C2.31 0 4.62 0 7 0 C7 1.98 7 3.96 7 6 C4.36 6 1.72 6 -1 6 C-0.67 4.02 -0.34 2.04 0 0 Z " fill="#ADADAD" transform="translate(84,112)"/>
<path d="M0 0 C0.33 0.66 0.66 1.32 1 2 C-3.29 2.66 -7.58 3.32 -12 4 C-11.67 2.68 -11.34 1.36 -11 0 C-6.88825414 -1.37058195 -4.26339405 -0.75640862 0 0 Z " fill="#433624" transform="translate(73,164)"/>
<path d="M0 0 C0 3 0 3 -2 5.1875 C-2.66 5.785625 -3.32 6.38375 -4 7 C-3.34 7.66 -2.68 8.32 -2 9 C-7.625 12 -7.625 12 -11 12 C-8.01665146 6.98797445 -4.56048012 3.61251516 0 0 Z " fill="#4F402B" transform="translate(183,112)"/>
<path d="M0 0 C0.66 0.33 1.32 0.66 2 1 C1.484375 1.4125 0.96875 1.825 0.4375 2.25 C-0.036875 2.8275 -0.51125 3.405 -1 4 C-0.77242269 6.16299211 -0.77242269 6.16299211 0 8 C-0.33 7.34 -0.66 6.68 -1 6 C-2.175625 7.2065625 -2.175625 7.2065625 -3.375 8.4375 C-6 11 -6 11 -8 12 C-7.92303847 8.76761586 -7.62561345 6.66772205 -5.375 4.265625 C-3.62229929 2.78148327 -1.84920638 1.36155666 0 0 Z " fill="#544939" transform="translate(25,55)"/>
<path d="M0 0 C-0.99 0.33 -1.98 0.66 -3 1 C-2.01 1.66 -1.02 2.32 0 3 C-4.455 3.495 -4.455 3.495 -9 4 C-9.66 2.68 -10.32 1.36 -11 0 C-3.57142857 -1.28571429 -3.57142857 -1.28571429 0 0 Z " fill="#B6A472" transform="translate(75,178)"/>
<path d="M0 0 C1.65 0.33 3.3 0.66 5 1 C4.67 2.65 4.34 4.3 4 6 C1.69 6.33 -0.62 6.66 -3 7 C-3 5.02 -3 3.04 -3 1 C-2.67 2.32 -2.34 3.64 -2 5 C-1.34 5 -0.68 5 0 5 C0 3.35 0 1.7 0 0 Z " fill="#ADACAC" transform="translate(48,112)"/>
<path d="M0 0 C3.375 0.6875 3.375 0.6875 7 2 C8.4375 4.625 8.4375 4.625 9 7 C6.0280615 5.87548273 3.66559313 4.77706209 1 3 C1.33 3.99 1.66 4.98 2 6 C1.34 6 0.68 6 0 6 C0 4.02 0 2.04 0 0 Z " fill="#544932" transform="translate(158,44)"/>
<path d="M0 0 C-0.66 1.32 -1.32 2.64 -2 4 C-7.75 2.375 -7.75 2.375 -10 -1 C-5.92224809 -1.9267618 -3.57818963 -2.33958553 0 0 Z " fill="#D9CF96" transform="translate(150,30)"/>
<path d="M0 0 C2.0625 0.4375 2.0625 0.4375 4 1 C3.75 3.375 3.75 3.375 3 6 C0.9375 7.3125 0.9375 7.3125 -1 8 C-1.04241723 5.66705225 -1.04092937 3.33297433 -1 1 C-0.67 0.67 -0.34 0.34 0 0 Z " fill="#A5A5A5" transform="translate(93,112)"/>
<path d="M0 0 C1.0169313 2.65498232 1.13022151 3.69155375 0.00390625 6.359375 C-0.47175781 7.14828125 -0.94742187 7.9371875 -1.4375 8.75 C-2.14712891 9.94882813 -2.14712891 9.94882813 -2.87109375 11.171875 C-3.24363281 11.77515625 -3.61617187 12.3784375 -4 13 C-4.33 13 -4.66 13 -5 13 C-5.64165788 7.73840541 -4.20577001 5.31407151 -1.09375 1.3203125 C-0.55234375 0.66675781 -0.55234375 0.66675781 0 0 Z " fill="#5D523E" transform="translate(18,73)"/>
<path d="M0 0 C1.32 0 2.64 0 4 0 C3.67 2.31 3.34 4.62 3 7 C1.68 7 0.36 7 -1 7 C-0.67 4.69 -0.34 2.38 0 0 Z " fill="#9C9B9B" transform="translate(56,112)"/>
<path d="M0 0 C-0.66 2.31 -1.32 4.62 -2 7 C-4 6 -4 6 -5 5 C-6.65 6.32 -8.3 7.64 -10 9 C-9.74410214 5.54537888 -8.71373837 4.72618453 -6.125 2.25 C-3 0 -3 0 0 0 Z " fill="#D4CB99" transform="translate(43,22)"/>
<path d="M0 0 C2.93200474 2.85276137 5.64315404 5.65079784 8 9 C4.84526281 8.64947365 3.1766466 8.13480924 0.625 6.1875 C-1 4 -1 4 -0.75 1.75 C-0.5025 1.1725 -0.255 0.595 0 0 Z " fill="#463927" transform="translate(55,149)"/>
<path d="M0 0 C2.33524782 2.25740623 4.18705073 4.2805761 6 7 C5.625 9.1875 5.625 9.1875 5 11 C4.21625 10.01 3.4325 9.02 2.625 8 C1.75875 7.01 0.8925 6.02 0 5 C-0.66 5 -1.32 5 -2 5 C-2 4.34 -2 3.68 -2 3 C-1.34 2.67 -0.68 2.34 0 2 C0 1.34 0 0.68 0 0 Z " fill="#54472E" transform="translate(172,73)"/>
<path d="M0 0 C0.66 0.66 1.32 1.32 2 2 C0.7508258 5.45925163 -0.67527795 8.14693203 -3 11 C-3.36923077 4.6 -3.36923077 4.6 -1.5 1.5625 C-1.005 1.046875 -0.51 0.53125 0 0 Z " fill="#3A2F24" transform="translate(17,89)"/>
<path d="M0 0 C1.65 0 3.3 0 5 0 C4.01 0.495 4.01 0.495 3 1 C3 1.66 3 2.32 3 3 C3.66 3.33 4.32 3.66 5 4 C2.35261084 5.4606285 1.10551666 6 -2 6 C-2 5.34 -2 4.68 -2 4 C-2.66 3.67 -3.32 3.34 -4 3 C-2.68 2.34 -1.36 1.68 0 1 C0 0.67 0 0.34 0 0 Z " fill="#B49F70" transform="translate(86,171)"/>
<path d="M0 0 C0.66 0.99 1.32 1.98 2 3 C0.35 4.98 -1.3 6.96 -3 9 C-4.32 8.67 -5.64 8.34 -7 8 C-6.21625 7.236875 -5.4325 6.47375 -4.625 5.6875 C-1.92742283 3.09108195 -1.92742283 3.09108195 0 0 Z " fill="#41311F" transform="translate(121,154)"/>
<path d="M0 0 C1.98 1.65 3.96 3.3 6 5 C5.67 6.32 5.34 7.64 5 9 C3.02 6.69 1.04 4.38 -1 2 C-0.67 1.34 -0.34 0.68 0 0 Z " fill="#4A3D2C" transform="translate(7,101)"/>
<path d="M0 0 C3.25 -0.3125 3.25 -0.3125 7 0 C9.4375 2.5 9.4375 2.5 11 5 C8.03 5 5.06 5 2 5 C2 4.34 2 3.68 2 3 C2.99 2.67 3.98 2.34 5 2 C3.35 1.67 1.7 1.34 0 1 C0 0.67 0 0.34 0 0 Z " fill="#6C6045" transform="translate(147,34)"/>
<path d="M0 0 C1.45742463 -0.08096803 2.91612807 -0.13917774 4.375 -0.1875 C5.18710938 -0.22230469 5.99921875 -0.25710937 6.8359375 -0.29296875 C7.55007812 -0.19628906 8.26421875 -0.09960938 9 0 C9.66 0.99 10.32 1.98 11 3 C10.21625 3.144375 9.4325 3.28875 8.625 3.4375 C6.03578982 3.87798925 6.03578982 3.87798925 4 5 C4 3.68 4 2.36 4 1 C2.68 0.67 1.36 0.34 0 0 Z " fill="#534937" transform="translate(135,26)"/>
<path d="M0 0 C1.258125 -0.020625 2.51625 -0.04125 3.8125 -0.0625 C4.52019531 -0.07410156 5.22789063 -0.08570313 5.95703125 -0.09765625 C8 0 8 0 11 1 C11 1.66 11 2.32 11 3 C8.36 3 5.72 3 3 3 C3 2.34 3 1.68 3 1 C2.01 0.67 1.02 0.34 0 0 Z " fill="#C2AE78" transform="translate(116,178)"/>
<path d="M0 0 C0.33 0.66 0.66 1.32 1 2 C0.01 3.485 0.01 3.485 -1 5 C-0.67 5.66 -0.34 6.32 0 7 C-1.96466413 8.06775224 -3.96855359 9.06553465 -6 10 C-6.66 9.67 -7.32 9.34 -8 9 C-5.36 6.03 -2.72 3.06 0 0 Z " fill="#3D2D1D" transform="translate(136,149)"/>
<path d="M0 0 C1.32 0.33 2.64 0.66 4 1 C3.67 2.65 3.34 4.3 3 6 C2.34 5.34 1.68 4.68 1 4 C0.67 4.66 0.34 5.32 0 6 C-0.99 6 -1.98 6 -3 6 C-3 4.35 -3 2.7 -3 1 C-2.67 1.66 -2.34 2.32 -2 3 C-1.34 3 -0.68 3 0 3 C0 2.01 0 1.02 0 0 Z " fill="#BBBBBB" transform="translate(145,112)"/>
<path d="M0 0 C1.65 0 3.3 0 5 0 C4.01 0.33 3.02 0.66 2 1 C1.67 2.98 1.34 4.96 1 7 C1.66 7 2.32 7 3 7 C3 7.66 3 8.32 3 9 C1.68 9 0.36 9 -1 9 C-0.67 6.03 -0.34 3.06 0 0 Z " fill="#AFAFAF" transform="translate(34,110)"/>
<path d="M0 0 C0.99 0.33 1.98 0.66 3 1 C3 3.31 3 5.62 3 8 C2.34 8 1.68 8 1 8 C0.01 5.69 -0.98 3.38 -2 1 C-1.34 0.67 -0.68 0.34 0 0 Z " fill="#4E432A" transform="translate(175,91)"/>
<path d="M0 0 C-0.33 1.65 -0.66 3.3 -1 5 C-2.32 5.33 -3.64 5.66 -5 6 C-4.34 5.34 -3.68 4.68 -3 4 C-5.97 3.505 -5.97 3.505 -9 3 C-6.31795079 0.31795079 -3.73391546 0 0 0 Z " fill="#6B6048" transform="translate(67,18)"/>
<path d="M0 0 C2.75 -0.25 2.75 -0.25 6 0 C8.375 2 8.375 2 10 4 C6.7 3.34 3.4 2.68 0 2 C0 1.34 0 0.68 0 0 Z " fill="#3E3123" transform="translate(34,148)"/>
<path d="M0 0 C0.66 0 1.32 0 2 0 C1.38461538 6.52307692 1.38461538 6.52307692 -0.5625 8.9375 C-1.036875 9.288125 -1.51125 9.63875 -2 10 C-2.66 9.67 -3.32 9.34 -4 9 C-2.68 6.03 -1.36 3.06 0 0 Z " fill="#372A18" transform="translate(152,137)"/>
<path d="M0 0 C1.98 0.495 1.98 0.495 4 1 C3.01 1 2.02 1 1 1 C1 2.98 1 4.96 1 7 C1.66 7 2.32 7 3 7 C3 7.66 3 8.32 3 9 C1.68 9 0.36 9 -1 9 C-1.125 2.25 -1.125 2.25 0 0 Z " fill="#B0B0B0" transform="translate(79,110)"/>
<path d="M0 0 C0.33 0 0.66 0 1 0 C1.33 4.29 1.66 8.58 2 13 C1.34 13 0.68 13 0 13 C-2.21474076 7.95531271 -1.85072153 5.14089313 0 0 Z " fill="#625440" transform="translate(11,58)"/>
<path d="M0 0 C0.33 0.66 0.66 1.32 1 2 C1.66 2 2.32 2 3 2 C2.34 3.65 1.68 5.3 1 7 C-0.65 5.35 -2.3 3.7 -4 2 C-2.68 1.34 -1.36 0.68 0 0 Z " fill="#C2AE7B" transform="translate(44,146)"/>
<path d="M0 0 C0.99 0 1.98 0 3 0 C3 1.32 3 2.64 3 4 C2.01 4 1.02 4 0 4 C0.33 4.99 0.66 5.98 1 7 C0.01 6.67 -0.98 6.34 -2 6 C-1.125 1.125 -1.125 1.125 0 0 Z " fill="#A6A6A6" transform="translate(138,112)"/>
<path d="M0 0 C0.33 0.99 0.66 1.98 1 3 C-1.97 2.67 -4.94 2.34 -8 2 C-8 1.34 -8 0.68 -8 0 C-5.13822943 -1.43088528 -3.06624227 -0.59991697 0 0 Z " fill="#3D3022" transform="translate(28,136)"/>
<path d="M0 0 C0.66 0.33 1.32 0.66 2 1 C-0.52788007 3.79872437 -2.20411134 5.45773019 -6 6 C-4.98545548 3.4636387 -4.3146444 2.20648539 -2 0.6875 C-1.34 0.460625 -0.68 0.23375 0 0 Z " fill="#463824" transform="translate(169,133)"/>
<path d="M0 0 C1.98 0.495 1.98 0.495 4 1 C3.34 2.98 2.68 4.96 2 7 C1.01 6.67 0.02 6.34 -1 6 C-0.67 4.02 -0.34 2.04 0 0 Z " fill="#595858" transform="translate(52,112)"/>
<path d="M0 0 C0.33 0 0.66 0 1 0 C0.67 2.64 0.34 5.28 0 8 C-0.66 7.01 -1.32 6.02 -2 5 C-2.66 5.99 -3.32 6.98 -4 8 C-4 6.35 -4 4.7 -4 3 C-2.68 2.67 -1.36 2.34 0 2 C0 1.34 0 0.68 0 0 Z " fill="#C1C1C1" transform="translate(43,110)"/>
<path d="M0 0 C-0.66 1.65 -1.32 3.3 -2 5 C-2.99 5 -3.98 5 -5 5 C-5 4.34 -5 3.68 -5 3 C-5.66 2.67 -6.32 2.34 -7 2 C-2.25 0 -2.25 0 0 0 Z " fill="#AE9E6B" transform="translate(137,147)"/>
<path d="M0 0 C0.928125 0.2784375 0.928125 0.2784375 1.875 0.5625 C4.04160178 1.23686176 4.04160178 1.23686176 6 0 C5.67 1.65 5.34 3.3 5 5 C3.35 5 1.7 5 0 5 C0 3.35 0 1.7 0 0 Z " fill="#CCCBCB" transform="translate(104,113)"/>
<path d="M0 0 C1.32 1.32 2.64 2.64 4 4 C3.01 5.32 2.02 6.64 1 8 C-1 5 -1 5 -0.625 2.3125 C-0.41875 1.549375 -0.2125 0.78625 0 0 Z " fill="#D1C58E" transform="translate(164,35)"/>
<path d="M0 0 C0.33 0 0.66 0 1 0 C1.3125 2.25 1.3125 2.25 1 5 C-1.5 7.3125 -1.5 7.3125 -4 9 C-2.94124926 5.59687262 -1.99097846 2.98646769 0 0 Z " fill="#BDAE7D" transform="translate(171,109)"/>
<path d="M0 0 C0 0.33 0 0.66 0 1 C-1.051875 1.0825 -2.10375 1.165 -3.1875 1.25 C-7.27047209 2.05320762 -9.0122727 3.19334709 -12 6 C-9.51338724 -0.92699268 -6.80769872 -0.10980159 0 0 Z " fill="#CCBF8C" transform="translate(128,63)"/>
<path d="M0 0 C0.66 0 1.32 0 2 0 C2 1.65 2 3.3 2 5 C3.65 5 5.3 5 7 5 C7 5.33 7 5.66 7 6 C5.0085944 6.38133299 3.00720923 6.71325582 1 7 C0 6 0 6 -0.0625 2.9375 C-0.041875 1.968125 -0.02125 0.99875 0 0 Z " fill="#372C23" transform="translate(96,63)"/>
<path d="M0 0 C0.66 0 1.32 0 2 0 C1.67 1.98 1.34 3.96 1 6 C-0.32 6.33 -1.64 6.66 -3 7 C-2.01 4.69 -1.02 2.38 0 0 Z " fill="#1B1108" transform="translate(137,148)"/>
<path d="M0 0 C0 1.65 0 3.3 0 5 C-1.32 5 -2.64 5 -4 5 C-4 3.68 -4 2.36 -4 1 C-1 0 -1 0 0 0 Z " fill="#545353" transform="translate(84,110)"/>
</svg>
