<?xml version="1.0" encoding="UTF-8"?>
<svg xmlns="http://www.w3.org/2000/svg" version="1.1" viewBox="0 0 120 120">
  <defs>
    <style>
      .cls-1 {
        fill: #cfcfff;
      }

      .cls-2 {
        fill: #7bd681;
      }

      .cls-3 {
        fill: #fff;
      }

      .cls-4 {
        fill: #ed524e;
      }

      .cls-5 {
        opacity: .2;
      }

      .cls-6 {
        fill: #e9e9ff;
      }

      .cls-7 {
        fill: #4f5d99;
      }

      .cls-8 {
        fill: #70c1f9;
      }

      .cls-9 {
        fill: #28892d;
      }

      .cls-10 {
        fill: #fdc72e;
      }
    </style>
  </defs>
  <!-- Generator: Adobe Illustrator 28.6.0, SVG Export Plug-In . SVG Version: 1.2.0 Build 709)  -->
  <g>
    <g id="Layer_1">
      <g>
        <g>
          <path class="cls-8" d="M60.2,55.2l-7.7-2c-.4-1.3-.9-2.6-1.6-3.8l4-6.9c.3-.4.2-1-.2-1.4l-5.3-5.3c-.4-.4-1-.5-1.4-.2l-6.9,4-.6-.3c-.6-.3-1.2-.6-1.9-.8-.4-.2-.8-.3-1.2-.4l-2-7.7c-.1-.5-.6-.8-1.1-.8h-7.5c-.5,0-1,.3-1.1.8h0c0,.1-.2,1-.2,1l-.3,1.3-1.5,5.5c-1.3.4-2.6,1-3.8,1.6l-6.9-4c-.4-.3-1-.2-1.4.2l-3.4,3.4-1.2,1.2-.7.7c-.4.4-.4.9-.2,1.4l3.6,6.3h0s.4.6.4.6c0,0,0,.1,0,.2-.6,1.1-1.1,2.4-1.5,3.6l-7.7,2C.4,55.3,0,55.7,0,56.2v7.5c0,.6.4,1,.9,1.1l7.7,2c.4,1.3.9,2.6,1.6,3.8l-4,6.9c-.3.4-.2,1,.2,1.4l5.3,5.3c.4.4,1,.4,1.4.2l6.9-4c.2.1.4.2.6.3.6.3,1.3.6,1.9.8.4.1.8.3,1.2.4l2,7.8c.1.5.6.8,1.1.8h7.5c.5,0,1-.3,1.1-.8l2-7.8c1.3-.4,2.6-.9,3.8-1.6h0s1,.6,1,.6l.6.3,3.7,2.2,1.6,1c.1,0,.3.1.4.2.3,0,.7,0,.9-.3,0,0,0,0,0,0l4.6-4.6.7-.7c.4-.4.4-.9.2-1.4l-3.7-6.2-.4-.7c0,0,0-.1,0-.2.6-1.1,1.1-2.3,1.5-3.6l7.7-2c.5-.1.9-.6.9-1.1v-7.5c0-.5-.4-1-.9-1.1Z"/>
          <circle class="cls-7" cx="30.5" cy="60" r="14.1"/>
          <circle class="cls-3" cx="30.5" cy="60" r="11"/>
        </g>
        <g>
          <path class="cls-7" d="M100.8,16.2v87.6c0,4.6-3.7,8.3-8.3,8.3h-53.6c-4.6,0-8.3-3.7-8.3-8.3V16.2c0-4.6,3.7-8.3,8.3-8.3h53.6c4.6,0,8.3,3.7,8.3,8.3Z"/>
          <path class="cls-6" d="M94.9,17.9v84.2c0,1.4-.7,2.6-1.8,3.4,0,0,0,0,0,0-.7.5-1.4.7-2.3.7h-50.3c-2.3,0-4.2-1.9-4.2-4.1V17.9c0-2.3,1.9-4.1,4.2-4.1h20.1c.7,0,1.3.6,1.3,1.3,0,1.5.8,2.9,2.1,3.6,0,0,.1,0,.2,0,.2.1.5.2.7.2.3,0,.6,0,.8,0s.6,0,.8,0c1.8-.4,2.9-2.1,2.9-3.9s0-.5.2-.7h0c0,0,0,0,.1-.1.2-.3.6-.4,1-.4h20.1c2.3,0,4.1,1.9,4.1,4.1Z"/>
          <g>
            <g>
              <path class="cls-1" d="M67.6,82.4v1.6c0,.4-.3.7-.7.7h-21.8c-.4,0-.7-.3-.7-.7v-1.6c0-.4.3-.7.7-.7h21.8c.4,0,.7.3.7.7Z"/>
              <path class="cls-1" d="M86.9,82.4v1.6c0,.4-.3.7-.7.7h-14c-.4,0-.7-.3-.7-.7v-1.6c0-.4.3-.7.7-.7h14c.4,0,.7.3.7.7Z"/>
            </g>
            <g>
              <path class="cls-2" d="M77.2,93v6.4c0,1-.8,1.8-1.8,1.8h-19.5c-1,0-1.8-.8-1.8-1.8v-6.4c0-1,.8-1.8,1.8-1.8h19.5c1,0,1.8.8,1.8,1.8Z"/>
              <path class="cls-9" d="M72.7,95.6v1.3c0,.4-.3.6-.6.6h-12.9c-.4,0-.6-.3-.6-.6v-1.3c0-.4.3-.6.6-.6h12.9c.4,0,.6.3.6.6Z"/>
            </g>
          </g>
          <g>
            <path class="cls-4" d="M55.2,25.6v12.1c0,.6-.5,1.1-1.1,1.1h-12.1c-.6,0-1.1-.5-1.1-1.1v-12.1c0-.6.5-1.1,1.1-1.1h12.1c.6,0,1.1.5,1.1,1.1Z"/>
            <path class="cls-10" d="M72.8,25.6v12.1c0,.6-.5,1.1-1.1,1.1h-12.1c-.6,0-1.1-.5-1.1-1.1v-12.1c0-.6.5-1.1,1.1-1.1h12.1c.6,0,1.1.5,1.1,1.1Z"/>
            <path class="cls-8" d="M90.4,25.6v12.1c0,.6-.5,1.1-1.1,1.1h-12.1c-.6,0-1.1-.5-1.1-1.1v-12.1c0-.6.5-1.1,1.1-1.1h12.1c.6,0,1.1.5,1.1,1.1Z"/>
          </g>
          <g>
            <path class="cls-2" d="M72.8,43.1v12.1c0,.6-.5,1.1-1.1,1.1h-12.1c-.6,0-1.1-.5-1.1-1.1v-12.1c0-.6.5-1.1,1.1-1.1h12.1c.6,0,1.1.5,1.1,1.1Z"/>
            <path class="cls-1" d="M90.4,43.1v12.1c0,.6-.5,1.1-1.1,1.1h-12.1c-.6,0-1.1-.5-1.1-1.1v-12.1c0-.6.5-1.1,1.1-1.1h12.1c.6,0,1.1.5,1.1,1.1Z"/>
          </g>
          <g>
            <path class="cls-10" d="M72.8,60.6v12.1c0,.6-.5,1.1-1.1,1.1h-12.1c-.6,0-1.1-.5-1.1-1.1v-12.1c0-.6.5-1.1,1.1-1.1h12.1c.6,0,1.1.5,1.1,1.1Z"/>
            <path class="cls-4" d="M90.4,60.6v12.1c0,.6-.5,1.1-1.1,1.1h-12.1c-.6,0-1.1-.5-1.1-1.1v-12.1c0-.6.5-1.1,1.1-1.1h12.1c.6,0,1.1.5,1.1,1.1Z"/>
          </g>
          <g class="cls-5">
            <path class="cls-3" d="M86.8,106.3h-25.2L36.3,30.2v-12.3c0-2.3,1.9-4.1,4.2-4.1h15.5l30.9,92.5Z"/>
            <path class="cls-3" d="M94.9,89.8v12.3c0,1.4-.7,2.6-1.8,3.4,0,0,0,0,0,0l-29-86.9c.2.1.5.2.7.2.3,0,.6,0,.8,0s.6,0,.8,0c1.8-.4,2.9-2.1,2.9-3.9s0-.5.2-.7h0c0,0,0,0,.1-.1l25.2,75.6Z"/>
          </g>
        </g>
        <g>
          <path class="cls-4" d="M119.5,89.8l-4.9-1.3c-.2-.8-.6-1.6-1-2.4l2.5-4.3c.2-.3.1-.6-.1-.9l-3.3-3.3c-.2-.2-.6-.3-.9-.1l-4.4,2.5-.4-.2c-.4-.2-.8-.4-1.2-.5-.3-.1-.5-.2-.8-.3l-1.3-4.9c0-.3-.4-.5-.7-.5h-4.7c-.3,0-.6.2-.7.5h0c0,0-.1.6-.1.6l-.2.8-.9,3.5c-.8.3-1.6.6-2.4,1l-4.3-2.5c-.3-.2-.6-.1-.9.1l-2.1,2.1-.8.8-.4.4c-.2.2-.3.6-.1.9l2.3,4h0s.2.4.2.4c0,0,0,0,0,.1-.4.7-.7,1.5-.9,2.3l-4.9,1.3c-.3,0-.5.4-.5.7v4.7c0,.4.2.6.5.7l4.9,1.3c.2.8.6,1.6,1,2.4l-2.5,4.4c-.2.3-.1.6.1.9l3.3,3.3c.2.2.6.3.9.1l4.3-2.5c.1,0,.3.1.4.2.4.2.8.4,1.2.5.2,0,.5.2.8.3l1.3,4.9c0,.3.4.5.7.5h4.7c.3,0,.6-.2.7-.5l1.3-4.9c.8-.3,1.6-.6,2.4-1h0s.6.4.6.4l.4.2,2.3,1.4,1,.6c0,0,.2,0,.3.1.2,0,.4,0,.6-.2,0,0,0,0,0,0l2.9-2.9.4-.4c.2-.2.3-.6.1-.9l-2.3-3.9-.2-.4s0,0,0-.1c.4-.7.7-1.5.9-2.2l4.9-1.3c.3,0,.5-.4.5-.7v-4.7c0-.3-.2-.6-.5-.7Z"/>
          <circle class="cls-7" cx="100.7" cy="92.8" r="8.9"/>
          <circle class="cls-3" cx="100.7" cy="92.8" r="7"/>
        </g>
      </g>
    </g>
  </g>
</svg>