<svg width="60" height="58" viewBox="0 0 60 58" fill="none" xmlns="http://www.w3.org/2000/svg">
<path d="M54.5455 57.4646H44.8295L45.5114 49.2828H40.7386L40.0568 57.4646H19.9432L19.2614 49.2828H14.4886L15.1705 57.4646H5.45455L0 22.0101L13.6364 0.191895H46.3636L60 22.0101L54.5455 57.4646ZM43.6364 11.101H34.8701L35.4545 15.1919H24.5455L25.1299 11.101H16.3636L10.9091 22.0101L13.6364 43.8283H46.3636L49.0909 22.0101L43.6364 11.101ZM38.8636 36.5873C38.1106 36.5873 37.5 34.3162 37.5 31.5146C37.5 28.713 38.1106 26.4419 38.8636 26.4419C39.6167 26.4419 40.2273 28.713 40.2273 31.5146C40.2273 34.3162 39.6167 36.5873 38.8636 36.5873ZM21.6477 37.0101C20.8947 37.0101 20.2841 34.7389 20.2841 31.9373C20.2841 29.1358 20.8947 26.8646 21.6477 26.8646C22.4008 26.8646 23.0114 29.1358 23.0114 31.9373C23.0114 34.7389 22.4008 37.0101 21.6477 37.0101Z" fill="#444444"/>
</svg>
