<svg width="100" height="100" viewBox="0 0 100 100" fill="none" xmlns="http://www.w3.org/2000/svg">
<path d="M73.1253 62.2888L75.9564 55.1296H84.1308L80.2514 44.2696L85.1032 32L98.9999 68.8972H88.7516L86.3769 62.2888H73.1253Z" fill="#3D3D3D"/>
<path d="M64.382 68.8973L79.2588 32L69.396 32L59.2195 55.8439L51.9829 32.0001H44.4019L36.6318 55.8439L31.1522 44.9787L26.1933 60.2562L31.228 68.8973H40.9342L47.9557 47.5145L54.6503 68.8973H64.382Z" fill="#706CF5"/>
<path d="M10.362 56.231H16.437C18.2772 56.231 19.9158 56.0256 21.3529 55.6149L22.9239 50.7747L27.3148 37.2472C26.9802 36.7169 26.5983 36.2155 26.1689 35.7431C23.9145 33.2477 20.616 32 16.2734 32H1V68.8972H10.362V56.231ZM18.4031 40.4886C19.2837 41.3748 19.724 42.5608 19.724 44.0466C19.724 45.5439 19.3367 46.7313 18.5623 47.609C17.7134 48.5842 16.1501 49.0718 13.8727 49.0718H10.362V39.1591H13.8985C16.0211 39.1591 17.5226 39.6023 18.4031 40.4886Z" fill="#3D3D3D"/>
</svg>
