<svg xmlns="http://www.w3.org/2000/svg" width="120" height="120" viewBox="0 0 120 120">
  <g id="Group_5010" data-name="Group 5010" transform="translate(-6846 -3322)">
    <rect id="Rectangle_1476" data-name="Rectangle 1476" width="120" height="120" transform="translate(6846 3322)" fill="none"/>
    <g id="Group_5011" data-name="Group 5011" transform="translate(-246 -219.756)">
      <g id="Group_5001" data-name="Group 5001" transform="translate(7097 3568)">
        <g id="Group_4959" data-name="Group 4959" transform="translate(0.001)">
          <g id="rails-1" transform="translate(0 0)">
            <path id="Path_5660" data-name="Path 5660" d="M7,72.687H45.315S37.992,39.27,62.242,25.739c5.287-2.571,22.116-12.174,49.664,8.2.873-.727,1.7-1.31,1.7-1.31S88.383,7.454,60.3,10.267C46.188,11.528,28.825,24.381,18.64,41.356S7,72.687,7,72.687Z" transform="translate(-3.605 -5.175)" fill="#c00"/>
            <path id="Path_5661" data-name="Path 5661" d="M7,72.687H45.315S37.992,39.27,62.242,25.739c5.287-2.571,22.116-12.174,49.664,8.2.873-.727,1.7-1.31,1.7-1.31S88.383,7.454,60.3,10.267C46.188,11.528,28.825,24.381,18.64,41.356S7,72.687,7,72.687Z" transform="translate(-3.605 -5.175)" fill="#c00"/>
            <path id="Path_5662" data-name="Path 5662" d="M7,70.551H45.315S37.992,37.134,62.242,23.6c5.287-2.571,22.116-12.174,49.664,8.2.873-.727,1.7-1.31,1.7-1.31S88.383,5.318,60.3,8.131C46.14,9.392,28.777,22.245,18.592,39.22S7,70.551,7,70.551Zm79.831-59.7.194-3.25a23.717,23.717,0,0,0-4.7-1.7l-.194,3.2C83.727,9.635,85.279,10.217,86.831,10.847Z" transform="translate(-3.605 -3.038)" fill="#c00"/>
            <path id="Path_5663" data-name="Path 5663" d="M78.619,18.091l-.194,3.056a27.046,27.046,0,0,1,4.8.582l.194-3.007A34.345,34.345,0,0,0,78.619,18.091ZM60.674,2.959h.485L60.189,0a38.7,38.7,0,0,0-4.656.291l.922,2.862A40.945,40.945,0,0,1,60.674,2.959ZM63,20.807l1.116,3.347a30.684,30.684,0,0,1,4.22-1.7l-1.067-3.2A35.188,35.188,0,0,0,63,20.807ZM40.983,8.051,38.8,4.7c-1.213.631-2.474,1.31-3.783,2.086l2.231,3.4C38.509,9.409,39.722,8.682,40.983,8.051Zm9.943,21.825,2.328,3.492a26.931,26.931,0,0,1,2.862-3.444l-2.183-3.3a26.83,26.83,0,0,0-3.007,3.25ZM43.893,45.493l3.929,3.1a38.734,38.734,0,0,1,1.019-5.675l-3.492-2.765a46.113,46.113,0,0,0-1.455,5.335ZM22.65,22.456l-3.444-3.007c-1.261,1.213-2.474,2.425-3.589,3.638l3.735,3.2a49.118,49.118,0,0,1,3.3-3.832ZM8,44.135,2.425,42.1C1.5,44.184.485,46.609,0,47.918l5.578,2.037C6.208,48.306,7.227,45.93,8,44.135ZM43.165,57.812a49.27,49.27,0,0,0,.582,6.111l5.82,2.086A64.1,64.1,0,0,1,48.4,59.7Z" transform="translate(0 0)" fill="#c00"/>
          </g>
        </g>
      </g>
    </g>
  </g>
</svg>
