<svg xmlns="http://www.w3.org/2000/svg" width="120" height="120" viewBox="0 0 120 120">
  <g id="Group_5017" data-name="Group 5017" transform="translate(-6846 -3322)">
    <rect id="Rectangle_1476" data-name="Rectangle 1476" width="120" height="120" transform="translate(6846 3322)" fill="none"/>
    <g id="Group_5019" data-name="Group 5019" transform="translate(-398.622 -237)">
      <g id="Group_4999" data-name="Group 4999" transform="translate(7255.796 3564)">
        <g id="Node.js_logo_single_icon" data-name="Node.js_logo single icon" transform="translate(0 0)">
          <path id="Path_5709" data-name="Path 5709" d="M48.764,109.975a8.471,8.471,0,0,1-4.236-1.135L31.064,100.9c-2.042-1.135-1.059-1.513-.378-1.74a23.836,23.836,0,0,0,6.051-2.8,1.131,1.131,0,0,1,.983.076l10.363,6.127a1.3,1.3,0,0,0,1.286,0L89.685,79.341a1.3,1.3,0,0,0,.605-1.059V31.687a1.334,1.334,0,0,0-.605-1.135L49.369,7.331a1.161,1.161,0,0,0-1.21,0L7.918,30.553a1.334,1.334,0,0,0-.605,1.135V78.206a1.207,1.207,0,0,0,.605,1.059l11.043,6.354c5.976,3.026,9.682-.529,9.682-4.085V35.621a1.114,1.114,0,0,1,1.135-1.135h5.068a1.163,1.163,0,0,1,1.135,1.135V81.534c0,8.018-4.387,12.556-11.951,12.556-2.345,0-4.16,0-9.3-2.5L4.136,85.468A8.418,8.418,0,0,1-.1,78.13V31.687A8.418,8.418,0,0,1,4.136,24.35l40.392-23.3a8.862,8.862,0,0,1,8.472,0l40.316,23.3a8.578,8.578,0,0,1,4.236,7.337V78.206a8.418,8.418,0,0,1-4.236,7.337L53,108.84a10.085,10.085,0,0,1-4.236,1.135" transform="translate(0.1 0.025)" fill="#689f63"/>
          <g id="Group_4966" data-name="Group 4966" transform="translate(40.014 33.376)">
            <path id="Path_5710" data-name="Path 5710" d="M74.131,88.652c-17.624,0-21.331-8.094-21.331-14.9a1.114,1.114,0,0,1,1.135-1.135h5.219a1.146,1.146,0,0,1,1.135.983c.756,5.295,3.1,7.942,13.767,7.942,8.472,0,12.1-1.891,12.1-6.429,0-2.572-1.059-4.538-14.22-5.824-11.044-1.059-17.851-3.479-17.851-12.254,0-8.094,6.883-12.934,18.381-12.934,12.934,0,19.288,4.463,20.12,14.069a1.32,1.32,0,0,1-.3.908,1.215,1.215,0,0,1-.832.378H86.233a1.2,1.2,0,0,1-1.135-.908c-1.286-5.6-4.312-7.337-12.556-7.337-9.3,0-10.363,3.253-10.363,5.673,0,2.95,1.286,3.782,13.767,5.446,12.405,1.664,18.229,3.933,18.229,12.632-.076,8.7-7.337,13.767-20.045,13.691" transform="translate(-52.8 -44.1)" fill="#689f63"/>
          </g>
        </g>
      </g>
    </g>
  </g>
</svg>
