<svg xmlns="http://www.w3.org/2000/svg" width="120" height="120" viewBox="0 0 120 120">
  <g id="Group_5016" data-name="Group 5016" transform="translate(-6846 -3322)">
    <rect id="Rectangle_1476" data-name="Rectangle 1476" width="120" height="120" transform="translate(6846 3322)" fill="none"/>
    <g id="Group_5022" data-name="Group 5022" transform="translate(-626.134 -235.833)">
      <g id="Group_4996" data-name="Group 4996" transform="translate(7487.864 3562.833)">
        <g id="golang">
          <g id="Group_4989" data-name="Group 4989" transform="translate(0 0)">
            <path id="Path_5761" data-name="Path 5761" d="M88.629,15.845v2.628A6.311,6.311,0,0,1,84.864,22.8c-1.839.932-2.452,2.289-2.277,4.408a83.609,83.609,0,0,1-.438,16.868,74.5,74.5,0,0,0,.35,15.935,37.6,37.6,0,0,1,.263,6.272c-.438,1.271-1.839,1.865-2.189,3.221-.7,2.373-.088,3.814,2.364,5.34a38.379,38.379,0,0,1-3.5,19.5,24.989,24.989,0,0,1-8.056,9.917c-3.152.424-5.517,2.289-8.144,3.73a32.352,32.352,0,0,1-9.457,1.441c-9.37.254-18.739.763-28.021-1.356-2.8-.678-4.816-2.967-7.706-3.39A27.431,27.431,0,0,1,7.017,87.3c-.876-4.069-1.576-8.222-1.051-12.375,3.765-2.2,3.152-5.17.263-8.476a49.1,49.1,0,0,1,.613-10.765,62.95,62.95,0,0,0-.175-14.07,89.081,89.081,0,0,1-.35-14.494,4.175,4.175,0,0,0-2.364-4.408C.887,21.185-.427,18.727.274,15.337A5.543,5.543,0,0,1,5.966,10.76h.7c4.028,1.441,6.83-.339,9.9-2.882A33.945,33.945,0,0,1,39.942,0h8.231a37.509,37.509,0,0,1,26.8,10.087,4.443,4.443,0,0,0,4.291,1.271,12.46,12.46,0,0,1,1.751-.254C85.564,10.421,87.578,11.692,88.629,15.845Z" transform="translate(-0.09 0.033)" fill="#8ac4e5"/>
            <path id="Path_5762" data-name="Path 5762" d="M26.042,125.731c.146,1.9-1.755,1.462-2.559,2.267h-3a.255.255,0,0,0-.073-.146c-.8-.658-2.486-.366-2.413-1.828,0-1.389,1.1-2.267,2.267-2.925C22.532,123.026,24.068,124.854,26.042,125.731Z" transform="translate(-2 -17.998)" fill="#b6937f"/>
            <path id="Path_5763" data-name="Path 5763" d="M66.385,43.541c-6-.146-11.04-4.753-11.187-11.845a9.6,9.6,0,0,1,10.09-9.8c5.411.073,10.6,5.045,10.748,11.991A9.786,9.786,0,0,1,66.385,43.541Z" transform="translate(-3.814 -2.565)" fill="#dfdddb"/>
            <path id="Path_5764" data-name="Path 5764" d="M38.319,31.816c0,6.727-4.826,11.7-11.187,11.625-4.972,0-9.359-4.533-9.432-9.651,0-6.142,5.337-12.137,10.748-11.991C33.566,21.945,38.977,25.455,38.319,31.816Z" transform="translate(-1.291 -2.553)" fill="#dfdddb"/>
            <path id="Path_5765" data-name="Path 5765" d="M51.212,49.4a6.4,6.4,0,0,1,3.51,2.34c1.389,1.535,1.024,3.363-.877,4.314-.8.366-1.755.585-2.632.877a58.654,58.654,0,0,1-7.165-.219c-.439-.146-.951-.292-1.389-.439C39.879,55.03,39.586,52.4,42,50.643a4.745,4.745,0,0,1,2.559-1.1c.8,2.486,1.535,3.144,3.729,2.925C50.334,52.325,50.846,51.813,51.212,49.4Z" transform="translate(-3.591 -7.023)" fill="#b6937f"/>
            <path id="Path_5766" data-name="Path 5766" d="M52.691,48.97c1.17,2.486.8,3-2.559,3.656-3.144.585-4.826-.951-4.094-3.583C48.085,47.434,50.205,47.361,52.691,48.97Z" transform="translate(-5.042 -6.969)" fill="#020202"/>
            <path id="Path_5767" data-name="Path 5767" d="M45.4,59.148a8.472,8.472,0,0,1,7.165.219c.658,2.34-.366,3.729-2.778,3.729a13.344,13.344,0,0,1-2.925-.366C44.742,62.146,45.619,60.391,45.4,59.148Z" transform="translate(-4.999 -8.554)" fill="#dedddb"/>
            <path id="Path_5768" data-name="Path 5768" d="M78.588,122.7c.951.877,2.34,1.682,1.9,3.071s-2.047,1.462-3.29,1.609c-1.828.219-3.729.073-4.9-1.755C74.2,124.232,75.956,122.551,78.588,122.7Z" transform="translate(-7.753 -17.888)" fill="#b79380"/>
            <path id="Path_5769" data-name="Path 5769" d="M93.148,78.6c2.559,1.974,2.705,5.484.366,7.238a2.053,2.053,0,0,1-2.486-1.9C90.443,81.232,91.174,79.55,93.148,78.6Z" transform="translate(-9.873 -11.225)" fill="#b69380"/>
            <path id="Path_5770" data-name="Path 5770" d="M6.479,85.838A4.457,4.457,0,0,1,6.845,78.6c1.828.951,2.925,4.241,1.9,6A2.328,2.328,0,0,1,6.479,85.838Z" transform="translate(-1.354 -11.225)" fill="#b69380"/>
            <path id="Path_5771" data-name="Path 5771" d="M94.374,19.1c-.146,1.024-.8,2.12-1.609,1.9-1.1-.219-1.389-1.682-1.682-2.778-.219-.8.439-1.1,1.17-1.024C93.351,17.415,94.228,17.854,94.374,19.1Z" transform="translate(-9.93 -4.596)" fill="#3f8bbf"/>
            <path id="Path_5772" data-name="Path 5772" d="M7.972,17.3c.658.146,1.462.439,1.243,1.1C8.85,19.42,8.85,20.956,7.534,21.1c-.877.073-1.609-.877-1.535-1.974C6,17.885,6.949,17.519,7.972,17.3Z" transform="translate(-1.677 -4.627)" fill="#3e8abf"/>
            <path id="Path_5773" data-name="Path 5773" d="M63.6,35.468A3.974,3.974,0,0,1,67.694,31.3a4.2,4.2,0,1,1,.073,8.408A4.011,4.011,0,0,1,63.6,35.468Z" transform="translate(-6.808 -4.4)" fill="#111110"/>
            <path id="Path_5774" data-name="Path 5774" d="M30.614,39.707A4.259,4.259,0,0,1,26.3,35.467,4.059,4.059,0,0,1,30.394,31.3a4.206,4.206,0,1,1,.219,8.408Z" transform="translate(-2.858 -4.4)" fill="#111010"/>
            <path id="Path_5775" data-name="Path 5775" d="M67.114,32.8c1.17.073,1.609.512,1.609,1.389a1.349,1.349,0,0,1-1.243,1.316,1.25,1.25,0,0,1-1.389-1.316A1.064,1.064,0,0,1,67.114,32.8Z" transform="translate(-7.937 -4.871)" fill="#f0f0ef"/>
            <path id="Path_5776" data-name="Path 5776" d="M34.578,34.043c-.073.877-.512,1.462-1.389,1.462A1.238,1.238,0,0,1,31.8,34.116,1.155,1.155,0,0,1,32.97,32.8,1.43,1.43,0,0,1,34.578,34.043Z" transform="translate(-3.853 -4.871)" fill="#ededec"/>
          </g>
        </g>
      </g>
    </g>
  </g>
</svg>
