<?xml version="1.0" encoding="UTF-8"?>
<svg id="Layer_1" data-name="Layer 1" xmlns="http://www.w3.org/2000/svg" version="1.1" viewBox="0 0 2500 1309">
  <defs>
    <style>
      .cls-1 {
        fill: #8993be;
      }

      .cls-1, .cls-2 {
        stroke-width: 0px;
      }

      .cls-2 {
        fill: #232531;
        fill-rule: evenodd;
      }
    </style>
  </defs>
  <ellipse class="cls-1" cx="1250" cy="650.7" rx="1250" ry="650.7"/>
  <path class="cls-2" d="M351,1036l137-693.5h316.8c137,8.6,205.5,77.1,205.5,196.9,0,205.5-162.7,325.3-308.2,316.8h-154.1l-34.2,179.8h-162.7ZM582.2,727.7l42.8-256.9h111.3c59.9,0,102.7,25.7,102.7,77.1-8.6,145.6-77.1,171.2-154.1,179.8h-102.7ZM978.4,856.2l137-693.5h162.7l-34.2,179.8h154.1c137,8.6,188.4,77.1,171.2,162.7l-59.9,351h-171.2l59.9-316.8c8.6-42.8,8.6-68.5-51.4-68.5h-128.4l-77.1,385.3h-162.7ZM1498.3,1036l137-693.5h316.8c137,8.6,205.5,77.1,205.5,196.9,0,205.5-162.7,325.3-308.2,316.8h-154.1l-34.2,179.8h-162.7ZM1729.4,727.7l42.8-256.9h111.3c59.9,0,102.7,25.7,102.7,77.1-8.6,145.6-77.1,171.2-154.1,179.8h-102.8Z"/>
</svg>