<?xml version="1.0" encoding="UTF-8"?>
<svg id="Layer_1" data-name="Layer 1" xmlns="http://www.w3.org/2000/svg" version="1.1" viewBox="0 0 120 120">
  <defs>
    <style>
      .cls-1 {
        fill: #659ad2;
      }

      .cls-1, .cls-2, .cls-3, .cls-4 {
        stroke-width: 0px;
      }

      .cls-2 {
        fill: #004482;
      }

      .cls-3 {
        fill: #00599c;
      }

      .cls-4 {
        fill: #fff;
      }
    </style>
  </defs>
  <path class="cls-3" d="M112,90c.8-1.4,1.4-3.1,1.4-4.5v-50.9c0-1.5-.5-3.1-1.4-4.5l-52,30,52,30Z"/>
  <path class="cls-2" d="M64.6,118.9l44.1-25.5c1.3-.7,2.4-2,3.3-3.4l-52-30-52,30c.8,1.4,2,2.7,3.3,3.4l44.1,25.5c2.5,1.5,6.7,1.5,9.2,0Z"/>
  <path class="cls-1" d="M112,30c-.8-1.4-2-2.7-3.3-3.4L64.6,1.1c-2.5-1.5-6.7-1.5-9.2,0L11.3,26.6c-2.5,1.5-4.6,5.1-4.6,8v50.9c0,1.5.5,3.1,1.4,4.5l52-30,52-30Z"/>
  <path class="cls-4" d="M60,95.5c-19.6,0-35.5-15.9-35.5-35.5s15.9-35.5,35.5-35.5,24.4,6.8,30.8,17.8l-15.4,8.9c-3.2-5.5-9.1-8.9-15.4-8.9-9.8,0-17.8,8-17.8,17.8s8,17.8,17.8,17.8,12.2-3.4,15.4-8.9l15.4,8.9c-6.3,11-18.1,17.8-30.8,17.8Z"/>
  <polygon class="cls-4" points="95.5 58 91.6 58 91.6 54.1 87.6 54.1 87.6 58 83.7 58 83.7 62 87.6 62 87.6 65.9 91.6 65.9 91.6 62 95.5 62 95.5 58"/>
  <polygon class="cls-4" points="110.4 58 106.4 58 106.4 54.1 102.5 54.1 102.5 58 98.5 58 98.5 62 102.5 62 102.5 65.9 106.4 65.9 106.4 62 110.4 62 110.4 58"/>
</svg>