<svg width="100" height="100" viewBox="0 0 100 100" fill="none" xmlns="http://www.w3.org/2000/svg">
<path fill-rule="evenodd" clip-rule="evenodd" d="M97.3356 57.0262C97.3356 57.0262 94.9517 58.8756 92.8532 58.6691C90.7547 58.4626 91.4137 53.7737 91.4137 53.7737C91.4137 53.7737 91.8662 49.4734 90.6302 49.1121C89.3972 48.7537 87.8757 50.2327 87.8757 50.2327C87.8757 50.2327 85.9838 52.3312 85.0788 55.0066L84.8297 55.0886C84.8297 55.0886 85.1182 50.3967 84.7903 49.3277C84.5443 48.7932 82.2818 48.8357 81.9113 49.7802C81.5408 50.7277 79.7308 57.3086 79.6063 60.0661C79.6063 60.0661 76.0683 63.0696 72.9859 63.5615C69.9004 64.0565 69.1594 62.1221 69.1594 62.1221C69.1594 62.1221 77.5503 59.7776 77.2618 53.0722C76.9764 46.3667 70.4957 48.8478 69.7638 49.3975C69.0531 49.932 65.2662 52.2157 64.1607 58.5416C64.1243 58.7542 64.0575 59.6956 64.0575 59.6956C64.0575 59.6956 60.808 61.873 58.998 62.45C58.998 62.45 64.0575 53.9346 57.8896 50.0687C56.1548 49.0245 54.6428 49.9852 53.7433 50.8673C53.1909 51.4091 61.221 42.6253 59.3685 34.7658C58.4878 31.0244 56.6171 30.6235 54.9013 31.2309C52.2956 32.2574 51.3086 33.7788 51.3086 33.7788C51.3086 33.7788 47.9347 38.6743 47.1512 45.9567C46.3707 53.2361 45.2197 62.0401 45.2197 62.0401C45.2197 62.0401 43.6132 63.6041 42.1342 63.686C40.6522 63.765 41.3112 59.2826 41.3112 59.2826C41.3112 59.2826 42.4622 52.4557 42.3833 51.3016C42.2982 50.1507 42.2162 49.5342 40.8587 49.1242C39.5013 48.7112 38.0193 50.4392 38.0193 50.4392C38.0193 50.4392 34.1138 56.3611 33.7858 57.2661L33.5763 57.6396L33.3728 57.3906C33.3728 57.3906 36.1273 49.3277 33.4973 49.2062C30.8644 49.0817 29.1364 52.0852 29.1364 52.0852C29.1364 52.0852 26.1329 57.1051 26.0084 57.6791L25.8049 57.4331C25.8049 57.4331 27.0379 51.5932 26.7919 50.1507C26.5429 48.7112 25.1884 48.9997 25.1884 48.9997C25.1884 48.9997 23.4604 48.7932 23.008 49.9047C22.5555 51.0162 20.9095 58.3776 20.703 60.7221C20.703 60.7221 16.3845 63.8075 13.545 63.847C10.7086 63.8895 10.9971 62.0492 10.9971 62.0492C10.9971 62.0492 21.4045 58.4869 18.565 51.4535C17.2895 49.6435 15.8105 49.0756 13.7121 49.1151C11.6136 49.1576 9.01096 50.4361 7.32549 54.2201C6.51768 56.024 6.22614 57.7398 6.05911 59.0335C6.05911 59.0335 4.24002 59.4071 3.25304 58.5841C2.26301 57.7611 1.75585 58.5841 1.75585 58.5841C1.75585 58.5841 0.0612735 60.7463 1.74674 61.4023C3.43525 62.0613 6.06519 62.368 6.06519 62.368C6.30814 63.519 7.00966 65.4778 9.06563 67.0357C12.1511 69.3802 18.07 66.8201 18.07 66.8201L20.4964 65.4596C20.4964 65.4596 20.5784 67.6856 22.3489 68.0106C24.1164 68.3355 24.8574 68.0045 27.9429 60.5186C29.7529 56.6921 29.8774 56.8986 29.8774 56.8986C30.0808 56.8561 28.6839 64.178 29.2184 66.152C29.7529 68.129 32.0973 67.9225 32.0973 67.9225C32.0973 67.9225 33.3728 68.1685 34.4023 64.5485C35.4288 60.9286 37.4058 56.9381 37.4058 56.9381C37.6488 56.9381 36.7863 64.424 38.1013 66.811C39.4193 69.198 42.8327 67.6127 42.8327 67.6127C42.8327 67.6127 45.2197 66.4101 45.5902 66.0396C45.5902 66.0396 48.4206 68.4509 52.4141 68.0136C61.3425 66.2553 64.5191 63.8804 64.5191 63.8804C64.5191 63.8804 66.0527 67.7676 70.8054 68.129C76.2323 68.539 79.1963 65.1255 79.1963 65.1255C79.1963 65.1255 79.1538 67.3455 81.0458 68.129C82.9408 68.9095 84.2133 64.5151 84.2133 64.5151L87.3807 55.7871C87.6692 55.7871 87.8332 61.4631 90.9612 62.368C94.0862 63.273 98.1586 60.2483 98.1586 60.2483C98.1586 60.2483 99.1456 59.7047 98.9816 58.0587C98.8146 56.4127 97.3356 57.0262 97.3356 57.0262ZM14.945 52.9082C16.0535 53.9771 15.6435 56.2791 13.545 57.7186C11.4496 59.1611 10.5021 58.8726 10.5021 58.8726C10.6266 53.9771 13.8366 51.8361 14.945 52.9082ZM55.8731 36.0018C56.5716 39.7038 49.7447 50.7277 49.7447 50.7277C49.8267 48.2587 52.2531 39.9103 52.2531 39.9103C52.2531 39.9103 55.1716 32.2999 55.8731 36.0018ZM49.1251 64.096C49.1251 64.096 48.5906 62.286 50.1121 57.2266C51.6366 52.1672 55.2141 54.1411 55.2141 54.1411C55.2141 54.1411 57.6831 56.0331 55.7486 61.0926C53.8171 66.152 49.1251 64.096 49.1251 64.096ZM69.9399 54.1836C71.6254 51.0982 72.9434 52.7836 72.9434 52.7836C72.9434 52.7836 74.3829 54.3476 72.7369 56.6921C71.0909 59.0366 68.7069 58.8726 68.7069 58.8726C68.7069 58.8726 68.2544 57.2661 69.9399 54.1836Z" fill="#E04E39"/>
<path fill-rule="evenodd" clip-rule="evenodd" d="M86.7759 66.6678V66.0772H87.1505C87.2025 66.0772 87.2544 66.0826 87.3091 66.0881C87.3638 66.0963 87.4158 66.11 87.4595 66.1291C87.506 66.1483 87.5416 66.1756 87.5689 66.2112C87.599 66.2467 87.6127 66.2959 87.6127 66.3561C87.6127 66.4928 87.5717 66.5803 87.4896 66.6159C87.4076 66.6514 87.3009 66.6678 87.1724 66.6678H86.7759ZM86.3301 65.7298V67.9778H86.7759V67.0179H87.0548L87.6017 67.9778H88.0694L87.4677 66.996C87.5498 66.9878 87.6264 66.9714 87.7002 66.9468C87.7713 66.9222 87.8342 66.8866 87.8861 66.8401C87.9408 66.7936 87.9819 66.7335 88.0119 66.6596C88.0448 66.5858 88.0584 66.4983 88.0584 66.3944C88.0584 66.151 87.9819 65.9787 87.8315 65.8803C87.6783 65.7791 87.4595 65.7298 87.1779 65.7298H86.3301ZM85.6163 66.8565C85.6163 66.6268 85.6546 66.4163 85.7339 66.2248C85.8132 66.0334 85.9199 65.8693 86.0566 65.7298C86.1906 65.5904 86.352 65.481 86.5352 65.4017C86.7212 65.3224 86.9181 65.2841 87.1286 65.2841C87.3365 65.2841 87.5334 65.3224 87.7166 65.4017C87.9026 65.481 88.0612 65.5904 88.1979 65.7298C88.3346 65.8693 88.4413 66.0334 88.5233 66.2248C88.6026 66.4163 88.6437 66.6268 88.6437 66.8565C88.6437 67.0863 88.6026 67.2968 88.5233 67.491C88.4413 67.6824 88.3346 67.852 88.1979 67.9914C88.0612 68.1337 87.9026 68.243 87.7166 68.3223C87.5334 68.4017 87.3365 68.4399 87.1286 68.4399C86.9181 68.4399 86.7212 68.4017 86.5352 68.3223C86.352 68.243 86.1906 68.1337 86.0566 67.9914C85.9199 67.852 85.8132 67.6824 85.7339 67.491C85.6546 67.2968 85.6163 67.0863 85.6163 66.8565ZM85.0667 66.8565C85.0667 67.1656 85.1241 67.4418 85.2362 67.6879C85.3511 67.9368 85.5015 68.1473 85.6902 68.3223C85.8816 68.4974 86.1004 68.6314 86.3492 68.7243C86.5981 68.8173 86.8579 68.8638 87.1286 68.8638C87.4021 68.8638 87.6619 68.8173 87.9108 68.7243C88.1596 68.6314 88.3784 68.4974 88.5698 68.3223C88.7585 68.1473 88.9089 67.9368 89.0238 67.6879C89.1359 67.4418 89.1906 67.1656 89.1906 66.8565C89.1906 66.553 89.1359 66.2768 89.0238 66.0307C88.9089 65.7818 88.7585 65.5712 88.5698 65.3989C88.3784 65.2239 88.1596 65.0899 87.9108 64.9969C87.6619 64.9012 87.4021 64.8547 87.1286 64.8547C86.8579 64.8547 86.5981 64.9012 86.3492 64.9969C86.1004 65.0899 85.8816 65.2239 85.6902 65.3989C85.5015 65.5712 85.3511 65.7818 85.2362 66.0307C85.1241 66.2768 85.0667 66.553 85.0667 66.8565Z" fill="#E04E39"/>
</svg>
