<?xml version="1.0" encoding="UTF-8"?>
<svg id="Layer_1" data-name="Layer 1" xmlns="http://www.w3.org/2000/svg" viewBox="0 0 120 120">
  <defs>
    <style>
      .cls-1 {
        fill: #007acc;
      }

      .cls-1, .cls-2 {
        stroke-width: 0px;
      }

      .cls-2 {
        fill: #fff;
      }
    </style>
  </defs>
  <path class="cls-1" d="M0,60V0h120v120H0"/>
  <path class="cls-2" d="M26.31,60.21v4.89h15.6v44.4h11.07v-44.4h15.6v-4.8c0-2.7,0-4.89-.12-4.95,0-.09-9.51-.12-21.06-.12l-21,.09v4.92l-.09-.03h0ZM96.42,55.2c3.06.72,5.4,2.1,7.5,4.29,1.11,1.2,2.76,3.3,2.88,3.84,0,.18-5.19,3.69-8.34,5.64-.12.09-.6-.42-1.08-1.2-1.56-2.22-3.15-3.18-5.64-3.36-3.6-.24-6,1.65-6,4.8,0,.96.18,1.5.54,2.28.81,1.65,2.31,2.64,6.96,4.68,8.58,3.69,12.3,6.12,14.55,9.6,2.55,3.9,3.12,10.02,1.41,14.61-1.92,5.01-6.6,8.4-13.29,9.51-2.1.36-6.9.3-9.15-.09-4.8-.9-9.39-3.3-12.21-6.39-1.11-1.2-3.24-4.41-3.12-4.62l1.14-.72,4.5-2.61,3.39-1.98.78,1.05c.99,1.56,3.21,3.66,4.5,4.38,3.9,2.01,9.12,1.74,11.7-.6,1.11-1.02,1.59-2.1,1.59-3.6,0-1.38-.21-2.01-.9-3.06-.96-1.32-2.88-2.4-8.28-4.8-6.21-2.64-8.85-4.32-11.31-6.9-1.41-1.56-2.7-3.99-3.3-6-.45-1.74-.6-6-.18-7.71,1.29-6,5.82-10.2,12.3-11.4,2.1-.42,7.05-.24,9.12.3l-.06.06h0Z"/>
</svg>