<!DOCTYPE svg PUBLIC "-//W3C//DTD SVG 1.1//EN" "http://www.w3.org/Graphics/SVG/1.1/DTD/svg11.dtd">
<!-- Uploaded to: SVG Repo, www.svgrepo.com, Transformed by: SVG Repo Mixer Tools -->
<svg height="800px" width="800px" version="1.1" id="Layer_1" xmlns="http://www.w3.org/2000/svg" xmlns:xlink="http://www.w3.org/1999/xlink" viewBox="-51.2 -51.2 614.40 614.40" xml:space="preserve" fill="#44093f" stroke="#44093f" stroke-width="0.00512">
<g id="SVGRepo_bgCarrier" stroke-width="0"/>
<g id="SVGRepo_tracerCarrier" stroke-linecap="round" stroke-linejoin="round" stroke="#CCCCCC" stroke-width="11.264"> <polygon style="fill:#7e4dcb;" points="472.432,293.387 512,293.387 497.469,231.697 459.894,231.697 45.96,231.697 14.531,231.697 0,293.387 39.569,293.387 "/> <g> <polygon style="fill:#262626;" points="454.881,293.387 491.786,293.387 478.233,231.697 443.187,231.697 57.12,231.697 31.969,231.697 18.417,293.387 51.161,293.387 "/> <path style="fill:#262626;" d="M462.727,242.536c-6.538-45.822-48.929-101.859-95.216-101.859H134.369 c-46.286,0-81.533,60.991-88.071,106.814L462.727,242.536z"/> </g> <path style="fill:#7e4dcb;" d="M46.298,247.491l-9.04,63.36c-4.554,31.918,20.214,60.472,52.456,60.472h82.139 c9.185,0,16.632-7.446,16.632-16.632l0,0c0-12.161,9.859-22.019,22.019-22.019h89.269c12.161,0,22.019,9.858,22.019,22.019l0,0 c0,9.185,7.446,16.632,16.632,16.632h81.731c32.242,0,57.01-28.553,52.456-60.472l-9.04-63.36 c-6.538-45.822-45.778-79.862-92.066-79.862H138.363C92.076,167.628,52.836,201.669,46.298,247.491z"/> <g style="opacity:0.21;"> <path style="fill:#c7c1c7;" d="M371.505,167.628H226.417L48.536,351.658c9.651,11.919,24.396,19.664,41.177,19.664h82.139 c9.185,0,16.632-7.446,16.632-16.632c0-12.161,9.859-22.019,22.019-22.019h89.269c12.161,0,22.019,9.858,22.019,22.019 c0,3.221,0.931,6.218,2.515,8.765l134.304-135.383C445.293,192.38,410.968,167.628,371.505,167.628z"/> </g> <g style="opacity:0.21;"> <path style="fill:#262626;" d="M472.611,310.851l-9.04-63.36c-6.538-45.822-45.779-79.862-92.066-79.862h-36.122 c46.286,0,85.528,34.039,92.066,79.862l9.04,63.36c4.554,31.918-20.214,60.472-52.456,60.472h36.122 C452.396,371.323,477.165,342.769,472.611,310.851z"/> </g> <g style="opacity:0.21;"> <path style="fill:#262626;" d="M37.258,310.851l9.04-63.36c6.538-45.822,45.778-79.862,92.066-79.862h36.122 c-46.286,0-85.528,34.039-92.066,79.862l-9.04,63.36c-4.554,31.918,20.214,60.472,52.456,60.472H89.714 C57.472,371.323,32.704,342.769,37.258,310.851z"/> </g> </g>
<g id="SVGRepo_iconCarrier"> <polygon style="fill:#7e4dcb;" points="472.432,293.387 512,293.387 497.469,231.697 459.894,231.697 45.96,231.697 14.531,231.697 0,293.387 39.569,293.387 "/> <g> <polygon style="fill:#262626;" points="454.881,293.387 491.786,293.387 478.233,231.697 443.187,231.697 57.12,231.697 31.969,231.697 18.417,293.387 51.161,293.387 "/> <path style="fill:#262626;" d="M462.727,242.536c-6.538-45.822-48.929-101.859-95.216-101.859H134.369 c-46.286,0-81.533,60.991-88.071,106.814L462.727,242.536z"/> </g> <path style="fill:#7e4dcb;" d="M46.298,247.491l-9.04,63.36c-4.554,31.918,20.214,60.472,52.456,60.472h82.139 c9.185,0,16.632-7.446,16.632-16.632l0,0c0-12.161,9.859-22.019,22.019-22.019h89.269c12.161,0,22.019,9.858,22.019,22.019l0,0 c0,9.185,7.446,16.632,16.632,16.632h81.731c32.242,0,57.01-28.553,52.456-60.472l-9.04-63.36 c-6.538-45.822-45.778-79.862-92.066-79.862H138.363C92.076,167.628,52.836,201.669,46.298,247.491z"/> <g style="opacity:0.21;"> <path style="fill:#c7c1c7;" d="M371.505,167.628H226.417L48.536,351.658c9.651,11.919,24.396,19.664,41.177,19.664h82.139 c9.185,0,16.632-7.446,16.632-16.632c0-12.161,9.859-22.019,22.019-22.019h89.269c12.161,0,22.019,9.858,22.019,22.019 c0,3.221,0.931,6.218,2.515,8.765l134.304-135.383C445.293,192.38,410.968,167.628,371.505,167.628z"/> </g> <g style="opacity:0.21;"> <path style="fill:#262626;" d="M472.611,310.851l-9.04-63.36c-6.538-45.822-45.779-79.862-92.066-79.862h-36.122 c46.286,0,85.528,34.039,92.066,79.862l9.04,63.36c4.554,31.918-20.214,60.472-52.456,60.472h36.122 C452.396,371.323,477.165,342.769,472.611,310.851z"/> </g> <g style="opacity:0.21;"> <path style="fill:#262626;" d="M37.258,310.851l9.04-63.36c6.538-45.822,45.778-79.862,92.066-79.862h36.122 c-46.286,0-85.528,34.039-92.066,79.862l-9.04,63.36c-4.554,31.918,20.214,60.472,52.456,60.472H89.714 C57.472,371.323,32.704,342.769,37.258,310.851z"/> </g> </g>
</svg>