<?xml version="1.0" encoding="UTF-8"?>
<svg id="Layer_1" xmlns="http://www.w3.org/2000/svg" xmlns:xlink="http://www.w3.org/1999/xlink" viewBox="0 0 120 120">
  <defs>
    <style>
      .cls-1 {
        fill: #fff;
      }

      .cls-2 {
        fill: #ffa829;
      }

      .cls-3 {
        fill: #ffc952;
      }

      .cls-4 {
        fill: #f1543f;
      }

      .cls-5, .cls-6 {
        fill: none;
      }

      .cls-7 {
        fill: #2c72c6;
      }

      .cls-8 {
        clip-path: url(#clippath-1);
      }

      .cls-9, .cls-10 {
        isolation: isolate;
      }

      .cls-11 {
        fill: #f8b64c;
      }

      .cls-12 {
        fill: #3d597a;
      }

      .cls-13 {
        fill: #ff7058;
      }

      .cls-6 {
        stroke: #4385f4;
        stroke-dasharray: 1.09 1.09;
        stroke-miterlimit: 10;
        stroke-width: .73px;
      }

      .cls-14, .cls-10 {
        fill: #4385f4;
      }

      .cls-10, .cls-15 {
        opacity: .5;
      }

      .cls-16 {
        fill: #ffd15c;
      }

      .cls-17 {
        clip-path: url(#clippath);
      }
    </style>
    <clipPath id="clippath">
      <path class="cls-5" d="M62.84,58.38c-.51.27-1.04.51-1.57.73l-.33.07-.32-.13c-.54-.21-1.06-.46-1.57-.73l.85-1.96h2.03l.92,2.03Z"/>
    </clipPath>
    <clipPath id="clippath-1">
      <rect class="cls-5" x="50.73" y="36.29" width="20.36" height=".98"/>
    </clipPath>
  </defs>
  <path class="cls-1" d="M60.12,109.62c-27.4,0-49.69-22.24-49.69-49.59S32.72,10.44,60.12,10.44s49.69,22.24,49.69,49.59-22.29,49.59-49.69,49.59Z"/>
  <path class="cls-14" d="M60.12,11.49c26.81.02,48.53,21.77,48.52,48.58-.02,26.81-21.77,48.53-48.58,48.52-26.81-.02-48.53-21.77-48.52-48.58,0-12.87,5.13-25.21,14.23-34.31,9.1-9.13,21.47-14.25,34.36-14.22M60.13,9.29c-28.05,0-50.78,22.7-50.78,50.68s22.72,50.74,50.77,50.74,50.78-22.7,50.78-50.68S88.16,9.3,60.12,9.3h.01Z"/>
  <path class="cls-6" d="M60.07,107.02c25.98,0,47.04-21.03,47.04-46.97S86.05,13.09,60.07,13.09,13.03,34.11,13.03,60.05s21.06,46.97,47.04,46.97"/>
  <polygon class="cls-13" points="63.82 60.48 58.06 60.48 59.04 58.38 59.89 56.42 61.99 56.42 62.84 58.38 63.82 60.48"/>
  <path class="cls-16" d="M67.48,60.48h-13.09c-.72,0-1.3.58-1.31,1.31v4.25h15.65v-4.25c.05-.67-.46-1.26-1.13-1.3-.04,0-.08,0-.11,0"/>
  <g class="cls-17">
    <rect class="cls-4" x="57.22" y="54.53" width="7.44" height="6.46"/>
  </g>
  <path class="cls-11" d="M71.15,34.66h-20.42c-.43,0-.78.36-.79.79-.02.45.33.83.78.85,0,0,0,0,.01,0h20.42c.43,0,.78-.36.78-.79.02-.45-.33-.83-.78-.85,0,0,0,0,0,0ZM45.23,38.25v2.68c.02,6.36,3.87,12.09,9.75,14.51,3.82,1.57,8.1,1.57,11.91,0,5.88-2.42,9.73-8.15,9.75-14.51v-2.68h-31.42ZM74.04,40.93c0,3.03-1.07,5.97-3.01,8.3-2.49,3-6.18,4.75-10.08,4.77-3.91,0-7.61-1.74-10.08-4.77-1.93-2.34-2.99-5.27-3.01-8.3v-.07h26.12v.07h.07Z"/>
  <path class="cls-16" d="M71.15,36.29v7.06c-.01,6.58-4.07,12.48-10.21,14.84-6.15-2.39-10.2-8.3-10.21-14.9v-6.99h20.42Z"/>
  <g class="cls-8">
    <rect class="cls-3" x="48.91" y="34.47" width="24" height="4.63"/>
  </g>
  <path class="cls-1" d="M60.04,43.73s-.59-.06-.59.46v2.3h3.87v.69c0,.18-.13.34-.32.35-.02,0-.03,0-.05,0h-3.5v2.99h4.23s2.55-.39,2.58-2.99v-3.8h-6.22ZM66.04,40.01h-7.53c-2.72.65-2.78,2.92-2.78,2.92v7.61h2.92v-6.93c0-.34.23-.64.56-.71h6.84v-2.89Z"/>
  <path class="cls-5" d="M84.7,96.43l.04-.03s-.01.01-.04.03ZM89.96,91.65l.03-.03-.03.03ZM94.75,85.92l.02-.03s0,.03-.02.03ZM100.48,73.96h0ZM101.92,67.76h0s0,0,0,0h0ZM101.92,61.08s0-.03,0-.02,0,.01,0,.03h0ZM101.44,54.89v-.04s0,.02,0,.04h0ZM100.01,49.13h0s0,0,0,0ZM98.1,42.93h0ZM59.35,98.16c-3.61.16-7.23-.27-10.7-1.27,1.24-1.6-.81-3.2-2.77-4.74-2.06-1.53-4.12-3.06-4.12-3.07s2.43,2.49,2.19,4.63c-.08.48-.07.98.04,1.46-.56-.26-1.11-.53-1.66-.81,1.46-1.38-.19-3.35-1.76-5.22-1.66-1.89-3.34-3.74-3.34-3.75s1.84,2.88,1.23,4.99c-.16.47-.24.96-.23,1.46-.49-.36-.97-.71-1.43-1.09,1.62-1.14.44-3.4-.73-5.51-1.24-2.15-2.51-4.23-2.51-4.24s1.24,3.14.27,5.14c-.24.44-.41.92-.48,1.42-.4-.43-.8-.86-1.17-1.3,1.74-.89,1.06-3.3.32-5.59-.82-2.32-1.7-4.5-1.69-4.53-.05,0,.66,3.26-.65,5.1-.32.4-.56.86-.73,1.34-.31-.49-.62-.97-.91-1.46,1.85-.64,1.62-3.12,1.29-5.47-.4-2.39-.89-4.64-.89-4.67s.11,3.28-1.49,4.92c-.37.37-.67.8-.9,1.26-.15-.33-.29-.67-.42-1-.11-.26-.2-.52-.3-.78,1.86-.36,2.03-2.69,2.08-4.91,0-2.27-.13-4.42-.15-4.44s-.36,3.05-2.13,4.38c-.41.29-.77.64-1.07,1.04-.18-.7-.36-1.41-.49-2.12,1.85-.05,2.35-2.21,2.71-4.27s.48-4.1.46-4.12-.75,2.77-2.59,3.77c-.44.22-.83.5-1.18.85-.09-.8-.15-1.6-.2-2.4,1.78.21,2.53-1.72,3.14-3.6.38-1.24.69-2.5.94-3.77-.03,0-1.04,2.48-2.88,3.16-.44.14-.86.36-1.23.64.02-.73.05-1.43.11-2.13,0-.17.03-.33.04-.5,1.6.44,2.6-1.27,3.36-2.92.76-1.64,1.31-3.41,1.31-3.41s-1.24,2.19-3.04,2.59c-.42.08-.83.22-1.21.43.15-.93.33-1.86.54-2.79,1.4.57,2.52-.88,3.39-2.32.58-1,1.11-2.03,1.58-3.09,0,0-1.39,1.95-3.1,2.08-.37.01-.74.08-1.09.21.28-.97.59-1.93.93-2.88,1.19.6,2.34-.59,3.28-1.82.66-.9,1.27-1.85,1.82-2.82,0,0-1.51,1.72-3.08,1.6-.29-.03-.59-.01-.88.04.39-.93.8-1.87,1.24-2.8l.08-.18c.99.61,2.13-.36,3.11-1.46.73-.83,1.41-1.7,2.04-2.6-.02,0-1.62,1.6-3.03,1.32-.29-.07-.6-.08-.9-.05.98-2.08,2.07-4.1,3.28-6.06-1.37,2.03-2.58,4-3.66,5.95-.13-.35-.31-.69-.53-.99-.46-.6-.46-1.56-.3-2.42.1-.52.26-1.03.46-1.52-.73,1.17-1.31,2.43-1.74,3.74-.56,1.85-.54,3.6.73,3.82-.51,1.02-.98,2.05-1.41,3.07-.18-.29-.39-.55-.64-.78-.58-.55-.73-1.54-.71-2.38.03-.53.11-1.06.24-1.57-.59,1.26-1.02,2.58-1.28,3.95-.31,1.87-.08,3.62,1.23,3.76-.33.94-.63,1.88-.91,2.82-.22-.24-.46-.45-.73-.63-1.4-.92-1.13-3.72-1.09-3.93-.45,1.35-.71,2.75-.79,4.16-.08,1.93.39,3.69,1.75,3.7v.02c-.18.86-.35,1.73-.49,2.6-.26-.21-.54-.39-.84-.53-1.62-.75-1.7-3.67-1.67-3.89-.29,1.45-.39,2.94-.28,4.41.18,2.02.91,3.8,2.36,3.61-.07.81-.11,1.62-.14,2.44-.31-.19-.64-.34-.98-.45-1.75-.54-2.26-3.42-2.29-3.79-.11,1.55,0,3.11.3,4.63.44,2.08,1.54,3.92,3.01,3.46.04.73.1,1.49.18,2.24-.36-.17-.75-.29-1.14-.36-1.95-.32-2.88-3.37-2.92-3.67.1,1.66.43,3.29.98,4.85.77,2.19,2.23,3.99,3.73,3.19.14.68.3,1.36.48,2.03-.43-.14-.88-.22-1.33-.23-2.12-.06-3.57-3.28-3.62-3.47.35,1.74.94,3.43,1.77,5,1.17,2.22,3.03,3.96,4.49,2.78.23.6.47,1.19.73,1.78-.49-.1-.99-.12-1.49-.07-2.26.25-4.32-3.02-4.35-3.14.64,1.8,1.54,3.49,2.68,5.02,1.62,2.19,3.9,3.77,5.22,2.23.3.5.6.99.92,1.46-.5-.03-1.01.02-1.49.13-2.26.57-4.89-2.51-4.85-2.55.92,1.73,2.11,3.31,3.53,4.67,1.99,1.95,4.55,3.19,5.62,1.46.36.45.78.89,1.19,1.32-.51.05-1.01.17-1.48.36-2.06.87-5.02-1.51-5.28-1.79,1.23,1.56,2.68,2.93,4.31,4.07,2.4,1.65,5.18,2.41,5.96.6.47.38.96.75,1.46,1.11-.51.12-1,.31-1.46.57-1.93,1.14-5.33-.73-5.67-.97,1.53,1.36,3.25,2.48,5.1,3.33,2.74,1.24,5.71,1.51,6.17-.36.55.29,1.12.57,1.69.83-.49.2-.95.47-1.36.79-1.75,1.43-5.53.19-5.95,0,1.8,1.08,3.76,1.88,5.79,2.38,3.02.73,6.1.46,6.25-1.42,3.52,1.03,7.18,1.46,10.84,1.29l.09-.61Z"/>
  <path class="cls-10" d="M36.39,96.22l-.04-.03s.01.01.04.03ZM30.79,91.66l-.03-.03s.01.01.03.03ZM26.22,86.28l-.02-.03.02.03ZM20.24,74.02h0ZM19.1,67.69h0ZM18.86,61.33v-.02.03h0ZM19.44,55.04s0-.04,0-.04,0,.02,0,.04h0ZM20.76,48.84h0ZM22.79,42.79h0s0,0,0,0Z"/>
  <g class="cls-15">
    <path class="cls-14" d="M59.19,97.87c-3.58.16-7.17-.27-10.61-1.27,1.23-1.6-.8-3.19-2.75-4.72l-4.09-3.05s2.41,2.48,2.19,4.61c-.08.48-.07.98.04,1.46-.56-.26-1.09-.53-1.65-.81,1.43-1.37-.19-3.34-1.75-5.21-1.65-1.89-3.31-3.73-3.31-3.74s1.82,2.87,1.22,4.97c-.16.47-.24.96-.23,1.46-.48-.36-.96-.71-1.42-1.09,1.61-1.14.44-3.38-.73-5.49-1.23-2.14-2.49-4.22-2.49-4.22s1.23,3.12.26,5.13c-.24.44-.4.92-.48,1.42-.4-.43-.79-.86-1.17-1.3,1.72-.89,1.05-3.28.32-5.56-.81-2.32-1.69-4.48-1.68-4.52s.65,3.25-.65,5.1c-.32.4-.56.85-.73,1.34-.31-.49-.61-.97-.9-1.46,1.82-.64,1.6-3.11,1.28-5.44-.4-2.38-.89-4.63-.89-4.66s.11,3.28-1.48,4.91c-.37.35-.68.77-.93,1.22-.14-.33-.28-.66-.42-1-.1-.26-.2-.52-.3-.78,1.85-.34,2.01-2.68,2.06-4.9,0-2.26-.13-4.4-.14-4.43s-.36,3.04-2.11,4.38c-.41.28-.76.63-1.06,1.03-.18-.7-.36-1.4-.49-2.11,1.82-.05,2.33-2.19,2.69-4.26s.49-4.12.47-4.12-.73,2.76-2.55,3.75c-.43.22-.83.5-1.17.85-.09-.8-.15-1.6-.19-2.4,1.76.21,2.5-1.71,3.11-3.58.37-1.24.69-2.49.93-3.76-.02,0-1.02,2.47-2.86,3.15-.44.14-.86.36-1.23.64.02-.71.06-1.42.11-2.13,0-.17.03-.34.04-.5,1.59.44,2.57-1.27,3.33-2.92s1.29-3.39,1.29-3.4-1.23,2.19-3.02,2.58c-.42.07-.83.21-1.21.42.15-.93.32-1.86.53-2.78,1.39.57,2.49-.88,3.36-2.32.58-1,1.1-2.03,1.58-3.08,0,0-1.38,1.95-3.07,2.07-.36.01-.73.09-1.07.21.28-.96.58-1.92.92-2.87,1.18.6,2.32-.59,3.25-1.82.65-.9,1.25-1.84,1.8-2.81,0,0-1.49,1.75-3.06,1.65-.29-.02-.58-.01-.87.04.39-.93.8-1.86,1.24-2.79l.08-.18c.98.61,2.11-.36,3.09-1.46.72-.83,1.39-1.7,2.02-2.6,0,0-1.6,1.6-3.01,1.32-.29-.07-.58-.09-.88-.07.97-2.07,2.07-4.09,3.28-6.03-1.37,2.01-2.58,3.97-3.65,5.92-.13-.35-.3-.68-.53-.98-.45-.61-.46-1.58-.3-2.42.1-.52.25-1.03.46-1.52-.72,1.17-1.3,2.42-1.72,3.73-.56,1.84-.54,3.59.73,3.81-.51,1.02-.97,2.05-1.4,3.06-.18-.28-.39-.55-.63-.78-.58-.55-.73-1.53-.7-2.38.02-.53.1-1.06.24-1.57-.59,1.25-1.01,2.58-1.27,3.94-.31,1.87-.08,3.61,1.21,3.75-.33.94-.63,1.88-.9,2.81-.22-.24-.46-.45-.73-.63-1.41-.9-1.13-3.71-1.08-3.92-.44,1.34-.71,2.74-.79,4.15-.08,1.93.39,3.68,1.74,3.69v.02c-.18.86-.34,1.72-.48,2.59-.26-.2-.54-.38-.84-.51-1.6-.73-1.68-3.65-1.66-3.88-.29,1.45-.38,2.93-.28,4.4.18,2.01.9,3.79,2.34,3.6-.07.81-.11,1.62-.14,2.43-.31-.19-.63-.34-.97-.44-1.74-.54-2.24-3.41-2.27-3.77-.11,1.54,0,3.09.3,4.6.43,2.08,1.52,3.91,2.99,3.45.04.74.1,1.49.18,2.23-.36-.17-.74-.29-1.14-.36-1.93-.32-2.86-3.37-2.92-3.65.1,1.65.43,3.28.97,4.84.77,2.16,2.21,3.97,3.7,3.18.14.68.3,1.36.48,2.03-.43-.14-.87-.22-1.32-.23-2.11-.06-3.54-3.26-3.59-3.46.35,1.74.94,3.42,1.76,4.99,1.16,2.21,3,3.95,4.46,2.77.23.6.47,1.19.73,1.78-.49-.1-.99-.12-1.48-.07-2.24.25-4.28-3.01-4.31-3.13.63,1.79,1.53,3.48,2.65,5.01,1.6,2.19,3.87,3.76,5.18,2.22.29.49.6.97.91,1.46-.5-.03-1,.02-1.48.13-2.24.57-4.85-2.5-4.81-2.55.91,1.71,2.09,3.27,3.48,4.63,1.98,1.95,4.52,3.18,5.57,1.46.36.44.78.89,1.18,1.32-.5.04-.99.16-1.46.35-2.07.88-4.98-1.47-5.26-1.76,1.22,1.56,2.67,2.93,4.29,4.07,2.38,1.65,5.13,2.41,5.91.59.47.38.96.75,1.46,1.09-.51.12-1,.31-1.46.57-1.91,1.14-5.29-.71-5.63-.96,1.52,1.35,3.22,2.47,5.06,3.32,2.72,1.24,5.67,1.51,6.12-.36.55.29,1.09.57,1.68.83-.49.2-.94.47-1.35.79-1.73,1.43-5.47.19-5.91,0,1.8,1.08,3.75,1.88,5.79,2.38,2.99.73,6.05.46,6.2-1.41,3.49,1.02,7.13,1.46,10.76,1.28l.05-.6Z"/>
  </g>
  <path class="cls-5" d="M61.75,97.87c3.58.16,7.17-.27,10.61-1.27-1.23-1.6.81-3.19,2.75-4.72l4.09-3.05s-2.41,2.48-2.19,4.61c.08.48.07.98-.04,1.46.56-.26,1.09-.53,1.65-.81-1.43-1.37.19-3.34,1.75-5.21,1.65-1.89,3.31-3.73,3.31-3.74s-1.82,2.87-1.22,4.97c.16.47.24.96.23,1.46.48-.36.96-.71,1.42-1.09-1.61-1.14-.44-3.38.71-5.49,1.23-2.14,2.49-4.22,2.49-4.22s-1.24,3.12-.27,5.13c.24.44.4.92.48,1.42.4-.43.79-.86,1.17-1.3-1.72-.89-1.05-3.28-.32-5.56.81-2.32,1.69-4.48,1.68-4.52s-.65,3.25.65,5.1c.31.4.55.86.71,1.34.31-.49.61-.97.9-1.46-1.82-.64-1.6-3.11-1.28-5.44.4-2.38.89-4.63.89-4.66s-.11,3.28,1.48,4.91c.37.35.68.77.93,1.22.15-.33.28-.66.42-1,.1-.26.2-.52.3-.78-1.85-.34-2.01-2.68-2.06-4.9,0-2.26.13-4.4.14-4.43s.36,3.04,2.11,4.38c.41.28.76.63,1.06,1.03.18-.7.35-1.4.49-2.11-1.82-.05-2.33-2.19-2.69-4.26-.31-2.09-.48-4.09-.46-4.11s.75,2.76,2.55,3.75c.43.22.83.5,1.17.85.08-.8.15-1.6.19-2.4-1.76.21-2.5-1.71-3.11-3.58-.38-1.23-.69-2.49-.93-3.76.02,0,1.03,2.47,2.86,3.15.44.14.86.36,1.23.64-.02-.71-.06-1.42-.11-2.13,0-.17-.03-.34-.04-.5-1.59.44-2.57-1.27-3.33-2.92-.76-1.65-1.29-3.39-1.29-3.4s1.23,2.19,3.02,2.58c.42.08.82.22,1.19.42-.15-.93-.32-1.86-.53-2.78-1.39.57-2.49-.88-3.36-2.32-.58-1-1.1-2.03-1.57-3.08,0,0,1.37,1.95,3.07,2.07.36.01.73.09,1.07.21-.28-.96-.58-1.92-.92-2.87-1.18.6-2.32-.59-3.25-1.82-.65-.9-1.25-1.84-1.8-2.81,0,0,1.49,1.75,3.06,1.65.29-.02.58-.01.87.04-.39-.93-.8-1.86-1.24-2.79l-.08-.18c-.98.61-2.11-.36-3.09-1.46-.72-.83-1.39-1.7-2.02-2.6,0,0,1.6,1.6,3.01,1.32.29-.07.59-.08.89-.05-.97-2.07-2.07-4.09-3.28-6.03,1.37,2.01,2.58,3.97,3.65,5.92.12-.35.3-.69.53-.98.45-.61.46-1.58.3-2.42-.1-.52-.25-1.03-.46-1.52.73,1.17,1.31,2.42,1.72,3.73.56,1.84.54,3.59-.73,3.81.51,1.02.97,2.05,1.4,3.06.18-.28.39-.55.63-.78.58-.55.73-1.53.7-2.38-.02-.53-.1-1.06-.24-1.57.59,1.25,1.01,2.58,1.27,3.94.31,1.87.08,3.61-1.21,3.75.33.94.63,1.88.9,2.81.22-.24.46-.45.73-.63,1.39-.92,1.12-3.71,1.06-3.92.44,1.34.71,2.74.79,4.15.08,1.93-.39,3.68-1.74,3.69v.02c.18.86.34,1.72.48,2.59.26-.21.54-.39.83-.53,1.6-.73,1.68-3.65,1.66-3.88.29,1.45.38,2.93.28,4.4-.18,2.01-.9,3.79-2.34,3.6.07.81.11,1.62.14,2.43.3-.19.63-.34.97-.44,1.74-.54,2.24-3.41,2.27-3.77.11,1.54,0,3.1-.3,4.61-.43,2.08-1.52,3.91-2.99,3.45-.04.74-.1,1.49-.18,2.23.36-.17.74-.29,1.14-.36,1.93-.32,2.86-3.37,2.92-3.65-.1,1.65-.43,3.28-.97,4.84-.77,2.16-2.21,3.97-3.7,3.18-.14.68-.3,1.36-.48,2.03.43-.14.87-.22,1.32-.23,2.11-.06,3.54-3.26,3.59-3.46-.35,1.74-.94,3.42-1.76,4.99-1.16,2.21-3,3.95-4.46,2.77-.23.6-.47,1.19-.73,1.78.49-.1.99-.12,1.48-.07,2.24.25,4.28-3.01,4.31-3.13-.63,1.79-1.53,3.48-2.65,5.01-1.6,2.19-3.87,3.76-5.18,2.22-.29.49-.6.97-.91,1.46.5-.03,1,.02,1.48.13,2.24.57,4.85-2.5,4.81-2.55-.91,1.71-2.09,3.27-3.48,4.63-1.98,1.95-4.52,3.18-5.57,1.46-.36.44-.78.89-1.18,1.32.5.04.99.16,1.46.35,2.04.84,4.98-1.51,5.25-1.79-1.22,1.56-2.66,2.92-4.28,4.05-2.38,1.65-5.13,2.41-5.91.59-.47.38-.96.75-1.46,1.09.51.12.99.31,1.44.57,1.91,1.14,5.29-.71,5.63-.96-1.52,1.35-3.22,2.47-5.06,3.32-2.72,1.24-5.67,1.51-6.12-.36-.55.29-1.09.57-1.68.83.49.2.94.47,1.35.79,1.73,1.43,5.47.19,5.91,0-1.79,1.08-3.73,1.89-5.76,2.39-2.99.73-6.05.46-6.2-1.41-3.49,1.02-7.13,1.46-10.76,1.28l-.08-.6h.07Z"/>
  <path d="M74.26,89.2c.09-.12.14-.27.13-.43v-.34c0-.15-.04-.3-.14-.43-.09-.1-.23-.16-.36-.15-.14-.01-.27.04-.36.15-.09.12-.14.27-.13.43v.34c0,.15.04.31.14.43.09.1.23.15.36.14.14.01.27-.04.36-.14ZM73.11,89.52c-.19-.19-.3-.46-.3-.73v-.38c0-.27.11-.54.31-.73.47-.35,1.11-.35,1.58,0,.2.19.31.45.31.73v.38c0,.27-.11.54-.3.73-.47.35-1.12.35-1.59,0h0ZM70.61,89.52c-.2-.19-.31-.46-.3-.73v-.35c0-.27.11-.54.3-.73.21-.18.49-.28.77-.27.2,0,.4.04.58.12.14.07.27.17.36.3.07.1.11.22.12.34,0,.03,0,.06-.03.08-.02.02-.05.03-.08.03h-.39s-.05,0-.07,0c-.02-.02-.03-.05-.04-.07-.03-.1-.09-.18-.17-.24-.08-.05-.18-.08-.27-.07-.14-.02-.27.04-.36.14-.09.12-.14.28-.13.43v.31c.02.38.18.57.48.57.1,0,.19-.02.28-.07.08-.06.14-.15.17-.24,0-.03.02-.05.04-.07.02-.02.05-.02.07-.02h.39s.06.01.08.03c.02.02.03.05.03.08-.01.12-.05.23-.12.33-.09.13-.22.24-.36.31-.18.09-.39.13-.59.13-.28,0-.54-.11-.74-.3h0ZM69.27,89.72s-.03-.05-.03-.07v-.44c0-.05.04-.1.09-.11,0,0,.01,0,.02,0h.44s.05.01.07.03c.02.02.03.05.03.08v.44s-.01.05-.03.07c-.02.02-.05.03-.08.03h-.44s-.06,0-.09-.02h.01ZM67.25,89.69c-.13-.05-.24-.13-.33-.23-.06-.06-.1-.14-.11-.23,0-.03,0-.05.03-.07.02-.02.04-.03.07-.03h.36s.05.02.06.04l.1.08c.11.09.25.14.39.14.1,0,.2-.02.28-.07.07-.04.11-.12.11-.2,0-.05-.02-.1-.05-.14-.05-.05-.11-.08-.18-.1-.13-.04-.26-.08-.39-.11-.2-.03-.39-.11-.55-.24-.12-.11-.19-.26-.18-.43,0-.12.04-.23.11-.33.08-.11.19-.2.31-.25.16-.07.33-.1.5-.1.17,0,.35.03.51.09.12.05.24.13.33.23.06.06.1.15.11.23,0,.02,0,.05-.03.07-.02.02-.04.03-.07.03h-.33s-.06-.01-.07-.03c-.03-.03-.07-.05-.1-.08-.05-.04-.1-.07-.15-.09-.06-.03-.13-.04-.2-.04-.09,0-.18.02-.25.07-.06.04-.09.11-.09.19,0,.05.01.09.04.13.05.04.11.08.17.1.12.04.24.07.36.09.53.1.79.33.79.69,0,.2-.1.39-.27.5-.22.14-.49.21-.75.19-.19,0-.38-.02-.55-.09h.01ZM63.01,89.72s-.03-.05-.03-.07v-2.07s.01-.06.03-.08c.02-.02.05-.03.08-.03h.34s.06,0,.08.03c.02.02.03.05.03.08v.16c.15-.19.39-.3.63-.3.28-.02.55.13.68.39.07-.12.18-.21.3-.28.13-.07.27-.11.42-.11.22,0,.44.08.59.24.16.2.24.45.23.71v1.26s-.01.05-.03.07c-.02.02-.05.03-.08.03h-.36s-.06-.01-.08-.03c-.02-.02-.03-.05-.03-.07v-1.22c.01-.14-.03-.28-.12-.4-.08-.08-.19-.13-.3-.12-.11,0-.22.04-.29.12-.09.11-.13.25-.12.4v1.22s-.01.05-.03.07c-.02.02-.05.03-.08.03h-.36c-.06,0-.1-.05-.11-.11v-1.22c.01-.14-.03-.28-.12-.4-.08-.08-.19-.13-.3-.12-.11,0-.22.04-.29.12-.09.11-.13.25-.12.4v1.22s0,.05-.03.07c-.02.02-.05.03-.08.03h-.36s-.07-.01-.09-.04h.01ZM61.19,89.72s-.03-.05-.03-.07v-2.06s0-.06.03-.08c.02-.02.05-.03.08-.03h.36s.06,0,.08.03c.02.02.03.05.03.08v.18c.15-.2.39-.3.63-.29h.18s.06,0,.08.03c.02.02.03.05.03.08v.32s0,.05-.03.07c-.02.02-.05.03-.08.03h-.34c-.12,0-.24.04-.32.12-.08.09-.13.2-.12.32v1.2s0,.05-.03.07c-.02.02-.05.03-.07.03h-.42s-.06,0-.08-.03h.02ZM58.74,89.72s-.03-.05-.03-.07v-1.7h-.36c-.05,0-.1-.04-.11-.09,0,0,0-.01,0-.02v-.26s.01-.05.03-.07c.02-.02.05-.03.08-.03h.36v-.18c-.02-.22.06-.44.22-.59.18-.14.41-.21.65-.19h.91s.06,0,.08.03c.02.02.03.05.03.08v.26s-.01.06-.03.08c-.02.02-.05.03-.07.03h-.89c-.09,0-.18.02-.24.08-.05.08-.08.17-.07.26v.15h1.2s.06,0,.08.03c.02.02.03.05.03.08v2.07s-.01.05-.03.07c-.02.02-.05.03-.08.03h-.36c-.06,0-.1-.05-.11-.11v-1.7h-.73v1.7s0,.05-.03.07c-.02.02-.05.03-.08.03h-.36s-.07,0-.09-.03h.02ZM57.13,89.17c.08-.11.13-.25.13-.39v-.34c0-.13-.05-.26-.13-.36-.09-.1-.23-.16-.36-.15-.31,0-.48.19-.5.58v.26c.02.36.19.58.5.58.14,0,.28-.05.37-.17ZM55.91,89.53c-.17-.21-.26-.48-.26-.75v-.31c0-.27.09-.54.26-.75.17-.19.42-.3.68-.28.25-.01.5.1.67.29v-.97s.01-.06.03-.08c.02-.02.05-.03.07-.03h.36s.06,0,.08.03c.02.02.03.05.03.08v2.92s0,.05-.03.07c-.02.02-.05.03-.08.03h-.36c-.06,0-.1-.05-.11-.11v-.16c-.34.39-.94.42-1.32.08-.02-.01-.03-.03-.05-.05h.03ZM54.51,89.23c.09-.12.14-.27.13-.43v-.34c0-.15-.04-.3-.13-.43-.09-.1-.23-.16-.36-.15-.14-.01-.27.04-.36.15-.09.12-.14.27-.13.43v.34c0,.15.04.3.13.43.09.1.23.15.36.14.15,0,.29-.05.38-.17v.03ZM53.36,89.55c-.19-.19-.3-.46-.3-.73v-.38c0-.27.11-.54.31-.73.22-.19.51-.28.79-.26.29-.02.57.08.79.26.2.19.31.45.31.73v.38c0,.27-.11.54-.3.73-.47.35-1.12.35-1.59,0h0ZM51.92,89.23c.09-.12.14-.27.13-.43,0-.06,0-.11,0-.17,0-.06,0-.11,0-.17,0-.15-.04-.3-.13-.43-.09-.1-.23-.16-.36-.15-.14-.01-.27.04-.36.15-.09.12-.14.27-.14.43v.34c0,.15.04.31.14.43.2.2.53.2.73,0h0ZM50.77,89.55c-.2-.19-.3-.46-.3-.73v-.38c0-.27.11-.54.31-.73.47-.35,1.11-.35,1.58,0,.2.19.31.45.31.73v.38c0,.27-.11.54-.3.73-.47.35-1.12.35-1.59,0h0ZM49.24,89.13c.08-.11.13-.24.13-.38,0-.05,0-.09,0-.14,0-.05,0-.09,0-.14,0-.14-.05-.27-.13-.39-.09-.11-.23-.16-.36-.16-.32,0-.48.19-.5.58v.1c0,.46.17.69.5.69.15,0,.29-.06.38-.18h-.01ZM48.26,90.59c-.14-.07-.26-.17-.34-.3-.06-.08-.09-.18-.1-.28,0-.03,0-.05.03-.07.02-.02.05-.03.07-.03h.39s.05,0,.07.02c.02.02.04.04.04.07.03.08.08.14.15.19.09.06.19.09.3.08.24.05.46-.11.51-.34.01-.06.01-.12,0-.17v-.3c-.38.37-.98.37-1.36,0-.16-.22-.25-.48-.24-.75v-.24c0-.27.08-.54.25-.75.17-.2.42-.3.68-.28.14,0,.28.03.41.09.11.05.21.13.29.23v-.17s.01-.06.03-.08c.02-.02.05-.03.08-.03h.36s.06,0,.08.03c.02.02.03.05.03.08v2.11c.02.28-.08.55-.27.75-.23.2-.52.29-.82.27-.21,0-.43-.04-.62-.13h-.01Z"/>
  <path class="cls-7" d="M119,69.58h-13.28v20.28h13.28l-4.27-9.52,4.27-10.76ZM1,69.58h13.28v20.28H1l4.26-9.52-4.26-10.76Z"/>
  <path class="cls-12" d="M112.44,62.62l-6.71,6.93v20.28l6.71-6.67v-20.54ZM7.7,62.62l6.73,7.22v20.01l-6.73-6.71v-20.52Z"/>
  <polygon class="cls-14" points="7.55 83.1 112.43 83.1 112.42 62.57 7.55 62.57 7.55 83.1"/>
  <path class="cls-10" d="M61.26,98.16c3.61.16,7.23-.27,10.7-1.27-1.24-1.6.81-3.2,2.77-4.74,2.06-1.53,4.12-3.06,4.12-3.07s-2.43,2.49-2.19,4.63c.08.48.07.98-.04,1.46.56-.26,1.11-.53,1.66-.81-1.46-1.38.19-3.35,1.76-5.22,1.66-1.89,3.34-3.74,3.34-3.75s-1.84,2.88-1.23,4.99c.16.47.24.96.23,1.46.49-.36.97-.71,1.43-1.09-1.63-1.14-.44-3.4.73-5.51,1.24-2.15,2.51-4.23,2.51-4.24s-1.24,3.14-.27,5.14c.24.44.41.92.48,1.42.4-.43.8-.86,1.17-1.3-1.74-.89-1.06-3.3-.32-5.59.82-2.32,1.7-4.5,1.69-4.53.05,0-.66,3.26.65,5.1.32.4.56.86.73,1.34.31-.49.61-.97.9-1.46-1.85-.64-1.61-3.12-1.28-5.47.4-2.39.89-4.64.89-4.67s-.1,3.28,1.49,4.92c.37.35.69.77.93,1.22.15-.33.29-.67.42-1,.11-.26.2-.52.3-.78-1.86-.36-2.03-2.69-2.08-4.91,0-2.27.13-4.42.15-4.44s.36,3.05,2.13,4.38c.41.29.77.64,1.07,1.04.18-.7.35-1.41.49-2.12-1.85-.05-2.35-2.21-2.71-4.27-.36-2.07-.48-4.1-.46-4.12s.75,2.77,2.59,3.77c.44.22.83.5,1.18.85.09-.8.15-1.6.2-2.4-1.78.21-2.53-1.72-3.14-3.6-.38-1.24-.69-2.5-.94-3.77.03,0,1.04,2.48,2.88,3.16.44.14.86.36,1.23.64-.02-.73-.05-1.43-.11-2.13,0-.17-.03-.33-.04-.5-1.6.44-2.6-1.27-3.36-2.92s-1.31-3.41-1.31-3.41,1.24,2.19,3.04,2.59c.42.08.83.22,1.21.43-.15-.93-.33-1.86-.54-2.79-1.4.57-2.52-.88-3.39-2.32-.58-1-1.11-2.03-1.59-3.09.02,0,1.39,1.95,3.1,2.08.37.01.74.08,1.09.21-.28-.97-.59-1.93-.93-2.88-1.19.6-2.34-.59-3.28-1.82-.66-.9-1.27-1.85-1.82-2.82.02,0,1.51,1.76,3.08,1.66.29-.03.59-.01.88.04-.39-.93-.8-1.87-1.24-2.8l-.08-.18c-.99.61-2.13-.36-3.11-1.46-.73-.83-1.41-1.7-2.04-2.6.02,0,1.62,1.6,3.03,1.32.29-.07.6-.08.9-.05-.98-2.08-2.09-4.1-3.3-6.06,1.37,2.02,2.6,4.01,3.68,5.95.13-.35.31-.69.53-.99.45-.61.46-1.59.3-2.42-.11-.52-.26-1.03-.46-1.52.73,1.17,1.31,2.43,1.74,3.74.56,1.85.54,3.6-.73,3.82.51,1.02.98,2.05,1.41,3.07.18-.29.39-.55.64-.78.58-.55.73-1.54.71-2.38-.03-.53-.11-1.06-.24-1.57.59,1.26,1.02,2.58,1.28,3.95.31,1.87.08,3.62-1.23,3.76.33.94.63,1.88.91,2.82.22-.24.46-.45.73-.63,1.4-.92,1.13-3.72,1.09-3.93.45,1.35.71,2.75.79,4.16.08,1.93-.39,3.69-1.75,3.7v.02c.18.86.35,1.73.49,2.6.26-.21.54-.39.84-.53,1.62-.75,1.7-3.67,1.67-3.89.29,1.45.39,2.94.28,4.41-.18,2.02-.91,3.8-2.36,3.61.07.81.11,1.62.14,2.44.31-.19.64-.34.98-.45,1.75-.54,2.26-3.42,2.29-3.79.11,1.55,0,3.11-.3,4.63-.44,2.08-1.54,3.92-3.01,3.46-.04.73-.1,1.49-.19,2.24.37-.17.75-.29,1.15-.36,1.95-.32,2.88-3.37,2.92-3.67-.1,1.66-.43,3.29-.98,4.85-.77,2.19-2.23,3.99-3.73,3.19-.14.68-.3,1.36-.48,2.03.43-.14.88-.22,1.33-.23,2.12-.06,3.57-3.28,3.62-3.47-.35,1.74-.94,3.43-1.77,5-1.17,2.22-3.03,3.96-4.49,2.78-.23.6-.47,1.19-.73,1.78.49-.1.99-.12,1.49-.07,2.26.25,4.32-3.02,4.34-3.14-.64,1.8-1.54,3.49-2.68,5.02-1.62,2.19-3.9,3.77-5.22,2.23-.3.5-.6.99-.92,1.46.5-.03,1.01.02,1.49.13,2.25.57,4.89-2.51,4.85-2.55-.93,1.73-2.13,3.31-3.55,4.67-1.99,1.95-4.55,3.19-5.62,1.46-.38.45-.78.89-1.19,1.32.51.05,1.01.17,1.48.36,2.06.84,5.02-1.52,5.29-1.8-1.23,1.56-2.68,2.93-4.31,4.07-2.4,1.65-5.18,2.41-5.96.6-.47.38-.96.75-1.46,1.11.51.12,1,.31,1.46.57,1.93,1.14,5.33-.73,5.67-.97-1.53,1.36-3.25,2.48-5.1,3.33-2.74,1.24-5.71,1.51-6.17-.36-.55.29-1.12.57-1.69.83.48.2.93.46,1.34.78,1.75,1.43,5.53.19,5.95,0-1.81,1.08-3.77,1.89-5.81,2.4-3.01.73-6.1.46-6.24-1.42-3.52,1.03-7.18,1.46-10.84,1.29l-.07-.61Z"/>
  <path class="cls-2" d="M60.65,15.48l2.15,4.35,4.81.7-3.48,3.41.82,4.78-4.3-2.26-4.3,2.26.82-4.78-3.48-3.39,4.81-.7,2.15-4.37Z"/>
  <polygon class="cls-11" points="47.32 23.96 46.03 21.35 44.74 23.96 41.85 24.38 43.94 26.41 43.45 29.28 46.03 27.93 48.61 29.28 48.12 26.41 50.21 24.38 47.32 23.96"/>
  <polygon class="cls-11" points="79.45 24.38 76.57 23.96 75.28 21.35 73.99 23.96 71.1 24.38 73.19 26.41 72.7 29.28 75.28 27.93 77.86 29.28 77.36 26.41 79.45 24.38"/>
  <polygon class="cls-16" points="40.15 30.77 39.38 29.2 38.6 30.77 36.87 31.02 38.12 32.24 37.83 33.96 39.38 33.15 40.92 33.96 40.63 32.24 41.88 31.02 40.15 30.77"/>
  <polygon class="cls-16" points="84.44 31.02 82.71 30.77 81.93 29.2 81.16 30.77 79.43 31.02 80.68 32.24 80.39 33.96 81.93 33.15 83.48 33.96 83.19 32.24 84.44 31.02"/>
  <g class="cls-9">
    <path class="cls-1" d="M35.73,70.81v-3.61h-1.28v-.75h3.47v.75h-1.28v3.61h-.92Z"/>
    <path class="cls-1" d="M42.26,68.63c0,1.39-.81,2.26-2.11,2.26s-2.1-.87-2.1-2.26.81-2.26,2.1-2.26,2.11.87,2.11,2.26ZM38.98,68.63c0,.92.46,1.49,1.17,1.49s1.17-.58,1.17-1.49-.46-1.5-1.17-1.5-1.17.58-1.17,1.5Z"/>
    <path class="cls-1" d="M44.67,66.45c.79-.05,1.46.55,1.51,1.33,0,.05,0,.11,0,.16.02.81-.61,1.48-1.42,1.5-.05,0-.1,0-.14,0h-.86v1.37h-.92v-4.38h1.82ZM43.76,68.72h.66c.43,0,.78-.35.78-.78,0-.43-.35-.78-.78-.78h-.67v1.55Z"/>
    <path class="cls-1" d="M52.68,70.81h-.81v-2.95h-.03l-1.18,2.92h-.58l-1.18-2.92h-.03v2.95h-.81v-4.38h1.05l1.24,3.1h.02l1.24-3.1h1.06v4.38Z"/>
    <path class="cls-1" d="M57.49,68.63c0,1.39-.81,2.26-2.1,2.26s-2.11-.87-2.11-2.26.81-2.26,2.11-2.26,2.1.87,2.1,2.26ZM54.21,68.63c0,.92.46,1.49,1.17,1.49s1.17-.58,1.17-1.49-.46-1.5-1.17-1.5-1.17.58-1.17,1.5Z"/>
    <path class="cls-1" d="M58.07,70.81v-4.38h1.93c.82,0,1.33.42,1.33,1.09,0,.48-.35.88-.82.95v.03c.57.02,1.03.48,1.03,1.06,0,.77-.58,1.25-1.51,1.25h-1.96ZM58.98,68.26h.7c.48,0,.77-.22.77-.58s-.24-.55-.67-.55h-.78v1.14ZM59.79,70.13c.53,0,.81-.23.81-.64s-.3-.63-.83-.63h-.79v1.27h.81Z"/>
    <path class="cls-1" d="M62.06,70.81v-4.38h.9v4.38h-.9Z"/>
    <path class="cls-1" d="M66.52,70.81h-2.84v-4.38h.92v3.61h1.91v.77Z"/>
    <path class="cls-1" d="M69.96,70.81h-2.9v-4.38h2.9v.75h-1.98v1.05h1.87v.7h-1.87v1.09h1.98v.77Z"/>
    <path class="cls-1" d="M74.48,69.76h-1.54l-.33,1.06h-.94l1.52-4.38h1.07l1.52,4.38h-.97l-.33-1.06ZM73.14,69.07h1.14l-.56-1.79h-.02l-.56,1.79Z"/>
    <path class="cls-1" d="M78.05,66.45c.79-.05,1.46.55,1.51,1.33,0,.05,0,.11,0,.16.02.81-.61,1.48-1.42,1.5-.05,0-.1,0-.14,0h-.86v1.37h-.92v-4.38h1.82ZM77.14,68.72h.66c.43,0,.78-.35.78-.78,0-.43-.35-.78-.78-.78h-.66v1.55Z"/>
    <path class="cls-1" d="M81.92,66.45c.79-.05,1.46.55,1.51,1.33,0,.05,0,.11,0,.16.02.81-.61,1.48-1.42,1.5-.05,0-.09,0-.14,0h-.86v1.37h-.92v-4.38h1.82ZM81.01,68.72h.66c.43,0,.78-.35.78-.78,0-.43-.35-.78-.78-.78h-.67v1.55Z"/>
    <path class="cls-1" d="M23.41,73.89c1.31,0,2.08.78,2.08,2.17s-.77,2.19-2.08,2.19h-1.68v-4.35h1.68ZM22.64,77.5h.66c.82,0,1.26-.5,1.26-1.46s-.45-1.42-1.26-1.42h-.66v2.88Z"/>
    <path class="cls-1" d="M28.97,78.26h-2.89v-4.38h2.89v.75h-1.98v1.07h1.87v.7h-1.87v1.09h1.98v.75Z"/>
    <path class="cls-1" d="M30.81,78.26l-1.46-4.38h1.02l1,3.42h.02l.99-3.42h1l-1.46,4.38h-1.11Z"/>
    <path class="cls-1" d="M36.72,78.26h-2.9v-4.38h2.9v.75h-1.98v1.07h1.87v.7h-1.87v1.09h1.98v.75Z"/>
    <path class="cls-1" d="M40.21,78.26h-2.82v-4.38h.91v3.61h1.91v.77Z"/>
    <path class="cls-1" d="M44.64,76.07c0,1.39-.81,2.26-2.11,2.26s-2.1-.87-2.1-2.26.81-2.26,2.1-2.26,2.11.86,2.11,2.26ZM41.36,76.07c0,.92.46,1.49,1.17,1.49s1.17-.58,1.17-1.49-.46-1.5-1.17-1.5-1.17.58-1.17,1.5Z"/>
    <path class="cls-1" d="M47.05,73.89c.79-.05,1.46.55,1.51,1.33,0,.05,0,.11,0,.16.02.81-.61,1.48-1.42,1.5-.05,0-.1,0-.14,0h-.86v1.39h-.92v-4.38h1.82ZM46.15,76.16h.66c.43,0,.78-.35.78-.78,0-.43-.35-.78-.78-.78h-.67v1.55Z"/>
    <path class="cls-1" d="M53.73,78.26h-.81v-2.95h-.03l-1.18,2.92h-.58l-1.18-2.92h-.03v2.95h-.82v-4.38h1.06l1.24,3.1h.03l1.24-3.1h1.06v4.38Z"/>
    <path class="cls-1" d="M57.35,78.26h-2.9v-4.38h2.9v.75h-1.98v1.07h1.87v.7h-1.87v1.09h1.98v.75Z"/>
    <path class="cls-1" d="M58.01,78.26v-4.38h.76l2.04,2.84h.03v-2.84h.88v4.38h-.76l-2.04-2.86h-.03v2.86h-.88Z"/>
    <path class="cls-1" d="M63.5,78.26v-3.62h-1.27v-.76h3.47v.75h-1.28v3.62h-.92Z"/>
    <path class="cls-1" d="M67.39,76.07c0-1.41.8-2.26,2.07-2.26.98-.07,1.84.66,1.92,1.64h-.89c-.06-.52-.51-.9-1.03-.89-.69,0-1.13.58-1.13,1.5s.44,1.51,1.14,1.51c.51.03.95-.33,1.03-.83h.89c-.1.97-.85,1.59-1.92,1.59-1.27,0-2.07-.86-2.07-2.26Z"/>
    <path class="cls-1" d="M76.02,76.07c0,1.39-.82,2.26-2.11,2.26s-2.11-.87-2.11-2.26.81-2.26,2.11-2.26,2.11.86,2.11,2.26ZM72.74,76.07c0,.92.46,1.49,1.17,1.49s1.17-.58,1.17-1.49-.46-1.5-1.17-1.5-1.17.58-1.17,1.5Z"/>
    <path class="cls-1" d="M81.23,78.26h-.81v-2.95h-.03l-1.18,2.92h-.57l-1.19-2.92h-.02v2.95h-.81v-4.38h1.06l1.24,3.1h.03l1.24-3.1h1.06v4.38Z"/>
    <path class="cls-1" d="M83.78,73.89c.79-.05,1.46.55,1.51,1.33,0,.05,0,.11,0,.16.02.81-.61,1.48-1.42,1.5-.05,0-.1,0-.14,0h-.86v1.39h-.92v-4.38h1.82ZM82.87,76.16h.66c.43,0,.78-.35.78-.78,0-.43-.35-.78-.78-.78h-.67v1.55Z"/>
    <path class="cls-1" d="M87.95,77.19h-1.54l-.33,1.06h-.94l1.51-4.37h1.09l1.52,4.38h-.97l-.35-1.07ZM86.61,76.51h1.14l-.56-1.79h-.02l-.55,1.79Z"/>
    <path class="cls-1" d="M89.7,78.26v-4.38h.77l2.04,2.84h.03v-2.84h.88v4.38h-.76l-2.04-2.86h-.03v2.86h-.88Z"/>
    <path class="cls-1" d="M95.37,78.26v-1.64l-1.52-2.73h1l.98,1.86h.02l.98-1.86h.98l-1.52,2.73v1.64h-.92Z"/>
  </g>
</svg>