<?xml version="1.0" encoding="UTF-8"?>
<svg id="Layer_1" xmlns="http://www.w3.org/2000/svg" viewBox="0 0 120 120">
  <defs>
    <style>
      .cls-1 {
        fill: #ea4335;
      }

      .cls-2 {
        stroke-width: .25px;
      }

      .cls-2, .cls-3 {
        fill: #606469;
        stroke: #5f6368;
        stroke-miterlimit: 10;
      }

      .cls-4 {
        fill: #fbbc04;
      }

      .cls-5 {
        fill: #34a853;
      }

      .cls-3 {
        stroke-width: .06px;
      }

      .cls-6 {
        fill: #4284f4;
      }
    </style>
  </defs>
  <path class="cls-3" d="M63.02,85.01c1.57-.05,3.13-.05,4.7,0,1.21,0,2.32.76,3.01,1.74.56.86.58,1.92.43,2.9s-.88,1.77-1.67,2.32c-1.41.88-3.11.48-4.67.58-.15,1.64,0,3.31-.05,4.95-.58.05-1.16.05-1.74,0-.03-4.17-.05-8.33,0-12.5M64.79,86.75c-.1,1.34-.13,2.7-.03,4.07,1.09,0,2.17.08,3.26-.05,1.46-.51,1.84-2.63.66-3.61-1.14-.73-2.6-.3-3.89-.4M89.14,88.39c.03-.78-.08-1.57.1-2.32.56,0,1.11,0,1.69.03.05.76,0,1.52.05,2.27.58.3,1.34.08,2.02.18.03.53.03,1.06,0,1.62-.68.03-1.36.05-2.02.13,0,1.62-.03,3.23,0,4.87-.03.43.18.91.63,1.01.51,0,1.01,0,1.52-.05.05.56,0,1.11-.13,1.64-.81.05-1.64.15-2.45-.08-.63-.38-1.29-.96-1.31-1.74-.18-1.87.05-3.74-.13-5.61-.51-.08-1.04-.15-1.54-.23,0-.51,0-1.01.03-1.52.51-.1,1.06-.05,1.54-.2M72.67,90.13c1.39-2.6,5.81-2.6,7.22,0,.4.86.3,1.84.33,2.75-.03,1.54.03,3.08-.03,4.62-.45.03-.91.03-1.36,0-.15-.2-.28-.43-.43-.63-1.04.66-2.25,1.34-3.49.91-1.82-.28-3.21-2.35-2.4-4.09.51-1.34,1.97-1.94,3.31-2.05.93-.08,1.84.25,2.78.3-.1-1.09-.91-2.15-2.1-2.07-1.04-.18-1.89.45-2.58,1.16-.51-.23-.91-.56-1.26-.91M74.11,94.91c.08.91,1.06,1.41,1.89,1.36,1.31-.1,2.37-1.16,2.45-2.48-.71-.63-1.77-.68-2.65-.61s-1.79.76-1.69,1.72M96.26,89.23c.81-.48,1.64-1.11,2.68-1.01,1.74-.15,3.31,1.39,3.31,3.08.03,2.07,0,4.12,0,6.19-.58.05-1.16.08-1.74.03-.08-2.05.1-4.09-.1-6.14-.1-1.31-1.72-1.72-2.78-1.31-.93.4-1.44,1.41-1.46,2.4-.05,1.69.03,3.36,0,5.05-.61.05-1.19.05-1.79,0-.03-2.98-.03-5.99,0-8.97.56-.05,1.09-.05,1.64.03.08.13.2.48.25.66M105.4,89.02c1.69-1.31,4.39-1.09,5.81.53.88,1.06,1.26,2.45,1.09,3.84-2.27.08-4.57,0-6.84.03-.2,1.67,1.52,3.03,3.11,2.75.93-.03,1.49-.83,2.12-1.41.56-.05,1.01.35,1.46.56-.91,2.27-3.91,3.21-6.06,2.1-3.16-1.44-3.38-6.36-.68-8.39M105.43,91.9c1.64.08,3.31.08,4.98,0-.15-1.24-1.26-2.12-2.5-2.02-1.24-.08-2.12.96-2.48,2.02M116.97,88.32c.63-.2,1.31-.1,1.97,0,.05.61.08,1.21.05,1.82-.66-.03-1.34-.2-2-.05-.93.38-1.57,1.29-1.54,2.3-.05,1.69.03,3.36,0,5.05-.58.08-1.19.08-1.77.03-.03-2.98-.03-5.99,0-8.97.45-.05.93-.05,1.39-.05.15.23.3.45.48.68.48-.28.96-.56,1.41-.81M83.43,89.4c.66-.35,1.24-.93,2.02-.93.4-.03.83,0,1.24.03.03.56.03,1.11.03,1.64-.78.13-1.72-.08-2.35.51-.43.4-.83.93-.83,1.57-.08,1.82.05,3.64-.05,5.48-.56.05-1.14.05-1.72.03-.05-3.01-.05-6.01,0-8.99.51-.05.99-.03,1.49.05.03.13.13.45.18.63h0Z"/>
  <path class="cls-1" d="M41.96,26.06c5-5.18,12.3-7.88,19.45-7.6,4.19.28,8.39,1.36,11.97,3.61,1.49.93,2.98,1.92,4.14,3.23-1.14,1.31-2.45,2.48-3.66,3.74-1.26,1.24-2.48,2.55-3.79,3.74-2.05-1.87-4.6-3.28-7.38-3.66-2.88-.33-5.94-.2-8.56,1.11-2.96,1.36-5.41,3.59-7.05,6.39-.56.93-.93,1.97-1.39,2.96-2.93-2.15-5.73-4.47-8.64-6.67,1.19-2.58,2.85-4.9,4.9-6.84h0Z"/>
  <path class="cls-4" d="M37.08,32.88c2.9,2.2,5.71,4.5,8.64,6.67-.43,2.1-1.09,4.24-.68,6.42.13,1.19.48,2.35.68,3.51-2.27,1.79-4.6,3.56-6.87,5.38-.58.45-1.19.86-1.84,1.19-1.59-3.13-2.5-6.59-2.65-10.1-.13-2.3.03-4.62.48-6.9.56-2.1,1.14-4.24,2.25-6.16h0Z"/>
  <path class="cls-6" d="M60.47,39.75h21.37c.91,0,1.82-.08,2.73.08,1.57,7.75-.13,16.32-5.28,22.43-.56.66-1.11,1.39-1.87,1.82-2.85-2.1-5.56-4.34-8.39-6.47,2.48-1.84,4.37-4.65,4.7-7.75-4.45-.08-8.89.03-13.34-.05-.13-2.63,0-5.28-.05-7.91.03-.71-.1-1.44.13-2.15h0Z"/>
  <path class="cls-5" d="M38.85,54.88c2.27-1.82,4.6-3.59,6.87-5.38.56,1.04.91,2.2,1.57,3.18,2.07,3.38,5.35,5.88,9.19,6.95,2.68.58,5.46.58,8.11-.05,1.57-.4,3.01-1.16,4.42-1.94,2.83,2.12,5.53,4.39,8.39,6.47-.68.88-1.62,1.49-2.53,2.12-4.24,3.01-9.5,4.19-14.62,4.32-5.18-.1-10.36-1.57-14.62-4.55-3.69-2.53-6.67-5.94-8.64-9.93.68-.33,1.29-.73,1.87-1.19h0Z"/>
  <path class="cls-2" d="M3.69,85.97c1.82-1.44,4.45-1.54,6.57-.76.76.35,1.62.78,2,1.62-.35.4-.73.78-1.16,1.11-.61-.51-1.24-1.04-2-1.29-1.89-.56-4.14.03-5.3,1.67-.99,1.14-1.04,2.75-.81,4.19.43,2.22,2.7,3.86,4.95,3.66,2.02.03,4.02-1.67,4.02-3.76-1.46-.1-2.93,0-4.39-.05-.2-.45-.23-.99-.1-1.46,2.05-.2,4.14-.08,6.19-.08.23,1.84-.05,3.89-1.46,5.23-2.27,2.42-6.39,2.45-8.84.33-2.8-2.37-3.13-6.59-.73-9.4.33-.35.68-.71,1.09-1.01M46,85.08c.58-.1,1.19-.13,1.77-.08.08,4.14.03,8.28.03,12.43-.58.2-1.19.1-1.79.08-.03-4.14,0-8.28,0-12.43M18.34,88.37c1.29-.28,2.73-.13,3.81.66,2.12,1.39,2.7,4.52,1.36,6.64-.78,1.49-2.53,2.27-4.17,2.27-1.11-.13-2.25-.51-3.03-1.31-1.34-1.26-1.77-3.33-1.24-5.05.38-1.59,1.74-2.78,3.26-3.21M18.57,90.08c-1.06.4-1.77,1.39-1.82,2.5-.1,1.09.1,2.35,1.04,3.03,1.44,1.26,4.02.45,4.47-1.39.23-1.16.25-2.63-.73-3.49-.68-.83-1.94-.99-2.96-.66M28.49,88.39c1.19-.25,2.5-.23,3.56.43,2.5,1.29,3.16,4.87,1.57,7.1-.81,1.31-2.37,2.02-3.89,2.05-1.44-.1-2.93-.73-3.74-1.97-.81-1.06-.93-2.45-.81-3.74.18-1.82,1.62-3.33,3.31-3.86M28.9,90.06c-2.37.73-2.68,4.37-.71,5.71.96.66,2.45.66,3.33-.15,1.44-1.14,1.52-3.49.33-4.82-.73-.83-1.94-1.04-2.96-.73M35.54,91.55c.48-1.89,2.27-3.51,4.29-3.31.99-.08,1.77.58,2.58,1.04.08-.25.15-.51.23-.76.53-.03,1.06-.03,1.57,0,.05,2.88,0,5.78.03,8.66.03,1.41-.56,2.96-1.79,3.74-1.09.71-2.45.71-3.69.58-1.39-.2-2.55-1.16-2.98-2.5.43-.33.91-.73,1.46-.63.48.51.88,1.09,1.52,1.41,1.14.56,2.63.08,3.36-.93.4-.61.38-1.36.38-2.05-.93.61-2,1.26-3.16,1.14-1.16-.18-2.4-.68-3.06-1.72-.96-1.34-1.14-3.11-.73-4.67M38.8,90.11c-1.97.91-2.22,3.84-.83,5.35.83.83,2.1,1.01,3.13.45,1.94-1.19,1.97-4.45.08-5.68-.73-.38-1.59-.43-2.37-.13M50.57,89.5c.83-.88,2-1.34,3.21-1.26,1.49-.08,2.88.88,3.64,2.12.51.91.56,1.97.53,3.01-2.25.28-4.55,0-6.82.13-.2,1.72,1.64,3.11,3.26,2.7.93-.1,1.44-.91,2-1.54.48.2.93.43,1.39.63-.3,1.31-1.64,2.2-2.9,2.5-1.34.4-2.78-.03-3.89-.78-1.21-.88-1.67-2.45-1.82-3.86.1-1.29.43-2.7,1.41-3.64M52.51,90.13c-.78.28-1.14,1.11-1.36,1.84,1.64.03,3.28.03,4.93,0-.18-.53-.3-1.14-.76-1.52-.76-.63-1.89-.66-2.8-.33"/>
</svg>