<?xml version="1.0" encoding="UTF-8"?>
<svg id="Layer_1" xmlns="http://www.w3.org/2000/svg" viewBox="0 0 120 120">
  <defs>
    <style>
      .cls-1 {
        fill: #fff;
      }

      .cls-2 {
        fill: #223669;
      }

      .cls-3 {
        fill: #ef3840;
      }
    </style>
  </defs>
  <g id="Desktop---1920">
    <g id="certification-badge-september-2023">
      <g id="Group">
        <polygon id="Path" class="cls-2" points="24.77 0 24.77 101.04 60 120 95.23 101.04 95.23 0 24.77 0"/>
        <rect id="Rectangle" class="cls-3" x="24.77" width="70.47" height="70.47"/>
        <g>
          <path id="Path-2" data-name="Path" class="cls-1" d="M42.29,10.86v.95c0,1.77-.57,3.2-1.7,4.29-1.12,1.1-2.59,1.64-4.38,1.64-1.91,0-3.5-.62-4.76-1.86-1.25-1.25-1.87-2.77-1.87-4.56s.62-3.32,1.86-4.58c1.25-1.25,2.79-1.87,4.63-1.87,2.31,0,4.33,1.13,5.39,2.88l-2.09,1.2c-.58-1.01-1.86-1.71-3.32-1.71-1.18,0-2.16.39-2.92,1.17-.76.76-1.13,1.73-1.13,2.92s.39,2.14,1.14,2.9c.78.76,1.8,1.13,3.07,1.13,1.89,0,3.16-.88,3.6-2.35h-3.74v-2.16h6.2Z"/>
          <path id="Path-3" data-name="Path" class="cls-1" d="M45.95,10.19c.4-1.13,1.41-1.7,2.55-1.7v2.54c-.63-.1-1.26.06-1.78.42-.52.37-.77.97-.77,1.82v4.22h-2.17v-8.84h2.16s0,1.52,0,1.52Z"/>
          <path id="Shape" class="cls-1" d="M52.16,14.03c.3,1.11,1.13,1.66,2.49,1.66.87,0,1.54-.3,1.98-.88l1.84,1.06c-.87,1.25-2.16,1.89-3.85,1.89-1.47,0-2.63-.44-3.52-1.33-.88-.88-1.32-2-1.32-3.34s.44-2.44,1.31-3.32c.87-.9,2-1.34,3.36-1.34,1.29,0,2.37.44,3.2,1.34.85.9,1.27,2,1.27,3.32,0,.31-.04.63-.09.94h-6.66ZM56.63,12.26c-.27-1.2-1.14-1.78-2.19-1.78-1.22,0-2.05.65-2.31,1.78h4.51Z"/>
          <path id="Shape-2" data-name="Shape" class="cls-1" d="M67.12,8.67h2.28v8.84h-2.28v-1.04c-.69.87-1.64,1.29-2.88,1.29s-2.19-.44-3.04-1.34c-.83-.9-1.25-2.01-1.25-3.32s.42-2.4,1.25-3.3c.85-.9,1.86-1.36,3.04-1.36s2.19.42,2.88,1.29v-1.04ZM64.67,15.58c.7,0,1.29-.23,1.75-.69.48-.48.7-1.08.7-1.8s-.23-1.32-.7-1.78c-.46-.48-1.04-.7-1.75-.7s-1.29.23-1.75.7c-.46.46-.69,1.06-.69,1.78s.23,1.32.69,1.8c.46.46,1.04.69,1.75.69"/>
          <path id="Path-4" data-name="Path" class="cls-1" d="M76.88,10.86h-1.99v3.67c0,.95.69.97,2,.9v2.07c-3.13.35-4.28-.55-4.28-2.97v-3.67h-1.54v-2.19h1.54v-1.78l2.28-.69v2.47h2v2.19Z"/>
          <path id="Shape-3" data-name="Shape" class="cls-1" d="M35.83,20.67c1.18,0,2.19.41,3,1.2.81.8,1.22,1.78,1.22,2.95s-.41,2.16-1.22,2.95-1.82,1.21-3,1.21h-2.17v4.06h-2.44v-12.37h4.61ZM35.83,26.7c1.04,0,1.8-.81,1.8-1.87s-.76-1.87-1.8-1.87h-2.17v3.75h2.17Z"/>
          <rect id="Rectangle-2" data-name="Rectangle" class="cls-1" x="41.72" y="20.79" width="2.28" height="12.25"/>
          <path id="Shape-4" data-name="Shape" class="cls-1" d="M53.15,24.21h2.28v8.84h-2.28v-1.04c-.69.87-1.64,1.29-2.88,1.29s-2.19-.44-3.04-1.34c-.83-.9-1.25-2.01-1.25-3.32s.42-2.4,1.25-3.3c.85-.9,1.86-1.36,3.04-1.36s2.19.42,2.88,1.29v-1.04ZM50.69,31.11c.7,0,1.29-.23,1.75-.69.48-.48.7-1.08.7-1.8s-.23-1.32-.7-1.78c-.46-.48-1.04-.7-1.75-.7s-1.29.23-1.75.7c-.46.46-.69,1.06-.69,1.78s.23,1.32.69,1.8c.46.46,1.04.69,1.75.69"/>
          <path id="Path-5" data-name="Path" class="cls-1" d="M58.72,31.94c-.88-.9-1.33-2-1.33-3.32s.44-2.42,1.33-3.32c.9-.9,2.01-1.34,3.34-1.34,1.71,0,3.23.88,3.96,2.28l-1.96,1.14c-.35-.72-1.11-1.18-2.01-1.18-1.36,0-2.37,1.01-2.37,2.42-.02.64.23,1.27.67,1.73.44.44,1.01.67,1.7.67.92,0,1.68-.44,2.03-1.17l1.98,1.13c-.78,1.4-2.28,2.3-3.99,2.3-1.32,0-2.44-.44-3.34-1.34"/>
          <path id="Shape-5" data-name="Shape" class="cls-1" d="M69.69,29.56c.3,1.11,1.13,1.66,2.49,1.66.87,0,1.54-.3,1.98-.88l1.84,1.06c-.87,1.25-2.16,1.89-3.85,1.89-1.47,0-2.63-.44-3.52-1.33-.88-.88-1.32-2-1.32-3.34s.44-2.44,1.31-3.32c.86-.9,1.99-1.34,3.35-1.34,1.29,0,2.37.44,3.2,1.34.85.9,1.27,2,1.27,3.32,0,.31-.04.63-.09.94h-6.66ZM74.16,27.79c-.27-1.2-1.14-1.78-2.19-1.78-1.22,0-2.05.65-2.31,1.78h4.51Z"/>
          <polygon id="Path-6" data-name="Path" class="cls-1" points="38.69 36.82 38.69 39.04 35.35 39.04 35.35 48.58 32.92 48.58 32.92 39.04 29.59 39.04 29.59 36.82 38.69 36.82"/>
          <path id="Shape-6" data-name="Shape" class="cls-1" d="M42.49,48.82c-1.31,0-2.42-.44-3.32-1.34s-1.34-2.01-1.34-3.32.44-2.4,1.34-3.3,2.01-1.36,3.32-1.36,2.42.46,3.32,1.36c.89.87,1.38,2.06,1.36,3.3,0,1.31-.46,2.42-1.36,3.32s-2.01,1.34-3.32,1.34M42.49,46.6c.64.02,1.26-.23,1.71-.69.46-.46.69-1.04.69-1.75,0-.71-.23-1.29-.69-1.75-.96-.92-2.47-.92-3.43,0-.44.46-.67,1.04-.67,1.75s.23,1.29.67,1.75c.45.46,1.07.71,1.71.69"/>
          <polygon id="Path-7" data-name="Path" class="cls-1" points="33.39 64.83 29.93 52.46 32.49 52.46 34.86 61.63 37.44 52.46 39.52 52.46 42.12 61.63 44.49 52.46 47.05 52.46 43.59 64.83 40.81 64.83 38.48 56.67 36.17 64.83 33.39 64.83"/>
          <path id="Shape-7" data-name="Shape" class="cls-1" d="M51.5,65.08c-1.31,0-2.42-.44-3.32-1.34-.9-.9-1.34-2.01-1.34-3.32s.44-2.4,1.34-3.3c.9-.9,2.01-1.36,3.32-1.36s2.42.46,3.32,1.36c.9.9,1.36,1.99,1.36,3.3s-.46,2.42-1.36,3.32c-.9.9-2.01,1.34-3.32,1.34M51.5,62.85c.64.02,1.26-.23,1.71-.69.46-.46.69-1.04.69-1.75s-.23-1.29-.69-1.75c-.96-.92-2.47-.92-3.43,0-.44.46-.67,1.04-.67,1.75s.23,1.29.67,1.75c.45.46,1.07.71,1.72.69"/>
          <path id="Path-8" data-name="Path" class="cls-1" d="M60.07,57.52c.42-1.13,1.48-1.7,2.69-1.7v2.54c-.65-.1-1.32.05-1.87.42s-.81.97-.81,1.82v4.22h-2.28v-8.83h2.28v1.52Z"/>
          <polygon id="Path-9" data-name="Path" class="cls-1" points="72.58 64.83 69.93 64.83 66.72 60.82 66.72 64.83 64.44 64.83 64.44 52.46 66.72 52.46 66.72 59.88 69.76 56 72.48 56 68.93 60.36 72.58 64.83"/>
          <path id="Shape-8" data-name="Shape" class="cls-1" d="M73.41,63.24c0-.81.48-1.54,1.22-1.86.75-.31,1.61-.15,2.18.42.57.57.75,1.43.44,2.18s-1.04,1.24-1.85,1.24c-.53,0-1.04-.2-1.42-.57-.37-.37-.58-.88-.58-1.41M77.05,63.23c0-.98-.68-1.67-1.64-1.67s-1.64.69-1.64,1.67.72,1.66,1.64,1.66,1.64-.68,1.64-1.67M74.73,62.22h.69c.46,0,.76.19.76.59h0c0,.26-.16.48-.4.54l.52.84h-.45l-.48-.76h-.21v.76h-.43v-1.97h0ZM75.42,63.13c.23,0,.34-.1.34-.29h0c0-.22-.13-.29-.34-.29h-.25v.58h.25Z"/>
          <path id="Path-10" data-name="Path" class="cls-1" d="M38.69,78c.95.73,1.52,1.74,1.71,2.99l-2.31.2c-.3-1.5-1.37-2.32-2.86-2.32-.95,0-1.71.33-2.28.98-.56.64-.85,1.51-.85,2.58,0,1.14.29,2.01.87,2.63s1.35.93,2.27.93c1.5,0,2.55-.8,2.84-2.28l2.32.2c-.2,1.25-.77,2.23-1.71,2.96s-2.07,1.09-3.39,1.09c-1.61,0-2.93-.5-3.95-1.5s-1.52-2.33-1.52-4.03.5-3.04,1.52-4.03c1.02-.99,2.33-1.5,3.93-1.5,1.32,0,2.46.37,3.39,1.1"/>
          <path id="Shape-9" data-name="Shape" class="cls-1" d="M48.44,84.75h-5.1c.04.93.62,1.51,1.55,1.51.75,0,1.21-.27,1.37-.82l2.11.1c-.13.7-.52,1.29-1.16,1.74-.63.44-1.38.68-2.25.68-1.14,0-2.08-.34-2.78-1.05s-1.05-1.64-1.05-2.81.34-2.12,1.05-2.81c.7-.7,1.61-1.05,2.73-1.05s1.94.33,2.58.99c.64.65.96,1.55.96,2.7v.83ZM43.34,83.36h2.99c-.04-.93-.53-1.5-1.45-1.5-.91,0-1.48.56-1.54,1.5"/>
          <path id="Path-11" data-name="Path" class="cls-1" d="M53.52,82.32c-1.21,0-1.97.68-1.97,1.71v3.76h-2.1v-7.42h2.03v.84c.39-.62,1.08-.92,2.04-.92v2.03Z"/>
          <path id="Path-12" data-name="Path" class="cls-1" d="M57.84,82.18v2.76c-.01.76.46,1.12,1.1,1.12.22,0,.43-.03.65-.07v1.87c-.38.06-.77.09-1.16.09-1.68,0-2.71-.83-2.7-2.5v-3.26s-1.33,0-1.33,0v-1.81h1.36v-2.46h2.11v2.46s1.72,0,1.72,0v1.81h-1.75Z"/>
          <path id="Shape-10" data-name="Shape" class="cls-1" d="M63.03,77.94c0,.34-.13.66-.37.89-.5.47-1.28.47-1.78,0-.8-.72-.16-2.21.89-2.15.34,0,.66.13.9.37.23.24.37.56.37.89M62.81,87.79h-2.1v-7.42h2.1v7.42Z"/>
          <path id="Shape-11" data-name="Shape" class="cls-1" d="M68.74,76.59v1.81c-.18-.01-.33-.03-.49-.03-.73,0-1.25.47-1.25,1.18v.82h1.72v1.81h-1.72v5.61h-2.08v-5.61h-1.35v-1.81h1.35v-.76c0-.93.27-1.67.83-2.23.56-.56,1.32-.83,2.25-.83.24,0,.49.01.73.04M72.3,77.94c0,.34-.13.66-.37.89-.5.47-1.28.47-1.78,0-.8-.72-.16-2.21.89-2.15.34,0,.66.13.9.37.24.24.37.56.37.89M72.09,87.79h-2.1v-7.42h2.1v7.42Z"/>
          <path id="Shape-12" data-name="Shape" class="cls-1" d="M80.43,84.75h-5.1c.04.93.62,1.51,1.55,1.51.75,0,1.21-.27,1.36-.82l2.11.1c-.13.7-.52,1.29-1.16,1.74-.63.44-1.38.68-2.25.68-1.14,0-2.08-.34-2.79-1.05-.7-.7-1.05-1.64-1.05-2.81s.34-2.12,1.05-2.81c.7-.7,1.61-1.05,2.73-1.05s1.94.33,2.58.99c.65.65.96,1.55.96,2.7v.83ZM75.33,83.36h2.99c-.04-.93-.53-1.5-1.45-1.5-.9,0-1.48.56-1.53,1.5"/>
          <path id="Shape-13" data-name="Shape" class="cls-1" d="M88.8,87.79h-1.97v-.76c-.42.53-1.22.92-2.21.92-1.05,0-1.91-.36-2.58-1.06-.66-.7-.99-1.64-.99-2.8s.33-2.09.99-2.8c.68-.7,1.54-1.06,2.58-1.06.93,0,1.64.26,2.09.79v-4.38h2.08v11.15h0ZM83.16,84.09c0,1.31.72,2.05,1.79,2.05s1.75-.7,1.75-1.9v-.33c0-1.16-.7-1.9-1.75-1.9-1.08,0-1.79.76-1.79,2.07"/>
          <path id="Shape-14" data-name="Shape" class="cls-2" d="M91.66,107h-.7v1.55h-.65v-1.55h-.7v-.62h2.06v.62ZM94.54,108.55h-.65v-.9l-.49.87h-.29l-.49-.87v.9h-.65v-2.18h.55l.73,1.32.73-1.32h.55v2.18h0Z"/>
        </g>
      </g>
    </g>
  </g>
  <g>
    <path class="cls-1" d="M35.03,97.46v-2.62l-1.03,2.62h-.72l-1.03-2.59v2.59h-.84v-3.96h1.15l1.09,2.67,1.03-2.67h1.21v3.96h-.87Z"/>
    <path class="cls-1" d="M39.12,96.66h-1.53l-.28.8h-.93l1.49-3.96h1.02l1.47,3.96h-.96l-.29-.8ZM37.88,95.85h.96l-.47-1.37-.49,1.37Z"/>
    <path class="cls-1" d="M42.05,95.99h-.31v1.47h-.88v-3.96h1.57c.78,0,1.28.54,1.28,1.24,0,.54-.3.94-.78,1.12l.8,1.6h-.97l-.71-1.47ZM42.26,95.23c.36,0,.56-.2.56-.48,0-.3-.19-.48-.56-.48h-.52v.96h.52Z"/>
    <path class="cls-1" d="M45.53,95.28s-.03-.19-.03-.3c0-.65.49-1.23,1.36-1.23s1.35.54,1.35,1.19c0,.47-.25.85-.72,1.13l-.69.41c-.11.07-.19.14-.25.25h1.67v.74h-2.75c0-.66.19-1.21.85-1.6l.59-.35c.28-.17.4-.32.4-.56s-.16-.43-.49-.43c-.34,0-.51.23-.51.54,0,.07.01.15.03.22h-.82Z"/>
    <path class="cls-1" d="M48.91,94.37c.24-.36.64-.62,1.23-.62s.99.26,1.23.62c.25.38.32.83.32,1.28s-.07.9-.32,1.28c-.24.36-.64.62-1.23.62s-.99-.26-1.23-.62c-.25-.38-.32-.83-.32-1.28s.07-.9.32-1.28ZM49.6,96.44c.1.2.26.34.53.34s.43-.13.53-.34c.11-.21.14-.5.14-.79s-.03-.57-.14-.79c-.1-.2-.26-.34-.53-.34s-.43.13-.53.34c-.1.21-.13.5-.13.79s.04.58.13.79Z"/>
    <path class="cls-1" d="M52.09,95.28s-.03-.19-.03-.3c0-.65.49-1.23,1.36-1.23s1.35.54,1.35,1.19c0,.47-.25.85-.72,1.13l-.69.41c-.11.07-.19.14-.25.25h1.67v.74h-2.75c0-.66.19-1.21.85-1.6l.59-.35c.28-.17.4-.32.4-.56s-.16-.43-.49-.43c-.34,0-.51.23-.51.54,0,.07.01.15.03.22h-.82Z"/>
    <path class="cls-1" d="M55.16,95.28s-.03-.19-.03-.3c0-.65.49-1.23,1.36-1.23s1.35.54,1.35,1.19c0,.47-.25.85-.72,1.13l-.69.41c-.11.07-.19.14-.25.25h1.67v.74h-2.75c0-.66.19-1.21.85-1.6l.59-.35c.28-.17.4-.32.4-.56s-.16-.43-.49-.43c-.34,0-.51.23-.51.54,0,.07.01.15.03.22h-.82Z"/>
    <path class="cls-1" d="M59.36,96.16v-.76h1.67v.76h-1.67Z"/>
    <path class="cls-1" d="M66.42,97.46v-2.62l-1.03,2.62h-.72l-1.03-2.59v2.59h-.84v-3.96h1.15l1.09,2.67,1.03-2.67h1.21v3.96h-.87Z"/>
    <path class="cls-1" d="M70.52,96.66h-1.53l-.28.8h-.93l1.49-3.96h1.02l1.48,3.96h-.96l-.29-.8ZM69.28,95.85h.96l-.47-1.37-.49,1.37Z"/>
    <path class="cls-1" d="M73.44,95.99h-.31v1.47h-.88v-3.96h1.57c.78,0,1.29.54,1.29,1.24,0,.54-.3.94-.78,1.12l.8,1.6h-.97l-.71-1.47ZM73.65,95.23c.36,0,.56-.2.56-.48,0-.3-.19-.48-.56-.48h-.52v.96h.52Z"/>
    <path class="cls-1" d="M76.92,95.28s-.03-.19-.03-.3c0-.65.49-1.23,1.36-1.23s1.35.54,1.35,1.19c0,.47-.25.85-.72,1.13l-.69.41c-.11.07-.19.14-.25.25h1.67v.74h-2.75c0-.66.19-1.21.85-1.6l.59-.35c.28-.17.4-.32.4-.56s-.16-.43-.49-.43c-.34,0-.51.23-.51.54,0,.07.01.15.03.22h-.82Z"/>
    <path class="cls-1" d="M80.3,94.37c.24-.36.64-.62,1.23-.62s.99.26,1.23.62c.25.38.32.83.32,1.28s-.07.9-.32,1.28c-.24.36-.64.62-1.23.62s-.99-.26-1.23-.62c-.25-.38-.32-.83-.32-1.28s.07-.9.32-1.28ZM80.99,96.44c.1.2.26.34.53.34s.43-.13.53-.34.14-.5.14-.79-.03-.57-.14-.79c-.1-.2-.26-.34-.53-.34s-.43.13-.53.34c-.1.21-.13.5-.13.79s.03.58.13.79Z"/>
    <path class="cls-1" d="M83.48,95.28s-.03-.19-.03-.3c0-.65.49-1.23,1.36-1.23s1.35.54,1.35,1.19c0,.47-.25.85-.72,1.13l-.69.41c-.11.07-.19.14-.25.25h1.67v.74h-2.75c0-.66.19-1.21.85-1.6l.59-.35c.28-.17.4-.32.4-.56s-.16-.43-.49-.43c-.34,0-.51.23-.51.54,0,.07.01.15.03.22h-.82Z"/>
    <path class="cls-1" d="M87.14,95.31l.89-.73h-1.51v-.74h2.61v.68l-.89.69c.56.04,1.02.49,1.02,1.1s-.53,1.22-1.42,1.22c-.84,0-1.38-.54-1.44-1.16l.85-.16c.01.32.24.57.58.57s.54-.23.54-.5c0-.35-.27-.49-.53-.49-.12,0-.24.04-.32.08l-.38-.58Z"/>
  </g>
  <g>
    <path class="cls-1" d="M51.49,108.8v-4.97h1.12v4.97h-1.12Z"/>
    <path class="cls-1" d="M56.83,108.8l-2.05-3.27v3.27h-1.1v-4.97h1.35l1.87,3.02v-3.02h1.11v4.97h-1.17Z"/>
    <path class="cls-1" d="M59.08,108.8v-4.97h1.8c1.49,0,2.5.95,2.5,2.49s-1,2.48-2.5,2.48h-1.8ZM60.83,107.76c.76,0,1.39-.44,1.39-1.44s-.62-1.44-1.39-1.44h-.64v2.88h.64Z"/>
    <path class="cls-1" d="M64.17,108.8v-4.97h1.12v4.97h-1.12Z"/>
    <path class="cls-1" d="M69.34,107.79h-1.92l-.36,1.01h-1.16l1.87-4.97h1.28l1.85,4.97h-1.21l-.36-1.01ZM67.78,106.78h1.21l-.6-1.72-.61,1.72Z"/>
  </g>
</svg>