<svg width="124" height="93" viewBox="0 0 124 93" fill="none" xmlns="http://www.w3.org/2000/svg">
<g clip-path="url(#clip0_2489_8219)">
<mask id="mask0_2489_8219" style="mask-type:luminance" maskUnits="userSpaceOnUse" x="0" y="0" width="124" height="93">
<path d="M123.267 0.0791016H0.335938V92.0791H123.267V0.0791016Z" fill="white"/>
</mask>
<g mask="url(#mask0_2489_8219)">
<path d="M61.8008 0.0791016C41.958 0.0791016 24.9938 12.5575 18.4219 30.0291H21.1828C27.619 13.997 43.3973 2.62516 61.8008 2.62516C80.2039 2.62516 95.9827 13.988 102.419 30.0291H105.18C98.6079 12.5575 81.6434 0.0791016 61.8008 0.0791016ZM61.8008 5.59407C45.0449 5.59407 30.6516 15.6523 24.3964 30.0291H99.2138C92.9586 15.6523 78.5748 5.59407 61.8098 5.59407H61.8008ZM102.419 62.1382C95.9827 78.1702 80.2039 89.5332 61.8008 89.5332C43.3973 89.5332 27.619 78.1702 21.1828 62.1382H18.4219C24.9848 79.6099 41.9489 92.0791 61.7917 92.0791C81.6347 92.0791 98.5984 79.6099 105.161 62.1382H102.401H102.419ZM24.3964 62.1382C30.6516 76.5148 45.0449 86.5734 61.8008 86.5734C78.5566 86.5734 92.9499 76.5148 99.2051 62.1382H24.3964Z" fill="white"/>
<path d="M48.4884 70.8557V66.6543H50.2298C50.5828 66.6543 50.8711 66.6968 51.0828 66.7819C51.2946 66.867 51.4653 66.9999 51.5888 67.1754C51.7123 67.351 51.7712 67.5371 51.7712 67.7286C51.7712 67.9094 51.7182 68.0796 51.6123 68.2338C51.5064 68.3933 51.3417 68.5209 51.124 68.6167C51.4064 68.6911 51.6182 68.8188 51.7712 68.9996C51.9242 69.1804 52.0006 69.3932 52.0006 69.6378C52.0006 69.8346 51.9535 70.0154 51.8653 70.1856C51.777 70.3558 51.6594 70.4834 51.524 70.5791C51.3887 70.6695 51.2182 70.7387 51.0123 70.7865C50.8064 70.8344 50.5592 70.8557 50.2651 70.8557H48.4942H48.4884ZM49.1002 68.4199H50.1062C50.3769 68.4199 50.5769 68.404 50.6945 68.3721C50.8534 68.3295 50.9711 68.2604 51.0476 68.1647C51.124 68.069 51.1652 67.9466 51.1652 67.7977C51.1652 67.6594 51.1299 67.5371 51.0534 67.4307C50.977 67.3244 50.8711 67.2499 50.7357 67.2127C50.6004 67.1754 50.3651 67.1542 50.0298 67.1542H49.1002V68.4252V68.4199ZM49.1002 70.3611H50.2592C50.4592 70.3611 50.6004 70.3558 50.6769 70.3398C50.8181 70.3185 50.9358 70.276 51.0299 70.2228C51.124 70.1696 51.2005 70.0899 51.2653 69.9888C51.324 69.8878 51.3593 69.7707 51.3593 69.6325C51.3593 69.4782 51.3123 69.34 51.224 69.223C51.1358 69.1059 51.0123 69.0262 50.8534 68.9783C50.6945 68.9305 50.471 68.9092 50.1709 68.9092H49.0944V70.3558L49.1002 70.3611ZM54.9657 70.4781C54.754 70.643 54.548 70.7546 54.3538 70.8238C54.1597 70.8929 53.9479 70.9248 53.7244 70.9248C53.3537 70.9248 53.0713 70.8451 52.8713 70.6802C52.6713 70.5153 52.5713 70.3079 52.5713 70.0526C52.5713 69.9037 52.6066 69.7654 52.6831 69.6431C52.7595 69.5208 52.8537 69.4198 52.9773 69.3453C53.1007 69.2708 53.236 69.2124 53.389 69.1751C53.5008 69.1485 53.6715 69.122 53.895 69.0953C54.3538 69.0475 54.6951 68.989 54.9127 68.9199V68.7869C54.9127 68.5742 54.8598 68.4305 54.748 68.3455C54.601 68.2284 54.3833 68.17 54.1009 68.17C53.8302 68.17 53.6362 68.2125 53.5067 68.2976C53.3773 68.3827 53.2832 68.5316 53.2243 68.7497L52.6654 68.6805C52.7184 68.4625 52.8007 68.2923 52.9184 68.1594C53.036 68.0264 53.2008 67.9253 53.4243 67.8509C53.642 67.7818 53.9009 67.7445 54.1891 67.7445C54.4774 67.7445 54.7127 67.7764 54.8893 67.8349C55.0657 67.8988 55.201 67.9732 55.2834 68.0636C55.3658 68.154 55.4246 68.271 55.4599 68.4146C55.4775 68.505 55.4893 68.6593 55.4893 68.8879V69.5739C55.4893 70.0526 55.5011 70.3558 55.5246 70.4834C55.5482 70.611 55.5952 70.7334 55.6717 70.8504H55.0775C55.0187 70.744 54.9775 70.6163 54.9657 70.4728V70.4781ZM54.9187 69.324C54.7127 69.3985 54.401 69.4676 53.9891 69.5208C53.7538 69.5527 53.5891 69.5847 53.489 69.6219C53.389 69.659 53.3184 69.7176 53.2655 69.7867C53.2126 69.8611 53.189 69.9409 53.189 70.0313C53.189 70.1696 53.2479 70.2813 53.3596 70.377C53.4773 70.4675 53.642 70.5153 53.8656 70.5153C54.0891 70.5153 54.2833 70.4728 54.4539 70.3824C54.6245 70.2919 54.748 70.175 54.8304 70.026C54.8893 69.909 54.9246 69.7388 54.9246 69.5102V69.3187L54.9187 69.324ZM56.1541 69.9462L56.7189 69.8664C56.7483 70.0686 56.8366 70.2281 56.9836 70.3345C57.1307 70.4409 57.3308 70.4993 57.5896 70.4993C57.8484 70.4993 58.0485 70.4515 58.172 70.3558C58.3014 70.2601 58.3603 70.1483 58.3603 70.0154C58.3603 69.8984 58.3014 69.808 58.1897 69.7388C58.1132 69.691 57.9191 69.6325 57.6072 69.5633C57.1895 69.4676 56.9013 69.3878 56.7366 69.3134C56.5865 69.252 56.4597 69.1522 56.3718 69.0262C56.2893 68.9027 56.2466 68.7609 56.2483 68.6167C56.2483 68.4837 56.2835 68.3561 56.3483 68.2391C56.4188 68.1221 56.513 68.0264 56.6307 67.9519C56.7189 67.8934 56.8424 67.8402 56.9954 67.803C57.1483 67.7604 57.3131 67.7392 57.4896 67.7392C57.7544 67.7392 57.9838 67.7711 58.1838 67.8402C58.3838 67.9094 58.5309 67.9998 58.625 68.1221C58.7192 68.2391 58.7839 68.3987 58.8192 68.5954L58.2603 68.6646C58.2416 68.5218 58.1638 68.3906 58.0426 68.2976C57.9191 68.2072 57.7484 68.1647 57.5249 68.1647C57.2602 68.1647 57.0778 68.2019 56.966 68.2817C56.8542 68.3614 56.7954 68.4519 56.7954 68.5582C56.7954 68.6273 56.8189 68.6858 56.866 68.739C56.913 68.7922 56.9836 68.8401 57.0836 68.8773C57.1425 68.8985 57.3072 68.9411 57.5896 69.0103C57.9955 69.106 58.272 69.1857 58.4367 69.2496C58.6015 69.3134 58.7192 69.4038 58.8133 69.5208C58.9016 69.6378 58.9486 69.7867 58.9486 69.9623C58.9486 70.1377 58.8956 70.2973 58.7839 70.4462C58.6721 70.6004 58.5133 70.7174 58.3014 70.7971C58.0897 70.8769 57.8544 70.9195 57.5896 70.9195C57.1542 70.9195 56.8189 70.8397 56.5894 70.6749C56.36 70.51 56.213 70.2654 56.1482 69.9462H56.1541ZM61.9314 69.8772L62.5196 69.9409C62.4256 70.2547 62.2549 70.494 62.002 70.6642C61.749 70.8344 61.4313 70.9195 61.0371 70.9195C60.5429 70.9195 60.1547 70.7812 59.8664 70.51C59.5781 70.2334 59.4311 69.8505 59.4311 69.3559C59.4311 68.8613 59.5781 68.4465 59.8664 68.1647C60.1606 67.8828 60.537 67.7392 61.0018 67.7392C61.4666 67.7392 61.8196 67.8775 62.1079 68.154C62.3902 68.4305 62.5373 68.8188 62.5373 69.324V69.4623H60.0252C60.0487 69.7974 60.1487 70.0526 60.337 70.2281C60.5253 70.4036 60.7606 70.494 61.043 70.494C61.2548 70.494 61.4313 70.4462 61.5784 70.3452C61.7254 70.244 61.8431 70.0899 61.9314 69.8718V69.8772ZM60.0605 69.0422H61.9431C61.9196 68.7869 61.8431 68.5954 61.7254 68.4678C61.5431 68.271 61.3078 68.17 61.0195 68.17C60.7547 68.17 60.537 68.2497 60.3606 68.4093C60.184 68.5688 60.084 68.7816 60.0664 69.0475L60.0605 69.0422ZM65.426 70.8557V70.4728C65.2141 70.7759 64.8965 70.9248 64.4846 70.9248C64.214 70.9248 63.9669 70.8557 63.7434 70.7228C63.5198 70.5898 63.3433 70.4036 63.2198 70.1643C63.0962 69.925 63.0315 69.6484 63.0315 69.34C63.0315 69.0315 63.0904 68.7603 63.2021 68.5156C63.3139 68.271 63.4845 68.0796 63.7081 67.9466C63.9316 67.8137 64.1846 67.7498 64.4611 67.7498C64.6611 67.7498 64.8435 67.7871 65.0024 67.8668C65.1612 67.9466 65.2907 68.0423 65.3907 68.17V66.6649H65.9554V70.8663H65.426V70.8557ZM63.6198 69.3347C63.6198 69.7229 63.708 70.0154 63.8904 70.2068C64.0728 70.3983 64.2846 70.494 64.5317 70.494C64.7788 70.494 64.9906 70.4036 65.1671 70.2175C65.3436 70.0313 65.426 69.7495 65.426 69.3719C65.426 68.9571 65.3377 68.6486 65.1612 68.4572C64.9847 68.2604 64.7671 68.1647 64.5023 68.1647C64.2376 68.1647 64.0375 68.2604 63.8669 68.4465C63.6963 68.6327 63.614 68.9305 63.614 69.3347H63.6198ZM68.444 69.3347C68.444 68.7709 68.6146 68.3561 68.9617 68.0849C69.25 67.8615 69.603 67.7445 70.0207 67.7445C70.4854 67.7445 70.862 67.8828 71.1561 68.154C71.4503 68.4305 71.5973 68.8081 71.5973 69.2921C71.5973 69.6857 71.5326 69.9941 71.4032 70.2175C71.2738 70.4409 71.0856 70.6163 70.8384 70.7387C70.5914 70.861 70.3207 70.9248 70.0265 70.9248C69.5559 70.9248 69.1735 70.7865 68.8852 70.5153C68.5969 70.244 68.4499 69.8505 68.4499 69.3347H68.444ZM69.0323 69.3347C69.0323 69.7229 69.1264 70.0154 69.3147 70.2122C69.503 70.4036 69.7383 70.5047 70.0265 70.5047C70.3148 70.5047 70.5443 70.4089 70.7325 70.2122C70.9208 70.0154 71.0149 69.7229 71.0149 69.3187C71.0149 68.9411 70.9208 68.6593 70.7325 68.4625C70.5443 68.2657 70.3089 68.17 70.0265 68.17C69.7442 68.17 69.503 68.2657 69.3147 68.4572C69.1264 68.6486 69.0323 68.9411 69.0323 69.3294V69.3347ZM72.2621 70.8557V67.8137H72.774V68.2444C73.021 67.9094 73.3799 67.7445 73.8447 67.7445C74.0447 67.7445 74.233 67.7765 74.4036 67.8455C74.5743 67.9147 74.6977 67.9998 74.786 68.1061C74.8683 68.2125 74.9272 68.3401 74.9625 68.4891C74.986 68.5848 74.9919 68.7497 74.9919 68.989V70.861H74.4213V69.0103C74.4213 68.7975 74.3977 68.6433 74.3566 68.537C74.3106 68.4325 74.2279 68.3446 74.1212 68.287C74.0094 68.2231 73.8741 68.1912 73.7212 68.1912C73.4799 68.1912 73.2682 68.2604 73.0917 68.3987C72.9152 68.537 72.8269 68.8028 72.8269 69.191V70.8557H72.2563H72.2621ZM44.5649 75.908L45.1826 76.0463C45.0532 76.5036 44.8238 76.8493 44.4884 77.0886C44.1531 77.328 43.7412 77.4503 43.2589 77.4503C42.7764 77.4503 42.3528 77.3598 42.0351 77.1737C41.7234 76.9876 41.4822 76.7217 41.3174 76.3707C41.1527 76.0197 41.0703 75.6474 41.0703 75.2432C41.0703 74.8071 41.1645 74.4242 41.3468 74.0998C41.5292 73.7754 41.7939 73.5254 42.1351 73.3552C42.4764 73.185 42.8529 73.1 43.2648 73.1C43.7295 73.1 44.1237 73.2064 44.4355 73.4191C44.7473 73.6318 44.9709 73.9349 45.1002 74.3231L44.4943 74.4508C44.3884 74.1477 44.2296 73.9243 44.0237 73.7807C43.8177 73.6424 43.5589 73.5733 43.2529 73.5733C42.8941 73.5733 42.5999 73.653 42.3587 73.8073C42.1175 73.9616 41.9528 74.169 41.8528 74.4296C41.7528 74.6901 41.7057 74.9613 41.7057 75.2379C41.7057 75.5942 41.7645 75.908 41.8763 76.1739C41.994 76.4398 42.1704 76.6419 42.4117 76.7695C42.6529 76.9025 42.9176 76.9663 43.2 76.9663C43.5471 76.9663 43.8354 76.8759 44.0766 76.6951C44.3178 76.5142 44.4767 76.2484 44.559 75.8974L44.5649 75.908ZM45.8533 77.3812V73.1797H46.424V77.3812H45.8533ZM49.5127 77.3812V76.9344C49.2478 77.2801 48.8949 77.4503 48.4419 77.4503C48.2419 77.4503 48.0595 77.4184 47.883 77.3492C47.7124 77.2801 47.583 77.195 47.5006 77.0886C47.4182 76.9822 47.3594 76.8546 47.3241 76.7057C47.3005 76.6047 47.2888 76.4452 47.2888 76.2217V74.3338H47.8594V76.0197C47.8594 76.2909 47.8713 76.4717 47.8947 76.5621C47.93 76.6951 48.0066 76.8068 48.1242 76.8812C48.2419 76.9557 48.383 76.9983 48.5536 76.9983C48.7243 76.9983 48.8831 76.961 49.0361 76.8812C49.1831 76.8014 49.295 76.6951 49.3538 76.5568C49.4185 76.4185 49.4479 76.2217 49.4479 75.9612V74.3284H50.0186V77.3705H49.5067L49.5127 77.3812ZM52.16 76.9185L52.2424 77.3759C52.0836 77.4078 51.9365 77.4237 51.8129 77.4237C51.607 77.4237 51.4482 77.3918 51.3305 77.3333C51.2246 77.2805 51.14 77.1985 51.0893 77.0993C51.0422 77.0036 51.0187 76.8014 51.0187 76.4877V74.738H50.601V74.3392H51.0187V73.584L51.5835 73.2754V74.3392H52.1542V74.738H51.5835V76.5196C51.5835 76.6685 51.5953 76.7589 51.6129 76.8014C51.6306 76.844 51.6659 76.8759 51.7129 76.9025C51.76 76.9291 51.8247 76.9397 51.907 76.9397C51.9718 76.9397 52.0542 76.9344 52.1542 76.9185H52.16ZM54.9192 76.2643L55.4781 76.3281C55.4193 76.6791 55.2604 76.9504 55.0074 77.1471C54.7545 77.3439 54.4427 77.4449 54.0779 77.4449C53.619 77.4449 53.2484 77.3067 52.966 77.0355C52.6836 76.7642 52.5483 76.3707 52.5483 75.8655C52.5483 75.5357 52.6072 75.2485 52.7307 75.0039C52.8542 74.7593 53.0367 74.5731 53.2778 74.4508C53.5249 74.3284 53.7896 74.2647 54.0838 74.2647C54.4485 74.2647 54.7487 74.3498 54.984 74.5146C55.2134 74.6795 55.3663 74.9188 55.431 75.2273L54.878 75.3071C54.8251 75.105 54.731 74.9507 54.5957 74.8444C54.4604 74.7433 54.3015 74.6901 54.1073 74.6901C53.8191 74.6901 53.5837 74.7805 53.4073 74.972C53.2307 75.1581 53.1367 75.4506 53.1367 75.8549C53.1367 76.259 53.2249 76.5621 53.3955 76.7483C53.5661 76.9344 53.7956 77.0248 54.0721 77.0248C54.2956 77.0248 54.4838 76.961 54.631 76.8387C54.778 76.7164 54.878 76.5249 54.9192 76.2643ZM55.9665 77.3812V73.1797H56.5371V74.6848C56.8018 74.4082 57.1372 74.2647 57.5431 74.2647C57.7902 74.2647 58.0079 74.3072 58.1902 74.3976C58.3727 74.488 58.508 74.6103 58.5844 74.7646C58.6609 74.9188 58.7021 75.1475 58.7021 75.4453V77.3759H58.1314V75.4453C58.1314 75.1901 58.0667 74.9986 57.9432 74.8816C57.8196 74.7646 57.6431 74.706 57.4196 74.706C57.249 74.706 57.0901 74.7433 56.943 74.8231C56.796 74.9029 56.69 75.0092 56.6253 75.1475C56.5607 75.2858 56.5312 75.4719 56.5312 75.7112V77.3759H55.9605L55.9665 77.3812ZM61.3731 77.3812V74.3392H61.8848V74.8018C62.0143 74.5837 62.1378 74.4455 62.2496 74.3763C62.3614 74.3072 62.485 74.2753 62.6143 74.2753C62.8085 74.2753 63.0026 74.3284 63.2027 74.4402L63.0085 74.9188C62.8673 74.8444 62.732 74.8071 62.5909 74.8071C62.4673 74.8071 62.3555 74.839 62.2555 74.9082C62.1555 74.9773 62.0849 75.0677 62.0437 75.1901C61.979 75.3708 61.9496 75.573 61.9496 75.791V77.3865H61.3789L61.3731 77.3812ZM65.8501 76.4026L66.4384 76.4664C66.3443 76.7802 66.1737 77.0195 65.9207 77.1897C65.6677 77.3598 65.3501 77.4449 64.9559 77.4449C64.4617 77.4449 64.0734 77.3067 63.7851 77.0355C63.4968 76.7589 63.3498 76.376 63.3498 75.8814C63.3498 75.3868 63.4968 74.972 63.7851 74.6901C64.0793 74.4082 64.4558 74.2647 64.9205 74.2647C65.3854 74.2647 65.7383 74.4029 66.0266 74.6795C66.309 74.956 66.456 75.3442 66.456 75.8495V75.9878H63.944C63.9675 76.3228 64.0675 76.5781 64.2557 76.7536C64.444 76.9291 64.6793 77.0195 64.9618 77.0195C65.1735 77.0195 65.3501 76.9716 65.4971 76.8706C65.6441 76.7695 65.7618 76.6154 65.8501 76.3973V76.4026ZM63.9793 75.5676H65.8619C65.8383 75.3124 65.7618 75.1209 65.6441 74.9932C65.4618 74.7965 65.2265 74.6954 64.9382 74.6954C64.6735 74.6954 64.4558 74.7752 64.2793 74.9348C64.1028 75.0943 64.0028 75.3071 63.9851 75.573L63.9793 75.5676ZM68.0916 77.3812L66.8091 74.3392H67.4091L68.1327 76.1633C68.2092 76.3601 68.2799 76.5621 68.3505 76.7748C68.4034 76.6154 68.4739 76.4238 68.5622 76.1952L69.3094 74.3392H69.8977L68.6211 77.3812H68.0857H68.0916ZM70.4036 73.7754V73.1797H70.9743V73.7754H70.4036ZM70.4036 77.3812V74.3392H70.9743V77.3812H70.4036ZM75.9279 77.3812L74.8984 74.3392H75.4866L76.0221 76.0941L76.2221 76.7483C76.228 76.7164 76.2868 76.5089 76.3986 76.1207L76.9339 74.3392H77.5222L78.0282 76.1048L78.1988 76.6844L78.393 76.0994L78.9695 74.3392H79.5225L78.4694 77.3812H77.8752L77.3399 75.557L77.2104 75.0358L76.528 77.3759H75.9338L75.9279 77.3812ZM74.0806 76.4026L74.669 76.4664C74.5748 76.7802 74.4042 77.0195 74.1512 77.1897C73.8982 77.3598 73.5806 77.4449 73.1864 77.4449C72.6922 77.4449 72.3039 77.3067 72.0156 77.0355C71.7273 76.7589 71.5803 76.376 71.5803 75.8814C71.5803 75.3868 71.7273 74.972 72.0156 74.6901C72.3098 74.4082 72.6863 74.2647 73.151 74.2647C73.6159 74.2647 73.9688 74.4029 74.2571 74.6795C74.5395 74.956 74.6866 75.3442 74.6866 75.8495V75.9878H72.1745C72.198 76.3228 72.298 76.5781 72.4863 76.7536C72.6745 76.9291 72.9098 77.0195 73.1923 77.0195C73.404 77.0195 73.5806 76.9716 73.7276 76.8706C73.8747 76.7695 73.9924 76.6154 74.0806 76.3973V76.4026ZM72.2098 75.5676H74.0924C74.0688 75.3124 73.9924 75.1209 73.8747 74.9932C73.6923 74.7965 73.457 74.6954 73.1687 74.6954C72.904 74.6954 72.6863 74.7752 72.5098 74.9348C72.3333 75.0943 72.2333 75.3071 72.2156 75.573L72.2098 75.5676ZM79.9163 76.4717L80.4818 76.3919C80.5111 76.594 80.5991 76.7536 80.7459 76.86C80.8934 76.9663 81.0933 77.0248 81.3518 77.0248C81.6111 77.0248 81.811 76.9769 81.9347 76.8812C82.064 76.7855 82.1227 76.6738 82.1227 76.5409C82.1227 76.4239 82.064 76.3335 81.9522 76.2643C81.876 76.2164 81.6817 76.158 81.37 76.0888C80.9521 75.9931 80.6642 75.9133 80.4992 75.8388C80.3493 75.7774 80.2224 75.6776 80.1344 75.5516C80.0519 75.4282 80.0091 75.2864 80.0107 75.1422C80.0107 75.0092 80.0464 74.8816 80.1106 74.7646C80.1812 74.6476 80.2756 74.5519 80.3929 74.4774C80.4818 74.4189 80.6047 74.3657 80.7578 74.3284C80.9108 74.2859 81.0758 74.2647 81.2519 74.2647C81.5168 74.2647 81.746 74.2966 81.9466 74.3657C82.1465 74.4349 82.2932 74.5253 82.3876 74.6476C82.482 74.7646 82.5462 74.9241 82.5819 75.1209L82.0228 75.1901C82.0045 75.0472 81.926 74.9161 81.8055 74.8231C81.6817 74.7327 81.5112 74.6901 81.2876 74.6901C81.0227 74.6901 80.8402 74.7274 80.7284 74.8071C80.6166 74.8869 80.5579 74.9773 80.5579 75.0836C80.5579 75.1528 80.5817 75.2113 80.6285 75.2645C80.6753 75.3177 80.7459 75.3655 80.8466 75.4028C80.9053 75.424 81.0695 75.4665 81.3518 75.5357C81.7579 75.6314 82.0347 75.7112 82.1996 75.7751C82.3638 75.8388 82.482 75.9292 82.5756 76.0463C82.6644 76.1633 82.7112 76.3122 82.7112 76.4877C82.7112 76.6632 82.658 76.8228 82.5462 76.9716C82.4344 77.1259 82.2758 77.2429 82.064 77.3226C81.8523 77.4024 81.6167 77.4449 81.3518 77.4449C80.9172 77.4449 80.5817 77.3652 80.3517 77.2003C80.1225 77.0355 79.9758 76.7908 79.9107 76.4717H79.9163Z" fill="#222222"/>
<path d="M0.335938 32.5752H123.267L113.979 46.0792L123.267 59.5922H0.335938L9.62365 46.0792L0.335938 32.5752Z" fill="white"/>
<path d="M50.1037 40.564L52.0477 44.342L56.2505 44.9834L53.1732 47.9557L53.9052 52.1326L50.1037 50.2084L46.3024 52.1326L47.0265 47.9557L43.957 44.9834L48.2464 44.342L50.1037 40.564ZM63.6093 40.564L65.4746 44.342L69.7561 44.9834L66.6866 47.9557L67.4107 52.1326L63.6093 50.2084L59.8079 52.1326L60.5399 47.9557L57.4626 44.9834L61.6731 44.342L63.6093 40.564ZM77.1148 40.564L78.9801 44.342L83.2612 44.9834L80.1919 47.9557L80.8375 52.1326L77.1148 50.2084L73.3134 52.1326L74.0454 47.9557L70.9681 44.9834L75.1787 44.342L77.1148 40.564ZM90.384 40.564L92.32 44.342L96.5306 44.9834L93.4534 47.9557L94.1854 52.1326L90.384 50.2084L86.5827 52.1326L87.3068 47.9557L84.2375 44.9834L88.5187 44.342L90.384 40.564Z" fill="#20201F"/>
<path d="M103.888 40.7207L105.776 44.3971L109.869 45.0228L106.879 47.9169L107.587 51.9843L103.888 50.107L100.189 51.9843L100.897 47.9169L97.9062 45.0228L102.077 44.3971L103.888 40.7207Z" fill="#222222" stroke="#222222" stroke-width="0.5" stroke-linecap="round" stroke-linejoin="round"/>
<mask id="mask1_2489_8219" style="mask-type:luminance" maskUnits="userSpaceOnUse" x="97" y="40" width="13" height="12">
<path d="M103.888 40.7207L105.776 44.3971L109.869 45.0228L106.879 47.9169L107.587 51.9843L103.888 50.107L100.189 51.9843L100.897 47.9169L97.9062 45.0228L102.077 44.3971L103.888 40.7207Z" fill="white"/>
</mask>
<g mask="url(#mask1_2489_8219)">
<path d="M107.137 42.9268H110.687V48.1049H107.137V42.9268Z" fill="white" stroke="#222222" stroke-width="0.5" stroke-linecap="round" stroke-linejoin="round"/>
</g>
<path d="M21.0384 47.86H22.3489V49.7058H21.0384V52.2043H18.737V49.7058H13.9904L13.8945 48.2737L18.721 40.6831H21.0384V47.86ZM16.1799 47.86H18.737V43.8021L18.5772 44.0567L16.1639 47.86H16.1799Z" fill="#17313B"/>
<path d="M23.9652 51.0745C23.9652 50.7084 24.0931 50.422 24.3328 50.1833C24.5725 49.9446 24.8921 49.8491 25.2597 49.8491C25.6273 49.8491 25.947 49.9606 26.1867 50.1833C26.4265 50.4061 26.5543 50.7084 26.5543 51.0745C26.5543 51.4405 26.4265 51.7269 26.1867 51.9497C25.947 52.1724 25.6273 52.2839 25.2438 52.2839C24.8603 52.2839 24.5566 52.1724 24.3168 51.9497C24.0771 51.7269 23.9492 51.4405 23.9492 51.0745H23.9652Z" fill="#17313B"/>
<path d="M36.4913 41.9564L32.0164 52.1887H29.5871L34.0621 42.5134H28.3086V40.6675H36.4753V41.9406L36.4913 41.9564Z" fill="#17313B"/>
<path d="M51.6094 13.5742H53.5008V25.1799H51.6094V13.5742Z" fill="#17313B"/>
<path d="M60.0793 21.5017C60.0793 23.2999 58.5991 23.4633 58.1057 23.4633C56.9543 23.4633 56.7898 22.4008 56.7898 21.8286V17.3335H54.8984V21.747C54.8984 22.8094 55.2273 23.7902 55.8852 24.3623C56.4609 24.9344 57.2011 25.1796 58.1057 25.1796C58.7635 25.1796 59.5859 25.0161 60.0793 24.5258V25.1796H61.9708V17.3335H60.0793V21.5017Z" fill="#17313B"/>
<path d="M65.6723 14.4731H63.7808V17.3337H62.3828V19.1318H63.7808V25.1798H65.6723V19.1318H67.0703V17.3337H65.6723V14.4731Z" fill="#17313B"/>
<path d="M72.9904 22.8099C72.5793 23.1368 72.0037 23.382 71.428 23.382C70.1122 23.382 69.2076 22.4012 69.2076 21.0935C69.2076 19.7858 70.1122 18.8868 71.428 18.8868C72.0037 18.8868 72.5793 19.0502 72.9904 19.4589L73.2372 19.7041L74.5529 18.4782L74.224 18.2329C73.4839 17.5791 72.4971 17.1704 71.428 17.1704C69.1253 17.1704 67.3984 18.8868 67.3984 21.1753C67.3984 23.4637 69.1253 25.18 71.428 25.18C72.4971 25.18 73.4839 24.7714 74.224 24.1175L74.5529 23.8724L73.2372 22.5646L72.9904 22.8099Z" fill="#17313B"/>
<path d="M81.2133 17.9877C80.6383 17.4156 80.0625 17.1704 79.1577 17.1704C78.4998 17.1704 77.8419 17.3338 77.3485 17.8242V13.5742H75.457V25.1799H77.3485V20.8482C77.3485 19.0502 78.582 18.8867 79.0755 18.8867C80.2267 18.8867 80.1442 19.9493 80.1442 20.5213V25.0983H82.0357V20.6031C82.0357 19.5406 81.7891 18.5598 81.2133 17.9877Z" fill="#17313B"/>
<path d="M71.347 22.4825C72.0737 22.4825 72.6628 21.8971 72.6628 21.1749C72.6628 20.4527 72.0737 19.8672 71.347 19.8672C70.6204 19.8672 70.0312 20.4527 70.0312 21.1749C70.0312 21.8971 70.6204 22.4825 71.347 22.4825Z" fill="#20201F"/>
<path d="M48.9771 22.319C48.3192 22.9728 47.3324 23.3815 46.2633 23.3815C44.2074 23.3815 42.7271 21.7469 42.7271 19.5401C42.7271 17.3335 44.2074 15.6988 46.3456 15.6988C47.3324 15.6988 48.3192 16.1075 49.0593 16.843L49.3061 17.0882L50.5396 15.8623L50.2929 15.6171C49.2238 14.5546 47.8258 13.9825 46.3456 13.9825C43.2206 13.9008 40.918 16.3526 40.918 19.5401C40.918 22.7276 43.2206 25.1796 46.2633 25.1796C47.7436 25.1796 49.2238 24.6074 50.2107 23.545L50.4573 23.2998L49.2238 22.0738L48.9771 22.319Z" fill="#17313B"/>
</g>
</g>
<defs>
<clipPath id="clip0_2489_8219">
<rect width="122.931" height="92" fill="white" transform="translate(0.335938 0.0791016)"/>
</clipPath>
</defs>
</svg>
