<svg width="111" height="83" viewBox="0 0 111 83" fill="none" xmlns="http://www.w3.org/2000/svg">
<path d="M104.333 29.2341C103.371 26.9814 101.384 24.969 98.9759 23.5198C92.0127 19.5926 81.3988 19.3074 74.2243 22.8666C70.3115 24.6386 67.7343 28.1453 66.9399 31.7645C65.4863 37.7042 65.8667 44.7627 71.013 49.2153C77.013 53.8934 85.7509 54.9222 93.5169 52.9998C93.8891 52.9398 95.0546 52.6769 95.866 52.294L96.0947 52.204C98.5031 51.3103 100.81 49.8612 102.526 47.9012C106.488 42.7502 106.759 35.0311 104.351 29.2341M91.6912 42.5625C91.4213 43.6888 90.5678 44.8527 89.2239 45.2807C87.086 46.1143 84.1875 45.889 82.2101 44.9053C80.5452 43.869 80.334 42.1419 80.1228 40.505C79.9623 37.2761 79.7004 33.8672 80.7144 30.916C81.5086 29.0915 83.7059 28.6183 85.7002 28.4832C87.7875 28.4832 89.824 28.7686 91.1085 30.2629C91.9113 31.3367 91.8606 32.7408 92.0213 34.0023C91.962 36.6679 92.2328 39.8441 91.6998 42.5625M28.1855 45.4684C26.4193 45.3708 24.4334 45.5134 22.7179 45.3257L22.7686 28.9038L22.8785 28.7686L28.1855 28.7236C28.2446 26.0577 28.2953 23.197 28.1263 20.7715L7.92944 20.719L4.59989 20.7715C4.54919 23.2495 4.54919 26.1478 4.59989 28.6785C6.42522 28.7311 8.13225 28.6785 9.90687 28.8211V44.725L9.85617 45.3782L4.54919 45.4758C4.43933 48.0515 4.43933 50.6271 4.54919 53.1952H28.177V45.4758L28.1855 45.4684ZM87.6692 56.6942C85.4212 59.5551 82.5818 62.3109 79.4805 64.4585C79.3707 64.6012 79.0496 64.5486 78.9482 64.4135C77.6045 63.67 76.1595 63.0544 74.8664 62.3109C76.582 60.4864 78.2467 58.6616 79.5312 56.6416H77.8664C76.5313 58.3763 75.137 60.2009 73.3708 61.7402C71.013 60.8993 68.8667 60.1484 66.4581 59.5853L66.1877 59.4051C66.5595 58.4589 67.261 57.5728 67.4721 56.6342H66.0273L64.582 59.1647C61.4216 58.5565 57.9399 58.226 54.7203 58.0383C54.5598 57.6179 54.7711 57.0095 54.5598 56.6342H53.1654C53.0555 57.1974 53.3259 57.6179 53.0048 58.0908C49.6839 58.226 46.4641 58.5565 43.3627 59.127L41.9092 56.6416C41.3769 56.6416 40.7853 56.5515 40.4136 56.6942L41.7487 59.4576L41.5881 59.5928C39.1883 60.2083 36.822 60.9444 34.5149 61.7929L34.3036 61.6951C32.7996 60.2459 31.3544 58.6616 30.1714 57.0698C29.9095 56.2663 28.8361 56.7392 28.2446 56.6416C29.5291 58.7066 31.2446 60.5237 32.9601 62.401C31.5149 63.152 30.07 63.9928 28.5657 64.6012C25.2869 62.3861 22.4306 59.7128 20.0982 56.6942C19.4561 56.604 19.0335 56.6417 18.3828 56.6942C22.2448 62.0257 28.2446 66.7038 34.5149 69.467C34.5149 69.467 34.5149 69.4219 34.5742 69.4219C34.6333 69.4219 34.7263 69.512 34.6163 69.5571C38.8501 71.3816 43.3544 72.6882 48.1205 73.2589C64.5737 75.1738 80.2749 68.9564 89.3761 56.6942C88.81 56.6417 88.2354 56.6417 87.6609 56.6942M65.3258 60.9068L65.4863 60.8092C67.7934 61.2746 69.9905 61.9355 72.0271 62.8214C70.3116 64.5486 68.1145 66.0504 66.078 67.3118C64.8443 67.9652 63.6103 68.6709 62.3259 69.2342L60.0274 68.3481L60.1879 68.0252C62.1231 65.735 63.8386 63.3922 65.3342 60.9142M54.7626 59.5026C57.8217 59.5551 60.8722 59.833 63.7117 60.4413L63.7708 60.5839C62.2752 63.1069 60.3907 65.5473 58.3626 67.8375C57.4499 67.9351 56.5964 67.6123 55.6837 67.5598L54.7711 67.462C54.6696 64.6988 54.6105 62.2658 54.7711 59.5101M44.4275 60.3435C47.2162 59.878 50.1063 59.5026 53.1062 59.5026L53.1654 67.4169C52.0415 67.6422 50.8077 67.6422 49.7346 67.8826C47.5373 65.5849 45.7204 63.0994 44.1656 60.5314L44.4359 60.3435H44.4275ZM35.7995 62.8742C37.8952 61.9806 40.0923 61.3198 42.3403 60.8092L42.5599 60.8617C44.1065 63.4372 46.0417 65.8702 47.9684 68.303C47.2246 68.6784 46.312 68.9036 45.5598 69.2868C41.9347 67.695 38.6389 65.5774 35.808 63.0168V62.8817L35.7995 62.8742ZM42.712 70.8711C38.2078 69.8348 34.0248 68.0628 30.1714 65.6299V65.4873C31.4559 64.7888 32.7489 64.0379 34.1347 63.5199C37.1937 66.193 40.3544 68.2055 43.7768 70.1202C43.5064 70.3982 43.0837 70.6834 42.712 70.8711ZM62.5878 71.4718C56.909 72.553 50.5795 72.598 44.9091 71.3816C44.7993 71.1489 45.1797 71.0964 45.3402 70.9612C50.3259 68.1004 58.092 68.1004 62.9682 71.1865C63.1287 71.4718 62.6977 71.3816 62.5878 71.4718ZM67.7343 70.1728L65.2159 70.8711C64.7849 70.6834 64.4131 70.4057 64.033 70.1202L64.1428 69.9775C67.5736 68.2055 70.6836 66.0504 73.6244 63.4748C75.0693 63.9853 76.4637 64.6913 77.7565 65.4873C74.7567 67.6048 71.2665 69.0014 67.7343 70.1728ZM19.9884 17.1523C21.3152 15.5228 22.7602 13.9759 24.332 12.5192C25.7179 11.3478 27.0108 10.229 28.5151 9.38045C29.9095 10.1764 31.4643 10.8372 32.7996 11.5806C31.1432 13.3978 29.4277 15.2299 28.1939 17.1898C28.5657 17.3325 29.2672 17.2875 29.7994 17.1898C31.1348 15.4627 32.5797 13.7282 34.3036 12.1888C36.6024 12.9397 38.8586 13.7357 41.2164 14.2988L41.4276 14.4866L40.0923 17.1973C40.6839 17.2949 41.0556 17.2498 41.6473 17.1973C42.129 16.4088 42.5008 15.5228 43.0331 14.7194C46.1431 15.3275 49.4133 15.658 52.7345 15.7482C53.1569 16.0784 52.8443 16.7766 53.0048 17.1973H54.45C54.6105 16.7393 54.3993 16.2136 54.6105 15.8007C57.7202 15.658 60.9908 15.3725 63.9991 14.7194L64.261 14.7719L65.7062 17.1973C66.1877 17.1973 66.8301 17.2949 67.2102 17.0998L65.8667 14.3966L65.9765 14.2988C68.4355 13.7357 70.7427 12.8946 73.1002 12.0537C74.7651 13.6005 76.3201 15.4176 77.7143 17.1898C78.2975 17.1898 78.8891 17.2423 79.32 17.092C78.6608 16.0483 77.8834 15.0646 77.013 14.1486C76.3032 13.2551 75.5172 12.4066 74.6552 11.6257V11.3854L78.4073 9.47059L78.9482 9.28289C82.2101 11.4754 85.0663 14.1111 87.4073 17.092C88.0494 17.092 88.5903 17.2875 89.1226 17.0547C81.9313 7.51828 70.0919 1.38348 57.2978 0.497411L57.2387 0.587518L57.1286 0.497411C55.6837 0.36225 53.9091 0.302186 52.3541 0.444863C51.7628 0.407304 51.0697 0.444863 50.3767 0.497411C37.515 1.38348 25.6756 7.23292 18.2814 17.1973C18.8138 17.1523 19.4645 17.34 19.9969 17.1523M42.2304 13.0449L42.019 13.0824C39.8219 12.5718 37.6756 11.956 35.639 11.1676L35.7404 10.8898C38.6896 8.41183 41.791 6.34688 45.222 4.76249C46.0332 5.04033 46.8358 5.27309 47.6387 5.61099L47.4781 5.97894C45.4416 8.23162 43.8359 10.657 42.2304 13.0524M52.895 14.2988C51.3992 14.4866 50.0556 14.2536 48.5513 14.1561C47.1148 13.9684 45.2895 13.8333 43.8359 13.4053C45.3909 10.8448 47.2162 8.35926 49.4133 6.06905L52.8443 6.48204C53.0048 8.90741 52.895 11.7232 52.895 14.2988ZM54.5514 14.3514C54.4413 11.866 54.5007 9.11018 54.5514 6.53459C55.6246 6.39943 56.7991 6.24926 57.8724 6.1141C59.9596 8.44937 62.0049 10.8448 63.399 13.4053C60.5006 14.0284 57.5342 14.3438 54.5514 14.3514ZM71.6469 11.07C69.551 11.8584 67.4047 12.6093 65.1062 13.0373C63.4498 10.5594 61.6244 8.08145 59.5795 5.68609C60.3316 5.31815 61.2443 5.04033 62.0469 4.66487C65.537 6.20421 68.909 8.40432 71.7484 10.9198L71.6469 11.0625V11.07ZM64.7849 3.07298C69.289 4.1017 73.523 5.88131 77.3764 8.31421L77.2666 8.50194L73.5737 10.3266H73.3031C70.4637 7.81112 67.1427 5.61099 63.7624 3.87643C63.8722 3.54605 64.4047 3.31326 64.7765 3.0805M62.6469 2.59992V2.69754C57.9822 5.68609 50.4274 5.96393 45.5007 3.20814C45.222 3.02041 44.6978 2.9303 44.6387 2.59992C50.3259 1.43604 57.0188 1.33842 62.6469 2.59992ZM29.9602 8.40432C33.3403 6.20421 37.0923 4.56727 41.0556 3.44842C41.2164 3.30577 41.3178 3.16309 41.529 3.16309V3.26071C41.9599 3.35082 42.2812 2.9303 42.6529 3.20814C42.974 3.44842 43.3543 3.63615 43.6163 3.86893C40.295 5.6936 37.0248 7.84866 34.0249 10.4618C32.5797 10.0037 31.2446 9.29788 29.9516 8.50194V8.41183L29.9602 8.40432ZM52.9457 45.8288C47.9093 47.0452 42.4416 46.1218 38.7994 42.7427C38.377 42.277 38.098 41.7139 37.6756 41.2485L30.4418 41.2935C30.3235 45.0855 30.2812 49.4331 30.4418 53.18L38.4784 53.1349L38.5882 50.8899C39.5009 51.2653 40.4136 51.7308 41.3262 52.1514C46.8952 54.2162 54.0696 54.6819 59.5963 52.1514C63.6187 50.1915 65.7653 46.3995 65.1736 42.3221C64.5907 38.3498 60.2977 34.7456 55.9625 33.7619L42.991 30.4356L42.0276 30.015C41.5965 29.6921 41.3262 29.2717 41.436 28.7534C42.4501 27.2141 44.8163 27.6797 46.5823 27.7247C50.3344 28.1904 54.1879 29.3167 56.3852 32.3578C58.7427 32.3578 61.4723 32.3953 64.0414 32.3053C64.1512 28.4682 63.9991 25.1041 63.9315 21.2221C61.523 21.1696 58.5738 21.1696 56.1652 21.2746C56.0555 21.8304 56.2667 22.6262 56.0048 23.1895L53.5458 22.0181C47.6471 19.8179 39.3995 19.5926 34.0417 23.0093C30.56 25.2544 29.4868 29.2792 30.3995 32.8309C31.0925 36.1948 34.7347 38.6805 38.2249 39.8441C42.991 41.3385 47.9767 42.4199 52.802 43.869C53.2838 44.0567 53.9259 44.4847 53.8161 44.9954C53.8161 45.4083 53.3345 45.6486 52.9625 45.8288" fill="white"/>
<path d="M76.4975 78.2521C76.5444 77.9502 76.635 77.686 76.7693 77.4596C76.9036 77.2303 77.0707 77.0402 77.2705 76.8893C77.4736 76.7354 77.7047 76.6208 77.9639 76.5453C78.2263 76.4669 78.5074 76.4277 78.8072 76.4277C79.1195 76.4277 79.4006 76.4698 79.6505 76.554C79.9035 76.6353 80.119 76.7499 80.297 76.898C80.475 77.0431 80.6109 77.2144 80.7046 77.4117C80.8014 77.6091 80.8498 77.8225 80.8498 78.0518C80.8498 78.2521 80.8248 78.4291 80.7748 78.583C80.728 78.7339 80.6593 78.866 80.5687 78.9792C80.4781 79.0924 80.3657 79.1882 80.2314 79.2666C80.0971 79.3449 79.9456 79.4102 79.777 79.4625C80.183 79.5815 80.4859 79.7629 80.6858 80.0067C80.8857 80.2506 80.9857 80.5568 80.9857 80.9254C80.9857 81.2389 80.9232 81.5161 80.7983 81.757C80.6733 81.998 80.5047 82.2012 80.2923 82.3666C80.0799 82.5292 79.8332 82.6525 79.5521 82.7367C79.2741 82.8209 78.979 82.863 78.6666 82.863C78.3262 82.863 78.0295 82.8267 77.7765 82.7541C77.5235 82.6815 77.3033 82.5741 77.1159 82.4319C76.9286 82.2897 76.7693 82.1155 76.6381 81.9094C76.5069 81.7033 76.3945 81.4653 76.3008 81.1954L76.8114 80.9994C76.9457 80.9472 77.0707 80.9341 77.1862 80.9603C77.3049 80.9835 77.3908 81.0415 77.4439 81.1344C77.5001 81.236 77.561 81.3362 77.6266 81.4348C77.6953 81.5335 77.7765 81.6221 77.8702 81.7004C77.9639 81.7759 78.0732 81.8383 78.1982 81.8877C78.3262 81.9341 78.4777 81.9573 78.6526 81.9573C78.8494 81.9573 79.0211 81.9283 79.1679 81.8703C79.3147 81.8093 79.4365 81.7309 79.5333 81.6351C79.6333 81.5393 79.7067 81.4334 79.7535 81.3173C79.8035 81.1983 79.8285 81.0793 79.8285 80.9603C79.8285 80.8093 79.8113 80.6729 79.777 80.551C79.7426 80.4262 79.6708 80.3202 79.5615 80.2331C79.4521 80.1461 79.2944 80.0778 79.0883 80.0285C78.8853 79.9792 78.612 79.9545 78.2684 79.9545V79.1882C78.5526 79.1853 78.7885 79.1606 78.9758 79.1142C79.1632 79.0677 79.3116 79.0039 79.4209 78.9226C79.5333 78.8384 79.6114 78.7383 79.6552 78.6222C79.6989 78.506 79.7207 78.3783 79.7207 78.239C79.7207 77.9429 79.6317 77.718 79.4537 77.5641C79.2757 77.4103 79.0383 77.3334 78.7416 77.3334C78.6042 77.3334 78.4777 77.3522 78.3621 77.39C78.2466 77.4248 78.1419 77.4756 78.0482 77.5424C77.9577 77.6062 77.8811 77.6817 77.8187 77.7688C77.7562 77.8559 77.7094 77.9516 77.6781 78.0561C77.625 78.1897 77.5548 78.2782 77.4673 78.3217C77.383 78.3653 77.2627 78.3754 77.1066 78.3522L76.4975 78.2521Z" fill="white"/>
<path d="M75.407 81.9879V82.7934H71.6591V81.9879H73.0318V78.3175C73.0318 78.1723 73.0365 78.0228 73.0458 77.869L72.0714 78.6266C72.0152 78.6672 71.9589 78.6934 71.9027 78.705C71.8496 78.7137 71.7981 78.7137 71.7481 78.705C71.7013 78.6963 71.6591 78.6817 71.6216 78.6614C71.5841 78.6382 71.556 78.6135 71.5373 78.5874L71.1719 78.1215L73.2379 76.4888H74.1889V81.9879H75.407Z" fill="white"/>
<path d="M70.3234 79.6453C70.3234 80.194 70.2594 80.6714 70.1313 81.0778C70.0064 81.4813 69.8315 81.8151 69.6066 82.0792C69.3849 82.3434 69.1209 82.5408 68.8149 82.6714C68.5119 82.7991 68.184 82.863 67.831 82.863C67.4781 82.863 67.1502 82.7991 66.8472 82.6714C66.5474 82.5408 66.2866 82.3434 66.0648 82.0792C65.8431 81.8151 65.6697 81.4813 65.5448 81.0778C65.4199 80.6714 65.3574 80.194 65.3574 79.6453C65.3574 79.0938 65.4199 78.6164 65.5448 78.2129C65.6697 77.8094 65.8431 77.4756 66.0648 77.2115C66.2866 76.9473 66.5474 76.7514 66.8472 76.6237C67.1502 76.493 67.4781 76.4277 67.831 76.4277C68.184 76.4277 68.5119 76.493 68.8149 76.6237C69.1209 76.7514 69.3849 76.9473 69.6066 77.2115C69.8315 77.4756 70.0064 77.8094 70.1313 78.2129C70.2594 78.6164 70.3234 79.0938 70.3234 79.6453ZM69.1287 79.6453C69.1287 79.1896 69.0928 78.8123 69.021 78.5133C68.9492 78.2143 68.8523 77.9763 68.7305 77.7992C68.6119 77.6222 68.4744 77.4988 68.3183 77.4292C68.1621 77.3566 67.9997 77.3203 67.831 77.3203C67.6655 77.3203 67.5047 77.3566 67.3485 77.4292C67.1955 77.4988 67.0596 77.6222 66.9409 77.7992C66.8222 77.9763 66.727 78.2143 66.6551 78.5133C66.5864 78.8123 66.5521 79.1896 66.5521 79.6453C66.5521 80.1011 66.5864 80.4784 66.6551 80.7774C66.727 81.0764 66.8222 81.3144 66.9409 81.4915C67.0596 81.6685 67.1955 81.7933 67.3485 81.8659C67.5047 81.9356 67.6655 81.9704 67.831 81.9704C67.9997 81.9704 68.1621 81.9356 68.3183 81.8659C68.4744 81.7933 68.6119 81.6685 68.7305 81.4915C68.8523 81.3144 68.9492 81.0764 69.021 80.7774C69.0928 80.4784 69.1287 80.1011 69.1287 79.6453Z" fill="white"/>
<path d="M64.2828 81.7919C64.4077 81.7919 64.5061 81.8253 64.5779 81.892C64.6529 81.9559 64.6904 82.0415 64.6904 82.1489V82.7933H60.043V82.4363C60.043 82.3637 60.0586 82.2882 60.0898 82.2099C60.1242 82.1286 60.1773 82.056 60.2491 81.9922L62.3058 80.0764C62.4775 79.9138 62.6306 79.7586 62.7649 79.6105C62.9023 79.4625 63.0163 79.3159 63.1069 79.1708C63.1975 79.0256 63.2662 78.879 63.313 78.731C63.363 78.5801 63.388 78.4219 63.388 78.2564C63.388 78.1055 63.3645 77.9734 63.3177 77.8602C63.2708 77.7441 63.2037 77.6469 63.1162 77.5685C63.0319 77.4901 62.9289 77.4321 62.807 77.3943C62.6884 77.3537 62.5541 77.3334 62.4041 77.3334C62.2667 77.3334 62.1387 77.3522 62.02 77.39C61.9044 77.4248 61.8014 77.4756 61.7108 77.5424C61.6202 77.6062 61.5437 77.6817 61.4812 77.7688C61.4188 77.8559 61.3719 77.9516 61.3407 78.0561C61.2876 78.1897 61.2189 78.2782 61.1345 78.3217C61.0502 78.3653 60.9284 78.3754 60.7691 78.3522L60.1601 78.2521C60.2069 77.9502 60.2975 77.686 60.4318 77.4596C60.5661 77.2303 60.7332 77.0402 60.9331 76.8893C61.1361 76.7354 61.3672 76.6208 61.6265 76.5453C61.8888 76.4669 62.1699 76.4277 62.4697 76.4277C62.7821 76.4277 63.0678 76.4713 63.3271 76.5584C63.5863 76.6425 63.808 76.763 63.9923 76.9197C64.1766 77.0765 64.3203 77.2652 64.4233 77.4858C64.5264 77.7064 64.5779 77.9516 64.5779 78.2216C64.5779 78.4538 64.5404 78.6686 64.4655 78.866C64.3937 79.0634 64.2953 79.252 64.1703 79.432C64.0485 79.612 63.9049 79.7861 63.7393 79.9545C63.5738 80.1228 63.4005 80.2941 63.2193 80.4683L61.692 81.9181C61.8388 81.8775 61.9841 81.847 62.1277 81.8267C62.2745 81.8035 62.4135 81.7919 62.5447 81.7919H64.2828Z" fill="white"/>
<path d="M56.7246 79.7153H59.1514V80.6123H56.7246V79.7153Z" fill="white"/>
<path d="M55.6062 81.9879V82.7934H51.8583V81.9879H53.231V78.3175C53.231 78.1723 53.2357 78.0228 53.245 77.869L52.2706 78.6266C52.2144 78.6672 52.1582 78.6934 52.1019 78.705C52.0488 78.7137 51.9973 78.7137 51.9473 78.705C51.9005 78.6963 51.8583 78.6817 51.8208 78.6614C51.7834 78.6382 51.7553 78.6135 51.7365 78.5874L51.3711 78.1215L53.4371 76.4888H54.3882V81.9879H55.6062Z" fill="white"/>
<path d="M50.5207 79.6453C50.5207 80.194 50.4566 80.6714 50.3286 81.0778C50.2036 81.4813 50.0287 81.8151 49.8039 82.0792C49.5821 82.3434 49.3182 82.5408 49.0121 82.6714C48.7092 82.7991 48.3812 82.863 48.0283 82.863C47.6754 82.863 47.3474 82.7991 47.0445 82.6714C46.7446 82.5408 46.4839 82.3434 46.2621 82.0792C46.0404 81.8151 45.867 81.4813 45.7421 81.0778C45.6172 80.6714 45.5547 80.194 45.5547 79.6453C45.5547 79.0938 45.6172 78.6164 45.7421 78.2129C45.867 77.8094 46.0404 77.4756 46.2621 77.2115C46.4839 76.9473 46.7446 76.7514 47.0445 76.6237C47.3474 76.493 47.6754 76.4277 48.0283 76.4277C48.3812 76.4277 48.7092 76.493 49.0121 76.6237C49.3182 76.7514 49.5821 76.9473 49.8039 77.2115C50.0287 77.4756 50.2036 77.8094 50.3286 78.2129C50.4566 78.6164 50.5207 79.0938 50.5207 79.6453ZM49.326 79.6453C49.326 79.1896 49.2901 78.8123 49.2183 78.5133C49.1464 78.2143 49.0496 77.9763 48.9278 77.7992C48.8091 77.6222 48.6717 77.4988 48.5155 77.4292C48.3594 77.3566 48.197 77.3203 48.0283 77.3203C47.8628 77.3203 47.7019 77.3566 47.5458 77.4292C47.3927 77.4988 47.2569 77.6222 47.1382 77.7992C47.0195 77.9763 46.9242 78.2143 46.8524 78.5133C46.7837 78.8123 46.7493 79.1896 46.7493 79.6453C46.7493 80.1011 46.7837 80.4784 46.8524 80.7774C46.9242 81.0764 47.0195 81.3144 47.1382 81.4915C47.2569 81.6685 47.3927 81.7933 47.5458 81.8659C47.7019 81.9356 47.8628 81.9704 48.0283 81.9704C48.197 81.9704 48.3594 81.9356 48.5155 81.8659C48.6717 81.7933 48.8091 81.6685 48.9278 81.4915C49.0496 81.3144 49.1464 81.0764 49.2183 80.7774C49.2901 80.4784 49.326 80.1011 49.326 79.6453Z" fill="white"/>
<path d="M45.0871 79.6453C45.0871 80.194 45.023 80.6714 44.895 81.0778C44.7701 81.4813 44.5952 81.8151 44.3703 82.0792C44.1485 82.3434 43.8846 82.5408 43.5785 82.6714C43.2756 82.7991 42.9476 82.863 42.5947 82.863C42.2418 82.863 41.9138 82.7991 41.6109 82.6714C41.3111 82.5408 41.0503 82.3434 40.8285 82.0792C40.6068 81.8151 40.4334 81.4813 40.3085 81.0778C40.1836 80.6714 40.1211 80.194 40.1211 79.6453C40.1211 79.0938 40.1836 78.6164 40.3085 78.2129C40.4334 77.8094 40.6068 77.4756 40.8285 77.2115C41.0503 76.9473 41.3111 76.7514 41.6109 76.6237C41.9138 76.493 42.2418 76.4277 42.5947 76.4277C42.9476 76.4277 43.2756 76.493 43.5785 76.6237C43.8846 76.7514 44.1485 76.9473 44.3703 77.2115C44.5952 77.4756 44.7701 77.8094 44.895 78.2129C45.023 78.6164 45.0871 79.0938 45.0871 79.6453ZM43.8924 79.6453C43.8924 79.1896 43.8565 78.8123 43.7847 78.5133C43.7128 78.2143 43.616 77.9763 43.4942 77.7992C43.3755 77.6222 43.2381 77.4988 43.0819 77.4292C42.9258 77.3566 42.7634 77.3203 42.5947 77.3203C42.4292 77.3203 42.2683 77.3566 42.1122 77.4292C41.9591 77.4988 41.8233 77.6222 41.7046 77.7992C41.5859 77.9763 41.4906 78.2143 41.4188 78.5133C41.3501 78.8123 41.3157 79.1896 41.3157 79.6453C41.3157 80.1011 41.3501 80.4784 41.4188 80.7774C41.4906 81.0764 41.5859 81.3144 41.7046 81.4915C41.8233 81.6685 41.9591 81.7933 42.1122 81.8659C42.2683 81.9356 42.4292 81.9704 42.5947 81.9704C42.7634 81.9704 42.9258 81.9356 43.0819 81.8659C43.2381 81.7933 43.3755 81.6685 43.4942 81.4915C43.616 81.3144 43.7128 81.0764 43.7847 80.7774C43.8565 80.4784 43.8924 80.1011 43.8924 79.6453Z" fill="white"/>
<path d="M39.5669 76.4971V76.9629C39.5669 77.1023 39.5513 77.2155 39.5201 77.3026C39.4888 77.3867 39.4576 77.4579 39.4264 77.5159L36.8591 82.4272C36.806 82.5288 36.731 82.6159 36.6342 82.6885C36.5374 82.7581 36.4077 82.793 36.2453 82.793H35.4067L38.0256 77.9818C38.0849 77.8831 38.1427 77.7931 38.1989 77.7118C38.2583 77.6277 38.3239 77.5478 38.3957 77.4724H35.1538C35.0819 77.4724 35.0195 77.4477 34.9664 77.3984C34.9133 77.349 34.8867 77.291 34.8867 77.2242V76.4971H39.5669Z" fill="white"/>
<path d="M33.6109 81.7919C33.7358 81.7919 33.8342 81.8253 33.9061 81.892C33.981 81.9559 34.0185 82.0415 34.0185 82.1489V82.7933H29.3711V82.4363C29.3711 82.3637 29.3867 82.2882 29.4179 82.2099C29.4523 82.1286 29.5054 82.056 29.5772 81.9922L31.6339 80.0764C31.8057 79.9138 31.9587 79.7586 32.093 79.6105C32.2304 79.4625 32.3444 79.3159 32.435 79.1708C32.5256 79.0256 32.5943 78.879 32.6411 78.731C32.6911 78.5801 32.7161 78.4219 32.7161 78.2564C32.7161 78.1055 32.6927 77.9734 32.6458 77.8602C32.599 77.7441 32.5318 77.6469 32.4444 77.5685C32.36 77.4901 32.257 77.4321 32.1352 77.3943C32.0165 77.3537 31.8822 77.3334 31.7323 77.3334C31.5948 77.3334 31.4668 77.3522 31.3481 77.39C31.2326 77.4248 31.1295 77.4756 31.0389 77.5424C30.9483 77.6062 30.8718 77.6817 30.8094 77.7688C30.7469 77.8559 30.7 77.9516 30.6688 78.0561C30.6157 78.1897 30.547 78.2782 30.4627 78.3217C30.3783 78.3653 30.2565 78.3754 30.0972 78.3522L29.4882 78.2521C29.5351 77.9502 29.6256 77.686 29.7599 77.4596C29.8942 77.2303 30.0613 77.0402 30.2612 76.8893C30.4642 76.7354 30.6954 76.6208 30.9546 76.5453C31.2169 76.4669 31.498 76.4277 31.7979 76.4277C32.1102 76.4277 32.396 76.4713 32.6552 76.5584C32.9144 76.6425 33.1362 76.763 33.3204 76.9197C33.5047 77.0765 33.6484 77.2652 33.7515 77.4858C33.8545 77.7064 33.9061 77.9516 33.9061 78.2216C33.9061 78.4538 33.8686 78.6686 33.7936 78.866C33.7218 79.0634 33.6234 79.252 33.4985 79.432C33.3767 79.612 33.233 79.7861 33.0675 79.9545C32.9019 80.1228 32.7286 80.2941 32.5474 80.4683L31.0202 81.9181C31.167 81.8775 31.3122 81.847 31.4559 81.8267C31.6027 81.8035 31.7416 81.7919 31.8728 81.7919H33.6109Z" fill="white"/>
</svg>
