<svg width="151" height="151" viewBox="0 0 151 151" fill="none" xmlns="http://www.w3.org/2000/svg">
<g clip-path="url(#clip0_2143_1657)">
<path d="M22.3181 50.376C17.1417 50.376 12.9453 54.5724 12.9453 59.7488V103.488C12.9453 108.665 17.1417 112.861 22.3181 112.861C27.4945 112.861 31.6909 108.665 31.6909 103.488V59.7488C31.6909 54.5724 27.4945 50.376 22.3181 50.376Z" fill="#4CAF50"/>
<path d="M128.545 50.376C123.368 50.376 119.172 54.5724 119.172 59.7488V103.488C119.172 108.665 123.368 112.861 128.545 112.861C133.721 112.861 137.917 108.665 137.917 103.488V59.7488C137.917 54.5724 133.721 50.376 128.545 50.376Z" fill="#4CAF50"/>
<path d="M109.796 50.376H41.0619C39.3364 50.376 37.9375 51.7749 37.9375 53.5004V103.488C37.936 110.913 43.1602 117.312 50.4347 118.797V140.98C50.4347 146.156 54.631 150.353 59.8075 150.353C64.9839 150.353 69.1803 146.156 69.1803 140.98V119.11H81.6774V140.98C81.6774 146.156 85.8738 150.353 91.0502 150.353C96.2267 150.353 100.423 146.156 100.423 140.98V118.797C107.698 117.312 112.922 110.913 112.92 103.488V53.5004C112.92 51.7749 111.521 50.376 109.796 50.376Z" fill="#4CAF50"/>
<path d="M98.1427 13.3347L105.76 5.72403C107.001 4.52519 107.035 2.54753 105.836 1.30622C104.637 0.0652016 102.66 0.0309323 101.418 1.22948C101.392 1.25467 101.367 1.28015 101.342 1.30622L92.4689 10.1793C81.6017 5.45866 69.2627 5.45866 58.3955 10.1793L49.5227 1.30007C48.2817 0.101228 46.3038 0.135791 45.1049 1.37681C43.9357 2.58766 43.9357 4.50703 45.1049 5.71759L52.7156 13.3345C43.4374 19.4736 37.8805 29.8777 37.9379 41.003C37.9379 42.7284 39.3368 44.1273 41.0623 44.1273H109.796C111.522 44.1273 112.921 42.7284 112.921 41.003C112.978 29.878 107.421 19.4739 98.1427 13.3347Z" fill="#4CAF50"/>
<path d="M59.8119 31.6304C61.5374 31.6304 62.9362 30.2316 62.9362 28.5061C62.9362 26.7805 61.5374 25.3817 59.8119 25.3817C58.0863 25.3817 56.6875 26.7805 56.6875 28.5061C56.6875 30.2316 58.0863 31.6304 59.8119 31.6304Z" fill="#FAFAFA"/>
<path d="M91.0541 31.6304C92.7796 31.6304 94.1784 30.2316 94.1784 28.5061C94.1784 26.7805 92.7796 25.3817 91.0541 25.3817C89.3285 25.3817 87.9297 26.7805 87.9297 28.5061C87.9297 30.2316 89.3285 31.6304 91.0541 31.6304Z" fill="#FAFAFA"/>
</g>
<defs>
<clipPath id="clip0_2143_1657">
<rect width="150" height="150" fill="white" transform="translate(0.429688 0.352539)"/>
</clipPath>
</defs>
</svg>
