<svg width="100" height="100" viewBox="0 0 100 100" fill="none" xmlns="http://www.w3.org/2000/svg">
<path d="M12.6338 95.7757L8.90906 88.6255L5.10074 95.7757H1L6.80648 86.5508L1.57786 77.3815H5.75519L9.14578 84.3437L12.8218 77.3815H16.6232L11.2344 86.4951L16.6928 95.7757H12.6338ZM25.9177 95.7757V93.7706H25.862C25.4221 94.5118 24.7917 95.1217 24.0362 95.5368C23.2808 95.9518 22.4279 96.1569 21.5664 96.1308C20.332 96.2004 19.1195 95.7829 18.1897 94.9681C17.7755 94.5575 17.4519 94.0648 17.2396 93.5216C17.0274 92.9784 16.9312 92.3968 16.9574 91.8142C16.9574 88.9922 18.5401 87.3886 21.7056 87.0033L25.9456 86.4185C25.9456 84.4412 25.0173 83.4526 23.1607 83.4526C21.4428 83.4631 19.7744 84.0298 18.4055 85.0678V82.1715C19.1361 81.7693 19.9186 81.4695 20.7309 81.2804C21.6392 81.0333 22.5746 80.8999 23.5158 80.8835C27.2568 80.8835 29.1273 82.7772 29.1273 86.5647V95.7827H25.9177V95.7757ZM22.8126 89.1198C22.0629 89.1408 21.3362 89.383 20.7239 89.816C20.516 90.0314 20.3568 90.289 20.2571 90.5713C20.1574 90.8535 20.1195 91.154 20.1461 91.4522C20.1426 91.7369 20.2035 92.0187 20.324 92.2766C20.4445 92.5346 20.6217 92.762 20.8423 92.9421C21.3339 93.3375 21.9526 93.5404 22.5828 93.513C23.0331 93.5256 23.4808 93.4421 23.8962 93.268C24.3116 93.094 24.6851 92.8333 24.9918 92.5035C25.6269 91.8236 25.9673 90.92 25.9386 89.9901V88.6812L22.8056 89.092L22.8126 89.1198ZM50.0557 95.7757V87.5464C50.1264 86.5037 49.9046 85.462 49.4152 84.5387C49.1629 84.1893 48.8225 83.9131 48.4287 83.7382C48.0348 83.5633 47.6017 83.496 47.1733 83.5431C46.7398 83.5509 46.3149 83.6664 45.937 83.879C45.559 84.0917 45.2399 84.3949 45.0081 84.7615C44.4089 85.5902 44.1005 86.5938 44.1309 87.616V95.7827H40.8586V87.2888C40.8586 84.8102 39.9094 83.5709 38.0111 83.5709C37.5817 83.5652 37.1573 83.6635 36.7741 83.8575C36.391 84.0515 36.0606 84.3354 35.811 84.6849C35.2122 85.5388 34.9135 86.5672 34.9616 87.609V95.7757H31.6894V81.2386H34.9616V83.4804H35.0173C35.4696 82.6662 36.1381 81.9928 36.949 81.5346C37.7598 81.0763 38.6816 80.851 39.6124 80.8835C40.5231 80.8664 41.4164 81.1342 42.1675 81.6494C42.9122 82.1486 43.4665 82.8846 43.741 83.738C44.2034 82.8526 44.9057 82.1153 45.7676 81.6105C46.6295 81.1057 47.6161 80.8537 48.6145 80.8835C51.7707 80.8835 53.3488 82.8515 53.3488 86.7875V95.7757H50.0557ZM64.2307 95.7757V93.7706H64.175C63.7351 94.5118 63.1047 95.1217 62.3492 95.5368C61.5938 95.9518 60.7409 96.1569 59.8794 96.1308C58.645 96.2004 57.4326 95.7829 56.5027 94.9681C56.0948 94.5545 55.7776 94.0604 55.5714 93.5174C55.3652 92.9743 55.2746 92.3943 55.3052 91.8142C55.3052 88.9922 56.8879 87.3886 60.0534 87.0033L64.2934 86.4185C64.2934 84.4412 63.3651 83.4526 61.5085 83.4526C59.7715 83.451 58.0818 84.0183 56.6976 85.0678V82.1715C57.4348 81.7675 58.2244 81.4676 59.0439 81.2804C59.9522 81.0333 60.8876 80.8999 61.8288 80.8835C65.5698 80.8835 67.4403 82.7772 67.4403 86.5647V95.7827H64.2307V95.7757ZM61.1256 89.1198C60.3759 89.1408 59.6492 89.383 59.0369 89.816C58.829 90.0314 58.6698 90.289 58.5701 90.5713C58.4704 90.8535 58.4325 91.154 58.4591 91.4522C58.4557 91.7369 58.5165 92.0187 58.637 92.2766C58.7576 92.5346 58.9347 92.762 59.1553 92.9421C59.6469 93.3375 60.2656 93.5404 60.8959 93.513C61.3461 93.5256 61.7938 93.4421 62.2092 93.268C62.6246 93.094 62.9981 92.8333 63.3048 92.5035C63.9399 91.8236 64.2803 90.92 64.2516 89.9901V88.6812L61.1186 89.092L61.1256 89.1198ZM78.4336 84.4343C77.8592 84.0941 77.2004 83.9227 76.533 83.9399C76.0768 83.9348 75.6265 84.0435 75.2229 84.2562C74.8193 84.469 74.4751 84.779 74.2215 85.1583C73.5991 86.0991 73.2919 87.2133 73.3443 88.3401V95.7827H70.072V81.2386H73.3443V84.0653H73.4069C74.1078 82.0091 75.3471 80.981 77.1247 80.981C77.5724 80.9612 78.0195 81.0298 78.4406 81.1829V84.4343H78.4336ZM81.692 77.9873C81.1752 77.9924 80.6763 77.7979 80.2995 77.4442C80.1131 77.2728 79.9652 77.0637 79.8656 76.8309C79.766 76.5981 79.7169 76.3467 79.7217 76.0935C79.7132 75.8337 79.7603 75.575 79.86 75.3348C79.9597 75.0947 80.1095 74.8786 80.2995 74.7011C80.6861 74.3409 81.1949 74.1406 81.7233 74.1406C82.2517 74.1406 82.7604 74.3409 83.1471 74.7011C83.3312 74.876 83.4778 75.0866 83.578 75.32C83.6781 75.5534 83.7298 75.8047 83.7298 76.0587C83.7298 76.3127 83.6781 76.564 83.578 76.7974C83.4778 77.0308 83.3312 77.2414 83.1471 77.4163C82.9552 77.6023 82.7285 77.7485 82.48 77.8464C82.2315 77.9444 81.966 77.9923 81.6989 77.9873H81.692ZM80.021 95.7757V81.2386H83.2933V95.7757H80.021ZM95.6721 95.7757V87.609C95.6721 84.9123 94.7043 83.564 92.7688 83.564C92.3028 83.5577 91.8412 83.655 91.4174 83.8488C90.9936 84.0427 90.6181 84.3282 90.3181 84.6849C89.6472 85.4702 89.2967 86.4794 89.3365 87.5115V95.7757H86.0642V81.2386H89.3365V83.564H89.42C89.8771 82.7232 90.5598 82.0268 91.3914 81.5533C92.2229 81.0797 93.1702 80.8477 94.1264 80.8835C97.3755 80.8835 99 82.8724 99 86.8501V95.7827H95.686L95.6721 95.7757Z" fill="#3498DB"/>
<path d="M84.7692 32.914L69.7517 6.78488C69.2634 5.95124 68.5689 5.25721 67.7349 4.7695C66.901 4.28179 65.9555 4.0168 64.9896 4L34.9616 4C33.9956 4.0168 33.0502 4.28179 32.2162 4.7695C31.3822 5.25721 30.6877 5.95124 30.1994 6.78488L15.1819 32.914C14.7144 33.759 14.4692 34.7089 14.4692 35.6745C14.4692 36.6402 14.7144 37.5901 15.1819 38.4351L30.1994 64.5712C30.6877 65.4048 31.3822 66.0989 32.2162 66.5866C33.0502 67.0743 33.9956 67.3393 34.9616 67.3561H64.9965C65.9625 67.3393 66.9079 67.0743 67.7419 66.5866C68.5759 66.0989 69.2704 65.4048 69.7587 64.5712L84.7762 38.4142C85.2389 37.5712 85.4809 36.6249 85.4797 35.6632C85.4785 34.7016 85.2341 33.7559 84.7692 32.914ZM64.5927 52.0392H59.4128C59.293 52.0354 59.1763 52.0007 59.0738 51.9385C58.9714 51.8763 58.8867 51.7887 58.828 51.6841L50.0626 36.0261C50.019 35.9487 49.9907 35.8636 49.9791 35.7755C49.9675 35.8636 49.9391 35.9487 49.8955 36.0261L41.1022 51.6981C41.0454 51.7997 40.964 51.8854 40.8655 51.9475C40.767 52.0095 40.6545 52.0458 40.5383 52.0531H35.3584C35.2427 52.0471 35.1304 52.0122 35.0315 51.9518C34.9327 51.8913 34.8505 51.8071 34.7924 51.7069C34.7343 51.6066 34.7022 51.4934 34.6989 51.3776C34.6956 51.2618 34.7213 51.147 34.7736 51.0436L43.351 35.678L34.7736 20.2916C34.7293 20.1985 34.7062 20.0967 34.706 19.9936C34.7058 19.8905 34.7285 19.7886 34.7724 19.6953C34.8164 19.6021 34.8805 19.5197 34.9602 19.4543C35.0399 19.3888 35.1331 19.3419 35.2331 19.3168H40.5383C40.6525 19.322 40.7637 19.3551 40.8621 19.4134C40.9604 19.4717 41.0429 19.5533 41.1022 19.651L49.8955 35.3299C49.9391 35.4074 49.9675 35.4924 49.9791 35.5806C49.9907 35.4924 50.019 35.4074 50.0626 35.3299L58.828 19.6371C58.8909 19.5391 58.9774 19.4584 59.0796 19.4024C59.1818 19.3465 59.2964 19.317 59.4128 19.3168H64.5927C64.7056 19.3244 64.8149 19.3593 64.9113 19.4186C65.0076 19.4778 65.0881 19.5597 65.1457 19.6571C65.2032 19.7544 65.2363 19.8643 65.2418 19.9773C65.2474 20.0903 65.2253 20.2029 65.1776 20.3055L56.6071 35.678L65.1845 51.0436C65.2339 51.147 65.2571 51.2609 65.2519 51.3754C65.2467 51.4898 65.2134 51.6012 65.1549 51.6997C65.0963 51.7981 65.0144 51.8807 64.9164 51.9399C64.8183 51.9991 64.7071 52.0332 64.5927 52.0392Z" fill="#3498DB"/>
</svg>
