<?xml version="1.0" encoding="UTF-8"?>
<svg id="Layer_1" data-name="Layer 1" xmlns="http://www.w3.org/2000/svg" version="1.1" xmlns:xlink="http://www.w3.org/1999/xlink" viewBox="0 0 48 48">
  <defs>
    <style>
      .cls-1 {
        fill: #39cefd;
      }

      .cls-1, .cls-2, .cls-3, .cls-4, .cls-5 {
        stroke-width: 0px;
      }

      .cls-2 {
        fill: url(#linear-gradient);
      }

      .cls-3 {
        fill: #03569b;
      }

      .cls-4 {
        fill: none;
      }

      .cls-5 {
        fill: #16b9fd;
      }

      .cls-6 {
        clip-path: url(#clippath);
      }
    </style>
    <clipPath id="clippath">
      <polygon class="cls-4" points="23 42.5 23 42.5 34 38.7 30.4 35.2 23 42.5"/>
    </clipPath>
    <linearGradient id="linear-gradient" x1="-1772.2" y1="-803.3" x2="-1771" y2="-803.3" gradientTransform="translate(4487.2 -11803.9) rotate(-45) scale(6.5 -6.5)" gradientUnits="userSpaceOnUse">
      <stop offset="0" stop-color="#1a237e"/>
      <stop offset="1" stop-color="#1a237e"/>
    </linearGradient>
  </defs>
  <polygon class="cls-1" points="28.6 22.2 15.7 35.2 22.3 41.7 23 42.5 43.4 22.2 28.6 22.2"/>
  <polygon class="cls-1" points="28.6 0 4.6 24.1 12 31.4 43.4 0 28.6 0"/>
  <polygon class="cls-3" points="23 42.5 23.8 43.1 28.6 48 43.4 48 30.4 35.2 23 42.5"/>
  <g class="cls-6">
    <polygon class="cls-2" points="28.5 48 37.7 38.8 28.5 29.7 19.4 38.8 28.5 48"/>
  </g>
  <polygon class="cls-5" points="15.7 35.2 23 42.5 30.4 35.2 30.4 35.2 30.4 35.2 23 27.8 15.7 35.2"/>
</svg>