<?xml version="1.0" encoding="UTF-8"?>
<svg id="Layer_1" data-name="Layer 1" xmlns="http://www.w3.org/2000/svg" version="1.1" viewBox="0 0 48 48">
  <defs>
    <style>
      .cls-1 {
        fill: #00d8ff;
        stroke-width: 0px;
      }
    </style>
  </defs>
  <path class="cls-1" d="M38.9,16.8c-.5-.2-.9-.3-1.5-.4.2-.3.2-.7.3-.9,1.1-5.5.4-9.9-2-11.3-2.3-1.4-6.3,0-10.3,3.6-.4.3-.9.7-1.1,1.1-.3-.3-.5-.4-.9-.7-4.1-3.7-8.4-5.2-10.9-3.8-2.3,1.4-3.2,5.5-2,10.8.2.5.3.9.3,1.5-.5.2-1.1.4-1.6.5-5.1,1.3-8.2,4.1-8.2,6.9s3.3,5.8,8.4,7.4c.4.2.9.3,1.2.4-.2.5-.3,1.1-.4,1.6-.9,5.1-.3,9.1,2.2,10.4s6.6,0,10.8-3.6c.3-.3.7-.5.9-.9.4.4.9.9,1.2,1.1,3.8,3.4,7.9,4.7,10.2,3.3,2.5-1.4,3.3-5.8,2.2-11-.2-.4-.2-.9-.3-1.2.3-.2.5-.2.9-.3,5.2-1.8,8.7-4.5,8.7-7.4.2-2.6-3.1-5.4-8.1-7ZM26.6,9.1c3.4-3,6.6-4.1,8-3.3,1.5.9,2.2,4.5,1.2,9.2,0,.3-.2.5-.3.9-1.9-.4-4-.9-6.2-.9-1.2-1.9-2.7-3.4-3.8-5,.2-.2.7-.6,1.1-.9ZM14.6,26.5c.4.9.9,1.6,1.4,2.3.4.9.9,1.6,1.5,2.3-1.5-.2-2.9-.4-4.3-.7.3-1.2.9-2.7,1.4-4ZM14.6,21.8c-.5-1.4-1.1-2.7-1.5-4,1.4-.3,2.7-.5,4.1-.7-.5.9-.9,1.5-1.4,2.3-.4.8-.8,1.5-1.2,2.3ZM15.7,24.1c.5-1.2,1.2-2.5,1.9-3.7h0c.7-1.2,1.5-2.3,2.2-3.6,1.4-.2,2.7-.2,4.3-.2s2.9,0,4.3.2c.9,1.1,1.5,2.3,2.2,3.6.7,1.2,1.4,2.5,1.9,3.7-.5,1.2-1.2,2.5-1.9,3.7h0c-.7,1.2-1.4,2.3-2.2,3.6-1.4.2-2.7.2-4.3.2s-2.9,0-4.1-.2c-.9-1.1-1.5-2.3-2.2-3.6-.9-1.3-1.5-2.5-2.1-3.7ZM32.3,28.8c.4-.9.9-1.6,1.4-2.5.5,1.4,1.1,2.7,1.5,4-1.4.3-2.7.5-4.3.7.5-.5.9-1.4,1.4-2.2ZM33.5,21.8c-.4-.9-.9-1.6-1.4-2.3-.4-.9-.9-1.5-1.4-2.3,1.5.2,2.9.4,4.3.7-.4,1.3-.8,2.6-1.5,4ZM24.2,11.4h0c.9.9,1.8,2,2.7,3.3-1.8-.2-3.6-.2-5.5,0,.9-1.1,1.9-2.2,2.8-3.3ZM13.6,6c1.5-.9,5,.4,8.6,3.6.3.2.4.4.7.7-1.4,1.4-2.7,3-4,4.8-2.2.2-4.3.5-6.2.9-.2-.4-.3-.9-.3-1.4h0c-.9-4.6-.3-7.9,1.2-8.7ZM11.2,30.1c-.4-.2-.9-.3-1.1-.4-2.2-.9-4.1-1.8-5.4-2.9-1.1-1-1.8-2-1.8-2.8,0-1.6,2.5-3.8,6.8-5.2.5-.2,1.1-.4,1.6-.5.5,1.9,1.4,3.8,2.2,5.8-.9,2.2-1.8,4.1-2.3,6.1ZM22,38.9c-1.8,1.5-3.6,2.7-5.2,3.2h0c-1.4.5-2.7.5-3.3.2-1.5-.9-2-4.1-1.2-8.4.2-.5.3-.9.3-1.5,1.9.4,4,.7,6.2.9,1.2,1.8,2.7,3.4,4,5-.2,0-.5.4-.7.6ZM24.2,36.8c-.9-.9-1.9-2-2.7-3.3h5.5c-.9,1.2-1.7,2.3-2.7,3.3ZM36.2,39.5c-.3,1.5-.9,2.5-1.5,2.9-1.5.9-4.5-.3-8-3.2-.4-.3-.9-.7-1.1-1.1,1.2-1.4,2.7-3,3.8-5,2.2-.2,4.4-.5,6.2-.9.2.4.2.7.3,1.1.5,2.6.5,4.6.2,6.2ZM37.8,29.7h0c-.3.2-.5.2-.9.3-.5-1.8-1.4-3.8-2.3-5.8.9-1.9,1.6-3.8,2.2-5.8.4.2.9.3,1.4.4,4.3,1.5,6.9,3.6,6.9,5.4.2,1.6-2.7,4-7.3,5.5Z"/>
  <path class="cls-1" d="M24.2,20c2.3,0,4.1,1.8,4.1,4.1s-1.8,4.1-4.1,4.1-4.1-1.8-4.1-4.1,1.8-4.1,4.1-4.1"/>
</svg>