<svg xmlns="http://www.w3.org/2000/svg" xmlns:xlink="http://www.w3.org/1999/xlink" width="120" height="120" viewBox="0 0 120 120">
  <defs>
    <linearGradient id="linear-gradient" x1="-321.264" y1="181.998" x2="-321.264" y2="181.98" gradientUnits="objectBoundingBox">
      <stop offset="0" stop-color="#0994dc"/>
      <stop offset="0.35" stop-color="#66cef5"/>
      <stop offset="0.846" stop-color="#127bca"/>
      <stop offset="1" stop-color="#127bca"/>
    </linearGradient>
    <linearGradient id="linear-gradient-2" x1="-304.289" y1="176.458" x2="-304.289" y2="176.44" gradientUnits="objectBoundingBox">
      <stop offset="0" stop-color="#0e76bc"/>
      <stop offset="0.36" stop-color="#36aee8"/>
      <stop offset="0.846" stop-color="#00adef"/>
      <stop offset="1" stop-color="#00adef"/>
    </linearGradient>
    <linearGradient id="linear-gradient-3" x1="-318.908" y1="174.806" x2="-318.908" y2="174.82" gradientUnits="objectBoundingBox">
      <stop offset="0" stop-color="#1c63b7"/>
      <stop offset="0.5" stop-color="#33bdf2"/>
      <stop offset="1" stop-color="#33bdf2" stop-opacity="0.42"/>
    </linearGradient>
    <linearGradient id="linear-gradient-4" x1="-324.817" y1="170.517" x2="-324.817" y2="170.5" gradientUnits="objectBoundingBox">
      <stop offset="0" stop-color="#166ab8"/>
      <stop offset="0.4" stop-color="#36aee8"/>
      <stop offset="0.846" stop-color="#0798dd"/>
      <stop offset="1" stop-color="#0798dd"/>
    </linearGradient>
    <linearGradient id="linear-gradient-5" x1="-251.181" y1="160.251" x2="-251.181" y2="160.235" gradientUnits="objectBoundingBox">
      <stop offset="0" stop-color="#124379"/>
      <stop offset="0.39" stop-color="#1487cb"/>
      <stop offset="0.78" stop-color="#165197"/>
      <stop offset="1" stop-color="#165197"/>
    </linearGradient>
    <linearGradient id="linear-gradient-6" x1="-726.404" y1="472.314" x2="-726.353" y2="472.314" gradientUnits="objectBoundingBox">
      <stop offset="0" stop-color="#33bdf2" stop-opacity="0.698"/>
      <stop offset="1" stop-color="#1dacd8"/>
    </linearGradient>
    <linearGradient id="linear-gradient-7" x1="-187.175" y1="149.912" x2="-187.175" y2="149.921" gradientUnits="objectBoundingBox">
      <stop offset="0" stop-color="#136ab4"/>
      <stop offset="0.6" stop-color="#59caf5" stop-opacity="0.549"/>
      <stop offset="1" stop-color="#59caf5" stop-opacity="0.235"/>
    </linearGradient>
    <linearGradient id="linear-gradient-8" x1="-202.326" y1="149.225" x2="-202.313" y2="149.225" gradientUnits="objectBoundingBox">
      <stop offset="0" stop-color="#05a1e6" stop-opacity="0.247"/>
      <stop offset="1" stop-color="#05a1e6"/>
    </linearGradient>
    <linearGradient id="linear-gradient-9" x1="-294.772" y1="199.994" x2="-294.772" y2="200.012" gradientUnits="objectBoundingBox">
      <stop offset="0" stop-color="#318ed5"/>
      <stop offset="1" stop-color="#38a7e4"/>
    </linearGradient>
    <linearGradient id="linear-gradient-10" x1="-316.705" y1="255.465" x2="-316.705" y2="255.495" gradientUnits="objectBoundingBox">
      <stop offset="0" stop-color="#05a1e6"/>
      <stop offset="1" stop-color="#05a1e6" stop-opacity="0.549"/>
    </linearGradient>
    <linearGradient id="linear-gradient-11" x1="-276.011" y1="180.988" x2="-276.011" y2="181.001" gradientUnits="objectBoundingBox">
      <stop offset="0" stop-color="#1959a6"/>
      <stop offset="0.5" stop-color="#05a1e6"/>
      <stop offset="0.918" stop-color="#7ec5ea"/>
      <stop offset="1" stop-color="#7ec5ea"/>
    </linearGradient>
    <linearGradient id="linear-gradient-12" x1="-202.512" y1="151.199" x2="-202.515" y2="151.208" gradientUnits="objectBoundingBox">
      <stop offset="0" stop-color="#165096"/>
      <stop offset="1" stop-color="#0d82ca"/>
    </linearGradient>
    <linearGradient id="linear-gradient-13" x1="-443.199" y1="256.162" x2="-443.199" y2="256.177" gradientUnits="objectBoundingBox">
      <stop offset="0" stop-color="#05a1e6"/>
      <stop offset="0.874" stop-color="#0495d6"/>
      <stop offset="1" stop-color="#0495d6"/>
    </linearGradient>
    <linearGradient id="linear-gradient-14" x1="-243.837" y1="153.899" x2="-243.842" y2="153.888" gradientUnits="objectBoundingBox">
      <stop offset="0" stop-color="#38a7e4" stop-opacity="0.329"/>
      <stop offset="0.961" stop-color="#0e88d3"/>
      <stop offset="1" stop-color="#0e88d3"/>
    </linearGradient>
    <linearGradient id="linear-gradient-15" x1="-208.445" y1="150.553" x2="-208.445" y2="150.542" gradientUnits="objectBoundingBox">
      <stop offset="0" stop-color="#168cd4"/>
      <stop offset="0.5" stop-color="#1c87cc"/>
      <stop offset="1" stop-color="#154b8d"/>
    </linearGradient>
    <linearGradient id="linear-gradient-16" x1="-445.172" y1="4094.224" x2="-445.151" y2="4094.732" gradientUnits="objectBoundingBox">
      <stop offset="0" stop-color="#97d6ee"/>
      <stop offset="0.703" stop-color="#55c1ea"/>
      <stop offset="1" stop-color="#55c1ea"/>
    </linearGradient>
    <linearGradient id="linear-gradient-17" x1="-544.215" y1="2181.395" x2="-544.189" y2="2181.251" gradientUnits="objectBoundingBox">
      <stop offset="0" stop-color="#7accec"/>
      <stop offset="1" stop-color="#3fb7ed"/>
    </linearGradient>
    <linearGradient id="linear-gradient-18" x1="-281.065" y1="183.159" x2="-281.065" y2="183.144" gradientUnits="objectBoundingBox">
      <stop offset="0" stop-color="#1da7e7"/>
      <stop offset="1" stop-color="#37abe7" stop-opacity="0"/>
    </linearGradient>
  </defs>
  <g id="Group_5012" data-name="Group 5012" transform="translate(-6846 -3322)">
    <rect id="Rectangle_1476" data-name="Rectangle 1476" width="120" height="120" transform="translate(6846 3322)" fill="none"/>
    <g id="Group_5013" data-name="Group 5013" transform="translate(-324 -212.058)">
      <g id="Group_5000" data-name="Group 5000" transform="translate(7175 3571.554)">
        <g id="Group_4963" data-name="Group 4963" transform="translate(0)">
          <g id="_.net" data-name=".net" transform="translate(0 0)">
            <path id="Path_5670" data-name="Path 5670" d="M20.2,23.607c3.922,12.139,5.416,33.8,16.995,33.8h0a11.485,11.485,0,0,0,2.615-.187h0C29.164,54.8,28.044,33.319,21.507,22.3h0A8.629,8.629,0,0,1,20.2,23.607" transform="translate(18.272 -14.083)" fill="url(#linear-gradient)"/>
            <path id="Path_5671" data-name="Path 5671" d="M21,22.907c6.35,11.019,7.657,32.5,18.3,34.924h0a12.079,12.079,0,0,0,2.428-.747h0c-9.525-4.669-12.139-25.4-19.423-35.484h0A8.628,8.628,0,0,1,21,22.907" transform="translate(18.966 -14.69)" fill="url(#linear-gradient-2)"/>
            <path id="Path_5672" data-name="Path 5672" d="M30.511,18.7a11.485,11.485,0,0,0-2.615.187,19.3,19.3,0,0,0-7.1,2.988,7.473,7.473,0,0,1,1.868,2.241,25.659,25.659,0,0,1,7.284-4.482,15.559,15.559,0,0,1,2.8-.747c-.934,0-1.494-.187-2.241-.187" transform="translate(18.793 -17.206)" fill="#14559a"/>
            <path id="Path_5673" data-name="Path 5673" d="M43.908,55.4c.934-.747,1.868-1.681,2.988-2.615C42.788,40.651,41.48,18.8,29.715,18.8a13.23,13.23,0,0,0-2.615.187C37.745,21.6,39.053,44.759,43.908,55.4" transform="translate(24.258 -17.119)" fill="url(#linear-gradient-3)"/>
            <path id="Path_5674" data-name="Path 5674" d="M28.054,18.987A7.661,7.661,0,0,0,26,18.8h4.669a11.485,11.485,0,0,0-2.615.187" transform="translate(23.304 -17.119)" fill="#3092c4"/>
            <path id="Path_5675" data-name="Path 5675" d="M39.2,40.394A10.676,10.676,0,0,1,37.889,38.9,36.189,36.189,0,0,1,32.1,42.075a10.529,10.529,0,0,0,2.241.747,6.354,6.354,0,0,0,1.868.187,11.749,11.749,0,0,0,5.416-.934A7.107,7.107,0,0,1,39.2,40.394" transform="translate(28.596 0.319)" fill="#1969bc"/>
            <path id="Path_5676" data-name="Path 5676" d="M25.6,19.647c9.525,5.042,10.458,27.64,17.929,36.791h0c.56-.374.934-.747,1.494-1.121h0C40.167,44.673,38.86,21.515,28.215,18.9h0a19.162,19.162,0,0,0-2.615.747" transform="translate(22.957 -17.032)" fill="url(#linear-gradient-4)"/>
            <path id="Path_5677" data-name="Path 5677" d="M21.7,23.782C28.984,33.867,31.6,54.6,41.123,59.266h0a22.273,22.273,0,0,0,5.789-3.175h0c-7.657-9.151-8.4-31.749-17.929-36.791h0A25.659,25.659,0,0,0,21.7,23.782" transform="translate(19.573 -16.685)" fill="url(#linear-gradient-5)"/>
            <path id="Path_5678" data-name="Path 5678" d="M19.435,24.2c-1.121,2.615-2.241,5.976-3.735,10.458a68.571,68.571,0,0,1,8.4-10.085A16.156,16.156,0,0,0,22.8,21.4a22.26,22.26,0,0,0-3.362,2.8" transform="translate(14.368 -14.863)" fill="url(#linear-gradient-6)"/>
            <path id="Path_5679" data-name="Path 5679" d="M20.534,20.9a4.074,4.074,0,0,0-.934.747c.374.934.934,2.054,1.307,3.175L22.4,23.328A21.139,21.139,0,0,1,20.534,20.9" transform="translate(17.752 -15.297)" fill="#2b74b1"/>
            <path id="Path_5680" data-name="Path 5680" d="M21.221,20.5c-.374.187-.747.56-1.121.747.56.747,1.121,1.681,1.681,2.615.374-.374.934-.747,1.307-1.121A7.473,7.473,0,0,0,21.221,20.5" transform="translate(18.185 -15.644)" fill="#125a9e"/>
            <path id="Path_5681" data-name="Path 5681" d="M68.774,18.647c-5.416,20.73-16.621,37.538-26.146,41.647h0c-.187,0-.374.187-.56.187H40.2a3.178,3.178,0,0,0,1.307.187c8.964,0,17.929-16.061,32.869-42.768l-5.6.747Z" transform="translate(35.624 -17.9)" fill="url(#linear-gradient-7)"/>
            <path id="Path_5682" data-name="Path 5682" d="M27.614,19.374h.374c.187,0,.187,0,.374-.187h.374a.686.686,0,0,0,.56-.187h.56C19.77,19,5.95,37.676-.4,61.954H.721c2.054-3.548,3.735-6.91,5.416-10.085,4.669-17.742,13.633-29.321,21.477-32.5" transform="translate(0.4 -16.946)" fill="url(#linear-gradient-8)"/>
            <path id="Path_5683" data-name="Path 5683" d="M17.7,24.982c1.121-1.121,2.241-2.054,3.362-2.988a11.089,11.089,0,0,0-.747-1.494A16.687,16.687,0,0,0,17.7,24.982" transform="translate(16.103 -15.644)" fill="#0d82ca"/>
            <path id="Path_5684" data-name="Path 5684" d="M18.1,19.339a7.473,7.473,0,0,1,1.868,2.241l.56-.56A9.495,9.495,0,0,0,18.1,19.339h0" transform="translate(16.45 -16.724)" fill="#0d82ca"/>
            <path id="Path_5685" data-name="Path 5685" d="M3.3,51.136C12.451,33.394,16.933,22.188,24.59,19.2h0C16.56,22.375,7.6,33.954,3.3,51.136" transform="translate(3.61 -16.772)" fill="url(#linear-gradient-9)"/>
            <path id="Path_5686" data-name="Path 5686" d="M19.66,20.2l-.56.56a5.591,5.591,0,0,1,.747,1.494,4.074,4.074,0,0,0,.934-.747A8.123,8.123,0,0,0,19.66,20.2" transform="translate(17.318 -15.905)" fill="#127bca"/>
            <path id="Path_5687" data-name="Path 5687" d="M5.847,53.239H5.1c9.338-.187,13.633-4.856,15.688-11.766,1.681-5.042,2.988-9.525,4.109-13.073A161.151,161.151,0,0,0,13.131,47.823a9.948,9.948,0,0,1-7.284,5.416" transform="translate(5.172 -8.79)" fill="url(#linear-gradient-10)"/>
            <path id="Path_5688" data-name="Path 5688" d="M5.5,58.1h0a9.948,9.948,0,0,0,7.284-5.416h0A197.1,197.1,0,0,1,24.549,33.258h0c1.494-4.482,2.615-7.844,3.735-10.458h0C20.441,30.27,12.6,42.6,5.5,58.1" transform="translate(5.519 -13.649)" fill="url(#linear-gradient-11)"/>
            <path id="Path_5689" data-name="Path 5689" d="M5.816,36.3C4.135,39.475,2.454,42.837.4,46.385H3.948A56.749,56.749,0,0,1,5.816,36.3" transform="translate(1.094 -1.937)" fill="#05a1e6"/>
            <path id="Path_5690" data-name="Path 5690" d="M28.259,18.8H27.139a.686.686,0,0,0-.56.187H26.2c-.187,0-.187,0-.374.187h-.374C17.8,22.162,13.319,33.367,4.168,51.109h0A80.6,80.6,0,0,0,2.3,61.194H8.089c7.284-15.5,14.941-27.827,22.784-35.11h0A23.709,23.709,0,0,1,33.489,21.6h0a7.473,7.473,0,0,0-1.868-2.241H29.753a.686.686,0,0,1-.56-.187h-.56c-.187-.374-.187-.374-.373-.374" transform="translate(2.742 -17.119)" fill="url(#linear-gradient-12)"/>
            <path id="Path_5691" data-name="Path 5691" d="M46.382,29.345c-1.681,5.6-3.175,10.272-4.482,14.194h0A150.726,150.726,0,0,0,56.094,18.7h0c-5.416,1.681-8.217,5.6-9.711,10.645" transform="translate(37.098 -17.206)" fill="url(#linear-gradient-13)"/>
            <path id="Path_5692" data-name="Path 5692" d="M42.347,59.573c-.187.187-.56.187-.747.374,9.525-4.3,20.73-20.917,26.146-41.647H66.626C54.113,40.337,50.191,55.091,42.347,59.573" transform="translate(36.838 -17.553)" fill="url(#linear-gradient-14)"/>
            <path id="Path_5693" data-name="Path 5693" d="M39.654,45.82C41.709,43.392,43.389,39.1,45.631,32A67.428,67.428,0,0,1,37.6,41.338h0a20.087,20.087,0,0,0,2.054,4.482" transform="translate(33.368 -5.667)" fill="#079ae1"/>
            <path id="Path_5694" data-name="Path 5694" d="M40,39.4a11.2,11.2,0,0,1-2.241,2.054c-.187.187-.374.187-.56.374a8.262,8.262,0,0,0,2.8.934h2.054c.187,0,.374,0,.374-.187A12.468,12.468,0,0,1,40,39.4" transform="translate(33.021 0.753)" fill="#1969bc"/>
            <path id="Path_5695" data-name="Path 5695" d="M29.3,41.634a11.485,11.485,0,0,0,2.615-.187,12.079,12.079,0,0,0,2.428-.747,10.529,10.529,0,0,0,2.241.747,6.353,6.353,0,0,0,1.868.187Z" transform="translate(26.167 1.881)" fill="#1e5cb3"/>
            <path id="Path_5696" data-name="Path 5696" d="M34.3,41.634a11.749,11.749,0,0,0,5.416-.934,8.262,8.262,0,0,0,2.8.934H34.3Z" transform="translate(30.505 1.881)" fill="#1e5cb3"/>
            <path id="Path_5697" data-name="Path 5697" d="M39.2,41.287h1.121c.187,0,.374,0,.374-.187h0A3.178,3.178,0,0,0,42,41.287Z" transform="translate(34.756 2.228)" fill="#1d60b5"/>
            <path id="Path_5698" data-name="Path 5698" d="M39.682,37h0c-.934.934-1.868,1.681-2.988,2.615-.56.374-.934.747-1.494,1.121.374.56.934.934,1.307,1.494a8.779,8.779,0,0,0,2.241,1.681c.187,0,.374-.187.56-.374a11.2,11.2,0,0,0,2.241-2.054c-.56-1.307-1.307-2.8-1.868-4.482" transform="translate(31.286 -1.329)" fill="#175fab"/>
            <path id="Path_5699" data-name="Path 5699" d="M65.593,18.3h-6.35c-.187.374-.187.56-.374.934h0A150.726,150.726,0,0,1,44.676,44.073h0c-2.241,7.1-3.922,11.205-5.976,13.82h0c.934,1.494,1.868,2.615,3.175,2.988h1.868c.187,0,.374-.187.56-.187h0c.187-.187.56-.187.747-.374h0C52.894,55.838,57,41.084,69.328,18.86h0l-3.735-.56Z" transform="translate(34.322 -17.553)" fill="url(#linear-gradient-15)"/>
            <path id="Path_5700" data-name="Path 5700" d="M16.4,19.147h.56a.686.686,0,0,1,.56.187H19.2a7.107,7.107,0,0,1,2.428,1.681,1.864,1.864,0,0,1,.934-.747,10.064,10.064,0,0,0-5.6-1.868c0,.747-.374.747-.56.747" transform="translate(14.975 -17.466)" fill="#7dcbec"/>
            <path id="Path_5701" data-name="Path 5701" d="M19.4,20.547a10.676,10.676,0,0,1,1.307,1.494c.374-.187.747-.56,1.121-.747-.56-.56-1.121-.934-1.681-1.494-.187.187-.56.374-.747.747" transform="translate(17.578 -16.252)" fill="#5ec5ed"/>
            <path id="Path_5702" data-name="Path 5702" d="M16.834,18.839h.747a10.064,10.064,0,0,1,5.6,1.868c1.681-1.307,3.735-1.868,6.723-1.868H15.9c.374-.187.56,0,.934,0" transform="translate(14.541 -17.158)" fill="url(#linear-gradient-16)"/>
            <path id="Path_5703" data-name="Path 5703" d="M26.523,18.7c-2.988,0-5.042.56-6.723,1.868a12.083,12.083,0,0,1,1.681,1.494,20.692,20.692,0,0,1,7.1-2.988,13.23,13.23,0,0,1,2.615-.187H26.523Z" transform="translate(17.925 -17.206)" fill="url(#linear-gradient-17)"/>
            <path id="Path_5704" data-name="Path 5704" d="M45.631,43.973c1.307-3.922,2.615-8.591,4.482-14.194,1.681-5.042,4.482-8.964,9.711-10.645.187-.374.187-.56.374-.934-8.591.56-12.7,4.856-14.754,11.392C41.9,40.984,39.654,48.455,37.6,53.124a57.256,57.256,0,0,0,8.031-9.151" transform="translate(33.368 -17.64)" fill="url(#linear-gradient-18)"/>
            <path id="Path_5705" data-name="Path 5705" d="M49.741,39.674h-.934v2.988h-.374V39.674H47.5V39.3h2.428v.374Z" transform="translate(41.957 0.666)"/>
            <path id="Path_5706" data-name="Path 5706" d="M52.362,42.762h-.374V39.774h0c0,.187,0,.187-.187.374l-.934,2.615h-.187L49.56,40.147a.578.578,0,0,0-.187-.374h0v2.988H49V39.4h.56l1.121,2.428a.652.652,0,0,0,.187.374h0a.652.652,0,0,1,.187-.374L52.175,39.4h.56l-.374,3.362Z" transform="translate(43.258 0.753)"/>
          </g>
        </g>
      </g>
    </g>
  </g>
</svg>
