<svg xmlns="http://www.w3.org/2000/svg" width="120" height="120" viewBox="0 0 120 120">
  <g id="Group_5015" data-name="Group 5015" transform="translate(-6846 -3322)">
    <rect id="Rectangle_1476" data-name="Rectangle 1476" width="120" height="120" transform="translate(6846 3322)" fill="none"/>
    <g id="Group_5021" data-name="Group 5021" transform="translate(-546.766 -237)">
      <path id="Path_5750" data-name="Path 5750" d="M929.421,1160.245s-4.2,2.441,2.99,3.271c8.717,1,13.171.851,22.774-.964a39.646,39.646,0,0,0,6.058,2.955C939.714,1174.73,912.508,1164.973,929.421,1160.245ZM926.79,1148.2s-4.714,3.49,2.491,4.235c9.315.964,16.667,1.042,29.394-1.406a12.967,12.967,0,0,0,4.524,2.757C937.16,1161.4,908.16,1154.385,926.79,1148.2Z" transform="translate(6508.908 2488.821)" fill="#3174b9" fill-rule="evenodd"/>
      <path id="Path_5751" data-name="Path 5751" d="M1256.01,459.826c5.312,6.114-1.393,11.609-1.393,11.609s13.473-6.958,7.289-15.668c-5.776-8.119-10.208-12.157,13.783-26.066C1275.681,429.7,1238.028,439.1,1256.01,459.826Z" transform="translate(6201.872 3156.771)" fill="#ca3132" fill-rule="evenodd"/>
      <path id="Path_5752" data-name="Path 5752" d="M745.156,990.353s3.109,2.561-3.427,4.545c-12.425,3.764-51.732,4.9-62.651.148-3.919-1.709,3.433-4.074,5.748-4.573a15.2,15.2,0,0,1,3.792-.429c-4.362-3.075-28.212,6.037-12.108,8.646,43.9,7.127,80.029-3.2,68.646-8.337Zm-46.012-33.426s-19.988,4.749-7.078,6.472c5.452.732,16.315.563,26.446-.288,8.274-.7,16.583-2.181,16.583-2.181a36,36,0,0,0-5.03,2.688c-20.3,5.34-59.521,2.856-48.228-2.6,9.547-4.615,17.307-4.088,17.307-4.088Zm35.867,20.044c20.635-10.722,11.095-21.029,4.432-19.636a15.084,15.084,0,0,0-2.356.634,3.734,3.734,0,0,1,1.766-1.358c13.178-4.629,23.309,13.663-4.249,20.909A2.323,2.323,0,0,0,735.011,976.971Z" transform="translate(6741.205 2667.619)" fill="#3174b9" fill-rule="evenodd"/>
      <path id="Path_5753" data-name="Path 5753" d="M1068.072,110.3s11.426,11.433-10.842,29.014c-17.856,14.106-4.073,22.148-.007,31.336-10.427-9.406-18.074-17.687-12.945-25.391,7.535-11.313,28.4-16.8,23.794-34.959Z" transform="translate(6395.706 3453.7)" fill="#ca3132" fill-rule="evenodd"/>
      <path id="Path_5754" data-name="Path 5754" d="M894.548,1535.775c19.805,1.267,50.226-.7,50.951-10.075,0,0-1.386,3.553-16.372,6.374-16.906,3.18-37.767,2.814-50.128.774C878.993,1532.841,881.533,1534.938,894.548,1535.775Z" transform="translate(6547.833 2137.88)" fill="#3174b9" fill-rule="evenodd"/>
    </g>
  </g>
</svg>
