<svg xmlns="http://www.w3.org/2000/svg" width="120" height="120" viewBox="0 0 120 120">
  <g id="Group_5014" data-name="Group 5014" transform="translate(-6846 -3322)">
    <rect id="Rectangle_1476" data-name="Rectangle 1476" width="120" height="120" transform="translate(6846 3322)" fill="none"/>
    <g id="Group_5020" data-name="Group 5020" transform="translate(-479.758 -236.827)">
      <path id="Path_5721" data-name="Path 5721" d="M106.823,24.954V49.075a1.813,1.813,0,0,1-.861,1.508l-19.814,11.2V84.4a2.18,2.18,0,0,1-.861,1.508L43.935,109.81a.211.211,0,0,0-.215.215H42.428a.211.211,0,0,1-.215-.215L.861,85.9A1.813,1.813,0,0,1,0,84.4v-71.5a.211.211,0,0,1,.215-.215l.215-.215a.211.211,0,0,1,.215-.215.211.211,0,0,0,.215-.215l.215-.215h0L21.537.187a2.378,2.378,0,0,1,1.723,0L43.935,12.032h0a.211.211,0,0,1,.215.215.211.211,0,0,1,.215.215.211.211,0,0,0,.215.215l.215.215a.211.211,0,0,0,.215.215V58.121l17.23-9.907V24.739a.211.211,0,0,1,.215-.215l.215-.215a.211.211,0,0,1,.215-.215.211.211,0,0,0,.215-.215l.215-.215h0L83.994,11.816a2.378,2.378,0,0,1,1.723,0l20.675,11.845a206341.438,206341.438,0,0,0,.646.646l.215.215c-.431,0-.431.215-.431.431ZM103.593,48V28.4L96.27,32.492,86.148,38.307v19.6L103.593,48ZM82.7,83.535v-19.6l-9.907,5.6-28,15.937v19.814ZM3.446,16.555v66.98l37.905,21.752V85.473l-19.814-11.2h0a.211.211,0,0,1-.215-.215.211.211,0,0,1-.215-.215h0a.211.211,0,0,0-.215-.215l-.215-.215h0v-.431h0v-.431h0V26.462l-9.907-5.6L3.446,16.555ZM22.4,3.632,5.169,13.539,22.4,23.446l17.23-9.907L22.4,3.632Zm9.046,62.026,9.907-5.815V16.555l-7.323,4.092-9.907,5.815V69.751ZM84.425,15.478,67.2,25.385l17.23,9.907,17.23-9.907ZM82.7,38.307l-9.907-5.815L65.472,28.4V48l9.907,5.815L82.7,57.906v-19.6ZM43.074,82.458l25.2-14.43,12.707-7.323L63.749,50.8,43.935,62.428,25.844,72.766Z" transform="translate(7332.131 3563.802)" fill="#ff2d20" fill-rule="evenodd"/>
    </g>
  </g>
</svg>
