<?xml version="1.0" encoding="UTF-8"?>
<svg id="Layer_1" data-name="Layer 1" xmlns="http://www.w3.org/2000/svg" version="1.1" xmlns:xlink="http://www.w3.org/1999/xlink" viewBox="0 0 60 60">
  <defs>
    <style>
      .cls-1 {
        fill: none;
      }

      .cls-1, .cls-2, .cls-3 {
        stroke-width: 0px;
      }

      .cls-4 {
        clip-path: url(#clippath-1);
      }

      .cls-2 {
        fill: #4db986;
      }

      .cls-3 {
        fill: #435466;
      }

      .cls-5 {
        clip-path: url(#clippath);
      }
    </style>
    <clipPath id="clippath">
      <rect class="cls-1" x="3.5" y="7" width="53" height="46"/>
    </clipPath>
    <clipPath id="clippath-1">
      <rect class="cls-1" x="3.5" y="7" width="53" height="46"/>
    </clipPath>
  </defs>
  <g class="cls-5">
    <path class="cls-2" d="M45.8,7.1h10.7c-8.8,15.3-17.6,30.6-26.5,46C21.1,37.7,12.3,22.5,3.5,7.1h10.6c.5.3.7.8.9,1.3,4.8,8.4,9.7,16.7,14.5,25.1,0,0,0,0,0,.2.4.6.4.6.8,0,4.1-7.2,8.4-14.4,12.5-21.6.8-1.4,1.6-2.9,2.5-4.3,0-.2.3-.5.4-.6"/>
  </g>
  <g class="cls-4">
    <path class="cls-3" d="M45.8,7.1c-.8,1.6-1.8,3.2-2.7,4.8-3,5.2-6,10.4-9,15.6-1.3,2.3-2.6,4.5-3.9,6.8-.3.5-.4.4-.6,0-2.9-5-5.7-9.9-8.6-14.9-2.3-4.1-4.7-8.1-7-12.2h9.4c.4,0,.4.3.6.5,1.8,3.2,3.6,6.3,5.4,9.4,0,.2.3.5.4.7.8-1.4,1.6-2.7,2.3-4.1,1.2-2,2.3-4.1,3.5-6,.2-.3.3-.5.6-.5,3.2,0,6.3,0,9.4,0"/>
  </g>
</svg>