<?xml version="1.0" encoding="UTF-8"?>
<svg xmlns="http://www.w3.org/2000/svg" version="1.1" viewBox="0 0 120 120">
  <defs>
    <style>
      .cls-1 {
        fill: #f7df1e;
      }
    </style>
  </defs>
  <!-- Generator: Adobe Illustrator 28.6.0, SVG Export Plug-In . SVG Version: 1.2.0 Build 709)  -->
  <g>
    <g id="Layer_1">
      <g>
        <path class="cls-1" d="M0,0h120v120H0V0Z"/>
        <path d="M31.6,100.4l9.1-5.5c1.7,3.1,3.3,5.7,7.2,5.7s6-1.4,6-7.2v-38.2h11.5v38.5c0,11.7-6.9,17-16.7,17-9.1,0-14.3-4.8-17-10.3M71.2,99.2l9.1-5.3c2.4,4.1,5.5,6.9,11,6.9s7.6-2.4,7.6-5.5-3.1-5.3-8.1-7.4l-2.9-1.2c-8.1-3.3-13.6-7.9-13.6-17s6.5-14.8,16.5-14.8,12.4,2.4,16,9.1l-8.8,5.7c-1.9-3.3-4.1-4.8-7.2-4.8s-5.5,2.2-5.5,4.8,2.2,4.8,6.9,6.9l2.9,1.2c9.6,4.1,15.1,8.4,15.1,17.7s-7.9,15.8-18.6,15.8c-10.3-.7-17-5.7-20.3-12.2"/>
      </g>
    </g>
  </g>
</svg>