<?xml version="1.0" encoding="UTF-8"?>
<svg xmlns="http://www.w3.org/2000/svg" version="1.1" xmlns:xlink="http://www.w3.org/1999/xlink" viewBox="0 0 120 120">
  <defs>
    <style>
      .cls-1 {
        fill: url(#linear-gradient-2);
      }

      .cls-2 {
        fill: #2062af;
      }

      .cls-3 {
        fill: #3c9cd7;
      }

      .cls-4 {
        fill: #fff;
      }

      .cls-5 {
        fill: url(#linear-gradient-4);
      }

      .cls-6 {
        fill: url(#linear-gradient-3);
      }

      .cls-7 {
        fill: #e44d26;
      }

      .cls-8 {
        isolation: isolate;
        opacity: 0;
      }

      .cls-9 {
        fill: #f16529;
      }

      .cls-10 {
        fill: #ebebeb;
      }

      .cls-11 {
        fill: url(#linear-gradient);
      }
    </style>
    <linearGradient id="linear-gradient" x1="-421" y1="-1068" x2="-421" y2="-1072.1" gradientTransform="translate(2005.3 4991.6) scale(4.6)" gradientUnits="userSpaceOnUse">
      <stop offset=".4" stop-color="#d1d3d4" stop-opacity="0"/>
      <stop offset="1" stop-color="#d1d3d4"/>
    </linearGradient>
    <linearGradient id="linear-gradient-2" x1="-415.8" y1="-1070" x2="-415.8" y2="-1074.3" gradientTransform="translate(2005.3 4991.6) scale(4.6)" gradientUnits="userSpaceOnUse">
      <stop offset=".4" stop-color="#d1d3d4" stop-opacity="0"/>
      <stop offset="1" stop-color="#d1d3d4"/>
    </linearGradient>
    <linearGradient id="linear-gradient-3" x1="-423.3" y1="-1066.8" x2="-413.4" y2="-1066.8" gradientTransform="translate(2005.3 4991.6) scale(4.6)" gradientUnits="userSpaceOnUse">
      <stop offset="0" stop-color="#e8e7e5"/>
      <stop offset="1" stop-color="#fff"/>
    </linearGradient>
    <linearGradient id="linear-gradient-4" x1="-423.7" y1="-1073.9" x2="-413" y2="-1073.9" gradientTransform="translate(2005.3 4991.6) scale(4.6)" gradientUnits="userSpaceOnUse">
      <stop offset="0" stop-color="#e8e7e5"/>
      <stop offset="1" stop-color="#fff"/>
    </linearGradient>
  </defs>
  <!-- Generator: Adobe Illustrator 28.6.0, SVG Export Plug-In . SVG Version: 1.2.0 Build 709)  -->
  <g>
    <g id="Layer_1">
      <g>
        <g>
          <path class="cls-2" d="M112.6,110.7l-32.2,8.7-32.2-8.7-7.4-80.4h79.2l-7.4,80.4h0Z"/>
          <path class="cls-3" d="M80.4,36.8v75.6h0s26-7,26-7l6-68.7h-32.1Z"/>
          <path class="cls-4" d="M80.4,56.9l-23,9.6.8,9.5,22.3-9.5,23.7-10.1,1-9.7-24.7,10.3h0Z"/>
          <path class="cls-11" d="M57.4,66.5l.8,9.5,22.3-9.5v-9.6l-23,9.6h0Z"/>
          <path class="cls-1" d="M105,46.6l-24.7,10.3v9.6l23.7-10.1,1-9.7h0Z"/>
          <path class="cls-6" d="M57.4,66.5l.8,9.5h34.1c0,.1-.8,12.8-.8,12.8l-11.2,3.2-10.8-2.7-.7-7.9h-10l1.3,15.2,20.3,6,20.2-5.9,2.6-30.1h-45.8,0Z"/>
          <path class="cls-8" d="M80.4,66.5h-23l.8,9.5h22.3c0,0,0-9.5,0-9.5h0ZM80.4,91.9h-.1s-10.8-2.7-10.8-2.7l-.7-7.9h-10l1.3,15.2,20.3,6v-10.6h0Z"/>
          <path class="cls-5" d="M55.3,46.6h49.7l-1,9.7h-47.6l-1.2-9.7h0Z"/>
          <path class="cls-8" d="M80.4,46.6h-25.1l1.2,9.7h23.9v-9.7h0Z"/>
        </g>
        <g>
          <path class="cls-7" d="M78.5.6l-7.2,80.1-32.2,8.9-32.1-8.9L0,.7h78.5Z"/>
          <path class="cls-9" d="M39.3,82.9l26-7.2,6.1-68.5h-32.1v75.7h0Z"/>
          <path class="cls-10" d="M25.4,26.9h13.9v-9.8H14.6l.2,2.6,2.4,27.1h22v-9.8h-13l-.9-10.1h0ZM27.6,51.7h-9.9l1.4,15.4,20.1,5.6h0v-10.2h0s-10.9-2.9-10.9-2.9l-.7-7.8h0Z"/>
          <path class="cls-4" d="M39.2,46.8h12.1l-1.1,12.8-11,3v10.2l20.2-5.6v-1.7c.1,0,2.5-25.9,2.5-25.9l.2-2.6h-22.8v9.8h0ZM39.2,26.8h0s23.7,0,23.7,0l.2-2.2.4-5,.2-2.6h-24.6v9.8h0Z"/>
        </g>
      </g>
    </g>
  </g>
</svg>